<?xml version="1.0" encoding="UTF-8"?>
<svg xmlns="http://www.w3.org/2000/svg" viewBox="0 0 141.73 141.73">
  <defs>
    <style>
      .cls-1 {
        fill: #fff9ee;
      }

      .cls-2 {
        fill: #1f3a6e;
      }

      .cls-3 {
        fill: none;
      }

      .cls-4 {
        fill: #f15b5c;
      }
    </style>
  </defs>
  <g id="Front_BG" data-name="Front BG">
    <rect class="cls-2" x="0" width="141.73" height="141.73"/>
  </g>
  <g id="Front_Texts" data-name="Front Texts">
    <g>
      <rect class="cls-3" x="11.7" y="62.79" width="118.34" height="16.16"/>
      <path class="cls-1" d="M26.13,69.85c0-1.03.18-1.98.54-2.87.36-.89.87-1.66,1.53-2.32s1.45-1.18,2.37-1.55,1.93-.56,3.04-.56,2.12.19,3.04.56,1.71.89,2.37,1.55,1.17,1.43,1.53,2.32c.36.89.54,1.84.54,2.87s-.18,2.03-.54,2.94c-.36.91-.87,1.7-1.53,2.37-.66.67-1.45,1.2-2.37,1.59s-1.93.58-3.04.58-2.12-.19-3.04-.58-1.71-.92-2.37-1.59c-.66-.67-1.17-1.46-1.53-2.37-.36-.91-.54-1.89-.54-2.94ZM29.75,69.85c0,.61.1,1.18.29,1.7.19.52.46.97.8,1.35.34.38.75.68,1.22.9.47.22.99.33,1.55.33s1.08-.11,1.55-.33c.47-.22.88-.52,1.22-.9.34-.38.61-.83.8-1.35.19-.52.29-1.09.29-1.7s-.1-1.13-.29-1.63c-.19-.5-.46-.93-.8-1.3-.34-.37-.75-.65-1.22-.86-.47-.21-.99-.31-1.55-.31s-1.08.1-1.55.31c-.47.21-.88.49-1.22.86-.34.37-.61.8-.8,1.3s-.29,1.04-.29,1.63Z"/>
      <path class="cls-1" d="M42.55,63.89c0-.73.37-1.1,1.1-1.1h1.26c.73,0,1.1.37,1.1,1.1v3.08c0,.13,0,.25,0,.36,0,.11,0,.2,0,.28-.01.09-.02.17-.02.24h.04c.19-.24.42-.45.7-.64.23-.16.52-.31.88-.45.36-.14.78-.21,1.26-.21.68,0,1.3.13,1.86.39.56.26,1.04.63,1.44,1.1.4.47.71,1.04.94,1.69s.34,1.37.34,2.16c0,.83-.12,1.58-.37,2.25-.25.67-.58,1.25-1.01,1.72s-.93.84-1.5,1.09-1.19.38-1.86.38c-.56,0-1.02-.07-1.39-.22-.37-.15-.66-.31-.89-.5-.27-.21-.49-.45-.66-.72h-.04v.06s0,.05,0,.07c0,.02,0,.04,0,.07v.08c0,.27-.09.49-.28.66-.19.17-.46.26-.82.26h-.98c-.73,0-1.1-.37-1.1-1.1v-12.1ZM45.91,71.9c0,.35.04.68.13.98.09.31.21.58.38.81.17.23.37.42.62.56.25.14.53.21.85.21.57,0,1.06-.21,1.46-.64.4-.43.6-1.04.6-1.85s-.18-1.38-.55-1.84c-.37-.46-.85-.69-1.45-.69-.27,0-.52.05-.77.15s-.46.25-.65.45c-.19.2-.34.46-.45.76s-.17.67-.17,1.08Z"/>
      <path class="cls-1" d="M54.95,67.89c0-.73.37-1.1,1.1-1.1h1.26c.73,0,1.1.37,1.1,1.1v9.38c0,.56-.08,1.05-.25,1.46-.17.41-.38.77-.64,1.06-.26.29-.55.53-.87.72-.32.19-.64.34-.96.45-.32.11-.62.19-.9.23s-.51.06-.68.06h-.36c-.73,0-1.1-.37-1.1-1.1v-.76c0-.21.03-.39.1-.53.07-.14.15-.25.25-.32.1-.07.22-.13.35-.16.13-.03.27-.06.4-.09.13-.01.27-.04.41-.09s.27-.12.39-.21c.12-.09.22-.22.29-.37s.11-.36.11-.61v-9.12ZM56.09,65.49c-.73,0-1.1-.37-1.1-1.1v-.5c0-.73.37-1.1,1.1-1.1h1.18c.73,0,1.1.37,1.1,1.1v.5c0,.73-.37,1.1-1.1,1.1h-1.18Z"/>
      <path class="cls-1" d="M59.89,71.93c0-.76.12-1.47.37-2.12.25-.65.6-1.22,1.06-1.7.46-.48,1.02-.86,1.69-1.14.67-.28,1.41-.42,2.24-.42.76,0,1.44.13,2.03.38.59.25,1.09.6,1.5,1.04.41.44.71.96.92,1.56.21.6.31,1.25.31,1.94,0,.27-.11.52-.32.77-.21.25-.49.37-.84.37h-5.42c.13.63.43,1.09.88,1.38.45.29.96.43,1.52.43.35,0,.68-.05,1-.14.32-.09.61-.21.88-.34.33-.15.62-.19.86-.14.24.05.45.24.62.56l.28.52c.16.31.21.59.16.86-.05.26-.23.48-.54.66-.37.21-.86.42-1.45.62-.59.2-1.29.3-2.09.3-.92,0-1.73-.15-2.44-.46-.71-.31-1.3-.71-1.77-1.21-.47-.5-.83-1.08-1.08-1.73-.25-.65-.37-1.32-.37-2ZM66.59,70.63c0-.43-.13-.79-.38-1.09s-.6-.45-1.04-.45c-.51,0-.89.15-1.14.46-.25.31-.43.67-.52,1.08h3.08Z"/>
      <path class="cls-1" d="M70.85,71.93c0-.69.13-1.36.38-2.01.25-.65.62-1.22,1.11-1.72.49-.5,1.09-.9,1.8-1.2.71-.3,1.53-.45,2.45-.45.79,0,1.45.1,2,.29.55.2.99.41,1.32.63.28.19.44.41.47.67s-.04.54-.23.84l-.34.52c-.19.31-.4.48-.64.51s-.52-.03-.84-.19c-.2-.11-.43-.2-.68-.27-.25-.07-.53-.11-.84-.11-.41,0-.77.07-1.08.21-.31.14-.56.32-.77.56s-.36.49-.46.78c-.1.29-.15.59-.15.89s.05.61.16.91c.11.3.27.58.48.81.21.24.48.43.8.59s.7.23,1.14.23c.35,0,.68-.06,1-.18.32-.12.61-.25.86-.4.33-.19.62-.25.87-.2.25.05.46.25.63.58l.26.5c.15.31.2.59.16.85s-.19.48-.46.66c-.36.24-.85.48-1.46.73-.61.24-1.35.36-2.2.36-.92,0-1.74-.15-2.45-.44-.71-.29-1.31-.69-1.8-1.19-.49-.5-.86-1.08-1.11-1.73-.25-.65-.38-1.33-.38-2.04Z"/>
      <path class="cls-1" d="M82.71,69.67h-.3c-.72,0-1.08-.37-1.08-1.1v-.5c0-.73.37-1.1,1.1-1.1h.38v-1.86c0-.73.37-1.1,1.1-1.1h1.16c.73,0,1.1.37,1.1,1.1v1.86h1.06c.73,0,1.1.37,1.1,1.1v.5c0,.73-.36,1.1-1.08,1.1h-1.08v3.12c0,.44.12.76.37.95s.52.31.83.35c.4.05.68.15.85.3.17.15.25.41.25.8v.9c0,.41-.12.7-.36.86s-.59.24-1.06.24c-.39,0-.83-.05-1.32-.16-.49-.11-.97-.3-1.42-.58-.45-.28-.83-.66-1.14-1.15-.31-.49-.46-1.11-.46-1.87v-3.76Z"/>
      <path class="cls-1" d="M89.99,67.89c0-.73.37-1.1,1.1-1.1h1.26c.73,0,1.1.37,1.1,1.1v8.1c0,.73-.37,1.1-1.1,1.1h-1.26c-.73,0-1.1-.37-1.1-1.1v-8.1ZM91.13,65.49c-.73,0-1.1-.37-1.1-1.1v-.5c0-.73.37-1.1,1.1-1.1h1.18c.73,0,1.1.37,1.1,1.1v.5c0,.73-.37,1.1-1.1,1.1h-1.18Z"/>
      <path class="cls-1" d="M94.71,68.05c-.13-.39-.12-.69.04-.92.16-.23.45-.34.86-.34h1.34c.64,0,1.05.31,1.22.92l1.34,4.56c.05.17.1.36.14.56s.08.39.12.58c.04.21.08.43.12.64h.04c.03-.21.07-.43.12-.64.03-.19.06-.38.11-.58s.1-.39.15-.56l1.32-4.56c.17-.61.58-.92,1.22-.92h1.38c.4,0,.68.11.85.34.17.23.18.53.05.92l-2.78,8.14c-.2.6-.61.9-1.24.9h-2.34c-.63,0-1.04-.3-1.24-.9l-2.82-8.14Z"/>
      <path class="cls-1" d="M105.73,71.93c0-.76.12-1.47.37-2.12.25-.65.6-1.22,1.06-1.7.46-.48,1.02-.86,1.69-1.14.67-.28,1.41-.42,2.24-.42.76,0,1.44.13,2.03.38.59.25,1.09.6,1.5,1.04.41.44.71.96.92,1.56.21.6.31,1.25.31,1.94,0,.27-.11.52-.32.77-.21.25-.49.37-.84.37h-5.42c.13.63.43,1.09.88,1.38.45.29.96.43,1.52.43.35,0,.68-.05,1-.14.32-.09.61-.21.88-.34.33-.15.62-.19.86-.14.24.05.45.24.62.56l.28.52c.16.31.21.59.16.86-.05.26-.23.48-.54.66-.37.21-.86.42-1.45.62-.59.2-1.29.3-2.09.3-.92,0-1.73-.15-2.44-.46-.71-.31-1.3-.71-1.77-1.21-.47-.5-.83-1.08-1.08-1.73-.25-.65-.37-1.32-.37-2ZM112.43,70.63c0-.43-.13-.79-.38-1.09s-.6-.45-1.04-.45c-.51,0-.89.15-1.14.46-.25.31-.43.67-.52,1.08h3.08Z"/>
    </g>
    <path class="cls-1" d="M56.25,116.94l1.68-2.14c.53-.68,1.05-1.52,1.78-2.01.83-.55,1.67-.31,1.86.71.12.67.04,1.37.28,2.02.35.97,1.32,1.97,2.42,1.45.54-.26.83-.8,1.15-1.28.48-.74.99-1.46,1.54-2.14s1.36-1.77,2.19-.85c.59.65.6,1.64.79,2.46.27,1.14,1.07,2.4,2.39,2.4,2.94,0,3.1-6.87,6.64-4.35,1.42,1.01,2,2.82,3.39,3.88,1.09.84,2.69,1.15,3.85.27.59-.45,0-1.47-.59-1.01-1.52,1.17-3.07-.54-3.89-1.71s-1.66-2.39-3.04-2.9-2.63-.01-3.54,1.01c-.47.53-.81,1.14-1.15,1.75s-.96,2.08-1.86,1.86-1.05-1.48-1.19-2.21-.29-1.41-.74-2.01c-.77-1.03-2.06-1.32-3.09-.47-1.18.96-2.03,2.46-2.86,3.7-.26.39-.55.73-1,.33-.29-.27-.37-.78-.41-1.14-.07-.68-.05-1.37-.34-2-.56-1.26-2.05-1.52-3.2-.88-.74.42-1.26,1.12-1.77,1.78-.7.89-1.4,1.78-2.1,2.68-.46.59.36,1.42.83.83h0Z"/>
    <circle class="cls-4" cx="56.69" cy="63.9" r="2.23"/>
    <circle class="cls-4" cx="91.82" cy="63.9" r="2.23"/>
  </g>
</svg>