<?xml version="1.0" encoding="UTF-8"?>
<svg xmlns="http://www.w3.org/2000/svg" viewBox="0 0 141.73 141.73">
  <defs>
    <style>
      .cls-1 {
        fill: #fff9ee;
      }

      .cls-2 {
        fill: none;
      }

      .cls-3 {
        fill: #a1b860;
      }
    </style>
  </defs>
  <g id="Front_BG" data-name="Front BG">
    <rect class="cls-3" x="0" width="141.73" height="141.73"/>
  </g>
  <g id="Front_Texts" data-name="Front Texts">
    <g>
      <rect class="cls-2" x="11.7" y="62.79" width="118.34" height="16.16"/>
      <path class="cls-1" d="M33.73,69.91c0-1.04.18-2.01.55-2.9.37-.89.88-1.67,1.54-2.33.66-.66,1.45-1.18,2.37-1.56.92-.38,1.93-.57,3.04-.57.55,0,1.05.04,1.52.13s.89.2,1.28.33c.39.13.73.28,1.02.44.29.16.55.31.76.46.28.2.44.43.47.69.03.26-.04.54-.23.83l-.5.82c-.19.31-.41.48-.66.52s-.53-.03-.84-.22c-.33-.19-.73-.37-1.18-.54-.45-.17-.95-.26-1.48-.26-.72,0-1.33.12-1.84.35s-.92.54-1.25.92c-.33.38-.57.81-.72,1.3-.15.49-.23.99-.23,1.51s.08,1.06.24,1.57c.16.51.41.97.74,1.38.33.41.75.73,1.26.98s1.11.37,1.8.37c.6,0,1.15-.11,1.65-.33s.92-.45,1.27-.69c.63-.44,1.14-.37,1.54.2l.56.78c.19.28.27.55.25.82-.02.27-.16.51-.43.72-.23.17-.5.36-.82.56-.32.2-.69.38-1.11.55-.42.17-.89.31-1.4.42-.51.11-1.07.17-1.67.17-1.15,0-2.18-.19-3.11-.56s-1.72-.89-2.37-1.56-1.15-1.45-1.5-2.35c-.35-.9-.52-1.88-.52-2.95Z"/>
      <path class="cls-1" d="M47.29,71.97c0-.81.15-1.55.46-2.22.31-.67.72-1.24,1.25-1.71.53-.47,1.14-.84,1.85-1.1s1.46-.39,2.26-.39,1.58.13,2.29.39,1.33.63,1.86,1.1c.53.47.94,1.04,1.25,1.71.31.67.46,1.41.46,2.22s-.15,1.53-.46,2.19c-.31.66-.72,1.23-1.25,1.7-.53.47-1.14.84-1.85,1.09-.71.25-1.47.38-2.28.38s-1.57-.13-2.28-.38c-.71-.25-1.32-.62-1.85-1.09-.53-.47-.94-1.04-1.25-1.7-.31-.66-.46-1.39-.46-2.19ZM50.79,71.97c0,.38.06.73.19,1.03.13.3.3.56.51.77.21.21.46.37.74.49.28.11.58.17.9.17s.62-.06.9-.17c.28-.11.53-.27.74-.49.21-.21.38-.47.51-.77.13-.3.19-.65.19-1.03s-.06-.73-.19-1.04-.3-.58-.51-.79c-.21-.22-.46-.39-.74-.51-.28-.12-.58-.18-.9-.18s-.62.06-.9.18c-.28.12-.53.29-.74.51-.21.22-.38.48-.51.79s-.19.66-.19,1.04Z"/>
      <path class="cls-1" d="M60.43,67.89c0-.73.37-1.1,1.1-1.1h1.12c.72,0,1.08.37,1.08,1.1v.18s0,.05-.01.08c0,.03,0,.05,0,.08v.1h.04c.12-.2.27-.41.46-.62.19-.21.41-.4.68-.57.27-.17.58-.31.93-.42.35-.11.76-.17,1.21-.17.52,0,1.01.07,1.46.2.45.13.84.35,1.17.65.33.3.59.7.78,1.19.19.49.29,1.1.29,1.82v5.58c0,.73-.37,1.1-1.1,1.1h-1.26c-.73,0-1.1-.37-1.1-1.1v-4.94c0-.48-.09-.83-.28-1.04s-.47-.32-.86-.32-.72.07-1,.22c-.28.15-.51.35-.7.6-.19.25-.32.55-.41.88-.09.33-.13.68-.13,1.04v3.56c0,.73-.37,1.1-1.1,1.1h-1.26c-.73,0-1.1-.37-1.1-1.1v-8.1Z"/>
      <path class="cls-1" d="M73.23,69.67h-.3c-.72,0-1.08-.37-1.08-1.1v-.5c0-.73.37-1.1,1.1-1.1h.38v-1.86c0-.73.37-1.1,1.1-1.1h1.16c.73,0,1.1.37,1.1,1.1v1.86h1.06c.73,0,1.1.37,1.1,1.1v.5c0,.73-.36,1.1-1.08,1.1h-1.08v3.12c0,.44.12.76.37.95.25.19.52.31.83.35.4.05.68.15.85.3.17.15.25.41.25.8v.9c0,.41-.12.7-.36.86-.24.16-.59.24-1.06.24-.39,0-.83-.05-1.32-.16-.49-.11-.97-.3-1.42-.58-.45-.28-.83-.66-1.14-1.15s-.46-1.11-.46-1.87v-3.76Z"/>
      <path class="cls-1" d="M79.81,71.93c0-.76.12-1.47.37-2.12.25-.65.6-1.22,1.06-1.7.46-.48,1.02-.86,1.69-1.14.67-.28,1.41-.42,2.24-.42.76,0,1.44.13,2.03.38.59.25,1.09.6,1.5,1.04.41.44.71.96.92,1.56.21.6.31,1.25.31,1.94,0,.27-.11.52-.32.77-.21.25-.49.37-.84.37h-5.42c.13.63.43,1.1.88,1.38.45.29.96.44,1.52.44.35,0,.68-.05,1-.14.32-.09.61-.21.88-.34.33-.15.62-.19.86-.14.24.05.45.24.62.56l.28.52c.16.31.21.59.16.86-.05.26-.23.48-.54.65-.37.21-.86.42-1.45.62-.59.2-1.29.3-2.09.3-.92,0-1.73-.15-2.44-.46-.71-.31-1.3-.71-1.77-1.21-.47-.5-.83-1.08-1.08-1.73-.25-.65-.37-1.32-.37-2ZM86.5,70.63c0-.43-.13-.79-.38-1.09-.25-.3-.6-.45-1.04-.45-.51,0-.89.15-1.14.46-.25.31-.43.67-.52,1.08h3.08Z"/>
      <path class="cls-1" d="M93.41,71.99l-2.48-3.88c-.24-.37-.29-.69-.15-.94.14-.25.44-.38.89-.38h1.42c.59,0,1.02.27,1.3.8l.72,1.5c.03.07.06.14.11.22.05.08.08.15.11.22.04.08.07.16.1.24h.04l.12-.24c.03-.07.06-.14.1-.22s.07-.15.1-.22l.72-1.5c.28-.53.71-.8,1.3-.8h1.42c.45,0,.75.13.89.38.14.25.09.57-.15.94l-2.46,3.88,2.4,3.78c.24.37.29.69.15.94-.14.25-.44.38-.89.38h-1.34c-.57,0-1.01-.26-1.3-.78l-.82-1.54s-.05-.09-.08-.15c-.03-.06-.05-.12-.08-.17l-.08-.2h-.04l-.08.2c-.03.05-.05.11-.08.17-.03.06-.05.11-.08.15l-.8,1.54c-.29.52-.73.78-1.3.78h-1.34c-.45,0-.75-.13-.89-.38-.14-.25-.09-.57.15-.94l2.4-3.78Z"/>
      <path class="cls-1" d="M102.38,69.67h-.3c-.72,0-1.08-.37-1.08-1.1v-.5c0-.73.37-1.1,1.1-1.1h.38v-1.86c0-.73.37-1.1,1.1-1.1h1.16c.73,0,1.1.37,1.1,1.1v1.86h1.06c.73,0,1.1.37,1.1,1.1v.5c0,.73-.36,1.1-1.08,1.1h-1.08v3.12c0,.44.12.76.37.95.25.19.52.31.83.35.4.05.68.15.85.3.17.15.25.41.25.8v.9c0,.41-.12.7-.36.86-.24.16-.59.24-1.06.24-.39,0-.83-.05-1.32-.16-.49-.11-.97-.3-1.42-.58-.45-.28-.83-.66-1.14-1.15s-.46-1.11-.46-1.87v-3.76Z"/>
    </g>
    <path class="cls-1" d="M56.25,116.94l1.68-2.14c.53-.68,1.05-1.52,1.78-2.01.83-.55,1.67-.31,1.86.71.12.67.04,1.37.28,2.02.35.97,1.32,1.97,2.42,1.45.54-.26.83-.8,1.15-1.28.48-.74.99-1.46,1.54-2.14s1.36-1.77,2.19-.85c.59.65.6,1.64.79,2.46.27,1.14,1.07,2.4,2.39,2.4,2.94,0,3.1-6.87,6.64-4.35,1.42,1.01,2,2.82,3.39,3.88,1.09.84,2.69,1.15,3.85.27.59-.45,0-1.47-.59-1.01-1.52,1.17-3.07-.54-3.89-1.71s-1.66-2.39-3.04-2.9-2.63-.01-3.54,1.01c-.47.53-.81,1.14-1.15,1.75s-.96,2.08-1.86,1.86-1.05-1.48-1.19-2.21-.29-1.41-.74-2.01c-.77-1.03-2.06-1.32-3.09-.47-1.18.96-2.03,2.46-2.86,3.7-.26.39-.55.73-1,.33-.29-.27-.37-.78-.41-1.14-.07-.68-.05-1.37-.34-2-.56-1.26-2.05-1.52-3.2-.88-.74.42-1.26,1.12-1.77,1.78-.7.89-1.4,1.78-2.1,2.68-.46.59.36,1.42.83.83h0Z"/>
  </g>
</svg>