<?xml version="1.0" encoding="UTF-8"?>
<svg xmlns="http://www.w3.org/2000/svg" viewBox="0 0 141.73 141.73">
  <defs>
    <style>
      .cls-1 {
        fill: #fff9ee;
      }

      .cls-2 {
        fill: none;
      }

      .cls-3 {
        fill: #f15b5c;
      }

      .cls-4 {
        fill: #55b6cf;
      }
    </style>
  </defs>
  <g id="Front_BG" data-name="Front BG">
    <rect class="cls-4" x="0" width="141.73" height="141.73"/>
  </g>
  <g id="Front_Texts" data-name="Front Texts">
    <g>
      <rect class="cls-2" x="11.7" y="62.79" width="118.34" height="16.16"/>
      <path class="cls-1" d="M20.03,63.89c0-.73.37-1.1,1.1-1.1h1.3c.73,0,1.1.37,1.1,1.1v12.1c0,.73-.37,1.1-1.1,1.1h-1.3c-.73,0-1.1-.37-1.1-1.1v-12.1Z"/>
      <path class="cls-1" d="M25.69,67.89c0-.73.37-1.1,1.1-1.1h1.12c.72,0,1.08.37,1.08,1.1v.18s0,.05-.01.08c0,.03,0,.05,0,.08v.1h.04c.12-.2.27-.41.46-.62.19-.21.41-.4.68-.57.27-.17.58-.31.93-.42.35-.11.76-.17,1.21-.17.52,0,1.01.07,1.46.2.45.13.84.35,1.17.65.33.3.59.7.78,1.19.19.49.29,1.1.29,1.82v5.58c0,.73-.37,1.1-1.1,1.1h-1.26c-.73,0-1.1-.37-1.1-1.1v-4.94c0-.48-.09-.83-.28-1.04-.19-.21-.47-.32-.86-.32s-.72.07-1,.22c-.28.15-.51.35-.7.6-.19.25-.32.55-.41.88-.09.33-.13.68-.13,1.04v3.56c0,.73-.37,1.1-1.1,1.1h-1.26c-.73,0-1.1-.37-1.1-1.1v-8.1Z"/>
      <path class="cls-1" d="M38.49,69.67h-.3c-.72,0-1.08-.37-1.08-1.1v-.5c0-.73.37-1.1,1.1-1.1h.38v-1.86c0-.73.37-1.1,1.1-1.1h1.16c.73,0,1.1.37,1.1,1.1v1.86h1.06c.73,0,1.1.37,1.1,1.1v.5c0,.73-.36,1.1-1.08,1.1h-1.08v3.12c0,.44.12.76.37.95s.52.31.83.35c.4.05.68.15.85.3.17.15.25.41.25.8v.9c0,.41-.12.7-.36.86s-.59.24-1.06.24c-.39,0-.83-.05-1.32-.16-.49-.11-.97-.3-1.42-.58-.45-.28-.83-.66-1.14-1.15-.31-.49-.46-1.11-.46-1.87v-3.76Z"/>
      <path class="cls-1" d="M45.07,71.93c0-.76.12-1.47.37-2.12.25-.65.6-1.22,1.06-1.7.46-.48,1.02-.86,1.69-1.14.67-.28,1.41-.42,2.24-.42.76,0,1.44.13,2.03.38.59.25,1.09.6,1.5,1.04.41.44.71.96.92,1.56.21.6.31,1.25.31,1.94,0,.27-.11.52-.32.77-.21.25-.49.37-.84.37h-5.42c.13.63.43,1.09.88,1.38.45.29.96.43,1.52.43.35,0,.68-.05,1-.14.32-.09.61-.21.88-.34.33-.15.62-.19.86-.14.24.05.45.24.62.56l.28.52c.16.31.21.59.16.86-.05.26-.23.48-.54.66-.37.21-.86.42-1.45.62-.59.2-1.29.3-2.09.3-.92,0-1.73-.15-2.44-.46-.71-.31-1.3-.71-1.77-1.21-.47-.5-.83-1.08-1.08-1.73-.25-.65-.37-1.32-.37-2ZM51.77,70.63c0-.43-.13-.79-.38-1.09s-.6-.45-1.04-.45c-.51,0-.89.15-1.14.46-.25.31-.43.67-.52,1.08h3.08Z"/>
      <path class="cls-1" d="M56.61,67.89c0-.73.37-1.1,1.1-1.1h1.12c.73,0,1.1.37,1.1,1.1v.64c0,.09,0,.17,0,.24,0,.07,0,.13,0,.2-.01.07-.02.13-.02.2h.04c.08-.27.21-.55.38-.84.17-.29.38-.56.62-.8s.51-.44.81-.6c.3-.16.61-.24.93-.24.35,0,.59.09.73.28.14.19.21.46.21.82v1.12c0,.73-.37,1.1-1.1,1.1-.41,0-.77.08-1.08.25-.31.17-.56.39-.76.67-.2.28-.35.61-.45.98-.1.37-.15.77-.15,1.18v2.9c0,.73-.37,1.1-1.1,1.1h-1.26c-.73,0-1.1-.37-1.1-1.1v-8.1Z"/>
      <path class="cls-1" d="M63.83,74.19c0-.69.18-1.27.55-1.72.37-.45.84-.81,1.41-1.08.57-.27,1.2-.45,1.88-.56s1.34-.16,1.98-.16h.3v-.18c0-.43-.15-.72-.44-.89-.29-.17-.63-.25-1.02-.25-.33,0-.66.05-.98.14s-.61.2-.88.32c-.68.29-1.17.13-1.48-.48l-.24-.5c-.15-.31-.19-.59-.12-.85.07-.26.25-.47.56-.63.39-.19.87-.37,1.46-.54.59-.17,1.25-.26,2-.26,1.43,0,2.55.37,3.37,1.11s1.23,1.77,1.23,3.09v5.24c0,.73-.37,1.1-1.1,1.1h-.96c-.73,0-1.1-.37-1.1-1.12v-.22s0-.05.02-.06h-.04c-.2.31-.45.58-.74.82-.25.21-.57.4-.96.57s-.83.25-1.34.25-.95-.08-1.36-.24c-.41-.16-.77-.38-1.06-.66-.29-.28-.52-.61-.69-1-.17-.39-.25-.8-.25-1.24ZM67.25,73.87c0,.24.08.45.25.62.17.17.41.26.73.26.25,0,.49-.06.7-.17s.4-.26.56-.43c.16-.17.28-.37.37-.58s.13-.43.13-.64v-.28h-.32c-.27,0-.54.02-.83.06-.29.04-.55.11-.78.2-.23.09-.43.22-.58.37s-.23.35-.23.59Z"/>
      <path class="cls-1" d="M74.71,71.93c0-.69.13-1.36.38-2.01.25-.65.62-1.22,1.11-1.72.49-.5,1.09-.9,1.8-1.2.71-.3,1.53-.45,2.45-.45.79,0,1.45.1,2,.29.55.2.99.41,1.32.63.28.19.44.41.47.67s-.04.54-.23.84l-.34.52c-.19.31-.4.48-.64.51s-.52-.03-.84-.19c-.2-.11-.43-.2-.68-.27-.25-.07-.53-.11-.84-.11-.41,0-.77.07-1.08.21-.31.14-.56.32-.77.56s-.36.49-.46.78c-.1.29-.15.59-.15.89s.05.61.16.91c.11.3.27.58.48.81.21.24.48.43.8.59s.7.23,1.14.23c.35,0,.68-.06,1-.18.32-.12.61-.25.86-.4.33-.19.62-.25.87-.2.25.05.46.25.63.58l.26.5c.15.31.2.59.16.85s-.19.48-.46.66c-.36.24-.85.48-1.46.73-.61.24-1.35.36-2.2.36-.92,0-1.74-.15-2.45-.44-.71-.29-1.31-.69-1.8-1.19-.49-.5-.86-1.08-1.11-1.73-.25-.65-.38-1.33-.38-2.04Z"/>
      <path class="cls-1" d="M86.57,69.67h-.3c-.72,0-1.08-.37-1.08-1.1v-.5c0-.73.37-1.1,1.1-1.1h.38v-1.86c0-.73.37-1.1,1.1-1.1h1.16c.73,0,1.1.37,1.1,1.1v1.86h1.06c.73,0,1.1.37,1.1,1.1v.5c0,.73-.36,1.1-1.08,1.1h-1.08v3.12c0,.44.12.76.37.95s.52.31.83.35c.4.05.68.15.85.3.17.15.25.41.25.8v.9c0,.41-.12.7-.36.86s-.59.24-1.06.24c-.39,0-.83-.05-1.32-.16-.49-.11-.97-.3-1.42-.58-.45-.28-.83-.66-1.14-1.15-.31-.49-.46-1.11-.46-1.87v-3.76Z"/>
      <path class="cls-1" d="M93.84,67.89c0-.73.37-1.1,1.1-1.1h1.26c.73,0,1.1.37,1.1,1.1v8.1c0,.73-.37,1.1-1.1,1.1h-1.26c-.73,0-1.1-.37-1.1-1.1v-8.1ZM94.99,65.49c-.73,0-1.1-.37-1.1-1.1v-.5c0-.73.37-1.1,1.1-1.1h1.18c.73,0,1.1.37,1.1,1.1v.5c0,.73-.37,1.1-1.1,1.1h-1.18Z"/>
      <path class="cls-1" d="M98.77,71.97c0-.81.15-1.55.46-2.22.31-.67.72-1.24,1.25-1.71.53-.47,1.14-.84,1.85-1.1.71-.26,1.46-.39,2.26-.39s1.58.13,2.29.39c.71.26,1.33.63,1.86,1.1.53.47.94,1.04,1.25,1.71.31.67.46,1.41.46,2.22s-.15,1.53-.46,2.19-.72,1.23-1.25,1.7c-.53.47-1.14.84-1.85,1.09-.71.25-1.47.38-2.28.38s-1.57-.13-2.28-.38-1.32-.62-1.85-1.09c-.53-.47-.94-1.04-1.25-1.7-.31-.66-.46-1.39-.46-2.19ZM102.27,71.97c0,.38.06.73.19,1.03.13.3.3.56.51.77.21.21.46.37.74.49s.58.17.9.17.62-.06.9-.17c.28-.11.53-.27.74-.49s.38-.47.51-.77c.13-.3.19-.65.19-1.03s-.06-.73-.19-1.04c-.13-.31-.3-.58-.51-.79s-.46-.39-.74-.51c-.28-.12-.58-.18-.9-.18s-.62.06-.9.18-.53.29-.74.51c-.21.22-.38.48-.51.79-.13.31-.19.66-.19,1.04Z"/>
      <path class="cls-1" d="M111.9,67.89c0-.73.37-1.1,1.1-1.1h1.12c.72,0,1.08.37,1.08,1.1v.18s0,.05-.01.08c0,.03,0,.05,0,.08v.1h.04c.12-.2.27-.41.46-.62.19-.21.41-.4.68-.57.27-.17.58-.31.93-.42.35-.11.76-.17,1.21-.17.52,0,1.01.07,1.46.2.45.13.84.35,1.17.65.33.3.59.7.78,1.19.19.49.29,1.1.29,1.82v5.58c0,.73-.37,1.1-1.1,1.1h-1.26c-.73,0-1.1-.37-1.1-1.1v-4.94c0-.48-.09-.83-.28-1.04-.19-.21-.47-.32-.86-.32s-.72.07-1,.22c-.28.15-.51.35-.7.6-.19.25-.32.55-.41.88-.09.33-.13.68-.13,1.04v3.56c0,.73-.37,1.1-1.1,1.1h-1.26c-.73,0-1.1-.37-1.1-1.1v-8.1Z"/>
    </g>
    <path class="cls-1" d="M56.25,116.94l1.68-2.14c.53-.68,1.05-1.52,1.78-2.01.83-.55,1.67-.31,1.86.71.12.67.04,1.37.28,2.02.35.97,1.32,1.97,2.42,1.45.54-.26.83-.8,1.15-1.28.48-.74.99-1.46,1.54-2.14s1.36-1.77,2.19-.85c.59.65.6,1.64.79,2.46.27,1.14,1.07,2.4,2.39,2.4,2.94,0,3.1-6.87,6.64-4.35,1.42,1.01,2,2.82,3.39,3.88,1.09.84,2.69,1.15,3.85.27.59-.45,0-1.47-.59-1.01-1.52,1.17-3.07-.54-3.89-1.71s-1.66-2.39-3.04-2.9-2.63-.01-3.54,1.01c-.47.53-.81,1.14-1.15,1.75s-.96,2.08-1.86,1.86-1.05-1.48-1.19-2.21-.29-1.41-.74-2.01c-.77-1.03-2.06-1.32-3.09-.47-1.18.96-2.03,2.46-2.86,3.7-.26.39-.55.73-1,.33-.29-.27-.37-.78-.41-1.14-.07-.68-.05-1.37-.34-2-.56-1.26-2.05-1.52-3.2-.88-.74.42-1.26,1.12-1.77,1.78-.7.89-1.4,1.78-2.1,2.68-.46.59.36,1.42.83.83h0Z"/>
    <circle class="cls-3" cx="95.36" cy="63.9" r="2.23"/>
  </g>
</svg>