<?xml version="1.0" encoding="UTF-8"?>
<svg xmlns="http://www.w3.org/2000/svg" viewBox="0 0 141.73 141.73">
  <defs>
    <style>
      .cls-1 {
        fill: #f1f2f2;
      }

      .cls-2 {
        fill: none;
      }

      .cls-3 {
        fill: #8581be;
      }

      .cls-4 {
        fill: #e3e8ef;
      }

      .cls-5 {
        fill: #ec724a;
        stroke: #ec724a;
        stroke-miterlimit: 10;
        stroke-width: .5px;
      }
    </style>
  </defs>
  <g id="Bottom_BGS" data-name="Bottom BGS">
    <path class="cls-5" d="M31.9,38.68c2.44-3.82,5.1-7.52,7.73-11.15.83-1.14,1.67-2.29,2.53-3.42,3.98-5.26,8.45-10.23,14.42-12.82,12.91-5.6,27.54,1.77,39.3,9.51,5.16,3.4,10.32,6.98,14.63,11.37,1.3,1.33,2.53,2.73,3.66,4.23,1.92,2.55,3.35,5.41,4.35,8.49,1.53,4.71,2.01,9.92,1.62,15.22,6.52-.02,13.05-.2,19.6-.6.66-.11,1.32-.24,1.98-.37V0H0v52.64c8.04.26,16.09.73,24.13,1.3,1.91-5.32,4.66-10.38,7.77-15.26Z"/>
  </g>
  <g id="Elements">
    <g>
      <path class="cls-4" d="M83.94,82.71c-.36-2.2-.97-4.38-.16-6.64.5-1.4,1.17-2.66,2.18-3.74.27-.29.64-.51.59-.98,3.38-1.37,6.48-.75,9.16,1.58,2.88,2.5,3.76,5.76,2.72,9.41-.34,1.21-.24,2.03.56,3.01,3.32,4.04,3.25,9.83-.05,13.88-3.28,4.02-8.98,5.21-13.61,2.77-.92-.48-1.76-.61-2.79-.47-3.49.46-6.98.56-10.4-.59-1.18-2.35-1.31-4.75-.19-7.15,1.72-3.69,4.86-7.29,10.42-6.59.92.12,1.83.23,2.75.35.5.47.67,1.13.95,1.72.39.81,1.06,1.09,1.86.74.76-.33.95-1,.69-1.78-.84-2.46-2.48-4.24-4.69-5.54Z"/>
      <path class="cls-3" d="M78.97,84.67s0,0,0,0c-2.43.17-4.49,1.38-6.25,3.33-.74.82-1.42,1.71-2.17,2.53-2.23,2.41-4.88,4.19-8.21,5.25,3,2.58,6.09,4.47,9.81,5.17-1.18-2.35-1.31-4.75-.19-7.15,1.72-3.69,4.85-5.84,10.43-6.44.89-.1,1.69.2,2.67.79.5.47.74.55,1.03,1.14.39.81,1.06,1.09,1.86.74.76-.33.95-1,.69-1.78-.84-2.46-2.48-4.24-4.69-5.54-.36-2.2-.97-4.38-.16-6.64.5-1.4,1.17-2.66,2.18-3.74.27-.29.64-.51.59-.98-3.02.98-4.78,3.14-5.61,6.11-.26.95-.84,7.09-1.98,7.21M80.17,84.67c-.05,0-.11,0-.16-.01.05,0,.11,0,.16.01ZM79.52,84.65s-.02,0-.03,0c.01,0,.02,0,.03,0ZM80.56,84.7c.19.02.39.05.58.08-.2-.03-.39-.06-.58-.08Z"/>
    </g>
    <path class="cls-4" d="M72.3,70.91c-3.46,1.21-5.56,4.5-7.48,7.62-1.51,2.46-2.13,5.28-3.36,7.84-2.62,5.46-5.82,10.41-11.57,13.11-1.02-7.68.76-14.56,5.9-20.44,1.88-2.14,2.36-4.35,1.47-7.13-2.42-7.61-1.73-15.01,2.14-22.04,1.65-2.99,3.81-5.61,6.33-7.93.54-.5,1.11-1.02.67-1.93-.4-.81-1.08-.7-1.75-.65-.47.03-.95.11-1.41.18-2.83.47-4.08-.21-4.91-2.94-2.15-7.12-1.23-13.97,2.07-20.53,1.39-2.77,2.95-5.46,4.44-8.19.97-.78,2.09-1.27,3.23-1.72,18.34-7.26,38.44,5.85,39.13,25.55.05,1.31.3,2.52.76,3.75,5.2,13.66-3.9,26.33-17.75,30.9-5.95,1.97-12.17,2.74-17.91,4.54"/>
    <path class="cls-3" d="M49.89,99.48c-2.96,1.44-6,2.24-9.27,1.19l.02.02c.8-.72,1.62-1.44,2.4-2.18,1.82-1.72,2.65-3.59,2.32-6.32-.78-6.48,1.17-12,6.93-15.68,1.74-1.11,1.38-2.37.54-3.84-3.34-5.83-3.94-11.94-1.83-18.32.48-1.44,1.09-2.81,2.01-3.99,1.09-1.41,1.13-2.66.31-4.3-6.89-13.68-2.58-29.58,10.07-37.49.45-.28.97-.47,1.45-.7-1.48,2.73-3.05,5.41-4.44,8.19-3.3,6.57-4.22,13.42-2.07,20.53.83,2.74,2.08,3.41,4.91,2.94.47-.08.94-.15,1.41-.18.67-.05,1.35-.16,1.75.65.44.91-.12,1.43-.67,1.93-2.52,2.32-4.68,4.94-6.33,7.93-3.87,7.03-4.56,14.43-2.14,22.04.88,2.78.4,4.99-1.47,7.13-5.14,5.88-6.92,12.76-5.9,20.44Z"/>
    <path class="cls-3" d="M25.71,23.13c1.92.05,3.42,1.63,3.36,3.56-.06,1.94-1.64,3.43-3.56,3.35-1.9-.08-3.43-1.74-3.34-3.62.09-1.81,1.73-3.34,3.54-3.3Z"/>
    <path class="cls-3" d="M39.17,41.57c1.92.05,3.42,1.63,3.36,3.56-.06,1.94-1.64,3.43-3.56,3.35-1.9-.08-3.43-1.74-3.34-3.62.09-1.81,1.73-3.34,3.54-3.3Z"/>
    <path class="cls-3" d="M121.38,43.24c1.92.05,3.42,1.63,3.36,3.56-.06,1.94-1.64,3.43-3.56,3.35-1.9-.08-3.43-1.74-3.34-3.62.09-1.81,1.73-3.34,3.54-3.3Z"/>
    <path class="cls-3" d="M22.26,55.27c1.92.05,3.42,1.63,3.36,3.56-.06,1.94-1.64,3.43-3.56,3.35-1.9-.08-3.43-1.74-3.34-3.62.09-1.81,1.73-3.34,3.54-3.3Z"/>
  </g>
  <g id="Top_BGS" data-name="Top BGS">
    <path class="cls-5" d="M139.75,59.5c-6.55.4-13.09.58-19.6.6-1.2,16.61-10.94,31.19-24.19,37.71-6.52,3.21-14.31,4.54-21.09,1.94-2.87-1.1-5.45-2.86-8.27-4.1-3.79-1.68-7.91-2.4-12.1-2.9-5.45-.66-11.01-.93-16.06-2.44-2.43-.72-4.75-1.73-6.88-3.2-7.97-5.49-10.97-13.18-9.89-22.79.4-3.58,1.27-7.03,2.47-10.38-8.05-.57-16.09-1.04-24.13-1.3v89.09h141.73V59.12c-.66.13-1.32.26-1.98.37Z"/>
  </g>
  <g id="Texts">
    <g>
      <rect class="cls-2" x="0" y="87.41" width="141.73" height="54.32"/>
      <path class="cls-1" d="M46.6,118.36l.35-.51c.26-.35.53-.37.93-.14.37.26,1.18.83,2.3.83,1.06,0,1.7-.53,1.7-1.3,0-2.16-5.3-1.71-5.3-5.25,0-2,1.66-3.3,3.83-3.3,1.34,0,2.45.51,2.93.86.35.26.4.56.21.91l-.29.53c-.24.46-.58.4-.91.22-.46-.27-1.09-.62-1.97-.62-1.06,0-1.73.51-1.73,1.28,0,2.13,5.3,1.58,5.3,5.2,0,1.84-1.38,3.36-3.76,3.36-1.62,0-2.93-.72-3.49-1.15-.26-.22-.42-.5-.1-.93Z"/>
      <path class="cls-1" d="M55.5,112.76c0-.43.22-.67.66-.67h.62c.43,0,.66.24.66.67v.5c0,.18-.03.37-.03.37h.03c.4-.8,1.39-1.73,2.67-1.73s2.05.58,2.38,1.68h.03c.43-.85,1.5-1.68,2.79-1.68,1.7,0,2.67.96,2.67,3.11v4.58c0,.45-.24.67-.67.67h-.69c-.45,0-.67-.22-.67-.67v-4.19c0-.93-.18-1.63-1.12-1.63-1.38,0-2.08,1.41-2.08,2.83v2.99c0,.45-.22.67-.66.67h-.71c-.43,0-.67-.22-.67-.67v-4.19c0-.88-.13-1.63-1.09-1.63-1.44,0-2.11,1.47-2.11,2.83v2.99c0,.45-.22.67-.66.67h-.7c-.43,0-.66-.22-.66-.67v-6.82Z"/>
      <path class="cls-1" d="M73.84,111.9c2.48,0,4.5,1.78,4.5,4.27s-2.02,4.27-4.5,4.27-4.48-1.76-4.48-4.27,2-4.27,4.48-4.27ZM73.84,118.72c1.33,0,2.43-1.02,2.43-2.54s-1.1-2.54-2.43-2.54-2.42,1.04-2.42,2.54,1.09,2.54,2.42,2.54Z"/>
      <path class="cls-1" d="M79.82,109.56c0-.43.24-.67.67-.67h.69c.45,0,.67.24.67.67v5.41h1.01l1.7-2.43c.19-.32.43-.45.8-.45h.77c.54,0,.72.37.42.8l-2.03,2.85v.03l2.4,3.68c.27.46.1.8-.45.8h-.86c-.37,0-.61-.14-.79-.46l-1.9-3.1h-1.06v2.9c0,.45-.22.67-.67.67h-.69c-.43,0-.67-.22-.67-.67v-10.02Z"/>
      <path class="cls-1" d="M91.87,111.9c2.32,0,3.62,1.65,3.62,3.89,0,.35-.3.69-.7.69h-4.98c.13,1.47,1.22,2.24,2.45,2.24.75,0,1.38-.29,1.76-.53.4-.19.69-.14.9.22l.19.32c.19.37.13.69-.22.9-.53.34-1.49.82-2.77.82-2.71,0-4.39-1.95-4.39-4.27,0-2.51,1.7-4.27,4.15-4.27ZM93.47,115.24c-.03-1.14-.72-1.81-1.65-1.81-1.04,0-1.78.72-1.97,1.81h3.62Z"/>
    </g>
  </g>
</svg>