<?xml version="1.0" encoding="UTF-8"?>
<svg xmlns="http://www.w3.org/2000/svg" viewBox="0 0 141.73 141.73">
  <defs>
    <style>
      .cls-1 {
        fill: #fecc95;
      }

      .cls-2 {
        fill: #f6f6f6;
      }

      .cls-3 {
        fill: #fce87e;
      }

      .cls-4 {
        fill: #f1f2f2;
      }

      .cls-5 {
        fill: none;
      }

      .cls-6 {
        fill: #55b6cf;
        stroke: #55b6cf;
        stroke-miterlimit: 10;
        stroke-width: .5px;
      }

      .cls-7 {
        fill: #f15b5c;
      }

      .cls-8 {
        fill: #e5b17e;
      }
    </style>
  </defs>
  <g id="Bottom_BGS" data-name="Bottom BGS">
    <path class="cls-6" d="M36.17,38.23c.31-.16.62-.32.94-.48,7.64-3.79,16.08-6.25,23.18-10.8,1.41-.9,2.76-1.88,4.04-2.97.55-.47,1.08-.95,1.61-1.45.01,0,.02-.01.03-.02,1.32-1.26,2.58-2.61,3.84-3.94.61-.65,1.21-1.29,1.82-1.93,2.54-2.62,5.18-5.06,8.45-6.62,6.92-3.31,15.14-1.97,22.4.47,1.66.56,3.34,1.22,4.99,1.98,1.83.85,3.63,1.82,5.31,2.91,4.79,3.09,8.76,7.15,10.51,12.13.27.75.48,1.52.64,2.31.16.78.26,1.59.31,2.41.48,8.83-5.94,16.35-9.1,24.61-.49,1.29-.9,2.61-1.28,3.94,9.3-1.09,18.59-2.44,27.85-3.99V0H0v57.72c5.89,1.21,11.79,2.22,17.7,3.05,1.4-9.06,8.69-17.4,18.47-22.54Z"/>
  </g>
  <g id="Elements">
    <g>
      <g id="pfXnZf.tif">
        <g>
          <path class="cls-1" d="M67.59,30.59c2.35-.03,4.4.73,6.11,2.35.38.36.76.48,1.26.48,5.44-.01,10.88,0,16.32,0,.55,0,1.11-.05,1.58.34-.48,1.69-1.6,2.54-3.35,2.54-7.81,0-15.61,0-23.42,0-.24,0-.48-.02-.71,0-.77.09-1.35.83-1.24,1.56.15,1.07.23,2.14.31,3.22.1,1.34.21,2.68.34,4.01.25,2.51.42,5.03.59,7.55.09,1.45.26,2.89.17,4.35-.02.25.09.46.2.68,1.87,3.94,3.72,7.88,5.6,11.82,1.53,3.2,3.12,6.36,4.6,9.58.77,1.68,1.7,3.28,2.31,5.03-.96,0-1.92,0-2.87,0-4.47-6.66-8.95-13.31-13.42-19.98-.31-.46-.66-.82-1.21-.93-.52-.83-1.53-1.27-2.41-1.06-1.43.34-2.17,1.28-2.17,2.78,0,6.77,0,13.54,0,20.32,0,1.04-.39,1.43-1.43,1.43-1.32,0-2.65,0-3.97,0,.52-.7,1.01-1.42,1.56-2.1.3-.36.41-.71.3-1.16-.98-4.03-1.72-8.1-2.29-12.2-.41-2.98-.72-5.97-.89-8.98-.13-2.36-.2-4.71-.08-7.06.13-2.79.47-5.57.71-8.35.12-1.34.24-2.68.36-4.02.17-.85.3-1.71.31-2.58,0-.34.05-.69-.13-1.01-.77-1.38-1.48-2.79-2.44-4.06,0-.03,0-.07,0-.1,1.96-1.58,4.36-2.32,6.53-3.52.25-.14.4-.12.59.13.47.62,1.1,1.05,1.75,1.47,3.48,2.26,8.59,1.03,10.54-2.54Z"/>
          <path class="cls-8" d="M78.25,84.1c-.61-1.75-1.54-3.36-2.31-5.03-1.48-3.22-3.08-6.38-4.6-9.58-1.88-3.93-3.73-7.88-5.6-11.82-.1-.22-.21-.43-.2-.68.09-1.45-.08-2.9-.17-4.35-.16-2.52-.34-5.04-.59-7.55-.13-1.33-.24-2.67-.34-4.01-.08-1.08-.15-2.15-.31-3.22-.1-.73.47-1.47,1.24-1.56.23-.03.48,0,.71,0,7.81,0,15.61,0,23.42,0,1.75,0,2.87-.85,3.35-2.54,1.13.56,1.85,1.83,1.67,2.97-.22,1.42-1.22,2.54-2.51,2.74-.55.09-1.1.13-1.66.13-7.12,0-14.24.01-21.36,0-.7,0-.9.09-.82.9.52,4.94,1.18,9.86,1.33,14.83.05,1.59.53,3.02,1.22,4.44,3.91,8.1,7.76,16.23,11.63,24.34-1.37,0-2.74,0-4.11,0Z"/>
          <path class="cls-1" d="M53.66,28.68c-.62-1.12-1.46-2.12-1.84-3.37-1.35-4.49-1.74-8.93,1-13.08,2.19-3.33,6.42-4.59,9.94-3.09.05.15.08.32.17.45.6.92,1.1,1.91,1.41,2.96,1.23,4.11,1.24,8.26.2,12.4-.55,2.21-1.57,4.21-3.46,5.63-.64.49-1.32.84-2.2.7-1.93-.3-3.56-1.18-5.05-2.38-.06-.08-.12-.15-.18-.23h0Z"/>
          <path class="cls-7" d="M78.25,84.1c1.37,0,2.74,0,4.11,0,2.5,0,5.01,0,7.71,0-.61-.61-1.1-1.1-1.59-1.6-.66-.67-.73-1.42-.2-1.95.55-.54,1.23-.46,1.94.24,1.16,1.15,2.32,2.31,3.48,3.48.77.78.77,1.33.02,2.1-1.19,1.2-2.39,2.4-3.59,3.59-.65.64-1.26.69-1.8.19-.56-.52-.56-1.2.07-1.89.5-.54,1.06-1.03,1.74-1.69-2.47,0-4.72,0-6.97,0-1.23-.07-2.45-.07-3.68,0-.79-.07-1.58-.06-2.37,0-3.25-.06-6.49-.1-9.74.02,0,0,.01,0,.01,0,.4.67,1.04,1.12,1.55,1.68.61.67.66,1.35.11,1.89-.49.48-1.23.44-1.83-.16-1.24-1.22-2.48-2.46-3.7-3.7-.6-.61-.62-1.2-.03-1.81,1.22-1.28,2.46-2.55,3.72-3.79.67-.66,1.35-.66,1.88-.09.52.55.45,1.19-.22,1.87-.5.5-1.01.99-1.67,1.63,2.87,0,5.52,0,8.18,0,.96,0,1.92,0,2.87,0Z"/>
          <path class="cls-8" d="M50.76,86.66c1.32,0,2.65,0,3.97,0,1.04,0,1.43-.39,1.43-1.43,0-6.77,0-13.54,0-20.32,0-1.5.74-2.44,2.17-2.78.88-.21,1.89.23,2.41,1.06-1.06.25-1.26.49-1.26,1.57,0,7.57,0,15.14,0,22.71,0,1.42-.42,1.85-1.84,1.85-1.77,0-3.55,0-5.32,0-.76,0-1.43-.25-1.78-.97-.28-.58-.26-1.18.22-1.69Z"/>
          <path class="cls-8" d="M48.19,35.16c.96,1.27,1.67,2.68,2.44,4.06.18.32.13.67.13,1.01-.01.87-.15,1.72-.31,2.58-1.54,2.36-2.86,4.87-4.28,7.3-1.59,2.71-3.14,5.44-4.72,8.15-.86,1.47-2.52,1.96-4.03,1.25,1.32-2.25,2.65-4.49,3.96-6.74,1.89-3.26,3.91-6.46,5.61-9.82.95-1.88.98-3.76-.66-5.37.4-.98,1.11-1.72,1.88-2.41Z"/>
          <path class="cls-1" d="M46.31,37.56c1.64,1.61,1.61,3.49.66,5.37-1.69,3.36-3.71,6.56-5.61,9.82-1.31,2.25-2.64,4.49-3.96,6.74-1.6-.75-2.29-2.55-1.42-4.11,1.7-3.07,3.48-6.1,5.24-9.15,1.49-2.59,2.98-5.17,4.48-7.76.18-.32.41-.61.61-.92Z"/>
          <path class="cls-8" d="M79.49,86.57c1.23-.07,2.45-.07,3.68,0-.26,2.24-2.65,3.39-4.42,2.13.43-.45.74-.93.63-1.6-.03-.16.08-.35.12-.52Z"/>
          <path class="cls-1" d="M79.49,86.57c-.04.17-.15.36-.12.52.12.67-.2,1.16-.63,1.6-.81-.51-1.19-1.34-1.62-2.13.79-.06,1.58-.07,2.37,0Z"/>
          <path class="cls-3" d="M67.39,86.58s-.01,0-.01,0c0,0,.01,0,.01,0Z"/>
          <path class="cls-2" d="M53.78,28.73c-.06-.07-.11-.14-.17-.22.06.07.11.14.17.22Z"/>
          <path class="cls-2" d="M32.43,13.99c.05-.05.11-.1.16-.01.01.02-.04.08-.06.12-.04-.03-.07-.07-.1-.1Z"/>
        </g>
      </g>
      <path class="cls-8" d="M65.99,27.3c2.51-4.41,3-9.05,1.05-13.79-.89-2.16-2.47-3.8-4.76-4.6.05.15.08.32.17.45.6.92,1.09,1.9,1.41,2.95,1.23,4.1,1.23,8.23.2,12.36-.55,2.2-1.57,4.19-3.44,5.61-.64.48-1.31.83-2.19.7-1.75-.27-3.26-1.04-4.64-2.08.24.88,1.73,1.76,1.07,2.64.04.03.07.06.11.11.48.64,1.14,1.09,1.81,1.52,3.61,2.34,8.9,1.07,10.93-2.63-1.75,0-3.5,0-5.25,0,1.49-.83,2.74-1.83,3.54-3.23Z"/>
    </g>
    <polygon class="cls-8" points="53.21 28.37 53.22 28.38 53.22 28.38 53.21 28.37"/>
  </g>
  <g id="Top_BGS" data-name="Top BGS">
    <path class="cls-6" d="M113.89,60.77c-.99,3.52-1.21,7.32-2.82,10.6-5.52,11.29-13.01,15.19-24.15,20.48-1.43.68-2.9,1.29-4.4,1.84-1.8.65-3.64,1.2-5.5,1.63-1.31.31-2.64.56-3.97.75-1.72.25-3.45.4-5.18.45-1.3.04-2.59.02-3.89-.06-1.77-.1-3.53-.32-5.27-.65-1.39-.27-2.76-.61-4.12-1.02-.19-.06-.39-.12-.59-.18-11.57-3.72-21.15-5.91-29.53-14.71-5.88-6.18-7.75-12.83-6.77-19.14-5.91-.83-11.81-1.85-17.7-3.05v84.02h141.73V56.78c-9.26,1.55-18.55,2.9-27.85,3.99Z"/>
  </g>
  <g id="Texts">
    <g>
      <rect class="cls-5" x="0" y="87.41" width="141.73" height="54.32"/>
      <path class="cls-4" d="M29.35,109.56c0-.43.22-.67.66-.67h5.2c.43,0,.67.24.67.67v.45c0,.43-.24.66-.67.66h-3.81v3.22h3.11c.43,0,.67.22.67.66v.45c0,.43-.24.67-.67.67h-3.11v3.92c0,.45-.22.67-.66.67h-.74c-.43,0-.66-.22-.66-.67v-10.02Z"/>
      <path class="cls-4" d="M37.11,109.56c0-.43.22-.67.66-.67h.7c.43,0,.66.24.66.67v7.99c0,.8.34.94.64.98.29.03.5.21.5.58v.54c0,.42-.19.69-.67.69-1.09,0-2.48-.29-2.48-2.62v-8.15Z"/>
      <path class="cls-4" d="M45.51,111.9c2.48,0,4.5,1.78,4.5,4.27s-2.02,4.27-4.5,4.27-4.48-1.76-4.48-4.27,2-4.27,4.48-4.27ZM45.51,118.72c1.33,0,2.43-1.03,2.43-2.54s-1.1-2.54-2.43-2.54-2.42,1.04-2.42,2.54,1.09,2.54,2.42,2.54Z"/>
      <path class="cls-4" d="M55.46,111.9c2.48,0,4.5,1.78,4.5,4.27s-2.02,4.27-4.5,4.27-4.48-1.76-4.48-4.27,2-4.27,4.48-4.27ZM55.46,118.72c1.33,0,2.43-1.03,2.43-2.54s-1.1-2.54-2.43-2.54-2.42,1.04-2.42,2.54,1.09,2.54,2.42,2.54Z"/>
      <path class="cls-4" d="M61.44,112.76c0-.43.22-.67.66-.67h.62c.43,0,.67.24.67.67v.77c0,.3-.05.56-.05.56h.03c.32-.98,1.22-2.06,2.37-2.06.45,0,.61.22.61.67v.62c0,.43-.26.67-.69.67-1.49,0-2.21,1.47-2.21,2.96v2.62c0,.45-.22.67-.66.67h-.7c-.43,0-.66-.22-.66-.67v-6.82Z"/>
      <path class="cls-4" d="M71.89,113.82h-.43c-.43,0-.66-.22-.66-.67v-.27c0-.43.22-.67.67-.67h.46v-1.66c0-.43.24-.67.67-.67h.64c.43,0,.67.24.67.67v1.66h1.18c.43,0,.67.24.67.67v.27c0,.45-.24.67-.66.67h-1.2v3.17c0,1.22.75,1.46,1.31,1.52.5.05.67.21.67.66v.5c0,.48-.27.67-.83.67-1.46,0-3.18-.78-3.18-2.99v-3.52Z"/>
      <path class="cls-4" d="M81.16,111.9c2.48,0,4.5,1.78,4.5,4.27s-2.02,4.27-4.5,4.27-4.48-1.76-4.48-4.27,2-4.27,4.48-4.27ZM81.16,118.72c1.33,0,2.43-1.03,2.43-2.54s-1.1-2.54-2.43-2.54-2.42,1.04-2.42,2.54,1.09,2.54,2.42,2.54Z"/>
      <path class="cls-4" d="M87.03,112.76c0-.43.24-.67.67-.67h.69c.45,0,.67.24.67.67v4.16c0,.99.26,1.66,1.26,1.66,1.47,0,2.29-1.3,2.29-2.75v-3.07c0-.43.22-.67.67-.67h.69c.43,0,.67.24.67.67v6.82c0,.45-.24.67-.67.67h-.62c-.43,0-.66-.22-.66-.67v-.48c0-.19.03-.37.03-.37h-.03c-.38.83-1.44,1.71-2.83,1.71-1.75,0-2.83-.88-2.83-3.11v-4.58Z"/>
      <path class="cls-4" d="M100.56,111.9c1.31,0,2.19.48,2.67.82.34.22.35.56.13.91l-.21.32c-.24.37-.51.37-.9.18-.34-.22-.88-.5-1.58-.5-1.5,0-2.48,1.14-2.48,2.53s.98,2.56,2.54,2.56c.8,0,1.44-.35,1.82-.62.4-.22.7-.18.91.21l.16.3c.19.35.14.67-.18.9-.5.37-1.49.95-2.9.95-2.71,0-4.43-1.91-4.43-4.27s1.73-4.27,4.43-4.27Z"/>
      <path class="cls-4" d="M105.12,109.56c0-.43.24-.67.67-.67h.69c.45,0,.67.24.67.67v3.3c0,.4-.05.69-.05.69h.03c.4-.79,1.42-1.65,2.83-1.65,1.81,0,2.85.94,2.85,3.11v4.58c0,.45-.24.67-.67.67h-.69c-.45,0-.67-.22-.67-.67v-4.16c0-.99-.26-1.67-1.28-1.67-1.42,0-2.35,1.15-2.35,2.71v3.12c0,.45-.22.67-.67.67h-.69c-.43,0-.67-.22-.67-.67v-10.02Z"/>
    </g>
  </g>
</svg>