<?xml version="1.0" encoding="UTF-8"?>
<svg xmlns="http://www.w3.org/2000/svg" viewBox="0 0 141.73 141.73">
  <defs>
    <style>
      .cls-1 {
        fill: #1f3a6e;
      }

      .cls-2 {
        fill: #f1f2f2;
      }

      .cls-3 {
        fill: #fff;
      }

      .cls-4 {
        fill: none;
      }

      .cls-5 {
        fill: #55b6cf;
        stroke: #55b6cf;
        stroke-miterlimit: 10;
        stroke-width: .5px;
      }

      .cls-6 {
        fill: #f15b5c;
      }

      .cls-7 {
        fill: #0e2a4b;
      }

      .cls-8 {
        fill: #fcb44a;
      }
    </style>
  </defs>
  <g id="Bottom_BGS" data-name="Bottom BGS">
    <path class="cls-5" d="M21.18,38.6c.47-18.96,18.13-24.44,34.47-19.35.31.1.61.19.92.3,7.38,2.49,14.42,6.35,21.94,8,1.49.33,3,.57,4.54.69.65.05,1.31.08,1.97.1.01,0,.02,0,.03,0,1.67.04,3.35-.01,5.03-.06.81-.03,1.62-.05,2.42-.07,3.33-.06,6.61.08,9.73,1.18,6.6,2.33,11.05,8.51,14.17,14.77.71,1.44,1.37,2.95,1.94,4.5.64,1.73,1.17,3.52,1.56,5.31.21.99.37,1.98.49,2.97,7.2-1.07,14.33-2.56,21.36-4.53V0H0v48.92c7.17,1.36,14.42,2.68,21.7,3.9-.54-4.71-.64-9.5-.52-14.22Z"/>
  </g>
  <g id="Elements">
    <g>
      <g>
        <g>
          <path class="cls-1" d="M72.72,14.5l28.76,12.7c1.92.85,2.82,3.19,2,5.23l-20.54,51.16c-.82,2.04-3.04,3.01-4.97,2.16l-28.76-12.7c-1.92-.85-2.82-3.19-2-5.23l20.54-51.16c.82-2.04,3.04-3.01,4.97-2.16Z"/>
          <path class="cls-3" d="M71.04,17.7l29.42,12.99-20.82,51.86-29.42-12.99,20.82-51.86Z"/>
        </g>
        <g>
          <path class="cls-8" d="M86.67,40.83s-6.98-4.64-15-.54c-8.01,4.1-11.15,17.06-2.11,22.06,6.28,3.48,10.17,3.8,11.96,3.68.47-.03.66-.61.3-.92-1.95-1.67-6.57-5.89-7.25-8.93,0,0,.1-1.62.54-1.66.44-.04.82-.03.62-.48-.2-.45-.54-.82-.54-.82,0,0,1.2.11,1.04-.28-.16-.38-.74-1.19-.68-1.44.06-.26,3.05,1.41,3.89.86.85-.55-2.17-2.09-1.75-3.32.42-1.23.44-3.87,3.08-4.65,2.64-.78,7.44-.57,7.47-1.35.03-.78-1.57-2.22-1.57-2.22Z"/>
          <path class="cls-7" d="M75.06,48.4c-.07-.04-.13-.09-.19-.16-.44-.47-.28-1.38-.23-1.65.06-.29.34-.47.63-.41.29.06.47.34.41.63-.04.21-.06.46-.04.61.26-.12.46-.47.51-.6.11-.27.42-.4.69-.29.27.11.4.42.29.69-.05.12-.49,1.17-1.49,1.29-.22.03-.42-.01-.59-.11Z"/>
        </g>
        <polygon class="cls-8" points="78.44 26.91 78.57 29.74 80.97 31.25 78.32 32.24 77.63 35 75.86 32.78 73.03 32.97 74.6 30.61 73.54 27.98 76.27 28.73 78.44 26.91"/>
        <polygon class="cls-8" points="64.12 62.46 64.24 65.29 66.65 66.79 63.99 67.79 63.3 70.54 61.54 68.32 58.71 68.52 60.27 66.15 59.21 63.52 61.94 64.28 64.12 62.46"/>
        <polygon class="cls-8" points="86.03 48.46 86.1 50.06 87.46 50.91 85.96 51.47 85.57 53.02 84.57 51.77 82.97 51.88 83.86 50.54 83.26 49.06 84.8 49.49 86.03 48.46"/>
      </g>
      <g>
        <rect class="cls-1" x="45.79" y="25.19" width="39.07" height="60.35" rx="3.81" ry="3.81" transform="translate(-6.17 8.24) rotate(-6.89)"/>
        <path class="cls-3" d="M46.15,30.76l31.95-3.86,6.41,53.07-31.95,3.86-6.41-53.07Z"/>
      </g>
      <g>
        <path class="cls-6" d="M69.34,43.35c-2.71.4-4.9,2.07-6.1,4.31-1.79-1.8-4.38-2.76-7.08-2.36-4.53.67-7.67,4.89-7,9.42.04.3.1.59.18.87,2.42,10.21,17.24,14.68,17.24,14.68,0,0,12.9-8.57,12.26-19.04-.01-.29-.04-.59-.08-.89-.67-4.53-4.89-7.67-9.42-7Z"/>
        <path class="cls-6" d="M75.73,45.08c.57.92.96,1.98,1.13,3.12.04.3.07.59.08.89.63,10.47-12.26,19.04-12.26,19.04,0,0-7.64-2.31-12.84-7.38,4.97,6.58,14.75,9.53,14.75,9.53,0,0,12.9-8.57,12.26-19.04-.01-.29-.04-.59-.08-.89-.32-2.16-1.45-4-3.03-5.26Z"/>
        <path class="cls-6" d="M64.68,68.12s12.9-8.57,12.26-19.04c-.01-.29-.04-.59-.08-.89-.17-1.14-.56-2.19-1.13-3.12-1.74-1.39-4.02-2.09-6.39-1.74-2.71.4-4.9,2.07-6.1,4.31-1.79-1.8-4.38-2.76-7.08-2.36-4.53.67-7.67,4.89-7,9.42.04.3.1.59.18.87.45,1.92,1.35,3.63,2.5,5.15,5.21,5.08,12.84,7.38,12.84,7.38Z"/>
        <path class="cls-6" d="M51.33,50.11c-1.48,2.49-1.22,5.91.63,8.14-.06-2.28.17-4.76,1.69-6.46.78-.87,1.83-1.45,2.92-1.85,1.53-.55,3.17-.77,4.79-.64-2.29-4.19-7.87-2.85-10.03.8Z"/>
        <path class="cls-6" d="M73.68,44.8c-2.35-.84-4.33-1-6.51.19-2.02,1.11-2.65,3.15-3.01,4.37,2.01-2.15,6.19-4.54,9.52-4.56Z"/>
        <path class="cls-6" d="M75.86,45.78c.06.39-.21.76-.61.82s-.76-.21-.82-.61.21-.76.61-.82.76.21.82.61Z"/>
        <path class="cls-6" d="M54.3,60.02c.06.39-.21.76-.61.82s-.76-.21-.82-.61.21-.76.61-.82.76.21.82.61Z"/>
        <path class="cls-6" d="M69.48,34.37s-.02,0-.03,0h.03c-.54-.04-1.04-.37-1.37-.8s-.54-.95-.72-1.46c-.17-.49-.31-.91-.35-1.44-.1.64-.26,1.27-.52,1.86-.26.59-.64,1.14-1.17,1.52-.14.1-.3.19-.46.23l-.17.02s-.04,0-.05,0c0,0,.02,0,.03,0h-.03c.54.04,1.04.37,1.37.8.34.43.54.95.72,1.46.17.49.31.91.35,1.44.1-.64.26-1.27.52-1.86.26-.59.64-1.14,1.17-1.52.14-.1.3-.19.46-.23l.17-.02s.04,0,.05,0Z"/>
        <path class="cls-6" d="M76.98,38.92s-.02,0-.02,0h.02c-.44-.03-.84-.3-1.12-.65s-.44-.77-.58-1.19c-.14-.4-.25-.74-.29-1.17-.08.52-.21,1.03-.42,1.52-.21.48-.52.93-.95,1.24-.11.08-.24.15-.38.19l-.13.02s-.03,0-.04,0c0,0,.02,0,.02,0h-.02c.44.03.84.3,1.12.65.27.35.44.77.58,1.19.14.4.25.74.29,1.17.08-.52.21-1.03.42-1.52.21-.48.52-.93.95-1.24.11-.08.24-.15.38-.19l.13-.02s.03,0,.04,0Z"/>
        <path class="cls-6" d="M80.54,68.38s-.08-.06-.15-.1c-.13-.08-.31-.17-.52-.26-.22-.09-.47-.16-.74-.21-.06-.01-.11-.02-.17-.03,0-.05-.02-.1-.03-.15-.06-.25-.15-.48-.24-.68-.1-.2-.2-.36-.29-.47-.04-.06-.08-.1-.11-.13-.03-.03-.04-.05-.04-.05,0,0-.01.02-.04.05-.02.03-.06.08-.09.14-.07.12-.16.29-.24.49-.08.2-.14.43-.19.68,0,.04-.01.07-.02.11-.08.01-.16.02-.24.04-.27.06-.52.13-.73.22-.21.09-.39.19-.52.27-.06.04-.11.08-.14.1-.03.02-.05.04-.05.04,0,0,.02.02.05.04.03.02.08.06.15.1.13.08.31.17.52.26.22.09.47.16.74.21.08.01.16.03.24.04,0,.04.01.08.02.12.05.25.13.48.21.68.08.2.18.37.25.49.04.06.07.11.1.14.02.03.04.05.04.05,0,0,.02-.02.04-.05.02-.03.06-.08.1-.13.08-.11.18-.28.27-.48.09-.2.17-.44.22-.69,0-.05.02-.1.03-.14.05,0,.11-.02.16-.03.27-.06.52-.13.73-.22.21-.09.39-.19.52-.27.06-.04.11-.08.14-.1.03-.02.05-.04.05-.04,0,0-.02-.02-.05-.04Z"/>
      </g>
      <g>
        <g>
          <path class="cls-1" d="M25.51,42.12l28.97-12.22c1.94-.82,4.26.14,5.18,2.14l23.14,50.04c.92,2,.1,4.28-1.84,5.09l-28.97,12.22c-1.94.82-4.26-.14-5.18-2.14l-23.14-50.04c-.92-2-.1-4.28,1.84-5.09Z"/>
          <path class="cls-3" d="M26.69,45.53l29.63-12.5,23.46,50.72-29.63,12.5-23.46-50.72Z"/>
        </g>
        <g>
          <path class="cls-8" d="M54.24,50.02s-8.17,1.9-10.68,10.55c-2.51,8.64,4.76,19.82,14.61,16.67,6.84-2.19,9.74-4.79,10.88-6.18.3-.36,0-.9-.46-.85-2.55.27-8.79.74-11.47-.84,0,0-1.11-1.19-.84-1.54.28-.35.54-.62.07-.78-.47-.16-.96-.17-.96-.17,0,0,.9-.8.51-.95-.39-.15-1.37-.27-1.52-.5-.14-.22,3.12-1.25,3.3-2.24.18-.99-3.01.15-3.62-1-.61-1.15-2.52-2.97-1.28-5.43,1.24-2.46,4.69-5.8,4.14-6.36-.55-.56-2.69-.37-2.69-.37Z"/>
          <path class="cls-1" d="M51.78,63.66c-.08.02-.16.03-.24.03-.64,0-1.2-.74-1.36-.97-.17-.24-.11-.57.13-.74.24-.17.57-.11.74.13.12.17.29.36.42.45.1-.27-.02-.66-.08-.79-.12-.27,0-.58.26-.7.26-.12.58,0,.7.26.05.12.51,1.16-.08,1.97-.13.18-.3.3-.49.35Z"/>
        </g>
        <polygon class="cls-8" points="38.47 46.46 40.62 48.31 43.36 47.59 42.26 50.21 43.8 52.6 40.97 52.36 39.17 54.55 38.52 51.79 35.88 50.76 38.31 49.29 38.47 46.46"/>
        <polygon class="cls-8" points="54.51 81.26 56.66 83.12 59.41 82.4 58.31 85.01 59.84 87.4 57.01 87.17 55.21 89.36 54.57 86.6 51.92 85.57 54.35 84.1 54.51 81.26"/>
        <polygon class="cls-8" points="59.35 55.72 60.57 56.76 62.12 56.36 61.5 57.83 62.36 59.18 60.76 59.05 59.75 60.29 59.38 58.73 57.89 58.15 59.26 57.32 59.35 55.72"/>
      </g>
    </g>
  </g>
  <g id="Top_BGS" data-name="Top BGS">
    <path class="cls-5" d="M120.38,56.94c.5,4.1.15,8.15-1.54,11.66-.31.66-.67,1.29-1.08,1.9-.4.61-.86,1.19-1.36,1.76-5.39,6.01-14.39,6.72-21.76,10.02-4.2,1.88-7.95,4.65-12.04,6.74-2.2,1.13-4.5,2.02-6.87,2.67l-.41.11c-.72.2-1.45.37-2.18.52h0c-.62.13-1.23.24-1.86.33-.11.03-.22.04-.33.05-.88.13-1.76.23-2.65.31-.4.03-.8.06-1.21.08-5.14.27-10.36-.41-15.32-1.95-.44-.13-.89-.28-1.32-.43,0,0,0,0-.01,0-.06-.01-.12-.04-.18-.06-.12-.04-.25-.08-.36-.12-.15-.05-.3-.1-.44-.16-.38-.13-.75-.28-1.12-.43-.83-.33-1.66-.69-2.47-1.06-.46-.21-.91-.44-1.36-.67-1.11-.56-2.19-1.18-3.25-1.83-1.05-.64-2.06-1.33-3.05-2.07-1.27-.95-2.49-1.97-3.64-3.06-.42-.4-.84-.81-1.24-1.23-.42-.43-.83-.87-1.23-1.32-1.08-1.21-2.07-2.49-2.98-3.83-.72-1.07-1.39-2.17-2-3.32-.09-.16-.18-.33-.26-.5-2.91-5.67-4.45-11.88-5.17-18.23C14.42,51.6,7.17,50.28,0,48.92v92.82h141.73V52.41c-7.03,1.96-14.15,3.45-21.36,4.53Z"/>
  </g>
  <g id="Texts">
    <g>
      <rect class="cls-4" x="0" y="87.41" width="141.73" height="54.32"/>
      <path class="cls-2" d="M27.31,109.56c0-.43.22-.67.66-.67h3.39c2.05,0,3.52,1.06,3.52,2.93,0,1.06-.51,1.97-1.38,2.43v.03c1.23.37,1.83,1.52,1.83,2.67,0,2.27-1.81,3.3-3.92,3.3h-3.44c-.43,0-.66-.22-.66-.67v-10.02ZM31.37,113.53c.9,0,1.39-.64,1.39-1.46s-.48-1.41-1.44-1.41h-1.97v2.87h2.02ZM31.56,118.48c1.06,0,1.65-.69,1.65-1.65s-.61-1.63-1.65-1.63h-2.21v3.28h2.21Z"/>
      <path class="cls-2" d="M41.13,115.21h.34v-.19c0-1.07-.69-1.44-1.52-1.44-.69,0-1.31.26-1.7.46-.4.18-.7.11-.9-.27l-.16-.3c-.19-.37-.13-.69.26-.9.53-.27,1.46-.67,2.67-.67,2.11,0,3.38,1.18,3.38,3.25v4.43c0,.45-.22.67-.67.67h-.54c-.43,0-.66-.22-.66-.67v-.32c0-.22.03-.35.03-.35h-.03s-.77,1.54-2.56,1.54c-1.49,0-2.71-.96-2.71-2.45,0-2.38,2.95-2.79,4.77-2.79ZM39.61,118.89c1.14,0,1.87-1.15,1.87-2.14v-.3h-.34c-1.02,0-2.77.16-2.77,1.38,0,.54.42,1.07,1.23,1.07Z"/>
      <path class="cls-2" d="M48.6,111.9c1.79,0,2.38,1.17,2.38,1.17h.03s-.03-.21-.03-.46v-3.04c0-.43.22-.67.66-.67h.71c.43,0,.66.24.66.67v10.02c0,.45-.22.67-.66.67h-.59c-.43,0-.66-.21-.66-.61v-.32c0-.16.03-.29.03-.29h-.03s-.69,1.41-2.56,1.41c-2.21,0-3.63-1.75-3.63-4.27s1.54-4.27,3.7-4.27ZM48.99,118.73c1.06,0,2.05-.77,2.05-2.58,0-1.26-.66-2.51-2.03-2.51-1.1,0-2.05.91-2.05,2.53s.83,2.56,2.03,2.56Z"/>
      <path class="cls-2" d="M56.56,121.58c.38.14.9.3,1.65.3,1.25,0,2.3-.53,2.3-1.99v-.61c0-.19.03-.42.03-.42h-.03c-.45.77-1.15,1.22-2.24,1.22-2.39,0-3.7-1.89-3.7-4.15s1.25-4.05,3.68-4.05c1.91,0,2.42,1.25,2.42,1.25h.03s-.02-.08-.02-.21v-.3c0-.3.22-.54.66-.54h.54c.43,0,.66.24.66.67v7c0,2.8-2.21,3.86-4.23,3.86-.91,0-1.83-.19-2.39-.43-.42-.18-.53-.45-.35-.86l.13-.37c.18-.4.42-.51.85-.37ZM60.56,116c0-1.87-.93-2.37-1.98-2.37-1.26,0-1.95.9-1.95,2.24,0,1.47.74,2.51,2.05,2.51.96,0,1.89-.56,1.89-2.39Z"/>
      <path class="cls-2" d="M68.2,111.9c2.32,0,3.62,1.65,3.62,3.89,0,.35-.3.69-.7.69h-4.98c.13,1.47,1.22,2.24,2.45,2.24.75,0,1.38-.29,1.76-.53.4-.19.69-.14.9.22l.19.32c.19.37.13.69-.22.9-.53.34-1.49.82-2.77.82-2.71,0-4.39-1.95-4.39-4.27,0-2.51,1.7-4.27,4.15-4.27ZM69.8,115.24c-.03-1.14-.72-1.81-1.65-1.81-1.04,0-1.78.72-1.97,1.81h3.62Z"/>
      <path class="cls-2" d="M81.21,111.9c1.31,0,2.19.48,2.67.82.34.22.35.56.13.91l-.21.32c-.24.37-.51.37-.9.18-.34-.22-.88-.5-1.58-.5-1.5,0-2.48,1.14-2.48,2.53s.98,2.56,2.55,2.56c.8,0,1.44-.35,1.82-.62.4-.22.7-.18.91.21l.16.3c.19.35.14.67-.18.9-.5.37-1.49.95-2.9.95-2.71,0-4.43-1.91-4.43-4.27s1.73-4.27,4.43-4.27Z"/>
      <path class="cls-2" d="M89.92,115.21h.34v-.19c0-1.07-.69-1.44-1.52-1.44-.69,0-1.31.26-1.7.46-.4.18-.7.11-.9-.27l-.16-.3c-.19-.37-.13-.69.26-.9.53-.27,1.46-.67,2.67-.67,2.11,0,3.38,1.18,3.38,3.25v4.43c0,.45-.22.67-.67.67h-.54c-.43,0-.66-.22-.66-.67v-.32c0-.22.03-.35.03-.35h-.03s-.77,1.54-2.56,1.54c-1.49,0-2.71-.96-2.71-2.45,0-2.38,2.95-2.79,4.77-2.79ZM88.4,118.89c1.14,0,1.87-1.15,1.87-2.14v-.3h-.34c-1.02,0-2.77.16-2.77,1.38,0,.54.42,1.07,1.23,1.07Z"/>
      <path class="cls-2" d="M94.17,112.76c0-.43.22-.67.66-.67h.62c.43,0,.67.24.67.67v.77c0,.3-.05.56-.05.56h.03c.32-.98,1.22-2.06,2.37-2.06.45,0,.61.22.61.67v.62c0,.43-.26.67-.69.67-1.49,0-2.21,1.47-2.21,2.96v2.62c0,.45-.22.67-.66.67h-.7c-.43,0-.66-.22-.66-.67v-6.82Z"/>
      <path class="cls-2" d="M103.16,111.9c1.79,0,2.38,1.17,2.38,1.17h.03s-.03-.21-.03-.46v-3.04c0-.43.22-.67.66-.67h.71c.43,0,.66.24.66.67v10.02c0,.45-.22.67-.66.67h-.59c-.43,0-.66-.21-.66-.61v-.32c0-.16.03-.29.03-.29h-.03s-.69,1.41-2.56,1.41c-2.21,0-3.63-1.75-3.63-4.27s1.54-4.27,3.7-4.27ZM103.55,118.73c1.06,0,2.05-.77,2.05-2.58,0-1.26-.66-2.51-2.03-2.51-1.1,0-2.05.91-2.05,2.53s.83,2.56,2.03,2.56Z"/>
      <path class="cls-2" d="M109.24,118.7l.19-.29c.24-.34.51-.37.91-.16.38.21.99.56,1.82.56.71,0,1.14-.32,1.14-.83,0-1.33-4.05-.83-4.05-3.63,0-1.6,1.41-2.45,3.12-2.45,1.09,0,1.84.35,2.27.59.37.19.42.53.24.9l-.16.29c-.19.38-.5.43-.9.26-.35-.16-.88-.4-1.55-.4s-1.1.29-1.1.8c0,1.35,4.05.82,4.05,3.6,0,1.44-1.22,2.51-3.11,2.51-1.31,0-2.22-.5-2.72-.83-.37-.21-.4-.56-.16-.91Z"/>
    </g>
  </g>
</svg>