<?xml version="1.0" encoding="UTF-8"?>
<svg xmlns="http://www.w3.org/2000/svg" viewBox="0 0 141.73 141.73">
  <defs>
    <style>
      .cls-1 {
        fill: #f1f2f2;
      }

      .cls-2 {
        fill: none;
      }

      .cls-3 {
        fill: #fcb44a;
        stroke: #fcb44a;
        stroke-miterlimit: 10;
        stroke-width: .5px;
      }
    </style>
  </defs>
  <g id="Bottom_BGS" data-name="Bottom BGS">
    <path class="cls-3" d="M36.17,38.23c.31-.16.62-.32.94-.48,7.64-3.79,16.08-6.25,23.18-10.8,1.41-.9,2.76-1.88,4.04-2.97.55-.47,1.08-.95,1.61-1.45.01,0,.02-.01.03-.02,1.32-1.26,2.58-2.61,3.84-3.94.61-.65,1.21-1.29,1.82-1.93,2.54-2.62,5.18-5.06,8.45-6.62,6.92-3.31,15.14-1.97,22.4.47,1.66.56,3.34,1.22,4.99,1.98,1.83.85,3.63,1.82,5.31,2.91,4.79,3.09,8.76,7.15,10.51,12.13.27.75.48,1.52.64,2.31.16.78.26,1.59.31,2.41.48,8.83-5.94,16.35-9.1,24.61-.49,1.29-.9,2.61-1.28,3.94,9.3-1.09,18.59-2.44,27.85-3.99V0H0v57.72c5.89,1.21,11.79,2.22,17.7,3.05,1.4-9.06,8.69-17.4,18.47-22.54Z"/>
  </g>
  <g id="Top_BGS" data-name="Top BGS">
    <path class="cls-3" d="M113.89,60.77c-.99,3.52-1.21,7.32-2.82,10.6-5.52,11.29-13.01,15.19-24.15,20.48-1.43.68-2.9,1.29-4.4,1.84-1.8.65-3.64,1.2-5.5,1.63-1.31.31-2.64.56-3.97.75-1.72.25-3.45.4-5.18.45-1.3.04-2.59.02-3.89-.06-1.77-.1-3.53-.32-5.27-.65-1.39-.27-2.76-.61-4.12-1.02-.19-.06-.39-.12-.59-.18-11.57-3.72-21.15-5.91-29.53-14.71-5.88-6.18-7.75-12.83-6.77-19.14-5.91-.83-11.81-1.85-17.7-3.05v84.02h141.73V56.78c-9.26,1.55-18.55,2.9-27.85,3.99Z"/>
  </g>
  <g id="Texts">
    <g>
      <rect class="cls-2" x="0" y="87.41" width="141.73" height="54.32"/>
      <path class="cls-1" d="M59.66,110.67h-3.06c-.45,0-.67-.22-.67-.66v-.45c0-.43.22-.67.67-.67h8.16c.43,0,.66.24.66.67v.45c0,.43-.22.66-.66.66h-3.06v8.92c0,.45-.22.67-.67.67h-.72c-.43,0-.66-.22-.66-.67v-8.92Z"/>
      <path class="cls-1" d="M68.84,111.9c2.32,0,3.62,1.65,3.62,3.89,0,.35-.3.69-.7.69h-4.98c.13,1.47,1.22,2.24,2.45,2.24.75,0,1.38-.29,1.76-.53.4-.19.69-.14.9.22l.19.32c.19.37.13.69-.22.9-.53.34-1.49.82-2.77.82-2.71,0-4.39-1.95-4.39-4.27,0-2.51,1.7-4.27,4.15-4.27ZM70.44,115.24c-.03-1.14-.72-1.81-1.65-1.81-1.04,0-1.78.72-1.97,1.81h3.62Z"/>
      <path class="cls-1" d="M73.58,118.7l.19-.29c.24-.34.51-.37.91-.16.38.21.99.56,1.83.56.7,0,1.14-.32,1.14-.83,0-1.33-4.05-.83-4.05-3.63,0-1.6,1.41-2.45,3.12-2.45,1.09,0,1.84.35,2.27.59.37.19.42.53.24.9l-.16.29c-.19.38-.5.43-.9.26-.35-.16-.88-.4-1.55-.4s-1.1.29-1.1.8c0,1.34,4.05.82,4.05,3.6,0,1.44-1.22,2.51-3.11,2.51-1.31,0-2.22-.5-2.72-.83-.37-.21-.4-.56-.16-.91Z"/>
      <path class="cls-1" d="M81.53,113.82h-.43c-.43,0-.66-.22-.66-.67v-.27c0-.43.22-.67.67-.67h.46v-1.66c0-.43.24-.67.67-.67h.64c.43,0,.67.24.67.67v1.66h1.18c.43,0,.67.24.67.67v.27c0,.45-.24.67-.66.67h-1.2v3.17c0,1.22.75,1.46,1.31,1.52.5.05.67.21.67.66v.5c0,.48-.27.67-.83.67-1.46,0-3.18-.78-3.18-2.99v-3.52Z"/>
    </g>
  </g>
</svg>