<?xml version="1.0" encoding="UTF-8"?>
<svg xmlns="http://www.w3.org/2000/svg" viewBox="0 0 141.73 141.73">
  <defs>
    <style>
      .cls-1 {
        fill: #e9d3d2;
      }

      .cls-2 {
        fill: #f37b77;
      }

      .cls-3 {
        fill: #f1f2f2;
      }

      .cls-4 {
        fill: #f18d47;
      }

      .cls-5 {
        fill: #f7c178;
      }

      .cls-6 {
        fill: none;
      }

      .cls-7 {
        fill: #1f3a6e;
        stroke: #1f3a6e;
        stroke-miterlimit: 10;
        stroke-width: .5px;
      }

      .cls-8 {
        fill: #e74d3d;
      }

      .cls-9 {
        fill: #ebedee;
      }

      .cls-10 {
        fill: #f8e9b0;
      }

      .cls-11 {
        fill: #f2d0a8;
      }
    </style>
  </defs>
  <g id="Bottom_BGS" data-name="Bottom BGS">
    <path class="cls-7" d="M0,0v57.12c7.27,1.32,14.57,2.63,21.88,3.88,1.31-3.98,3.36-7.42,5.52-9.93,1.87-2.18,1.99-1.52,5.02-4.45,10.78-10.41,8.5-17.88,16.91-24.8,4.44-3.65,8.82-4.72,16.06-6.18,19.88-3.99,45.76,1.78,52.25,15.75.91,1.95,2.52,6.53,3.32,12.25.17,1.23.7,5.8,0,11.94-.4,3.55-1.05,9.16-3.8,15.25,7.19.03,14.39-.15,21.58-.58,1.02-.15,2.02-.36,2.98-.64V0H0Z"/>
  </g>
  <g id="Elements">
    <g>
      <path class="cls-9" d="M50.64,6.43c3.85.32,6.95,2.17,9.71,4.73,4.97,4.61,8.34,10.3,10.96,16.46,1.79,4.21,3.1,8.59,4.11,13.06.77,4.92,1.06,9.85.41,14.81-.1.04-.21.09-.31.13-1.42.5-2.84,1-4.27,1.49-2.51.88-5.02,1.76-7.53,2.65-.6.21-1.21.42-1.81.64-1.43.51-2.86,1.02-4.29,1.53-.11.03-.22.07-.33.1-3.55-3.41-6.45-7.31-8.84-11.59-.08-.22-.14-.45-.25-.66-3.2-6.1-5.49-12.53-6.43-19.35-1.09-7.82-1.59-15.63,4.05-22.27"/>
      <path class="cls-8" d="M48.45,50.43c2.39,4.29,5.29,8.19,8.84,11.59-.08,0-.13.03-.14.11-2.69.96-5.39,1.91-8.08,2.87-.58.19-1.15.38-1.73.55-1.26.36-2.43,1.21-3.85.72-.44-.34-.87-.71-1.34-1.01-11.8-7.48-17.37-20.18-14.89-33.98.02-.14.01-.28.02-.42.15-.63.29-1.27.44-1.91,1.69-5.38,4.31-10.21,8.34-14.22.46-.46.97-.88,1.46-1.32.32.37-.12.5-.26.65-2.2,2.49-4,5.21-5.06,8.39-2.1,6.27-1.68,12.28,1.87,17.95,3.36,5.38,8.2,8.67,14.38,10.01Z"/>
      <path class="cls-2" d="M48.45,50.43c-6.19-1.33-11.02-4.63-14.38-10.01-3.55-5.67-3.97-11.68-1.87-17.95,1.06-3.17,2.86-5.9,5.06-8.39.13-.15.58-.28.26-.65,2.14-2.24,4.81-3.68,7.51-5.08.27-.07.53-.13.8-.2-5.64,6.64-5.14,14.45-4.05,22.27.95,6.82,3.24,13.25,6.43,19.35.11.21.17.44.25.66Z"/>
      <path class="cls-5" d="M88.22,82.97c.14.82.29,1.64.43,2.47.09,1.31.21,2.62.27,3.93.1,2.44-1.02,4.2-3.31,5.03-3.85,1.4-7.73,2.75-11.6,4.1-2.11.73-3.98.19-5.34-1.51-1.43-1.8-2.7-3.74-3.79-5.78,7.78-2.75,15.56-5.49,23.34-8.24Z"/>
      <path class="cls-4" d="M88.22,82.97c-7.78,2.75-15.56,5.49-23.34,8.24-1.58-2.01-2.88-4.22-4.28-6.35,8.99-3.17,17.99-6.35,26.98-9.52.24,2.54.62,5.07.64,7.63Z"/>
      <path class="cls-5" d="M87.58,75.34c-8.99,3.17-17.99,6.35-26.98,9.52-.84.28-1.68.56-2.53.83-1.76.56-3.11.07-3.63-1.33-.56-1.47.16-2.73,1.96-3.42.13-.05.26-.1.39-.15,1.78-.63,3.56-1.27,5.34-1.9.96-.34,1.92-.69,2.88-1.03,1.54-.55,3.08-1.1,4.62-1.65,1.83-.65,3.67-1.3,5.5-1.95,1.54-.54,3.09-1.07,4.63-1.61.96-.34,1.93-.67,2.89-1.01,1.79-.62,3.58-1.25,5.36-1.87.31-.1.62-.22.93-.3,1.29-.32,2.54.24,3.04,1.37.53,1.2.11,2.56-1.16,3.21-1.03.53-2.16.87-3.24,1.3Z"/>
      <path class="cls-10" d="M62.12,78.89c-1.78.63-3.56,1.27-5.34,1.9-1.35-1.99-3.19-3.55-4.8-5.31-2.6-2.84-5.28-5.61-7.92-8.41-.22-.24-.39-.53-.58-.79,1.42.49,2.59-.36,3.84-.72.58-.17,1.15-.37,1.73-.55,3.83,4.04,7.67,8.08,11.5,12.12.52.59,1.04,1.18,1.56,1.76Z"/>
      <path class="cls-8" d="M65.27,5.72c11.63,2.56,19.67,9.37,24.22,20.36,2.96,8.05,2.69,16.06-.34,24.03-.3.67-.83,1.04-1.53,1.26-1.19.38-2.35.85-3.52,1.28-2.69.94-5.37,1.88-8.06,2.82-.07-.05-.13-.05-.2,0,.65-4.96.37-9.89-.41-14.81.27-.26.58-.48.8-.78,4.12-5.72,5.4-12.07,3.55-18.84-1.87-6.84-6.49-11.34-13.02-14-1.84-.75-5.37-1.15-7.22-1.81.89-.43,3.79.13,4.59.23"/>
      <path class="cls-10" d="M84.08,52.65c1.17-.43,2.33-.9,3.52-1.28.71-.22,1.23-.59,1.53-1.26.33,2.4-.21,4.77-.35,7.15-.23,3.85-.6,7.7-.89,11.55-.02.32.07.64.11.97-1.79.62-3.58,1.25-5.36,1.87.06-.75.12-1.5.18-2.25.42-5.58.84-11.16,1.26-16.74Z"/>
      <path class="cls-2" d="M61.13,5.42l-.03-.02c1.85.66,3.81.92,5.65,1.66,6.53,2.66,11.14,7.16,13.02,14,1.85,6.76.58,13.11-3.55,18.84-.21.3-.53.52-.8.78-1-4.47-2.31-8.85-4.11-13.06-2.63-6.16-5.99-11.85-10.96-16.46-2.76-2.56-5.86-4.41-9.71-4.73,2.97-1.07,6.03-1.44,9.16-1.28"/>
      <path class="cls-10" d="M75.83,55.48c.06-.05.13-.06.2,0,1.24,5.73,2.48,11.45,3.73,17.18-1.54.54-3.09,1.07-4.63,1.61-.38-1.55-.77-3.1-1.12-4.65-.91-4.07-1.8-8.15-2.7-12.23l.06-.02c1.37-.63,2.95-.74,4.16-1.75.1-.04.21-.09.31-.13Z"/>
      <path class="cls-10" d="M69.62,76.21c-1.54.55-3.08,1.1-4.62,1.65-.98-1.94-1.96-3.87-2.94-5.81-1.64-3.3-3.28-6.61-4.92-9.91.01-.08.06-.12.14-.11.11-.03.22-.07.33-.1,1.57.03,2.88-.89,4.34-1.24.53,1.01.93,2.1,1.67,3,.27.65.5,1.32.81,1.95,1.73,3.53,3.65,6.96,5.18,10.58Z"/>
      <path class="cls-1" d="M61.96,60.68c-.03-.09-.02-.2-.05-.29,2.51-.88,6.83-2.4,9.34-3.28.02.09.06.17.1.25,0,0-.06.02-.06.02-2.49.88-6.85,2.42-9.34,3.3Z"/>
      <path class="cls-11" d="M61.91,60.39c.02.1.03.19.05.29-1.46.35-2.77,1.27-4.34,1.24"/>
      <path class="cls-11" d="M71.35,57.36c-.05-.08-.08-.16-.1-.25,1.42-.5,2.84-1,4.27-1.49-1.21,1.01-2.79,1.12-4.16,1.75Z"/>
    </g>
  </g>
  <g id="Top_BGS" data-name="Top BGS">
    <path class="cls-7" d="M117.16,70.82c-.85,1.88-1.89,3.81-3.2,5.74-1.51,2.22-4.27,6.3-9.06,9.47-11.58,7.67-19.47,1.06-39.52,5.76-12.26,2.87-12.9,5.91-20.17,5.35-8.25-.63-19.57-7.08-23.47-18.94-2.02-6.14-1.55-12.13.13-17.22C14.57,59.75,7.27,58.44,0,57.12v84.61h141.73v-72.13c-.97.28-1.96.5-2.98.64-7.2.43-14.39.61-21.58.58Z"/>
  </g>
  <g id="Texts">
    <g>
      <rect class="cls-6" x="0" y="94.41" width="141.73" height="54.32"/>
      <path class="cls-3" d="M46.97,115.7c1.86,0,3.1.7,3.71,1.14.34.26.35.58.13.93l-.29.46c-.22.37-.53.4-.91.16-.5-.32-1.39-.8-2.56-.8-2.48,0-3.81,1.81-3.81,3.91s1.38,4.07,3.83,4.07c1.28,0,2.26-.61,2.79-.99.35-.26.67-.26.93.11l.32.43c.24.32.22.66-.1.93-.64.51-2,1.41-4.02,1.41-3.57,0-5.87-2.58-5.87-5.92s2.42-5.83,5.86-5.83Z"/>
      <path class="cls-3" d="M52.62,119.76c0-.43.22-.67.66-.67h.62c.43,0,.67.24.67.67v.77c0,.3-.05.56-.05.56h.03c.32-.98,1.22-2.06,2.37-2.06.45,0,.61.22.61.67v.62c0,.43-.26.67-.69.67-1.49,0-2.21,1.47-2.21,2.96v2.62c0,.45-.22.67-.66.67h-.7c-.43,0-.66-.22-.66-.67v-6.82Z"/>
      <path class="cls-3" d="M62.01,118.9c2.32,0,3.62,1.65,3.62,3.89,0,.35-.3.69-.7.69h-4.98c.13,1.47,1.22,2.24,2.45,2.24.75,0,1.38-.29,1.76-.53.4-.19.69-.14.9.22l.19.32c.19.37.13.69-.22.9-.53.34-1.49.82-2.77.82-2.71,0-4.39-1.95-4.39-4.27,0-2.51,1.7-4.27,4.15-4.27ZM63.61,122.24c-.03-1.14-.72-1.81-1.65-1.81-1.04,0-1.78.72-1.97,1.81h3.62Z"/>
      <path class="cls-3" d="M71.24,122.21h.34v-.19c0-1.07-.69-1.44-1.52-1.44-.69,0-1.31.26-1.7.46-.4.18-.7.11-.9-.27l-.16-.3c-.19-.37-.13-.69.26-.9.53-.27,1.46-.67,2.67-.67,2.11,0,3.38,1.18,3.38,3.25v4.43c0,.45-.22.67-.67.67h-.54c-.43,0-.66-.22-.66-.67v-.32c0-.22.03-.35.03-.35h-.03s-.77,1.54-2.56,1.54c-1.49,0-2.71-.96-2.71-2.45,0-2.39,2.95-2.79,4.77-2.79ZM69.72,125.89c1.14,0,1.87-1.15,1.87-2.15v-.3h-.34c-1.02,0-2.77.16-2.77,1.38,0,.54.42,1.07,1.23,1.07Z"/>
      <path class="cls-3" d="M75.85,120.82h-.43c-.43,0-.66-.22-.66-.67v-.27c0-.43.22-.67.67-.67h.46v-1.66c0-.43.24-.67.67-.67h.64c.43,0,.67.24.67.67v1.66h1.18c.43,0,.67.24.67.67v.27c0,.45-.24.67-.66.67h-1.2v3.17c0,1.22.75,1.46,1.31,1.52.5.05.67.21.67.66v.5c0,.48-.27.67-.83.67-1.46,0-3.18-.78-3.18-2.99v-3.52Z"/>
      <path class="cls-3" d="M81.23,117.04v-.48c0-.43.22-.67.66-.67h.7c.43,0,.67.24.67.67v.48c0,.43-.24.66-.67.66h-.7c-.43,0-.66-.22-.66-.66ZM81.23,119.76c0-.43.22-.67.66-.67h.7c.43,0,.66.24.66.67v6.82c0,.45-.22.67-.66.67h-.7c-.43,0-.66-.22-.66-.67v-6.82Z"/>
      <path class="cls-3" d="M84.54,119.86c-.16-.46.03-.77.53-.77h.75c.38,0,.64.18.75.56l1.52,4.5c.16.48.3,1.23.3,1.23h.03s.13-.75.29-1.23l1.52-4.5c.11-.38.37-.56.75-.56h.75c.5,0,.7.3.54.77l-2.46,6.85c-.13.38-.37.54-.75.54h-1.28c-.38,0-.64-.16-.75-.54l-2.5-6.85Z"/>
      <path class="cls-3" d="M97.18,118.9c2.32,0,3.62,1.65,3.62,3.89,0,.35-.3.69-.7.69h-4.98c.13,1.47,1.22,2.24,2.45,2.24.75,0,1.38-.29,1.76-.53.4-.19.69-.14.9.22l.19.32c.19.37.13.69-.22.9-.53.34-1.49.82-2.77.82-2.71,0-4.39-1.95-4.39-4.27,0-2.51,1.7-4.27,4.15-4.27ZM98.78,122.24c-.03-1.14-.72-1.81-1.65-1.81-1.04,0-1.78.72-1.97,1.81h3.62Z"/>
    </g>
  </g>
</svg>