<?xml version="1.0" encoding="UTF-8"?>
<svg xmlns="http://www.w3.org/2000/svg" viewBox="0 0 141.73 141.73">
  <defs>
    <style>
      .cls-1 {
        fill: #e6e7e8;
        stroke: #58595b;
        stroke-miterlimit: 10;
        stroke-width: .5px;
      }

      .cls-2 {
        fill: #414042;
      }
    </style>
  </defs>
  <g id="Bottom_BGS" data-name="Bottom BGS">
    <rect class="cls-1" x="0" y="0" width="141.73" height="141.73"/>
  </g>
  <g id="Texts">
    <g>
      <path class="cls-2" d="M5.06,40.32l3.98-10.91h1.42l4.02,10.91h-1.27l-2.46-6.8c-.14-.4-.3-.88-.48-1.45-.18-.56-.4-1.26-.64-2.1h.24c-.24.85-.45,1.55-.64,2.12-.19.57-.34,1.04-.48,1.42l-2.4,6.8h-1.3ZM6.99,37.18v-1.07h5.57v1.07h-5.57Z"/>
      <path class="cls-2" d="M23.11,40.43c-.56,0-1.04-.11-1.46-.34-.42-.23-.74-.57-.98-1.02s-.35-1.01-.35-1.68v-5.25h1.15v5.16c0,.65.18,1.16.53,1.53.36.37.83.56,1.43.56.42,0,.78-.09,1.11-.27.32-.18.58-.44.77-.77.19-.34.28-.74.28-1.21v-5h1.16v8.19h-1.12v-1.95h.16c-.24.74-.6,1.27-1.07,1.58-.48.31-1.01.47-1.62.47Z"/>
      <path class="cls-2" d="M31.85,40.5c-.55,0-1.03-.08-1.46-.25-.42-.16-.78-.41-1.05-.73-.28-.32-.46-.71-.56-1.17l1.1-.26c.12.47.34.82.68,1.04.34.23.76.34,1.28.34.59,0,1.06-.13,1.42-.4s.53-.58.53-.95c0-.31-.1-.56-.31-.77s-.52-.36-.95-.46l-1.35-.32c-.72-.17-1.26-.44-1.62-.81-.36-.37-.53-.83-.53-1.4,0-.46.13-.87.38-1.22.26-.35.6-.63,1.05-.83.44-.2.95-.3,1.52-.3.54,0,1,.08,1.38.24.38.16.69.39.94.68s.43.63.56,1.03l-1.05.27c-.12-.33-.32-.62-.6-.86s-.68-.37-1.22-.37-.94.12-1.28.36c-.34.24-.51.55-.51.93,0,.32.11.58.34.79.23.2.59.36,1.08.48l1.25.3c.72.17,1.25.44,1.6.8.35.36.53.82.53,1.38,0,.47-.13.89-.4,1.26-.27.37-.63.66-1.11.87-.47.21-1.02.31-1.64.31Z"/>
      <path class="cls-2" d="M40.37,40.5c-.78,0-1.45-.18-2.02-.54-.57-.36-1.01-.85-1.31-1.48-.31-.63-.46-1.36-.46-2.2s.15-1.57.45-2.21c.3-.64.73-1.14,1.27-1.5s1.18-.54,1.91-.54c.44,0,.87.08,1.29.23.42.15.8.39,1.14.72s.61.75.81,1.26c.2.51.3,1.14.3,1.86v.49h-6.39v-.98h5.77l-.54.37c0-.56-.09-1.06-.27-1.5-.18-.44-.45-.79-.8-1.04-.35-.25-.78-.38-1.29-.38s-.95.13-1.31.38c-.37.26-.65.59-.85,1.01s-.3.87-.3,1.36v.62c0,.63.11,1.16.32,1.62.21.45.52.8.92,1.04.4.24.86.36,1.39.36.35,0,.67-.05.94-.16s.51-.26.71-.46c.19-.19.34-.42.44-.68l1.11.32c-.13.38-.34.72-.63,1.02s-.66.54-1.09.72c-.43.18-.93.27-1.49.27Z"/>
      <path class="cls-2" d="M45.71,40.32v-8.19h1.11v1.27h.08c.16-.41.44-.75.83-1s.84-.38,1.35-.38c.09,0,.19,0,.3,0,.11,0,.21.01.27.02v1.16s-.12-.02-.25-.03c-.13-.02-.28-.03-.44-.03-.41,0-.77.09-1.09.26-.32.17-.57.41-.75.71-.18.3-.27.65-.27,1.04v5.19h-1.15Z"/>
      <path class="cls-2" d="M58.7,40.49c-.73,0-1.37-.18-1.92-.53-.55-.35-.98-.85-1.29-1.48s-.46-1.37-.46-2.21.15-1.58.46-2.22c.31-.64.74-1.13,1.29-1.49.55-.35,1.19-.53,1.92-.53.41,0,.78.06,1.13.17.35.11.66.27.94.46s.52.42.71.69.34.55.44.85l-1.11.33c-.05-.18-.13-.36-.25-.53-.12-.17-.27-.33-.45-.47s-.39-.25-.62-.34c-.24-.08-.5-.12-.79-.12-.55,0-1.01.15-1.38.44-.37.3-.65.68-.84,1.17-.19.48-.28,1.02-.28,1.6s.09,1.1.28,1.58c.19.48.47.87.84,1.16.37.29.83.44,1.38.44.29,0,.56-.04.81-.13.24-.08.46-.2.64-.34.18-.14.33-.31.45-.49.12-.18.21-.37.26-.55l1.1.32c-.09.31-.24.6-.44.87-.2.27-.44.5-.72.71-.28.21-.6.37-.95.48-.35.12-.74.17-1.15.17Z"/>
      <path class="cls-2" d="M67.18,40.5c-.73,0-1.37-.18-1.92-.54-.55-.36-.98-.85-1.29-1.49s-.46-1.37-.46-2.21.15-1.58.46-2.22c.31-.64.74-1.13,1.29-1.49.55-.35,1.19-.53,1.92-.53s1.37.18,1.92.53c.55.35.99.85,1.3,1.49.31.64.47,1.38.47,2.22s-.16,1.57-.47,2.21-.74,1.13-1.3,1.49c-.55.36-1.2.54-1.92.54ZM67.18,39.46c.56,0,1.02-.15,1.4-.44.37-.29.65-.68.84-1.17.19-.48.28-1.01.28-1.58s-.09-1.1-.28-1.59-.47-.88-.84-1.18c-.37-.29-.84-.44-1.4-.44s-1.01.15-1.38.44c-.37.3-.65.69-.84,1.17-.19.49-.28,1.02-.28,1.59s.09,1.1.28,1.58c.19.48.47.87.84,1.17s.83.44,1.38.44Z"/>
      <path class="cls-2" d="M74.94,40.32l-3.13-8.19h1.26l1.82,5c.18.48.33.96.46,1.44.13.48.27.95.41,1.4h-.42c.15-.46.28-.92.41-1.4.13-.48.28-.96.46-1.44l1.82-5h1.26l-3.13,8.19h-1.22Z"/>
      <path class="cls-2" d="M84.04,40.5c-.78,0-1.45-.18-2.02-.54-.57-.36-1.01-.85-1.31-1.48-.31-.63-.46-1.36-.46-2.2s.15-1.57.45-2.21c.3-.64.73-1.14,1.27-1.5s1.18-.54,1.91-.54c.44,0,.87.08,1.29.23.42.15.8.39,1.14.72s.61.75.81,1.26c.2.51.3,1.14.3,1.86v.49h-6.39v-.98h5.77l-.54.37c0-.56-.09-1.06-.27-1.5-.18-.44-.45-.79-.8-1.04-.35-.25-.78-.38-1.29-.38s-.95.13-1.31.38c-.37.26-.65.59-.85,1.01s-.3.87-.3,1.36v.62c0,.63.11,1.16.32,1.62.21.45.52.8.92,1.04.4.24.86.36,1.39.36.35,0,.67-.05.94-.16s.51-.26.71-.46c.19-.19.34-.42.44-.68l1.11.32c-.13.38-.34.72-.63,1.02s-.66.54-1.09.72c-.43.18-.93.27-1.49.27Z"/>
      <path class="cls-2" d="M89.38,40.32v-8.19h1.11v1.27h.08c.16-.41.44-.75.83-1s.84-.38,1.35-.38c.09,0,.19,0,.3,0,.11,0,.21.01.27.02v1.16s-.12-.02-.25-.03c-.13-.02-.28-.03-.44-.03-.41,0-.77.09-1.09.26-.32.17-.57.41-.75.71-.18.3-.27.65-.27,1.04v5.19h-1.15Z"/>
      <path class="cls-2" d="M97.58,40.5c-.55,0-1.03-.08-1.46-.25-.42-.16-.78-.41-1.05-.73-.28-.32-.46-.71-.56-1.17l1.1-.26c.12.47.34.82.68,1.04.34.23.76.34,1.28.34.59,0,1.06-.13,1.42-.4s.53-.58.53-.95c0-.31-.1-.56-.31-.77s-.52-.36-.95-.46l-1.35-.32c-.72-.17-1.26-.44-1.62-.81-.36-.37-.53-.83-.53-1.4,0-.46.13-.87.38-1.22.26-.35.6-.63,1.05-.83.44-.2.95-.3,1.52-.3.54,0,1,.08,1.38.24.38.16.69.39.94.68s.43.63.56,1.03l-1.05.27c-.12-.33-.32-.62-.6-.86s-.68-.37-1.22-.37-.94.12-1.28.36c-.34.24-.51.55-.51.93,0,.32.11.58.34.79.23.2.59.36,1.08.48l1.25.3c.72.17,1.25.44,1.6.8.35.36.53.82.53,1.38,0,.47-.13.89-.4,1.26-.27.37-.63.66-1.11.87-.47.21-1.02.31-1.64.31Z"/>
      <path class="cls-2" d="M109.94,32.13v1h-4.07v-1h4.07ZM107.1,30.19h1.15v8.11c0,.39.08.67.25.85.17.18.43.26.78.25.08,0,.17-.02.29-.03.11-.02.22-.04.32-.05l.23.98c-.12.04-.25.08-.41.1-.15.02-.3.03-.45.03-.68.02-1.22-.15-1.6-.51-.38-.36-.57-.87-.57-1.52v-8.2Z"/>
      <path class="cls-2" d="M112.78,35.32v5h-1.15v-10.91h1.15v4.67h-.21c.24-.74.59-1.26,1.07-1.58.47-.32,1.02-.47,1.64-.47.55,0,1.04.11,1.46.34.42.23.75.57.98,1.02.23.45.35,1.01.35,1.68v5.25h-1.16v-5.16c0-.65-.18-1.16-.53-1.53-.35-.37-.83-.56-1.43-.56-.41,0-.78.09-1.11.27-.33.18-.59.43-.78.77-.19.33-.29.74-.29,1.21Z"/>
      <path class="cls-2" d="M123.85,40.5c-.78,0-1.45-.18-2.02-.54-.57-.36-1.01-.85-1.31-1.48-.31-.63-.46-1.36-.46-2.2s.15-1.57.45-2.21c.3-.64.73-1.14,1.27-1.5s1.18-.54,1.91-.54c.44,0,.87.08,1.29.23.42.15.8.39,1.14.72s.61.75.81,1.26c.2.51.3,1.14.3,1.86v.49h-6.39v-.98h5.77l-.54.37c0-.56-.09-1.06-.27-1.5-.18-.44-.45-.79-.8-1.04-.35-.25-.78-.38-1.29-.38s-.95.13-1.31.38c-.37.26-.65.59-.85,1.01s-.3.87-.3,1.36v.62c0,.63.11,1.16.32,1.62.21.45.52.8.92,1.04.4.24.86.36,1.39.36.35,0,.67-.05.94-.16s.51-.26.71-.46c.19-.19.34-.42.44-.68l1.11.32c-.13.38-.34.72-.63,1.02s-.66.54-1.09.72c-.43.18-.93.27-1.49.27Z"/>
      <path class="cls-2" d="M129.77,30.71c-.22,0-.42-.08-.58-.23-.16-.15-.24-.34-.24-.55s.08-.41.24-.56.35-.23.58-.23.42.08.58.23.25.34.25.56-.08.4-.25.55c-.16.15-.36.23-.58.23ZM129.19,40.32v-8.19h1.15v8.19h-1.15Z"/>
      <path class="cls-2" d="M132.76,40.32v-8.19h1.11v1.27h.08c.16-.41.44-.75.83-1s.84-.38,1.35-.38c.09,0,.19,0,.3,0,.11,0,.21.01.27.02v1.16s-.12-.02-.25-.03c-.13-.02-.28-.03-.44-.03-.41,0-.77.09-1.09.26-.32.17-.57.41-.75.71-.18.3-.27.65-.27,1.04v5.19h-1.15Z"/>
      <path class="cls-2" d="M29.32,58.5c-.78,0-1.45-.18-2.02-.54-.57-.36-1.01-.85-1.31-1.48-.31-.63-.46-1.36-.46-2.2s.15-1.57.45-2.21c.3-.64.73-1.14,1.27-1.5s1.18-.54,1.91-.54c.44,0,.87.08,1.29.23.42.15.8.39,1.14.72s.61.75.81,1.26c.2.51.3,1.14.3,1.86v.49h-6.39v-.98h5.77l-.54.37c0-.56-.09-1.06-.27-1.5-.18-.44-.45-.79-.8-1.04-.35-.25-.78-.38-1.29-.38s-.95.13-1.31.38c-.37.26-.65.59-.85,1.01s-.3.87-.3,1.36v.62c0,.63.11,1.16.32,1.62.21.45.52.8.92,1.04.4.24.86.36,1.39.36.35,0,.67-.05.94-.16s.51-.26.71-.46c.19-.19.34-.42.44-.68l1.11.32c-.13.38-.34.72-.63,1.02s-.66.54-1.09.72c-.43.18-.93.27-1.49.27Z"/>
      <path class="cls-2" d="M37.02,58.51c-.51,0-.97-.1-1.38-.29s-.75-.48-.99-.85-.37-.82-.37-1.35c0-.44.09-.8.26-1.08s.4-.51.7-.69c.3-.17.63-.31,1.01-.4.38-.1.78-.17,1.2-.22.47-.06.86-.11,1.17-.15.31-.04.55-.1.71-.19.16-.09.24-.23.24-.44v-.12c0-.36-.07-.66-.21-.91-.14-.25-.34-.44-.61-.58-.27-.13-.6-.2-1-.2s-.73.06-1.01.18c-.29.12-.52.28-.7.46-.18.19-.32.39-.41.6l-1.11-.37c.2-.47.47-.85.81-1.12s.72-.47,1.14-.59c.42-.12.84-.18,1.26-.18.3,0,.62.04.97.11.35.08.67.21.98.41.31.2.56.48.76.85.2.37.3.85.3,1.44v5.48h-1.14v-1.2h-.08c-.11.22-.27.44-.48.65-.21.21-.49.39-.82.53-.33.14-.73.21-1.18.21ZM37.21,57.49c.49,0,.91-.1,1.26-.31.35-.21.62-.48.81-.82.19-.34.28-.7.28-1.08v-1.16c-.06.07-.17.13-.35.18-.17.05-.37.1-.59.14-.22.04-.44.08-.66.1-.22.03-.4.05-.54.06-.39.05-.74.13-1.04.23-.3.11-.53.26-.7.46-.17.2-.25.46-.25.77s.08.57.23.78c.15.21.36.37.63.48.27.11.57.17.91.17Z"/>
      <path class="cls-2" d="M43.14,58.32v-8.19h1.11v1.27h.08c.16-.41.44-.75.83-1s.84-.38,1.35-.38c.09,0,.19,0,.3,0,.11,0,.21.01.27.02v1.16s-.12-.02-.25-.03c-.13-.02-.28-.03-.44-.03-.41,0-.77.09-1.09.26-.32.17-.57.41-.75.71-.18.3-.27.65-.27,1.04v5.19h-1.15Z"/>
      <path class="cls-2" d="M51.34,58.5c-.55,0-1.03-.08-1.46-.25-.42-.16-.78-.41-1.05-.73-.28-.32-.46-.71-.56-1.17l1.1-.26c.12.47.34.82.68,1.04.34.23.76.34,1.28.34.59,0,1.06-.13,1.42-.4s.53-.58.53-.95c0-.31-.1-.56-.31-.77s-.52-.36-.95-.46l-1.35-.32c-.72-.17-1.26-.44-1.62-.81-.36-.37-.53-.83-.53-1.4,0-.46.13-.87.38-1.22.26-.35.6-.63,1.05-.83.44-.2.95-.3,1.52-.3.54,0,1,.08,1.38.24.38.16.69.39.94.68s.43.63.56,1.03l-1.05.27c-.12-.33-.32-.62-.6-.86s-.68-.37-1.22-.37-.94.12-1.28.36c-.34.24-.51.55-.51.93,0,.32.11.58.34.79.23.2.59.36,1.08.48l1.25.3c.72.17,1.25.44,1.6.8.35.36.53.82.53,1.38,0,.47-.13.89-.4,1.26-.27.37-.63.66-1.11.87-.47.21-1.02.31-1.64.31Z"/>
      <path class="cls-2" d="M57.41,58.41c-.24,0-.45-.09-.63-.26s-.26-.38-.26-.63.09-.45.26-.63.38-.26.63-.26.45.09.63.26c.17.17.26.38.26.63s-.09.45-.26.63c-.17.17-.38.26-.63.26Z"/>
      <path class="cls-2" d="M65.15,58.32v-10.91h3.65c.81,0,1.48.14,2.01.43.54.29.94.68,1.21,1.18.27.5.4,1.07.4,1.72s-.13,1.21-.4,1.71c-.27.49-.67.88-1.2,1.15-.54.28-1.21.41-2.02.41h-2.97v-1.08h2.92c.57,0,1.04-.09,1.4-.27.36-.18.63-.43.8-.76.17-.33.26-.71.26-1.16s-.09-.85-.26-1.19c-.17-.34-.44-.6-.81-.78-.36-.18-.83-.28-1.41-.28h-2.37v9.84h-1.22ZM71.45,58.32l-2.64-4.92h1.37l2.68,4.92h-1.41Z"/>
      <path class="cls-2" d="M77.73,58.5c-.78,0-1.45-.18-2.02-.54-.57-.36-1.01-.85-1.31-1.48-.31-.63-.46-1.36-.46-2.2s.15-1.57.45-2.21c.3-.64.73-1.14,1.27-1.5s1.18-.54,1.91-.54c.44,0,.87.08,1.29.23.42.15.8.39,1.14.72s.61.75.81,1.26c.2.51.3,1.14.3,1.86v.49h-6.39v-.98h5.77l-.54.37c0-.56-.09-1.06-.27-1.5-.18-.44-.45-.79-.8-1.04-.35-.25-.78-.38-1.29-.38s-.95.13-1.31.38c-.37.26-.65.59-.85,1.01s-.3.87-.3,1.36v.62c0,.63.11,1.16.32,1.62.21.45.52.8.92,1.04.4.24.86.36,1.39.36.35,0,.67-.05.94-.16s.51-.26.71-.46c.19-.19.34-.42.44-.68l1.11.32c-.13.38-.34.72-.63,1.02s-.66.54-1.09.72c-.43.18-.93.27-1.49.27Z"/>
      <path class="cls-2" d="M86.06,58.5c-.67,0-1.27-.18-1.78-.53s-.91-.84-1.2-1.48-.43-1.38-.43-2.24.15-1.6.44-2.23c.29-.63.69-1.12,1.21-1.47.51-.35,1.11-.52,1.78-.52.52,0,.94.09,1.26.26.32.18.57.38.76.62.19.24.33.46.42.66h.1v-4.17h1.16v10.91h-1.12v-1.4h-.13c-.09.2-.23.42-.42.67-.19.25-.45.46-.77.64-.33.18-.74.27-1.25.27ZM86.23,57.46c.51,0,.94-.14,1.3-.41s.63-.65.81-1.14c.19-.49.28-1.04.28-1.67s-.09-1.18-.27-1.65c-.18-.48-.45-.85-.81-1.12s-.79-.4-1.3-.4-.97.14-1.33.42c-.36.28-.63.66-.81,1.14s-.27,1.02-.27,1.61.09,1.15.27,1.63c.18.49.45.88.81,1.16.36.29.8.43,1.32.43Z"/>
      <path class="cls-2" d="M94.96,58.43c-.56,0-1.04-.11-1.46-.34-.42-.23-.74-.57-.98-1.02s-.35-1.01-.35-1.68v-5.25h1.15v5.16c0,.65.18,1.16.53,1.53.36.37.83.56,1.43.56.42,0,.78-.09,1.11-.27.32-.18.58-.44.77-.77.19-.34.28-.74.28-1.21v-5h1.16v8.19h-1.12v-1.95h.16c-.24.74-.6,1.27-1.07,1.58-.48.31-1.01.47-1.62.47Z"/>
      <path class="cls-2" d="M104.28,58.49c-.73,0-1.37-.18-1.92-.53-.55-.35-.98-.85-1.29-1.48s-.46-1.37-.46-2.21.15-1.58.46-2.22c.31-.64.74-1.13,1.29-1.49.55-.35,1.19-.53,1.92-.53.41,0,.78.06,1.13.17.35.11.66.27.94.46s.52.42.71.69.34.55.44.85l-1.11.33c-.05-.18-.13-.36-.25-.53-.12-.17-.27-.33-.45-.47s-.39-.25-.62-.34c-.24-.08-.5-.12-.79-.12-.55,0-1.01.15-1.38.44-.37.3-.65.68-.84,1.17-.19.48-.28,1.02-.28,1.6s.09,1.1.28,1.58c.19.48.47.87.84,1.16.37.29.83.44,1.38.44.29,0,.56-.04.81-.13.24-.08.46-.2.64-.34.18-.14.33-.31.45-.49.12-.18.21-.37.26-.55l1.1.32c-.09.31-.24.6-.44.87-.2.27-.44.5-.72.71-.28.21-.6.37-.95.48-.35.12-.74.17-1.15.17Z"/>
      <path class="cls-2" d="M112.87,58.5c-.78,0-1.45-.18-2.02-.54-.57-.36-1.01-.85-1.31-1.48-.31-.63-.46-1.36-.46-2.2s.15-1.57.45-2.21c.3-.64.73-1.14,1.27-1.5s1.18-.54,1.91-.54c.44,0,.87.08,1.29.23.42.15.8.39,1.14.72s.61.75.81,1.26c.2.51.3,1.14.3,1.86v.49h-6.39v-.98h5.77l-.54.37c0-.56-.09-1.06-.27-1.5-.18-.44-.45-.79-.8-1.04-.35-.25-.78-.38-1.29-.38s-.95.13-1.31.38c-.37.26-.65.59-.85,1.01s-.3.87-.3,1.36v.62c0,.63.11,1.16.32,1.62.21.45.52.8.92,1.04.4.24.86.36,1.39.36.35,0,.67-.05.94-.16s.51-.26.71-.46c.19-.19.34-.42.44-.68l1.11.32c-.13.38-.34.72-.63,1.02s-.66.54-1.09.72c-.43.18-.93.27-1.49.27Z"/>
      <path class="cls-2" d="M25.6,76.5c-.78,0-1.45-.18-2.02-.54-.57-.36-1.01-.85-1.31-1.48-.31-.63-.46-1.36-.46-2.2s.15-1.57.45-2.21c.3-.64.73-1.14,1.27-1.5s1.18-.54,1.91-.54c.44,0,.87.08,1.29.23.42.15.8.39,1.14.72s.61.75.81,1.26c.2.51.3,1.14.3,1.86v.49h-6.39v-.98h5.77l-.54.37c0-.56-.09-1.06-.27-1.5-.18-.44-.45-.79-.8-1.04-.35-.25-.78-.38-1.29-.38s-.95.13-1.31.38c-.37.26-.65.59-.85,1.01s-.3.87-.3,1.36v.62c0,.63.11,1.16.32,1.62.21.45.52.8.92,1.04.4.24.86.36,1.39.36.35,0,.67-.05.94-.16s.51-.26.71-.46c.19-.19.34-.42.44-.68l1.11.32c-.13.38-.34.72-.63,1.02s-.66.54-1.09.72c-.43.18-.93.27-1.49.27Z"/>
      <path class="cls-2" d="M32.09,71.32v5h-1.15v-8.19h1.11v1.95s-.16,0-.16,0c.24-.74.59-1.26,1.07-1.58.47-.32,1.02-.47,1.64-.47.55,0,1.04.11,1.45.34.42.23.74.57.98,1.02.23.45.35,1.01.35,1.68v5.25h-1.16v-5.16c0-.65-.18-1.16-.53-1.53-.35-.37-.83-.56-1.43-.56-.41,0-.78.09-1.11.27-.33.18-.59.43-.78.77-.19.33-.29.74-.29,1.21Z"/>
      <path class="cls-2" d="M41.93,76.32l-3.13-8.19h1.26l1.82,5c.18.48.33.96.46,1.44.13.48.27.95.41,1.4h-.42c.15-.46.28-.92.41-1.4.13-.48.28-.96.46-1.44l1.82-5h1.26l-3.13,8.19h-1.22Z"/>
      <path class="cls-2" d="M48.52,66.71c-.22,0-.42-.08-.58-.23-.16-.15-.24-.34-.24-.55s.08-.41.24-.56.35-.23.58-.23.42.08.58.23.25.34.25.56-.08.4-.25.55c-.16.15-.36.23-.58.23ZM47.94,76.32v-8.19h1.15v8.19h-1.15Z"/>
      <path class="cls-2" d="M51.51,76.32v-8.19h1.11v1.27h.08c.16-.41.44-.75.83-1s.84-.38,1.35-.38c.09,0,.19,0,.3,0,.11,0,.21.01.27.02v1.16s-.12-.02-.25-.03c-.13-.02-.28-.03-.44-.03-.41,0-.77.09-1.09.26-.32.17-.57.41-.75.71-.18.3-.27.65-.27,1.04v5.19h-1.15Z"/>
      <path class="cls-2" d="M60.03,76.5c-.73,0-1.37-.18-1.92-.54-.55-.36-.98-.85-1.29-1.49s-.46-1.37-.46-2.21.15-1.58.46-2.22c.31-.64.74-1.13,1.29-1.49.55-.35,1.19-.53,1.92-.53s1.37.18,1.92.53c.55.35.99.85,1.3,1.49.31.64.47,1.38.47,2.22s-.16,1.57-.47,2.21-.74,1.13-1.3,1.49c-.55.36-1.2.54-1.92.54ZM60.03,75.46c.56,0,1.02-.15,1.4-.44.37-.29.65-.68.84-1.17.19-.48.28-1.01.28-1.58s-.09-1.1-.28-1.59-.47-.88-.84-1.18c-.37-.29-.84-.44-1.4-.44s-1.01.15-1.38.44c-.37.3-.65.69-.84,1.17-.19.49-.28,1.02-.28,1.59s.09,1.1.28,1.58c.19.48.47.87.84,1.17s.83.44,1.38.44Z"/>
      <path class="cls-2" d="M66.87,71.32v5h-1.15v-8.19h1.11v1.95s-.16,0-.16,0c.24-.74.59-1.26,1.07-1.58.47-.32,1.02-.47,1.64-.47.55,0,1.04.11,1.45.34.42.23.74.57.98,1.02.23.45.35,1.01.35,1.68v5.25h-1.16v-5.16c0-.65-.18-1.16-.53-1.53-.35-.37-.83-.56-1.43-.56-.41,0-.78.09-1.11.27-.33.18-.59.43-.78.77-.19.33-.29.74-.29,1.21Z"/>
      <path class="cls-2" d="M74.57,76.32v-8.19h1.12v1.85s-.1,0-.1,0c.11-.45.29-.82.53-1.11s.53-.51.86-.66c.33-.14.67-.22,1.02-.22.6,0,1.08.18,1.46.55.38.37.62.86.73,1.47h-.17c.1-.42.28-.78.53-1.08.26-.3.57-.53.94-.7s.77-.24,1.2-.24c.48,0,.91.1,1.3.31.39.21.7.52.92.94.23.42.34.94.34,1.56v5.52h-1.16v-5.49c0-.62-.17-1.08-.51-1.36-.34-.28-.75-.43-1.23-.43-.38,0-.71.08-.99.24s-.5.38-.66.67c-.16.28-.23.62-.23,1v5.37h-1.15v-5.6c0-.51-.16-.92-.48-1.22s-.72-.46-1.22-.46c-.34,0-.66.08-.96.24-.3.16-.53.39-.71.7-.18.31-.27.68-.27,1.12v5.21h-1.15Z"/>
      <path class="cls-2" d="M91.06,76.5c-.78,0-1.45-.18-2.02-.54-.57-.36-1.01-.85-1.31-1.48-.31-.63-.46-1.36-.46-2.2s.15-1.57.45-2.21c.3-.64.73-1.14,1.27-1.5s1.18-.54,1.91-.54c.44,0,.87.08,1.29.23.42.15.8.39,1.14.72s.61.75.81,1.26c.2.51.3,1.14.3,1.86v.49h-6.39v-.98h5.77l-.54.37c0-.56-.09-1.06-.27-1.5-.18-.44-.45-.79-.8-1.04-.35-.25-.78-.38-1.29-.38s-.95.13-1.31.38c-.37.26-.65.59-.85,1.01s-.3.87-.3,1.36v.62c0,.63.11,1.16.32,1.62.21.45.52.8.92,1.04.4.24.86.36,1.39.36.35,0,.67-.05.94-.16s.51-.26.71-.46c.19-.19.34-.42.44-.68l1.11.32c-.13.38-.34.72-.63,1.02s-.66.54-1.09.72c-.43.18-.93.27-1.49.27Z"/>
      <path class="cls-2" d="M97.55,71.32v5h-1.15v-8.19h1.11v1.95s-.16,0-.16,0c.24-.74.59-1.26,1.07-1.58.47-.32,1.02-.47,1.64-.47.55,0,1.04.11,1.45.34.42.23.74.57.98,1.02.23.45.35,1.01.35,1.68v5.25h-1.16v-5.16c0-.65-.18-1.16-.53-1.53-.35-.37-.83-.56-1.43-.56-.41,0-.78.09-1.11.27-.33.18-.59.43-.78.77-.19.33-.29.74-.29,1.21Z"/>
      <path class="cls-2" d="M108.24,68.13v1h-4.07v-1h4.07ZM105.4,66.19h1.15v8.11c0,.39.08.67.25.85.17.18.43.26.78.25.08,0,.17-.02.29-.03.11-.02.22-.04.32-.05l.23.98c-.12.04-.25.08-.41.1-.15.02-.3.03-.45.03-.68.02-1.22-.15-1.6-.51-.38-.36-.57-.87-.57-1.52v-8.2Z"/>
      <path class="cls-2" d="M112.24,76.51c-.51,0-.97-.1-1.38-.29s-.75-.48-.99-.85-.37-.82-.37-1.35c0-.44.09-.8.26-1.08s.4-.51.7-.69c.3-.17.63-.31,1.01-.4.38-.1.78-.17,1.2-.22.47-.06.86-.11,1.17-.15.31-.04.55-.1.71-.19.16-.09.24-.23.24-.44v-.12c0-.36-.07-.66-.21-.91-.14-.25-.34-.44-.61-.58-.27-.13-.6-.2-1-.2s-.73.06-1.01.18c-.29.12-.52.28-.7.46-.18.19-.32.39-.41.6l-1.11-.37c.2-.47.47-.85.81-1.12s.72-.47,1.14-.59c.42-.12.84-.18,1.26-.18.3,0,.62.04.97.11.35.08.67.21.98.41.31.2.56.48.76.85.2.37.3.85.3,1.44v5.48h-1.14v-1.2h-.08c-.11.22-.27.44-.48.65-.21.21-.49.39-.82.53-.33.14-.73.21-1.18.21ZM112.43,75.49c.49,0,.91-.1,1.26-.31.35-.21.62-.48.81-.82.19-.34.28-.7.28-1.08v-1.16c-.06.07-.17.13-.35.18-.17.05-.37.1-.59.14-.22.04-.44.08-.66.1-.22.03-.4.05-.54.06-.39.05-.74.13-1.04.23-.3.11-.53.26-.7.46-.17.2-.25.46-.25.77s.08.57.23.78c.15.21.36.37.63.48.27.11.57.17.91.17Z"/>
      <path class="cls-2" d="M119.51,65.41v10.91h-1.15v-10.91h1.15Z"/>
      <path class="cls-2" d="M12.15,94.5c-.55,0-1.03-.08-1.46-.25-.42-.16-.78-.41-1.05-.73-.28-.32-.46-.71-.56-1.17l1.1-.26c.12.47.34.82.68,1.04.34.23.76.34,1.28.34.59,0,1.06-.13,1.42-.4s.53-.58.53-.95c0-.31-.1-.56-.31-.77s-.52-.36-.95-.46l-1.35-.32c-.72-.17-1.26-.44-1.62-.81-.36-.37-.53-.83-.53-1.4,0-.46.13-.87.38-1.22.26-.35.6-.63,1.05-.83.44-.2.95-.3,1.52-.3.54,0,1,.08,1.38.24.38.16.69.39.94.68s.43.63.56,1.03l-1.05.27c-.12-.33-.32-.62-.6-.86s-.68-.37-1.22-.37-.94.12-1.28.36c-.34.24-.51.55-.51.93,0,.32.11.58.34.79.23.2.59.36,1.08.48l1.25.3c.72.17,1.25.44,1.6.8.35.36.53.82.53,1.38,0,.47-.13.89-.4,1.26-.27.37-.63.66-1.11.87-.47.21-1.02.31-1.64.31Z"/>
      <path class="cls-2" d="M20.55,94.5c-.73,0-1.37-.18-1.92-.54-.55-.36-.98-.85-1.29-1.49s-.46-1.37-.46-2.21.15-1.58.46-2.22c.31-.64.74-1.13,1.29-1.49.55-.35,1.19-.53,1.92-.53s1.37.18,1.92.53c.55.35.99.85,1.3,1.49.31.64.47,1.38.47,2.22s-.16,1.57-.47,2.21-.74,1.13-1.3,1.49c-.55.36-1.2.54-1.92.54ZM20.55,93.46c.56,0,1.02-.15,1.4-.44.37-.29.65-.68.84-1.17.19-.48.28-1.01.28-1.58s-.09-1.1-.28-1.59-.47-.88-.84-1.18c-.37-.29-.84-.44-1.4-.44s-1.01.15-1.38.44c-.37.3-.65.69-.84,1.17-.19.49-.28,1.02-.28,1.59s.09,1.1.28,1.58c.19.48.47.87.84,1.17s.83.44,1.38.44Z"/>
      <path class="cls-2" d="M29.03,94.43c-.56,0-1.04-.11-1.46-.34-.42-.23-.74-.57-.98-1.02s-.35-1.01-.35-1.68v-5.25h1.15v5.16c0,.65.18,1.16.53,1.53.36.37.83.56,1.43.56.42,0,.78-.09,1.11-.27.32-.18.58-.44.77-.77.19-.34.28-.74.28-1.21v-5h1.16v8.19h-1.12v-1.95h.16c-.24.74-.6,1.27-1.07,1.58-.48.31-1.01.47-1.62.47Z"/>
      <path class="cls-2" d="M36.23,89.32v5h-1.15v-8.19h1.11v1.95s-.16,0-.16,0c.24-.74.59-1.26,1.07-1.58.47-.32,1.02-.47,1.64-.47.55,0,1.04.11,1.45.34.42.23.74.57.98,1.02.23.45.35,1.01.35,1.68v5.25h-1.16v-5.16c0-.65-.18-1.16-.53-1.53-.35-.37-.83-.56-1.43-.56-.41,0-.78.09-1.11.27-.33.18-.59.43-.78.77-.19.33-.29.74-.29,1.21Z"/>
      <path class="cls-2" d="M46.93,94.5c-.67,0-1.27-.18-1.78-.53s-.91-.84-1.2-1.48-.43-1.38-.43-2.24.15-1.6.44-2.23c.29-.63.69-1.12,1.21-1.47.51-.35,1.11-.52,1.78-.52.52,0,.94.09,1.26.26.32.18.57.38.76.62.19.24.33.46.42.66h.1v-4.17h1.16v10.91h-1.12v-1.4h-.13c-.09.2-.23.42-.42.67-.19.25-.45.46-.77.64-.33.18-.74.27-1.25.27ZM47.1,93.46c.51,0,.94-.14,1.3-.41s.63-.65.81-1.14c.19-.49.28-1.04.28-1.67s-.09-1.18-.27-1.65c-.18-.48-.45-.85-.81-1.12s-.79-.4-1.3-.4-.97.14-1.33.42c-.36.28-.63.66-.81,1.14s-.27,1.02-.27,1.61.09,1.15.27,1.63c.18.49.45.88.81,1.16.36.29.8.43,1.32.43Z"/>
      <path class="cls-2" d="M55.72,94.5c-.55,0-1.03-.08-1.46-.25-.42-.16-.78-.41-1.05-.73-.28-.32-.46-.71-.56-1.17l1.1-.26c.12.47.34.82.68,1.04.34.23.76.34,1.28.34.59,0,1.06-.13,1.42-.4s.53-.58.53-.95c0-.31-.1-.56-.31-.77s-.52-.36-.95-.46l-1.35-.32c-.72-.17-1.26-.44-1.62-.81-.36-.37-.53-.83-.53-1.4,0-.46.13-.87.38-1.22.26-.35.6-.63,1.05-.83.44-.2.95-.3,1.52-.3.54,0,1,.08,1.38.24.38.16.69.39.94.68s.43.63.56,1.03l-1.05.27c-.12-.33-.32-.62-.6-.86s-.68-.37-1.22-.37-.94.12-1.28.36c-.34.24-.51.55-.51.93,0,.32.11.58.34.79.23.2.59.36,1.08.48l1.25.3c.72.17,1.25.44,1.6.8.35.36.53.82.53,1.38,0,.47-.13.89-.4,1.26-.27.37-.63.66-1.11.87-.47.21-1.02.31-1.64.31Z"/>
      <path class="cls-2" d="M67.3,94.51c-.51,0-.97-.1-1.38-.29s-.75-.48-.99-.85-.37-.82-.37-1.35c0-.44.09-.8.26-1.08s.4-.51.7-.69c.3-.17.63-.31,1.01-.4.38-.1.78-.17,1.2-.22.47-.06.86-.11,1.17-.15.31-.04.55-.1.71-.19.16-.09.24-.23.24-.44v-.12c0-.36-.07-.66-.21-.91-.14-.25-.34-.44-.61-.58-.27-.13-.6-.2-1-.2s-.73.06-1.01.18c-.29.12-.52.28-.7.46-.18.19-.32.39-.41.6l-1.11-.37c.2-.47.47-.85.81-1.12s.72-.47,1.14-.59c.42-.12.84-.18,1.26-.18.3,0,.62.04.97.11.35.08.67.21.98.41.31.2.56.48.76.85.2.37.3.85.3,1.44v5.48h-1.14v-1.2h-.08c-.11.22-.27.44-.48.65-.21.21-.49.39-.82.53-.33.14-.73.21-1.18.21ZM67.49,93.49c.49,0,.91-.1,1.26-.31.35-.21.62-.48.81-.82.19-.34.28-.7.28-1.08v-1.16c-.06.07-.17.13-.35.18-.17.05-.37.1-.59.14-.22.04-.44.08-.66.1-.22.03-.4.05-.54.06-.39.05-.74.13-1.04.23-.3.11-.53.26-.7.46-.17.2-.25.46-.25.77s.08.57.23.78c.15.21.36.37.63.48.27.11.57.17.91.17Z"/>
      <path class="cls-2" d="M74.57,89.32v5h-1.15v-8.19h1.11v1.95s-.16,0-.16,0c.24-.74.59-1.26,1.07-1.58.47-.32,1.02-.47,1.64-.47.55,0,1.04.11,1.45.34.42.23.74.57.98,1.02.23.45.35,1.01.35,1.68v5.25h-1.16v-5.16c0-.65-.18-1.16-.53-1.53-.35-.37-.83-.56-1.43-.56-.41,0-.78.09-1.11.27-.33.18-.59.43-.78.77-.19.33-.29.74-.29,1.21Z"/>
      <path class="cls-2" d="M85.26,94.5c-.67,0-1.27-.18-1.78-.53s-.91-.84-1.2-1.48-.43-1.38-.43-2.24.15-1.6.44-2.23c.29-.63.69-1.12,1.21-1.47.51-.35,1.11-.52,1.78-.52.52,0,.94.09,1.26.26.32.18.57.38.76.62.19.24.33.46.42.66h.1v-4.17h1.16v10.91h-1.12v-1.4h-.13c-.09.2-.23.42-.42.67-.19.25-.45.46-.77.64-.33.18-.74.27-1.25.27ZM85.43,93.46c.51,0,.94-.14,1.3-.41s.63-.65.81-1.14c.19-.49.28-1.04.28-1.67s-.09-1.18-.27-1.65c-.18-.48-.45-.85-.81-1.12s-.79-.4-1.3-.4-.97.14-1.33.42c-.36.28-.63.66-.81,1.14s-.27,1.02-.27,1.61.09,1.15.27,1.63c.18.49.45.88.81,1.16.36.29.8.43,1.32.43Z"/>
      <path class="cls-2" d="M97.81,94.51c-.51,0-.97-.1-1.38-.29s-.75-.48-.99-.85-.37-.82-.37-1.35c0-.44.09-.8.26-1.08s.4-.51.7-.69c.3-.17.63-.31,1.01-.4.38-.1.78-.17,1.2-.22.47-.06.86-.11,1.17-.15.31-.04.55-.1.71-.19.16-.09.24-.23.24-.44v-.12c0-.36-.07-.66-.21-.91-.14-.25-.34-.44-.61-.58-.27-.13-.6-.2-1-.2s-.73.06-1.01.18c-.29.12-.52.28-.7.46-.18.19-.32.39-.41.6l-1.11-.37c.2-.47.47-.85.81-1.12s.72-.47,1.14-.59c.42-.12.84-.18,1.26-.18.3,0,.62.04.97.11.35.08.67.21.98.41.31.2.56.48.76.85.2.37.3.85.3,1.44v5.48h-1.14v-1.2h-.08c-.11.22-.27.44-.48.65-.21.21-.49.39-.82.53-.33.14-.73.21-1.18.21ZM98,93.49c.49,0,.91-.1,1.26-.31.35-.21.62-.48.81-.82.19-.34.28-.7.28-1.08v-1.16c-.06.07-.17.13-.35.18-.17.05-.37.1-.59.14-.22.04-.44.08-.66.1-.22.03-.4.05-.54.06-.39.05-.74.13-1.04.23-.3.11-.53.26-.7.46-.17.2-.25.46-.25.77s.08.57.23.78c.15.21.36.37.63.48.27.11.57.17.91.17Z"/>
      <path class="cls-2" d="M106.92,94.5c-.67,0-1.27-.18-1.78-.53s-.91-.84-1.2-1.48-.43-1.38-.43-2.24.15-1.6.44-2.23c.29-.63.69-1.12,1.21-1.47.51-.35,1.11-.52,1.78-.52.52,0,.94.09,1.26.26.32.18.57.38.76.62.19.24.33.46.42.66h.1v-4.17h1.16v10.91h-1.12v-1.4h-.13c-.09.2-.23.42-.42.67-.19.25-.45.46-.77.64-.33.18-.74.27-1.25.27ZM107.09,93.46c.51,0,.94-.14,1.3-.41s.63-.65.81-1.14c.19-.49.28-1.04.28-1.67s-.09-1.18-.27-1.65c-.18-.48-.45-.85-.81-1.12s-.79-.4-1.3-.4-.97.14-1.33.42c-.36.28-.63.66-.81,1.14s-.27,1.02-.27,1.61.09,1.15.27,1.63c.18.49.45.88.81,1.16.36.29.8.43,1.32.43Z"/>
      <path class="cls-2" d="M116.02,94.5c-.67,0-1.27-.18-1.78-.53s-.91-.84-1.2-1.48-.43-1.38-.43-2.24.15-1.6.44-2.23c.29-.63.69-1.12,1.21-1.47.51-.35,1.11-.52,1.78-.52.52,0,.94.09,1.26.26.32.18.57.38.76.62.19.24.33.46.42.66h.1v-4.17h1.16v10.91h-1.12v-1.4h-.13c-.09.2-.23.42-.42.67-.19.25-.45.46-.77.64-.33.18-.74.27-1.25.27ZM116.19,93.46c.51,0,.94-.14,1.3-.41s.63-.65.81-1.14c.19-.49.28-1.04.28-1.67s-.09-1.18-.27-1.65c-.18-.48-.45-.85-.81-1.12s-.79-.4-1.3-.4-.97.14-1.33.42c-.36.28-.63.66-.81,1.14s-.27,1.02-.27,1.61.09,1.15.27,1.63c.18.49.45.88.81,1.16.36.29.8.43,1.32.43Z"/>
      <path class="cls-2" d="M128.57,94.51c-.51,0-.97-.1-1.38-.29s-.75-.48-.99-.85-.37-.82-.37-1.35c0-.44.09-.8.26-1.08s.4-.51.7-.69c.3-.17.63-.31,1.01-.4.38-.1.78-.17,1.2-.22.47-.06.86-.11,1.17-.15.31-.04.55-.1.71-.19.16-.09.24-.23.24-.44v-.12c0-.36-.07-.66-.21-.91-.14-.25-.34-.44-.61-.58-.27-.13-.6-.2-1-.2s-.73.06-1.01.18c-.29.12-.52.28-.7.46-.18.19-.32.39-.41.6l-1.11-.37c.2-.47.47-.85.81-1.12s.72-.47,1.14-.59c.42-.12.84-.18,1.26-.18.3,0,.62.04.97.11.35.08.67.21.98.41.31.2.56.48.76.85.2.37.3.85.3,1.44v5.48h-1.14v-1.2h-.08c-.11.22-.27.44-.48.65-.21.21-.49.39-.82.53-.33.14-.73.21-1.18.21ZM128.76,93.49c.49,0,.91-.1,1.26-.31.35-.21.62-.48.81-.82.19-.34.28-.7.28-1.08v-1.16c-.06.07-.17.13-.35.18-.17.05-.37.1-.59.14-.22.04-.44.08-.66.1-.22.03-.4.05-.54.06-.39.05-.74.13-1.04.23-.3.11-.53.26-.7.46-.17.2-.25.46-.25.77s.08.57.23.78c.15.21.36.37.63.48.27.11.57.17.91.17Z"/>
      <path class="cls-2" d="M20.61,104.13v1h-4.07v-1h4.07ZM17.77,102.19h1.15v8.11c0,.39.08.67.25.85.17.18.43.26.78.25.08,0,.17-.02.29-.03.11-.02.22-.04.32-.05l.23.98c-.12.04-.25.08-.41.1-.15.02-.3.03-.45.03-.68.02-1.22-.15-1.6-.51-.38-.36-.57-.87-.57-1.52v-8.2Z"/>
      <path class="cls-2" d="M24.61,112.51c-.51,0-.97-.1-1.38-.29s-.75-.48-.99-.85-.37-.82-.37-1.35c0-.44.09-.8.26-1.08s.4-.51.7-.69c.3-.17.63-.31,1.01-.4.38-.1.78-.17,1.2-.22.47-.06.86-.11,1.17-.15.31-.04.55-.1.71-.19.16-.09.24-.23.24-.44v-.12c0-.36-.07-.66-.21-.91-.14-.25-.34-.44-.61-.58-.27-.13-.6-.2-1-.2s-.73.06-1.01.18c-.29.12-.52.28-.7.46-.18.19-.32.39-.41.6l-1.11-.37c.2-.47.47-.85.81-1.12s.72-.47,1.14-.59c.42-.12.84-.18,1.26-.18.3,0,.62.04.97.11.35.08.67.21.98.41.31.2.56.48.76.85.2.37.3.85.3,1.44v5.48h-1.14v-1.2h-.08c-.11.22-.27.44-.48.65-.21.21-.49.39-.82.53-.33.14-.73.21-1.18.21ZM24.8,111.49c.49,0,.91-.1,1.26-.31.35-.21.62-.48.81-.82.19-.34.28-.7.28-1.08v-1.16c-.06.07-.17.13-.35.18-.17.05-.37.1-.59.14-.22.04-.44.08-.66.1-.22.03-.4.05-.54.06-.39.05-.74.13-1.04.23-.3.11-.53.26-.7.46-.17.2-.25.46-.25.77s.08.57.23.78c.15.21.36.37.63.48.27.11.57.17.91.17Z"/>
      <path class="cls-2" d="M33.99,112.49c-.73,0-1.37-.18-1.92-.53-.55-.35-.98-.85-1.29-1.48s-.46-1.37-.46-2.21.15-1.58.46-2.22c.31-.64.74-1.13,1.29-1.49.55-.35,1.19-.53,1.92-.53.41,0,.78.06,1.13.17.35.11.66.27.94.46s.52.42.71.69.34.55.44.85l-1.11.33c-.05-.18-.13-.36-.25-.53-.12-.17-.27-.33-.45-.47s-.39-.25-.62-.34c-.24-.08-.5-.12-.79-.12-.55,0-1.01.15-1.38.44-.37.3-.65.68-.84,1.17-.19.48-.28,1.02-.28,1.6s.09,1.1.28,1.58c.19.48.47.87.84,1.16.37.29.83.44,1.38.44.29,0,.56-.04.81-.13.24-.08.46-.2.64-.34.18-.14.33-.31.45-.49.12-.18.21-.37.26-.55l1.1.32c-.09.31-.24.6-.44.87-.2.27-.44.5-.72.71-.28.21-.6.37-.95.48-.35.12-.74.17-1.15.17Z"/>
      <path class="cls-2" d="M42.2,104.13v1h-4.07v-1h4.07ZM39.36,102.19h1.15v8.11c0,.39.08.67.25.85.17.18.43.26.78.25.08,0,.17-.02.29-.03.11-.02.22-.04.32-.05l.23.98c-.12.04-.25.08-.41.1-.15.02-.3.03-.45.03-.68.02-1.22-.15-1.6-.51-.38-.36-.57-.87-.57-1.52v-8.2Z"/>
      <path class="cls-2" d="M44.47,102.71c-.22,0-.42-.08-.58-.23-.16-.15-.24-.34-.24-.55s.08-.41.24-.56.35-.23.58-.23.42.08.58.23.25.34.25.56-.08.4-.25.55c-.16.15-.36.23-.58.23ZM43.89,112.32v-8.19h1.15v8.19h-1.15Z"/>
      <path class="cls-2" d="M48.61,101.41v10.91h-1.15v-10.91h1.15Z"/>
      <path class="cls-2" d="M54.4,112.5c-.78,0-1.45-.18-2.02-.54-.57-.36-1.01-.85-1.31-1.48-.31-.63-.46-1.36-.46-2.2s.15-1.57.45-2.21c.3-.64.73-1.14,1.27-1.5s1.18-.54,1.91-.54c.44,0,.87.08,1.29.23.42.15.8.39,1.14.72s.61.75.81,1.26c.2.51.3,1.14.3,1.86v.49h-6.39v-.98h5.77l-.54.37c0-.56-.09-1.06-.27-1.5-.18-.44-.45-.79-.8-1.04-.35-.25-.78-.38-1.29-.38s-.95.13-1.31.38c-.37.26-.65.59-.85,1.01s-.3.87-.3,1.36v.62c0,.63.11,1.16.32,1.62.21.45.52.8.92,1.04.4.24.86.36,1.39.36.35,0,.67-.05.94-.16s.51-.26.71-.46c.19-.19.34-.42.44-.68l1.11.32c-.13.38-.34.72-.63,1.02s-.66.54-1.09.72c-.43.18-.93.27-1.49.27Z"/>
      <path class="cls-2" d="M66.65,112.5c-.55,0-1.03-.08-1.46-.25-.42-.16-.78-.41-1.05-.73-.28-.32-.46-.71-.56-1.17l1.1-.26c.12.47.34.82.68,1.04.34.23.76.34,1.28.34.59,0,1.06-.13,1.42-.4s.53-.58.53-.95c0-.31-.1-.56-.31-.77s-.52-.36-.95-.46l-1.35-.32c-.72-.17-1.26-.44-1.62-.81-.36-.37-.53-.83-.53-1.4,0-.46.13-.87.38-1.22.26-.35.6-.63,1.05-.83.44-.2.95-.3,1.52-.3.54,0,1,.08,1.38.24.38.16.69.39.94.68s.43.63.56,1.03l-1.05.27c-.12-.33-.32-.62-.6-.86s-.68-.37-1.22-.37-.94.12-1.28.36c-.34.24-.51.55-.51.93,0,.32.11.58.34.79.23.2.59.36,1.08.48l1.25.3c.72.17,1.25.44,1.6.8.35.36.53.82.53,1.38,0,.47-.13.89-.4,1.26-.27.37-.63.66-1.11.87-.47.21-1.02.31-1.64.31Z"/>
      <path class="cls-2" d="M74.78,104.13v1h-4.07v-1h4.07ZM71.94,102.19h1.15v8.11c0,.39.08.67.25.85.17.18.43.26.78.25.08,0,.17-.02.29-.03.11-.02.22-.04.32-.05l.23.98c-.12.04-.25.08-.41.1-.15.02-.3.03-.45.03-.68.02-1.22-.15-1.6-.51-.38-.36-.57-.87-.57-1.52v-8.2Z"/>
      <path class="cls-2" d="M77.06,102.71c-.22,0-.42-.08-.58-.23-.16-.15-.24-.34-.24-.55s.08-.41.24-.56.35-.23.58-.23.42.08.58.23.25.34.25.56-.08.4-.25.55c-.16.15-.36.23-.58.23ZM76.48,112.32v-8.19h1.15v8.19h-1.15Z"/>
      <path class="cls-2" d="M80.04,112.32v-8.19h1.12v1.85s-.1,0-.1,0c.11-.45.29-.82.53-1.11s.53-.51.86-.66c.33-.14.67-.22,1.02-.22.6,0,1.08.18,1.46.55.38.37.62.86.73,1.47h-.17c.1-.42.28-.78.53-1.08.26-.3.57-.53.94-.7s.77-.24,1.2-.24c.48,0,.91.1,1.3.31.39.21.7.52.92.94.23.42.34.94.34,1.56v5.52h-1.16v-5.49c0-.62-.17-1.08-.51-1.36-.34-.28-.75-.43-1.23-.43-.38,0-.71.08-.99.24s-.5.38-.66.67c-.16.28-.23.62-.23,1v5.37h-1.15v-5.6c0-.51-.16-.92-.48-1.22s-.72-.46-1.22-.46c-.34,0-.66.08-.96.24-.3.16-.53.39-.71.7-.18.31-.27.68-.27,1.12v5.21h-1.15Z"/>
      <path class="cls-2" d="M95.95,112.43c-.56,0-1.04-.11-1.46-.34-.42-.23-.74-.57-.98-1.02s-.35-1.01-.35-1.68v-5.25h1.15v5.16c0,.65.18,1.16.53,1.53.36.37.83.56,1.43.56.42,0,.78-.09,1.11-.27.32-.18.58-.44.77-.77.19-.34.28-.74.28-1.21v-5h1.16v8.19h-1.12v-1.95h.16c-.24.74-.6,1.27-1.07,1.58-.48.31-1.01.47-1.62.47Z"/>
      <path class="cls-2" d="M103.16,101.41v10.91h-1.15v-10.91h1.15Z"/>
      <path class="cls-2" d="M108.37,112.43c-.56,0-1.04-.11-1.46-.34-.42-.23-.74-.57-.98-1.02s-.35-1.01-.35-1.68v-5.25h1.15v5.16c0,.65.18,1.16.53,1.53.36.37.83.56,1.43.56.42,0,.78-.09,1.11-.27.32-.18.58-.44.77-.77.19-.34.28-.74.28-1.21v-5h1.16v8.19h-1.12v-1.95h.16c-.24.74-.6,1.27-1.07,1.58-.48.31-1.01.47-1.62.47Z"/>
      <path class="cls-2" d="M117.11,112.5c-.55,0-1.03-.08-1.46-.25-.42-.16-.78-.41-1.05-.73-.28-.32-.46-.71-.56-1.17l1.1-.26c.12.47.34.82.68,1.04.34.23.76.34,1.28.34.59,0,1.06-.13,1.42-.4s.53-.58.53-.95c0-.31-.1-.56-.31-.77s-.52-.36-.95-.46l-1.35-.32c-.72-.17-1.26-.44-1.62-.81-.36-.37-.53-.83-.53-1.4,0-.46.13-.87.38-1.22.26-.35.6-.63,1.05-.83.44-.2.95-.3,1.52-.3.54,0,1,.08,1.38.24.38.16.69.39.94.68s.43.63.56,1.03l-1.05.27c-.12-.33-.32-.62-.6-.86s-.68-.37-1.22-.37-.94.12-1.28.36c-.34.24-.51.55-.51.93,0,.32.11.58.34.79.23.2.59.36,1.08.48l1.25.3c.72.17,1.25.44,1.6.8.35.36.53.82.53,1.38,0,.47-.13.89-.4,1.26-.27.37-.63.66-1.11.87-.47.21-1.02.31-1.64.31Z"/>
      <path class="cls-2" d="M123.18,112.41c-.24,0-.45-.09-.63-.26s-.26-.38-.26-.63.09-.45.26-.63.38-.26.63-.26.45.09.63.26c.17.17.26.38.26.63s-.09.45-.26.63c-.17.17-.38.26-.63.26Z"/>
    </g>
  </g>
</svg>