<?xml version="1.0" encoding="UTF-8"?>
<svg xmlns="http://www.w3.org/2000/svg" viewBox="0 0 141.73 141.73">
  <defs>
    <style>
      .cls-1 {
        fill: #fff9ee;
      }

      .cls-2 {
        fill: #fecc95;
      }

      .cls-3 {
        stroke: #fcb44a;
        stroke-linecap: round;
        stroke-linejoin: round;
        stroke-width: 1.83px;
      }

      .cls-3, .cls-4 {
        fill: none;
      }

      .cls-5 {
        fill: #f1f2f2;
      }

      .cls-6 {
        fill: #fff;
      }

      .cls-7 {
        fill: #55b6cf;
        stroke: #55b6cf;
        stroke-miterlimit: 10;
        stroke-width: .5px;
      }

      .cls-8 {
        fill: #f15b5c;
      }

      .cls-9 {
        fill: #234c89;
      }
    </style>
  </defs>
  <g id="Bottom_BGS" data-name="Bottom BGS">
    <path class="cls-7" d="M16.1,58.25c.09-.76.23-1.53.44-2.28.2-.75.46-1.49.77-2.23,3.4-7.87,12.21-11.62,18.52-17.43,3.6-3.31,6.43-7.36,9.84-10.85,1.84-1.88,3.85-3.55,6.01-5.01l.38-.25c.66-.44,1.33-.86,2.02-1.26h0c.58-.34,1.16-.66,1.76-.96.1-.06.2-.12.31-.17.84-.43,1.69-.83,2.56-1.2.39-.17.79-.33,1.19-.48,5.08-2.01,10.57-3.08,16.07-3.21.49-.02.99-.02,1.47-.01,0,0,0,0,.01,0,.07,0,.13,0,.2,0,.13,0,.28,0,.41,0,.17,0,.33,0,.5.02.42,0,.85.03,1.27.05.95.05,1.9.13,2.84.24.53.06,1.06.14,1.59.22,1.31.19,2.6.45,3.89.75,1.27.3,2.53.65,3.76,1.05,1.6.53,3.17,1.14,4.7,1.85.56.26,1.12.53,1.66.81.57.29,1.13.6,1.68.91,1.49.85,2.92,1.81,4.29,2.84,1.09.83,2.14,1.71,3.14,2.66.14.13.29.28.43.41,8.44,8.22,13.22,19.47,16.69,30.73.29.94.51,1.86.7,2.76,5.54-.92,11.05-1.98,16.53-3.19V0H0v57.59c5.31.82,10.64,1.56,16,2.2.02-.51.04-1.03.11-1.54Z"/>
  </g>
  <g id="Elements">
    <g>
      <g>
        <path class="cls-9" d="M34.42,18.73h75.89c2.41,0,4.37,1.96,4.37,4.37v54.6c0,2.41-1.96,4.37-4.37,4.37H34.42c-2.41,0-4.37-1.96-4.37-4.37V23.09c0-2.41,1.96-4.37,4.37-4.37Z"/>
        <rect class="cls-6" x="35.16" y="23.53" width="71.29" height="52.8"/>
        <path class="cls-1" d="M108.6,50.39c0-1.16.94-2.09,2.09-2.09s2.09.94,2.09,2.09-.94,2.09-2.09,2.09-2.09-.94-2.09-2.09Z"/>
      </g>
      <g>
        <path class="cls-3" d="M46,48.59c1.16-3.38,4.84-5.17,8.22-4.01,3.38,1.16,5.17,4.84,4.01,8.22"/>
        <path class="cls-3" d="M43.21,47.63c1.69-4.92,7.05-7.54,11.97-5.85,4.92,1.69,7.54,7.05,5.85,11.97"/>
        <g>
          <path class="cls-2" d="M25.01,79.73c.43-6.18.23-12.46,2.69-17.86,1.67-3.66,5.7-1.58,5.7-1.58,0,0,.93-2.26,2.87-2.06,1.93.2,2.71,1.51,2.71,1.51,3.07-3.12,5.74.25,5.74.25l.54-1.4c.04-.11.15-.46.39-1.07.74-2.14,1.27-3.44,2.07-5.57.36-.95.84-1.87,1.4-2.71.84-1.25,2.49-1.68,3.91-1.14,1.43.54,2.29,1.82,2.08,3.38-.13.97-.43,1.94-.79,2.86-1.78,4.53-3.6,9.04-5.41,13.55-.12.29-.22.58-.33.87.05.06.11.12.16.17.32-.14.66-.25.96-.43,1.58-.93,3.24-1.51,5.11-1.07.14.03.29.05.43.09,2.26.62,2.9,2.63,1.3,4.34-1.18,1.25-2.58,2.1-3.84,3.26-4.11,3.78-6.24,6.98-8.48,10.85"/>
          <path class="cls-8" d="M41.75,93.67l-19.33-6.64c-.16-.06-.24-.34-.23-.78.02-.78.29-2.07.77-3.47h0c.45-1.31.98-2.42,1.43-3.07.31-.44.57-.68.76-.61l19.33,6.64c.23.08.28.59.18,1.36-.1.77-.35,1.79-.72,2.89h0c-.38,1.1-.81,2.06-1.2,2.72s-.75,1.04-.98.96Z"/>
        </g>
      </g>
    </g>
  </g>
  <g id="Top_BGS" data-name="Top BGS">
    <path class="cls-7" d="M125.2,58.21c3.65,17.57-11.58,27.97-28.85,28.36-.34,0-.68.01-1.02.01-8.27,0-16.65-1.52-24.78-.64-1.61.17-3.21.44-4.8.83-.67.16-1.35.36-2.02.57-.01,0-.02,0-.03,0-1.7.52-3.37,1.14-5.04,1.76-.8.3-1.61.6-2.41.88-3.33,1.18-6.68,2.15-10.19,2.1-7.43-.12-14-4.83-19.24-10.08-1.2-1.21-2.37-2.51-3.47-3.87-1.23-1.52-2.36-3.15-3.36-4.82-2.54-4.27-4.15-8.94-3.99-13.53-5.35-.64-10.69-1.37-16-2.2v84.14h141.73V55.02c-5.48,1.21-10.99,2.27-16.53,3.19Z"/>
  </g>
  <g id="Texts">
    <g>
      <rect class="cls-4" x="0" y="87.41" width="141.73" height="54.32"/>
      <path class="cls-5" d="M51.95,110.67h-3.06c-.45,0-.67-.22-.67-.66v-.45c0-.43.22-.67.67-.67h8.16c.43,0,.66.24.66.67v.45c0,.43-.22.66-.66.66h-3.06v8.92c0,.45-.22.67-.67.67h-.72c-.43,0-.66-.22-.66-.67v-8.92Z"/>
      <path class="cls-5" d="M61.74,115.21h.34v-.19c0-1.07-.69-1.44-1.52-1.44-.69,0-1.31.26-1.7.46-.4.18-.7.11-.9-.27l-.16-.3c-.19-.37-.13-.69.26-.9.53-.27,1.46-.67,2.67-.67,2.11,0,3.38,1.18,3.38,3.25v4.43c0,.45-.22.67-.67.67h-.54c-.43,0-.66-.22-.66-.67v-.32c0-.22.03-.35.03-.35h-.03s-.77,1.54-2.56,1.54c-1.49,0-2.71-.96-2.71-2.45,0-2.38,2.95-2.79,4.77-2.79ZM60.22,118.89c1.14,0,1.87-1.15,1.87-2.14v-.3h-.34c-1.02,0-2.77.16-2.77,1.38,0,.54.42,1.07,1.23,1.07Z"/>
      <path class="cls-5" d="M66,109.56c0-.43.24-.67.67-.67h.69c.45,0,.67.24.67.67v2.96c0,.4-.05.69-.05.69h.03s.72-1.31,2.5-1.31c2.16,0,3.6,1.75,3.6,4.26s-1.62,4.29-3.73,4.29c-1.84,0-2.5-1.38-2.5-1.38h-.03s.03.13.03.35v.26c0,.35-.22.58-.67.58h-.54c-.43,0-.67-.22-.67-.67v-10.02ZM69.98,118.73c1.14,0,2.06-.91,2.06-2.53s-.83-2.56-2.02-2.56c-1.06,0-2.06.78-2.06,2.53,0,1.33.69,2.56,2.02,2.56Z"/>
      <path class="cls-5" d="M75.63,109.56c0-.43.22-.67.66-.67h.7c.43,0,.66.24.66.67v7.99c0,.8.34.94.64.98.29.03.5.21.5.58v.54c0,.42-.19.69-.67.69-1.09,0-2.48-.29-2.48-2.62v-8.15Z"/>
      <path class="cls-5" d="M83.76,111.9c2.32,0,3.62,1.65,3.62,3.89,0,.35-.3.69-.7.69h-4.98c.13,1.47,1.22,2.24,2.45,2.24.75,0,1.38-.29,1.76-.53.4-.19.69-.14.9.22l.19.32c.19.37.13.69-.22.9-.53.34-1.49.82-2.77.82-2.71,0-4.39-1.95-4.39-4.27,0-2.51,1.7-4.27,4.15-4.27ZM85.36,115.24c-.03-1.14-.72-1.81-1.65-1.81-1.04,0-1.78.72-1.97,1.81h3.62Z"/>
      <path class="cls-5" d="M89.24,113.82h-.43c-.43,0-.66-.22-.66-.67v-.27c0-.43.22-.67.67-.67h.46v-1.66c0-.43.24-.67.67-.67h.64c.43,0,.67.24.67.67v1.66h1.18c.43,0,.67.24.67.67v.27c0,.45-.24.67-.66.67h-1.2v3.17c0,1.22.75,1.46,1.31,1.52.5.05.67.21.67.66v.5c0,.48-.27.67-.83.67-1.46,0-3.18-.78-3.18-2.99v-3.52Z"/>
    </g>
  </g>
</svg>