<?xml version="1.0" encoding="UTF-8"?>
<svg xmlns="http://www.w3.org/2000/svg" viewBox="0 0 141.73 141.73">
  <defs>
    <style>
      .cls-1 {
        fill: #f1f2f2;
      }

      .cls-2 {
        fill: #fffcfc;
      }

      .cls-3 {
        fill: none;
      }

      .cls-4 {
        fill: #1f3a6e;
        stroke: #1f3a6e;
        stroke-miterlimit: 10;
        stroke-width: .5px;
      }

      .cls-5 {
        fill: #fafcfe;
      }

      .cls-6 {
        fill: #fcfdfe;
      }

      .cls-7 {
        fill: #f15b5c;
      }

      .cls-8 {
        fill: #a1b860;
      }
    </style>
  </defs>
  <g id="Bottom_BGS" data-name="Bottom BGS">
    <path class="cls-4" d="M21.18,38.6c.47-18.96,18.13-24.44,34.47-19.35.31.1.61.19.92.3,7.38,2.49,14.42,6.35,21.94,8,1.49.33,3,.57,4.54.69.65.05,1.31.08,1.97.1.01,0,.02,0,.03,0,1.67.04,3.35-.01,5.03-.06.81-.03,1.62-.05,2.42-.07,3.33-.06,6.61.08,9.73,1.18,6.6,2.33,11.05,8.51,14.17,14.77.71,1.44,1.37,2.95,1.94,4.5.64,1.73,1.17,3.52,1.56,5.31.52,2.43.77,4.88.67,7.25,7.07-.63,14.12-1.29,21.17-1.89V0H0v58.14c7.81,1.93,15.67,3.36,23.57,4.39-2.16-7.67-2.59-15.9-2.39-23.92Z"/>
  </g>
  <g id="Elements">
    <g>
      <path class="cls-8" d="M102.89,71.74c-.36,1.33-.93,2.53-2.1,3.36-.9.64-1.89.98-2.98.99-1.14.02-2.28.02-3.42,0-.39,0-.47.09-.42.5.27,2.18.5,4.37.74,6.56.03.31.05.63.06.94.03.57-.2,1-.73,1.22-.51.22-1,.15-1.41-.24-.46-.43-.9-.89-1.34-1.33-2.36-2.36-4.74-4.72-7.08-7.1-.41-.42-.82-.56-1.4-.56-8.57.02-17.15-.03-25.72.04-3.21.03-5.59-2.4-5.55-5.56.09-7.12.03-14.24.04-21.36.31-.01.63-.04.94-.04,7.21,0,14.43-.04,21.64.01,3.8.03,5.85-2.84,5.64-5.67-.08-1.11,0-2.22.01-3.34,5.8,0,11.6,0,17.41.01,3.06,0,4.68,1.2,5.58,4.13.01.04.06.07.09.1v27.33ZM95.18,58.14c0-2.13-1.68-3.84-3.8-3.85-2.16-.01-3.9,1.69-3.9,3.83,0,2.14,1.75,3.88,3.88,3.87,2.1-.01,3.82-1.74,3.82-3.85ZM59.27,58.02c-.03,2.18,1.64,3.93,3.77,3.96,2.11.04,3.91-1.72,3.93-3.83.01-2.11-1.69-3.85-3.79-3.87-2.15-.02-3.88,1.64-3.9,3.74ZM77.26,54.29c-2.17-.01-3.88,1.68-3.88,3.84,0,2.11,1.7,3.84,3.81,3.86,2.12.02,3.89-1.73,3.89-3.86,0-2.11-1.71-3.83-3.82-3.84ZM99.07,68.46c0-.85.03-1.69,0-2.54-.04-.85-.65-1.43-1.37-1.39-.72.04-1.2.6-1.2,1.45,0,.97-.04,1.94.01,2.9.03.62-.11.86-.78.82-.96-.06-1.93-.02-2.9-.01-.24,0-.48,0-.71.11-.57.28-.81.74-.74,1.36.08.63.59,1.09,1.33,1.11,1.67.03,3.34.04,5.01,0,.87-.02,1.34-.56,1.37-1.47.03-.77,0-1.55,0-2.32Z"/>
      <path class="cls-7" d="M79.81,40.16c0,1.11-.1,2.23-.01,3.34.21,2.83-1.84,5.7-5.64,5.67-7.21-.05-14.43-.02-21.64-.01-.31,0-.63.03-.94.04-1.16-.01-2.32,0-3.49-.04-.4-.01-.61.23-.85.47-2.69,2.69-5.38,5.38-8.07,8.07-.15.15-.3.32-.47.45-.43.35-.9.47-1.42.21-.51-.26-.76-.67-.71-1.24.16-1.64.34-3.27.51-4.91.09-.84.15-1.69.29-2.52.08-.47-.09-.52-.48-.53-1.28-.02-2.57.09-3.85-.06-2.68-.32-4.58-2.42-4.59-5.12-.01-5.09,0-10.18,0-15.26,0-3.29,0-6.59,0-9.88,0-3.52,2.12-5.63,5.67-5.64,9.13,0,18.27,0,27.4,0,4.29,0,8.58-.01,12.87,0,2.76.01,4.8,1.65,5.31,4.23.09.45.08.91.08,1.37,0,6.83,0,13.66,0,20.5,0,.29.02.58.02.87ZM72.08,31.18c0-2.12-1.69-3.85-3.8-3.87-2.12-.02-3.9,1.74-3.91,3.85,0,2.09,1.71,3.83,3.81,3.87,2.13.04,3.88-1.7,3.89-3.85ZM36.16,31.19c0,2.11,1.71,3.82,3.82,3.85,2.11.02,3.88-1.75,3.88-3.87,0-2.1-1.73-3.83-3.83-3.85-2.13-.02-3.87,1.73-3.87,3.87ZM57.96,31.17c0-2.14-1.76-3.89-3.88-3.86-2.11.03-3.82,1.76-3.82,3.86,0,2.1,1.71,3.83,3.82,3.86,2.12.03,3.88-1.72,3.88-3.86Z"/>
      <path class="cls-6" d="M95.18,58.14c0,2.11-1.72,3.84-3.82,3.85-2.13.01-3.88-1.73-3.88-3.87,0-2.14,1.74-3.84,3.9-3.83,2.12.01,3.8,1.72,3.8,3.85Z"/>
      <path class="cls-6" d="M59.27,58.02c.03-2.1,1.76-3.76,3.9-3.74,2.1.02,3.81,1.76,3.79,3.87-.01,2.11-1.81,3.87-3.93,3.83-2.13-.04-3.8-1.78-3.77-3.96Z"/>
      <path class="cls-6" d="M77.26,54.29c2.11,0,3.82,1.73,3.82,3.84,0,2.13-1.77,3.88-3.89,3.86-2.1-.02-3.81-1.75-3.81-3.86,0-2.16,1.71-3.85,3.88-3.84Z"/>
      <path class="cls-5" d="M99.07,68.46c0,.77.02,1.55,0,2.32-.03.91-.5,1.45-1.37,1.47-1.67.04-3.34.03-5.01,0-.74-.01-1.25-.48-1.33-1.11-.08-.62.17-1.08.74-1.36.23-.11.47-.1.71-.11.97,0,1.94-.05,2.9.01.67.04.82-.2.78-.82-.05-.97-.02-1.93-.01-2.9,0-.85.49-1.41,1.2-1.45.72-.04,1.33.54,1.37,1.39.04.84,0,1.69,0,2.54Z"/>
      <path class="cls-2" d="M72.08,31.18c0,2.15-1.76,3.89-3.89,3.85-2.1-.04-3.82-1.78-3.81-3.87,0-2.12,1.79-3.88,3.91-3.85,2.11.02,3.8,1.75,3.8,3.87Z"/>
      <path class="cls-2" d="M36.16,31.19c0-2.14,1.74-3.89,3.87-3.87,2.1.02,3.83,1.75,3.83,3.85,0,2.13-1.77,3.89-3.88,3.87-2.11-.02-3.82-1.74-3.82-3.85Z"/>
      <path class="cls-2" d="M57.96,31.17c0,2.14-1.76,3.89-3.88,3.86-2.11-.03-3.82-1.76-3.82-3.86,0-2.1,1.71-3.83,3.82-3.86,2.12-.03,3.88,1.72,3.88,3.86Z"/>
    </g>
  </g>
  <g id="Top_BGS" data-name="Top BGS">
    <path class="cls-4" d="M120.57,61.22c-.11,2.6-.63,5.1-1.72,7.38-.31.66-.67,1.29-1.08,1.9-.4.61-.86,1.19-1.36,1.76-5.39,6.01-14.39,6.72-21.76,10.02-4.2,1.88-7.95,4.65-12.04,6.74-2.2,1.13-4.5,2.02-6.87,2.67l-.41.11c-.72.2-1.45.37-2.18.52h0c-.62.13-1.23.24-1.86.33-.11.03-.22.04-.33.05-.88.13-1.76.23-2.65.31-.4.03-.8.06-1.21.08-5.14.27-10.36-.41-15.32-1.95-.44-.13-.89-.28-1.32-.43,0,0,0,0-.01,0-.06-.01-.12-.04-.18-.06-.12-.04-.25-.08-.36-.12-.15-.05-.3-.1-.44-.16-.38-.13-.75-.28-1.12-.43-.83-.33-1.66-.69-2.47-1.06-.46-.21-.91-.44-1.36-.67-1.11-.56-2.19-1.18-3.25-1.83-1.05-.64-2.06-1.33-3.05-2.07-1.27-.95-2.49-1.97-3.64-3.06-.42-.4-.84-.81-1.24-1.23-.42-.43-.83-.87-1.23-1.32-1.08-1.21-2.07-2.49-2.98-3.83-.72-1.07-1.39-2.17-2-3.32-.09-.16-.18-.33-.26-.5-1.4-2.73-2.48-5.59-3.3-8.52-7.9-1.02-15.76-2.45-23.57-4.39v83.59h141.73V59.33c-7.04.6-14.1,1.25-21.17,1.89Z"/>
  </g>
  <g id="Texts">
    <g>
      <rect class="cls-3" x="0" y="94.41" width="141.73" height="54.32"/>
      <path class="cls-1" d="M19.07,115.7c1.86,0,3.1.7,3.71,1.14.34.26.35.58.13.93l-.29.46c-.22.37-.53.4-.91.16-.5-.32-1.39-.8-2.56-.8-2.48,0-3.81,1.81-3.81,3.91s1.38,4.07,3.83,4.07c1.28,0,2.26-.61,2.79-.99.35-.26.67-.26.93.11l.32.43c.24.32.22.66-.1.93-.64.51-2,1.41-4.02,1.41-3.57,0-5.87-2.58-5.87-5.92s2.42-5.83,5.86-5.83Z"/>
      <path class="cls-1" d="M28.68,118.9c2.48,0,4.5,1.78,4.5,4.27s-2.02,4.27-4.5,4.27-4.48-1.76-4.48-4.27,2-4.27,4.48-4.27ZM28.68,125.72c1.33,0,2.43-1.02,2.43-2.54s-1.1-2.54-2.43-2.54-2.42,1.04-2.42,2.54,1.09,2.54,2.42,2.54Z"/>
      <path class="cls-1" d="M34.67,119.76c0-.43.22-.67.66-.67h.62c.43,0,.66.24.66.67v.5c0,.18-.03.37-.03.37h.03c.4-.8,1.39-1.73,2.67-1.73s2.05.58,2.38,1.68h.03c.43-.85,1.5-1.68,2.79-1.68,1.7,0,2.67.96,2.67,3.11v4.58c0,.45-.24.67-.67.67h-.69c-.45,0-.67-.22-.67-.67v-4.19c0-.93-.18-1.63-1.12-1.63-1.38,0-2.08,1.41-2.08,2.83v2.99c0,.45-.22.67-.66.67h-.71c-.43,0-.67-.22-.67-.67v-4.19c0-.88-.13-1.63-1.09-1.63-1.44,0-2.11,1.47-2.11,2.83v2.99c0,.45-.22.67-.66.67h-.7c-.43,0-.66-.22-.66-.67v-6.82Z"/>
      <path class="cls-1" d="M49.04,119.76c0-.43.22-.67.66-.67h.62c.43,0,.66.24.66.67v.5c0,.18-.03.37-.03.37h.03c.4-.8,1.39-1.73,2.67-1.73s2.05.58,2.38,1.68h.03c.43-.85,1.5-1.68,2.79-1.68,1.7,0,2.67.96,2.67,3.11v4.58c0,.45-.24.67-.67.67h-.69c-.45,0-.67-.22-.67-.67v-4.19c0-.93-.18-1.63-1.12-1.63-1.38,0-2.08,1.41-2.08,2.83v2.99c0,.45-.22.67-.66.67h-.71c-.43,0-.67-.22-.67-.67v-4.19c0-.88-.13-1.63-1.09-1.63-1.44,0-2.11,1.47-2.11,2.83v2.99c0,.45-.22.67-.66.67h-.7c-.43,0-.66-.22-.66-.67v-6.82Z"/>
      <path class="cls-1" d="M63.29,119.76c0-.43.24-.67.67-.67h.69c.45,0,.67.24.67.67v4.16c0,.99.26,1.67,1.26,1.67,1.47,0,2.29-1.3,2.29-2.75v-3.07c0-.43.22-.67.67-.67h.69c.43,0,.67.24.67.67v6.82c0,.45-.24.67-.67.67h-.62c-.43,0-.66-.22-.66-.67v-.48c0-.19.03-.37.03-.37h-.03c-.38.83-1.44,1.71-2.83,1.71-1.75,0-2.83-.88-2.83-3.1v-4.58Z"/>
      <path class="cls-1" d="M72.91,119.76c0-.43.22-.67.66-.67h.62c.43,0,.66.24.66.67v.5c0,.18-.03.37-.03.37h.03c.35-.69,1.25-1.73,2.9-1.73,1.81,0,2.85.94,2.85,3.11v4.58c0,.45-.22.67-.67.67h-.69c-.43,0-.67-.22-.67-.67v-4.16c0-.99-.26-1.66-1.28-1.66-1.44,0-2.35,1.2-2.35,2.67v3.15c0,.45-.22.67-.66.67h-.7c-.43,0-.66-.22-.66-.67v-6.82Z"/>
      <path class="cls-1" d="M82.49,117.04v-.48c0-.43.22-.67.66-.67h.7c.43,0,.67.24.67.67v.48c0,.43-.24.66-.67.66h-.7c-.43,0-.66-.22-.66-.66ZM82.49,119.76c0-.43.22-.67.66-.67h.7c.43,0,.66.24.66.67v6.82c0,.45-.22.67-.66.67h-.7c-.43,0-.66-.22-.66-.67v-6.82Z"/>
      <path class="cls-1" d="M90.44,118.9c1.31,0,2.19.48,2.67.82.34.22.35.56.13.91l-.21.32c-.24.37-.51.37-.9.18-.34-.22-.88-.5-1.58-.5-1.5,0-2.48,1.14-2.48,2.53s.98,2.56,2.55,2.56c.8,0,1.44-.35,1.82-.62.4-.22.7-.18.91.21l.16.3c.19.35.14.67-.18.9-.5.37-1.49.94-2.9.94-2.71,0-4.43-1.9-4.43-4.27s1.73-4.27,4.43-4.27Z"/>
      <path class="cls-1" d="M99.15,122.21h.34v-.19c0-1.07-.69-1.44-1.52-1.44-.69,0-1.31.26-1.7.46-.4.18-.7.11-.9-.27l-.16-.3c-.19-.37-.13-.69.26-.9.53-.27,1.46-.67,2.67-.67,2.11,0,3.38,1.18,3.38,3.25v4.43c0,.45-.22.67-.67.67h-.54c-.43,0-.66-.22-.66-.67v-.32c0-.22.03-.35.03-.35h-.03s-.77,1.54-2.56,1.54c-1.49,0-2.71-.96-2.71-2.45,0-2.39,2.95-2.79,4.77-2.79ZM97.63,125.89c1.14,0,1.87-1.15,1.87-2.15v-.3h-.34c-1.02,0-2.77.16-2.77,1.38,0,.54.42,1.07,1.23,1.07Z"/>
      <path class="cls-1" d="M103.76,120.82h-.43c-.43,0-.66-.22-.66-.67v-.27c0-.43.22-.67.67-.67h.46v-1.66c0-.43.24-.67.67-.67h.64c.43,0,.67.24.67.67v1.66h1.18c.43,0,.67.24.67.67v.27c0,.45-.24.67-.66.67h-1.2v3.17c0,1.22.75,1.46,1.31,1.52.5.05.67.21.67.66v.5c0,.48-.27.67-.83.67-1.46,0-3.18-.78-3.18-2.99v-3.52Z"/>
      <path class="cls-1" d="M109.13,117.04v-.48c0-.43.22-.67.66-.67h.7c.43,0,.67.24.67.67v.48c0,.43-.24.66-.67.66h-.7c-.43,0-.66-.22-.66-.66ZM109.13,119.76c0-.43.22-.67.66-.67h.7c.43,0,.66.24.66.67v6.82c0,.45-.22.67-.66.67h-.7c-.43,0-.66-.22-.66-.67v-6.82Z"/>
      <path class="cls-1" d="M112.44,119.86c-.16-.46.03-.77.53-.77h.75c.38,0,.64.18.75.56l1.52,4.5c.16.48.3,1.23.3,1.23h.03s.13-.75.29-1.23l1.52-4.5c.11-.38.37-.56.75-.56h.75c.5,0,.7.3.54.77l-2.46,6.85c-.13.38-.37.54-.75.54h-1.28c-.38,0-.64-.16-.75-.54l-2.5-6.85Z"/>
      <path class="cls-1" d="M125.09,118.9c2.32,0,3.62,1.65,3.62,3.89,0,.35-.3.69-.7.69h-4.98c.13,1.47,1.22,2.24,2.45,2.24.75,0,1.38-.29,1.76-.53.4-.19.69-.14.9.22l.19.32c.19.37.13.69-.22.9-.53.34-1.49.82-2.77.82-2.71,0-4.39-1.95-4.39-4.27,0-2.51,1.7-4.27,4.15-4.27ZM126.69,122.24c-.03-1.14-.72-1.81-1.65-1.81-1.04,0-1.78.72-1.97,1.81h3.62Z"/>
    </g>
  </g>
</svg>