<?xml version="1.0" encoding="UTF-8"?>
<svg xmlns="http://www.w3.org/2000/svg" viewBox="0 0 141.73 141.73">
  <defs>
    <style>
      .cls-1 {
        fill: #6999d1;
      }

      .cls-2 {
        fill: #cd3e62;
      }

      .cls-3 {
        fill: #f7c295;
      }

      .cls-4 {
        fill: #ebeaee;
      }

      .cls-5 {
        fill: #f1f2f2;
      }

      .cls-6 {
        fill: none;
      }

      .cls-7 {
        fill: #f19f5d;
      }

      .cls-8 {
        fill: #f19f5e;
      }

      .cls-9 {
        fill: #1f3a6e;
        stroke: #1f3a6e;
        stroke-miterlimit: 10;
        stroke-width: .5px;
      }

      .cls-10 {
        fill: #e6a06b;
      }

      .cls-11 {
        fill: #eb5776;
      }

      .cls-12 {
        fill: #437fc1;
      }

      .cls-13 {
        fill: #e9ecf0;
      }

      .cls-14 {
        fill: #d27d42;
      }
    </style>
  </defs>
  <g id="Bottom_BGS" data-name="Bottom BGS">
    <path class="cls-9" d="M21.18,38.6c.47-18.96,18.13-24.44,34.47-19.35.31.1.61.19.92.3,7.38,2.49,14.42,6.35,21.94,8,1.49.33,3,.57,4.54.69.65.05,1.31.08,1.97.1.01,0,.02,0,.03,0,1.67.04,3.35-.01,5.03-.06.81-.03,1.62-.05,2.42-.07,3.33-.06,6.61.08,9.73,1.18,6.6,2.33,11.05,8.51,14.17,14.77.71,1.44,1.37,2.95,1.94,4.5.64,1.73,1.17,3.52,1.56,5.31.21.99.37,1.98.49,2.97,7.2-1.07,14.33-2.56,21.36-4.53V0H0v48.92c7.17,1.36,14.42,2.68,21.7,3.9-.54-4.71-.64-9.5-.52-14.22Z"/>
  </g>
  <g id="Elements">
    <g>
      <path class="cls-12" d="M120.57,65.34c.31.97.14,2.02.52,2.98v1.66c-.72,1.1-4.79.93-5.84,1.08-2.86.4-5.73.69-8.58,1.09-2.98.42-5.58-1.5-6-4.5-.05-.33-.13-.66-.2-.99.14-.63-.28-1.21-.13-1.84.12.1.26.18.35.3,1.26,1.69,3.01,2.28,5.02,2.07,3.01-.32,6.01-.69,9-1.11,1.01-.14,4.97-.08,5.86-.74Z"/>
      <path class="cls-3" d="M44.58,40.21c1.65.11,3.31.19,4.95.34.5.05.65-.22.82-.56.52-1.04,1.04-2.09,1.58-3.13,1.1-2.15,2.79-2.85,5.11-2.21,2.6.72,5.21,1.41,7.81,2.11-.24.39-.49.77-.72,1.16-1.19,2.04-2.39,4.08-3.57,6.12-1.94,3.35-3.9,6.68-5.8,10.05-.87,1.55-.28,3.05,1.41,3.58,3.45,1.09,6.61.61,9.25-2.05,1.45-1.46,2.58-3.2,3.83-4.82.57-.73.85-.59,1.4-.05,1.68,1.66,3.69,2.7,6.01,3.21.75.17,1.59,0,2.25.63.91.87,1.89,1.66,2.84,2.48,2.86,2.46,5.72,4.92,8.58,7.37.62.54,1.24,1.1,1.88,1.63.65.54,1.16,1.28,2.03,1.54.06.14.11.28.17.43.03.64.41,1.21.31,1.88-.26,1.75-1.46,2.77-2.8,3.68-.4.27-.78.24-1.21-.16-1.14-1.06-2.36-2.04-3.56-3.04-.74-.62-1.43-.58-2.02.08-.51.57-.47,1.27.11,1.87.32.33.64.67,1.02.93.45.31.47.59.13.97-.73.83-1.42,1.69-2.18,2.48-.57.59-1.17.64-1.83,0-.9-.88-1.88-1.67-2.84-2.48-.68-.58-1.39-.53-1.96.08-.61.66-.51,1.31.3,2.14.27.28.83.52.36,1.03-1,1.08-1.84,2.31-3.04,3.19-1.13.83-2.4.8-3.69.54.11-1.86-.92-3.69-3.24-3.97-.97-.12-1.75.38-2.64.88.35-1.78.18-3.33-1.43-4.28-1.73-1.03-3.28-.64-4.66.95-.02-.27-.05-.39-.03-.49.29-1.67-.31-3.05-1.62-3.74-1.51-.8-2.95-.58-4.2.64-.14.13-.27.25-.46.27l-.04-.03c0-.21,0-.43.01-.64.04-2.02-1.49-3.75-3.71-3.62-1.2.07-1.94.79-2.73,1.5-1.12-.29-2.28-.26-3.42-.35-.73-.06-1.45-.04-2.17-.22.08-.98.3-1.95.21-2.94h-.01c.16-.06.18-.2.15-.35,1.02-8.21,2.04-16.42,3.07-24.62Z"/>
      <path class="cls-7" d="M90.32,64.45c-2.86-2.46-5.72-4.92-8.58-7.37-.95-.82-1.94-1.61-2.84-2.48-.66-.64-1.5-.46-2.25-.63-2.31-.51-4.33-1.55-6.01-3.21-.54-.54-.83-.68-1.4.05-1.26,1.62-2.38,3.36-3.83,4.82-2.64,2.66-5.79,3.13-9.25,2.05-1.69-.53-2.28-2.03-1.41-3.58,1.9-3.37,3.86-6.7,5.8-10.05,1.19-2.04,2.38-4.08,3.57-6.12.23-.39.48-.78.72-1.16,1.42-1.71,3.41-1.9,5.42-2.07,3.12-.27,6.25-.51,9.35-.9,2.64-.33,5.08-.18,7.39,1.4,1.87,1.28,3.96,2.23,5.91,3.39.82.49,1.62.64,2.54.43.54-.12,1.1-.12,1.65-.17.14,1.13.28,2.25.42,3.37.46,3.77.95,7.53,1.39,11.3.28,2.46.71,4.91.85,7.39-1.22.13-2.45.19-3.64.43-.78.15-1.65-.07-2.34.38-1.23.8-2.41,1.68-3.46,2.71Z"/>
      <path class="cls-1" d="M99.77,60.93c-.14-2.48-.56-4.93-.85-7.39-.44-3.77-.92-7.54-1.39-11.3-.14-1.12-.28-2.25-.42-3.37-.32-1.88-.06-3.6,1.3-5.05,1.17-1.24,2.7-1.5,4.26-1.69,2.86-.36,5.73-.7,8.59-1.07,1.71-.23,6.11.23,6.32,1.94.72,5.94,1.46,11.88,2.19,17.82.59,4.84,1.16,9.69,1.75,14.54-.9.65-5.81.6-6.82.74-2.99.42-6,.79-9,1.11-2.01.21-3.76-.39-5.02-2.07-.09-.12-.23-.2-.35-.3-.19-1.3-.38-2.59-.57-3.89ZM112.05,63.33c0-1.5-1.21-2.64-2.75-2.62-1.48.02-2.65,1.19-2.63,2.64.01,1.4,1.26,2.65,2.66,2.68,1.41.03,2.73-1.28,2.73-2.7Z"/>
      <path class="cls-11" d="M44.58,40.21c-1.02,8.21-2.04,16.42-3.07,24.62-.14.08-.15.22-.15.36,0,0,.01,0,.01,0-.16,0-.28.08-.39.2-1.11,1.21-2.49,1.96-4.14,1.81-3.43-.33-6.85-.77-10.27-1.19-.84-.1-9.37-.03-10.07-.66.53-4.39,1.06-8.79,1.59-13.18.59-4.79,1.18-9.58,1.77-14.37.22-1.8.42-3.6.69-5.4.16-1.1,8.31-1.51,9.41-1.38,3.57.41,7.15.79,10.7,1.36,2.85.45,4.55,3.05,4.12,5.92-.1.64-.15,1.28-.22,1.92ZM29.69,63.32c0,1.52,1.19,2.72,2.69,2.7,1.41-.01,2.65-1.26,2.66-2.67.01-1.45-1.25-2.7-2.72-2.69-1.46.01-2.61,1.18-2.62,2.67Z"/>
      <path class="cls-8" d="M53.21,71.48c.2-.02.33-.14.46-.27,1.24-1.22,2.69-1.44,4.2-.64,1.31.69,1.91,2.07,1.62,3.74-.02.11.01.22.03.49,1.38-1.59,2.93-1.98,4.66-.95,1.61.96,1.78,2.51,1.43,4.28.89-.49,1.67-1,2.64-.88,2.32.29,3.35,2.11,3.24,3.97-.32.94-.86,1.74-1.44,2.54-.69.96-1.59,1.79-2.1,2.88-.77.61-1.52,1.24-2.58,1.27-2.35.07-3.99-1.83-3.56-4.16.03-.18.04-.36.07-.66-1.01.48-1.95.84-3.02.57-1.72-.44-2.84-2.05-2.58-3.82.03-.24.17-.51,0-.71-.19-.23-.39.02-.57.1-1.37.62-2.65.48-3.79-.49-1.12-.95-1.38-2.2-1.03-3.6.02-.08.02-.17.04-.3-.36-.12-.57.17-.83.28-1.41.61-3.02.27-4.03-.89-.98-1.13-1.09-2.71-.32-4.03.31-.53.81-.93,1-1.53.79-.71,1.53-1.43,2.73-1.5,2.22-.13,3.74,1.6,3.71,3.62,0,.21,0,.43-.01.64-.04.07-.09.14-.12.21,0,0,.04.04.06.05.03-.08.06-.16.1-.24Z"/>
      <path class="cls-10" d="M67.96,86.65c.52-1.09,1.41-1.91,2.1-2.88.58-.8,1.11-1.61,1.44-2.54,1.3.27,2.57.29,3.69-.54,1.2-.88,2.04-2.11,3.04-3.19.47-.51-.1-.75-.36-1.03-.81-.84-.91-1.49-.3-2.14.57-.61,1.27-.65,1.96-.08.96.81,1.94,1.6,2.84,2.48.67.65,1.27.59,1.83,0,.76-.79,1.45-1.66,2.18-2.48.34-.38.33-.66-.13-.97-.38-.26-.7-.6-1.02-.93-.59-.6-.62-1.31-.11-1.87.59-.66,1.28-.7,2.02-.08,1.2,1,2.42,1.98,3.56,3.04.43.4.81.43,1.21.16,1.34-.91,2.54-1.93,2.8-3.68.1-.68-.28-1.24-.31-1.88.94.7,1.84,1.44,2.65,2.28.87.91,1.14,2.02.58,3.14-1.08,2.17-3.35,4.01-6.18,2.41-.4-.23-.59-.11-.84.18-.7.82-1.41,1.62-2.13,2.43-1.39,1.57-3.23,1.92-5.06.9-.44-.25-.65-.14-.92.18-.68.79-1.37,1.58-2.05,2.37-1.4,1.62-3.25,1.96-5.11.89-.43-.25-.64-.14-.91.19-.67.8-1.35,1.59-2.04,2.38-1.25,1.44-2.71,1.86-4.43,1.27Z"/>
      <path class="cls-2" d="M24.14,65.35c.7.63,1.59.56,2.43.66,3.42.42,6.84.86,10.27,1.19,1.65.16,3.03-.6,4.14-1.81.11-.12.23-.2.39-.2.08.99-.14,1.96-.21,2.94-1.13,3.23-3.02,4.35-6.48,3.92-3.16-.4-6.33-.76-9.49-1.14-1.15-.14-1.66-.68-1.55-1.83.11-1.25.33-2.48.5-3.72Z"/>
      <path class="cls-14" d="M99.77,60.93c.19,1.3.38,2.59.57,3.89-.15.63.27,1.21.13,1.84-1.17,0-2.34.08-3.51,0-1.09-.08-1.99.18-2.74.96-.87-.26-1.37-1-2.03-1.54-.64-.53-1.25-1.08-1.88-1.63,1.05-1.04,2.23-1.91,3.46-2.71.69-.45,1.56-.22,2.34-.38,1.2-.23,2.43-.29,3.64-.43Z"/>
      <path class="cls-2" d="M41.37,65.19c0-.14.01-.28.15-.36.03.15.01.29-.15.36Z"/>
      <path class="cls-13" d="M112.05,63.33c0,1.42-1.31,2.73-2.73,2.7-1.4-.03-2.65-1.28-2.66-2.68-.02-1.45,1.15-2.62,2.63-2.64,1.55-.02,2.75,1.12,2.75,2.62Z"/>
      <path class="cls-4" d="M29.69,63.32c0-1.48,1.16-2.66,2.62-2.67,1.47-.01,2.74,1.24,2.72,2.69,0,1.42-1.25,2.66-2.66,2.67-1.5.01-2.69-1.19-2.69-2.7Z"/>
      <path class="cls-3" d="M53.21,71.48c-.03.08-.06.16-.1.24-.02-.02-.07-.05-.06-.05.04-.07.08-.14.12-.21,0,0,.04.03.04.03Z"/>
    </g>
  </g>
  <g id="Top_BGS" data-name="Top BGS">
    <path class="cls-9" d="M120.38,56.94c.5,4.1.15,8.15-1.54,11.66-.31.66-.67,1.29-1.08,1.9-.4.61-.86,1.19-1.36,1.76-5.39,6.01-14.39,6.72-21.76,10.02-4.2,1.88-7.95,4.65-12.04,6.74-2.2,1.13-4.5,2.02-6.87,2.67l-.41.11c-.72.2-1.45.37-2.18.52h0c-.62.13-1.23.24-1.86.33-.11.03-.22.04-.33.05-.88.13-1.76.23-2.65.31-.4.03-.8.06-1.21.08-5.14.27-10.36-.41-15.32-1.95-.44-.13-.89-.28-1.32-.43,0,0,0,0-.01,0-.06-.01-.12-.04-.18-.06-.12-.04-.25-.08-.36-.12-.15-.05-.3-.1-.44-.16-.38-.13-.75-.28-1.12-.43-.83-.33-1.66-.69-2.47-1.06-.46-.21-.91-.44-1.36-.67-1.11-.56-2.19-1.18-3.25-1.83-1.05-.64-2.06-1.33-3.05-2.07-1.27-.95-2.49-1.97-3.64-3.06-.42-.4-.84-.81-1.24-1.23-.42-.43-.83-.87-1.23-1.32-1.08-1.21-2.07-2.49-2.98-3.83-.72-1.07-1.39-2.17-2-3.32-.09-.16-.18-.33-.26-.5-2.91-5.67-4.45-11.88-5.17-18.23C14.42,51.6,7.17,50.28,0,48.92v92.82h141.73V52.41c-7.03,1.96-14.15,3.45-21.36,4.53Z"/>
    <path class="cls-9" d="M21.26,38.6c.47-18.96,18.13-24.44,34.47-19.35.31.1.61.19.92.3,7.38,2.49,14.42,6.35,21.94,8,1.49.33,3,.57,4.54.69.65.05,1.31.08,1.97.1.01,0,.02,0,.03,0,1.67.04,3.35-.01,5.03-.06.81-.03,1.62-.05,2.42-.07,3.33-.06,6.61.08,9.73,1.18,6.6,2.33,11.05,8.51,14.17,14.77.71,1.44,1.37,2.95,1.94,4.5.64,1.73,1.17,3.52,1.56,5.31.21.99.37,1.98.49,2.97,7.2-1.07,14.33-2.56,21.36-4.53V0H.08v48.92c7.17,1.36,14.42,2.68,21.7,3.9-.54-4.71-.64-9.5-.52-14.22Z"/>
  </g>
  <g id="Texts">
    <g>
      <rect class="cls-6" x="0" y="94.41" width="141.73" height="54.32"/>
      <path class="cls-5" d="M49.63,125.36l.35-.51c.26-.35.53-.37.93-.14.37.26,1.18.83,2.3.83,1.06,0,1.7-.53,1.7-1.3,0-2.16-5.3-1.71-5.3-5.25,0-2,1.66-3.3,3.83-3.3,1.34,0,2.45.51,2.93.86.35.26.4.56.21.91l-.29.53c-.24.46-.58.4-.91.22-.46-.27-1.09-.62-1.97-.62-1.06,0-1.73.51-1.73,1.28,0,2.13,5.3,1.58,5.3,5.2,0,1.84-1.38,3.36-3.76,3.36-1.62,0-2.93-.72-3.49-1.15-.26-.22-.42-.5-.1-.93Z"/>
      <path class="cls-5" d="M62.57,118.9c2.48,0,4.5,1.78,4.5,4.27s-2.02,4.27-4.5,4.27-4.48-1.76-4.48-4.27,2-4.27,4.48-4.27ZM62.57,125.72c1.33,0,2.43-1.02,2.43-2.54s-1.1-2.54-2.43-2.54-2.42,1.04-2.42,2.54,1.09,2.54,2.42,2.54Z"/>
      <path class="cls-5" d="M72.48,118.9c1.31,0,2.19.48,2.67.82.34.22.35.56.13.91l-.21.32c-.24.37-.51.37-.9.18-.34-.22-.88-.5-1.58-.5-1.5,0-2.48,1.14-2.48,2.53s.98,2.56,2.55,2.56c.8,0,1.44-.35,1.82-.62.4-.22.7-.18.91.21l.16.3c.19.35.14.67-.18.9-.5.37-1.49.94-2.9.94-2.71,0-4.43-1.9-4.43-4.27s1.73-4.27,4.43-4.27Z"/>
      <path class="cls-5" d="M77.03,117.04v-.48c0-.43.22-.67.66-.67h.7c.43,0,.67.24.67.67v.48c0,.43-.24.66-.67.66h-.7c-.43,0-.66-.22-.66-.66ZM77.03,119.76c0-.43.22-.67.66-.67h.7c.43,0,.66.24.66.67v6.82c0,.45-.22.67-.66.67h-.7c-.43,0-.66-.22-.66-.67v-6.82Z"/>
      <path class="cls-5" d="M85.21,122.21h.34v-.19c0-1.07-.69-1.44-1.52-1.44-.69,0-1.31.26-1.7.46-.4.18-.7.11-.9-.27l-.16-.3c-.19-.37-.13-.69.26-.9.53-.27,1.46-.67,2.67-.67,2.11,0,3.38,1.18,3.38,3.25v4.43c0,.45-.22.67-.67.67h-.54c-.43,0-.66-.22-.66-.67v-.32c0-.22.03-.35.03-.35h-.03s-.77,1.54-2.56,1.54c-1.49,0-2.71-.96-2.71-2.45,0-2.39,2.95-2.79,4.77-2.79ZM83.69,125.89c1.14,0,1.87-1.15,1.87-2.15v-.3h-.34c-1.02,0-2.77.16-2.77,1.38,0,.54.42,1.07,1.23,1.07Z"/>
      <path class="cls-5" d="M89.45,116.56c0-.43.22-.67.66-.67h.7c.43,0,.66.24.66.67v7.99c0,.8.34.94.64.98.29.03.5.21.5.58v.54c0,.42-.19.69-.67.69-1.09,0-2.48-.29-2.48-2.62v-8.15Z"/>
    </g>
  </g>
</svg>