<?xml version="1.0" encoding="UTF-8"?>
<svg xmlns="http://www.w3.org/2000/svg" viewBox="0 0 141.73 141.73">
  <defs>
    <style>
      .cls-1 {
        fill: #ddf1f5;
      }

      .cls-2 {
        fill: #d88a7a;
      }

      .cls-3 {
        fill: #fddfd0;
      }

      .cls-4 {
        fill: #f1f2f2;
      }

      .cls-5 {
        fill: none;
      }

      .cls-6 {
        fill: #1f3a6e;
        stroke: #1f3a6e;
        stroke-miterlimit: 10;
        stroke-width: .5px;
      }

      .cls-7 {
        fill: #eb9d8e;
      }

      .cls-8 {
        fill: #f59595;
      }

      .cls-9 {
        fill: #fccec0;
      }

      .cls-10 {
        fill: #d78978;
      }

      .cls-11 {
        fill: #f27c7c;
      }

      .cls-12 {
        fill: #037498;
      }

      .cls-13 {
        fill: #ffe5c3;
      }

      .cls-14 {
        fill: #abdfea;
      }
    </style>
  </defs>
  <g id="Bottom_BGS" data-name="Bottom BGS">
    <path class="cls-6" d="M36.17,38.23c.31-.16.62-.32.94-.48,7.64-3.79,16.08-6.25,23.18-10.8,1.41-.9,2.76-1.88,4.04-2.97.55-.47,1.08-.95,1.61-1.45.01,0,.02-.01.03-.02,1.32-1.26,2.58-2.61,3.84-3.94.61-.65,1.21-1.29,1.82-1.93,2.54-2.62,5.18-5.06,8.45-6.62,6.92-3.31,15.14-1.97,22.4.47,1.66.56,3.34,1.22,4.99,1.98,1.83.85,3.63,1.82,5.31,2.91,4.79,3.09,8.76,7.15,10.51,12.13.27.75.48,1.52.64,2.31.16.78.26,1.59.31,2.41.48,8.83-5.94,16.35-9.1,24.61-.49,1.29-.9,2.61-1.28,3.94,9.3-1.09,18.59-2.44,27.85-3.99V0H0v57.72c5.89,1.21,11.79,2.22,17.7,3.05,1.4-9.06,8.69-17.4,18.47-22.54Z"/>
  </g>
  <g id="Elements">
    <path class="cls-13" d="M42.32,28.02c2.61-.5,5.21,1.59,5.73,4.61.4,2.29.94,4.55,1.47,6.81.46,1.96,1.78,3.27,3.46,4.25,1.48.86,2.65,2,3.46,3.52,1.11,2.1-.04,4.29-2.42,4.52-.88.09-1.75.17-2.63.22-1.63.09-2.8.94-3.66,2.23-1.35,2.03-3.98,2.45-5.84.89-.42-.35-.81-.74-1.25-1.06-.85-.63-1.8-.95-2.89-.91-1.33.05-2.65.45-3.98.16-1.78-.4-2.69-2.01-2.17-3.76.5-1.67,1.44-3.06,2.79-4.17,1.89-1.55,2.89-3.49,2.89-5.99,0-2.23.23-4.46.3-6.69.07-2.12,2.08-4.69,4.73-4.64Z"/>
    <g>
      <path class="cls-8" d="M106.84,84.57c-.55.85-1,1.75-1.3,2.72-.32,1.02-.9,1.87-1.8,2.48-.58-.71-1.26-1.36-1.71-2.15-2.48-4.35-4.87-8.74-7.34-13.09-2.49-4.4-1.17-10.02,3.55-12.79.28-.16.6-.23.57-.65,1.88.37,3.29,1.56,4.74,2.69,3.52,2.74,7.03,5.5,10.53,8.26,1.84,1.45,2.78,3.3,2.19,5.67-.6,2.43-2.26,3.73-4.7,4.09-.86.12-1.67.39-2.43.8-1.93-2.27-3.87-4.53-5.81-6.8-1.65-1.93-3.29-3.86-4.95-5.78-.74-.85-1.54-.94-2.29-.28-.77.67-.72,1.43.23,2.55,3.5,4.1,7.01,8.18,10.52,12.27Z"/>
      <path class="cls-11" d="M98.8,61.09c.03.41-.3.48-.57.65-4.71,2.77-6.04,8.39-3.55,12.79,2.47,4.35,4.86,8.74,7.34,13.09.45.79,1.14,1.44,1.71,2.15-2.45,2.06-6.3,1.18-7.97-1.8-2.46-4.42-4.98-8.81-7.4-13.25-1.87-3.43-1.75-6.89.54-10.05,2.33-3.22,5.61-4.41,9.54-3.7.12.02.24.09.35.13Z"/>
      <path class="cls-11" d="M106.84,84.57c-3.51-4.09-7.02-8.18-10.52-12.27-.95-1.11-1-1.88-.23-2.55.75-.66,1.56-.57,2.29.28,1.66,1.92,3.3,3.85,4.95,5.78,1.94,2.26,3.87,4.53,5.81,6.8-.9.5-1.62,1.2-2.3,1.97Z"/>
    </g>
    <g>
      <path class="cls-7" d="M61.15,67.87c3.45,1.64,4.97,5.71,3.38,9.38-1.76,4.08-3.57,8.15-5.47,12.16-1.24,2.62-3.29,4.52-5.99,5.61-1.28.51-2.13,1.34-2.65,2.6-.52,1.26-1.1,2.49-1.67,3.73-.56,1.22-1.16,1.5-2.39.96-3.05-1.33-6.08-2.68-9.1-4.08-1.25-.58-1.45-1.29-.92-2.55.44-1.03.84-2.09,1.39-3.06.97-1.71.91-3.35.18-5.16-1.77-4.38-3.39-8.82-5.07-13.24-.72-1.89-.31-2.8,1.61-3.52.9-.34,1.76-.78,2.73-.92,1.92-.27,3.27.73,4.51,1.99.58,2.13,1.61,4.09,2.23,6.2.52,1.76,1.49,2.89,3.26,3.46,2.2.71,3.22,2.31,3.21,4.64-.01,1.5.59,2.15,1.8,2.22,1.01.06,1.75-.69,1.85-2.07.29-4.07-1.97-6.88-5.26-8.25-.77-.32-1.11-.7-1.38-1.4-1.11-2.91-2.26-5.81-3.4-8.71.27-.62.6-1.23.8-1.87.94-2.93,4.08-4.09,6.67-2.46-1.14,2.55-2.28,5.1-3.41,7.65-.54,1.21-.18,2.62.74,3.04s2.21-.26,2.76-1.47c1.15-2.54,2.3-5.09,3.44-7.64.87.39,1.74.78,2.61,1.17-1.13,2.53-2.25,5.05-3.38,7.58-.58,1.3-.23,2.74.76,3.14.95.38,2.18-.31,2.74-1.55,1.14-2.52,2.27-5.04,3.4-7.56Z"/>
      <path class="cls-10" d="M44.01,67.85c1.14,2.9,2.29,5.8,3.4,8.71.27.7.61,1.08,1.38,1.4,3.29,1.37,5.56,4.18,5.26,8.25-.1,1.38-.84,2.14-1.85,2.07-1.21-.08-1.81-.72-1.8-2.22.02-2.33-1-3.93-3.21-4.64-1.77-.57-2.75-1.69-3.26-3.46-.62-2.11-1.65-4.07-2.23-6.2.74-.19.88-.86,1.14-1.43.39-.83.78-1.66,1.18-2.49Z"/>
      <path class="cls-2" d="M55.02,65.1c-1.15,2.55-2.29,5.09-3.44,7.64-.55,1.21-1.84,1.88-2.76,1.47s-1.28-1.83-.74-3.04c1.13-2.55,2.27-5.1,3.41-7.65,1.29.29,2.46.82,3.54,1.59Z"/>
      <path class="cls-2" d="M61.15,67.87c-1.13,2.52-2.26,5.04-3.4,7.56-.56,1.24-1.79,1.93-2.74,1.55-.98-.39-1.34-1.83-.76-3.14,1.12-2.53,2.25-5.05,3.38-7.58,1.28.3,2.47.8,3.53,1.6Z"/>
    </g>
    <g>
      <path class="cls-3" d="M103.27,9.04c1.71-.6,3.46-1.12,5.28-.97,3.95.33,7.14,1.89,9.43,5.36,2.79,4.25,2.45,10.29-1.16,14.12-2.74,2.91-6.16,4.27-10.19,3.71-3.63-.5-7.04-.13-10.34,1.69-3.01,1.66-6.14,1.49-8.96-.58-3.01-2.21-3.92-5.28-3.13-8.86.38-1.73,1.49-3.05,2.66-4.31,5.47-3.39,10.93-6.77,16.4-10.16ZM104.89,17.85c.76-.38,1.56-1.24,2.63-1.48,1.37-.32,2.59.2,3.4,1.32.76,1.05.9,2.27.31,3.48-.62,1.25-1.6,2-3.06,1.95-.3-.01-.6-.08-.89-.02-.73.13-1.36.51-1.42,1.29-.05.76.27,1.41,1.13,1.64,2.25.6,4.1-.24,5.72-1.68,1.92-1.7,2.86-5.37.71-8.4-1.53-2.15-4.83-3.33-7.27-2.39-1.87.73-3.42,1.99-5.14,2.97-1.06.6-1.75,1.5-2.07,2.66-.24.88-.76,1.15-1.63.97-.75-.16-1.51-.16-2.23.18-1.77.84-3.45,1.85-4.97,3.06-1.04.83-1.29,2.13-.81,3.44.31.86,1,1.19,1.88,1.17.8-.02,1.27-.62,1.16-1.22-.23-1.28.69-1.55,1.43-2.03.58-.38,1.19-.71,1.77-1.11.51-.35,1.01-.48,1.66-.42,2.14.19,3.73-.62,4.45-2.5.38-1.02,1.03-1.54,1.87-2.01.4-.23.79-.49,1.38-.85Z"/>
      <path class="cls-9" d="M104.89,17.85c-.6.37-.98.62-1.38.85-.83.48-1.48,1-1.87,2.01-.71,1.89-2.31,2.7-4.45,2.5-.65-.06-1.15.07-1.66.42-.57.39-1.18.73-1.77,1.11-.74.48-1.66.76-1.43,2.03.11.6-.36,1.2-1.16,1.22-.88.02-1.57-.31-1.88-1.17-.48-1.31-.23-2.61.81-3.44,1.52-1.21,3.2-2.22,4.97-3.06.72-.34,1.48-.34,2.23-.18.87.18,1.39-.09,1.63-.97.32-1.16,1.02-2.06,2.07-2.66,1.72-.97,3.27-2.24,5.14-2.97,2.44-.95,5.75.24,7.27,2.39,2.15,3.03,1.21,6.7-.71,8.4-1.62,1.44-3.47,2.28-5.72,1.68-.86-.23-1.18-.88-1.13-1.64.05-.79.69-1.16,1.42-1.29.29-.05.59.01.89.02,1.47.05,2.45-.7,3.06-1.95.59-1.2.45-2.43-.31-3.48-.81-1.12-2.03-1.64-3.4-1.32-1.07.25-1.87,1.1-2.63,1.48Z"/>
    </g>
    <g>
      <path class="cls-1" d="M74.79,63.78c-1.54.39-3.07.13-4.6-.02-2.14-.21-4.19-.82-6.16-1.7-1.15-.52-1.66-1.32-1.57-2.58.4-5.86,2.56-10.87,7.06-14.77,1.4-1.21,2.95-2.17,4.73-2.72,1.09.36,2.23.13,3.34.28,2.32.3,4.55.85,6.67,1.84.89.41,1.37,1.06,1.41,2.08.08,2.21-.42,4.35-1.14,6.38-1.75,4.99-4.73,9.01-9.74,11.22ZM74.57,48.52c-2.18,1.33-2.85,4.08-1.53,6.24,1.32,2.15,4.09,2.8,6.26,1.46,2.13-1.31,2.8-4.05,1.53-6.18-1.29-2.15-4.09-2.83-6.25-1.51Z"/>
      <path class="cls-14" d="M74.79,63.78c5.01-2.21,7.99-6.23,9.74-11.22.71-2.03,1.22-4.17,1.14-6.38-.04-1.02-.52-1.66-1.41-2.08-2.12-.99-4.35-1.54-6.67-1.84-1.11-.14-2.25.09-3.34-.28,2.23-.99,4.6-1.24,6.99-1.18,3.06.06,6.02.64,8.8,2.02.93.46,1.36,1.13,1.33,2.11-.21,5.86-2.34,10.9-6.7,14.87-2.48,2.26-5.48,3.54-8.82,3.96-.35.04-.7.14-1.06.02Z"/>
      <path class="cls-12" d="M74.57,48.52c2.16-1.32,4.97-.64,6.25,1.51,1.28,2.14.6,4.87-1.53,6.18-2.17,1.34-4.94.7-6.26-1.46-1.32-2.16-.65-4.9,1.53-6.24Z"/>
    </g>
  </g>
  <g id="Top_BGS" data-name="Top BGS">
    <path class="cls-6" d="M113.89,60.77c-.99,3.52-1.21,7.32-2.82,10.6-5.52,11.29-13.01,15.19-24.15,20.48-1.43.68-2.9,1.29-4.4,1.84-1.8.65-3.64,1.2-5.5,1.63-1.31.31-2.64.56-3.97.75-1.72.25-3.45.4-5.18.45-1.3.04-2.59.02-3.89-.06-1.77-.1-3.53-.32-5.27-.65-1.39-.27-2.76-.61-4.12-1.02-.19-.06-.39-.12-.59-.18-11.57-3.72-21.15-5.91-29.53-14.71-5.88-6.18-7.75-12.83-6.77-19.14-5.91-.83-11.81-1.85-17.7-3.05v84.02h141.73V56.78c-9.26,1.55-18.55,2.9-27.85,3.99Z"/>
  </g>
  <g id="Texts">
    <g>
      <rect class="cls-5" x="0" y="94.41" width="141.73" height="54.32"/>
      <path class="cls-4" d="M42.47,125.36l.35-.51c.26-.35.53-.37.93-.14.37.26,1.18.83,2.3.83,1.06,0,1.7-.53,1.7-1.3,0-2.16-5.3-1.71-5.3-5.25,0-2,1.66-3.3,3.83-3.3,1.34,0,2.45.51,2.93.86.35.26.4.56.21.91l-.29.53c-.24.46-.58.4-.91.22-.46-.27-1.09-.62-1.97-.62-1.06,0-1.73.51-1.73,1.28,0,2.13,5.3,1.58,5.3,5.2,0,1.84-1.38,3.36-3.76,3.36-1.62,0-2.93-.72-3.49-1.15-.26-.22-.42-.5-.1-.93Z"/>
      <path class="cls-4" d="M55.09,118.9c2.32,0,3.62,1.65,3.62,3.89,0,.35-.3.69-.7.69h-4.98c.13,1.47,1.22,2.24,2.45,2.24.75,0,1.38-.29,1.76-.53.4-.19.69-.14.9.22l.19.32c.19.37.13.69-.22.9-.53.34-1.49.82-2.77.82-2.71,0-4.39-1.95-4.39-4.27,0-2.51,1.7-4.27,4.15-4.27ZM56.69,122.24c-.03-1.14-.72-1.81-1.65-1.81-1.04,0-1.78.72-1.97,1.81h3.62Z"/>
      <path class="cls-4" d="M60.18,119.76c0-.43.22-.67.66-.67h.62c.43,0,.66.24.66.67v.5c0,.18-.03.37-.03.37h.03c.35-.69,1.25-1.73,2.9-1.73,1.81,0,2.85.94,2.85,3.11v4.58c0,.45-.22.67-.67.67h-.69c-.43,0-.67-.22-.67-.67v-4.16c0-.99-.26-1.66-1.28-1.66-1.44,0-2.35,1.2-2.35,2.67v3.15c0,.45-.22.67-.66.67h-.7c-.43,0-.66-.22-.66-.67v-6.82Z"/>
      <path class="cls-4" d="M69.41,125.7l.19-.29c.24-.34.51-.37.91-.16.38.21.99.56,1.83.56.7,0,1.14-.32,1.14-.83,0-1.33-4.05-.83-4.05-3.63,0-1.6,1.41-2.45,3.12-2.45,1.09,0,1.84.35,2.27.59.37.19.42.53.24.9l-.16.29c-.19.38-.5.43-.9.26-.35-.16-.88-.4-1.55-.4s-1.1.29-1.1.8c0,1.34,4.05.82,4.05,3.6,0,1.44-1.22,2.51-3.11,2.51-1.31,0-2.22-.5-2.72-.83-.37-.21-.4-.56-.16-.91Z"/>
      <path class="cls-4" d="M80.89,118.9c2.48,0,4.5,1.78,4.5,4.27s-2.02,4.27-4.5,4.27-4.48-1.76-4.48-4.27,2-4.27,4.48-4.27ZM80.89,125.72c1.33,0,2.43-1.02,2.43-2.54s-1.1-2.54-2.43-2.54-2.42,1.04-2.42,2.54,1.09,2.54,2.42,2.54Z"/>
      <path class="cls-4" d="M86.87,119.76c0-.43.22-.67.66-.67h.62c.43,0,.67.24.67.67v.77c0,.3-.05.56-.05.56h.03c.32-.98,1.22-2.06,2.37-2.06.45,0,.61.22.61.67v.62c0,.43-.26.67-.69.67-1.49,0-2.21,1.47-2.21,2.96v2.62c0,.45-.22.67-.66.67h-.7c-.43,0-.66-.22-.66-.67v-6.82Z"/>
      <path class="cls-4" d="M92.96,128.79c.14.06.34.14.58.14.59,0,1.06-.51,1.3-1.09l.3-.72-3.11-7.25c-.21-.46,0-.78.51-.78h.86c.4,0,.62.18.75.54l1.54,4.16c.14.43.3,1.1.3,1.1h.03s.14-.64.27-1.07l1.44-4.18c.11-.38.35-.56.75-.56h.8c.5,0,.7.3.54.77l-3.36,8.61c-.56,1.49-1.75,2.15-2.95,2.15-.45,0-.85-.13-1.14-.24-.38-.14-.48-.5-.3-.86l.14-.35c.18-.37.45-.43.72-.37Z"/>
    </g>
  </g>
</svg>