<?xml version="1.0" encoding="UTF-8"?>
<svg xmlns="http://www.w3.org/2000/svg" viewBox="0 0 141.73 141.73">
  <defs>
    <style>
      .cls-1 {
        fill: #f1f2f2;
      }

      .cls-2 {
        fill: #98d1a3;
      }

      .cls-3 {
        fill: none;
      }

      .cls-4 {
        fill: #e2a976;
      }

      .cls-5 {
        fill: #a9c9ea;
      }

      .cls-6 {
        fill: #1f3a6e;
        stroke: #1f3a6e;
        stroke-miterlimit: 10;
        stroke-width: .5px;
      }

      .cls-7 {
        fill: #c6dbf2;
      }

      .cls-8 {
        fill: #f6d190;
      }

      .cls-9 {
        fill: #ecbd82;
      }

      .cls-10 {
        fill: #eef4fb;
      }

      .cls-11 {
        fill: #dde9f7;
      }

      .cls-12 {
        fill: #ffe09f;
      }

      .cls-13 {
        fill: #b6da9e;
      }
    </style>
  </defs>
  <g id="Bottom_BGS" data-name="Bottom BGS">
    <path class="cls-6" d="M16.1,58.25c.09-.76.23-1.53.44-2.28.2-.75.46-1.49.77-2.23,3.4-7.87,12.21-11.62,18.52-17.43,3.6-3.31,6.43-7.36,9.84-10.85,1.84-1.88,3.85-3.55,6.01-5.01l.38-.25c.66-.44,1.33-.86,2.02-1.26h0c.58-.34,1.16-.66,1.76-.96.1-.06.2-.12.31-.17.84-.43,1.69-.83,2.56-1.2.39-.17.79-.33,1.19-.48,5.08-2.01,10.57-3.08,16.07-3.21.49-.02.99-.02,1.47-.01,0,0,0,0,.01,0,.07,0,.13,0,.2,0,.13,0,.28,0,.41,0,.17,0,.33,0,.5.02.42,0,.85.03,1.27.05.95.05,1.9.13,2.84.24.53.06,1.06.14,1.59.22,1.31.19,2.6.45,3.89.75,1.27.3,2.53.65,3.76,1.05,1.6.53,3.17,1.14,4.7,1.85.56.26,1.12.53,1.66.81.57.29,1.13.6,1.68.91,1.49.85,2.92,1.81,4.29,2.84,1.09.83,2.14,1.71,3.14,2.66.14.13.29.28.43.41,8.44,8.22,13.22,19.47,16.69,30.73.29.94.51,1.86.7,2.76,5.54-.92,11.05-1.98,16.53-3.19V0H0v57.59c5.31.82,10.64,1.56,16,2.2.02-.51.04-1.03.11-1.54Z"/>
  </g>
  <g id="Elements">
    <g>
      <path class="cls-4" d="M48.83,103.84c-.74-.21-1.15-.69-1.39-1.43-8.3-25.55-16.61-51.1-24.92-76.65-.42-1.3-.19-1.79,1.13-2.22.32-.1.58-.37.94-.32.08.27.16.54.24.81,7.95,24.43,15.89,48.87,23.84,73.3.05.16.09.33.16.48.68,1.53,2.01,2.44,3.57,1.83l.05-.03c.3.92.59,1.83.89,2.75l-4.52,1.47Z"/>
      <path class="cls-2" d="M53.36,102.37c-.3-.92-.59-1.83-.89-2.75,19.55-6.36,39.09-12.71,58.64-19.07.12.34.22.7.37,1.03.35.79.22,1.46-.43,2.03-19.23,6.25-38.46,12.51-57.69,18.76Z"/>
      <path class="cls-13" d="M111.11,80.55c-19.55,6.36-39.09,12.71-58.64,19.07,0,0-.05.03-.05.03-.1-.35-.19-.71-.3-1.06-4.1-12.62-8.21-25.23-12.31-37.85-2.51-7.72-5.01-15.44-7.52-23.16,1.31.86,1.69.78,2.68-.55.64-1.23,1.56-1.52,2.79-.88.07.04.16.04.24.07.71.26,1.35.08,1.87-.41.51-.47.27-1.04.09-1.58-1.58-4.86-3.16-9.72-4.73-14.58,16.33-5.08,32.54-10.53,48.81-15.77,1.63-.52,2.05-.32,2.57,1.27,8.08,24.85,16.17,49.71,24.25,74.56.09.27.16.54.24.81ZM88.05,73.4c-.36-1.25-1.19-1.94-2.43-1.97-.45-.01-.9.03-1.34.17-5.03,1.64-10.06,3.27-15.09,4.91-.21.07-.45.1-.56.33-.37.13-.74.23-1.05.52-1,.92-1.19,2.29-.45,3.56.59,1.02,2,1.5,3.28,1.08,5.32-1.72,10.65-3.45,15.97-5.19,1.56-.51,2.21-1.88,1.67-3.41ZM58.72,32.74c1.4,4.27,2.8,8.53,4.19,12.8.71,2.18.74,4.34-.05,6.53-.59,1.64-1.06,3.33-1.58,4.99-.89,2.35-1.64,4.75-2.34,7.16-.38,1.3-.32,2.57.39,3.82,1.11,1.94,3.78,3.1,5.9,2.41,6.03-1.96,12.06-3.93,18.09-5.88,1.99-.64,3.15-1.99,3.56-4.02.26-1.73-.16-3.35-1.44-4.48-2.01-1.77-4.25-3.26-6.48-4.76-1.33-.99-2.63-2.05-4.01-2.97-2.11-1.41-3.48-3.28-4.22-5.71-.99-3.27-2.11-6.5-3.18-9.75-.28-.91-.56-1.83-.84-2.74.96-.56,1.15-1.09.74-2.01-.3-.68-.85-.86-1.8-.55-2.53.82-5.06,1.64-7.58,2.47-.94.31-1.39.98-1.21,1.76.14.63.94,1.03,1.86.93Z"/>
      <path class="cls-9" d="M32.29,37.59c2.51,7.72,5.01,15.44,7.52,23.16,4.1,12.62,8.21,25.23,12.31,37.85.11.35.2.71.3,1.06-1.56.61-2.89-.29-3.57-1.83-.07-.15-.11-.32-.16-.48-7.95-24.43-15.89-48.87-23.84-73.3-.09-.27-.16-.54-.24-.81.9-.3,1.8-.6,2.7-.9,1.66,5.09,3.33,10.17,4.99,15.26Z"/>
      <path class="cls-12" d="M35.24,19.67c1.58,4.86,3.15,9.72,4.73,14.58.18.54.41,1.11-.09,1.58-.53.49-1.16.67-1.87.41-.08-.03-.17-.03-.24-.07-1.23-.65-2.15-.35-2.79.88-1.98-6.07-3.95-12.15-5.93-18.22,1.26-.42,2.52-.84,3.79-1.25,1.12-.36,1.69-.06,2.06,1.07.11.35.24.7.36,1.04Z"/>
      <path class="cls-8" d="M29.04,18.82c1.98,6.07,3.95,12.15,5.93,18.22-.98,1.33-1.37,1.41-2.68.55-1.66-5.09-3.33-10.17-4.99-15.26-.13-.4-.25-.8-.38-1.2-.3-1,0-1.62.99-1.96.37-.13.75-.23,1.12-.35Z"/>
      <path class="cls-7" d="M78.96,51.32c2.23,1.49,4.47,2.99,6.48,4.76,1.28,1.13,1.7,2.74,1.45,4.48-7.18,2.34-14.36,4.67-21.54,7.01-.22.07-.43.15-.65.2-1.99.46-3.59-1.03-3.08-2.87.16-.57.37-1.12.55-1.68.63-1.98,1.26-3.97,1.89-5.95.11-.03.21-.07.32-.1,1.56.19,2.65-.63,3.66-1.68,1.29-1.34,2.88-1.83,4.7-1.44,1.75.38,3.21-.05,4.43-1.37.51-.56,1.04-1.12,1.8-1.36Z"/>
      <path class="cls-10" d="M78.96,51.32c-.76.23-1.29.8-1.8,1.36-1.22,1.32-2.68,1.74-4.43,1.37-1.81-.39-3.41.1-4.7,1.44-1.01,1.05-2.1,1.86-3.66,1.68-.16-.31-.03-.61.06-.9.28-.88.54-1.78.87-2.64,1.15-3.01,1.33-6,.17-9.08-.86-2.27-1.53-4.62-2.28-6.93-.63-1.96.08-3.32,2.01-3.95.78-.25,1.56-.51,2.34-.76,1.07,3.25,2.19,6.48,3.18,9.75.74,2.44,2.1,4.31,4.22,5.71,1.38.92,2.68,1.97,4.01,2.97Z"/>
      <path class="cls-5" d="M64.06,57.26c-.63,1.98-1.26,3.97-1.89,5.95-.18.56-.4,1.12-.55,1.68-.51,1.85,1.09,3.33,3.08,2.87.22-.05.43-.13.65-.2,7.18-2.34,14.36-4.67,21.54-7.01-.41,2.03-1.57,3.38-3.56,4.02-6.03,1.95-12.06,3.92-18.09,5.88-2.11.69-4.79-.47-5.9-2.41-.71-1.25-.77-2.52-.39-3.82.7-2.41,1.45-4.81,2.34-7.16.95-.28,1.86-.05,2.78.19Z"/>
      <path class="cls-11" d="M64.06,57.26c-.91-.24-1.83-.46-2.78-.19.52-1.67.99-3.35,1.58-4.99.79-2.19.75-4.35.05-6.53-1.39-4.27-2.79-8.54-4.19-12.8,2.66-.87,5.33-1.73,7.99-2.6.28.91.56,1.83.84,2.74-.78.25-1.56.51-2.34.76-1.93.63-2.64,2-2.01,3.95.74,2.32,1.42,4.66,2.28,6.93,1.16,3.08.98,6.07-.17,9.08-.33.87-.59,1.76-.87,2.64-.09.29-.22.59-.06.9-.11.03-.21.07-.32.1Z"/>
      <path class="cls-8" d="M88.05,73.4c.54,1.53-.12,2.9-1.67,3.41-5.32,1.74-10.64,3.47-15.97,5.19-1.28.42-2.69-.06-3.28-1.08-.73-1.27-.55-2.64.45-3.56.31-.28.68-.38,1.05-.52.62,1.52,2.07,2.19,3.67,1.68,5.25-1.7,10.5-3.41,15.75-5.12Z"/>
      <path class="cls-12" d="M88.05,73.4c-5.25,1.71-10.5,3.42-15.75,5.12-1.59.52-3.05-.16-3.67-1.68.11-.24.35-.27.56-.33,5.03-1.64,10.06-3.27,15.09-4.91.44-.14.89-.18,1.34-.17,1.23.04,2.06.73,2.43,1.97Z"/>
      <path class="cls-10" d="M66.72,30.15c-2.66.87-5.33,1.73-7.99,2.6-.93.09-1.72-.31-1.86-.93-.18-.78.28-1.45,1.21-1.76,2.53-.83,5.05-1.65,7.58-2.47.95-.31,1.49-.13,1.8.55.41.92.22,1.45-.74,2.01Z"/>
    </g>
  </g>
  <g id="Top_BGS" data-name="Top BGS">
    <path class="cls-6" d="M125.2,58.21c3.65,17.57-11.58,27.97-28.85,28.36-.34,0-.68.01-1.02.01-8.27,0-16.65-1.52-24.78-.64-1.61.17-3.21.44-4.8.83-.67.16-1.35.36-2.02.57-.01,0-.02,0-.03,0-1.7.52-3.37,1.14-5.04,1.76-.8.3-1.61.6-2.41.88-3.33,1.18-6.68,2.15-10.19,2.1-7.43-.12-14-4.83-19.24-10.08-1.2-1.21-2.37-2.51-3.47-3.87-1.23-1.52-2.36-3.15-3.36-4.82-2.54-4.27-4.15-8.94-3.99-13.53-5.35-.64-10.69-1.37-16-2.2v84.14h141.73V55.02c-5.48,1.21-10.99,2.27-16.53,3.19Z"/>
  </g>
  <g id="Texts">
    <g>
      <rect class="cls-3" x="0" y="94.41" width="141.73" height="54.32"/>
      <path class="cls-1" d="M28.71,116.56c0-.43.22-.67.66-.67h5.47c.43,0,.67.24.67.67v.45c0,.43-.24.66-.67.66h-4.08v2.98h3.17c.43,0,.67.22.67.66v.45c0,.45-.24.67-.67.67h-3.17v3.06h4.34c.43,0,.67.22.67.66v.45c0,.45-.24.67-.67.67h-5.73c-.43,0-.66-.22-.66-.67v-10.02Z"/>
      <path class="cls-1" d="M40.37,118.9c1.79,0,2.38,1.17,2.38,1.17h.03s-.03-.21-.03-.46v-3.04c0-.43.22-.67.66-.67h.71c.43,0,.66.24.66.67v10.02c0,.45-.22.67-.66.67h-.59c-.43,0-.66-.21-.66-.61v-.32c0-.16.03-.29.03-.29h-.03s-.69,1.41-2.56,1.41c-2.21,0-3.63-1.74-3.63-4.27s1.54-4.27,3.7-4.27ZM40.75,125.73c1.06,0,2.05-.77,2.05-2.58,0-1.26-.66-2.51-2.03-2.51-1.1,0-2.05.91-2.05,2.53s.83,2.56,2.03,2.56Z"/>
      <path class="cls-1" d="M46.69,119.76c0-.43.24-.67.67-.67h.69c.45,0,.67.24.67.67v4.16c0,.99.26,1.67,1.26,1.67,1.47,0,2.29-1.3,2.29-2.75v-3.07c0-.43.22-.67.67-.67h.69c.43,0,.67.24.67.67v6.82c0,.45-.24.67-.67.67h-.62c-.43,0-.66-.22-.66-.67v-.48c0-.19.03-.37.03-.37h-.03c-.38.83-1.44,1.71-2.83,1.71-1.75,0-2.83-.88-2.83-3.1v-4.58Z"/>
      <path class="cls-1" d="M60.23,118.9c1.31,0,2.19.48,2.67.82.34.22.35.56.13.91l-.21.32c-.24.37-.51.37-.9.18-.34-.22-.88-.5-1.58-.5-1.5,0-2.48,1.14-2.48,2.53s.98,2.56,2.55,2.56c.8,0,1.44-.35,1.82-.62.4-.22.7-.18.91.21l.16.3c.19.35.14.67-.18.9-.5.37-1.49.94-2.9.94-2.71,0-4.43-1.9-4.43-4.27s1.73-4.27,4.43-4.27Z"/>
      <path class="cls-1" d="M68.93,122.21h.34v-.19c0-1.07-.69-1.44-1.52-1.44-.69,0-1.31.26-1.7.46-.4.18-.7.11-.9-.27l-.16-.3c-.19-.37-.13-.69.26-.9.53-.27,1.46-.67,2.67-.67,2.11,0,3.38,1.18,3.38,3.25v4.43c0,.45-.22.67-.67.67h-.54c-.43,0-.66-.22-.66-.67v-.32c0-.22.03-.35.03-.35h-.03s-.77,1.54-2.56,1.54c-1.49,0-2.71-.96-2.71-2.45,0-2.39,2.95-2.79,4.77-2.79ZM67.41,125.89c1.14,0,1.87-1.15,1.87-2.15v-.3h-.34c-1.02,0-2.77.16-2.77,1.38,0,.54.42,1.07,1.23,1.07Z"/>
      <path class="cls-1" d="M73.54,120.82h-.43c-.43,0-.66-.22-.66-.67v-.27c0-.43.22-.67.67-.67h.46v-1.66c0-.43.24-.67.67-.67h.64c.43,0,.67.24.67.67v1.66h1.18c.43,0,.67.24.67.67v.27c0,.45-.24.67-.66.67h-1.2v3.17c0,1.22.75,1.46,1.31,1.52.5.05.67.21.67.66v.5c0,.48-.27.67-.83.67-1.46,0-3.18-.78-3.18-2.99v-3.52Z"/>
      <path class="cls-1" d="M78.92,117.04v-.48c0-.43.22-.67.66-.67h.7c.43,0,.67.24.67.67v.48c0,.43-.24.66-.67.66h-.7c-.43,0-.66-.22-.66-.66ZM78.92,119.76c0-.43.22-.67.66-.67h.7c.43,0,.66.24.66.67v6.82c0,.45-.22.67-.66.67h-.7c-.43,0-.66-.22-.66-.67v-6.82Z"/>
      <path class="cls-1" d="M86.92,118.9c2.48,0,4.5,1.78,4.5,4.27s-2.02,4.27-4.5,4.27-4.48-1.76-4.48-4.27,2-4.27,4.48-4.27ZM86.92,125.72c1.33,0,2.43-1.02,2.43-2.54s-1.1-2.54-2.43-2.54-2.42,1.04-2.42,2.54,1.09,2.54,2.42,2.54Z"/>
      <path class="cls-1" d="M92.9,119.76c0-.43.22-.67.66-.67h.62c.43,0,.66.24.66.67v.5c0,.18-.03.37-.03.37h.03c.35-.69,1.25-1.73,2.9-1.73,1.81,0,2.85.94,2.85,3.11v4.58c0,.45-.22.67-.67.67h-.69c-.43,0-.67-.22-.67-.67v-4.16c0-.99-.26-1.66-1.28-1.66-1.44,0-2.35,1.2-2.35,2.67v3.15c0,.45-.22.67-.66.67h-.7c-.43,0-.66-.22-.66-.67v-6.82Z"/>
      <path class="cls-1" d="M106.63,122.21h.34v-.19c0-1.07-.69-1.44-1.52-1.44-.69,0-1.31.26-1.7.46-.4.18-.7.11-.9-.27l-.16-.3c-.19-.37-.13-.69.26-.9.53-.27,1.46-.67,2.67-.67,2.11,0,3.38,1.18,3.38,3.25v4.43c0,.45-.22.67-.67.67h-.54c-.43,0-.66-.22-.66-.67v-.32c0-.22.03-.35.03-.35h-.03s-.77,1.54-2.56,1.54c-1.49,0-2.71-.96-2.71-2.45,0-2.39,2.95-2.79,4.77-2.79ZM105.11,125.89c1.14,0,1.87-1.15,1.87-2.15v-.3h-.34c-1.02,0-2.77.16-2.77,1.38,0,.54.42,1.07,1.23,1.07Z"/>
      <path class="cls-1" d="M110.87,116.56c0-.43.22-.67.66-.67h.7c.43,0,.66.24.66.67v7.99c0,.8.34.94.64.98.29.03.5.21.5.58v.54c0,.42-.19.69-.67.69-1.09,0-2.48-.29-2.48-2.62v-8.15Z"/>
    </g>
  </g>
</svg>