<?xml version="1.0" encoding="UTF-8"?>
<svg xmlns="http://www.w3.org/2000/svg" viewBox="0 0 141.73 141.73">
  <defs>
    <style>
      .cls-1 {
        fill: #1f3a6e;
      }

      .cls-2 {
        fill: #f1f2f2;
      }

      .cls-3 {
        fill: none;
      }

      .cls-4 {
        fill: #55b6cf;
        stroke: #55b6cf;
        stroke-miterlimit: 10;
        stroke-width: .5px;
      }

      .cls-5 {
        fill: #f15b5c;
      }

      .cls-6 {
        fill: #fcb44a;
      }
    </style>
  </defs>
  <g id="Bottom_BGS" data-name="Bottom BGS">
    <path class="cls-4" d="M26.05,52.09c3.71-6.01,9.36-10.52,14.97-14.81,7.89-6.03,16.05-11.9,25.24-15.68,9.19-3.77,19.6-5.32,29.12-2.46,13.92,4.18,23.06,18.32,24.64,32.35.32,2.88,0,5.99-.86,9.1,7.56-.6,15.09-1.45,22.58-2.57V0H0v55.23c7.73.98,15.5,1.91,23.29,2.74.7-2.05,1.62-4.03,2.76-5.88Z"/>
  </g>
  <g id="Elements">
    <g>
      <g>
        <path class="cls-1" d="M70.86,62.62l-2.86.47-15.62,48.95c1.71.22,3.45.3,5.18.21.63-.03,1.25-.09,1.88-.16l15.24-46.68-2.16-2.24c-.43-.45-1.05-.65-1.66-.55Z"/>
        <path class="cls-6" d="M90.1,51.97l-6.83-3.42c-.55-.28-.94-.81-1.02-1.42l-1.06-7.56c-.22-1.54-2.11-2.17-3.2-1.06l-5.36,5.44c-.43.44-1.06.64-1.67.53l-7.52-1.33c-1.54-.27-2.72,1.34-2,2.72l3.52,6.78c.29.55.28,1.2,0,1.75l-3.59,6.74c-.73,1.38.43,3,1.97,2.74l4.68-.78.85-2.68,6.64,2.48-.82,2.52,3.14,3.26c1.08,1.12,2.98.52,3.22-1.03l1.14-7.55c.09-.61.48-1.14,1.04-1.41l6.87-3.34c1.4-.68,1.41-2.68.02-3.38Z"/>
        <path class="cls-6" d="M68.86,60.42l-.85,2.68,2.86-.47c.61-.1,1.23.1,1.66.55l2.16,2.24.82-2.52-6.64-2.48Z"/>
      </g>
      <polygon class="cls-1" points="46.47 49.37 53.36 50.21 46.57 51.63 45.73 58.51 44.32 51.72 37.43 50.88 44.22 49.47 45.06 42.58 46.47 49.37"/>
      <path class="cls-5" d="M81.04,18.11s-.06,0-.1,0h.1c-1.89-.13-3.59-1.3-4.76-2.79s-1.87-3.28-2.49-5.07c-.58-1.7-1.06-3.17-1.22-4.99-.34,2.23-.9,4.41-1.81,6.46-.9,2.05-2.24,3.96-4.05,5.27-.48.35-1.03.66-1.6.8l-.57.08c-.06,0-.12,0-.18,0,.03,0,.06,0,.1,0h-.1c1.89.13,3.59,1.3,4.76,2.79,1.17,1.49,1.87,3.28,2.49,5.07.58,1.7,1.06,3.17,1.22,4.99.34-2.23.9-4.41,1.81-6.46.9-2.05,2.24-3.96,4.05-5.27.48-.35,1.03-.66,1.6-.8l.57-.08c.06,0,.12,0,.18,0Z"/>
      <path class="cls-1" d="M107.78,42.29s-.05,0-.08,0h.08c-1.54-.11-2.93-1.06-3.88-2.27s-1.53-2.67-2.02-4.13c-.47-1.38-.86-2.58-.99-4.07-.28,1.82-.74,3.59-1.47,5.26-.74,1.67-1.82,3.22-3.3,4.29-.39.28-.84.53-1.3.65l-.47.06c-.05,0-.1,0-.15,0,.03,0,.05,0,.08,0h-.08c1.54.11,2.93,1.06,3.88,2.27.95,1.21,1.53,2.67,2.02,4.13.47,1.38.86,2.58.99,4.07.28-1.82.74-3.59,1.47-5.26.74-1.67,1.82-3.22,3.3-4.29.39-.28.84-.53,1.3-.65l.47-.06c.05,0,.1,0,.15,0Z"/>
      <path class="cls-5" d="M102.97,91.3c-.12-.08-.29-.21-.51-.34-.44-.27-1.07-.6-1.82-.9-.75-.3-1.63-.55-2.56-.72-.19-.04-.39-.06-.59-.09-.03-.17-.07-.35-.11-.52-.22-.87-.51-1.68-.85-2.36-.33-.68-.7-1.25-1-1.63-.14-.19-.29-.34-.37-.45-.09-.1-.15-.16-.15-.16,0,0-.05.06-.13.17-.07.11-.2.28-.32.49-.25.42-.55,1.01-.82,1.71-.27.7-.49,1.51-.65,2.37-.02.13-.04.26-.06.39-.28.04-.55.09-.82.14-.93.19-1.8.46-2.55.77-.74.31-1.36.65-1.8.93-.22.13-.39.27-.5.35-.12.09-.18.14-.18.14,0,0,.06.05.18.14.12.08.29.21.51.34.44.27,1.07.6,1.82.89.75.3,1.63.55,2.56.72.28.05.56.09.85.13.02.14.05.28.08.41.18.85.43,1.65.73,2.35.29.69.61,1.27.88,1.68.13.2.26.37.33.48.08.11.13.17.13.17,0,0,.06-.06.14-.16.08-.11.22-.26.36-.46.29-.4.64-.97.95-1.66.32-.69.58-1.51.77-2.39.03-.16.06-.33.09-.5.19-.03.37-.06.56-.1.93-.19,1.8-.46,2.55-.77.74-.31,1.36-.65,1.8-.93.22-.13.39-.27.5-.35.12-.09.18-.14.18-.14,0,0-.06-.05-.18-.14Z"/>
    </g>
  </g>
  <g id="Top_BGS" data-name="Top BGS">
    <path class="cls-4" d="M119.15,60.59c-2.75,10.04-10.96,20.04-20.39,21.83-8.13,1.55-17.4-2.3-24.38,2.15-4.16,2.65-6.29,7.65-10.22,10.64-2.99,2.28-6.82,3.23-10.58,3.42-11.06.56-22.2-5.42-27.84-14.95-4.53-7.66-5.33-17.32-2.46-25.71-7.79-.83-15.56-1.75-23.29-2.74v86.5h141.73V58.02c-7.5,1.12-15.03,1.97-22.58,2.57Z"/>
  </g>
  <g id="Texts">
    <g>
      <rect class="cls-3" x="0" y="87.41" width="141.73" height="54.32"/>
      <path class="cls-2" d="M28.29,109.53c.05-.42.27-.64.69-.64h1.01c.38,0,.62.18.75.54l2.03,5.07c.26.67.58,1.66.58,1.66h.03s.3-.99.56-1.66l2.03-5.07c.13-.37.37-.54.77-.54h.99c.42,0,.66.22.69.64l.82,10.04c.03.43-.19.69-.64.69h-.72c-.42,0-.66-.22-.69-.64l-.43-5.71c-.05-.75-.02-1.76-.02-1.76h-.03s-.35,1.1-.61,1.76l-1.65,3.87c-.13.35-.37.53-.75.53h-.67c-.4,0-.64-.18-.77-.53l-1.63-3.87c-.26-.66-.62-1.78-.62-1.78h-.03s.03,1.02-.02,1.78l-.43,5.71c-.03.42-.26.64-.69.64h-.72c-.45,0-.67-.26-.64-.69l.82-10.04Z"/>
      <path class="cls-2" d="M45.33,115.21h.34v-.19c0-1.07-.69-1.44-1.52-1.44-.69,0-1.31.26-1.7.46-.4.18-.7.11-.9-.27l-.16-.3c-.19-.37-.13-.69.26-.9.53-.27,1.46-.67,2.67-.67,2.11,0,3.38,1.18,3.38,3.25v4.43c0,.45-.22.67-.67.67h-.54c-.43,0-.66-.22-.66-.67v-.32c0-.22.03-.35.03-.35h-.03s-.77,1.54-2.56,1.54c-1.49,0-2.71-.96-2.71-2.45,0-2.39,2.95-2.79,4.77-2.79ZM43.81,118.89c1.14,0,1.87-1.15,1.87-2.15v-.3h-.34c-1.02,0-2.77.16-2.77,1.38,0,.54.42,1.07,1.23,1.07Z"/>
      <path class="cls-2" d="M51.11,121.58c.38.14.9.3,1.65.3,1.25,0,2.3-.53,2.3-1.99v-.61c0-.19.03-.42.03-.42h-.03c-.45.77-1.15,1.22-2.24,1.22-2.39,0-3.7-1.89-3.7-4.15s1.25-4.05,3.68-4.05c1.91,0,2.42,1.25,2.42,1.25h.03s-.02-.08-.02-.21v-.3c0-.3.22-.54.66-.54h.54c.43,0,.66.24.66.67v7c0,2.8-2.21,3.86-4.23,3.86-.91,0-1.83-.19-2.39-.43-.42-.18-.53-.45-.35-.86l.13-.37c.18-.4.42-.51.85-.37ZM55.11,116c0-1.87-.93-2.37-1.98-2.37-1.26,0-1.95.9-1.95,2.24,0,1.47.74,2.51,2.05,2.51.96,0,1.89-.56,1.89-2.38Z"/>
      <path class="cls-2" d="M59.11,110.04v-.48c0-.43.22-.67.66-.67h.7c.43,0,.67.24.67.67v.48c0,.43-.24.66-.67.66h-.7c-.43,0-.66-.22-.66-.66ZM59.11,112.76c0-.43.22-.67.66-.67h.7c.43,0,.66.24.66.67v6.82c0,.45-.22.67-.66.67h-.7c-.43,0-.66-.22-.66-.67v-6.82Z"/>
      <path class="cls-2" d="M67.06,111.9c1.31,0,2.19.48,2.67.82.34.22.35.56.13.91l-.21.32c-.24.37-.51.37-.9.18-.34-.22-.88-.5-1.58-.5-1.5,0-2.48,1.14-2.48,2.53s.98,2.56,2.54,2.56c.8,0,1.44-.35,1.82-.62.4-.22.7-.18.91.21l.16.3c.19.35.14.67-.18.9-.5.37-1.49.94-2.9.94-2.71,0-4.43-1.9-4.43-4.27s1.73-4.27,4.43-4.27Z"/>
      <path class="cls-2" d="M74.96,112.84c-.13-.45.1-.75.56-.75h.77c.4,0,.64.19.72.59l1.31,4.77c.1.43.16.86.16.86h.03s.06-.43.18-.86l1.38-4.77c.08-.38.34-.58.74-.58h.61c.4,0,.64.19.74.58l1.36,4.77c.13.43.18.86.18.86h.03s.06-.43.18-.86l1.3-4.77c.1-.4.34-.59.74-.59h.74c.48,0,.69.3.56.75l-2.1,6.85c-.11.38-.37.56-.75.56h-1.07c-.4,0-.66-.19-.75-.58l-1.23-4.08c-.13-.43-.19-.88-.19-.88h-.03s-.08.45-.21.88l-1.23,4.08c-.1.38-.34.58-.74.58h-1.1c-.38,0-.62-.18-.74-.56l-2.11-6.85Z"/>
      <path class="cls-2" d="M92.72,115.21h.34v-.19c0-1.07-.69-1.44-1.52-1.44-.69,0-1.31.26-1.7.46-.4.18-.7.11-.9-.27l-.16-.3c-.19-.37-.13-.69.26-.9.53-.27,1.46-.67,2.67-.67,2.11,0,3.38,1.18,3.38,3.25v4.43c0,.45-.22.67-.67.67h-.54c-.43,0-.66-.22-.66-.67v-.32c0-.22.03-.35.03-.35h-.03s-.77,1.54-2.56,1.54c-1.49,0-2.71-.96-2.71-2.45,0-2.39,2.95-2.79,4.77-2.79ZM91.2,118.89c1.14,0,1.87-1.15,1.87-2.15v-.3h-.34c-1.02,0-2.77.16-2.77,1.38,0,.54.42,1.07,1.23,1.07Z"/>
      <path class="cls-2" d="M96.98,112.76c0-.43.22-.67.66-.67h.62c.43,0,.66.24.66.67v.5c0,.18-.03.37-.03.37h.03c.35-.69,1.25-1.73,2.9-1.73,1.81,0,2.85.94,2.85,3.11v4.58c0,.45-.22.67-.67.67h-.69c-.43,0-.67-.22-.67-.67v-4.16c0-.99-.26-1.67-1.28-1.67-1.44,0-2.35,1.2-2.35,2.67v3.15c0,.45-.22.67-.66.67h-.7c-.43,0-.66-.22-.66-.67v-6.82Z"/>
      <path class="cls-2" d="M109.78,111.9c1.79,0,2.38,1.17,2.38,1.17h.03s-.03-.21-.03-.46v-3.04c0-.43.22-.67.66-.67h.71c.43,0,.66.24.66.67v10.02c0,.45-.22.67-.66.67h-.59c-.43,0-.66-.21-.66-.61v-.32c0-.16.03-.29.03-.29h-.03s-.69,1.41-2.56,1.41c-2.21,0-3.63-1.74-3.63-4.27s1.54-4.27,3.7-4.27ZM110.16,118.73c1.06,0,2.05-.77,2.05-2.58,0-1.26-.66-2.51-2.03-2.51-1.1,0-2.05.91-2.05,2.53s.83,2.56,2.03,2.56Z"/>
    </g>
  </g>
</svg>