<?xml version="1.0" encoding="UTF-8"?>
<svg xmlns="http://www.w3.org/2000/svg" viewBox="0 0 141.73 141.73">
  <defs>
    <style>
      .cls-1 {
        fill: #f1f2f2;
      }

      .cls-2 {
        fill: none;
      }

      .cls-3 {
        fill: #fcb44a;
        stroke: #fcb44a;
        stroke-miterlimit: 10;
        stroke-width: .5px;
      }
    </style>
  </defs>
  <g id="Bottom_BGS" data-name="Bottom BGS">
    <path class="cls-3" d="M0,0v50.76c6.01-.19,12.01-.28,17.99-.29-.26-11.19,3.72-22.5,11.64-30.19,10.18-9.86,23.02-9.73,38.52-10.3,6.2-.22,38.01-1.39,44.64,13.38,4,8.91-4.73,15.61-.18,28.77.5,1.45,1.07,2.71,1.68,3.82,9.13.87,18.27,1.78,27.43,2.7V0H0Z"/>
  </g>
  <g id="Top_BGS" data-name="Top BGS">
    <path class="cls-3" d="M123.59,69.68c-.4,9.65-18.2,17.8-35.41,21.32-3.4.7-6.78,1.22-9.99,1.53-1.32.13-2.65.26-4.02.35-3.29.24-6.79.3-10.81-.21-1.06-.12-2.15-.3-3.29-.52-1.23-.23-3.05-.57-5.26-1.1-9.56-2.31-26.37-8.25-33.59-25.17-2.06-4.85-3.13-10.12-3.25-15.42-5.99,0-11.98.1-17.99.29v90.98h141.73V58.66c-9.16-.92-18.3-1.84-27.43-2.7,3.92,7.15,9.52,8.24,9.29,13.73Z"/>
  </g>
  <g id="Texts">
    <g>
      <rect class="cls-2" x="0" y="87.41" width="141.73" height="54.32"/>
      <path class="cls-1" d="M59.66,110.66h-3.06c-.45,0-.67-.22-.67-.66v-.45c0-.43.22-.67.67-.67h8.16c.43,0,.66.24.66.67v.45c0,.43-.22.66-.66.66h-3.06v8.92c0,.45-.22.67-.67.67h-.72c-.43,0-.66-.22-.66-.67v-8.92Z"/>
      <path class="cls-1" d="M68.84,111.9c2.32,0,3.62,1.65,3.62,3.89,0,.35-.3.69-.7.69h-4.98c.13,1.47,1.22,2.24,2.45,2.24.75,0,1.38-.29,1.76-.53.4-.19.69-.14.9.22l.19.32c.19.37.13.69-.22.9-.53.34-1.49.82-2.77.82-2.71,0-4.39-1.95-4.39-4.27,0-2.51,1.7-4.27,4.15-4.27ZM70.44,115.24c-.03-1.14-.72-1.81-1.65-1.81-1.04,0-1.78.72-1.97,1.81h3.62Z"/>
      <path class="cls-1" d="M73.58,118.7l.19-.29c.24-.34.51-.37.91-.16.38.21.99.56,1.83.56.7,0,1.14-.32,1.14-.83,0-1.33-4.05-.83-4.05-3.63,0-1.6,1.41-2.45,3.12-2.45,1.09,0,1.84.35,2.27.59.37.19.42.53.24.9l-.16.29c-.19.38-.5.43-.9.26-.35-.16-.88-.4-1.55-.4s-1.1.29-1.1.8c0,1.34,4.05.82,4.05,3.6,0,1.44-1.22,2.51-3.11,2.51-1.31,0-2.22-.5-2.72-.83-.37-.21-.4-.56-.16-.91Z"/>
      <path class="cls-1" d="M81.53,113.82h-.43c-.43,0-.66-.22-.66-.67v-.27c0-.43.22-.67.67-.67h.46v-1.66c0-.43.24-.67.67-.67h.64c.43,0,.67.24.67.67v1.66h1.18c.43,0,.67.24.67.67v.27c0,.45-.24.67-.66.67h-1.2v3.17c0,1.22.75,1.46,1.31,1.52.5.05.67.21.67.66v.5c0,.48-.27.67-.83.67-1.46,0-3.18-.78-3.18-2.99v-3.52Z"/>
    </g>
  </g>
</svg>