<?xml version="1.0" encoding="UTF-8"?>
<svg xmlns="http://www.w3.org/2000/svg" viewBox="0 0 141.73 141.73">
  <defs>
    <style>
      .cls-1 {
        fill: #1f3a6e;
      }

      .cls-2 {
        fill: #f1f2f2;
      }

      .cls-3 {
        fill: #fed09a;
      }

      .cls-4 {
        fill: none;
      }

      .cls-5 {
        fill: #55b6cf;
        stroke: #55b6cf;
        stroke-miterlimit: 10;
        stroke-width: .5px;
      }

      .cls-6 {
        fill: #f15b5c;
      }

      .cls-7 {
        fill: #fcb44a;
      }

      .cls-8 {
        fill: #234c89;
      }
    </style>
  </defs>
  <g id="Bottom_BGS" data-name="Bottom BGS">
    <path class="cls-5" d="M46.9,16.2c9.17-3.63,27.13-7.31,37.31,1.17,3.94,3.28,4.83,5.66,9.77,8.95,5.34,3.56,12.18,3.19,17.97,5.62,1.37.57,2.64,1.29,3.83,2.13,7.16,5.08,9.56,14.24,10.36,19.74,5.2-.63,10.4-1.35,15.6-2.15V0H0v49.8c5.17,1,10.33,1.9,15.5,2.69,2.34-18,18.49-31.18,31.4-36.29Z"/>
  </g>
  <g id="Elements">
    <g>
      <g>
        <path class="cls-3" d="M73.4,83.27h0c-.93-.24-1.72-.76-2.28-1.46-.8-1-1.14-2.35-.8-3.69l8.07-32.09c.57-2.27,2.88-3.65,5.15-3.08h0c2.27.57,3.65,2.88,3.08,5.15l-8.07,32.09c-.26,1.02-.87,1.87-1.67,2.43-.97.69-2.23.96-3.48.65Z"/>
        <circle class="cls-6" cx="86.19" cy="32.37" r="16.97" transform="translate(33.7 108.02) rotate(-75.83)"/>
        <path class="cls-8" d="M83.82,88.37l-22.01-5.53,2.82-11.21c.31-1.24,1.1-2.24,2.11-2.85,1.02-.61,2.27-.83,3.51-.52l13.03,3.28c1.16.29,2.11,1,2.73,1.92.7,1.05.97,2.38.64,3.7l-2.82,11.21Z"/>
        <rect class="cls-1" x="62.45" y="77.64" width="22.7" height="8.09" transform="translate(22.14 -15.53) rotate(14.11)"/>
      </g>
      <g>
        <path class="cls-7" d="M104.02,95.44l-16.02-5.54h0c.79-2.28,2.79-3.8,5.04-4.08.9-.11,1.84-.02,2.75.29l4.44,1.54c1.36.47,2.45,1.37,3.17,2.5.97,1.52,1.25,3.45.62,5.29h0Z"/>
        <path class="cls-7" d="M58.51,79.7l-16.02-5.54h0c.79-2.28,2.79-3.8,5.04-4.08.9-.11,1.84-.02,2.75.29l4.44,1.54c1.36.47,2.45,1.37,3.17,2.5.97,1.52,1.25,3.45.62,5.29h0Z"/>
      </g>
      <path class="cls-8" d="M109.29,108l-78.7-27.21c-.66-.23-1.19-.72-1.54-1.38-.63-1.17-.73-2.87-.14-4.57h0c.55-1.58,1.56-2.79,2.68-3.38.76-.4,1.57-.51,2.32-.26l78.7,27.21c.92.32,1.57,1.14,1.88,2.22.3,1.08.26,2.4-.19,3.73h0c-.46,1.32-1.25,2.39-2.15,3.05s-1.93.91-2.85.59Z"/>
    </g>
  </g>
  <g id="Top_BGS" data-name="Top BGS">
    <path class="cls-5" d="M126.13,53.82c.35,2.43.4,4.15.4,4.49.12,14.1-8.78,23.52-11.09,25.97-7.1,7.52-15.11,5.21-21.19,7.17-7.9,2.56-31.52,10.2-53.66-2.71-4.62-2.7-23.53-8.73-25.25-28.82-.22-2.56-.14-5.05.17-7.45-5.17-.79-10.33-1.68-15.5-2.69v91.93h141.73V51.67c-5.2.81-10.4,1.53-15.6,2.15Z"/>
  </g>
  <g id="Texts">
    <g>
      <rect class="cls-4" x="0" y="87.41" width="141.73" height="54.32"/>
      <path class="cls-2" d="M36.28,101.93c.13-.37.37-.54.75-.54h1.02c.38,0,.64.18.75.54l3.55,10.05c.16.46-.05.77-.54.77h-.74c-.38,0-.64-.18-.75-.54l-.8-2.37h-3.99l-.78,2.35c-.11.38-.37.56-.75.56h-.74c-.5,0-.71-.3-.54-.77l3.55-10.05ZM39.02,108.16l-1.01-3.04c-.19-.64-.45-1.76-.45-1.76h-.03s-.26,1.12-.45,1.76l-1.02,3.04h2.96Z"/>
      <path class="cls-2" d="M47.48,104.4c1.31,0,2.19.48,2.67.82.34.22.35.56.13.91l-.21.32c-.24.37-.51.37-.9.18-.34-.22-.88-.5-1.58-.5-1.5,0-2.48,1.14-2.48,2.53s.98,2.56,2.55,2.56c.8,0,1.44-.35,1.82-.62.4-.22.7-.18.91.21l.16.3c.19.35.14.67-.18.9-.5.37-1.49.95-2.9.95-2.71,0-4.43-1.91-4.43-4.27s1.73-4.27,4.43-4.27Z"/>
      <path class="cls-2" d="M55.87,104.4c1.31,0,2.19.48,2.67.82.34.22.35.56.13.91l-.21.32c-.24.37-.51.37-.9.18-.34-.22-.88-.5-1.58-.5-1.5,0-2.48,1.14-2.48,2.53s.98,2.56,2.55,2.56c.8,0,1.44-.35,1.82-.62.4-.22.7-.18.91.21l.16.3c.19.35.14.67-.18.9-.5.37-1.49.95-2.9.95-2.71,0-4.43-1.91-4.43-4.27s1.73-4.27,4.43-4.27Z"/>
      <path class="cls-2" d="M63.99,104.4c2.32,0,3.62,1.65,3.62,3.89,0,.35-.3.69-.7.69h-4.98c.13,1.47,1.22,2.24,2.45,2.24.75,0,1.38-.29,1.76-.53.4-.19.69-.14.9.22l.19.32c.19.37.13.69-.22.9-.53.34-1.49.82-2.77.82-2.71,0-4.39-1.95-4.39-4.27,0-2.51,1.7-4.27,4.15-4.27ZM65.6,107.74c-.03-1.14-.72-1.81-1.65-1.81-1.04,0-1.78.72-1.97,1.81h3.62Z"/>
      <path class="cls-2" d="M68.73,111.2l.19-.29c.24-.34.51-.37.91-.16.38.21.99.56,1.83.56.7,0,1.14-.32,1.14-.83,0-1.33-4.05-.83-4.05-3.63,0-1.6,1.41-2.45,3.12-2.45,1.09,0,1.84.35,2.27.59.37.19.42.53.24.9l-.16.29c-.19.38-.5.43-.9.26-.35-.16-.88-.4-1.55-.4s-1.1.29-1.1.8c0,1.35,4.05.82,4.05,3.6,0,1.44-1.22,2.51-3.11,2.51-1.31,0-2.22-.5-2.72-.83-.37-.21-.4-.56-.16-.91Z"/>
      <path class="cls-2" d="M75.88,111.2l.19-.29c.24-.34.51-.37.91-.16.38.21.99.56,1.83.56.7,0,1.14-.32,1.14-.83,0-1.33-4.05-.83-4.05-3.63,0-1.6,1.41-2.45,3.12-2.45,1.09,0,1.84.35,2.27.59.37.19.42.53.24.9l-.16.29c-.19.38-.5.43-.9.26-.35-.16-.88-.4-1.55-.4s-1.1.29-1.1.8c0,1.35,4.05.82,4.05,3.6,0,1.44-1.22,2.51-3.11,2.51-1.31,0-2.22-.5-2.72-.83-.37-.21-.4-.56-.16-.91Z"/>
      <path class="cls-2" d="M83.39,102.54v-.48c0-.43.22-.67.66-.67h.7c.43,0,.67.24.67.67v.48c0,.43-.24.66-.67.66h-.7c-.43,0-.66-.22-.66-.66ZM83.39,105.26c0-.43.22-.67.66-.67h.7c.43,0,.66.24.66.67v6.82c0,.45-.22.67-.66.67h-.7c-.43,0-.66-.22-.66-.67v-6.82Z"/>
      <path class="cls-2" d="M87.42,102.06c0-.43.24-.67.67-.67h.69c.45,0,.67.24.67.67v2.96c0,.4-.05.69-.05.69h.03s.72-1.31,2.5-1.31c2.16,0,3.6,1.75,3.6,4.26s-1.62,4.29-3.73,4.29c-1.84,0-2.5-1.38-2.5-1.38h-.03s.03.13.03.35v.26c0,.35-.22.58-.67.58h-.54c-.43,0-.67-.22-.67-.67v-10.02ZM91.4,111.23c1.14,0,2.06-.91,2.06-2.53s-.83-2.56-2.02-2.56c-1.06,0-2.06.78-2.06,2.53,0,1.33.69,2.56,2.02,2.56Z"/>
      <path class="cls-2" d="M97.05,102.06c0-.43.22-.67.66-.67h.7c.43,0,.66.24.66.67v7.99c0,.8.34.94.64.98.29.03.5.21.5.58v.54c0,.42-.19.69-.67.69-1.09,0-2.48-.29-2.48-2.62v-8.15Z"/>
      <path class="cls-2" d="M105.18,104.4c2.32,0,3.62,1.65,3.62,3.89,0,.35-.3.69-.7.69h-4.98c.13,1.47,1.22,2.24,2.45,2.24.75,0,1.38-.29,1.76-.53.4-.19.69-.14.9.22l.19.32c.19.37.13.69-.22.9-.53.34-1.49.82-2.77.82-2.71,0-4.39-1.95-4.39-4.27,0-2.51,1.7-4.27,4.15-4.27ZM106.78,107.74c-.03-1.14-.72-1.81-1.65-1.81-1.04,0-1.78.72-1.97,1.81h3.62Z"/>
      <path class="cls-2" d="M51.15,119.4c1.79,0,2.38,1.17,2.38,1.17h.03s-.03-.21-.03-.46v-3.04c0-.43.22-.67.66-.67h.71c.43,0,.66.24.66.67v10.02c0,.45-.22.67-.66.67h-.59c-.43,0-.66-.21-.66-.61v-.32c0-.16.03-.29.03-.29h-.03s-.69,1.41-2.56,1.41c-2.21,0-3.63-1.75-3.63-4.27s1.54-4.27,3.7-4.27ZM51.54,126.23c1.06,0,2.05-.77,2.05-2.58,0-1.26-.66-2.51-2.03-2.51-1.1,0-2.05.91-2.05,2.53s.83,2.56,2.03,2.56Z"/>
      <path class="cls-2" d="M61.24,119.4c2.32,0,3.62,1.65,3.62,3.89,0,.35-.3.69-.7.69h-4.98c.13,1.47,1.22,2.24,2.45,2.24.75,0,1.38-.29,1.76-.53.4-.19.69-.14.9.22l.19.32c.19.37.13.69-.22.9-.53.34-1.49.82-2.77.82-2.71,0-4.39-1.95-4.39-4.27,0-2.51,1.7-4.27,4.15-4.27ZM62.84,122.74c-.03-1.14-.72-1.81-1.65-1.81-1.04,0-1.78.72-1.97,1.81h3.62Z"/>
      <path class="cls-2" d="M65.6,120.36c-.16-.46.03-.77.53-.77h.75c.38,0,.64.18.75.56l1.52,4.5c.16.48.3,1.23.3,1.23h.03s.13-.75.29-1.23l1.52-4.5c.11-.38.37-.56.75-.56h.75c.5,0,.7.3.54.77l-2.46,6.85c-.13.38-.37.54-.75.54h-1.28c-.38,0-.64-.16-.75-.54l-2.5-6.85Z"/>
      <path class="cls-2" d="M74.64,117.54v-.48c0-.43.22-.67.66-.67h.7c.43,0,.67.24.67.67v.48c0,.43-.24.66-.67.66h-.7c-.43,0-.66-.22-.66-.66ZM74.64,120.26c0-.43.22-.67.66-.67h.7c.43,0,.66.24.66.67v6.82c0,.45-.22.67-.66.67h-.7c-.43,0-.66-.22-.66-.67v-6.82Z"/>
      <path class="cls-2" d="M82.6,119.4c1.31,0,2.19.48,2.67.82.34.22.35.56.13.91l-.21.32c-.24.37-.51.37-.9.18-.34-.22-.88-.5-1.58-.5-1.5,0-2.48,1.14-2.48,2.53s.98,2.56,2.54,2.56c.8,0,1.44-.35,1.82-.62.4-.22.7-.18.91.21l.16.3c.19.35.14.67-.18.9-.5.37-1.49.95-2.9.95-2.71,0-4.43-1.91-4.43-4.27s1.73-4.27,4.43-4.27Z"/>
      <path class="cls-2" d="M90.72,119.4c2.32,0,3.62,1.65,3.62,3.89,0,.35-.3.69-.7.69h-4.98c.13,1.47,1.22,2.24,2.45,2.24.75,0,1.38-.29,1.76-.53.4-.19.69-.14.9.22l.19.32c.19.37.13.69-.22.9-.53.34-1.49.82-2.77.82-2.71,0-4.39-1.95-4.39-4.27,0-2.51,1.7-4.27,4.15-4.27ZM92.32,122.74c-.03-1.14-.72-1.81-1.65-1.81-1.04,0-1.78.72-1.97,1.81h3.62Z"/>
    </g>
  </g>
</svg>