<?xml version="1.0" encoding="UTF-8"?>
<svg xmlns="http://www.w3.org/2000/svg" viewBox="0 0 141.73 141.73">
  <defs>
    <style>
      .cls-1 {
        fill: #e6e7e8;
        stroke: #58595b;
        stroke-miterlimit: 10;
        stroke-width: .5px;
      }

      .cls-2 {
        fill: #414042;
      }
    </style>
  </defs>
  <g id="Bottom_BGS" data-name="Bottom BGS">
    <rect class="cls-1" x="0" y="0" width="141.73" height="141.73"/>
  </g>
  <g id="Texts">
    <g>
      <path class="cls-2" d="M10.79,31.32l3.98-10.91h1.42l4.02,10.91h-1.27l-2.46-6.8c-.14-.4-.3-.88-.48-1.45-.18-.56-.4-1.26-.64-2.1h.24c-.24.85-.45,1.55-.64,2.12-.19.57-.34,1.04-.48,1.42l-2.4,6.8h-1.3ZM12.71,28.18v-1.07h5.57v1.07h-5.57Z"/>
      <path class="cls-2" d="M28.83,31.43c-.56,0-1.04-.11-1.46-.34-.42-.23-.74-.57-.98-1.02s-.35-1.01-.35-1.68v-5.25h1.15v5.16c0,.65.18,1.16.53,1.53.36.37.83.56,1.43.56.42,0,.78-.09,1.11-.27.32-.18.58-.44.77-.77.19-.34.28-.74.28-1.21v-5h1.17v8.19h-1.12v-1.95h.16c-.24.74-.6,1.27-1.07,1.58-.48.31-1.01.47-1.62.47Z"/>
      <path class="cls-2" d="M37.58,31.5c-.55,0-1.03-.08-1.46-.25-.42-.16-.78-.41-1.05-.73-.28-.32-.46-.71-.56-1.17l1.1-.26c.12.47.34.82.68,1.04.34.23.76.34,1.28.34.59,0,1.06-.13,1.42-.4s.54-.58.54-.95c0-.31-.1-.56-.31-.77-.21-.21-.52-.36-.95-.46l-1.35-.32c-.72-.17-1.26-.44-1.62-.81-.36-.37-.53-.83-.53-1.4,0-.46.13-.87.38-1.22.26-.35.6-.63,1.05-.83.44-.2.95-.3,1.52-.3.54,0,1,.08,1.38.24.38.16.69.39.94.68s.43.63.56,1.03l-1.05.27c-.12-.33-.32-.62-.6-.86-.28-.24-.68-.37-1.22-.37s-.94.12-1.28.36c-.34.24-.51.55-.51.93,0,.32.12.58.34.79.23.2.59.36,1.08.48l1.25.3c.72.17,1.25.44,1.6.8.35.36.53.82.53,1.38,0,.47-.13.89-.4,1.26-.27.37-.63.66-1.11.87-.47.21-1.02.31-1.64.31Z"/>
      <path class="cls-2" d="M46.1,31.5c-.78,0-1.45-.18-2.02-.54-.57-.36-1.01-.85-1.31-1.48-.31-.63-.46-1.36-.46-2.2s.15-1.57.45-2.21c.3-.64.73-1.14,1.27-1.5s1.18-.54,1.91-.54c.44,0,.87.08,1.29.23.42.15.8.39,1.13.72s.61.75.81,1.26c.2.51.3,1.14.3,1.86v.49h-6.39v-.98h5.77l-.54.37c0-.56-.09-1.06-.27-1.5-.18-.44-.45-.79-.8-1.04-.35-.25-.78-.38-1.29-.38s-.95.13-1.32.38c-.37.26-.65.59-.85,1.01s-.3.87-.3,1.36v.62c0,.63.11,1.16.32,1.62.21.45.52.8.92,1.04.4.24.86.36,1.39.36.35,0,.67-.05.94-.16s.51-.26.71-.46c.19-.19.34-.42.44-.68l1.11.32c-.13.38-.34.72-.63,1.02s-.66.54-1.09.72c-.43.18-.93.27-1.49.27Z"/>
      <path class="cls-2" d="M51.44,31.32v-8.19h1.11v1.27h.08c.16-.41.44-.75.83-1s.84-.38,1.35-.38c.09,0,.19,0,.3,0,.12,0,.21.01.28.02v1.16s-.12-.02-.25-.03c-.13-.02-.28-.03-.44-.03-.41,0-.77.09-1.09.26-.32.17-.57.41-.75.71-.18.3-.27.65-.27,1.04v5.19h-1.15Z"/>
      <path class="cls-2" d="M64.43,31.5c-.73,0-1.37-.18-1.92-.54-.55-.36-.98-.85-1.29-1.49-.31-.63-.46-1.37-.46-2.21s.15-1.58.46-2.22c.31-.64.74-1.13,1.29-1.49.55-.35,1.19-.53,1.92-.53s1.37.18,1.92.53c.55.35.99.85,1.3,1.49.31.64.46,1.38.46,2.22s-.16,1.57-.46,2.21c-.31.63-.74,1.13-1.3,1.49-.55.36-1.2.54-1.92.54ZM64.43,30.46c.56,0,1.02-.15,1.4-.44.37-.29.65-.68.84-1.17.19-.48.28-1.01.28-1.58s-.09-1.1-.28-1.59-.46-.88-.84-1.18c-.37-.29-.84-.44-1.4-.44s-1.01.15-1.38.44c-.37.3-.65.69-.84,1.17-.19.49-.28,1.02-.28,1.59s.09,1.1.28,1.58c.19.48.47.87.84,1.17s.83.44,1.38.44Z"/>
      <path class="cls-2" d="M71.26,26.32v5h-1.15v-8.19h1.11v1.95s-.16,0-.16,0c.24-.74.59-1.26,1.07-1.58.47-.32,1.02-.47,1.64-.47.55,0,1.04.11,1.45.34.42.23.74.57.98,1.02.23.45.35,1.01.35,1.68v5.25h-1.16v-5.16c0-.65-.18-1.16-.53-1.53-.35-.37-.83-.56-1.43-.56-.41,0-.78.09-1.11.27-.33.18-.59.43-.78.77-.19.33-.29.74-.29,1.21Z"/>
      <path class="cls-2" d="M80.11,20.41v10.91h-1.15v-10.91h1.15Z"/>
      <path class="cls-2" d="M82.39,34.28l.3-1,.13.04c.28.08.53.1.76.07.23-.04.44-.15.62-.34.18-.19.34-.49.47-.88l.29-.79-3.13-8.24h1.26l1.82,5c.18.49.33.97.46,1.45.13.48.26.95.4,1.4h-.42c.14-.45.28-.92.41-1.41.13-.48.29-.97.46-1.45l1.83-5h1.25l-3.62,9.47c-.16.42-.35.76-.57,1.03-.22.27-.48.48-.77.61-.29.13-.62.2-.99.2-.22,0-.41-.02-.58-.05-.17-.03-.29-.07-.38-.11Z"/>
      <path class="cls-2" d="M96.34,20.41v10.91h-1.15v-10.91h1.15Z"/>
      <path class="cls-2" d="M102.02,31.5c-.73,0-1.37-.18-1.92-.54-.55-.36-.98-.85-1.29-1.49-.31-.63-.46-1.37-.46-2.21s.15-1.58.46-2.22c.31-.64.74-1.13,1.29-1.49.55-.35,1.19-.53,1.92-.53s1.37.18,1.92.53c.55.35.99.85,1.3,1.49.31.64.46,1.38.46,2.22s-.16,1.57-.46,2.21c-.31.63-.74,1.13-1.3,1.49-.55.36-1.2.54-1.92.54ZM102.02,30.46c.56,0,1.02-.15,1.4-.44.37-.29.65-.68.84-1.17.19-.48.28-1.01.28-1.58s-.09-1.1-.28-1.59-.46-.88-.84-1.18c-.37-.29-.84-.44-1.4-.44s-1.01.15-1.38.44c-.37.3-.65.69-.84,1.17-.19.49-.28,1.02-.28,1.59s.09,1.1.28,1.58c.19.48.47.87.84,1.17s.83.44,1.38.44Z"/>
      <path class="cls-2" d="M110.96,31.5c-.73,0-1.37-.18-1.92-.54-.55-.36-.98-.85-1.29-1.49-.31-.63-.46-1.37-.46-2.21s.16-1.58.46-2.22c.31-.64.74-1.13,1.29-1.49.55-.35,1.19-.53,1.92-.53s1.37.18,1.92.53c.55.35.99.85,1.3,1.49.31.64.47,1.38.47,2.22s-.16,1.57-.47,2.21c-.31.63-.74,1.13-1.3,1.49-.55.36-1.2.54-1.92.54ZM110.96,30.46c.56,0,1.02-.15,1.4-.44.37-.29.65-.68.84-1.17.19-.48.28-1.01.28-1.58s-.09-1.1-.28-1.59-.47-.88-.84-1.18c-.37-.29-.84-.44-1.4-.44s-1.01.15-1.38.44c-.37.3-.65.69-.84,1.17-.19.49-.28,1.02-.28,1.59s.09,1.1.28,1.58c.19.48.47.87.84,1.17s.83.44,1.38.44Z"/>
      <path class="cls-2" d="M116.64,31.32v-10.91h1.15v10.91h-1.15ZM117.71,28.32v-1.46h.23l3.64-3.73h1.44l-3.78,3.85h-.12s-1.41,1.33-1.41,1.33ZM121.78,31.32l-3.22-4.09.83-.81,3.87,4.9h-1.48Z"/>
      <path class="cls-2" d="M127.41,31.5c-.55,0-1.03-.08-1.46-.25-.42-.16-.78-.41-1.05-.73-.28-.32-.46-.71-.56-1.17l1.1-.26c.12.47.34.82.68,1.04.34.23.76.34,1.28.34.59,0,1.06-.13,1.42-.4s.53-.58.53-.95c0-.31-.1-.56-.31-.77-.21-.21-.52-.36-.95-.46l-1.35-.32c-.72-.17-1.26-.44-1.62-.81-.36-.37-.54-.83-.54-1.4,0-.46.13-.87.38-1.22.26-.35.61-.63,1.05-.83.44-.2.95-.3,1.52-.3.54,0,1,.08,1.38.24.38.16.69.39.94.68s.43.63.56,1.03l-1.05.27c-.12-.33-.32-.62-.6-.86-.28-.24-.68-.37-1.22-.37s-.94.12-1.28.36c-.34.24-.51.55-.51.93,0,.32.11.58.34.79.23.2.59.36,1.08.48l1.25.3c.72.17,1.25.44,1.6.8.35.36.53.82.53,1.38,0,.47-.13.89-.4,1.26-.27.37-.63.66-1.11.87-.47.21-1.02.31-1.64.31Z"/>
      <path class="cls-2" d="M17.95,49.51c-.51,0-.97-.1-1.38-.29s-.75-.48-.99-.85c-.25-.37-.37-.82-.37-1.35,0-.44.08-.8.26-1.08s.4-.51.7-.69c.3-.17.63-.31,1.01-.4.38-.1.78-.17,1.2-.22.47-.06.86-.11,1.17-.15.31-.04.55-.1.71-.19.16-.09.24-.23.24-.44v-.12c0-.36-.07-.66-.21-.91-.14-.25-.34-.44-.61-.58-.27-.13-.6-.2-1-.2s-.73.06-1.01.18c-.29.12-.52.28-.7.46-.18.19-.32.39-.41.6l-1.11-.37c.2-.47.47-.85.81-1.12.34-.27.72-.47,1.14-.59.42-.12.84-.18,1.26-.18.3,0,.62.04.97.11.35.08.67.21.98.41.31.2.56.48.76.85.2.37.3.85.3,1.44v5.48h-1.14v-1.2h-.08c-.11.22-.27.44-.48.65-.21.21-.49.39-.82.53-.33.14-.73.21-1.18.21ZM18.14,48.49c.49,0,.91-.1,1.26-.31.35-.21.62-.48.81-.82.19-.34.28-.7.28-1.08v-1.16c-.06.07-.17.13-.35.18-.17.05-.37.1-.59.14-.22.04-.44.08-.66.1-.22.03-.4.05-.54.06-.39.05-.74.13-1.04.23-.3.11-.53.26-.7.46-.17.2-.25.46-.25.77s.08.57.23.78c.15.21.36.37.63.48.27.11.57.17.91.17Z"/>
      <path class="cls-2" d="M27.06,41.13v1h-4.07v-1h4.07ZM24.21,39.19h1.15v8.11c0,.39.08.67.25.85.17.18.43.26.78.25.08,0,.17-.02.29-.03.12-.02.22-.04.32-.05l.23.98c-.12.04-.25.08-.41.1-.15.02-.3.03-.45.03-.68.02-1.22-.15-1.6-.51-.38-.36-.57-.87-.57-1.52v-8.2Z"/>
      <path class="cls-2" d="M36.23,49.5c-.73,0-1.37-.18-1.92-.54-.55-.36-.98-.85-1.29-1.49-.31-.63-.46-1.37-.46-2.21s.16-1.58.46-2.22c.31-.64.74-1.13,1.29-1.49.55-.35,1.19-.53,1.92-.53s1.37.18,1.92.53c.55.35.99.85,1.3,1.49.31.64.47,1.38.47,2.22s-.16,1.57-.47,2.21c-.31.63-.74,1.13-1.3,1.49-.55.36-1.2.54-1.92.54ZM36.23,48.46c.56,0,1.02-.15,1.4-.44.37-.29.65-.68.84-1.17.19-.48.28-1.01.28-1.58s-.09-1.1-.28-1.59-.47-.88-.84-1.18c-.37-.29-.84-.44-1.4-.44s-1.01.15-1.38.44c-.37.3-.65.69-.84,1.17-.19.49-.28,1.02-.28,1.59s.09,1.1.28,1.58c.19.48.47.87.84,1.17s.83.44,1.38.44Z"/>
      <path class="cls-2" d="M43.06,44.32v5h-1.15v-8.19h1.11v1.95s-.16,0-.16,0c.24-.74.59-1.26,1.07-1.58.47-.32,1.02-.47,1.64-.47.55,0,1.04.11,1.45.34.42.23.74.57.98,1.02.23.45.35,1.01.35,1.68v5.25h-1.16v-5.16c0-.65-.18-1.16-.53-1.53-.35-.37-.83-.56-1.43-.56-.41,0-.78.09-1.11.27-.33.18-.59.43-.78.77-.19.33-.29.74-.29,1.21Z"/>
      <path class="cls-2" d="M54.13,49.5c-.78,0-1.45-.18-2.02-.54-.57-.36-1.01-.85-1.32-1.48-.31-.63-.46-1.36-.46-2.2s.15-1.57.45-2.21c.3-.64.73-1.14,1.27-1.5s1.18-.54,1.91-.54c.44,0,.87.08,1.29.23.42.15.8.39,1.14.72s.61.75.81,1.26c.2.51.3,1.14.3,1.86v.49h-6.39v-.98h5.77l-.54.37c0-.56-.09-1.06-.27-1.5-.18-.44-.45-.79-.8-1.04-.35-.25-.78-.38-1.29-.38s-.95.13-1.31.38c-.37.26-.65.59-.85,1.01s-.3.87-.3,1.36v.62c0,.63.11,1.16.32,1.62.21.45.52.8.92,1.04.4.24.86.36,1.39.36.35,0,.67-.05.95-.16s.51-.26.71-.46c.19-.19.34-.42.44-.68l1.11.32c-.13.38-.34.72-.63,1.02s-.66.54-1.09.72c-.43.18-.93.27-1.49.27Z"/>
      <path class="cls-2" d="M66.95,49.49c-.73,0-1.37-.18-1.92-.53-.55-.35-.98-.85-1.29-1.48-.31-.63-.46-1.37-.46-2.21s.15-1.58.46-2.22c.31-.64.74-1.13,1.29-1.49.55-.35,1.19-.53,1.92-.53.41,0,.78.06,1.13.17.35.11.66.27.94.46s.52.42.71.69.34.55.44.85l-1.11.33c-.05-.18-.13-.36-.25-.53-.12-.17-.27-.33-.45-.47-.18-.14-.39-.25-.62-.34-.24-.08-.5-.12-.79-.12-.55,0-1.01.15-1.38.44-.37.3-.65.68-.84,1.17-.19.48-.28,1.02-.28,1.6s.09,1.1.28,1.58c.19.48.47.87.84,1.16.37.29.83.44,1.38.44.29,0,.56-.04.81-.13.24-.08.46-.2.64-.34.18-.14.33-.31.45-.49.12-.18.21-.37.26-.55l1.1.32c-.09.31-.24.6-.44.87-.2.27-.44.5-.72.71-.28.21-.6.37-.95.48-.35.12-.74.17-1.15.17Z"/>
      <path class="cls-2" d="M75.43,49.5c-.73,0-1.37-.18-1.92-.54-.55-.36-.98-.85-1.29-1.49-.31-.63-.46-1.37-.46-2.21s.16-1.58.46-2.22c.31-.64.74-1.13,1.29-1.49.55-.35,1.19-.53,1.92-.53s1.37.18,1.92.53c.55.35.99.85,1.3,1.49.31.64.47,1.38.47,2.22s-.16,1.57-.47,2.21c-.31.63-.74,1.13-1.3,1.49-.55.36-1.2.54-1.92.54ZM75.43,48.46c.56,0,1.02-.15,1.4-.44.37-.29.65-.68.84-1.17.19-.48.28-1.01.28-1.58s-.09-1.1-.28-1.59-.47-.88-.84-1.18c-.37-.29-.84-.44-1.4-.44s-1.01.15-1.38.44c-.37.3-.65.69-.84,1.17-.19.49-.28,1.02-.28,1.59s.09,1.1.28,1.58c.19.48.47.87.84,1.17s.83.44,1.38.44Z"/>
      <path class="cls-2" d="M81.11,49.32v-8.19h1.11v1.27h.08c.16-.41.44-.75.83-1s.84-.38,1.35-.38c.09,0,.19,0,.3,0,.11,0,.21.01.27.02v1.16s-.12-.02-.25-.03c-.13-.02-.28-.03-.44-.03-.41,0-.77.09-1.09.26-.32.17-.57.41-.75.71-.18.3-.27.65-.27,1.04v5.19h-1.15Z"/>
      <path class="cls-2" d="M87.97,44.32v5h-1.15v-8.19h1.11v1.95s-.16,0-.16,0c.24-.74.59-1.26,1.07-1.58.47-.32,1.02-.47,1.64-.47.55,0,1.04.11,1.45.34.42.23.74.57.98,1.02.23.45.35,1.01.35,1.68v5.25h-1.16v-5.16c0-.65-.18-1.16-.53-1.53-.35-.37-.83-.56-1.43-.56-.41,0-.78.09-1.11.27-.33.18-.59.43-.78.77-.19.33-.29.74-.29,1.21Z"/>
      <path class="cls-2" d="M99.05,49.5c-.78,0-1.45-.18-2.02-.54-.57-.36-1.01-.85-1.32-1.48-.31-.63-.46-1.36-.46-2.2s.15-1.57.45-2.21c.3-.64.73-1.14,1.27-1.5s1.18-.54,1.91-.54c.44,0,.87.08,1.29.23.42.15.8.39,1.14.72s.61.75.81,1.26c.2.51.3,1.14.3,1.86v.49h-6.39v-.98h5.77l-.54.37c0-.56-.09-1.06-.27-1.5-.18-.44-.45-.79-.8-1.04-.35-.25-.78-.38-1.29-.38s-.95.13-1.31.38c-.37.26-.65.59-.85,1.01s-.3.87-.3,1.36v.62c0,.63.11,1.16.32,1.62.21.45.52.8.92,1.04.4.24.86.36,1.39.36.35,0,.67-.05.95-.16s.51-.26.71-.46c.19-.19.34-.42.44-.68l1.11.32c-.13.38-.34.72-.63,1.02s-.66.54-1.09.72c-.43.18-.93.27-1.49.27Z"/>
      <path class="cls-2" d="M104.39,49.32v-8.19h1.11v1.27h.08c.16-.41.44-.75.83-1s.84-.38,1.35-.38c.09,0,.19,0,.3,0,.11,0,.21.01.27.02v1.16s-.12-.02-.25-.03c-.13-.02-.28-.03-.44-.03-.41,0-.77.09-1.09.26-.32.17-.57.41-.75.71-.18.3-.27.65-.27,1.04v5.19h-1.15Z"/>
      <path class="cls-2" d="M117.38,49.5c-.73,0-1.37-.18-1.92-.54-.55-.36-.98-.85-1.29-1.49-.31-.63-.46-1.37-.46-2.21s.16-1.58.46-2.22c.31-.64.74-1.13,1.29-1.49.55-.35,1.19-.53,1.92-.53s1.37.18,1.92.53c.55.35.99.85,1.3,1.49.31.64.47,1.38.47,2.22s-.16,1.57-.47,2.21c-.31.63-.74,1.13-1.3,1.49-.55.36-1.2.54-1.92.54ZM117.38,48.46c.56,0,1.02-.15,1.4-.44.37-.29.65-.68.84-1.17.19-.48.28-1.01.28-1.58s-.09-1.1-.28-1.59-.47-.88-.84-1.18c-.37-.29-.84-.44-1.4-.44s-1.01.15-1.38.44c-.37.3-.65.69-.84,1.17-.19.49-.28,1.02-.28,1.59s.09,1.1.28,1.58c.19.48.47.87.84,1.17s.83.44,1.38.44Z"/>
      <path class="cls-2" d="M126.66,41.13v1h-4.67v-1h4.67ZM123.6,49.32v-9.32c0-.46.1-.84.31-1.15.21-.31.49-.54.83-.7.34-.16.71-.24,1.09-.24.29,0,.53.02.72.07s.33.09.43.13l-.32,1c-.07-.02-.16-.05-.27-.08-.11-.03-.25-.04-.44-.04-.41,0-.71.11-.9.33-.2.22-.3.54-.3.95v9.07h-1.16Z"/>
      <path class="cls-2" d="M41.56,59.13v1h-4.07v-1h4.07ZM38.72,57.19h1.15v8.11c0,.39.08.67.25.85.17.18.43.26.78.25.08,0,.17-.02.29-.03.11-.02.22-.04.32-.05l.23.98c-.12.04-.25.08-.41.1-.15.02-.3.03-.45.03-.68.02-1.22-.15-1.6-.51-.38-.36-.57-.87-.57-1.52v-8.2Z"/>
      <path class="cls-2" d="M44.4,62.32v5h-1.15v-10.91h1.15v4.67h-.21c.24-.74.59-1.26,1.07-1.58.47-.32,1.02-.47,1.64-.47.55,0,1.04.11,1.46.34.42.23.75.57.98,1.02.23.45.35,1.01.35,1.68v5.25h-1.17v-5.16c0-.65-.18-1.16-.53-1.53-.35-.37-.83-.56-1.43-.56-.41,0-.78.09-1.11.27-.33.18-.59.43-.78.77-.19.33-.29.74-.29,1.21Z"/>
      <path class="cls-2" d="M55.48,67.5c-.78,0-1.45-.18-2.02-.54-.57-.36-1.01-.85-1.32-1.48-.31-.63-.46-1.36-.46-2.2s.15-1.57.45-2.21c.3-.64.73-1.14,1.27-1.5s1.18-.54,1.91-.54c.44,0,.87.08,1.29.23.42.15.8.39,1.14.72s.61.75.81,1.26c.2.51.3,1.14.3,1.86v.49h-6.39v-.98h5.77l-.54.37c0-.56-.09-1.06-.27-1.5-.18-.44-.45-.79-.8-1.04-.35-.25-.78-.38-1.29-.38s-.95.13-1.31.38c-.37.26-.65.59-.85,1.01s-.3.87-.3,1.36v.62c0,.63.11,1.16.32,1.62.21.45.52.8.92,1.04.4.24.86.36,1.39.36.35,0,.67-.05.95-.16s.51-.26.71-.46c.19-.19.34-.42.44-.68l1.11.32c-.13.38-.34.72-.63,1.02s-.66.54-1.09.72c-.43.18-.93.27-1.49.27Z"/>
      <path class="cls-2" d="M65.04,67.32v-8.19h1.11v1.27h.08c.16-.41.44-.75.83-1s.84-.38,1.35-.38c.09,0,.19,0,.3,0,.11,0,.21.01.27.02v1.16s-.12-.02-.25-.03c-.13-.02-.28-.03-.44-.03-.41,0-.77.09-1.09.26-.32.17-.57.41-.75.71-.18.3-.27.65-.27,1.04v5.19h-1.15Z"/>
      <path class="cls-2" d="M73.56,67.5c-.73,0-1.37-.18-1.92-.54-.55-.36-.98-.85-1.29-1.49-.31-.63-.46-1.37-.46-2.21s.16-1.58.46-2.22c.31-.64.74-1.13,1.29-1.49.55-.35,1.19-.53,1.92-.53s1.37.18,1.92.53c.55.35.99.85,1.3,1.49.31.64.47,1.38.47,2.22s-.16,1.57-.47,2.21c-.31.63-.74,1.13-1.3,1.49-.55.36-1.2.54-1.92.54ZM73.56,66.46c.56,0,1.02-.15,1.4-.44.37-.29.65-.68.84-1.17.19-.48.28-1.01.28-1.58s-.09-1.1-.28-1.59-.47-.88-.84-1.18c-.37-.29-.84-.44-1.4-.44s-1.01.15-1.38.44c-.37.3-.65.69-.84,1.17-.19.49-.28,1.02-.28,1.59s.09,1.1.28,1.58c.19.48.47.87.84,1.17s.83.44,1.38.44Z"/>
      <path class="cls-2" d="M82.5,67.5c-.73,0-1.37-.18-1.92-.54-.55-.36-.98-.85-1.29-1.49-.31-.63-.46-1.37-.46-2.21s.15-1.58.46-2.22c.31-.64.74-1.13,1.29-1.49.55-.35,1.19-.53,1.92-.53s1.37.18,1.92.53c.55.35.99.85,1.3,1.49.31.64.46,1.38.46,2.22s-.16,1.57-.46,2.21c-.31.63-.74,1.13-1.3,1.49-.55.36-1.2.54-1.92.54ZM82.5,66.46c.56,0,1.02-.15,1.4-.44.37-.29.65-.68.84-1.17.19-.48.28-1.01.28-1.58s-.09-1.1-.28-1.59-.46-.88-.84-1.18c-.37-.29-.84-.44-1.4-.44s-1.01.15-1.38.44c-.37.3-.65.69-.84,1.17-.19.49-.28,1.02-.28,1.59s.09,1.1.28,1.58c.19.48.47.87.84,1.17s.83.44,1.38.44Z"/>
      <path class="cls-2" d="M88.19,67.32v-8.19h1.12v1.85s-.09,0-.09,0c.11-.45.29-.82.53-1.11s.53-.51.86-.66c.33-.14.67-.22,1.02-.22.6,0,1.08.18,1.46.55.38.37.62.86.73,1.47h-.17c.1-.42.28-.78.53-1.08.26-.3.57-.53.94-.7s.77-.24,1.2-.24c.48,0,.91.1,1.3.31.39.21.7.52.92.94.23.42.34.94.34,1.56v5.52h-1.16v-5.49c0-.62-.17-1.08-.51-1.36-.34-.28-.75-.43-1.23-.43-.38,0-.71.08-.99.24-.28.16-.5.38-.66.67-.16.28-.23.62-.23,1v5.37h-1.15v-5.6c0-.51-.16-.92-.48-1.22s-.72-.46-1.22-.46c-.34,0-.66.08-.96.24-.29.16-.53.39-.71.7-.18.31-.27.68-.27,1.12v5.21h-1.15Z"/>
      <path class="cls-2" d="M102.24,67.41c-.24,0-.45-.09-.63-.26s-.26-.38-.26-.63.09-.45.26-.63.38-.26.63-.26.45.09.63.26c.17.17.26.38.26.63s-.09.45-.26.63c-.17.17-.38.26-.63.26Z"/>
      <path class="cls-2" d="M26.12,85.32v-10.91h3.65c.81,0,1.48.14,2.01.43.54.29.94.68,1.21,1.18.27.5.4,1.07.4,1.72s-.13,1.21-.4,1.71c-.27.49-.67.88-1.2,1.15-.54.28-1.21.41-2.02.41h-2.97v-1.08h2.92c.57,0,1.04-.09,1.4-.27.36-.18.63-.43.8-.76.17-.33.26-.71.26-1.16s-.09-.85-.26-1.19c-.17-.34-.44-.6-.81-.78-.36-.18-.83-.28-1.41-.28h-2.37v9.84h-1.22ZM32.42,85.32l-2.64-4.92h1.37l2.68,4.92h-1.41Z"/>
      <path class="cls-2" d="M38.7,85.5c-.78,0-1.45-.18-2.02-.54-.57-.36-1.01-.85-1.31-1.48-.31-.63-.46-1.36-.46-2.2s.15-1.57.45-2.21c.3-.64.73-1.14,1.27-1.5s1.18-.54,1.91-.54c.44,0,.87.08,1.29.23.42.15.8.39,1.13.72s.61.75.81,1.26c.2.51.3,1.14.3,1.86v.49h-6.39v-.98h5.77l-.54.37c0-.56-.09-1.06-.27-1.5-.18-.44-.45-.79-.8-1.04-.35-.25-.78-.38-1.29-.38s-.95.13-1.32.38c-.37.26-.65.59-.85,1.01s-.3.87-.3,1.36v.62c0,.63.11,1.16.32,1.62.21.45.52.8.92,1.04.4.24.86.36,1.39.36.35,0,.67-.05.94-.16s.51-.26.71-.46c.19-.19.34-.42.44-.68l1.11.32c-.13.38-.34.72-.63,1.02s-.66.54-1.09.72c-.43.18-.93.27-1.49.27Z"/>
      <path class="cls-2" d="M44.04,88.38v-11.25h1.11v1.44h.13c.1-.2.25-.42.43-.66.18-.24.44-.45.76-.62s.74-.26,1.25-.26c.68,0,1.27.17,1.78.52.51.35.91.84,1.2,1.47.29.63.44,1.38.44,2.23s-.14,1.61-.43,2.24-.69,1.13-1.2,1.48c-.51.35-1.1.53-1.78.53-.5,0-.92-.09-1.25-.27-.33-.18-.58-.39-.77-.64-.19-.25-.33-.47-.43-.67h-.1v4.46h-1.15ZM47.57,84.46c.52,0,.96-.14,1.32-.43.36-.29.63-.67.81-1.16.18-.49.28-1.03.28-1.63s-.09-1.13-.27-1.61-.45-.86-.81-1.14c-.36-.28-.8-.42-1.33-.42s-.95.13-1.31.4c-.35.27-.62.64-.81,1.12-.18.48-.27,1.03-.27,1.65s.09,1.19.27,1.67c.18.49.45.87.81,1.14.36.27.79.41,1.3.41Z"/>
      <path class="cls-2" d="M56.4,85.5c-.73,0-1.37-.18-1.92-.54-.55-.36-.98-.85-1.29-1.49-.31-.63-.46-1.37-.46-2.21s.15-1.58.46-2.22c.31-.64.74-1.13,1.29-1.49.55-.35,1.19-.53,1.92-.53s1.37.18,1.92.53c.55.35.99.85,1.3,1.49.31.64.46,1.38.46,2.22s-.16,1.57-.46,2.21c-.31.63-.74,1.13-1.3,1.49-.55.36-1.2.54-1.92.54ZM56.4,84.46c.56,0,1.02-.15,1.4-.44.37-.29.65-.68.84-1.17.19-.48.28-1.01.28-1.58s-.09-1.1-.28-1.59-.46-.88-.84-1.18c-.37-.29-.84-.44-1.4-.44s-1.01.15-1.38.44c-.37.3-.65.69-.84,1.17-.19.49-.28,1.02-.28,1.59s.09,1.1.28,1.58c.19.48.47.87.84,1.17s.83.44,1.38.44Z"/>
      <path class="cls-2" d="M64.77,85.5c-.55,0-1.03-.08-1.46-.25-.42-.16-.78-.41-1.05-.73-.28-.32-.46-.71-.56-1.17l1.1-.26c.12.47.34.82.68,1.04.34.23.76.34,1.28.34.59,0,1.06-.13,1.42-.4s.53-.58.53-.95c0-.31-.1-.56-.31-.77-.21-.21-.52-.36-.95-.46l-1.35-.32c-.72-.17-1.26-.44-1.62-.81-.36-.37-.54-.83-.54-1.4,0-.46.13-.87.38-1.22.26-.35.61-.63,1.05-.83.44-.2.95-.3,1.52-.3.54,0,1,.08,1.38.24.38.16.69.39.94.68s.43.63.56,1.03l-1.05.27c-.12-.33-.32-.62-.6-.86-.28-.24-.68-.37-1.22-.37s-.94.12-1.28.36c-.34.24-.51.55-.51.93,0,.32.11.58.34.79.23.2.59.36,1.08.48l1.25.3c.72.17,1.25.44,1.6.8.35.36.53.82.53,1.38,0,.47-.13.89-.4,1.26-.27.37-.63.66-1.11.87-.47.21-1.02.31-1.64.31Z"/>
      <path class="cls-2" d="M70.49,75.71c-.22,0-.42-.08-.58-.23-.16-.15-.24-.34-.24-.55s.08-.41.24-.56.35-.23.58-.23.42.08.58.23c.16.15.25.34.25.56s-.08.4-.25.55c-.16.15-.36.23-.58.23ZM69.91,85.32v-8.19h1.15v8.19h-1.15Z"/>
      <path class="cls-2" d="M76.48,77.13v1h-4.07v-1h4.07ZM73.63,75.19h1.15v8.11c0,.39.08.67.25.85.17.18.43.26.78.25.08,0,.17-.02.29-.03.12-.02.22-.04.32-.05l.23.98c-.12.04-.25.08-.41.1-.15.02-.3.03-.45.03-.68.02-1.22-.15-1.6-.51-.38-.36-.57-.87-.57-1.52v-8.2Z"/>
      <path class="cls-2" d="M78.75,75.71c-.22,0-.42-.08-.58-.23-.16-.15-.24-.34-.24-.55s.08-.41.24-.56.35-.23.58-.23.42.08.58.23c.16.15.25.34.25.56s-.08.4-.25.55c-.16.15-.36.23-.58.23ZM78.17,85.32v-8.19h1.15v8.19h-1.15Z"/>
      <path class="cls-2" d="M85,85.5c-.73,0-1.37-.18-1.92-.54-.55-.36-.98-.85-1.29-1.49-.31-.63-.46-1.37-.46-2.21s.15-1.58.46-2.22c.31-.64.74-1.13,1.29-1.49.55-.35,1.19-.53,1.92-.53s1.37.18,1.92.53c.55.35.99.85,1.3,1.49.31.64.46,1.38.46,2.22s-.16,1.57-.46,2.21c-.31.63-.74,1.13-1.3,1.49-.55.36-1.2.54-1.92.54ZM85,84.46c.56,0,1.02-.15,1.4-.44.37-.29.65-.68.84-1.17.19-.48.28-1.01.28-1.58s-.09-1.1-.28-1.59-.46-.88-.84-1.18c-.37-.29-.84-.44-1.4-.44s-1.01.15-1.38.44c-.37.3-.65.69-.84,1.17-.19.49-.28,1.02-.28,1.59s.09,1.1.28,1.58c.19.48.47.87.84,1.17s.83.44,1.38.44Z"/>
      <path class="cls-2" d="M91.83,80.32v5h-1.15v-8.19h1.11v1.95s-.16,0-.16,0c.24-.74.59-1.26,1.07-1.58.47-.32,1.02-.47,1.64-.47.55,0,1.04.11,1.45.34.42.23.74.57.98,1.02.23.45.35,1.01.35,1.68v5.25h-1.16v-5.16c0-.65-.18-1.16-.53-1.53-.35-.37-.83-.56-1.43-.56-.41,0-.78.09-1.11.27-.33.18-.59.43-.78.77-.19.33-.29.74-.29,1.21Z"/>
      <path class="cls-2" d="M107,85.5c-.73,0-1.37-.18-1.92-.54-.55-.36-.98-.85-1.29-1.49-.31-.63-.46-1.37-.46-2.21s.16-1.58.46-2.22c.31-.64.74-1.13,1.29-1.49.55-.35,1.19-.53,1.92-.53s1.37.18,1.92.53c.55.35.99.85,1.3,1.49.31.64.47,1.38.47,2.22s-.16,1.57-.47,2.21c-.31.63-.74,1.13-1.3,1.49-.55.36-1.2.54-1.92.54ZM107,84.46c.56,0,1.02-.15,1.4-.44.37-.29.65-.68.84-1.17.19-.48.28-1.01.28-1.58s-.09-1.1-.28-1.59-.47-.88-.84-1.18c-.37-.29-.84-.44-1.4-.44s-1.01.15-1.38.44c-.37.3-.65.69-.84,1.17-.19.49-.28,1.02-.28,1.59s.09,1.1.28,1.58c.19.48.47.87.84,1.17s.83.44,1.38.44Z"/>
      <path class="cls-2" d="M112.69,85.32v-8.19h1.11v1.27h.08c.16-.41.44-.75.83-1s.84-.38,1.35-.38c.09,0,.19,0,.3,0,.11,0,.21.01.27.02v1.16s-.12-.02-.25-.03c-.13-.02-.28-.03-.44-.03-.41,0-.77.09-1.09.26-.32.17-.57.41-.75.71-.18.3-.27.65-.27,1.04v5.19h-1.15Z"/>
      <path class="cls-2" d="M10.38,103.32v-8.19h1.11v1.27h.08c.16-.41.44-.75.83-1s.84-.38,1.35-.38c.09,0,.19,0,.3,0,.12,0,.21.01.28.02v1.16s-.12-.02-.25-.03c-.13-.02-.28-.03-.44-.03-.41,0-.77.09-1.09.26-.32.17-.57.41-.75.71-.18.3-.27.65-.27,1.04v5.19h-1.15Z"/>
      <path class="cls-2" d="M19.02,103.5c-.78,0-1.45-.18-2.02-.54-.57-.36-1.01-.85-1.32-1.48-.31-.63-.46-1.36-.46-2.2s.15-1.57.45-2.21c.3-.64.73-1.14,1.27-1.5s1.18-.54,1.91-.54c.44,0,.87.08,1.29.23.42.15.8.39,1.14.72s.61.75.81,1.26c.2.51.3,1.14.3,1.86v.49h-6.39v-.98h5.77l-.54.37c0-.56-.09-1.06-.27-1.5-.18-.44-.45-.79-.8-1.04-.35-.25-.78-.38-1.29-.38s-.95.13-1.31.38c-.37.26-.65.59-.85,1.01s-.3.87-.3,1.36v.62c0,.63.11,1.16.32,1.62.21.45.52.8.92,1.04.4.24.86.36,1.39.36.35,0,.67-.05.95-.16s.51-.26.71-.46c.19-.19.34-.42.44-.68l1.11.32c-.13.38-.34.72-.63,1.02s-.66.54-1.09.72c-.43.18-.93.27-1.49.27Z"/>
      <path class="cls-2" d="M24.36,106.38v-11.25h1.11v1.44h.13c.1-.2.25-.42.43-.66.18-.24.44-.45.76-.62s.74-.26,1.25-.26c.68,0,1.27.17,1.78.52.51.35.91.84,1.2,1.47.29.63.44,1.38.44,2.23s-.14,1.61-.43,2.24-.69,1.13-1.2,1.48c-.51.35-1.11.53-1.78.53-.5,0-.92-.09-1.25-.27-.33-.18-.58-.39-.77-.64-.19-.25-.33-.47-.43-.67h-.09v4.46h-1.15ZM27.89,102.46c.52,0,.96-.14,1.32-.43.36-.29.63-.67.81-1.16.18-.49.27-1.03.27-1.63s-.09-1.13-.27-1.61-.45-.86-.81-1.14c-.36-.28-.8-.42-1.33-.42s-.95.13-1.31.4c-.35.27-.62.64-.81,1.12-.18.48-.28,1.03-.28,1.65s.09,1.19.28,1.67c.18.49.45.87.81,1.14.36.27.79.41,1.3.41Z"/>
      <path class="cls-2" d="M34.61,92.41v10.91h-1.15v-10.91h1.15Z"/>
      <path class="cls-2" d="M39.25,103.51c-.51,0-.97-.1-1.38-.29s-.75-.48-.99-.85c-.25-.37-.37-.82-.37-1.35,0-.44.09-.8.26-1.08s.4-.51.7-.69c.29-.17.63-.31,1.01-.4.38-.1.78-.17,1.2-.22.47-.06.86-.11,1.17-.15.31-.04.55-.1.71-.19.16-.09.24-.23.24-.44v-.12c0-.36-.07-.66-.21-.91-.14-.25-.34-.44-.61-.58-.27-.13-.6-.2-1-.2s-.73.06-1.01.18c-.29.12-.52.28-.7.46-.18.19-.32.39-.41.6l-1.11-.37c.2-.47.47-.85.81-1.12.34-.27.72-.47,1.14-.59.42-.12.84-.18,1.26-.18.3,0,.62.04.97.11.35.08.67.21.98.41.31.2.56.48.76.85.2.37.3.85.3,1.44v5.48h-1.13v-1.2h-.08c-.11.22-.27.44-.48.65-.21.21-.49.39-.82.53-.33.14-.72.21-1.18.21ZM39.44,102.49c.49,0,.91-.1,1.26-.31.35-.21.62-.48.81-.82.19-.34.28-.7.28-1.08v-1.16c-.06.07-.17.13-.35.18-.17.05-.37.1-.59.14-.22.04-.44.08-.66.1-.22.03-.4.05-.54.06-.39.05-.74.13-1.04.23-.3.11-.53.26-.7.46-.17.2-.25.46-.25.77s.08.57.23.78c.15.21.36.37.63.48.27.11.57.17.91.17Z"/>
      <path class="cls-2" d="M48.62,103.49c-.73,0-1.37-.18-1.92-.53-.55-.35-.98-.85-1.29-1.48-.31-.63-.46-1.37-.46-2.21s.15-1.58.46-2.22c.31-.64.74-1.13,1.29-1.49.55-.35,1.19-.53,1.92-.53.41,0,.78.06,1.13.17.35.11.66.27.94.46s.52.42.71.69.34.55.44.85l-1.11.33c-.05-.18-.13-.36-.25-.53-.12-.17-.27-.33-.45-.47-.18-.14-.39-.25-.62-.34-.24-.08-.5-.12-.79-.12-.55,0-1.01.15-1.38.44-.37.3-.65.68-.84,1.17-.19.48-.28,1.02-.28,1.6s.09,1.1.28,1.58c.19.48.47.87.84,1.16.37.29.83.44,1.38.44.29,0,.56-.04.81-.13.24-.08.46-.2.64-.34.18-.14.33-.31.45-.49.12-.18.21-.37.26-.55l1.1.32c-.09.31-.24.6-.44.87-.2.27-.44.5-.72.71-.28.21-.6.37-.95.48-.35.12-.74.17-1.15.17Z"/>
      <path class="cls-2" d="M57.21,103.5c-.78,0-1.45-.18-2.02-.54-.57-.36-1.01-.85-1.31-1.48-.31-.63-.46-1.36-.46-2.2s.15-1.57.45-2.21c.3-.64.73-1.14,1.27-1.5s1.18-.54,1.91-.54c.44,0,.87.08,1.29.23.42.15.8.39,1.13.72s.61.75.81,1.26c.2.51.3,1.14.3,1.86v.49h-6.39v-.98h5.77l-.54.37c0-.56-.09-1.06-.27-1.5-.18-.44-.45-.79-.8-1.04-.35-.25-.78-.38-1.29-.38s-.95.13-1.32.38c-.37.26-.65.59-.85,1.01s-.3.87-.3,1.36v.62c0,.63.11,1.16.32,1.62.21.45.52.8.92,1.04.4.24.86.36,1.39.36.35,0,.67-.05.94-.16s.51-.26.71-.46c.19-.19.34-.42.44-.68l1.11.32c-.13.38-.34.72-.63,1.02s-.66.54-1.09.72c-.43.18-.93.27-1.49.27Z"/>
      <path class="cls-2" d="M69.77,95.13v1h-4.07v-1h4.07ZM66.93,93.19h1.15v8.11c0,.39.08.67.25.85.17.18.43.26.78.25.08,0,.17-.02.29-.03.12-.02.22-.04.32-.05l.23.98c-.12.04-.25.08-.41.1-.15.02-.3.03-.45.03-.68.02-1.22-.15-1.6-.51-.38-.36-.57-.87-.57-1.52v-8.2Z"/>
      <path class="cls-2" d="M72.61,98.32v5h-1.15v-10.91h1.15v4.67h-.21c.24-.74.59-1.26,1.07-1.58.47-.32,1.02-.47,1.64-.47.55,0,1.04.11,1.46.34.42.23.75.57.98,1.02.23.45.35,1.01.35,1.68v5.25h-1.16v-5.16c0-.65-.18-1.16-.53-1.53-.35-.37-.83-.56-1.43-.56-.41,0-.78.09-1.11.27-.33.18-.59.43-.78.77-.19.33-.29.74-.29,1.21Z"/>
      <path class="cls-2" d="M83.68,103.5c-.78,0-1.45-.18-2.02-.54-.57-.36-1.01-.85-1.31-1.48-.31-.63-.46-1.36-.46-2.2s.15-1.57.45-2.21c.3-.64.73-1.14,1.27-1.5s1.18-.54,1.91-.54c.44,0,.87.08,1.29.23.42.15.8.39,1.13.72s.61.75.81,1.26c.2.51.3,1.14.3,1.86v.49h-6.39v-.98h5.77l-.54.37c0-.56-.09-1.06-.27-1.5-.18-.44-.45-.79-.8-1.04-.35-.25-.78-.38-1.29-.38s-.95.13-1.32.38c-.37.26-.65.59-.85,1.01s-.3.87-.3,1.36v.62c0,.63.11,1.16.32,1.62.21.45.52.8.92,1.04.4.24.86.36,1.39.36.35,0,.67-.05.94-.16s.51-.26.71-.46c.19-.19.34-.42.44-.68l1.11.32c-.13.38-.34.72-.63,1.02s-.66.54-1.09.72c-.43.18-.93.27-1.49.27Z"/>
      <path class="cls-2" d="M95.62,103.32l-3.13-8.19h1.26l1.82,5c.18.48.33.96.46,1.44.13.48.27.95.41,1.4h-.42c.15-.46.28-.92.41-1.4.13-.48.28-.96.46-1.44l1.82-5h1.26l-3.13,8.19h-1.22Z"/>
      <path class="cls-2" d="M102.21,93.71c-.22,0-.42-.08-.58-.23-.16-.15-.24-.34-.24-.55s.08-.41.24-.56.35-.23.58-.23.42.08.58.23c.16.15.25.34.25.56s-.08.4-.25.55c-.16.15-.36.23-.58.23ZM101.63,103.32v-8.19h1.15v8.19h-1.15Z"/>
      <path class="cls-2" d="M107.88,103.5c-.55,0-1.03-.08-1.46-.25-.42-.16-.78-.41-1.05-.73-.28-.32-.46-.71-.56-1.17l1.1-.26c.12.47.34.82.68,1.04.34.23.76.34,1.28.34.59,0,1.06-.13,1.42-.4s.53-.58.53-.95c0-.31-.1-.56-.31-.77-.21-.21-.52-.36-.95-.46l-1.35-.32c-.72-.17-1.26-.44-1.62-.81-.36-.37-.54-.83-.54-1.4,0-.46.13-.87.38-1.22.26-.35.61-.63,1.05-.83.44-.2.95-.3,1.52-.3.54,0,1,.08,1.38.24.38.16.69.39.94.68s.43.63.56,1.03l-1.05.27c-.12-.33-.32-.62-.6-.86-.28-.24-.68-.37-1.22-.37s-.94.12-1.28.36c-.34.24-.51.55-.51.93,0,.32.11.58.34.79.23.2.59.36,1.08.48l1.25.3c.72.17,1.25.44,1.6.8.35.36.53.82.53,1.38,0,.47-.13.89-.4,1.26-.27.37-.63.66-1.11.87-.47.21-1.02.31-1.64.31Z"/>
      <path class="cls-2" d="M115.82,103.43c-.56,0-1.04-.11-1.46-.34-.42-.23-.74-.57-.98-1.02s-.35-1.01-.35-1.68v-5.25h1.15v5.16c0,.65.18,1.16.53,1.53.36.37.83.56,1.43.56.42,0,.78-.09,1.11-.27.32-.18.58-.44.77-.77.19-.34.28-.74.28-1.21v-5h1.17v8.19h-1.12v-1.95h.16c-.24.74-.6,1.27-1.07,1.58-.48.31-1.01.47-1.62.47Z"/>
      <path class="cls-2" d="M124.09,103.51c-.51,0-.97-.1-1.38-.29s-.75-.48-.99-.85c-.25-.37-.37-.82-.37-1.35,0-.44.09-.8.26-1.08s.4-.51.7-.69c.29-.17.63-.31,1.01-.4.38-.1.78-.17,1.2-.22.47-.06.86-.11,1.17-.15.31-.04.55-.1.71-.19.16-.09.24-.23.24-.44v-.12c0-.36-.07-.66-.21-.91-.14-.25-.34-.44-.61-.58-.27-.13-.6-.2-1-.2s-.73.06-1.01.18c-.29.12-.52.28-.7.46-.18.19-.32.39-.41.6l-1.11-.37c.2-.47.47-.85.81-1.12.34-.27.72-.47,1.14-.59.42-.12.84-.18,1.26-.18.3,0,.62.04.97.11.35.08.67.21.98.41.31.2.56.48.76.85.2.37.3.85.3,1.44v5.48h-1.13v-1.2h-.08c-.11.22-.27.44-.48.65-.21.21-.49.39-.82.53-.33.14-.72.21-1.18.21ZM124.28,102.49c.49,0,.91-.1,1.26-.31.35-.21.62-.48.81-.82.19-.34.28-.7.28-1.08v-1.16c-.06.07-.17.13-.35.18-.17.05-.37.1-.59.14-.22.04-.44.08-.66.1-.22.03-.4.05-.54.06-.39.05-.74.13-1.04.23-.3.11-.53.26-.7.46-.17.2-.25.46-.25.77s.08.57.23.78c.15.21.36.37.63.48.27.11.57.17.91.17Z"/>
      <path class="cls-2" d="M131.36,92.41v10.91h-1.15v-10.91h1.15Z"/>
      <path class="cls-2" d="M43.48,121.5c-.55,0-1.03-.08-1.46-.25-.42-.16-.78-.41-1.05-.73-.28-.32-.46-.71-.56-1.17l1.1-.26c.12.47.34.82.68,1.04.34.23.76.34,1.28.34.59,0,1.06-.13,1.42-.4s.53-.58.53-.95c0-.31-.1-.56-.31-.77-.21-.21-.52-.36-.95-.46l-1.35-.32c-.72-.17-1.26-.44-1.62-.81-.36-.37-.54-.83-.54-1.4,0-.46.13-.87.38-1.22.26-.35.61-.63,1.05-.83.44-.2.95-.3,1.52-.3.54,0,1,.08,1.38.24.38.16.69.39.94.68s.43.63.56,1.03l-1.05.27c-.12-.33-.32-.62-.6-.86-.28-.24-.68-.37-1.22-.37s-.94.12-1.28.36c-.34.24-.51.55-.51.93,0,.32.11.58.34.79.23.2.59.36,1.08.48l1.25.3c.72.17,1.25.44,1.6.8.35.36.53.82.53,1.38,0,.47-.13.89-.4,1.26-.27.37-.63.66-1.11.87-.47.21-1.02.31-1.64.31Z"/>
      <path class="cls-2" d="M51.62,113.13v1h-4.07v-1h4.07ZM48.77,111.19h1.15v8.11c0,.39.08.67.25.85.17.18.43.26.78.25.08,0,.17-.02.29-.03.11-.02.22-.04.32-.05l.23.98c-.12.04-.25.08-.41.1-.15.02-.3.03-.45.03-.68.02-1.22-.15-1.6-.51-.38-.36-.57-.87-.57-1.52v-8.2Z"/>
      <path class="cls-2" d="M53.89,111.71c-.22,0-.42-.08-.58-.23-.16-.15-.24-.34-.24-.55s.08-.41.24-.56.35-.23.58-.23.42.08.58.23c.16.15.25.34.25.56s-.08.4-.25.55c-.16.15-.36.23-.58.23ZM53.31,121.32v-8.19h1.15v8.19h-1.15Z"/>
      <path class="cls-2" d="M56.87,121.32v-8.19h1.12v1.85s-.09,0-.09,0c.11-.45.29-.82.53-1.11s.53-.51.86-.66c.33-.14.67-.22,1.02-.22.6,0,1.08.18,1.46.55.38.37.62.86.73,1.47h-.17c.1-.42.28-.78.53-1.08.26-.3.57-.53.94-.7s.77-.24,1.2-.24c.48,0,.91.1,1.3.31.39.21.7.52.92.94.23.42.34.94.34,1.56v5.52h-1.16v-5.49c0-.62-.17-1.08-.51-1.36-.34-.28-.75-.43-1.23-.43-.38,0-.71.08-.99.24-.28.16-.5.38-.66.67-.16.28-.23.62-.23,1v5.37h-1.15v-5.6c0-.51-.16-.92-.48-1.22s-.72-.46-1.22-.46c-.34,0-.66.08-.96.24-.29.16-.53.39-.71.7-.18.31-.27.68-.27,1.12v5.21h-1.15Z"/>
      <path class="cls-2" d="M72.78,121.43c-.56,0-1.04-.11-1.46-.34-.42-.23-.74-.57-.98-1.02s-.35-1.01-.35-1.68v-5.25h1.15v5.16c0,.65.18,1.16.53,1.53.36.37.83.56,1.43.56.42,0,.78-.09,1.11-.27.32-.18.58-.44.77-.77.19-.34.28-.74.28-1.21v-5h1.17v8.19h-1.12v-1.95h.16c-.24.74-.6,1.27-1.07,1.58-.48.31-1.01.47-1.62.47Z"/>
      <path class="cls-2" d="M79.99,110.41v10.91h-1.15v-10.91h1.15Z"/>
      <path class="cls-2" d="M85.2,121.43c-.56,0-1.04-.11-1.46-.34-.42-.23-.74-.57-.98-1.02s-.35-1.01-.35-1.68v-5.25h1.15v5.16c0,.65.18,1.16.54,1.53.36.37.83.56,1.43.56.42,0,.79-.09,1.11-.27.33-.18.58-.44.77-.77.19-.34.28-.74.28-1.21v-5h1.16v8.19h-1.12v-1.95h.16c-.24.74-.6,1.27-1.07,1.58-.48.31-1.01.47-1.62.47Z"/>
      <path class="cls-2" d="M93.94,121.5c-.55,0-1.03-.08-1.46-.25-.42-.16-.78-.41-1.05-.73-.28-.32-.46-.71-.56-1.17l1.1-.26c.12.47.34.82.68,1.04.34.23.76.34,1.28.34.59,0,1.06-.13,1.42-.4s.53-.58.53-.95c0-.31-.1-.56-.31-.77-.21-.21-.52-.36-.95-.46l-1.35-.32c-.72-.17-1.26-.44-1.62-.81-.36-.37-.54-.83-.54-1.4,0-.46.13-.87.38-1.22.26-.35.61-.63,1.05-.83.44-.2.95-.3,1.52-.3.54,0,1,.08,1.38.24.38.16.69.39.94.68s.43.63.56,1.03l-1.05.27c-.12-.33-.32-.62-.6-.86-.28-.24-.68-.37-1.22-.37s-.94.12-1.28.36c-.34.24-.51.55-.51.93,0,.32.11.58.34.79.23.2.59.36,1.08.48l1.25.3c.72.17,1.25.44,1.6.8.35.36.53.82.53,1.38,0,.47-.13.89-.4,1.26-.27.37-.63.66-1.11.87-.47.21-1.02.31-1.64.31Z"/>
      <path class="cls-2" d="M100.01,121.41c-.24,0-.45-.09-.63-.26s-.26-.38-.26-.63.09-.45.26-.63.38-.26.63-.26.45.09.63.26c.17.17.26.38.26.63s-.09.45-.26.63c-.17.17-.38.26-.63.26Z"/>
    </g>
  </g>
</svg>