<?xml version="1.0" encoding="UTF-8"?>
<svg xmlns="http://www.w3.org/2000/svg" viewBox="0 0 141.73 141.73">
  <defs>
    <style>
      .cls-1 {
        fill: #f1f2f2;
      }

      .cls-2 {
        fill: none;
      }

      .cls-3 {
        fill: #f15b5c;
      }

      .cls-4 {
        fill: #ec724a;
        stroke: #ec724a;
        stroke-miterlimit: 10;
        stroke-width: .5px;
      }

      .cls-5 {
        fill: #234c89;
      }
    </style>
  </defs>
  <g id="Bottom_BGS" data-name="Bottom BGS">
    <path class="cls-4" d="M119.15,60.59c-2.75,10.04-10.96,20.04-20.39,21.83-8.13,1.55-17.4-2.3-24.38,2.15-4.16,2.65-6.29,7.65-10.22,10.64-2.99,2.28-6.82,3.23-10.58,3.42-11.06.56-22.2-5.42-27.84-14.95-4.53-7.66-5.33-17.32-2.46-25.71-7.79-.83-15.56-1.75-23.29-2.74v86.5h141.73V58.02c-7.5,1.12-15.03,1.97-22.58,2.57Z"/>
  </g>
  <g id="Elements">
    <g>
      <rect class="cls-3" x="36.96" y="2.4" width="72.09" height="51.03"/>
      <polygon class="cls-5" points="129.1 93.92 16.9 93.92 36.6 56.33 109.41 56.33 129.1 93.92"/>
    </g>
  </g>
  <g id="Top_BGS" data-name="Top BGS">
    <path class="cls-4" d="M26.05,52.09c3.71-6.01,9.36-10.52,14.97-14.81,7.89-6.03,16.05-11.9,25.24-15.68,9.19-3.77,19.6-5.32,29.12-2.46,13.92,4.18,23.06,18.32,24.64,32.35.32,2.88,0,5.99-.86,9.1,7.56-.6,15.09-1.45,22.58-2.57V0H0v55.23c7.73.98,15.5,1.91,23.29,2.74.7-2.05,1.62-4.03,2.76-5.88Z"/>
  </g>
  <g id="Texts">
    <g>
      <rect class="cls-2" x="0" y="87.41" width="141.73" height="54.32"/>
      <path class="cls-1" d="M13,109.56c0-.43.22-.67.66-.67h5.2c.43,0,.67.24.67.67v.45c0,.43-.24.66-.67.66h-3.81v3.22h3.11c.43,0,.67.22.67.66v.45c0,.43-.24.67-.67.67h-3.11v3.92c0,.45-.22.67-.66.67h-.74c-.43,0-.66-.22-.66-.67v-10.02Z"/>
      <path class="cls-1" d="M20.76,109.56c0-.43.22-.67.66-.67h.7c.43,0,.66.24.66.67v7.99c0,.8.34.94.64.98.29.03.5.21.5.58v.54c0,.42-.19.69-.67.69-1.09,0-2.48-.29-2.48-2.62v-8.15Z"/>
      <path class="cls-1" d="M29.16,111.9c2.48,0,4.5,1.78,4.5,4.27s-2.02,4.27-4.5,4.27-4.48-1.76-4.48-4.27,2-4.27,4.48-4.27ZM29.16,118.72c1.33,0,2.43-1.02,2.43-2.54s-1.1-2.54-2.43-2.54-2.42,1.04-2.42,2.54,1.09,2.54,2.42,2.54Z"/>
      <path class="cls-1" d="M39.12,111.9c2.48,0,4.5,1.78,4.5,4.27s-2.02,4.27-4.5,4.27-4.48-1.76-4.48-4.27,2-4.27,4.48-4.27ZM39.12,118.72c1.33,0,2.43-1.02,2.43-2.54s-1.1-2.54-2.43-2.54-2.42,1.04-2.42,2.54,1.09,2.54,2.42,2.54Z"/>
      <path class="cls-1" d="M45.1,112.76c0-.43.22-.67.66-.67h.62c.43,0,.67.24.67.67v.77c0,.3-.05.56-.05.56h.03c.32-.98,1.22-2.06,2.37-2.06.45,0,.61.22.61.67v.62c0,.43-.26.67-.69.67-1.49,0-2.21,1.47-2.21,2.96v2.62c0,.45-.22.67-.66.67h-.7c-.43,0-.66-.22-.66-.67v-6.82Z"/>
      <path class="cls-1" d="M55.1,112.76c0-.43.24-.67.67-.67h.51c.43,0,.66.24.66.56v.37c0,.18-.02.32-.02.32h.03s.72-1.44,2.62-1.44c2.21,0,3.63,1.74,3.63,4.27s-1.6,4.27-3.75,4.27c-1.7,0-2.35-1.25-2.35-1.25h-.03s.05.29.05.7v2.88c0,.45-.22.67-.67.67h-.69c-.43,0-.67-.22-.67-.67v-10.02ZM59.1,118.73c1.12,0,2.05-.91,2.05-2.53s-.83-2.56-2.02-2.56c-1.06,0-2.06.77-2.06,2.58,0,1.26.7,2.51,2.03,2.51Z"/>
      <path class="cls-1" d="M64.75,112.76c0-.43.22-.67.66-.67h.62c.43,0,.67.24.67.67v.77c0,.3-.05.56-.05.56h.03c.32-.98,1.22-2.06,2.37-2.06.45,0,.61.22.61.67v.62c0,.43-.26.67-.69.67-1.49,0-2.21,1.47-2.21,2.96v2.62c0,.45-.22.67-.66.67h-.7c-.43,0-.66-.22-.66-.67v-6.82Z"/>
      <path class="cls-1" d="M74.41,111.9c2.48,0,4.5,1.78,4.5,4.27s-2.02,4.27-4.5,4.27-4.48-1.76-4.48-4.27,2-4.27,4.48-4.27ZM74.41,118.72c1.33,0,2.43-1.02,2.43-2.54s-1.1-2.54-2.43-2.54-2.42,1.04-2.42,2.54,1.09,2.54,2.42,2.54Z"/>
      <path class="cls-1" d="M80.39,112.76c0-.43.24-.67.67-.67h.69c.45,0,.67.24.67.67v7.7c0,2.66-2.32,3.11-3.12,3.11h-.24c-.43,0-.66-.22-.66-.67v-.42c0-.51.32-.61.66-.66.56-.06,1.33-.24,1.33-1.49v-7.57ZM80.39,110.04v-.48c0-.43.24-.67.67-.67h.7c.43,0,.66.24.66.67v.48c0,.43-.22.66-.66.66h-.7c-.43,0-.67-.22-.67-.66Z"/>
      <path class="cls-1" d="M88.09,111.9c2.32,0,3.62,1.65,3.62,3.89,0,.35-.3.69-.7.69h-4.98c.13,1.47,1.22,2.24,2.45,2.24.75,0,1.38-.29,1.76-.53.4-.19.69-.14.9.22l.19.32c.19.37.13.69-.22.9-.53.34-1.49.82-2.77.82-2.71,0-4.39-1.95-4.39-4.27,0-2.51,1.7-4.27,4.15-4.27ZM89.69,115.24c-.03-1.14-.72-1.81-1.65-1.81-1.04,0-1.78.72-1.97,1.81h3.62Z"/>
      <path class="cls-1" d="M97.1,111.9c1.31,0,2.19.48,2.67.82.34.22.35.56.13.91l-.21.32c-.24.37-.51.37-.9.18-.34-.22-.88-.5-1.58-.5-1.5,0-2.48,1.14-2.48,2.53s.98,2.56,2.54,2.56c.8,0,1.44-.35,1.82-.62.4-.22.7-.18.91.21l.16.3c.19.35.14.67-.18.9-.5.37-1.49.94-2.9.94-2.71,0-4.43-1.9-4.43-4.27s1.73-4.27,4.43-4.27Z"/>
      <path class="cls-1" d="M102.11,113.82h-.43c-.43,0-.66-.22-.66-.67v-.27c0-.43.22-.67.67-.67h.46v-1.66c0-.43.24-.67.67-.67h.64c.43,0,.67.24.67.67v1.66h1.18c.43,0,.67.24.67.67v.27c0,.45-.24.67-.66.67h-1.2v3.17c0,1.22.75,1.46,1.31,1.52.5.05.67.21.67.66v.5c0,.48-.27.67-.83.67-1.46,0-3.18-.78-3.18-2.99v-3.52Z"/>
      <path class="cls-1" d="M107.48,110.04v-.48c0-.43.22-.67.66-.67h.7c.43,0,.67.24.67.67v.48c0,.43-.24.66-.67.66h-.7c-.43,0-.66-.22-.66-.66ZM107.48,112.76c0-.43.22-.67.66-.67h.7c.43,0,.66.24.66.67v6.82c0,.45-.22.67-.66.67h-.7c-.43,0-.66-.22-.66-.67v-6.82Z"/>
      <path class="cls-1" d="M115.48,111.9c2.48,0,4.5,1.78,4.5,4.27s-2.02,4.27-4.5,4.27-4.48-1.76-4.48-4.27,2-4.27,4.48-4.27ZM115.48,118.72c1.33,0,2.43-1.02,2.43-2.54s-1.1-2.54-2.43-2.54-2.42,1.04-2.42,2.54,1.09,2.54,2.42,2.54Z"/>
      <path class="cls-1" d="M121.47,112.76c0-.43.22-.67.66-.67h.62c.43,0,.66.24.66.67v.5c0,.18-.03.37-.03.37h.03c.35-.69,1.25-1.73,2.9-1.73,1.81,0,2.85.94,2.85,3.11v4.58c0,.45-.22.67-.67.67h-.69c-.43,0-.67-.22-.67-.67v-4.16c0-.99-.26-1.66-1.28-1.66-1.44,0-2.35,1.2-2.35,2.67v3.15c0,.45-.22.67-.66.67h-.7c-.43,0-.66-.22-.66-.67v-6.82Z"/>
    </g>
  </g>
</svg>