<?xml version="1.0" encoding="UTF-8"?>
<svg xmlns="http://www.w3.org/2000/svg" viewBox="0 0 141.73 141.73">
  <defs>
    <style>
      .cls-1 {
        fill: #fecc95;
      }

      .cls-2 {
        fill: #f1f2f2;
      }

      .cls-3 {
        fill: none;
      }

      .cls-4 {
        fill: #1f3a6e;
        stroke: #1f3a6e;
        stroke-miterlimit: 10;
        stroke-width: .5px;
      }

      .cls-5 {
        fill: #e5b17e;
      }
    </style>
  </defs>
  <g id="Bottom_BGS" data-name="Bottom BGS">
    <path class="cls-4" d="M0,0v50.76c6.01-.19,12.01-.28,17.99-.29-.26-11.19,3.72-22.5,11.64-30.19,10.18-9.86,23.02-9.73,38.52-10.3,6.2-.22,38.01-1.39,44.64,13.38,4,8.91-4.73,15.61-.18,28.77.5,1.45,1.07,2.71,1.68,3.82,9.13.87,18.27,1.78,27.43,2.7V0H0Z"/>
  </g>
  <g id="Elements">
    <g>
      <path class="cls-5" d="M72.11,34.41c3.65,0,7.31.02,10.96.03,6.58,0,11.84,5.28,11.91,11.87.09,8.68,6.6,15.3,14.45,16.33.94.12,1.89.03,2.81.18,2.37.39,3.98,1.7,4.68,4.05.03.11.12.2.17.3v2.19c-.06.1-.14.2-.17.31-.77,2.62-2.73,4.09-5.46,4.1-1.86.01-3.7-.14-5.52-.56-9.79-2.29-16.56-8.11-20.29-17.44-.81-2.03-1.25-4.18-1.57-6.53-.06.25-.09.31-.09.37,0,10.42,0,20.84,0,31.27-.07.05-.14.14-.22.15-2.77.38-5.55.73-8.32,1.14-1.18.17-2.39.18-3.54.54-.56.03-1.11.05-1.67.08,0,0,0-.06,0-.06,0-16.09,0-32.18,0-48.26.61-.02,1.22-.04,1.82-.05Z"/>
      <path class="cls-5" d="M36.1,95.14c-.07-.54-.57-.41-.86-.49-5.77-1.53-8-8.54-4.14-13.07,2.02-2.37,4.52-3.4,7.66-2.93,3.46.51,6.95.87,10.43,1.32,1.98.26,3.94.59,5.91.86.48.07.97.03,1.46.04.13.06.26.15.41.17,2.67.37,5.33.78,8.01,1.08,1.77.2,3.52.62,5.32.59,0,0,0,.06,0,.06,0,4.06.01,8.11.02,12.17,0,.06,0,.12,0,.19h-34.2Z"/>
      <path class="cls-1" d="M70.28,82.72c-1.8.03-3.55-.4-5.32-.59-2.68-.3-5.34-.71-8.01-1.08-.14-.02-.27-.11-.41-.17,0-5.64.11-11.28-.04-16.91-.11-4.17-.03-8.34-.11-12.51,0-.36,0-.73-.06-1.1-.47,2.6-1.17,5.12-2.34,7.49-4.02,8.15-10.46,13.27-19.31,15.33-1.99.46-4.02.67-6.06.56-2.1-.11-3.61-1.17-4.57-3.01-.97-1.87-.79-3.73.33-5.46,1.09-1.68,2.73-2.48,4.72-2.48,7.92.01,14.89-5.91,16.28-13.71.28-1.56.16-3.15.38-4.72.66-4.71,5.04-9.12,9.74-9.77.94-.13,1.88-.16,2.82-.16,3.44-.01,6.89-.02,10.33-.03.55,0,1.1,0,1.65,0v.06c-.01,16.09-.01,32.18-.02,48.26Z"/>
      <path class="cls-5" d="M72.11,34.41c-.61.02-1.22.04-1.82.05,0,0,0-.06,0-.06,0-9.13,0-18.25,0-27.38,6.47-.23,12.62,5,13.54,11.44.64,4.48-.52,8.39-3.57,11.68-2.08,2.25-4.68,3.64-7.74,4.11-.14.02-.28.1-.42.15Z"/>
      <path class="cls-5" d="M70.3,7.02c0,9.13,0,18.25,0,27.38-.55,0-1.1,0-1.65,0-1.22-.34-2.48-.5-3.65-1.04-4.57-2.11-7.42-5.56-8.24-10.57-.73-4.48.59-8.4,3.68-11.62,2.64-2.76,5.97-4.21,9.86-4.16Z"/>
      <path class="cls-1" d="M104.31,94.96c-8.17,0-16.33,0-24.5,0,.15-.23.43-.23.64-.3,2.28-.81,3.57-2.83,3.56-5.56-.01-2.03-1.56-4.14-3.59-4.79-2.14-.68-4.41-.65-6.6-1.07-.63-.12-1.4.16-1.87-.53,1.15-.36,2.36-.37,3.54-.54,2.77-.41,5.55-.76,8.32-1.14.08-.01.14-.1.22-.15,1.92.01,3.78-.42,5.67-.65,2.1-.25,4.2-.54,6.29-.82,1.95-.26,3.9-.48,5.84-.8,2.26-.37,4.31.14,6.11,1.46,2.26,1.65,3.49,3.92,3.5,6.76.01,3.8-2.91,7.27-6.64,7.93-.18.03-.37.01-.49.18Z"/>
      <path class="cls-5" d="M71.94,82.71c.47.69,1.24.41,1.87.53,2.19.41,4.46.38,6.6,1.07,2.03.65,3.58,2.76,3.59,4.79.02,2.73-1.28,4.75-3.56,5.56-.22.08-.49.07-.64.3-3.17,0-6.34,0-9.51,0,0-4.06-.01-8.11-.02-12.17.55-.03,1.11-.05,1.67-.08Z"/>
    </g>
  </g>
  <g id="Top_BGS" data-name="Top BGS">
    <path class="cls-4" d="M123.59,69.68c-.4,9.65-18.2,17.8-35.41,21.32-3.4.7-6.78,1.22-9.99,1.53-1.32.13-2.65.26-4.02.35-3.29.24-6.79.3-10.81-.21-1.06-.12-2.15-.3-3.29-.52-1.23-.23-3.05-.57-5.26-1.1-9.56-2.31-26.37-8.25-33.59-25.17-2.06-4.85-3.13-10.12-3.25-15.42-5.99,0-11.98.1-17.99.29v90.98h141.73V58.66c-9.16-.92-18.3-1.84-27.43-2.7,3.92,7.15,9.52,8.24,9.29,13.73Z"/>
  </g>
  <g id="Texts">
    <g>
      <rect class="cls-3" x="0" y="94.41" width="141.73" height="54.32"/>
      <path class="cls-2" d="M40.89,116.56c0-.43.22-.67.66-.67h3.07c1.12,0,1.68.1,2.16.3,1.15.48,1.9,1.57,1.9,3.11,0,1.34-.7,2.62-1.89,3.1v.03s.14.18.37.59l1.87,3.43c.27.46.06.8-.46.8h-.87c-.37,0-.61-.14-.78-.46l-2-3.78h-1.98v3.57c0,.45-.22.67-.66.67h-.74c-.43,0-.66-.22-.66-.67v-10.02ZM44.8,121.22c1.1,0,1.79-.69,1.79-1.81,0-.72-.27-1.3-.9-1.55-.27-.13-.62-.19-1.23-.19h-1.52v3.55h1.86Z"/>
      <path class="cls-2" d="M54.11,118.9c2.32,0,3.62,1.65,3.62,3.89,0,.35-.3.69-.7.69h-4.98c.13,1.47,1.22,2.24,2.45,2.24.75,0,1.38-.29,1.76-.53.4-.19.69-.14.9.22l.19.32c.19.37.13.69-.22.9-.53.34-1.49.82-2.77.82-2.71,0-4.39-1.95-4.39-4.27,0-2.51,1.7-4.27,4.15-4.27ZM55.71,122.24c-.03-1.14-.72-1.81-1.65-1.81-1.04,0-1.78.72-1.97,1.81h3.62Z"/>
      <path class="cls-2" d="M59.18,116.56c0-.43.22-.67.66-.67h.7c.43,0,.66.24.66.67v7.99c0,.8.34.94.64.98.29.03.5.21.5.58v.54c0,.42-.19.69-.67.69-1.09,0-2.48-.29-2.48-2.62v-8.15Z"/>
      <path class="cls-2" d="M67.81,122.21h.34v-.19c0-1.07-.69-1.44-1.52-1.44-.69,0-1.31.26-1.7.46-.4.18-.7.11-.9-.27l-.16-.3c-.19-.37-.13-.69.26-.9.53-.27,1.46-.67,2.67-.67,2.11,0,3.38,1.18,3.38,3.25v4.43c0,.45-.22.67-.67.67h-.54c-.43,0-.66-.22-.66-.67v-.32c0-.22.03-.35.03-.35h-.03s-.77,1.54-2.56,1.54c-1.49,0-2.71-.96-2.71-2.45,0-2.39,2.95-2.79,4.77-2.79ZM66.29,125.89c1.14,0,1.87-1.15,1.87-2.15v-.3h-.34c-1.02,0-2.77.16-2.77,1.38,0,.54.42,1.07,1.23,1.07Z"/>
      <path class="cls-2" d="M73.82,123.12l-2.11-3.23c-.3-.45-.11-.8.43-.8h.82c.37,0,.61.16.79.48l1.02,1.74c.11.21.26.51.26.51h.03s.16-.3.26-.51l1.02-1.74c.18-.32.42-.48.78-.48h.82c.54,0,.74.35.43.8l-2.1,3.23,2.18,3.33c.29.45.1.8-.45.8h-.77c-.37,0-.61-.14-.78-.46l-1.17-1.9c-.1-.18-.22-.43-.22-.43h-.03s-.11.26-.22.43l-1.15,1.9c-.19.32-.43.46-.78.46h-.78c-.54,0-.74-.35-.43-.8l2.18-3.33Z"/>
      <path class="cls-2" d="M80.03,117.04v-.48c0-.43.22-.67.66-.67h.7c.43,0,.67.24.67.67v.48c0,.43-.24.66-.67.66h-.7c-.43,0-.66-.22-.66-.66ZM80.03,119.76c0-.43.22-.67.66-.67h.7c.43,0,.66.24.66.67v6.82c0,.45-.22.67-.66.67h-.7c-.43,0-.66-.22-.66-.67v-6.82Z"/>
      <path class="cls-2" d="M84.06,119.76c0-.43.22-.67.66-.67h.62c.43,0,.66.24.66.67v.5c0,.18-.03.37-.03.37h.03c.35-.69,1.25-1.73,2.9-1.73,1.81,0,2.85.94,2.85,3.11v4.58c0,.45-.22.67-.67.67h-.69c-.43,0-.67-.22-.67-.67v-4.16c0-.99-.26-1.66-1.28-1.66-1.44,0-2.35,1.2-2.35,2.67v3.15c0,.45-.22.67-.66.67h-.7c-.43,0-.66-.22-.66-.67v-6.82Z"/>
      <path class="cls-2" d="M95.16,128.58c.38.14.9.3,1.65.3,1.25,0,2.3-.53,2.3-1.98v-.61c0-.19.03-.42.03-.42h-.03c-.45.77-1.15,1.22-2.24,1.22-2.39,0-3.7-1.89-3.7-4.15s1.25-4.05,3.68-4.05c1.91,0,2.42,1.25,2.42,1.25h.03s-.02-.08-.02-.21v-.3c0-.3.22-.54.66-.54h.54c.43,0,.66.24.66.67v7c0,2.8-2.21,3.86-4.23,3.86-.91,0-1.83-.19-2.39-.43-.42-.18-.53-.45-.35-.86l.13-.37c.18-.4.42-.51.85-.37ZM99.17,122.99c0-1.87-.93-2.37-1.98-2.37-1.26,0-1.95.9-1.95,2.24,0,1.47.74,2.51,2.05,2.51.96,0,1.89-.56,1.89-2.39Z"/>
    </g>
  </g>
</svg>