<?xml version="1.0" encoding="UTF-8"?>
<svg xmlns="http://www.w3.org/2000/svg" viewBox="0 0 141.73 141.73">
  <defs>
    <style>
      .cls-1 {
        fill: #55b6cf;
        stroke: #55b6cf;
      }

      .cls-1, .cls-2, .cls-3, .cls-4, .cls-5, .cls-6, .cls-7, .cls-8, .cls-9 {
        stroke-miterlimit: 10;
      }

      .cls-1, .cls-2, .cls-3, .cls-4, .cls-5, .cls-6, .cls-7, .cls-9 {
        stroke-width: 2px;
      }

      .cls-10 {
        fill: #f1f2f2;
      }

      .cls-2 {
        fill: #8581be;
        stroke: #8581be;
      }

      .cls-3, .cls-8 {
        fill: #ec724a;
        stroke: #ec724a;
      }

      .cls-11 {
        fill: none;
      }

      .cls-4 {
        fill: #234c89;
        stroke: #234c89;
      }

      .cls-5 {
        fill: #a1b860;
        stroke: #a1b860;
      }

      .cls-6 {
        fill: #f15b5c;
        stroke: #f15b5c;
      }

      .cls-7 {
        fill: #fcb44a;
        stroke: #fcb44a;
      }

      .cls-8 {
        stroke-width: .5px;
      }

      .cls-9 {
        fill: #414042;
        stroke: #414042;
      }
    </style>
  </defs>
  <g id="Bottom_BGS" data-name="Bottom BGS">
    <path class="cls-8" d="M0,0v50.76c6.01-.19,12.01-.28,17.99-.29-.26-11.19,3.72-22.5,11.64-30.19,10.18-9.86,23.02-9.73,38.52-10.3,6.2-.22,38.01-1.39,44.64,13.38,4,8.91-4.73,15.61-.18,28.77.5,1.45,1.07,2.71,1.68,3.82,9.13.87,18.27,1.78,27.43,2.7V0H0Z"/>
  </g>
  <g id="Elements">
    <g>
      <path class="cls-2" d="M43.62,69.25s0,0,0,.01c.29.57.84.24,1.26.12,1.04-.29,2.07-.62,3.1-.94,2.3-1.8,5.25-2.05,7.83-3.18.46-.27.88-.62,1.38-.81,12.86-4.86,25.73-9.71,38.59-14.55,7.51-2.82,15.03-5.61,22.52-8.46,2.79-1.06,3.22-3.47,1.06-5.21-1.26-1.01-2.43-.43-3.6.1-15.53,7.01-31.06,14.03-46.59,21.04"/>
      <path class="cls-4" d="M115.21,25.92c-.86-1.26-2.22-1.38-3.94-.32-.4.24-.75.56-1.11.87-9.71,8.21-20.25,15.29-31.07,21.96-10.93,6.74-22.24,12.83-33.66,18.72-.47.24-.93.55-1.32.9-.33.3-.72.73-.49,1.21l22.22-11c4.59-2.39,9.21-4.75,13.8-7.15,8.65-4.53,17.01-9.53,25.24-14.74,3.23-2.05,6.39-4.22,9.51-6.43,1.59-1.13,1.8-2.58.83-4.01Z"/>
      <path class="cls-5" d="M60.24,55.75c.18-.15.35-.31.53-.45,15.39-11.15,28.75-24.37,40.74-38.99,1.53-1.86,3.04-3.75,4.47-5.68,1.05-1.42.7-3.08-.73-4-1.54-1-2.52-.2-3.36,1.04-.49.72-.97,1.44-1.45,2.17-11.37,17.24-25.15,32.29-41.57,44.98-4.68,3.62-9.51,7.03-14.43,10.31-.44.3-1.35.54-.94,1.28.05.09.1.16.16.22,5.93-2.81,10.36-8.04,16.56-10.87Z"/>
      <path class="cls-1" d="M110.25,15.79c-1.12-1-2.26-.67-3.29.17-.47.38-.86.84-1.27,1.28-2.55,2.75-5.04,5.56-7.65,8.26-7.5,7.8-15.77,14.75-24.37,21.32-4.31,3.29-8.66,6.53-13.5,8.99.02-.02.05-.04.07-.06-6.21,2.83-10.63,8.06-16.56,10.87.44.46,1.09.08,1.62-.2.48-.24.96-.48,1.44-.74,9.08-4.88,17.89-10.19,26.43-15.92,12.58-8.45,24.41-17.83,35.33-28.31.72-.69,1.48-1.4,2.03-2.22.78-1.15.88-2.41-.28-3.44Z"/>
      <path class="cls-9" d="M116.2,95.62c-4.22-2.54-8.61-4.74-13.24-6.45-9.15-3.38-18.68-4.91-28.35-5.7-14.58-1.2-29.04.14-43.48,1.95-3.12.39-6.21.38-9.28-.31-3.09-.7-3.81-2.7-1.79-5.11,1.91-2.28,4.3-4.05,6.83-5.6,3.1-1.89,6.29-3.64,9.41-5.5,1.35-.8,2.33-1.07,2.59.98.08.63.44,1.27.78,1.83,1.32,2.14,1.33,2.12-1.12,3.08-3.33,1.3-6.72,2.46-9.69,4.51-.69.47-1.7.94-1.4,1.97.3,1.05,1.38.91,2.24.91,5.55,0,11.06-.68,16.59-.99,12.79-.72,25.56-.69,38.23,1.48,9.92,1.71,19.48,4.6,28.12,9.97,1.3.81,2.55,1.71,3.83,2.57-.09.14-.18.28-.27.42Z"/>
      <path class="cls-7" d="M57.42,68.32c6.27-.94,12.52-2.08,18.84-2.74,11.65-1.21,23.32-1.42,35.02-.78,5.87.32,11.73.77,17.56,1.56.6.08,1.23.13,1.78.37,1.4.6,1.81,1.74,1.5,3.14-.3,1.38-1.32,1.79-2.61,1.56-3.46-.63-6.89-1.37-10.36-1.94-23.71-3.89-47.28-3.03-70.73,1.79-.94.19-1.9.77-2.93.22.09-.77.73-.7,1.21-.87,3.65-.43,7.15-1.53,10.72-2.29Z"/>
      <path class="cls-3" d="M57.42,68.32c-3.57.76-7.07,1.86-10.72,2.29.42-.83,1.28-.94,2.04-1.16,25.04-7.29,50.52-12.02,76.74-12.33.27,0,.54-.04.81-.02,1.59.15,2.83.86,2.79,2.57-.04,1.75-1.38,2.35-2.96,2.31-2.56-.06-5.13-.25-7.69-.35-20.21-.74-40.04,1.91-59.69,6.19-.45.1-.88.32-1.32.49Z"/>
      <path class="cls-6" d="M47.99,68.45c2.3-1.8,5.25-2.05,7.83-3.18,6.34-2.08,12.69-4.17,19.04-6.23,14.91-4.84,30.07-8.74,45.48-11.7.4-.08.8-.15,1.2-.19,1.89-.19,3.11.58,3.35,2.1.24,1.54-.69,2.51-2.7,2.76-4.16.53-8.32,1-12.47,1.57-12.48,1.71-24.7,4.59-36.84,7.83-7.57,2.02-15.07,4.27-22.52,6.68-.77.25-1.54.54-2.38.35Z"/>
    </g>
  </g>
  <g id="Top_BGS" data-name="Top BGS">
    <path class="cls-8" d="M123.59,69.68c-.4,9.65-18.2,17.8-35.41,21.32-3.4.7-6.78,1.22-9.99,1.53-1.32.13-2.65.26-4.02.35-3.29.24-6.79.3-10.81-.21-1.06-.12-2.15-.3-3.29-.52-1.23-.23-3.05-.57-5.26-1.1-9.56-2.31-26.37-8.25-33.59-25.17-2.06-4.85-3.13-10.12-3.25-15.42-5.99,0-11.98.1-17.99.29v90.98h141.73V58.66c-9.16-.92-18.3-1.84-27.43-2.7,3.92,7.15,9.52,8.24,9.29,13.73Z"/>
  </g>
  <g id="Texts">
    <g>
      <rect class="cls-11" x="0" y="87.41" width="141.73" height="54.32"/>
      <path class="cls-10" d="M28.04,108.7c3.44,0,5.87,2.54,5.87,5.79s-2.43,5.95-5.87,5.95-5.87-2.61-5.87-5.95,2.43-5.79,5.87-5.79ZM28.04,118.56c2.18,0,3.75-1.76,3.75-4.07s-1.57-3.91-3.75-3.91-3.75,1.7-3.75,3.91,1.57,4.07,3.75,4.07Z"/>
      <path class="cls-10" d="M35.5,112.76c0-.43.24-.67.67-.67h.51c.43,0,.66.24.66.56v.37c0,.18-.02.32-.02.32h.03s.72-1.44,2.62-1.44c2.21,0,3.63,1.74,3.63,4.27s-1.6,4.27-3.75,4.27c-1.7,0-2.35-1.25-2.35-1.25h-.03s.05.29.05.7v2.88c0,.45-.22.67-.67.67h-.69c-.43,0-.67-.22-.67-.67v-10.02ZM39.5,118.73c1.12,0,2.05-.91,2.05-2.53s-.83-2.56-2.02-2.56c-1.06,0-2.06.77-2.06,2.58,0,1.26.7,2.51,2.03,2.51Z"/>
      <path class="cls-10" d="M45.53,113.82h-.43c-.43,0-.66-.22-.66-.67v-.27c0-.43.22-.67.67-.67h.46v-1.66c0-.43.24-.67.67-.67h.64c.43,0,.67.24.67.67v1.66h1.18c.43,0,.67.24.67.67v.27c0,.45-.24.67-.66.67h-1.2v3.17c0,1.22.75,1.46,1.31,1.52.5.05.67.21.67.66v.5c0,.48-.27.67-.83.67-1.46,0-3.18-.78-3.18-2.99v-3.52Z"/>
      <path class="cls-10" d="M50.91,110.04v-.48c0-.43.22-.67.66-.67h.7c.43,0,.67.24.67.67v.48c0,.43-.24.66-.67.66h-.7c-.43,0-.66-.22-.66-.66ZM50.91,112.76c0-.43.22-.67.66-.67h.7c.43,0,.66.24.66.67v6.82c0,.45-.22.67-.66.67h-.7c-.43,0-.66-.22-.66-.67v-6.82Z"/>
      <path class="cls-10" d="M58.86,111.9c1.31,0,2.19.48,2.67.82.34.22.35.56.13.91l-.21.32c-.24.37-.51.37-.9.18-.34-.22-.88-.5-1.58-.5-1.5,0-2.48,1.14-2.48,2.53s.98,2.56,2.55,2.56c.8,0,1.44-.35,1.82-.62.4-.22.7-.18.91.21l.16.3c.19.35.14.67-.18.9-.5.37-1.49.94-2.9.94-2.71,0-4.43-1.9-4.43-4.27s1.73-4.27,4.43-4.27Z"/>
      <path class="cls-10" d="M67.56,115.21h.34v-.19c0-1.07-.69-1.44-1.52-1.44-.69,0-1.31.26-1.7.46-.4.18-.7.11-.9-.27l-.16-.3c-.19-.37-.13-.69.26-.9.53-.27,1.46-.67,2.67-.67,2.11,0,3.38,1.18,3.38,3.25v4.43c0,.45-.22.67-.67.67h-.54c-.43,0-.66-.22-.66-.67v-.32c0-.22.03-.35.03-.35h-.03s-.77,1.54-2.56,1.54c-1.49,0-2.71-.96-2.71-2.45,0-2.39,2.95-2.79,4.77-2.79ZM66.04,118.89c1.14,0,1.87-1.15,1.87-2.15v-.3h-.34c-1.02,0-2.77.16-2.77,1.38,0,.54.42,1.07,1.23,1.07Z"/>
      <path class="cls-10" d="M71.8,109.56c0-.43.22-.67.66-.67h.7c.43,0,.66.24.66.67v7.99c0,.8.34.94.64.98.29.03.5.21.5.58v.54c0,.42-.19.69-.67.69-1.09,0-2.48-.29-2.48-2.62v-8.15Z"/>
      <path class="cls-10" d="M80.71,113.71h-.4c-.43,0-.66-.22-.66-.67v-.27c0-.43.22-.67.66-.67h.4v-.27c0-2.59,2.29-2.99,3.12-2.99h.24c.43,0,.66.22.66.67v.42c0,.43-.24.62-.69.66-.5.03-1.3.14-1.3,1.33v.19h4.31c.43,0,.67.24.67.67v6.82c0,.45-.24.67-.67.67h-.7c-.43,0-.66-.22-.66-.67v-5.87h-2.95v5.87c0,.45-.24.67-.67.67h-.7c-.43,0-.66-.22-.66-.67v-5.87ZM85.69,110.04v-.48c0-.43.22-.67.66-.67h.7c.43,0,.67.24.67.67v.48c0,.43-.24.66-.67.66h-.7c-.43,0-.66-.22-.66-.66Z"/>
      <path class="cls-10" d="M89.72,109.56c0-.43.24-.67.67-.67h.69c.45,0,.67.24.67.67v2.96c0,.4-.05.69-.05.69h.03s.72-1.31,2.5-1.31c2.16,0,3.6,1.74,3.6,4.26s-1.62,4.29-3.73,4.29c-1.84,0-2.5-1.38-2.5-1.38h-.03s.03.13.03.35v.26c0,.35-.22.58-.67.58h-.54c-.43,0-.67-.22-.67-.67v-10.02ZM93.71,118.73c1.14,0,2.06-.91,2.06-2.53s-.83-2.56-2.02-2.56c-1.06,0-2.06.78-2.06,2.53,0,1.33.69,2.56,2.02,2.56Z"/>
      <path class="cls-10" d="M103.02,111.9c2.32,0,3.62,1.65,3.62,3.89,0,.35-.3.69-.7.69h-4.98c.13,1.47,1.22,2.24,2.45,2.24.75,0,1.38-.29,1.76-.53.4-.19.69-.14.9.22l.19.32c.19.37.13.69-.22.9-.53.34-1.49.82-2.77.82-2.71,0-4.39-1.95-4.39-4.27,0-2.51,1.7-4.27,4.15-4.27ZM104.62,115.24c-.03-1.14-.72-1.81-1.65-1.81-1.04,0-1.78.72-1.97,1.81h3.62Z"/>
      <path class="cls-10" d="M108.11,112.76c0-.43.22-.67.66-.67h.62c.43,0,.67.24.67.67v.77c0,.3-.05.56-.05.56h.03c.32-.98,1.22-2.06,2.37-2.06.45,0,.61.22.61.67v.62c0,.43-.26.67-.69.67-1.49,0-2.21,1.47-2.21,2.96v2.62c0,.45-.22.67-.66.67h-.7c-.43,0-.66-.22-.66-.67v-6.82Z"/>
      <path class="cls-10" d="M113.71,118.7l.19-.29c.24-.34.51-.37.91-.16.38.21.99.56,1.83.56.7,0,1.14-.32,1.14-.83,0-1.33-4.05-.83-4.05-3.63,0-1.6,1.41-2.45,3.12-2.45,1.09,0,1.84.35,2.27.59.37.19.42.53.24.9l-.16.29c-.19.38-.5.43-.9.26-.35-.16-.88-.4-1.55-.4s-1.1.29-1.1.8c0,1.34,4.05.82,4.05,3.6,0,1.44-1.22,2.51-3.11,2.51-1.31,0-2.22-.5-2.72-.83-.37-.21-.4-.56-.16-.91Z"/>
    </g>
  </g>
</svg>