<?xml version="1.0" encoding="UTF-8"?>
<svg xmlns="http://www.w3.org/2000/svg" viewBox="0 0 141.73 141.73">
  <defs>
    <style>
      .cls-1 {
        fill: #f1f2f2;
      }

      .cls-2 {
        fill: none;
      }

      .cls-3 {
        fill: #fcb44a;
        stroke: #fcb44a;
        stroke-miterlimit: 10;
        stroke-width: .5px;
      }
    </style>
  </defs>
  <g id="Bottom_BGS" data-name="Bottom BGS">
    <path class="cls-3" d="M21.97,50.33c1.51-12.97,10.85-26.09,21.69-32.42.69-.4,1.38-.78,2.08-1.12,2.31-1.14,4.75-1.91,7.25-2.4.12-.02.24-.04.36-.06.24-.04.49-.09.74-.12,3.82-.62,7.79-.61,11.74-.29h0c.64.05,1.29.11,1.93.18,1.76.18,3.5.41,5.23.66.85.12,1.7.25,2.55.39.18.03.36.06.54.09.26.04.53.09.79.13h.01c.31.05.62.11.93.16,0,0,0,0,.01,0h0c.72.12,1.44.25,2.15.39,2.63.5,5.24,1.09,7.82,1.8.48.13.95.26,1.42.4,2.01.59,3.99,1.26,5.91,2.03.91.36,1.82.74,2.71,1.15.76.35,1.51.71,2.25,1.09.67.34,1.33.7,1.98,1.08,2.51,1.44,4.89,3.11,7.08,5.06,5.79,5.14,10.05,12.95,10.7,20.88,7.3.1,14.59.39,21.86.96V0H0v56.31c7.25-.34,14.51-.8,21.77-1.32-.05-1.54.01-3.1.19-4.65Z"/>
  </g>
  <g id="Top_BGS" data-name="Top BGS">
    <path class="cls-3" d="M119.87,49.4c.13,1.63.13,3.26-.06,4.88-.14,1.17-.35,2.34-.67,3.49-1.72,6.11-6.74,9.88-7.22,16.31-.37,4.98,2.59,9.15-.56,13.93-3.66,5.58-11.99,7.99-21.61,8.51-.43.02-.87.04-1.31.06-11.1.39-23.66-1.61-32.65-4.15-.13-.03-.26-.07-.39-.11-3.41-.98-6.29-2.04-8.34-3.06-11.59-5.79-21.42-16.03-24.56-28.85-.43-1.77-.66-3.58-.73-5.41-7.26.53-14.52.98-21.77,1.32v85.43h141.73V50.36c-7.27-.57-14.56-.86-21.86-.96Z"/>
  </g>
  <g id="Texts">
    <g>
      <rect class="cls-2" x="0" y="87.41" width="141.73" height="54.32"/>
      <path class="cls-1" d="M59.66,110.67h-3.06c-.45,0-.67-.22-.67-.66v-.45c0-.43.22-.67.67-.67h8.16c.43,0,.66.24.66.67v.45c0,.43-.22.66-.66.66h-3.06v8.92c0,.45-.22.67-.67.67h-.72c-.43,0-.66-.22-.66-.67v-8.92Z"/>
      <path class="cls-1" d="M68.84,111.9c2.32,0,3.62,1.65,3.62,3.89,0,.35-.3.69-.7.69h-4.98c.13,1.47,1.22,2.24,2.45,2.24.75,0,1.38-.29,1.76-.53.4-.19.69-.14.9.22l.19.32c.19.37.13.69-.22.9-.53.34-1.49.82-2.77.82-2.71,0-4.39-1.95-4.39-4.27,0-2.51,1.7-4.27,4.15-4.27ZM70.44,115.24c-.03-1.14-.72-1.81-1.65-1.81-1.04,0-1.78.72-1.97,1.81h3.62Z"/>
      <path class="cls-1" d="M73.58,118.7l.19-.29c.24-.34.51-.37.91-.16.38.21.99.56,1.83.56.7,0,1.14-.32,1.14-.83,0-1.33-4.05-.83-4.05-3.63,0-1.6,1.41-2.45,3.12-2.45,1.09,0,1.84.35,2.27.59.37.19.42.53.24.9l-.16.29c-.19.38-.5.43-.9.26-.35-.16-.88-.4-1.55-.4s-1.1.29-1.1.8c0,1.34,4.05.82,4.05,3.6,0,1.44-1.22,2.51-3.11,2.51-1.31,0-2.22-.5-2.72-.83-.37-.21-.4-.56-.16-.91Z"/>
      <path class="cls-1" d="M81.53,113.82h-.43c-.43,0-.66-.22-.66-.67v-.27c0-.43.22-.67.67-.67h.46v-1.66c0-.43.24-.67.67-.67h.64c.43,0,.67.24.67.67v1.66h1.18c.43,0,.67.24.67.67v.27c0,.45-.24.67-.66.67h-1.2v3.17c0,1.22.75,1.46,1.31,1.52.5.05.67.21.67.66v.5c0,.48-.27.67-.83.67-1.46,0-3.18-.78-3.18-2.99v-3.52Z"/>
    </g>
  </g>
</svg>