<?xml version="1.0" encoding="UTF-8"?>
<svg xmlns="http://www.w3.org/2000/svg" viewBox="0 0 141.73 141.73">
  <defs>
    <style>
      .cls-1 {
        fill: #f1f2f2;
      }

      .cls-2 {
        fill: #f15b5c;
        stroke: #e8f4f7;
      }

      .cls-2, .cls-3, .cls-4 {
        stroke-miterlimit: 10;
      }

      .cls-3 {
        fill: #8581be;
        stroke: #8581be;
      }

      .cls-3, .cls-4 {
        stroke-width: .5px;
      }

      .cls-5 {
        fill: none;
      }

      .cls-4 {
        fill: #a1b860;
        stroke: #a1b860;
      }

      .cls-6 {
        fill: #f592a1;
      }

      .cls-7 {
        fill: #55b6cf;
      }

      .cls-8 {
        fill: #fcb44a;
      }
    </style>
  </defs>
  <g id="Bottom_BGS" data-name="Bottom BGS">
    <path class="cls-4" d="M0,0v50.76c6.01-.19,12.01-.28,17.99-.29-.26-11.19,3.72-22.5,11.64-30.19,10.18-9.86,23.02-9.73,38.52-10.3,6.2-.22,38.01-1.39,44.64,13.38,4,8.91-4.73,15.61-.18,28.77.5,1.45,1.07,2.71,1.68,3.82,9.13.87,18.27,1.78,27.43,2.7V0H0Z"/>
  </g>
  <g id="Elements">
    <g>
      <path class="cls-6" d="M73.38,26.79c3.77,5.78,6.11,12.18,7.97,18.77.7,2.48,1.26,5,1.88,7.49.03.22.04.45.08.67,1.58,8.06,2.46,16.2,2.62,24.41-10.05,0-20.09,0-30.14,0,0-4.17.37-8.31.79-12.45.42-4.25,1.15-8.45,1.93-12.65,1.43-6.53,3.24-12.94,5.97-19.06,1.11-2.5,2.33-4.94,3.88-7.2,1.67.53,3.35.53,5.02,0Z"/>
      <path class="cls-3" d="M55.8,78.14c10.05,0,20.09,0,30.14,0,4.87,0,9.73,0,14.6,0,.57.02,1.14.02,1.71.06,1.75.11,2.82,1.18,2.84,2.92.03,3.42.03,6.84,0,10.26-.01,1.86-1.13,2.95-3.02,2.95-20.79,0-41.59,0-62.38,0-1.93,0-3.01-1.11-3.02-3.07-.02-3.31-.01-6.62,0-9.92,0-2.02,1.07-3.09,3.07-3.15.49-.01.99-.04,1.48-.05,4.86,0,9.72,0,14.59.01Z"/>
      <path class="cls-8" d="M100.53,78.13c-4.87,0-9.73,0-14.6,0-.16-8.21-1.04-16.35-2.62-24.41-.04-.22-.06-.45-.08-.67,7.34-7.16,16.49-9.87,26.4-10.73.04,1.94.57,3.7,1.82,5.22-3.01,2.4-4.74,5.69-6.21,9.13-2.13,4.99-3.28,10.24-4.02,15.59-.27,1.95-.46,3.92-.69,5.88Z"/>
      <path class="cls-7" d="M55.8,78.14c-4.86,0-9.72,0-14.59-.01-.68-6.77-1.65-13.47-4.08-19.88-1.39-3.64-3.06-7.12-5.9-9.9-.3-.29-.63-.55-.94-.82,1.25-1.51,1.78-3.28,1.82-5.21,8.94.73,17.3,3.07,24.38,8.89.7.58,1.35,1.22,2.02,1.83-.78,4.19-1.5,8.4-1.93,12.65-.41,4.14-.79,8.29-.79,12.45Z"/>
      <path class="cls-2" d="M73.38,26.79c-1.67.52-3.35.53-5.02,0-2.02-1.09-3.5-2.63-3.97-4.96-.6-2.98.76-5.35,3.12-6.9,2.32-1.52,5.53-1.09,7.53.61,4,3.4,2.72,9.05-1.31,10.97-.13.06-.23.18-.35.28Z"/>
      <path class="cls-2" d="M32.11,42.32c-.05,1.93-.58,3.7-1.82,5.21-1.14.97-2.38,1.65-3.89,1.97-4.08.85-8.32-3.47-7.49-7.57.69-3.45,3.73-5.67,6.65-5.56,3.05.12,5.89,2.24,6.32,5.58.02.13.15.25.23.37Z"/>
      <path class="cls-2" d="M111.45,47.54c-1.25-1.51-1.78-3.28-1.82-5.22.41-.76.42-1.63.86-2.41,1.39-2.46,3.52-3.64,6.26-3.51,2.65.13,4.58,1.65,5.6,4.02,1.09,2.53.65,4.93-1.28,7.03-2.19,2.38-6.06,3.24-9.61.08Z"/>
    </g>
  </g>
  <g id="Top_BGS" data-name="Top BGS">
    <path class="cls-4" d="M123.59,69.68c-.4,9.65-18.2,17.8-35.41,21.32-3.4.7-6.78,1.22-9.99,1.53-1.32.13-2.65.26-4.02.35-3.29.24-6.79.3-10.81-.21-1.06-.12-2.15-.3-3.29-.52-1.23-.23-3.05-.57-5.26-1.1-9.56-2.31-26.37-8.25-33.59-25.17-2.06-4.85-3.13-10.12-3.25-15.42-5.99,0-11.98.1-17.99.29v90.98h141.73V58.66c-9.16-.92-18.3-1.84-27.43-2.7,3.92,7.15,9.52,8.24,9.29,13.73Z"/>
  </g>
  <g id="Texts">
    <g>
      <rect class="cls-5" x="0" y="87.41" width="141.73" height="54.32"/>
      <path class="cls-1" d="M51.06,116.24h.75c.43,0,.59.18.64.64.06.91.48,1.68,1.49,1.68.78,0,1.47-.48,1.47-1.7v-6.19h-2.26c-.45,0-.67-.22-.67-.66v-.45c0-.43.22-.67.67-.67h3.65c.43,0,.67.24.67.67v7.33c0,2.48-1.79,3.55-3.54,3.55s-3.54-1.12-3.54-3.55c0-.43.22-.66.66-.66Z"/>
      <path class="cls-1" d="M63.52,111.9c2.48,0,4.5,1.78,4.5,4.27s-2.02,4.27-4.5,4.27-4.48-1.76-4.48-4.27,2-4.27,4.48-4.27ZM63.52,118.72c1.33,0,2.43-1.02,2.43-2.54s-1.1-2.54-2.43-2.54-2.42,1.04-2.42,2.54,1.09,2.54,2.42,2.54Z"/>
      <path class="cls-1" d="M69.51,109.56c0-.43.24-.67.67-.67h.69c.45,0,.67.24.67.67v5.41h1.01l1.7-2.43c.19-.32.43-.45.8-.45h.77c.54,0,.72.37.42.8l-2.03,2.85v.03l2.4,3.68c.27.46.1.8-.45.8h-.86c-.37,0-.61-.14-.79-.46l-1.9-3.1h-1.06v2.9c0,.45-.22.67-.67.67h-.69c-.43,0-.67-.22-.67-.67v-10.02Z"/>
      <path class="cls-1" d="M81.56,111.9c2.32,0,3.62,1.65,3.62,3.89,0,.35-.3.69-.7.69h-4.98c.13,1.47,1.22,2.24,2.45,2.24.75,0,1.38-.29,1.76-.53.4-.19.69-.14.9.22l.19.32c.19.37.13.69-.22.9-.53.34-1.49.82-2.77.82-2.71,0-4.39-1.95-4.39-4.27,0-2.51,1.7-4.27,4.15-4.27ZM83.16,115.24c-.03-1.14-.72-1.81-1.65-1.81-1.04,0-1.78.72-1.97,1.81h3.62Z"/>
      <path class="cls-1" d="M86.64,112.76c0-.43.22-.67.66-.67h.62c.43,0,.67.24.67.67v.77c0,.3-.05.56-.05.56h.03c.32-.98,1.22-2.06,2.37-2.06.45,0,.61.22.61.67v.62c0,.43-.26.67-.69.67-1.49,0-2.21,1.47-2.21,2.96v2.62c0,.45-.22.67-.66.67h-.7c-.43,0-.66-.22-.66-.67v-6.82Z"/>
    </g>
  </g>
</svg>