<?xml version="1.0" encoding="UTF-8"?>
<svg xmlns="http://www.w3.org/2000/svg" viewBox="0 0 141.73 141.73">
  <defs>
    <style>
      .cls-1 {
        fill: #f1f2f2;
      }

      .cls-2 {
        fill: none;
      }

      .cls-3 {
        fill: #fcb558;
      }

      .cls-4 {
        fill: #a1b860;
        stroke: #a1b860;
        stroke-miterlimit: 10;
        stroke-width: .5px;
      }

      .cls-5 {
        fill: #f4e972;
      }

      .cls-6 {
        fill: #fcb44a;
      }

      .cls-7 {
        fill: #f4e973;
      }
    </style>
  </defs>
  <g id="Bottom_BGS" data-name="Bottom BGS">
    <path class="cls-4" d="M46.9,16.2c9.17-3.63,27.13-7.31,37.31,1.17,3.94,3.28,4.83,5.66,9.77,8.95,5.34,3.56,12.18,3.19,17.97,5.62,1.37.57,2.64,1.29,3.83,2.13,7.16,5.08,9.56,14.24,10.36,19.74,5.2-.63,10.4-1.35,15.6-2.15V0H0v49.8c5.17,1,10.33,1.9,15.5,2.69,2.34-18,18.49-31.18,31.4-36.29Z"/>
  </g>
  <g id="Elements">
    <g>
      <path class="cls-3" d="M69.91,119.3c-.39.01-.77.04-1.16.04-18.23,0-36.47,0-54.7.03-1.05,0-1.34-.26-1.33-1.33.05-7.16.03-14.33.03-21.49,0-.39.03-.77.05-1.16,1.45-1.2,2.92-2.38,4.36-3.6,4.53-3.82,9.18-7.49,13.84-11.14,1.54-1.2,3.29-2.14,4.56-3.68,1.53-.77,2.79-1.92,4.18-2.9,6.77-4.82,13.61-9.53,21.12-13.14,2.88-1.39,5.82-2.67,9.09-2.9-.09.41-.14.84-.27,1.24-1.15,3.64-2.32,7.28-3.48,10.92-1.36,4.29.37,8.39,4.38,10.42,1.1.56,2.21,1.12,3.32,1.68,3.54,1.76,5.33,4.56,5.09,8.57-.08,1.38-.73,2.59-1.14,3.87-1.8,5.54-3.6,11.09-5.38,16.64-.85,2.64-1.85,5.24-2.55,7.93Z"/>
      <path class="cls-5" d="M69.91,119.3c.69-2.69,1.7-5.29,2.55-7.93,1.79-5.55,3.58-11.09,5.38-16.64.41-1.28,1.06-2.48,1.14-3.87.24-4.01-1.54-6.81-5.09-8.57-1.11-.55-2.21-1.12-3.32-1.68-4.01-2.03-5.74-6.13-4.38-10.42,1.15-3.64,2.32-7.28,3.48-10.92.13-.4.18-.82.27-1.24,3-.24,5.71.82,8.37,1.96,6.29,2.69,12.02,6.37,17.64,10.21,2.87,1.96,5.67,4.04,8.51,6.05.37.26.7.64,1.21.63.06.35.34.48.59.67,7.57,5.7,14.97,11.62,22.15,17.81.02,1.47.06,2.94.06,4.41,0,6.16,0,12.31,0,18.47,0,.59.11,1.11-.84,1.11-19.21-.04-38.41-.04-57.62-.05-.04,0-.08-.01-.12-.02Z"/>
      <path class="cls-7" d="M35.56,76.98c-1.27,1.54-3.02,2.48-4.56,3.68-4.67,3.65-9.32,7.31-13.84,11.14-1.44,1.22-2.91,2.4-4.36,3.6-.02-2.47-.05-4.95-.05-7.42,0-8.47,0-16.94,0-25.41,0-1.47.14-1.57,1.61-1.2,1.78.45,3.41,1.26,4.94,2.24,5.96,3.79,11.24,8.44,16.26,13.38Z"/>
      <path class="cls-3" d="M128.42,95.37c-7.18-6.19-14.58-12.1-22.15-17.81-.25-.19-.53-.32-.59-.67,4.76-4.54,9.64-8.94,15.15-12.59,1.9-1.26,3.88-2.4,6.13-2.96,1.4-.35,1.52-.24,1.52,1.18,0,10.52,0,21.05,0,31.57,0,.42-.04.85-.06,1.27Z"/>
      <path class="cls-6" d="M96.49,31.41c.02-5.14,4.19-9.29,9.32-9.29,5.17,0,9.29,4.21,9.32,9.43.02,4.35-3.37,9.25-9.45,9.29-5.12.03-9.2-4.25-9.18-9.43Z"/>
      <path class="cls-6" d="M124.49,33.18c-.81,0-1.62.04-2.43,0-1-.06-1.69-.55-1.78-1.61-.08-.92.67-1.68,1.79-1.72,1.62-.06,3.24-.06,4.85,0,1.09.04,1.9.84,1.79,1.73-.12,1.03-.79,1.56-1.8,1.61-.81.04-1.62,0-2.43,0h0Z"/>
      <path class="cls-6" d="M87.05,33.18c-.77,0-1.55.03-2.32,0-1.1-.06-1.87-.8-1.84-1.71.03-.88.75-1.59,1.81-1.63,1.62-.05,3.25-.05,4.88,0,1.06.04,1.76.76,1.77,1.64.01.92-.73,1.63-1.86,1.69-.81.04-1.63,0-2.44,0Z"/>
      <path class="cls-6" d="M117.29,21.76c-.74-.09-1.22-.34-1.52-.91-.33-.62-.27-1.26.17-1.73,1.27-1.35,2.56-2.68,3.93-3.92.64-.58,1.45-.5,2.09.14.62.62.79,1.41.17,2.08-1.28,1.39-2.65,2.7-4.01,4.01-.23.22-.63.26-.84.34Z"/>
      <path class="cls-6" d="M120.79,48.15c-.45.05-.87-.2-1.24-.58-1.11-1.12-2.25-2.23-3.35-3.37-.8-.84-.83-1.76-.13-2.46.69-.68,1.62-.63,2.46.18,1.16,1.13,2.31,2.28,3.44,3.44.48.5.71,1.1.36,1.8-.3.59-.74.98-1.54.98Z"/>
      <path class="cls-6" d="M96.05,20.03c-.07.76-.35,1.25-.91,1.53-.6.3-1.25.29-1.73-.18-1.33-1.28-2.65-2.58-3.91-3.93-.61-.66-.48-1.43.13-2.08.59-.62,1.36-.74,1.98-.23,1.52,1.24,2.88,2.66,4.16,4.15.18.21.21.56.27.73Z"/>
      <path class="cls-6" d="M90.72,48.14c-.66.02-1.08-.35-1.39-.88-.33-.56-.31-1.18.12-1.63,1.3-1.38,2.62-2.74,4.02-4.01.59-.54,1.41-.41,2.02.13.62.55.8,1.34.27,1.98-1.25,1.53-2.69,2.87-4.15,4.2-.24.22-.57.21-.89.21Z"/>
      <path class="cls-6" d="M107.43,12.79c0,.85.03,1.7,0,2.55-.05,1.06-.71,1.71-1.68,1.65-1.02-.06-1.54-.66-1.56-1.65-.03-1.7-.03-3.39,0-5.09.02-.94.75-1.62,1.61-1.62.86,0,1.57.68,1.62,1.63.04.85,0,1.7,0,2.54Z"/>
      <path class="cls-6" d="M107.43,50.24c0,.85.03,1.7-.01,2.54-.05.94-.77,1.62-1.63,1.61-.86,0-1.58-.7-1.6-1.64-.04-1.7-.03-3.39,0-5.09.02-.99.55-1.59,1.57-1.64.97-.05,1.6.59,1.67,1.66,0,.08,0,.15,0,.23,0,.77,0,1.54,0,2.31Z"/>
    </g>
  </g>
  <g id="Top_BGS" data-name="Top BGS">
    <path class="cls-4" d="M126.13,53.82c.35,2.43.4,4.15.4,4.49.12,14.1-8.78,23.52-11.09,25.97-7.1,7.52-15.11,5.21-21.19,7.17-7.9,2.56-31.52,10.2-53.66-2.71-4.62-2.7-23.53-8.73-25.25-28.82-.22-2.56-.14-5.05.17-7.45-5.17-.79-10.33-1.68-15.5-2.69v91.93h141.73V51.67c-5.2.81-10.4,1.53-15.6,2.15Z"/>
  </g>
  <g id="Texts">
    <g>
      <rect class="cls-2" x="0" y="87.41" width="141.73" height="54.32"/>
      <path class="cls-1" d="M48.13,109.56c0-.43.22-.67.66-.67h3.22c3.5,0,5.79,2.08,5.79,5.67s-2.29,5.7-5.79,5.7h-3.22c-.43,0-.66-.22-.66-.67v-10.02ZM51.89,118.48c2.3,0,3.78-1.36,3.78-3.92s-1.5-3.89-3.78-3.89h-1.71v7.81h1.71Z"/>
      <path class="cls-1" d="M63.12,111.9c2.32,0,3.62,1.65,3.62,3.89,0,.35-.3.69-.7.69h-4.98c.13,1.47,1.22,2.24,2.45,2.24.75,0,1.38-.29,1.76-.53.4-.19.69-.14.9.22l.19.32c.19.37.13.69-.22.9-.53.34-1.49.82-2.77.82-2.71,0-4.39-1.95-4.39-4.27,0-2.51,1.7-4.27,4.15-4.27ZM64.72,115.24c-.03-1.14-.72-1.81-1.65-1.81-1.04,0-1.78.72-1.97,1.81h3.62Z"/>
      <path class="cls-1" d="M67.86,118.7l.19-.29c.24-.34.51-.37.91-.16.38.21.99.56,1.83.56.7,0,1.14-.32,1.14-.83,0-1.33-4.05-.83-4.05-3.63,0-1.6,1.41-2.45,3.12-2.45,1.09,0,1.84.35,2.27.59.37.19.42.53.24.9l-.16.29c-.19.38-.5.43-.9.26-.35-.16-.88-.4-1.55-.4s-1.1.29-1.1.8c0,1.34,4.05.82,4.05,3.6,0,1.44-1.22,2.51-3.11,2.51-1.31,0-2.22-.5-2.72-.83-.37-.21-.4-.56-.16-.91Z"/>
      <path class="cls-1" d="M79.01,111.9c2.32,0,3.62,1.65,3.62,3.89,0,.35-.3.69-.7.69h-4.98c.13,1.47,1.22,2.24,2.45,2.24.75,0,1.38-.29,1.76-.53.4-.19.69-.14.9.22l.19.32c.19.37.13.69-.22.9-.53.34-1.49.82-2.77.82-2.71,0-4.39-1.95-4.39-4.27,0-2.51,1.7-4.27,4.15-4.27ZM80.61,115.24c-.03-1.14-.72-1.81-1.65-1.81-1.04,0-1.78.72-1.97,1.81h3.62Z"/>
      <path class="cls-1" d="M84.1,112.76c0-.43.22-.67.66-.67h.62c.43,0,.67.24.67.67v.77c0,.3-.05.56-.05.56h.03c.32-.98,1.22-2.07,2.37-2.07.45,0,.61.22.61.67v.62c0,.43-.26.67-.69.67-1.49,0-2.21,1.47-2.21,2.96v2.62c0,.45-.22.67-.66.67h-.7c-.43,0-.66-.22-.66-.67v-6.82Z"/>
      <path class="cls-1" d="M90.55,113.82h-.43c-.43,0-.66-.22-.66-.67v-.27c0-.43.22-.67.67-.67h.46v-1.67c0-.43.24-.67.67-.67h.64c.43,0,.67.24.67.67v1.67h1.18c.43,0,.67.24.67.67v.27c0,.45-.24.67-.66.67h-1.2v3.17c0,1.22.75,1.46,1.31,1.52.5.05.67.21.67.66v.5c0,.48-.27.67-.83.67-1.46,0-3.18-.78-3.18-2.99v-3.52Z"/>
    </g>
  </g>
</svg>