<?xml version="1.0" encoding="UTF-8"?>
<svg xmlns="http://www.w3.org/2000/svg" viewBox="0 0 141.73 141.73">
  <defs>
    <style>
      .cls-1 {
        fill: #1f3a6e;
      }

      .cls-2 {
        fill: #f1f2f2;
      }

      .cls-3 {
        fill: none;
      }

      .cls-4 {
        fill: #55b6cf;
      }

      .cls-5 {
        fill: #ec724a;
        stroke: #ec724a;
        stroke-miterlimit: 10;
        stroke-width: .5px;
      }

      .cls-6 {
        fill: #234c89;
      }
    </style>
  </defs>
  <g id="Bottom_BGS" data-name="Bottom BGS">
    <path class="cls-5" d="M46.9,16.2c9.17-3.63,27.13-7.31,37.31,1.17,3.94,3.28,4.83,5.66,9.77,8.95,5.34,3.56,12.18,3.19,17.97,5.62,1.37.57,2.64,1.29,3.83,2.13,7.16,5.08,9.56,14.24,10.36,19.74,5.2-.63,10.4-1.35,15.6-2.15V0H0v49.8c5.17,1,10.33,1.9,15.5,2.69,2.34-18,18.49-31.18,31.4-36.29Z"/>
  </g>
  <g id="Elements">
    <g>
      <path class="cls-1" d="M67.85,45.27c8.88-5.37,17.67-10.91,26.68-16.05,7.94-4.53,18.69-2.25,24.66,4.78,5.96,7.02,6.24,17.71.66,25.15-5.51,7.34-15.48,10.03-23.82,6.38-2.81-1.23-6.01-2.64-4.43-6.52,1.55-3.82,4.43-2.21,7.18-1.11,6.05,2.43,11.82.71,15.05-4.25,2.84-4.36,2.42-10.84-.93-14.52-4.05-4.45-10.42-5.34-16.01-1.99-16.37,9.81-32.68,19.72-49.02,29.58-1,.61-2.01,1.21-3.01,1.81-2.34,1.4-4.64,1.4-6.1-1.06-1.45-2.46-.32-4.46,2.01-5.87,9.03-5.45,18.06-10.91,27.08-16.36,0,0,0,.01,0,.02Z"/>
      <path class="cls-4" d="M55.2,71.61c3.58-2.16,7.09-4.44,10.75-6.46,5.8-3.2,13.08-1.95,17.45,2.82,4.19,4.56,4.71,11.86,1.24,17.23-3.63,5.61-10.26,7.81-16.7,5.5-2.85-1.02-5.57-2.45-4.3-6.08,1.15-3.3,3.77-3.15,6.62-1.93,2.93,1.25,5.59.85,7.43-2.05,1.51-2.38,1.5-4.88-.39-6.95-2.34-2.57-5.22-2.7-8.17-.91-6.44,3.89-12.89,7.76-19.32,11.67-2.64,1.6-5.6,3.64-7.83.08-2.44-3.9,1.01-5.58,3.77-7.24,3.15-1.89,6.3-3.8,9.45-5.7v.02Z"/>
      <path class="cls-6" d="M54.73,43.79c-3.44,2.08-6.91,4.12-10.32,6.25-2.48,1.56-5.12,2.6-7.01-.38-1.89-2.98.1-4.92,2.67-6.44,6.77-4.03,13.49-8.13,20.23-12.21,2.33-1.41,3.62-3.38,3.41-6.22-.19-2.5-1.62-4-3.78-4.86-3.76-1.49-7.34.65-7.94,5.1-.44,3.26-1.31,5.84-5.11,5.08-3.57-.72-3.23-3.83-2.89-6.51.83-6.54,5.85-11.42,12.23-12.07,6.42-.65,12.71,3.13,14.83,8.91,2.14,5.84,0,13.02-5.19,16.53-3.61,2.43-7.43,4.54-11.16,6.79,0,0,.01.02.02.03Z"/>
    </g>
  </g>
  <g id="Top_BGS" data-name="Top BGS">
    <path class="cls-5" d="M126.13,53.82c.35,2.43.4,4.15.4,4.49.12,14.1-8.78,23.52-11.09,25.97-7.1,7.52-15.11,5.21-21.19,7.17-7.9,2.56-31.52,10.2-53.66-2.71-4.62-2.7-23.53-8.73-25.25-28.82-.22-2.56-.14-5.05.17-7.45-5.17-.79-10.33-1.68-15.5-2.69v91.93h141.73V51.67c-5.2.81-10.4,1.53-15.6,2.15Z"/>
  </g>
  <g id="Texts">
    <g>
      <rect class="cls-3" x="0" y="87.41" width="141.73" height="54.32"/>
      <path class="cls-2" d="M64.59,109.43c.13-.37.37-.54.75-.54h1.02c.38,0,.64.18.75.54l3.55,10.05c.16.46-.05.77-.54.77h-.74c-.38,0-.64-.18-.75-.54l-.8-2.37h-3.99l-.78,2.35c-.11.38-.37.56-.75.56h-.74c-.5,0-.71-.3-.54-.77l3.55-10.05ZM67.32,115.66l-1.01-3.04c-.19-.64-.45-1.76-.45-1.76h-.03s-.26,1.12-.45,1.76l-1.02,3.04h2.96Z"/>
      <path class="cls-2" d="M71.93,110.04v-.48c0-.43.22-.67.66-.67h.7c.43,0,.67.24.67.67v.48c0,.43-.24.66-.67.66h-.7c-.43,0-.66-.22-.66-.66ZM71.93,112.76c0-.43.22-.67.66-.67h.7c.43,0,.66.24.66.67v6.82c0,.45-.22.67-.66.67h-.7c-.43,0-.66-.22-.66-.67v-6.82Z"/>
      <path class="cls-2" d="M75.96,112.76c0-.43.22-.67.66-.67h.62c.43,0,.67.24.67.67v.77c0,.3-.05.56-.05.56h.03c.32-.98,1.22-2.06,2.37-2.06.45,0,.61.22.61.67v.62c0,.43-.26.67-.69.67-1.49,0-2.21,1.47-2.21,2.96v2.62c0,.45-.22.67-.66.67h-.7c-.43,0-.66-.22-.66-.67v-6.82Z"/>
    </g>
  </g>
</svg>