<?xml version="1.0" encoding="UTF-8"?>
<svg xmlns="http://www.w3.org/2000/svg" viewBox="0 0 141.73 141.73">
  <defs>
    <style>
      .cls-1 {
        fill: #f1f2f2;
      }

      .cls-2 {
        fill: #fff;
      }

      .cls-3 {
        fill: #ec724a;
      }

      .cls-4 {
        fill: none;
      }

      .cls-5 {
        fill: #a1b860;
        stroke: #a1b860;
        stroke-miterlimit: 10;
        stroke-width: .5px;
      }

      .cls-6 {
        fill: #8581be;
      }

      .cls-7 {
        fill: #f15b5c;
      }

      .cls-8 {
        fill: #55b6cf;
      }

      .cls-9 {
        fill: #fcb44a;
      }
    </style>
  </defs>
  <g id="Bottom_BGS" data-name="Bottom BGS">
    <path class="cls-5" d="M0,0v49.13c6.99,1.16,13.98,2.28,20.98,3.3-.29-10.81,3.54-21.75,11.2-29.18,9.79-9.49,22.14-9.36,37.05-9.91,5.97-.21,36.56-1.34,42.93,12.87,3.85,8.57-4.55,15.01-.17,27.67.45,1.31.97,2.46,1.52,3.49,9.36-.7,18.77-1.88,28.23-3.6V0H0Z"/>
  </g>
  <g id="Elements">
    <g>
      <path class="cls-9" d="M35.72,86.08c0-13.36,0-26.71,0-40.07.7-.41,1.39-.82,2.03-1.33,11.58-9.26,23.18-18.5,34.76-27.76.5-.4.81-.58,1.43-.09,9.22,7.4,18.45,14.79,27.71,22.13,3.02,2.39,5.86,5.02,9.16,7.06,0,13.35,0,26.71,0,40.06-14.65,0-29.31,0-43.96,0,0-10.77,0-21.54.03-32.31,0-.95-.29-1.13-1.17-1.13-6.14.04-12.27.04-18.41,0-.91,0-1.14.22-1.14,1.13.04,10.77.03,21.54.03,32.31-3.49,0-6.97,0-10.46,0ZM77.34,59.45c0,4.1,0,8.19-.03,12.29,0,.72.16.98.94.97,7.06-.03,14.12-.02,21.17,0,.61,0,.95-.05.94-.82-.05-4.14-.05-8.27-.06-12.41.01-1.95-.01-3.9.06-5.85.03-.8-.21-1.01-1-1-4.51.04-9.02.02-13.54.02-2.56,0-5.12,0-7.68,0-.43,0-.94-.13-.91.61.08,2.07-.13,4.14.11,6.2ZM78.86,37.85c.01-3.11-2.46-5.63-5.51-5.63-3.04,0-5.62,2.58-5.6,5.59.02,3.01,2.5,5.52,5.5,5.55,3.11.03,5.6-2.41,5.61-5.51Z"/>
      <path class="cls-7" d="M110.8,46.02c-3.3-2.04-6.14-4.67-9.16-7.06-9.27-7.34-18.5-14.73-27.71-22.13-.61-.49-.92-.31-1.43.09-11.58,9.26-23.18,18.5-34.76,27.76-.64.51-1.33.92-2.03,1.33-.97.14-1.94.26-2.9-.06-1.72-.58-2.85-1.75-3.18-3.53-.35-1.86.22-3.46,1.73-4.66,5.24-4.19,10.48-8.38,15.71-12.57,7.52-6.02,15.05-12.03,22.57-18.05,2.58-2.06,4.58-2.11,7.12-.08,12.55,10.02,25.08,20.05,37.63,30.06,1.13.9,2.16,1.86,2.48,3.35.63,2.97-1.59,5.69-4.62,5.67-.49,0-.97-.08-1.46-.12Z"/>
      <path class="cls-3" d="M66.84,86.07c14.65,0,29.31,0,43.96,0,.93,0,1.87,0,2.8.04,2,.1,3.55,1.68,3.57,3.61.02,2-1.55,3.6-3.61,3.69-.28.01-.57,0-.85,0-26.22,0-52.44,0-78.66,0-.49,0-.98.03-1.46-.05-1.87-.31-3.12-1.91-3.03-3.82.08-1.81,1.48-3.26,3.36-3.41.93-.07,1.87-.04,2.8-.05,3.49,0,6.97,0,10.46,0,6.89,0,13.77,0,20.66,0Z"/>
      <path class="cls-8" d="M66.84,86.07c-6.89,0-13.77,0-20.66,0,0-10.77,0-21.54-.03-32.31,0-.92.23-1.14,1.14-1.13,6.14.04,12.27.04,18.41,0,.88,0,1.17.18,1.17,1.13-.04,10.77-.03,21.54-.03,32.31ZM60.93,67.57c-1.69-.01-2.52.55-2.56,1.73-.04,1.1.74,1.8,2.06,1.87,1.84.09,2.78-.46,2.84-1.67.07-1.26-.72-1.91-2.35-1.92Z"/>
      <path class="cls-8" d="M100.3,59.47c.01,4.14,0,8.27.06,12.41,0,.78-.33.82-.94.82-7.06-.01-14.12-.02-21.17,0-.77,0-.94-.25-.94-.97.04-4.1.03-8.19.03-12.29,7.65,0,15.31.02,22.96.02Z"/>
      <path class="cls-6" d="M100.3,59.47c-7.65,0-15.31-.01-22.96-.02-.24-2.06-.03-4.13-.11-6.2-.03-.74.48-.61.91-.61,2.56,0,5.12,0,7.68,0,4.51,0,9.02.02,13.54-.02.79,0,1.03.2,1,1-.07,1.95-.05,3.9-.06,5.85Z"/>
      <path class="cls-2" d="M78.86,37.85c-.01,3.1-2.5,5.54-5.61,5.51-3-.03-5.48-2.54-5.5-5.55-.02-3.02,2.56-5.59,5.6-5.59,3.05,0,5.52,2.52,5.51,5.63Z"/>
      <path class="cls-6" d="M60.93,67.57c1.62.01,2.42.66,2.35,1.92-.07,1.22-1.01,1.77-2.84,1.67-1.32-.07-2.09-.77-2.06-1.87.04-1.18.86-1.74,2.56-1.73Z"/>
    </g>
  </g>
  <g id="Top_BGS" data-name="Top BGS">
    <path class="cls-5" d="M122.55,70.78c-.39,9.28-17.5,17.12-34.05,20.51-3.27.67-6.52,1.17-9.6,1.47-1.27.12-2.55.25-3.86.34-3.16.23-6.53.29-10.4-.2-1.02-.12-2.07-.29-3.16-.5-1.18-.22-2.93-.55-5.06-1.06-9.2-2.22-25.37-7.93-32.3-24.21-1.97-4.62-2.99-9.64-3.13-14.69-7-1.03-13.99-2.14-20.98-3.3v92.6h141.73V53.78c-9.46,1.72-18.87,2.9-28.23,3.6,3.78,7.05,9.26,8.07,9.04,13.39Z"/>
  </g>
  <g id="Texts">
    <g>
      <rect class="cls-4" x="0" y="87.41" width="141.73" height="54.32"/>
      <path class="cls-1" d="M49.76,109.56c0-.43.22-.67.66-.67h.74c.43,0,.66.24.66.67v4.15h5.2v-4.15c0-.43.22-.67.67-.67h.72c.43,0,.66.24.66.67v10.02c0,.45-.22.67-.66.67h-.72c-.45,0-.67-.22-.67-.67v-4.1h-5.2v4.1c0,.45-.22.67-.66.67h-.74c-.43,0-.66-.22-.66-.67v-10.02Z"/>
      <path class="cls-1" d="M65.2,111.9c2.48,0,4.5,1.78,4.5,4.27s-2.02,4.27-4.5,4.27-4.48-1.76-4.48-4.27,2-4.27,4.48-4.27ZM65.2,118.72c1.33,0,2.43-1.02,2.43-2.54s-1.1-2.54-2.43-2.54-2.42,1.04-2.42,2.54,1.09,2.54,2.42,2.54Z"/>
      <path class="cls-1" d="M71.19,112.76c0-.43.22-.67.66-.67h.62c.43,0,.66.24.66.67v.5c0,.18-.03.37-.03.37h.03c.4-.8,1.39-1.73,2.67-1.73s2.05.58,2.38,1.68h.03c.43-.85,1.5-1.68,2.79-1.68,1.7,0,2.67.96,2.67,3.11v4.58c0,.45-.24.67-.67.67h-.69c-.45,0-.67-.22-.67-.67v-4.19c0-.93-.18-1.63-1.12-1.63-1.38,0-2.08,1.41-2.08,2.83v2.99c0,.45-.22.67-.66.67h-.71c-.43,0-.67-.22-.67-.67v-4.19c0-.88-.13-1.63-1.09-1.63-1.44,0-2.11,1.47-2.11,2.83v2.99c0,.45-.22.67-.66.67h-.7c-.43,0-.66-.22-.66-.67v-6.82Z"/>
      <path class="cls-1" d="M89.21,111.9c2.32,0,3.62,1.65,3.62,3.89,0,.35-.3.69-.7.69h-4.98c.13,1.47,1.22,2.24,2.45,2.24.75,0,1.38-.29,1.76-.53.4-.19.69-.14.9.22l.19.32c.19.37.13.69-.22.9-.53.34-1.49.82-2.77.82-2.71,0-4.39-1.95-4.39-4.27,0-2.51,1.7-4.27,4.15-4.27ZM90.81,115.24c-.03-1.14-.72-1.81-1.65-1.81-1.04,0-1.78.72-1.97,1.81h3.62Z"/>
    </g>
  </g>
</svg>