<?xml version="1.0" encoding="UTF-8"?>
<svg xmlns="http://www.w3.org/2000/svg" viewBox="0 0 141.73 141.73">
  <defs>
    <style>
      .cls-1 {
        fill: #f1f2f2;
      }

      .cls-2 {
        fill: none;
      }

      .cls-3 {
        fill: #f15b5c;
      }

      .cls-4 {
        fill: #f592a1;
      }

      .cls-5 {
        fill: #55b6cf;
      }

      .cls-6 {
        fill: #ec724a;
        stroke: #ec724a;
        stroke-miterlimit: 10;
        stroke-width: .5px;
      }

      .cls-7 {
        fill: #234c89;
      }
    </style>
  </defs>
  <g id="Bottom_BGS" data-name="Bottom BGS">
    <path class="cls-6" d="M21.97,50.33c1.51-12.97,10.85-26.09,21.69-32.42.69-.4,1.38-.78,2.08-1.12,2.31-1.14,4.75-1.91,7.25-2.4.12-.02.24-.04.36-.06.24-.04.49-.09.74-.12,3.82-.62,7.79-.61,11.74-.29h0c.64.05,1.29.11,1.93.18,1.76.18,3.5.41,5.23.66.85.12,1.7.25,2.55.39.18.03.36.06.54.09.26.04.53.09.79.13h.01c.31.05.62.11.93.16,0,0,0,0,.01,0h0c.72.12,1.44.25,2.15.39,2.63.5,5.24,1.09,7.82,1.8.48.13.95.26,1.42.4,2.01.59,3.99,1.26,5.91,2.03.91.36,1.82.74,2.71,1.15.76.35,1.51.71,2.25,1.09.67.34,1.33.7,1.98,1.08,2.51,1.44,4.89,3.11,7.08,5.06,5.79,5.14,10.05,12.95,10.7,20.88,7.3.1,14.59.39,21.86.96V0H0v56.31c7.25-.34,14.51-.8,21.77-1.32-.05-1.54.01-3.1.19-4.65Z"/>
  </g>
  <g id="Elements">
    <g>
      <path class="cls-4" d="M67.11,49.4c-.22,1.55-.34,3.14-.69,4.66-.98,4.18-.85,7.67,1.93,11.67,5.67,8.18,2.87,19.63-5.32,25.53-8.25,5.94-19.28,4.8-26.12-2.71-6.6-7.25-7.25-19.8.25-26.08,5.68-4.75,7.83-10.11,8.65-16.75,7.1,1.23,14.21,2.45,21.31,3.68Z"/>
      <path class="cls-5" d="M47.15,37.22c1.1-6.37,2.14-12.75,3.33-19.1,1.22-6.48,6.84-10.64,12.75-9.6,5.67,1,9.72,6.68,8.85,12.97-.91,6.57-2.21,13.09-3.35,19.63-7.08-1.92-14.33-2.93-21.59-3.9Z"/>
      <path class="cls-3" d="M99.33,28.41c-1.89-.33-3.77-.82-5.67-.95-3.6-.24-5.11-1.32-4.41-5.52.75-4.51,3.02-4.14,6.21-3.47,3.92.83,7.87,1.58,11.85,2.04,3.42.39,4.82,1.49,4.12,5.31-.64,3.53-1.8,4.88-5.41,3.8-2.15-.65-4.45-.82-6.68-1.21Z"/>
      <path class="cls-4" d="M96.27,45.7c-1.72-.29-3.43-.82-5.15-.85-4.85-.07-5.82-2.36-4.6-6.71.66-2.33,1.47-3.2,3.92-2.71,5.13,1.02,10.28,1.99,15.46,2.66,3.15.41,3.11,2.19,2.48,4.4-.59,2.08.25,5.43-3.86,4.64-2.74-.52-5.49-.96-8.24-1.44Z"/>
      <path class="cls-5" d="M90.35,80.06c-1.88-.32-3.75-.87-5.64-.93-4.64-.14-5.3-2.46-4.3-6.46.63-2.52,1.49-3.56,4.2-3.01,5.1,1.03,10.23,1.89,15.37,2.7,2.83.44,3.34,2.15,2.71,4.49-.59,2.19-.39,5.24-4.14,4.63-2.74-.45-5.47-.94-8.2-1.41Z"/>
      <path class="cls-7" d="M88.82,88.38c2.05.35,4.09.94,6.15,1.02,4.2.17,5.18,2.23,4.57,6.12-.67,4.29-3.29,3.57-6.14,3.04-4.43-.83-8.86-1.74-13.33-2.28-3.74-.45-3.25-2.66-2.8-5.22.45-2.54.7-4.93,4.38-3.96,2.34.62,4.77.87,7.16,1.28Z"/>
      <path class="cls-3" d="M47.15,37.22c7.26.97,14.51,1.98,21.59,3.9-.54,2.76-1.08,5.52-1.63,8.27-7.1-1.23-14.21-2.45-21.31-3.68.45-2.83.9-5.66,1.35-8.5Z"/>
      <path class="cls-5" d="M95.03,54.24c2.05.36,4.09.85,6.16,1.04,3.11.29,4.63,1.25,3.93,4.9-.63,3.31-1.77,4.41-5.14,3.63-4.39-1.02-8.85-1.77-13.33-2.32-3.19-.39-3.92-1.73-3.42-4.83.54-3.33,1.78-4.56,5.14-3.62,2.16.61,4.43.81,6.65,1.2Z"/>
    </g>
  </g>
  <g id="Top_BGS" data-name="Top BGS">
    <path class="cls-6" d="M119.87,49.4c.13,1.63.13,3.26-.06,4.88-.14,1.17-.35,2.34-.67,3.49-1.72,6.11-6.74,9.88-7.22,16.31-.37,4.98,2.59,9.15-.56,13.93-3.66,5.58-11.99,7.99-21.61,8.51-.43.02-.87.04-1.31.06-11.1.39-23.66-1.61-32.65-4.15-.13-.03-.26-.07-.39-.11-3.41-.98-6.29-2.04-8.34-3.06-11.59-5.79-21.42-16.03-24.56-28.85-.43-1.77-.66-3.58-.73-5.41C14.51,55.51,7.25,55.97,0,56.31v85.43h141.73V50.36c-7.27-.57-14.56-.86-21.86-.96Z"/>
  </g>
  <g id="Texts">
    <g>
      <rect class="cls-2" x="0" y="87.41" width="141.73" height="54.32"/>
      <path class="cls-1" d="M26.95,109.56c0-.43.22-.67.66-.67h3.07c1.12,0,1.68.1,2.16.3,1.15.48,1.9,1.57,1.9,3.11,0,1.34-.7,2.62-1.89,3.1v.03s.14.18.37.59l1.87,3.43c.27.46.06.8-.46.8h-.87c-.37,0-.61-.14-.78-.46l-2-3.78h-1.98v3.57c0,.45-.22.67-.66.67h-.74c-.43,0-.66-.22-.66-.67v-10.02ZM30.86,114.22c1.1,0,1.79-.69,1.79-1.81,0-.72-.27-1.3-.9-1.55-.27-.13-.62-.19-1.23-.19h-1.52v3.55h1.86Z"/>
      <path class="cls-1" d="M40.48,111.9c2.48,0,4.5,1.78,4.5,4.27s-2.02,4.27-4.5,4.27-4.48-1.76-4.48-4.27,2-4.27,4.48-4.27ZM40.48,118.72c1.33,0,2.43-1.02,2.43-2.54s-1.1-2.54-2.43-2.54-2.42,1.04-2.42,2.54,1.09,2.54,2.42,2.54Z"/>
      <path class="cls-1" d="M50.43,111.9c2.48,0,4.5,1.78,4.5,4.27s-2.02,4.27-4.5,4.27-4.48-1.76-4.48-4.27,2-4.27,4.48-4.27ZM50.43,118.72c1.33,0,2.43-1.02,2.43-2.54s-1.1-2.54-2.43-2.54-2.42,1.04-2.42,2.54,1.09,2.54,2.42,2.54Z"/>
      <path class="cls-1" d="M56.41,112.76c0-.43.22-.67.66-.67h.62c.43,0,.66.24.66.67v.5c0,.18-.03.37-.03.37h.03c.4-.8,1.39-1.73,2.67-1.73s2.05.58,2.38,1.68h.03c.43-.85,1.5-1.68,2.79-1.68,1.7,0,2.67.96,2.67,3.11v4.58c0,.45-.24.67-.67.67h-.69c-.45,0-.67-.22-.67-.67v-4.19c0-.93-.18-1.63-1.12-1.63-1.38,0-2.08,1.41-2.08,2.83v2.99c0,.45-.22.67-.66.67h-.71c-.43,0-.67-.22-.67-.67v-4.19c0-.88-.13-1.63-1.09-1.63-1.44,0-2.11,1.47-2.11,2.83v2.99c0,.45-.22.67-.66.67h-.7c-.43,0-.66-.22-.66-.67v-6.82Z"/>
      <path class="cls-1" d="M75.23,113.82h-.43c-.43,0-.66-.22-.66-.67v-.27c0-.43.22-.67.67-.67h.46v-1.66c0-.43.24-.67.67-.67h.64c.43,0,.67.24.67.67v1.66h1.18c.43,0,.67.24.67.67v.27c0,.45-.24.67-.66.67h-1.2v3.17c0,1.22.75,1.46,1.31,1.52.5.05.67.21.67.66v.5c0,.48-.27.67-.83.67-1.46,0-3.18-.78-3.18-2.99v-3.52Z"/>
      <path class="cls-1" d="M84.19,111.9c2.32,0,3.62,1.65,3.62,3.89,0,.35-.3.69-.7.69h-4.98c.13,1.47,1.22,2.24,2.45,2.24.75,0,1.38-.29,1.76-.53.4-.19.69-.14.9.22l.19.32c.19.37.13.69-.22.9-.53.34-1.49.82-2.77.82-2.71,0-4.39-1.95-4.39-4.27,0-2.51,1.7-4.27,4.15-4.27ZM85.79,115.24c-.03-1.14-.72-1.81-1.65-1.81-1.04,0-1.78.72-1.97,1.81h3.62Z"/>
      <path class="cls-1" d="M89.28,112.76c0-.43.22-.67.66-.67h.62c.43,0,.66.24.66.67v.5c0,.18-.03.37-.03.37h.03c.4-.8,1.39-1.73,2.67-1.73s2.05.58,2.38,1.68h.03c.43-.85,1.5-1.68,2.79-1.68,1.7,0,2.67.96,2.67,3.11v4.58c0,.45-.24.67-.67.67h-.69c-.45,0-.67-.22-.67-.67v-4.19c0-.93-.18-1.63-1.12-1.63-1.38,0-2.08,1.41-2.08,2.83v2.99c0,.45-.22.67-.66.67h-.71c-.43,0-.67-.22-.67-.67v-4.19c0-.88-.13-1.63-1.09-1.63-1.44,0-2.11,1.47-2.11,2.83v2.99c0,.45-.22.67-.66.67h-.7c-.43,0-.66-.22-.66-.67v-6.82Z"/>
      <path class="cls-1" d="M103.64,112.76c0-.43.24-.67.67-.67h.51c.43,0,.66.24.66.56v.37c0,.18-.02.32-.02.32h.03s.72-1.44,2.62-1.44c2.21,0,3.63,1.74,3.63,4.27s-1.6,4.27-3.75,4.27c-1.7,0-2.35-1.25-2.35-1.25h-.03s.05.29.05.7v2.88c0,.45-.22.67-.67.67h-.69c-.43,0-.67-.22-.67-.67v-10.02ZM107.65,118.73c1.12,0,2.05-.91,2.05-2.53s-.83-2.56-2.02-2.56c-1.06,0-2.06.77-2.06,2.58,0,1.26.7,2.51,2.03,2.51Z"/>
      <path class="cls-1" d="M113.16,118.86c0-.43.22-.66.67-.66h.7c.43,0,.67.22.67.66v.72c0,.45-.24.67-.67.67h-.7c-.45,0-.67-.22-.67-.67v-.72Z"/>
    </g>
  </g>
</svg>