<?xml version="1.0" encoding="UTF-8"?>
<svg xmlns="http://www.w3.org/2000/svg" viewBox="0 0 141.73 141.73">
  <defs>
    <style>
      .cls-1 {
        fill: #f1f2f2;
      }

      .cls-2 {
        fill: #8581be;
        stroke: #8581be;
        stroke-miterlimit: 10;
        stroke-width: .5px;
      }

      .cls-3 {
        fill: none;
      }
    </style>
  </defs>
  <g id="Bottom_BGS" data-name="Bottom BGS">
    <path class="cls-2" d="M21.18,38.6c.47-18.96,18.13-24.44,34.47-19.35.31.1.61.19.92.3,7.38,2.49,14.42,6.35,21.94,8,1.49.33,3,.57,4.54.69.65.05,1.31.08,1.97.1.01,0,.02,0,.03,0,1.67.04,3.35-.01,5.03-.06.81-.03,1.62-.05,2.42-.07,3.33-.06,6.61.08,9.73,1.18,6.6,2.33,11.05,8.51,14.17,14.77.71,1.44,1.37,2.95,1.94,4.5.64,1.73,1.17,3.52,1.56,5.31.52,2.43.77,4.88.67,7.25,7.07-.63,14.12-1.29,21.17-1.89V0H0v58.14c7.81,1.93,15.67,3.36,23.57,4.39-2.16-7.67-2.59-15.9-2.39-23.92Z"/>
  </g>
  <g id="Top_BGS" data-name="Top BGS">
    <path class="cls-2" d="M120.57,61.22c-.11,2.6-.63,5.1-1.72,7.38-.31.66-.67,1.29-1.08,1.9-.4.61-.86,1.19-1.36,1.76-5.39,6.01-14.39,6.72-21.76,10.02-4.2,1.88-7.95,4.65-12.04,6.74-2.2,1.13-4.5,2.02-6.87,2.67l-.41.11c-.72.2-1.45.37-2.18.52h0c-.62.13-1.23.24-1.86.33-.11.03-.22.04-.33.05-.88.13-1.76.23-2.65.31-.4.03-.8.06-1.21.08-5.14.27-10.36-.41-15.32-1.95-.44-.13-.89-.28-1.32-.43,0,0,0,0-.01,0-.06-.01-.12-.04-.18-.06-.12-.04-.25-.08-.36-.12-.15-.05-.3-.1-.44-.16-.38-.13-.75-.28-1.12-.43-.83-.33-1.66-.69-2.47-1.06-.46-.21-.91-.44-1.36-.67-1.11-.56-2.19-1.18-3.25-1.83-1.05-.64-2.06-1.33-3.05-2.07-1.27-.95-2.49-1.97-3.64-3.06-.42-.4-.84-.81-1.24-1.23-.42-.43-.83-.87-1.23-1.32-1.08-1.21-2.07-2.49-2.98-3.83-.72-1.07-1.39-2.17-2-3.32-.09-.16-.18-.33-.26-.5-1.4-2.73-2.48-5.59-3.3-8.52C15.67,61.5,7.81,60.07,0,58.14v83.59h141.73V59.33c-7.04.6-14.1,1.25-21.17,1.89Z"/>
  </g>
  <g id="Texts">
    <g>
      <rect class="cls-3" x="0" y="87.41" width="141.73" height="54.32"/>
      <path class="cls-1" d="M59.66,103.17h-3.06c-.45,0-.67-.22-.67-.66v-.45c0-.43.22-.67.67-.67h8.16c.43,0,.66.24.66.67v.45c0,.43-.22.66-.66.66h-3.06v8.92c0,.45-.22.67-.67.67h-.72c-.43,0-.66-.22-.66-.67v-8.92Z"/>
      <path class="cls-1" d="M68.84,104.4c2.32,0,3.62,1.65,3.62,3.89,0,.35-.3.69-.7.69h-4.98c.13,1.47,1.22,2.24,2.45,2.24.75,0,1.38-.29,1.76-.53.4-.19.69-.14.9.22l.19.32c.19.37.13.69-.22.9-.53.34-1.49.82-2.77.82-2.71,0-4.39-1.95-4.39-4.27,0-2.51,1.7-4.27,4.15-4.27ZM70.44,107.74c-.03-1.14-.72-1.81-1.65-1.81-1.04,0-1.78.72-1.97,1.81h3.62Z"/>
      <path class="cls-1" d="M73.58,111.2l.19-.29c.24-.34.51-.37.91-.16.38.21.99.56,1.83.56.7,0,1.14-.32,1.14-.83,0-1.33-4.05-.83-4.05-3.63,0-1.6,1.41-2.45,3.12-2.45,1.09,0,1.84.35,2.27.59.37.19.42.53.24.9l-.16.29c-.19.38-.5.43-.9.26-.35-.16-.88-.4-1.55-.4s-1.1.29-1.1.8c0,1.34,4.05.82,4.05,3.6,0,1.44-1.22,2.51-3.11,2.51-1.31,0-2.22-.5-2.72-.83-.37-.21-.4-.56-.16-.91Z"/>
      <path class="cls-1" d="M81.53,106.32h-.43c-.43,0-.66-.22-.66-.67v-.27c0-.43.22-.67.67-.67h.46v-1.66c0-.43.24-.67.67-.67h.64c.43,0,.67.24.67.67v1.66h1.18c.43,0,.67.24.67.67v.27c0,.45-.24.67-.66.67h-1.2v3.17c0,1.22.75,1.46,1.31,1.52.5.05.67.21.67.66v.5c0,.48-.27.67-.83.67-1.46,0-3.18-.78-3.18-2.99v-3.52Z"/>
      <path class="cls-1" d="M40.3,125.86l.35-.51c.26-.35.53-.37.93-.14.37.26,1.18.83,2.3.83,1.06,0,1.7-.53,1.7-1.3,0-2.16-5.3-1.71-5.3-5.25,0-2,1.66-3.3,3.83-3.3,1.34,0,2.45.51,2.93.86.35.26.4.56.21.91l-.29.53c-.24.46-.58.4-.91.22-.46-.27-1.09-.62-1.97-.62-1.06,0-1.73.51-1.73,1.28,0,2.13,5.3,1.58,5.3,5.2,0,1.84-1.38,3.36-3.76,3.36-1.62,0-2.93-.72-3.49-1.15-.26-.22-.42-.5-.1-.93Z"/>
      <path class="cls-1" d="M53.19,119.4c1.31,0,2.19.48,2.67.82.34.22.35.56.13.91l-.21.32c-.24.37-.51.37-.9.18-.34-.22-.88-.5-1.58-.5-1.5,0-2.48,1.14-2.48,2.53s.98,2.56,2.54,2.56c.8,0,1.44-.35,1.82-.62.4-.22.7-.18.91.21l.16.3c.19.35.14.67-.18.9-.5.37-1.49.94-2.9.94-2.71,0-4.43-1.9-4.43-4.27s1.73-4.27,4.43-4.27Z"/>
      <path class="cls-1" d="M57.75,120.26c0-.43.22-.67.66-.67h.62c.43,0,.67.24.67.67v.77c0,.3-.05.56-.05.56h.03c.32-.98,1.22-2.06,2.37-2.06.45,0,.61.22.61.67v.62c0,.43-.26.67-.69.67-1.49,0-2.21,1.47-2.21,2.96v2.62c0,.45-.22.67-.66.67h-.7c-.43,0-.66-.22-.66-.67v-6.82Z"/>
      <path class="cls-1" d="M63.75,117.54v-.48c0-.43.22-.67.66-.67h.7c.43,0,.67.24.67.67v.48c0,.43-.24.66-.67.66h-.7c-.43,0-.66-.22-.66-.66ZM63.75,120.26c0-.43.22-.67.66-.67h.7c.43,0,.66.24.66.67v6.82c0,.45-.22.67-.66.67h-.7c-.43,0-.66-.22-.66-.67v-6.82Z"/>
      <path class="cls-1" d="M68.23,121.32h-.43c-.43,0-.66-.22-.66-.67v-.27c0-.43.22-.67.67-.67h.46v-1.66c0-.43.24-.67.67-.67h.64c.43,0,.67.24.67.67v1.66h1.18c.43,0,.67.24.67.67v.27c0,.45-.24.67-.66.67h-1.2v3.17c0,1.22.75,1.46,1.31,1.52.5.05.67.21.67.66v.5c0,.48-.27.67-.83.67-1.46,0-3.18-.78-3.18-2.99v-3.52Z"/>
      <path class="cls-1" d="M74.06,121.32h-.43c-.43,0-.66-.22-.66-.67v-.27c0-.43.22-.67.67-.67h.46v-1.66c0-.43.24-.67.67-.67h.64c.43,0,.67.24.67.67v1.66h1.18c.43,0,.67.24.67.67v.27c0,.45-.24.67-.66.67h-1.2v3.17c0,1.22.75,1.46,1.31,1.52.5.05.67.21.67.66v.5c0,.48-.27.67-.83.67-1.46,0-3.18-.78-3.18-2.99v-3.52Z"/>
      <path class="cls-1" d="M79.32,120.26c0-.43.24-.67.67-.67h.69c.45,0,.67.24.67.67v4.16c0,.99.26,1.67,1.26,1.67,1.47,0,2.29-1.3,2.29-2.75v-3.07c0-.43.22-.67.67-.67h.69c.43,0,.67.24.67.67v6.82c0,.45-.24.67-.67.67h-.62c-.43,0-.66-.22-.66-.67v-.48c0-.19.03-.37.03-.37h-.03c-.38.83-1.44,1.71-2.83,1.71-1.75,0-2.83-.88-2.83-3.1v-4.58Z"/>
      <path class="cls-1" d="M88.94,120.26c0-.43.22-.67.66-.67h.62c.43,0,.67.24.67.67v.77c0,.3-.05.56-.05.56h.03c.32-.98,1.22-2.06,2.37-2.06.45,0,.61.22.61.67v.62c0,.43-.26.67-.69.67-1.49,0-2.21,1.47-2.21,2.96v2.62c0,.45-.22.67-.66.67h-.7c-.43,0-.66-.22-.66-.67v-6.82Z"/>
      <path class="cls-1" d="M99,122.71h.34v-.19c0-1.07-.69-1.44-1.52-1.44-.69,0-1.31.26-1.7.46-.4.18-.7.11-.9-.27l-.16-.3c-.19-.37-.13-.69.26-.9.53-.27,1.46-.67,2.67-.67,2.11,0,3.38,1.18,3.38,3.25v4.43c0,.45-.22.67-.67.67h-.54c-.43,0-.66-.22-.66-.67v-.32c0-.22.03-.35.03-.35h-.03s-.77,1.54-2.56,1.54c-1.49,0-2.71-.96-2.71-2.45,0-2.39,2.95-2.79,4.77-2.79ZM97.48,126.39c1.14,0,1.87-1.15,1.87-2.15v-.3h-.34c-1.02,0-2.77.16-2.77,1.38,0,.54.42,1.07,1.23,1.07Z"/>
    </g>
  </g>
</svg>