<?xml version="1.0" encoding="UTF-8"?>
<svg xmlns="http://www.w3.org/2000/svg" viewBox="0 0 141.73 141.73">
  <defs>
    <style>
      .cls-1 {
        fill: #fecc95;
      }

      .cls-2 {
        fill: #f1f2f2;
      }

      .cls-3 {
        fill: #fff;
      }

      .cls-4 {
        stroke: #f15b5c;
        stroke-linecap: round;
        stroke-linejoin: round;
        stroke-width: 3.29px;
      }

      .cls-4, .cls-5 {
        fill: none;
      }

      .cls-6 {
        fill: #55b6cf;
        stroke: #55b6cf;
        stroke-miterlimit: 10;
        stroke-width: .5px;
      }

      .cls-7 {
        fill: #234c89;
      }
    </style>
  </defs>
  <g id="Bottom_BGS" data-name="Bottom BGS">
    <path class="cls-6" d="M0,0v57.12c7.27,1.32,14.57,2.63,21.88,3.88,1.31-3.98,3.36-7.42,5.52-9.93,1.87-2.18,1.99-1.52,5.02-4.45,10.78-10.41,8.5-17.88,16.91-24.8,4.44-3.65,8.82-4.72,16.06-6.18,19.88-3.99,45.76,1.78,52.25,15.75.91,1.95,2.52,6.53,3.32,12.25.17,1.23.7,5.8,0,11.94-.4,3.55-1.05,9.16-3.8,15.25,7.19.03,14.39-.15,21.58-.58,1.02-.15,2.02-.36,2.98-.64V0H0Z"/>
  </g>
  <g id="Elements">
    <g>
      <g>
        <path class="cls-4" d="M61.15,30.25c-2.02-5.45.75-11.51,6.2-13.53s11.51.75,13.53,6.2"/>
        <path class="cls-4" d="M56.64,31.92c-2.95-7.94,1.1-16.77,9.04-19.72s16.77,1.1,19.72,9.04"/>
        <g>
          <path class="cls-1" d="M66.87,91.11c-5.83-8.23-12.56-15.92-15.04-25.26-1.68-6.32,5.55-7.87,5.55-7.87,0,0-1.16-3.81,1.48-5.55,2.65-1.74,4.97-.9,4.97-.9.65-7.1,7.48-5.61,7.48-5.61l-.77-2.32c-.06-.18-.28-.74-.62-1.75-1.28-3.46-1.95-5.65-3.14-9.14-.53-1.56-.88-3.22-1.03-4.86-.23-2.45,1.41-4.69,3.74-5.48,2.36-.8,4.76-.08,6.12,2.11.84,1.35,1.47,2.88,1.96,4.41,2.44,7.53,4.79,15.09,7.18,22.64.15.48.32.96.48,1.44.13.02.25.04.38.06.26-.51.57-1,.76-1.53,1.03-2.81,2.52-5.24,5.32-6.62.21-.11.42-.23.64-.33,3.49-1.55,6.37.32,6.11,4.12-.19,2.79-1.08,5.3-1.47,8.07-1.28,9-.66,15.24.52,22.42"/>
          <path class="cls-7" d="M102.32,91.39l-31.2,11.59c-.26.1-.65-.18-1.09-.75-.79-1-1.77-2.9-2.61-5.16h0c-.78-2.11-1.27-4.05-1.37-5.34-.07-.87.03-1.44.32-1.55l31.2-11.59c.37-.14.96.46,1.63,1.53.67,1.07,1.41,2.61,2.07,4.38h0c.66,1.77,1.1,3.42,1.29,4.67s.13,2.09-.24,2.22Z"/>
        </g>
      </g>
      <circle class="cls-3" cx="74.33" cy="94.79" r="2.65"/>
    </g>
  </g>
  <g id="Top_BGS" data-name="Top BGS">
    <path class="cls-6" d="M117.16,70.82c-.85,1.88-1.89,3.81-3.2,5.74-1.51,2.22-4.27,6.3-9.06,9.47-11.58,7.67-19.47,1.06-39.52,5.76-12.26,2.87-12.9,5.91-20.17,5.35-8.25-.63-19.57-7.08-23.47-18.94-2.02-6.14-1.55-12.13.13-17.22C14.57,59.75,7.27,58.44,0,57.12v84.61h141.73v-72.13c-.97.28-1.96.5-2.98.64-7.2.43-14.39.61-21.58.58Z"/>
  </g>
  <g id="Texts">
    <g>
      <rect class="cls-5" x="0" y="87.41" width="141.73" height="54.32"/>
      <path class="cls-2" d="M31.7,109.62c-.11-.45.1-.74.58-.74h.8c.38,0,.62.19.72.59l1.65,7.27c.14.64.18,1.2.18,1.2h.03s.06-.54.24-1.2l1.89-7.28c.11-.38.35-.58.75-.58h.54c.4,0,.64.19.72.58l1.87,7.28c.18.66.24,1.2.24,1.2h.03s.05-.56.19-1.2l1.75-7.27c.08-.4.32-.59.74-.59h.75c.48,0,.7.29.59.74l-2.61,10.07c-.11.38-.35.56-.75.56h-1.14c-.4,0-.64-.19-.74-.58l-1.62-6.15c-.19-.74-.3-1.49-.3-1.49h-.05s-.11.75-.29,1.49l-1.63,6.15c-.1.38-.34.58-.74.58h-1.15c-.4,0-.64-.19-.74-.58l-2.51-10.05Z"/>
      <path class="cls-2" d="M51.16,115.21h.34v-.19c0-1.07-.69-1.44-1.52-1.44-.69,0-1.31.26-1.7.46-.4.18-.7.11-.9-.27l-.16-.3c-.19-.37-.13-.69.26-.9.53-.27,1.46-.67,2.67-.67,2.11,0,3.38,1.18,3.38,3.25v4.43c0,.45-.22.67-.67.67h-.54c-.43,0-.66-.22-.66-.67v-.32c0-.22.03-.35.03-.35h-.03s-.77,1.54-2.56,1.54c-1.49,0-2.71-.96-2.71-2.45,0-2.38,2.95-2.79,4.77-2.79ZM49.63,118.89c1.14,0,1.87-1.15,1.87-2.14v-.3h-.34c-1.02,0-2.77.16-2.77,1.38,0,.54.42,1.07,1.23,1.07Z"/>
      <path class="cls-2" d="M55.39,109.56c0-.43.22-.67.66-.67h.7c.43,0,.66.24.66.67v7.99c0,.8.34.94.64.98.29.03.5.21.5.58v.54c0,.42-.19.69-.67.69-1.09,0-2.48-.29-2.48-2.62v-8.15Z"/>
      <path class="cls-2" d="M59.86,109.56c0-.43.22-.67.66-.67h.7c.43,0,.66.24.66.67v7.99c0,.8.34.94.64.98.29.03.5.21.5.58v.54c0,.42-.19.69-.67.69-1.09,0-2.48-.29-2.48-2.62v-8.15Z"/>
      <path class="cls-2" d="M68.79,113.82h-.43c-.43,0-.66-.22-.66-.67v-.27c0-.43.22-.67.67-.67h.46v-1.67c0-.43.24-.67.67-.67h.64c.43,0,.67.24.67.67v1.67h1.18c.43,0,.67.24.67.67v.27c0,.45-.24.67-.66.67h-1.2v3.17c0,1.22.75,1.46,1.31,1.52.5.05.67.21.67.66v.5c0,.48-.27.67-.83.67-1.46,0-3.18-.78-3.18-2.99v-3.52Z"/>
      <path class="cls-2" d="M78.05,111.9c2.48,0,4.5,1.78,4.5,4.27s-2.02,4.27-4.5,4.27-4.48-1.76-4.48-4.27,2-4.27,4.48-4.27ZM78.05,118.72c1.33,0,2.43-1.02,2.43-2.54s-1.1-2.54-2.43-2.54-2.42,1.04-2.42,2.54,1.09,2.54,2.42,2.54Z"/>
      <path class="cls-2" d="M83.92,112.76c0-.43.24-.67.67-.67h.69c.45,0,.67.24.67.67v4.16c0,.99.26,1.67,1.26,1.67,1.47,0,2.29-1.3,2.29-2.75v-3.07c0-.43.22-.67.67-.67h.69c.43,0,.67.24.67.67v6.82c0,.45-.24.67-.67.67h-.62c-.43,0-.66-.22-.66-.67v-.48c0-.19.03-.37.03-.37h-.03c-.38.83-1.44,1.71-2.83,1.71-1.75,0-2.83-.88-2.83-3.11v-4.58Z"/>
      <path class="cls-2" d="M97.46,111.9c1.31,0,2.19.48,2.67.82.34.22.35.56.13.91l-.21.32c-.24.37-.51.37-.9.18-.34-.22-.88-.5-1.58-.5-1.5,0-2.48,1.14-2.48,2.53s.98,2.56,2.55,2.56c.8,0,1.44-.35,1.82-.62.4-.22.7-.18.91.21l.16.3c.19.35.14.67-.18.9-.5.37-1.49.94-2.9.94-2.71,0-4.43-1.91-4.43-4.27s1.73-4.27,4.43-4.27Z"/>
      <path class="cls-2" d="M102.02,109.56c0-.43.24-.67.67-.67h.69c.45,0,.67.24.67.67v3.3c0,.4-.05.69-.05.69h.03c.4-.79,1.42-1.65,2.83-1.65,1.81,0,2.85.94,2.85,3.11v4.58c0,.45-.24.67-.67.67h-.69c-.45,0-.67-.22-.67-.67v-4.16c0-.99-.26-1.66-1.28-1.66-1.42,0-2.35,1.15-2.35,2.71v3.12c0,.45-.22.67-.67.67h-.69c-.43,0-.67-.22-.67-.67v-10.02Z"/>
    </g>
  </g>
</svg>