<?xml version="1.0" encoding="UTF-8"?>
<svg xmlns="http://www.w3.org/2000/svg" viewBox="0 0 141.73 141.73">
  <defs>
    <style>
      .cls-1 {
        fill: #fecc95;
      }

      .cls-2 {
        fill: #f6f6f6;
      }

      .cls-3 {
        fill: #fce87e;
      }

      .cls-4 {
        fill: #f1f2f2;
      }

      .cls-5 {
        fill: none;
      }

      .cls-6 {
        fill: #55b6cf;
        stroke: #55b6cf;
        stroke-miterlimit: 10;
        stroke-width: .5px;
      }

      .cls-7 {
        fill: #e5b17e;
      }

      .cls-8 {
        fill: #fcb44a;
      }

      .cls-9 {
        fill: #234c89;
      }
    </style>
  </defs>
  <g id="Bottom_BGS" data-name="Bottom BGS">
    <path class="cls-6" d="M0,0v49.13c6.99,1.16,13.98,2.28,20.98,3.3-.29-10.81,3.54-21.75,11.2-29.18,9.79-9.49,22.14-9.36,37.05-9.91,5.97-.21,36.56-1.34,42.93,12.87,3.85,8.57-4.55,15.01-.17,27.67.45,1.31.97,2.46,1.52,3.49,9.36-.7,18.77-1.88,28.23-3.6V0H0Z"/>
  </g>
  <g id="Elements">
    <g id="pfXnZf.tif">
      <g>
        <path class="cls-1" d="M77.63,33.76c2.43-.03,4.56.76,6.33,2.43.4.38.79.5,1.31.5,5.64-.01,11.28,0,16.91,0,.57,0,1.15-.05,1.64.35-.5,1.75-1.65,2.63-3.47,2.63-8.09,0-16.18,0-24.27,0-.25,0-.5-.02-.74,0-.8.1-1.4.86-1.29,1.62.16,1.11.24,2.22.32,3.33.1,1.39.21,2.77.35,4.16.26,2.6.44,5.21.61,7.82.1,1.5.27,3,.18,4.51-.02.26.1.48.2.7,1.93,4.08,3.86,8.17,5.8,12.25,1.58,3.31,3.23,6.59,4.77,9.93.8,1.74,3.05,5.97,3.69,7.78-.99,0-1.47,0-2.46,0-4.64-6.9-11.08-16.35-15.71-23.26-.32-.48-.68-.85-1.26-.96-.54-.86-1.58-1.32-2.5-1.1-1.49.36-2.25,1.32-2.25,2.88,0,7.02,0,14.04,0,21.05,0,1.08-.4,1.48-1.48,1.48-1.37,0-2.74,0-4.11,0,.54-.73,1.04-1.48,1.62-2.17.31-.38.43-.73.31-1.2-1.02-4.17-1.78-8.39-2.37-12.64-.43-3.08-.74-6.18-.92-9.3-.14-2.44-.2-4.88-.09-7.31.14-2.89.48-5.77.74-8.66.12-1.39.25-2.78.38-4.17.17-.88.31-1.77.33-2.67,0-.35.06-.71-.13-1.05-.8-1.43-1.54-2.89-2.53-4.21,0-.04,0-.07,0-.11,2.03-1.63,4.52-2.4,6.76-3.64.25-.14.41-.13.61.13.48.64,1.14,1.09,1.81,1.52,3.61,2.34,8.9,1.07,10.93-2.63Z"/>
        <path class="cls-7" d="M89.96,91.77c-.63-1.82-2.88-6.04-3.69-7.78-1.54-3.33-3.19-6.61-4.77-9.93-1.95-4.08-3.87-8.17-5.8-12.25-.11-.22-.22-.44-.2-.7.09-1.51-.08-3.01-.18-4.51-.17-2.61-.35-5.22-.61-7.82-.14-1.38-.25-2.77-.35-4.16-.08-1.11-.16-2.23-.32-3.33-.11-.76.49-1.52,1.29-1.62.24-.03.49,0,.74,0,8.09,0,16.18,0,24.27,0,1.82,0,2.98-.88,3.47-2.63,1.18.58,1.92,1.89,1.73,3.07-.23,1.48-1.27,2.63-2.6,2.84-.57.09-1.14.13-1.72.13-7.38,0-14.76.01-22.14,0-.73,0-.94.09-.85.94.54,5.11,1.22,10.22,1.38,15.37.05,1.65.55,3.13,1.26,4.6,4.05,8.39,8.87,19.38,12.89,27.79-1.42,0-2.39,0-3.81,0Z"/>
        <path class="cls-1" d="M63.15,31.6c-.62-1.12-1.46-2.11-1.84-3.36-1.35-4.47-1.73-8.9.99-13.03,2.19-3.32,6.4-4.57,9.9-3.08.05.15.08.32.17.45.6.92,1.09,1.9,1.41,2.95,1.23,4.1,1.23,8.23.2,12.36-.55,2.2-1.57,4.19-3.44,5.61-.64.48-1.31.83-2.19.7-1.92-.29-3.55-1.18-5.03-2.38-.06-.07-.12-.15-.18-.22h0Z"/>
        <path class="cls-7" d="M63.32,31.82c1.48,1.2,3.11,2.08,5.03,2.38.88.13,1.55-.21,2.19-.7,1.88-1.42,2.89-3.41,3.44-5.61,1.03-4.12,1.03-8.26-.2-12.36-.31-1.05-.81-2.03-1.41-2.95-.08-.13-.11-.3-.17-.45,2.29.81,3.87,2.44,4.76,4.6,1.95,4.73,1.46,9.37-1.05,13.79-.8,1.41-2.06,2.41-3.54,3.23,1.75,0,3.5,0,5.25,0-2.02,3.7-7.32,4.97-10.93,2.63-.67-.43-1.33-.88-1.81-1.52-.2-.26-.36-.28-.61-.13-2.24,1.24-4.73,2.01-6.76,3.64-4.84-2.32-9.68-4.64-14.52-6.96-.62-.3-1.25-.57-1.87-.85,0-1.09.06-2.18.27-3.26.15.05.32.09.46.16,2.83,1.36,5.66,2.72,8.5,4.08,1.9.91,3.8,1.79,5.7,2.69.28.13.59.26.87.11,1.84-.96,3.79-1.68,5.56-2.76.22,0,.44.01.66.02,0,0,0,0,0,0,.06.07.12.15.18.22Z"/>
        <path class="cls-9" d="M41.4,27.31c-.21,1.08-.27,2.17-.27,3.26-.19,5.32.69,10.46,2.55,15.44.03.07.09.13.22.31.35-.81.67-1.55.98-2.28.35-.82.99-1.2,1.64-.97.79.28,1.08.96.71,1.88-.68,1.68-1.37,3.34-2.09,5-.37.85-.95,1.08-1.8.74-1.7-.69-3.39-1.41-5.07-2.14-.81-.35-1.07-.96-.8-1.64.3-.74.91-.99,1.76-.67.65.24,1.29.52,2.11.86-.24-.71-.42-1.24-.59-1.78-1.51-4.53-2.26-9.18-2.15-13.97.02-.68,0-1.37,0-2.06.11-1.1.22-2.2.32-3.29.21-1.14.42-2.27.63-3.41.43-2.02,1.13-3.96,1.73-5.93.02-.04.07-.1.06-.12-.05-.1-.12-.04-.17.01-.67.25-1.33.5-2,.74-.76.28-1.4.03-1.71-.66-.29-.66,0-1.34.75-1.66,1.66-.71,3.33-1.42,5-2.11.98-.4,1.53-.18,1.97.82.7,1.61,1.37,3.23,2.03,4.85.37.93.11,1.6-.68,1.89-.66.25-1.28-.12-1.66-.94-.31-.68-.5-1.43-1.03-2.17-.89,2.19-1.52,4.32-1.92,6.52-.27,1.14-.51,2.28-.53,3.46Z"/>
        <path class="cls-7" d="M60.19,91.87c1.37,0,2.74,0,4.11,0,1.08,0,1.48-.4,1.48-1.48,0-7.02,0-14.04,0-21.05,0-1.56.76-2.52,2.25-2.88.91-.22,1.96.24,2.5,1.1-1.1.26-1.31.5-1.31,1.62,0,7.84,0,15.69,0,23.53,0,1.47-.44,1.91-1.91,1.92-1.84,0-3.68,0-5.51,0-.79,0-1.48-.26-1.84-1-.29-.6-.27-1.22.23-1.75Z"/>
        <path class="cls-7" d="M57.52,38.49c.99,1.31,1.73,2.78,2.53,4.21.19.33.14.69.13,1.05-.02.9-.15,1.79-.33,2.67-1.6,2.45-2.96,5.04-4.44,7.56-1.65,2.81-3.25,5.64-4.9,8.45-.89,1.52-2.61,2.04-4.17,1.29,1.37-2.33,2.75-4.65,4.1-6.99,1.96-3.38,4.06-6.69,5.81-10.18.98-1.95,1.02-3.9-.69-5.57.41-1.02,1.15-1.78,1.95-2.5Z"/>
        <path class="cls-1" d="M55.58,40.98c1.7,1.67,1.67,3.62.69,5.57-1.76,3.48-3.85,6.8-5.81,10.18-1.36,2.33-2.73,4.66-4.1,6.99-1.66-.78-2.37-2.65-1.47-4.26,1.77-3.18,3.61-6.33,5.43-9.48,1.54-2.68,3.09-5.36,4.64-8.04.19-.33.42-.63.63-.95Z"/>
        <path class="cls-8" d="M102.52,26.26c-.56-.52-1.15-1.01-1.69-1.55-.6-.61-.6-1.27-.06-1.82.5-.51,1.25-.52,1.84.05,1.34,1.3,2.66,2.62,3.96,3.96.59.61.56,1.29-.04,1.9-1.29,1.31-2.59,2.61-3.9,3.9-.65.63-1.31.63-1.87.04-.53-.55-.51-1.17.08-1.82.26-.28.53-.56.82-.81.29-.25.61-.47.98-.75-.48-.32-.78-.23-1.06-.23-3.43,0-6.86,0-10.29,0-.33,0-.66.03-.97-.11-.54-.24-.82-.64-.8-1.22.02-.58.31-.97.88-1.16.32-.1.65-.1.98-.1,3.4,0,6.81,0,10.21,0,.27,0,.53,0,.8,0,.05-.09.1-.17.14-.26Z"/>
        <path class="cls-1" d="M41.4,27.31c.02-1.18.26-2.32.53-3.46,2.02.78,3.91,1.83,5.87,2.75,3.32,1.55,6.63,3.15,9.91,4.78.88.44,1.66.07,2.47-.03.8-.1,1.57-.07,2.32.24-1.77,1.09-3.73,1.8-5.56,2.76-.28.14-.58.02-.87-.11-1.9-.9-3.81-1.79-5.7-2.69-2.84-1.35-5.66-2.72-8.5-4.08-.15-.07-.31-.1-.46-.16Z"/>
        <path class="cls-7" d="M38.93,26c-.11,1.1-.22,2.2-.32,3.29-.91-.38-1.82-.75-2.62-1.33-1.22-.88-1.61-2.67-.86-3.84,1.22.72,2.5,1.32,3.81,1.87Z"/>
        <path class="cls-1" d="M38.93,26c-1.31-.55-2.58-1.16-3.81-1.87.42-1.37,2.04-2.21,3.51-1.81.31.08.62.19.93.28-.21,1.14-.42,2.27-.63,3.41Z"/>
        <path class="cls-7" d="M89.96,91.77c1.27-.07,2.54-.07,3.81,0-.27,2.32-2.75,3.51-4.58,2.2.45-.46.77-.96.65-1.66-.03-.17.08-.36.13-.54Z"/>
        <path class="cls-1" d="M89.96,91.77c-.05.18-.16.37-.13.54.12.7-.2,1.2-.65,1.66-.84-.52-1.24-1.39-1.68-2.21.82-.06,1.64-.07,2.46,0Z"/>
        <path class="cls-3" d="M77.42,91.78s-.01,0-.01,0c0,0,.01,0,.01,0Z"/>
        <path class="cls-2" d="M63.32,31.82c-.06-.07-.12-.15-.18-.22.06.07.12.15.18.22Z"/>
        <path class="cls-2" d="M41.19,16.55c.05-.05.12-.11.17-.01.01.02-.04.08-.06.12-.04-.04-.07-.07-.11-.11Z"/>
      </g>
    </g>
  </g>
  <g id="Top_BGS" data-name="Top BGS">
    <path class="cls-6" d="M122.55,70.78c-.39,9.28-17.5,17.12-34.05,20.51-3.27.67-6.52,1.17-9.6,1.47-1.27.12-2.55.25-3.86.34-3.16.23-6.53.29-10.4-.2-1.02-.12-2.07-.29-3.16-.5-1.18-.22-2.93-.55-5.06-1.06-9.2-2.22-25.37-7.93-32.3-24.21-1.97-4.62-2.99-9.64-3.13-14.69C13.98,51.4,6.99,50.29,0,49.13v92.6h141.73V53.78c-9.46,1.72-18.87,2.9-28.23,3.6,3.78,7.05,9.26,8.07,9.04,13.39Z"/>
  </g>
  <g id="Texts">
    <g>
      <rect class="cls-5" x="0" y="87.41" width="141.73" height="54.32"/>
      <path class="cls-4" d="M53.27,102.06c0-.43.22-.67.66-.67h3.39c2.05,0,3.52,1.06,3.52,2.93,0,1.06-.51,1.97-1.38,2.43v.03c1.23.37,1.83,1.52,1.83,2.67,0,2.27-1.81,3.3-3.92,3.3h-3.44c-.43,0-.66-.22-.66-.67v-10.02ZM57.34,106.03c.9,0,1.39-.64,1.39-1.46s-.48-1.41-1.44-1.41h-1.97v2.87h2.02ZM57.53,110.98c1.06,0,1.65-.69,1.65-1.65s-.61-1.63-1.65-1.63h-2.21v3.28h2.21Z"/>
      <path class="cls-4" d="M66.92,104.4c2.48,0,4.5,1.78,4.5,4.27s-2.02,4.27-4.5,4.27-4.48-1.76-4.48-4.27,2-4.27,4.48-4.27ZM66.92,111.22c1.33,0,2.43-1.02,2.43-2.54s-1.1-2.54-2.43-2.54-2.42,1.04-2.42,2.54,1.09,2.54,2.42,2.54Z"/>
      <path class="cls-4" d="M76.12,104.4c1.79,0,2.38,1.17,2.38,1.17h.03s-.03-.21-.03-.46v-3.04c0-.43.22-.67.66-.67h.71c.43,0,.66.24.66.67v10.02c0,.45-.22.67-.66.67h-.59c-.43,0-.66-.21-.66-.61v-.32c0-.16.03-.29.03-.29h-.03s-.69,1.41-2.56,1.41c-2.21,0-3.63-1.75-3.63-4.27s1.54-4.27,3.7-4.27ZM76.51,111.23c1.06,0,2.05-.77,2.05-2.58,0-1.26-.66-2.51-2.03-2.51-1.1,0-2.05.91-2.05,2.53s.83,2.56,2.03,2.56Z"/>
      <path class="cls-4" d="M82.65,114.29c.14.06.34.14.58.14.59,0,1.06-.51,1.3-1.09l.3-.72-3.11-7.25c-.21-.46,0-.78.51-.78h.86c.4,0,.62.18.75.54l1.54,4.16c.14.43.3,1.1.3,1.1h.03s.14-.64.27-1.07l1.44-4.18c.11-.38.35-.56.75-.56h.8c.5,0,.7.3.54.77l-3.36,8.61c-.56,1.49-1.75,2.14-2.95,2.14-.45,0-.85-.13-1.14-.24-.38-.14-.48-.5-.3-.86l.14-.35c.18-.37.45-.43.72-.37Z"/>
      <path class="cls-4" d="M32.03,120.26c0-.43.22-.67.66-.67h.62c.43,0,.66.24.66.67v.5c0,.18-.03.37-.03.37h.03c.4-.8,1.39-1.73,2.67-1.73s2.05.58,2.38,1.68h.03c.43-.85,1.5-1.68,2.79-1.68,1.7,0,2.67.96,2.67,3.11v4.58c0,.45-.24.67-.67.67h-.69c-.45,0-.67-.22-.67-.67v-4.19c0-.93-.18-1.63-1.12-1.63-1.38,0-2.08,1.41-2.08,2.83v2.99c0,.45-.22.67-.66.67h-.71c-.43,0-.67-.22-.67-.67v-4.19c0-.88-.13-1.63-1.09-1.63-1.44,0-2.11,1.47-2.11,2.83v2.99c0,.45-.22.67-.66.67h-.7c-.43,0-.66-.22-.66-.67v-6.82Z"/>
      <path class="cls-4" d="M50.36,119.4c2.48,0,4.5,1.78,4.5,4.27s-2.02,4.27-4.5,4.27-4.48-1.76-4.48-4.27,2-4.27,4.48-4.27ZM50.36,126.22c1.33,0,2.43-1.02,2.43-2.54s-1.1-2.54-2.43-2.54-2.42,1.04-2.42,2.54,1.09,2.54,2.42,2.54Z"/>
      <path class="cls-4" d="M55.56,120.36c-.16-.46.03-.77.53-.77h.75c.38,0,.64.18.75.56l1.52,4.5c.16.48.3,1.23.3,1.23h.03s.13-.75.29-1.23l1.52-4.5c.11-.38.37-.56.75-.56h.75c.5,0,.7.3.54.77l-2.46,6.85c-.13.38-.37.54-.75.54h-1.28c-.38,0-.64-.16-.75-.54l-2.5-6.85Z"/>
      <path class="cls-4" d="M68.2,119.4c2.32,0,3.62,1.65,3.62,3.89,0,.35-.3.69-.7.69h-4.98c.13,1.47,1.22,2.24,2.45,2.24.75,0,1.38-.29,1.76-.53.4-.19.69-.14.9.22l.19.32c.19.37.13.69-.22.9-.53.34-1.49.82-2.77.82-2.71,0-4.39-1.95-4.39-4.27,0-2.51,1.7-4.27,4.15-4.27ZM69.8,122.74c-.03-1.14-.72-1.81-1.65-1.81-1.04,0-1.78.72-1.97,1.81h3.62Z"/>
      <path class="cls-4" d="M73.29,120.26c0-.43.22-.67.66-.67h.62c.43,0,.66.24.66.67v.5c0,.18-.03.37-.03.37h.03c.4-.8,1.39-1.73,2.67-1.73s2.05.58,2.38,1.68h.03c.43-.85,1.5-1.68,2.79-1.68,1.7,0,2.67.96,2.67,3.11v4.58c0,.45-.24.67-.67.67h-.69c-.45,0-.67-.22-.67-.67v-4.19c0-.93-.18-1.63-1.12-1.63-1.38,0-2.08,1.41-2.08,2.83v2.99c0,.45-.22.67-.66.67h-.71c-.43,0-.67-.22-.67-.67v-4.19c0-.88-.13-1.63-1.09-1.63-1.44,0-2.11,1.47-2.11,2.83v2.99c0,.45-.22.67-.66.67h-.7c-.43,0-.66-.22-.66-.67v-6.82Z"/>
      <path class="cls-4" d="M91.31,119.4c2.32,0,3.62,1.65,3.62,3.89,0,.35-.3.69-.7.69h-4.98c.13,1.47,1.22,2.24,2.45,2.24.75,0,1.38-.29,1.76-.53.4-.19.69-.14.9.22l.19.32c.19.37.13.69-.22.9-.53.34-1.49.82-2.77.82-2.71,0-4.39-1.95-4.39-4.27,0-2.51,1.7-4.27,4.15-4.27ZM92.91,122.74c-.03-1.14-.72-1.81-1.65-1.81-1.04,0-1.78.72-1.97,1.81h3.62Z"/>
      <path class="cls-4" d="M96.39,120.26c0-.43.22-.67.66-.67h.62c.43,0,.66.24.66.67v.5c0,.18-.03.37-.03.37h.03c.35-.69,1.25-1.73,2.9-1.73,1.81,0,2.85.94,2.85,3.11v4.58c0,.45-.22.67-.67.67h-.69c-.43,0-.67-.22-.67-.67v-4.16c0-.99-.26-1.66-1.28-1.66-1.44,0-2.35,1.2-2.35,2.67v3.15c0,.45-.22.67-.66.67h-.7c-.43,0-.66-.22-.66-.67v-6.82Z"/>
      <path class="cls-4" d="M106.35,121.32h-.43c-.43,0-.66-.22-.66-.67v-.27c0-.43.22-.67.67-.67h.46v-1.67c0-.43.24-.67.67-.67h.64c.43,0,.67.24.67.67v1.67h1.18c.43,0,.67.24.67.67v.27c0,.45-.24.67-.66.67h-1.2v3.17c0,1.22.75,1.46,1.31,1.52.5.05.67.21.67.66v.5c0,.48-.27.67-.83.67-1.46,0-3.18-.78-3.18-2.99v-3.52Z"/>
    </g>
  </g>
</svg>