<?xml version="1.0" encoding="UTF-8"?>
<svg xmlns="http://www.w3.org/2000/svg" viewBox="0 0 141.73 141.73">
  <defs>
    <style>
      .cls-1 {
        fill: #fff9ee;
      }

      .cls-2 {
        fill: #ec724a;
      }

      .cls-3 {
        fill: none;
      }

      .cls-4 {
        fill: #f15b5c;
      }
    </style>
  </defs>
  <g id="Front_BG" data-name="Front BG">
    <rect class="cls-2" x="0" width="141.73" height="141.73"/>
  </g>
  <g id="Front_Texts" data-name="Front Texts">
    <g>
      <rect class="cls-3" x="11.7" y="62.79" width="118.34" height="16.16"/>
      <path class="cls-1" d="M35.28,75.91c-.11-.08-.2-.17-.28-.27-.08-.1-.14-.21-.17-.34-.03-.13-.03-.26,0-.41.03-.15.12-.31.25-.5l.62-.9c.2-.29.42-.46.66-.49s.53.04.86.23c.12.07.26.15.43.24.17.09.36.19.58.29.22.1.46.18.73.25.27.07.55.1.86.1.52,0,.9-.1,1.15-.29.25-.19.37-.43.37-.71,0-.33-.16-.62-.47-.85-.31-.23-.7-.45-1.17-.66-.47-.21-.97-.43-1.52-.66s-1.05-.52-1.52-.87-.86-.77-1.17-1.27-.47-1.12-.47-1.87c0-.65.13-1.25.39-1.79s.62-1,1.07-1.39c.45-.39.99-.68,1.62-.89.63-.21,1.3-.31,2.02-.31.84,0,1.61.12,2.3.35s1.21.47,1.56.71c.29.21.46.44.5.69.04.25-.01.52-.16.81l-.48.94c-.2.39-.43.58-.69.59-.26,0-.53-.06-.81-.21-.33-.16-.68-.31-1.03-.45-.35-.14-.76-.21-1.23-.21-.56,0-.96.1-1.2.29-.24.19-.36.43-.36.71,0,.35.16.63.47.86.31.23.7.44,1.17.64.47.2.97.41,1.52.63.55.22,1.05.5,1.52.84.47.34.86.76,1.17,1.26s.47,1.12.47,1.87c0,.6-.11,1.17-.33,1.71-.22.54-.54,1.01-.97,1.42s-.95.73-1.58.97c-.63.24-1.34.36-2.14.36-.51,0-.99-.05-1.45-.14-.46-.09-.89-.21-1.28-.35s-.75-.29-1.06-.46c-.31-.17-.56-.32-.75-.47Z"/>
      <path class="cls-1" d="M46.8,69.67h-.3c-.72,0-1.08-.37-1.08-1.1v-.5c0-.73.37-1.1,1.1-1.1h.38v-1.86c0-.73.37-1.1,1.1-1.1h1.16c.73,0,1.1.37,1.1,1.1v1.86h1.06c.73,0,1.1.37,1.1,1.1v.5c0,.73-.36,1.1-1.08,1.1h-1.08v3.12c0,.44.12.76.37.95.25.19.52.31.83.35.4.05.68.15.85.3.17.15.25.41.25.8v.9c0,.41-.12.7-.36.86-.24.16-.59.24-1.06.24-.39,0-.83-.05-1.32-.16-.49-.11-.97-.3-1.42-.58-.45-.28-.83-.66-1.14-1.15-.31-.49-.46-1.11-.46-1.87v-3.76Z"/>
      <path class="cls-1" d="M54.08,67.89c0-.73.37-1.1,1.1-1.1h1.26c.73,0,1.1.37,1.1,1.1v8.1c0,.73-.37,1.1-1.1,1.1h-1.26c-.73,0-1.1-.37-1.1-1.1v-8.1ZM55.22,65.49c-.73,0-1.1-.37-1.1-1.1v-.5c0-.73.37-1.1,1.1-1.1h1.18c.73,0,1.1.37,1.1,1.1v.5c0,.73-.37,1.1-1.1,1.1h-1.18Z"/>
      <path class="cls-1" d="M59.58,67.89c0-.73.37-1.1,1.1-1.1h1.12c.72,0,1.08.37,1.08,1.1v.18s0,.05-.01.08,0,.05,0,.08v.1h.04c.12-.17.27-.37.45-.58s.4-.41.65-.58c.25-.17.54-.32.87-.44.33-.12.69-.18,1.09-.18.65,0,1.23.14,1.73.43s.88.72,1.15,1.31h.04c.13-.21.31-.42.53-.63.22-.21.47-.39.75-.56.28-.17.59-.3.93-.4s.7-.15,1.09-.15c.47,0,.9.07,1.31.2.41.13.76.35,1.06.66.3.31.54.71.71,1.2.17.49.26,1.09.26,1.8v5.58c0,.73-.37,1.1-1.1,1.1h-1.26c-.73,0-1.1-.37-1.1-1.1v-5c0-.39-.05-.7-.15-.94-.1-.24-.32-.36-.65-.36-.37,0-.69.09-.94.26-.25.17-.46.4-.61.68-.15.28-.26.6-.33.97-.07.37-.1.74-.1,1.13v3.26c0,.73-.37,1.1-1.1,1.1h-1.26c-.73,0-1.1-.37-1.1-1.1v-5c0-.39-.05-.7-.15-.94-.1-.24-.32-.36-.65-.36-.4,0-.73.09-.98.28-.25.19-.45.42-.6.71-.15.29-.25.61-.31.97-.06.36-.09.72-.09,1.08v3.26c0,.73-.37,1.1-1.1,1.1h-1.26c-.73,0-1.1-.37-1.1-1.1v-8.1Z"/>
      <path class="cls-1" d="M76.84,71.97c0-.81.15-1.55.46-2.22.31-.67.72-1.24,1.25-1.71.53-.47,1.14-.84,1.85-1.1.71-.26,1.46-.39,2.26-.39s1.58.13,2.29.39c.71.26,1.33.63,1.86,1.1.53.47.94,1.04,1.25,1.71s.46,1.41.46,2.22-.15,1.53-.46,2.19c-.31.66-.72,1.23-1.25,1.7-.53.47-1.14.84-1.85,1.09-.71.25-1.47.38-2.28.38s-1.57-.13-2.28-.38c-.71-.25-1.32-.62-1.85-1.09-.53-.47-.94-1.04-1.25-1.7-.31-.66-.46-1.39-.46-2.19ZM80.34,71.97c0,.38.06.73.19,1.03s.3.56.51.77c.21.21.46.37.74.49.28.11.58.17.9.17s.62-.06.9-.17c.28-.11.53-.27.74-.49.21-.21.38-.47.51-.77s.19-.65.19-1.03-.06-.73-.19-1.04c-.13-.31-.3-.58-.51-.79-.21-.22-.46-.39-.74-.51-.28-.12-.58-.18-.9-.18s-.62.06-.9.18c-.28.12-.53.29-.74.51-.21.22-.38.48-.51.79-.13.31-.19.66-.19,1.04Z"/>
      <path class="cls-1" d="M89.94,63.89c0-.73.37-1.1,1.1-1.1h1.26c.73,0,1.1.37,1.1,1.1v9.24c0,.39.06.65.17.78.11.13.25.21.41.24.24.03.43.11.58.26.15.15.22.37.22.68v.98c0,.35-.09.62-.26.82-.17.2-.46.3-.86.3-.44,0-.88-.04-1.33-.12-.45-.08-.85-.26-1.2-.53s-.64-.67-.86-1.18c-.22-.51-.33-1.2-.33-2.07v-9.4Z"/>
      <path class="cls-1" d="M95.46,71.97c0-.81.15-1.55.46-2.22.31-.67.72-1.24,1.25-1.71.53-.47,1.14-.84,1.85-1.1.71-.26,1.46-.39,2.26-.39s1.58.13,2.29.39c.71.26,1.33.63,1.86,1.1.53.47.94,1.04,1.25,1.71s.46,1.41.46,2.22-.15,1.53-.46,2.19c-.31.66-.72,1.23-1.25,1.7-.53.47-1.14.84-1.85,1.09-.71.25-1.47.38-2.28.38s-1.57-.13-2.28-.38c-.71-.25-1.32-.62-1.85-1.09-.53-.47-.94-1.04-1.25-1.7-.31-.66-.46-1.39-.46-2.19ZM98.96,71.97c0,.38.06.73.19,1.03s.3.56.51.77c.21.21.46.37.74.49.28.11.58.17.9.17s.62-.06.9-.17c.28-.11.53-.27.74-.49.21-.21.38-.47.51-.77s.19-.65.19-1.03-.06-.73-.19-1.04c-.13-.31-.3-.58-.51-.79-.21-.22-.46-.39-.74-.51-.28-.12-.58-.18-.9-.18s-.62.06-.9.18c-.28.12-.53.29-.74.51-.21.22-.38.48-.51.79-.13.31-.19.66-.19,1.04Z"/>
    </g>
    <path class="cls-1" d="M56.25,116.94l1.68-2.14c.53-.68,1.05-1.52,1.78-2.01.83-.55,1.67-.31,1.86.71.12.67.04,1.37.28,2.02.35.97,1.32,1.97,2.42,1.45.54-.26.83-.8,1.15-1.28.48-.74.99-1.46,1.54-2.14s1.36-1.77,2.19-.85c.59.65.6,1.64.79,2.46.27,1.14,1.07,2.4,2.39,2.4,2.94,0,3.1-6.87,6.64-4.35,1.42,1.01,2,2.82,3.39,3.88,1.09.84,2.69,1.15,3.85.27.59-.45,0-1.47-.59-1.01-1.52,1.17-3.07-.54-3.89-1.71s-1.66-2.39-3.04-2.9-2.63-.01-3.54,1.01c-.47.53-.81,1.14-1.15,1.75s-.96,2.08-1.86,1.86-1.05-1.48-1.19-2.21-.29-1.41-.74-2.01c-.77-1.03-2.06-1.32-3.09-.47-1.18.96-2.03,2.46-2.86,3.7-.26.39-.55.73-1,.33-.29-.27-.37-.78-.41-1.14-.07-.68-.05-1.37-.34-2-.56-1.26-2.05-1.52-3.2-.88-.74.42-1.26,1.12-1.77,1.78-.7.89-1.4,1.78-2.1,2.68-.46.59.36,1.42.83.83h0Z"/>
    <circle class="cls-4" cx="55.76" cy="63.9" r="2.23"/>
  </g>
</svg>