<?xml version="1.0" encoding="UTF-8"?>
<svg xmlns="http://www.w3.org/2000/svg" viewBox="0 0 141.73 141.73">
  <defs>
    <style>
      .cls-1 {
        fill: #fff9ee;
      }

      .cls-2 {
        fill: none;
      }

      .cls-3 {
        fill: #fcb44a;
      }
    </style>
  </defs>
  <g id="Front_BG" data-name="Front BG">
    <rect class="cls-3" x="0" width="141.73" height="141.73"/>
  </g>
  <g id="Front_Texts" data-name="Front Texts">
    <g>
      <rect class="cls-2" x="11.7" y="62.79" width="118.34" height="16.16"/>
      <path class="cls-1" d="M43.96,75.91c-.11-.08-.2-.17-.28-.27-.08-.1-.14-.21-.17-.34-.03-.13-.03-.26,0-.41.03-.15.12-.31.25-.5l.62-.9c.2-.29.42-.46.66-.49s.53.04.86.23c.12.07.26.15.43.24.17.09.36.19.58.29.22.1.46.18.73.25.27.07.55.1.86.1.52,0,.9-.1,1.15-.29.25-.19.37-.43.37-.71,0-.33-.16-.62-.47-.85-.31-.23-.7-.45-1.17-.66-.47-.21-.97-.43-1.52-.66s-1.05-.52-1.52-.87-.86-.77-1.17-1.27-.47-1.12-.47-1.87c0-.65.13-1.25.39-1.79s.62-1,1.07-1.39c.45-.39.99-.68,1.62-.89.63-.21,1.3-.31,2.02-.31.84,0,1.61.12,2.3.35s1.21.47,1.56.71c.29.21.46.44.5.69.04.25-.01.52-.16.81l-.48.94c-.2.39-.43.58-.69.59-.26,0-.53-.06-.81-.21-.33-.16-.68-.31-1.03-.45-.35-.14-.76-.21-1.23-.21-.56,0-.96.1-1.2.29-.24.19-.36.43-.36.71,0,.35.16.63.47.86.31.23.7.44,1.17.64.47.2.97.41,1.52.63.55.22,1.05.5,1.52.84.47.34.86.76,1.17,1.26s.47,1.12.47,1.87c0,.6-.11,1.17-.33,1.71-.22.54-.54,1.01-.97,1.42s-.95.73-1.58.97c-.63.24-1.34.36-2.14.36-.51,0-.99-.05-1.45-.14-.46-.09-.89-.21-1.28-.35s-.75-.29-1.06-.46c-.31-.17-.56-.32-.75-.47Z"/>
      <path class="cls-1" d="M54.42,71.93c0-.76.12-1.47.37-2.12.25-.65.6-1.22,1.06-1.7s1.02-.86,1.69-1.14c.67-.28,1.41-.42,2.24-.42.76,0,1.44.13,2.03.38.59.25,1.09.6,1.5,1.04.41.44.71.96.92,1.56s.31,1.25.31,1.94c0,.27-.11.52-.32.77-.21.25-.49.37-.84.37h-5.42c.13.63.43,1.1.88,1.38.45.29.96.44,1.52.44.35,0,.68-.05,1-.14s.61-.21.88-.34c.33-.15.62-.19.86-.14s.45.24.62.56l.28.52c.16.31.21.59.16.86-.05.26-.23.48-.54.65-.37.21-.86.42-1.45.62-.59.2-1.29.3-2.09.3-.92,0-1.73-.15-2.44-.46-.71-.31-1.3-.71-1.77-1.21-.47-.5-.83-1.08-1.08-1.73-.25-.65-.37-1.32-.37-2ZM61.12,70.63c0-.43-.13-.79-.38-1.09-.25-.3-.6-.45-1.04-.45-.51,0-.89.15-1.14.46-.25.31-.43.67-.52,1.08h3.08Z"/>
      <path class="cls-1" d="M65.96,67.89c0-.73.37-1.1,1.1-1.1h1.12c.72,0,1.08.37,1.08,1.1v.18s0,.05-.01.08,0,.05,0,.08v.1h.04c.12-.2.27-.41.46-.62s.41-.4.68-.57c.27-.17.58-.31.93-.42.35-.11.76-.17,1.21-.17.52,0,1.01.07,1.46.2s.84.35,1.17.65c.33.3.59.7.78,1.19.19.49.29,1.1.29,1.82v5.58c0,.73-.37,1.1-1.1,1.1h-1.26c-.73,0-1.1-.37-1.1-1.1v-4.94c0-.48-.09-.83-.28-1.04-.19-.21-.47-.32-.86-.32s-.72.07-1,.22c-.28.15-.51.35-.7.6-.19.25-.32.55-.41.88-.09.33-.13.68-.13,1.04v3.56c0,.73-.37,1.1-1.1,1.1h-1.26c-.73,0-1.1-.37-1.1-1.1v-8.1Z"/>
      <path class="cls-1" d="M78.16,76.39c-.31-.17-.48-.39-.51-.66s.04-.55.23-.86l.3-.46c.2-.29.42-.46.65-.5.23-.04.52.02.87.18.25.11.54.22.86.35.32.13.69.19,1.1.19.35,0,.59-.06.73-.17s.21-.25.21-.41c0-.2-.12-.36-.36-.48-.24-.12-.54-.24-.89-.35-.35-.11-.74-.24-1.16-.38s-.81-.33-1.16-.58c-.35-.25-.65-.57-.89-.96-.24-.39-.36-.89-.36-1.49,0-.53.11-1,.33-1.41.22-.41.52-.75.91-1.02.39-.27.84-.48,1.36-.62.52-.14,1.08-.21,1.68-.21.65,0,1.22.07,1.71.22.49.15.89.29,1.21.44.31.15.49.35.54.62s0,.55-.14.86l-.24.48c-.15.32-.34.51-.58.58s-.53.03-.88-.1c-.24-.09-.51-.18-.8-.27-.29-.09-.61-.13-.96-.13-.37,0-.62.05-.74.16-.12.11-.18.23-.18.38,0,.2.12.36.36.47.24.11.54.23.89.34.35.11.74.24,1.16.37.42.13.81.32,1.16.57s.65.56.89.94c.24.38.36.87.36,1.47,0,.48-.1.93-.29,1.34s-.47.77-.84,1.07c-.37.3-.81.54-1.34.71s-1.12.26-1.77.26c-.77,0-1.45-.1-2.02-.31s-1.04-.42-1.4-.63Z"/>
      <path class="cls-1" d="M86.78,71.97c0-.81.15-1.55.46-2.22.31-.67.72-1.24,1.25-1.71.53-.47,1.14-.84,1.85-1.1.71-.26,1.46-.39,2.26-.39s1.58.13,2.29.39c.71.26,1.33.63,1.86,1.1.53.47.94,1.04,1.25,1.71s.46,1.41.46,2.22-.15,1.53-.46,2.19c-.31.66-.72,1.23-1.25,1.7-.53.47-1.14.84-1.85,1.09-.71.25-1.47.38-2.28.38s-1.57-.13-2.28-.38c-.71-.25-1.32-.62-1.85-1.09-.53-.47-.94-1.04-1.25-1.7-.31-.66-.46-1.39-.46-2.19ZM90.28,71.97c0,.38.06.73.19,1.03s.3.56.51.77c.21.21.46.37.74.49.28.11.58.17.9.17s.62-.06.9-.17c.28-.11.53-.27.74-.49.21-.21.38-.47.51-.77s.19-.65.19-1.03-.06-.73-.19-1.04c-.13-.31-.3-.58-.51-.79-.21-.22-.46-.39-.74-.51-.28-.12-.58-.18-.9-.18s-.62.06-.9.18c-.28.12-.53.29-.74.51-.21.22-.38.48-.51.79-.13.31-.19.66-.19,1.04Z"/>
    </g>
    <path class="cls-1" d="M56.25,116.94l1.68-2.14c.53-.68,1.05-1.52,1.78-2.01.83-.55,1.67-.31,1.86.71.12.67.04,1.37.28,2.02.35.97,1.32,1.97,2.42,1.45.54-.26.83-.8,1.15-1.28.48-.74.99-1.46,1.54-2.14s1.36-1.77,2.19-.85c.59.65.6,1.64.79,2.46.27,1.14,1.07,2.4,2.39,2.4,2.94,0,3.1-6.87,6.64-4.35,1.42,1.01,2,2.82,3.39,3.88,1.09.84,2.69,1.15,3.85.27.59-.45,0-1.47-.59-1.01-1.52,1.17-3.07-.54-3.89-1.71s-1.66-2.39-3.04-2.9-2.63-.01-3.54,1.01c-.47.53-.81,1.14-1.15,1.75s-.96,2.08-1.86,1.86-1.05-1.48-1.19-2.21-.29-1.41-.74-2.01c-.77-1.03-2.06-1.32-3.09-.47-1.18.96-2.03,2.46-2.86,3.7-.26.39-.55.73-1,.33-.29-.27-.37-.78-.41-1.14-.07-.68-.05-1.37-.34-2-.56-1.26-2.05-1.52-3.2-.88-.74.42-1.26,1.12-1.77,1.78-.7.89-1.4,1.78-2.1,2.68-.46.59.36,1.42.83.83h0Z"/>
  </g>
</svg>