<?xml version="1.0" encoding="UTF-8"?>
<svg xmlns="http://www.w3.org/2000/svg" viewBox="0 0 141.73 141.73">
  <defs>
    <style>
      .cls-1 {
        fill: #fff9ee;
      }

      .cls-2 {
        fill: none;
      }

      .cls-3 {
        fill: #f15b5c;
      }

      .cls-4 {
        fill: #a1b860;
      }
    </style>
  </defs>
  <g id="Front_BG" data-name="Front BG">
    <rect class="cls-4" x="0" width="141.73" height="141.73"/>
  </g>
  <g id="Front_Texts" data-name="Front Texts">
    <g>
      <rect class="cls-2" x="11.7" y="62.79" width="118.34" height="16.16"/>
      <path class="cls-1" d="M30.01,63.69c.2-.6.61-.9,1.24-.9h1.8c.63,0,1.04.3,1.24.9l4.14,12.14c.13.39.12.69-.05.92-.17.23-.45.34-.85.34h-1.32c-.63,0-1.04-.31-1.24-.92l-.6-2.08h-4.46l-.6,2.08c-.17.61-.58.92-1.22.92h-1.32c-.4,0-.68-.11-.85-.34-.17-.23-.18-.53-.05-.92l4.14-12.14ZM33.55,71.29l-.8-2.78c-.07-.23-.13-.48-.19-.76-.06-.28-.12-.55-.19-.8-.07-.29-.13-.59-.2-.9h-.04c-.07.31-.13.61-.2.9-.07.25-.13.52-.19.8-.06.28-.12.53-.19.76l-.82,2.78h2.82Z"/>
      <path class="cls-1" d="M39.53,67.89c0-.73.37-1.1,1.1-1.1h1.12c.72,0,1.08.37,1.08,1.1v.18s0,.05-.01.08c0,.03,0,.05,0,.08v.1h.04c.12-.17.27-.37.45-.58.18-.21.4-.41.65-.58.25-.17.54-.32.87-.44.33-.12.69-.18,1.09-.18.65,0,1.23.14,1.73.43.5.29.88.72,1.15,1.31h.04c.13-.21.31-.42.53-.63.22-.21.47-.39.75-.56.28-.17.59-.3.93-.4.34-.1.7-.15,1.09-.15.47,0,.9.07,1.31.2.41.13.76.35,1.06.66.3.31.54.71.71,1.2.17.49.26,1.09.26,1.8v5.58c0,.73-.37,1.1-1.1,1.1h-1.26c-.73,0-1.1-.37-1.1-1.1v-5c0-.39-.05-.7-.15-.94-.1-.24-.32-.36-.65-.36-.37,0-.69.09-.94.26-.25.17-.46.4-.61.68-.15.28-.26.6-.33.97-.07.37-.1.74-.1,1.13v3.26c0,.73-.37,1.1-1.1,1.1h-1.26c-.73,0-1.1-.37-1.1-1.1v-5c0-.39-.05-.7-.15-.94-.1-.24-.32-.36-.65-.36-.4,0-.73.09-.98.28-.25.19-.45.42-.6.71s-.25.61-.31.97c-.06.36-.09.72-.09,1.08v3.26c0,.73-.37,1.1-1.1,1.1h-1.26c-.73,0-1.1-.37-1.1-1.1v-8.1Z"/>
      <path class="cls-1" d="M57.39,63.89c0-.73.37-1.1,1.1-1.1h1.26c.73,0,1.1.37,1.1,1.1v3.08c0,.13,0,.25,0,.36,0,.11,0,.2,0,.28-.01.09-.02.17-.02.24h.04c.19-.24.42-.45.7-.64.23-.16.52-.31.88-.45.36-.14.78-.21,1.26-.21.68,0,1.3.13,1.86.39.56.26,1.04.63,1.44,1.1.4.47.71,1.04.94,1.69s.34,1.37.34,2.16c0,.83-.12,1.58-.37,2.25-.25.67-.58,1.25-1.01,1.72-.43.47-.93.84-1.5,1.09-.57.25-1.19.38-1.86.38-.56,0-1.02-.07-1.39-.22-.37-.15-.66-.31-.89-.5-.27-.21-.49-.45-.66-.72h-.04v.06s0,.05,0,.07c0,.02,0,.04,0,.07v.08c0,.27-.09.49-.28.66-.19.17-.46.26-.82.26h-.98c-.73,0-1.1-.37-1.1-1.1v-12.1ZM60.75,71.9c0,.35.04.68.13.98.09.31.21.58.38.81.17.23.37.42.62.56.25.14.53.21.85.21.57,0,1.06-.21,1.46-.64.4-.43.6-1.04.6-1.85s-.18-1.38-.55-1.84c-.37-.46-.85-.69-1.45-.69-.27,0-.52.05-.77.15s-.46.25-.65.45c-.19.2-.34.46-.45.76s-.17.67-.17,1.08Z"/>
      <path class="cls-1" d="M69.77,67.89c0-.73.37-1.1,1.1-1.1h1.26c.73,0,1.1.37,1.1,1.1v8.1c0,.73-.37,1.1-1.1,1.1h-1.26c-.73,0-1.1-.37-1.1-1.1v-8.1ZM70.91,65.49c-.73,0-1.1-.37-1.1-1.1v-.5c0-.73.37-1.1,1.1-1.1h1.18c.73,0,1.1.37,1.1,1.1v.5c0,.73-.37,1.1-1.1,1.1h-1.18Z"/>
      <path class="cls-1" d="M74.69,71.93c0-.76.12-1.47.37-2.12.25-.65.6-1.22,1.06-1.7.46-.48,1.02-.86,1.69-1.14.67-.28,1.41-.42,2.24-.42.76,0,1.44.13,2.03.38.59.25,1.09.6,1.5,1.04.41.44.71.96.92,1.56.21.6.31,1.25.31,1.94,0,.27-.11.52-.32.77-.21.25-.49.37-.84.37h-5.42c.13.63.43,1.1.88,1.38.45.29.96.44,1.52.44.35,0,.68-.05,1-.14.32-.09.61-.21.88-.34.33-.15.62-.19.86-.14.24.05.45.24.62.56l.28.52c.16.31.21.59.16.86-.05.26-.23.48-.54.65-.37.21-.86.42-1.45.62-.59.2-1.29.3-2.09.3-.92,0-1.73-.15-2.44-.46-.71-.31-1.3-.71-1.77-1.21-.47-.5-.83-1.08-1.08-1.73-.25-.65-.37-1.32-.37-2ZM81.39,70.63c0-.43-.13-.79-.38-1.09-.25-.3-.6-.45-1.04-.45-.51,0-.89.15-1.14.46-.25.31-.43.67-.52,1.08h3.08Z"/>
      <path class="cls-1" d="M86.23,67.89c0-.73.37-1.1,1.1-1.1h1.12c.72,0,1.08.37,1.08,1.1v.18s0,.05-.01.08c0,.03,0,.05,0,.08v.1h.04c.12-.2.27-.41.46-.62.19-.21.41-.4.68-.57.27-.17.58-.31.93-.42.35-.11.76-.17,1.21-.17.52,0,1.01.07,1.46.2.45.13.84.35,1.17.65.33.3.59.7.78,1.19.19.49.29,1.1.29,1.82v5.58c0,.73-.37,1.1-1.1,1.1h-1.26c-.73,0-1.1-.37-1.1-1.1v-4.94c0-.48-.09-.83-.28-1.04s-.47-.32-.86-.32-.72.07-1,.22c-.28.15-.51.35-.7.6-.19.25-.32.55-.41.88-.09.33-.13.68-.13,1.04v3.56c0,.73-.37,1.1-1.1,1.1h-1.26c-.73,0-1.1-.37-1.1-1.1v-8.1Z"/>
      <path class="cls-1" d="M99.03,69.67h-.3c-.72,0-1.08-.37-1.08-1.1v-.5c0-.73.37-1.1,1.1-1.1h.38v-1.86c0-.73.37-1.1,1.1-1.1h1.16c.73,0,1.1.37,1.1,1.1v1.86h1.06c.73,0,1.1.37,1.1,1.1v.5c0,.73-.36,1.1-1.08,1.1h-1.08v3.12c0,.44.12.76.37.95.25.19.52.31.83.35.4.05.68.15.85.3.17.15.25.41.25.8v.9c0,.41-.12.7-.36.86-.24.16-.59.24-1.06.24-.39,0-.83-.05-1.32-.16-.49-.11-.97-.3-1.42-.58-.45-.28-.83-.66-1.14-1.15s-.46-1.11-.46-1.87v-3.76Z"/>
      <path class="cls-1" d="M105.61,71.93c0-.76.12-1.47.37-2.12.25-.65.6-1.22,1.06-1.7.46-.48,1.02-.86,1.69-1.14.67-.28,1.41-.42,2.24-.42.76,0,1.44.13,2.03.38.59.25,1.09.6,1.5,1.04.41.44.71.96.92,1.56.21.6.31,1.25.31,1.94,0,.27-.11.52-.32.77-.21.25-.49.37-.84.37h-5.42c.13.63.43,1.1.88,1.38.45.29.96.44,1.52.44.35,0,.68-.05,1-.14.32-.09.61-.21.88-.34.33-.15.62-.19.86-.14.24.05.45.24.62.56l.28.52c.16.31.21.59.16.86-.05.26-.23.48-.54.65-.37.21-.86.42-1.45.62-.59.2-1.29.3-2.09.3-.92,0-1.73-.15-2.44-.46-.71-.31-1.3-.71-1.77-1.21-.47-.5-.83-1.08-1.08-1.73-.25-.65-.37-1.32-.37-2ZM112.31,70.63c0-.43-.13-.79-.38-1.09-.25-.3-.6-.45-1.04-.45-.51,0-.89.15-1.14.46-.25.31-.43.67-.52,1.08h3.08Z"/>
    </g>
    <path class="cls-1" d="M56.25,116.94l1.68-2.14c.53-.68,1.05-1.52,1.78-2.01.83-.55,1.67-.31,1.86.71.12.67.04,1.37.28,2.02.35.97,1.32,1.97,2.42,1.45.54-.26.83-.8,1.15-1.28.48-.74.99-1.46,1.54-2.14s1.36-1.77,2.19-.85c.59.65.6,1.64.79,2.46.27,1.14,1.07,2.4,2.39,2.4,2.94,0,3.1-6.87,6.64-4.35,1.42,1.01,2,2.82,3.39,3.88,1.09.84,2.69,1.15,3.85.27.59-.45,0-1.47-.59-1.01-1.52,1.17-3.07-.54-3.89-1.71s-1.66-2.39-3.04-2.9-2.63-.01-3.54,1.01c-.47.53-.81,1.14-1.15,1.75s-.96,2.08-1.86,1.86-1.05-1.48-1.19-2.21-.29-1.41-.74-2.01c-.77-1.03-2.06-1.32-3.09-.47-1.18.96-2.03,2.46-2.86,3.7-.26.39-.55.73-1,.33-.29-.27-.37-.78-.41-1.14-.07-.68-.05-1.37-.34-2-.56-1.26-2.05-1.52-3.2-.88-.74.42-1.26,1.12-1.77,1.78-.7.89-1.4,1.78-2.1,2.68-.46.59.36,1.42.83.83h0Z"/>
    <circle class="cls-3" cx="71.47" cy="63.9" r="2.23"/>
  </g>
</svg>