<?xml version="1.0" encoding="UTF-8"?>
<svg xmlns="http://www.w3.org/2000/svg" viewBox="0 0 141.73 141.73">
  <defs>
    <style>
      .cls-1 {
        fill: #fff9ee;
      }

      .cls-2 {
        fill: #1f3a6e;
      }

      .cls-3 {
        fill: none;
      }

      .cls-4 {
        fill: #f15b5c;
      }
    </style>
  </defs>
  <g id="Front_BG" data-name="Front BG">
    <rect class="cls-2" x="0" width="141.73" height="141.73"/>
  </g>
  <g id="Front_Texts" data-name="Front Texts">
    <g>
      <rect class="cls-3" x="11.7" y="62.79" width="118.34" height="16.16"/>
      <path class="cls-1" d="M26.7,69.85c0-1.03.18-1.98.54-2.87.36-.89.87-1.66,1.53-2.32s1.45-1.18,2.37-1.55,1.93-.56,3.04-.56,2.12.19,3.04.56,1.71.89,2.37,1.55,1.17,1.43,1.53,2.32c.36.89.54,1.84.54,2.87s-.18,2.03-.54,2.94c-.36.91-.87,1.7-1.53,2.37-.66.67-1.45,1.2-2.37,1.59s-1.93.58-3.04.58-2.12-.19-3.04-.58-1.71-.92-2.37-1.59c-.66-.67-1.17-1.46-1.53-2.37-.36-.91-.54-1.89-.54-2.94ZM30.32,69.85c0,.61.1,1.18.29,1.7.19.52.46.97.8,1.35.34.38.75.68,1.22.9.47.22.99.33,1.55.33s1.08-.11,1.55-.33c.47-.22.88-.52,1.22-.9.34-.38.61-.83.8-1.35.19-.52.29-1.09.29-1.7s-.1-1.13-.29-1.63c-.19-.5-.46-.93-.8-1.3-.34-.37-.75-.65-1.22-.86-.47-.21-.99-.31-1.55-.31s-1.08.1-1.55.31c-.47.21-.88.49-1.22.86-.34.37-.61.8-.8,1.3s-.29,1.04-.29,1.63Z"/>
      <path class="cls-1" d="M43.12,63.89c0-.73.37-1.1,1.1-1.1h1.26c.73,0,1.1.37,1.1,1.1v3.08c0,.13,0,.25,0,.36,0,.11,0,.2,0,.28-.01.09-.02.17-.02.24h.04c.19-.24.42-.45.7-.64.23-.16.52-.31.88-.45.36-.14.78-.21,1.26-.21.68,0,1.3.13,1.86.39.56.26,1.04.63,1.44,1.1.4.47.71,1.04.94,1.69s.34,1.37.34,2.16c0,.83-.12,1.58-.37,2.25-.25.67-.58,1.25-1.01,1.72s-.93.84-1.5,1.09-1.19.38-1.86.38c-.56,0-1.02-.07-1.39-.22-.37-.15-.66-.31-.89-.5-.27-.21-.49-.45-.66-.72h-.04v.06s0,.05,0,.07c0,.02,0,.04,0,.07v.08c0,.27-.09.49-.28.66-.19.17-.46.26-.82.26h-.98c-.73,0-1.1-.37-1.1-1.1v-12.1ZM46.48,71.9c0,.35.04.68.13.98.09.31.21.58.38.81.17.23.37.42.62.56.25.14.53.21.85.21.57,0,1.06-.21,1.46-.64.4-.43.6-1.04.6-1.85s-.18-1.38-.55-1.84c-.37-.46-.85-.69-1.45-.69-.27,0-.52.05-.77.15s-.46.25-.65.45c-.19.2-.34.46-.45.76s-.17.67-.17,1.08Z"/>
      <path class="cls-1" d="M55.5,67.89c0-.73.37-1.1,1.1-1.1h1.26c.73,0,1.1.37,1.1,1.1v8.1c0,.73-.37,1.1-1.1,1.1h-1.26c-.73,0-1.1-.37-1.1-1.1v-8.1ZM56.64,65.49c-.73,0-1.1-.37-1.1-1.1v-.5c0-.73.37-1.1,1.1-1.1h1.18c.73,0,1.1.37,1.1,1.1v.5c0,.73-.37,1.1-1.1,1.1h-1.18Z"/>
      <path class="cls-1" d="M60.42,71.93c0-.76.12-1.47.37-2.12.25-.65.6-1.22,1.06-1.7.46-.48,1.02-.86,1.69-1.14.67-.28,1.41-.42,2.24-.42.76,0,1.44.13,2.03.38.59.25,1.09.6,1.5,1.04.41.44.71.96.92,1.56.21.6.31,1.25.31,1.94,0,.27-.11.52-.32.77-.21.25-.49.37-.84.37h-5.42c.13.63.43,1.09.88,1.38.45.29.96.43,1.52.43.35,0,.68-.05,1-.14.32-.09.61-.21.88-.34.33-.15.62-.19.86-.14.24.05.45.24.62.56l.28.52c.16.31.21.59.16.86-.05.26-.23.48-.54.66-.37.21-.86.42-1.45.62-.59.2-1.29.3-2.09.3-.92,0-1.73-.15-2.44-.46-.71-.31-1.3-.71-1.77-1.21-.47-.5-.83-1.08-1.08-1.73-.25-.65-.37-1.32-.37-2ZM67.12,70.63c0-.43-.13-.79-.38-1.09s-.6-.45-1.04-.45c-.51,0-.89.15-1.14.46-.25.31-.43.67-.52,1.08h3.08Z"/>
      <path class="cls-1" d="M72.58,69.67h-.3c-.72,0-1.08-.37-1.08-1.1v-.5c0-.73.37-1.1,1.1-1.1h.38v-1.86c0-.73.37-1.1,1.1-1.1h1.16c.73,0,1.1.37,1.1,1.1v1.86h1.06c.73,0,1.1.37,1.1,1.1v.5c0,.73-.36,1.1-1.08,1.1h-1.08v3.12c0,.44.12.76.37.95s.52.31.83.35c.4.05.68.15.85.3.17.15.25.41.25.8v.9c0,.41-.12.7-.36.86s-.59.24-1.06.24c-.39,0-.83-.05-1.32-.16-.49-.11-.97-.3-1.42-.58-.45-.28-.83-.66-1.14-1.15-.31-.49-.46-1.11-.46-1.87v-3.76Z"/>
      <path class="cls-1" d="M80.56,69.67h-.3c-.72,0-1.08-.37-1.08-1.1v-.5c0-.73.37-1.1,1.1-1.1h.38v-1.86c0-.73.37-1.1,1.1-1.1h1.16c.73,0,1.1.37,1.1,1.1v1.86h1.06c.73,0,1.1.37,1.1,1.1v.5c0,.73-.36,1.1-1.08,1.1h-1.08v3.12c0,.44.12.76.37.95s.52.31.83.35c.4.05.68.15.85.3.17.15.25.41.25.8v.9c0,.41-.12.7-.36.86s-.59.24-1.06.24c-.39,0-.83-.05-1.32-.16-.49-.11-.97-.3-1.42-.58-.45-.28-.83-.66-1.14-1.15-.31-.49-.46-1.11-.46-1.87v-3.76Z"/>
      <path class="cls-1" d="M87.84,67.89c0-.73.37-1.1,1.1-1.1h1.26c.73,0,1.1.37,1.1,1.1v8.1c0,.73-.37,1.1-1.1,1.1h-1.26c-.73,0-1.1-.37-1.1-1.1v-8.1ZM88.98,65.49c-.73,0-1.1-.37-1.1-1.1v-.5c0-.73.37-1.1,1.1-1.1h1.18c.73,0,1.1.37,1.1,1.1v.5c0,.73-.37,1.1-1.1,1.1h-1.18Z"/>
      <path class="cls-1" d="M92.56,68.05c-.13-.39-.12-.69.04-.92.16-.23.45-.34.86-.34h1.34c.64,0,1.05.31,1.22.92l1.34,4.56c.05.17.1.36.14.56s.08.39.12.58c.04.21.08.43.12.64h.04c.03-.21.07-.43.12-.64.03-.19.06-.38.11-.58s.1-.39.15-.56l1.32-4.56c.17-.61.58-.92,1.22-.92h1.38c.4,0,.68.11.85.34.17.23.18.53.05.92l-2.78,8.14c-.2.6-.61.9-1.24.9h-2.34c-.63,0-1.04-.3-1.24-.9l-2.82-8.14Z"/>
      <path class="cls-1" d="M103.56,71.97c0-.81.15-1.55.46-2.22.31-.67.72-1.24,1.25-1.71.53-.47,1.14-.84,1.85-1.1.71-.26,1.46-.39,2.26-.39s1.58.13,2.29.39c.71.26,1.33.63,1.86,1.1.53.47.94,1.04,1.25,1.71.31.67.46,1.41.46,2.22s-.15,1.53-.46,2.19-.72,1.23-1.25,1.7c-.53.47-1.14.84-1.85,1.09-.71.25-1.47.38-2.28.38s-1.57-.13-2.28-.38-1.32-.62-1.85-1.09c-.53-.47-.94-1.04-1.25-1.7-.31-.66-.46-1.39-.46-2.19ZM107.06,71.97c0,.38.06.73.19,1.03.13.3.3.56.51.77.21.21.46.37.74.49s.58.17.9.17.62-.06.9-.17c.28-.11.53-.27.74-.49s.38-.47.51-.77c.13-.3.19-.65.19-1.03s-.06-.73-.19-1.04c-.13-.31-.3-.58-.51-.79s-.46-.39-.74-.51c-.28-.12-.58-.18-.9-.18s-.62.06-.9.18-.53.29-.74.51c-.21.22-.38.48-.51.79-.13.31-.19.66-.19,1.04Z"/>
    </g>
    <path class="cls-1" d="M56.25,116.94l1.68-2.14c.53-.68,1.05-1.52,1.78-2.01.83-.55,1.67-.31,1.86.71.12.67.04,1.37.28,2.02.35.97,1.32,1.97,2.42,1.45.54-.26.83-.8,1.15-1.28.48-.74.99-1.46,1.54-2.14s1.36-1.77,2.19-.85c.59.65.6,1.64.79,2.46.27,1.14,1.07,2.4,2.39,2.4,2.94,0,3.1-6.87,6.64-4.35,1.42,1.01,2,2.82,3.39,3.88,1.09.84,2.69,1.15,3.85.27.59-.45,0-1.47-.59-1.01-1.52,1.17-3.07-.54-3.89-1.71s-1.66-2.39-3.04-2.9-2.63-.01-3.54,1.01c-.47.53-.81,1.14-1.15,1.75s-.96,2.08-1.86,1.86-1.05-1.48-1.19-2.21-.29-1.41-.74-2.01c-.77-1.03-2.06-1.32-3.09-.47-1.18.96-2.03,2.46-2.86,3.7-.26.39-.55.73-1,.33-.29-.27-.37-.78-.41-1.14-.07-.68-.05-1.37-.34-2-.56-1.26-2.05-1.52-3.2-.88-.74.42-1.26,1.12-1.77,1.78-.7.89-1.4,1.78-2.1,2.68-.46.59.36,1.42.83.83h0Z"/>
    <circle class="cls-4" cx="57.25" cy="63.9" r="2.23"/>
    <circle class="cls-4" cx="89.59" cy="63.9" r="2.23"/>
  </g>
</svg>