<?xml version="1.0" encoding="UTF-8"?>
<svg id="Shapes" xmlns="http://www.w3.org/2000/svg" viewBox="0 0 141.73 141.73">
  <defs>
    <style>
      .cls-1 {
        fill: none;
      }

      .cls-2 {
        fill: #f15b5c;
      }

      .cls-3 {
        fill: #e6e7e8;
      }

      .cls-4 {
        fill: #414042;
      }
    </style>
  </defs>
  <rect class="cls-3" x="0" y="0" width="141.73" height="141.73"/>
  <g>
    <rect class="cls-1" x="11.7" y="62.79" width="118.34" height="16.16"/>
    <path class="cls-4" d="M21.64,63.89c0-.73.37-1.1,1.1-1.1h1.3c.73,0,1.1.37,1.1,1.1v12.1c0,.73-.37,1.1-1.1,1.1h-1.3c-.73,0-1.1-.37-1.1-1.1v-12.1Z"/>
    <path class="cls-4" d="M27.29,67.89c0-.73.37-1.1,1.1-1.1h1.12c.72,0,1.08.37,1.08,1.1v.18s0,.05-.01.08c0,.03,0,.05,0,.08v.1h.04c.12-.17.27-.37.45-.58.18-.21.4-.41.65-.58.25-.17.54-.32.87-.44.33-.12.69-.18,1.09-.18.65,0,1.23.14,1.73.43.5.29.88.72,1.15,1.31h.04c.13-.21.31-.42.53-.63.22-.21.47-.39.75-.56.28-.17.59-.3.93-.4.34-.1.7-.15,1.09-.15.47,0,.9.07,1.31.2.41.13.76.35,1.06.66.3.31.54.71.71,1.2.17.49.26,1.09.26,1.8v5.58c0,.73-.37,1.1-1.1,1.1h-1.26c-.73,0-1.1-.37-1.1-1.1v-5c0-.39-.05-.7-.15-.94-.1-.24-.32-.36-.65-.36-.37,0-.69.09-.94.26-.25.17-.46.4-.61.68-.15.28-.26.6-.33.97-.07.37-.1.74-.1,1.13v3.26c0,.73-.37,1.1-1.1,1.1h-1.26c-.73,0-1.1-.37-1.1-1.1v-5c0-.39-.05-.7-.15-.94-.1-.24-.32-.36-.65-.36-.4,0-.73.09-.98.28-.25.19-.45.42-.6.71s-.25.61-.31.97c-.06.36-.09.72-.09,1.08v3.26c0,.73-.37,1.1-1.1,1.1h-1.26c-.73,0-1.1-.37-1.1-1.1v-8.1Z"/>
    <path class="cls-4" d="M45.16,67.89c0-.73.37-1.1,1.1-1.1h.9c.36,0,.63.08.82.25.19.17.28.38.28.65v.22s0,.05,0,.07c0,.02,0,.04,0,.07v.06h.04c.2-.28.45-.54.74-.78.25-.19.57-.36.96-.53.39-.17.86-.25,1.42-.25.69,0,1.33.13,1.9.39s1.06.63,1.47,1.11c.41.48.72,1.05.94,1.71s.33,1.39.33,2.19-.12,1.55-.36,2.21c-.24.66-.58,1.23-1.01,1.7-.43.47-.94.84-1.53,1.09-.59.25-1.22.38-1.9.38-.47,0-.86-.06-1.19-.18-.33-.12-.6-.25-.81-.4-.24-.17-.45-.37-.62-.6h-.04c0,.07,0,.15.02.24,0,.08,0,.17,0,.28,0,.11,0,.23,0,.36v2.96c0,.73-.37,1.1-1.1,1.1h-1.26c-.73,0-1.1-.37-1.1-1.1v-12.1ZM48.52,72c0,.31.04.61.12.91.08.3.21.57.38.79.17.23.38.41.63.55.25.14.54.21.89.21.55,0,1.02-.21,1.42-.63.4-.42.6-1.03.6-1.84s-.19-1.4-.56-1.86-.86-.69-1.46-.69c-.27,0-.52.05-.76.15s-.45.25-.64.46c-.19.21-.34.47-.45.79s-.17.7-.17,1.14Z"/>
    <path class="cls-4" d="M57.54,67.89c0-.73.37-1.1,1.1-1.1h1.12c.73,0,1.1.37,1.1,1.1v.64c0,.09,0,.17,0,.24,0,.07,0,.13,0,.2-.01.07-.02.13-.02.2h.04c.08-.27.21-.55.38-.84.17-.29.38-.56.62-.8.24-.24.51-.44.81-.6.3-.16.61-.24.93-.24.35,0,.59.09.73.28.14.19.21.46.21.82v1.12c0,.73-.37,1.1-1.1,1.1-.41,0-.77.08-1.08.25s-.56.39-.76.67-.35.61-.45.98c-.1.37-.15.77-.15,1.18v2.9c0,.73-.37,1.1-1.1,1.1h-1.26c-.73,0-1.1-.37-1.1-1.1v-8.1Z"/>
    <path class="cls-4" d="M64.96,71.93c0-.76.12-1.47.37-2.12.25-.65.6-1.22,1.06-1.7.46-.48,1.02-.86,1.69-1.14.67-.28,1.41-.42,2.24-.42.76,0,1.44.13,2.03.38.59.25,1.09.6,1.5,1.04.41.44.71.96.92,1.56.21.6.31,1.25.31,1.94,0,.27-.11.52-.32.77-.21.25-.49.37-.84.37h-5.42c.13.63.43,1.1.88,1.38.45.29.96.44,1.52.44.35,0,.68-.05,1-.14.32-.09.61-.21.88-.34.33-.15.62-.19.86-.14.24.05.45.24.62.56l.28.52c.16.31.21.59.16.86-.05.26-.23.48-.54.65-.37.21-.86.42-1.45.62-.59.2-1.29.3-2.09.3-.92,0-1.73-.15-2.44-.46-.71-.31-1.3-.71-1.77-1.21-.47-.5-.83-1.08-1.08-1.73-.25-.65-.37-1.32-.37-2ZM71.66,70.63c0-.43-.13-.79-.38-1.09-.25-.3-.6-.45-1.04-.45-.51,0-.89.15-1.14.46-.25.31-.43.67-.52,1.08h3.08Z"/>
    <path class="cls-4" d="M75.7,68.05c-.13-.39-.12-.69.04-.92.16-.23.45-.34.86-.34h1.34c.64,0,1.05.31,1.22.92l1.34,4.56c.05.17.1.36.14.56.04.2.08.39.12.58.04.21.08.43.12.64h.04c.03-.21.07-.43.12-.64.03-.19.06-.38.11-.58.05-.2.1-.39.15-.56l1.32-4.56c.17-.61.58-.92,1.22-.92h1.38c.4,0,.68.11.85.34.17.23.18.53.05.92l-2.78,8.14c-.2.6-.61.9-1.24.9h-2.34c-.63,0-1.04-.3-1.24-.9l-2.82-8.14Z"/>
    <path class="cls-4" d="M87.4,67.89c0-.73.37-1.1,1.1-1.1h1.26c.73,0,1.1.37,1.1,1.1v8.1c0,.73-.37,1.1-1.1,1.1h-1.26c-.73,0-1.1-.37-1.1-1.1v-8.1ZM88.54,65.49c-.73,0-1.1-.37-1.1-1.1v-.5c0-.73.37-1.1,1.1-1.1h1.18c.73,0,1.1.37,1.1,1.1v.5c0,.73-.37,1.1-1.1,1.1h-1.18Z"/>
    <path class="cls-4" d="M92.9,76.39c-.31-.17-.48-.39-.51-.66s.04-.55.23-.86l.3-.46c.2-.29.42-.46.65-.5.23-.04.52.02.87.18.25.11.54.22.86.35.32.13.69.19,1.1.19.35,0,.59-.06.73-.17s.21-.25.21-.41c0-.2-.12-.36-.36-.48-.24-.12-.54-.24-.89-.35s-.74-.24-1.16-.38c-.42-.14-.81-.33-1.16-.58s-.65-.57-.89-.96-.36-.89-.36-1.49c0-.53.11-1,.33-1.41.22-.41.52-.75.91-1.02s.84-.48,1.36-.62c.52-.14,1.08-.21,1.68-.21.65,0,1.22.07,1.71.22s.89.29,1.21.44c.31.15.49.35.54.62s0,.55-.14.86l-.24.48c-.15.32-.34.51-.58.58-.24.07-.53.03-.88-.1-.24-.09-.51-.18-.8-.27-.29-.09-.61-.13-.96-.13-.37,0-.62.05-.74.16-.12.11-.18.23-.18.38,0,.2.12.36.36.47.24.11.54.23.89.34.35.11.74.24,1.16.37.42.13.81.32,1.16.57.35.25.65.56.89.94.24.38.36.87.36,1.47,0,.48-.1.93-.29,1.34s-.47.77-.84,1.07c-.37.3-.81.54-1.34.71-.53.17-1.12.26-1.77.26-.77,0-1.45-.1-2.02-.31-.57-.21-1.04-.42-1.4-.63Z"/>
    <path class="cls-4" d="M102.8,69.67h-.3c-.72,0-1.08-.37-1.08-1.1v-.5c0-.73.37-1.1,1.1-1.1h.38v-1.86c0-.73.37-1.1,1.1-1.1h1.16c.73,0,1.1.37,1.1,1.1v1.86h1.06c.73,0,1.1.37,1.1,1.1v.5c0,.73-.36,1.1-1.08,1.1h-1.08v3.12c0,.44.12.76.37.95.25.19.52.31.83.35.4.05.68.15.85.3.17.15.25.41.25.8v.9c0,.41-.12.7-.36.86-.24.16-.59.24-1.06.24-.39,0-.83-.05-1.32-.16-.49-.11-.97-.3-1.42-.58-.45-.28-.83-.66-1.14-1.15s-.46-1.11-.46-1.87v-3.76Z"/>
    <path class="cls-4" d="M109.36,71.97c0-.81.15-1.55.46-2.22.31-.67.72-1.24,1.25-1.71.53-.47,1.14-.84,1.85-1.1s1.46-.39,2.26-.39,1.58.13,2.29.39,1.33.63,1.86,1.1c.53.47.94,1.04,1.25,1.71.31.67.46,1.41.46,2.22s-.15,1.53-.46,2.19c-.31.66-.72,1.23-1.25,1.7-.53.47-1.14.84-1.85,1.09-.71.25-1.47.38-2.28.38s-1.57-.13-2.28-.38c-.71-.25-1.32-.62-1.85-1.09-.53-.47-.94-1.04-1.25-1.7-.31-.66-.46-1.39-.46-2.19ZM112.86,71.97c0,.38.06.73.19,1.03.13.3.3.56.51.77.21.21.46.37.74.49.28.11.58.17.9.17s.62-.06.9-.17c.28-.11.53-.27.74-.49.21-.21.38-.47.51-.77.13-.3.19-.65.19-1.03s-.06-.73-.19-1.04-.3-.58-.51-.79c-.21-.22-.46-.39-.74-.51-.28-.12-.58-.18-.9-.18s-.62.06-.9.18c-.28.12-.53.29-.74.51-.21.22-.38.48-.51.79s-.19.66-.19,1.04Z"/>
  </g>
  <path class="cls-2" d="M56.25,116.94c.56-.71,1.12-1.43,1.68-2.14s1.05-1.52,1.78-2.01c.83-.55,1.67-.31,1.86.71.12.67.04,1.37.28,2.02.35.97,1.32,1.97,2.42,1.45.54-.26.83-.8,1.15-1.28.48-.74.99-1.46,1.54-2.14s1.36-1.77,2.19-.85c.59.65.6,1.64.79,2.46.27,1.14,1.07,2.4,2.39,2.4,2.94,0,3.1-6.87,6.64-4.35,1.42,1.01,2,2.82,3.39,3.88,1.09.84,2.69,1.15,3.85.27.59-.45,0-1.47-.59-1.01-1.52,1.17-3.07-.54-3.89-1.71-.82-1.15-1.66-2.39-3.04-2.9-1.32-.49-2.63-.01-3.54,1.01-.47.53-.81,1.14-1.15,1.75s-.96,2.08-1.86,1.86c-.9-.22-1.05-1.48-1.19-2.21s-.29-1.41-.74-2.01c-.77-1.03-2.06-1.32-3.09-.47-1.18.96-2.03,2.46-2.86,3.7-.26.39-.55.73-1,.33-.29-.27-.37-.78-.41-1.14-.07-.68-.05-1.37-.34-2-.56-1.26-2.05-1.52-3.2-.88-.74.42-1.26,1.12-1.77,1.78-.7.89-1.4,1.78-2.1,2.68-.46.59.36,1.42.83.83h0Z"/>
  <circle class="cls-2" cx="89.08" cy="63.95" r="2.23"/>
</svg>