<?xml version="1.0" encoding="UTF-8"?>
<svg xmlns="http://www.w3.org/2000/svg" viewBox="0 0 141.73 141.73">
  <defs>
    <style>
      .cls-1 {
        fill: #fecc95;
      }

      .cls-2 {
        fill: #f6f6f6;
      }

      .cls-3 {
        fill: #fce87e;
      }

      .cls-4 {
        fill: #f1f2f2;
      }

      .cls-5 {
        fill: none;
      }

      .cls-6 {
        fill: #e5b17e;
      }

      .cls-7 {
        fill: #fcb44a;
        stroke: #fcb44a;
        stroke-miterlimit: 10;
        stroke-width: .5px;
      }
    </style>
  </defs>
  <g id="Bottom_BGS" data-name="Bottom BGS">
    <path class="cls-7" d="M31.9,38.68c2.44-3.82,5.1-7.52,7.73-11.15.83-1.14,1.67-2.29,2.53-3.42,3.98-5.26,8.45-10.23,14.42-12.82,12.91-5.6,27.54,1.77,39.3,9.51,5.16,3.4,10.32,6.98,14.63,11.37,1.3,1.33,2.53,2.73,3.66,4.23,1.92,2.55,3.35,5.41,4.35,8.49,1.53,4.71,2.01,9.92,1.62,15.22,6.52-.02,13.05-.2,19.6-.6.66-.11,1.32-.24,1.98-.37V0H0v52.64c8.04.26,16.09.73,24.13,1.3,1.91-5.32,4.66-10.38,7.77-15.26Z"/>
  </g>
  <g id="Elements">
    <g>
      <path class="cls-1" d="M66.19,31.17c-2.8-.04-5.25.87-7.28,2.8-.46.43-.9.58-1.51.58-6.49-.02-12.98-.01-19.47,0-.66,0-1.33-.05-1.89.41.57,2.02,1.9,3.02,4,3.02,9.31,0,18.62,0,27.94,0,.28,0,.57-.02.85.01.92.11,1.61.99,1.48,1.86-.18,1.27-.27,2.55-.36,3.84-.11,1.6-.25,3.19-.41,4.78-.3,3-.51,6-.7,9-.11,1.72-.31,3.45-.21,5.19.02.3-.11.55-.23.81-2.23,4.7-4.44,9.4-6.68,14.1-1.82,3.81-3.72,7.59-5.49,11.42-.92,2-2.03,3.92-2.76,6,1.14,0,2.29,0,3.43,0,5.34-7.94,10.68-15.88,16-23.83.37-.55.79-.97,1.45-1.11.62-.99,1.82-1.52,2.88-1.27,1.71.41,2.59,1.52,2.59,3.31,0,8.08,0,16.15,0,24.23,0,1.24.47,1.7,1.71,1.71,1.58,0,3.16,0,4.73,0-.62-.84-1.2-1.7-1.86-2.5-.36-.43-.49-.84-.36-1.38,1.17-4.8,2.05-9.66,2.73-14.55.49-3.55.86-7.12,1.06-10.7.16-2.81.23-5.62.1-8.42-.16-3.33-.56-6.64-.85-9.96-.14-1.6-.29-3.2-.43-4.79-.2-1.02-.36-2.04-.37-3.07,0-.41-.06-.82.15-1.2.92-1.64,1.77-3.33,2.91-4.84,0-.04,0-.08,0-.12-2.34-1.88-5.2-2.77-7.78-4.19-.29-.16-.48-.14-.7.15-.55.74-1.31,1.25-2.08,1.75-4.16,2.69-10.25,1.23-12.58-3.03Z"/>
      <path class="cls-6" d="M52.12,98.99c.73-2.09,3.2-8.01,4.12-10.01,1.77-3.83,3.67-7.61,5.49-11.42,2.24-4.69,4.45-9.4,6.68-14.1.12-.26.25-.51.23-.81-.11-1.73.1-3.46.21-5.19.19-3,.4-6.01.7-9,.16-1.59.29-3.19.41-4.78.09-1.28.18-2.56.36-3.84.12-.87-.56-1.75-1.48-1.86-.28-.03-.57-.01-.85-.01-9.31,0-18.62,0-27.94,0-2.09,0-3.42-1.01-4-3.02-1.35.66-2.21,2.18-1.99,3.54.27,1.7,1.46,3.02,3,3.26.65.1,1.32.15,1.98.15,8.49,0,16.99.02,25.48,0,.84,0,1.08.1.98,1.08-.62,5.89-1.4,11.76-1.59,17.69-.06,1.9-.63,3.6-1.45,5.3-4.66,9.66-10.21,22.3-14.83,31.98,1.63,0,2.87,1.05,4.51,1.05Z"/>
      <path class="cls-1" d="M82.81,28.89c.74-1.34,1.75-2.53,2.2-4.02,1.61-5.35,2.07-10.65-1.19-15.6-2.62-3.97-7.65-5.47-11.85-3.68-.06.18-.1.38-.2.54-.72,1.1-1.31,2.27-1.68,3.53-1.47,4.9-1.48,9.85-.24,14.79.66,2.64,1.88,5.02,4.12,6.72.77.58,1.57,1,2.62.84,2.3-.35,4.25-1.41,6.02-2.84.07-.09.14-.18.21-.27h0Z"/>
      <path class="cls-6" d="M86.26,98.05c-1.58,0-3.16,0-4.73,0-1.24,0-1.71-.46-1.71-1.71,0-8.08,0-16.15,0-24.23,0-1.79-.88-2.9-2.59-3.31-1.05-.25-2.25.28-2.88,1.27,1.27.3,1.5.58,1.5,1.87,0,9.03,0,18.06,0,27.08,0,1.69.51,2.2,2.2,2.21,2.11,0,4.23,0,6.34,0,.91,0,1.7-.3,2.12-1.16.34-.69.31-1.4-.27-2.01Z"/>
      <path class="cls-1" d="M89.33,36.62c-1.14,1.51-1.99,3.2-2.91,4.84-.21.38-.16.8-.15,1.2.02,1.04.18,2.06.37,3.07,1.84,2.82,3.41,5.8,5.11,8.7,1.9,3.23,3.74,6.49,5.63,9.73,1.02,1.75,3.01,2.34,4.8,1.49-1.58-2.68-3.16-5.35-4.72-8.04-2.26-3.89-4.67-7.7-6.69-11.72-1.13-2.24-1.17-4.49.79-6.41-.47-1.17-1.32-2.05-2.24-2.87Z"/>
      <path class="cls-1" d="M91.58,39.49c-1.96,1.92-1.92,4.16-.79,6.41,2.02,4.01,4.43,7.83,6.69,11.72,1.56,2.69,3.15,5.36,4.72,8.04,1.91-.89,2.73-3.05,1.7-4.91-2.03-3.67-4.16-7.28-6.25-10.91-1.78-3.09-3.56-6.17-5.34-9.25-.22-.38-.48-.73-.73-1.09Z"/>
      <path class="cls-6" d="M52,97.94c-1.46-.08-2.92-.08-4.38,0,.31,2.67,3.16,4.04,5.28,2.54-.51-.53-.89-1.11-.75-1.91.03-.19-.09-.42-.15-.62Z"/>
      <path class="cls-1" d="M53.83,94.63c-.07.19-1.65,3.74-1.69,3.93-.14.8.23,1.38.75,1.91.97-.6,3.5-4.54,4.02-5.48-.94-.07-2.13-.45-3.08-.36Z"/>
      <path class="cls-3" d="M66.44,97.95s.01,0,.01,0c0,0-.01,0-.01,0Z"/>
      <path class="cls-2" d="M82.66,28.94c.07-.09.14-.17.2-.26-.07.09-.14.17-.2.26Z"/>
      <path class="cls-6" d="M68.11,27.24c-3-5.26-3.58-10.8-1.26-16.44,1.06-2.58,2.95-4.53,5.68-5.49-.06.18-.1.38-.2.54-.71,1.1-1.3,2.27-1.68,3.52-1.47,4.88-1.47,9.82-.24,14.74.66,2.63,1.87,5,4.11,6.7.76.58,1.57.99,2.61.83,2.09-.32,3.88-1.24,5.53-2.49-.29,1.05-2.07,2.1-1.28,3.15-.04.04-.08.08-.13.14-.58.76-1.36,1.3-2.16,1.81-4.31,2.79-10.62,1.27-13.03-3.14,2.09,0,4.18,0,6.27,0-1.77-.99-3.27-2.18-4.22-3.86Z"/>
    </g>
  </g>
  <g id="Top_BGS" data-name="Top BGS">
    <path class="cls-7" d="M139.75,59.5c-6.55.4-13.09.58-19.6.6-1.2,16.61-10.94,31.19-24.19,37.71-6.52,3.21-14.31,4.54-21.09,1.94-2.87-1.1-5.45-2.86-8.27-4.1-3.79-1.68-7.91-2.4-12.1-2.9-5.45-.66-11.01-.93-16.06-2.44-2.43-.72-4.75-1.73-6.88-3.2-7.97-5.49-10.97-13.18-9.89-22.79.4-3.58,1.27-7.03,2.47-10.38-8.05-.57-16.09-1.04-24.13-1.3v89.09h141.73V59.12c-.66.13-1.32.26-1.98.37Z"/>
  </g>
  <g id="Texts">
    <g>
      <rect class="cls-5" x="0" y="87.41" width="141.73" height="54.32"/>
      <path class="cls-4" d="M15.95,109.56c0-.43.22-.67.66-.67h3.71c2.13,0,3.62,1.49,3.62,3.7s-1.49,3.75-3.62,3.75h-2.32v3.25c0,.45-.22.67-.66.67h-.74c-.43,0-.66-.22-.66-.67v-10.02ZM19.93,114.54c1.22,0,1.91-.77,1.91-1.95s-.69-1.92-1.87-1.92h-1.97v3.87h1.94Z"/>
      <path class="cls-4" d="M25.23,112.76c0-.43.22-.67.66-.67h.62c.43,0,.67.24.67.67v.77c0,.3-.05.56-.05.56h.03c.32-.98,1.22-2.06,2.37-2.06.45,0,.61.22.61.67v.62c0,.43-.26.67-.69.67-1.49,0-2.21,1.47-2.21,2.96v2.62c0,.45-.22.67-.66.67h-.7c-.43,0-.66-.22-.66-.67v-6.82Z"/>
      <path class="cls-4" d="M34.89,111.9c2.48,0,4.5,1.78,4.5,4.27s-2.02,4.27-4.5,4.27-4.48-1.76-4.48-4.27,2-4.27,4.48-4.27ZM34.89,118.72c1.33,0,2.43-1.02,2.43-2.54s-1.1-2.54-2.43-2.54-2.42,1.04-2.42,2.54,1.09,2.54,2.42,2.54Z"/>
      <path class="cls-4" d="M40.87,112.76c0-.43.24-.67.67-.67h.51c.43,0,.66.24.66.56v.37c0,.18-.02.32-.02.32h.03s.72-1.44,2.62-1.44c2.21,0,3.63,1.74,3.63,4.27s-1.6,4.27-3.75,4.27c-1.7,0-2.35-1.25-2.35-1.25h-.03s.05.29.05.7v2.88c0,.45-.22.67-.67.67h-.69c-.43,0-.67-.22-.67-.67v-10.02ZM44.88,118.73c1.12,0,2.05-.91,2.05-2.53s-.83-2.56-2.02-2.56c-1.06,0-2.06.77-2.06,2.58,0,1.26.7,2.51,2.03,2.51Z"/>
      <path class="cls-4" d="M50.52,112.76c0-.43.22-.67.66-.67h.62c.43,0,.67.24.67.67v.77c0,.3-.05.56-.05.56h.03c.32-.98,1.22-2.06,2.37-2.06.45,0,.61.22.61.67v.62c0,.43-.26.67-.69.67-1.49,0-2.21,1.47-2.21,2.96v2.62c0,.45-.22.67-.66.67h-.7c-.43,0-.66-.22-.66-.67v-6.82Z"/>
      <path class="cls-4" d="M56.52,110.04v-.48c0-.43.22-.67.66-.67h.7c.43,0,.67.24.67.67v.48c0,.43-.24.66-.67.66h-.7c-.43,0-.66-.22-.66-.66ZM56.52,112.76c0-.43.22-.67.66-.67h.7c.43,0,.66.24.66.67v6.82c0,.45-.22.67-.66.67h-.7c-.43,0-.66-.22-.66-.67v-6.82Z"/>
      <path class="cls-4" d="M64.52,111.9c2.48,0,4.5,1.78,4.5,4.27s-2.02,4.27-4.5,4.27-4.48-1.76-4.48-4.27,2-4.27,4.48-4.27ZM64.52,118.72c1.33,0,2.43-1.02,2.43-2.54s-1.1-2.54-2.43-2.54-2.42,1.04-2.42,2.54,1.09,2.54,2.42,2.54Z"/>
      <path class="cls-4" d="M74.43,111.9c1.31,0,2.19.48,2.67.82.34.22.35.56.13.91l-.21.32c-.24.37-.51.37-.9.18-.34-.22-.88-.5-1.58-.5-1.5,0-2.48,1.14-2.48,2.53s.98,2.56,2.54,2.56c.8,0,1.44-.35,1.82-.62.4-.22.7-.18.91.21l.16.3c.19.35.14.67-.18.9-.5.37-1.49.94-2.9.94-2.71,0-4.43-1.9-4.43-4.27s1.73-4.27,4.43-4.27Z"/>
      <path class="cls-4" d="M82.56,111.9c2.32,0,3.62,1.65,3.62,3.89,0,.35-.3.69-.7.69h-4.98c.13,1.47,1.22,2.24,2.45,2.24.75,0,1.38-.29,1.76-.53.4-.19.69-.14.9.22l.19.32c.19.37.13.69-.22.9-.53.34-1.49.82-2.77.82-2.71,0-4.39-1.95-4.39-4.27,0-2.51,1.7-4.27,4.15-4.27ZM84.16,115.24c-.03-1.14-.72-1.81-1.65-1.81-1.04,0-1.78.72-1.97,1.81h3.62Z"/>
      <path class="cls-4" d="M87.08,119.55c0-.34.08-.5.29-.75l3.38-4.23c.38-.46.69-.75.69-.75v-.03s-.22.03-.75.03h-2.77c-.45,0-.67-.24-.67-.67v-.38c0-.43.22-.67.67-.67h5.6c.43,0,.67.19.67.54v.16c0,.34-.08.5-.29.75l-3.38,4.24c-.37.46-.7.75-.7.75v.03s.24-.05.77-.05h3.04c.45,0,.67.24.67.67v.38c0,.45-.22.67-.67.67h-5.88c-.43,0-.67-.19-.67-.54v-.16Z"/>
      <path class="cls-4" d="M95.8,110.04v-.48c0-.43.22-.67.66-.67h.7c.43,0,.67.24.67.67v.48c0,.43-.24.66-.67.66h-.7c-.43,0-.66-.22-.66-.66ZM95.8,112.76c0-.43.22-.67.66-.67h.7c.43,0,.66.24.66.67v6.82c0,.45-.22.67-.66.67h-.7c-.43,0-.66-.22-.66-.67v-6.82Z"/>
      <path class="cls-4" d="M103.8,111.9c2.48,0,4.5,1.78,4.5,4.27s-2.02,4.27-4.5,4.27-4.48-1.76-4.48-4.27,2-4.27,4.48-4.27ZM103.8,118.72c1.33,0,2.43-1.02,2.43-2.54s-1.1-2.54-2.43-2.54-2.42,1.04-2.42,2.54,1.09,2.54,2.42,2.54Z"/>
      <path class="cls-4" d="M109.79,112.76c0-.43.22-.67.66-.67h.62c.43,0,.66.24.66.67v.5c0,.18-.03.37-.03.37h.03c.35-.69,1.25-1.73,2.9-1.73,1.81,0,2.85.94,2.85,3.11v4.58c0,.45-.22.67-.67.67h-.69c-.43,0-.67-.22-.67-.67v-4.16c0-.99-.26-1.66-1.28-1.66-1.44,0-2.35,1.2-2.35,2.67v3.15c0,.45-.22.67-.66.67h-.7c-.43,0-.66-.22-.66-.67v-6.82Z"/>
      <path class="cls-4" d="M123.02,111.9c2.32,0,3.62,1.65,3.62,3.89,0,.35-.3.69-.7.69h-4.98c.13,1.47,1.22,2.24,2.45,2.24.75,0,1.38-.29,1.76-.53.4-.19.69-.14.9.22l.19.32c.19.37.13.69-.22.9-.53.34-1.49.82-2.77.82-2.71,0-4.39-1.95-4.39-4.27,0-2.51,1.7-4.27,4.15-4.27ZM124.62,115.24c-.03-1.14-.72-1.81-1.65-1.81-1.04,0-1.78.72-1.97,1.81h3.62Z"/>
    </g>
  </g>
</svg>