<?xml version="1.0" encoding="UTF-8"?>
<svg xmlns="http://www.w3.org/2000/svg" viewBox="0 0 141.73 141.73">
  <defs>
    <style>
      .cls-1 {
        fill: #e74147;
      }

      .cls-2 {
        fill: #4978bc;
      }

      .cls-3 {
        fill: #f1f2f2;
      }

      .cls-4 {
        fill: #49c1d6;
      }

      .cls-5 {
        fill: #2e1d2c;
      }

      .cls-6 {
        fill: #ecbc43;
      }

      .cls-7 {
        fill: #96d8e9;
      }

      .cls-8 {
        fill: none;
      }

      .cls-9 {
        fill: #a1b860;
        stroke: #a1b860;
        stroke-miterlimit: 10;
        stroke-width: .5px;
      }

      .cls-10 {
        fill: #eceaea;
      }

      .cls-11 {
        fill: #cc3a47;
      }

      .cls-12 {
        fill: #96d6e8;
      }

      .cls-13 {
        fill: #3d70b5;
      }

      .cls-14 {
        fill: #45c0d5;
      }

      .cls-15 {
        fill: #94d6e8;
      }

      .cls-16 {
        fill: #49bed3;
      }
    </style>
  </defs>
  <g id="Bottom_BGS" data-name="Bottom BGS">
    <path class="cls-9" d="M21.18,38.6c.47-18.96,18.13-24.44,34.47-19.35.31.1.61.19.92.3,7.38,2.49,14.42,6.35,21.94,8,1.49.33,3,.57,4.54.69.65.05,1.31.08,1.97.1.01,0,.02,0,.03,0,1.67.04,3.35-.01,5.03-.06.81-.03,1.62-.05,2.42-.07,3.33-.06,6.61.08,9.73,1.18,6.6,2.33,11.05,8.51,14.17,14.77.71,1.44,1.37,2.95,1.94,4.5.64,1.73,1.17,3.52,1.56,5.31.21.99.37,1.98.49,2.97,7.2-1.07,14.33-2.56,21.36-4.53V0H0v48.92c7.17,1.36,14.42,2.68,21.7,3.9-.54-4.71-.64-9.5-.52-14.22Z"/>
  </g>
  <g id="Elements">
    <g>
      <path class="cls-1" d="M14.65,75.44c-1.21-3.52-.75-7.07-.27-10.65,1.17-8.84,2.25-17.68,3.38-26.53.31-2.4,1.52-3.54,3.91-3.59,1.12-.02,1.88-.05,2.28-1.44.42-1.46,1.8-2.13,3.33-2.13,10.02-.02,20.04-.02,30.06,0,1.84,0,3.15.95,3.64,2.68.23.82.65.9,1.3.85,1.79-.13,3.27.45,4.39,1.89.38,2.99.75,5.97,1.13,8.96.4,3.16.82,6.32,1.22,9.47.33,2.55.65,5.11.97,7.66.29,2.29.6,4.59.87,6.88.24,2.05-.6,3.96-.8,5.96-3.82,0-7.63-.06-11.45,0-3.71.05-6.67,2.66-7.29,6.3-.11.65-.26,1.28-.38,1.93-.55,3.22-1.35,6.41-1.72,9.66-4.59,0-9.18,0-13.77,0-.66-3.61-1.56-7.2-1.92-10.85-.46-4.58-4.41-7.31-8.85-7.09-3.33.16-6.68.03-10.02.03ZM34.14,63.99c.97.1,1.94.11,2.91,0,5.71.02,11.42.04,17.13.05,2.42,0,4.83.03,7.25,0,2.33-.04,3.84-1.58,3.55-3.61-.93-6.54-1.87-13.08-2.82-19.62-.25-1.75-1.44-2.81-3.21-2.85-1.14-.03-2.28.02-3.42.03-.78,0-1.56,0-2.33,0-1.23,0-2.45,0-3.68,0-1.52,0-3.04,0-4.57,0-6.41-.01-12.82-.04-19.23-.03-1.79,0-2.92,1.01-3.2,2.84-.98,6.53-1.92,13.06-2.86,19.59-.24,1.66.83,3.09,2.48,3.5,1,.25,2,.15,3.01.1,1.96,0,3.91,0,5.87,0,1.03,0,2.07,0,3.1,0ZM39.06,70.18c3.95,0,7.91,0,11.86,0,.93,0,1.68-.16,1.76-1.28.09-1.17-.45-1.66-1.94-1.66-7.77,0-15.55,0-23.32-.01-1.05,0-1.85.27-1.94,1.45-.07,1.02.58,1.49,1.99,1.49,3.87,0,7.73,0,11.6,0Z"/>
      <path class="cls-11" d="M70.06,75.46c.2-2,1.04-3.91.8-5.96-.27-2.3-.58-4.59-.87-6.88-.32-2.55-.64-5.11-.97-7.66-.4-3.16-.82-6.31-1.22-9.47-.38-2.98-.75-5.97-1.13-8.96,4.04,2.88,8.05,5.8,12.25,8.46,16.26,10.32,33.73,17.81,52.42,22.46,1,.25,1.2.67,1.2,1.6-.03,7.52-.02,15.04-.02,22.57q0,1.76-1.71,1.77c-.26,0-.53.03-.79.04-3.39,0-6.78,0-10.17,0-3.69,0-7.37,0-11.06,0-3.4,0-6.8,0-10.2,0-3.9,0-7.8,0-11.7,0-3.4,0-6.81,0-10.21,0-3.9-.03-7.79-.05-11.69-.08,1.69-.79,2.53-2.11,2.74-3.97.19-1.73.61-3.43.9-5.15.49-2.92.96-5.85,1.43-8.77ZM120.76,80.16c.43.11.87.18,1.31.02,2.25.43,4.54.24,6.81.31,1.44.04,1.93-.5,1.94-1.97.01-1.79,0-3.59,0-5.38q0-3.29-3.2-4.03c-.08-.02-.17,0-.26,0-.37-.36-.83-.28-1.27-.26-.39-.34-.92-.26-1.36-.44-.96-.27-1.93-.54-2.89-.81-2.63-.77-5.26-1.54-7.95-2.33-.02.38-.06.73-.06,1.07,0,3.99.04,7.98-.03,11.97-.02,1.12.33,1.55,1.42,1.35,1.21.38,2.46.35,3.71.32.6.2,1.21.26,1.84.19ZM108.6,63.36c-.52-.18-1.03-.37-1.55-.55-.77-.38-1.54-.71-2.39-.87-3.73-1.59-7.46-3.16-11.17-4.78-.69-.3-.92-.26-.92.55.02,5.83.02,11.66,0,17.5,0,.59.22.9.78,1,1.03.18,2.05.38,3.08.56,1.11.39,2.28.5,3.43.68.55.1,1.11.19,1.66.29.26.03.52.07.78.1,2.67.43,5.34.85,8.01,1.29.92.15.84-.46.83-1.05,0-3.99-.07-7.99.04-11.98.04-1.42-.35-2.21-1.75-2.46-.28-.09-.56-.19-.84-.28ZM88.56,54.87c-.42-.22-.85-.45-1.27-.67-.75-.51-1.54-.95-2.42-1.2-2.89-1.63-5.79-3.27-8.68-4.9-.61-.35-1.25-.46-1.85-.03-.62.44-.86,1.06-.78,1.83.7,6.49,1.4,12.98,2.09,19.47-.09,2.23.25,2.64,2.57,3.11.53.14,1.06.28,1.59.42.36.11.73.22,1.09.34,2.96.72,5.92,1.45,8.89,2.17.05-.2.1-.32.1-.45,0-6.27.01-12.55,0-18.82,0-.28.1-.64-.31-.77-.28-.3-.63-.46-1.04-.5ZM123.18,88.4c2.52,0,4.45-.06,6.38.02,1.18.05,1.4-.52,1.41-1.52,0-1.05-.25-1.69-1.48-1.61-1.27.08-2.55.11-3.82.08-7.42-.18-14.83-.59-22.21-1.44-8.4-.96-16.74-2.25-25.02-3.97-2.63-.54-2.57-.54-2.63,2.12-.03,1.17.38,1.62,1.51,1.81,7.09,1.18,14.19,2.21,21.34,2.96,8.35.88,16.72,1.39,24.53,1.55Z"/>
      <path class="cls-2" d="M14.65,75.44c3.34,0,6.69.13,10.02-.03,4.44-.22,8.4,2.51,8.85,7.09.36,3.64,1.26,7.23,1.92,10.85-.94.03-1.89.07-2.83.1-3.75,0-7.49,0-11.24,0-2.97-.28-3.88-1.17-4.41-4.19-.75-4.26-1.51-8.52-2.26-12.78-.06-.34-.04-.69-.06-1.04ZM26.59,88.66c2.87-.01,5.22-2.36,5.17-5.17-.05-2.76-2.39-5.1-5.14-5.13-2.82-.03-5.16,2.31-5.16,5.17,0,2.95,2.19,5.14,5.14,5.13Z"/>
      <path class="cls-5" d="M21.38,93.46c3.75,0,7.49,0,11.24,0,.01,1.79-.79,3.19-2.11,4.33-2.36.05-4.72.24-7.08-.1-1.33-1.09-1.98-2.52-2.05-4.23Z"/>
      <path class="cls-5" d="M128.33,97.69c-2.24.32-4.48.14-6.72.1-1.23-1.19-1.86-2.63-1.76-4.36,3.39,0,6.78,0,10.17,0,.13,1.69-.42,3.12-1.69,4.26Z"/>
      <path class="cls-12" d="M55.53,37.98c1.14-.01,2.28-.06,3.42-.03,1.77.05,2.96,1.11,3.21,2.85.95,6.54,1.89,13.08,2.82,19.62.29,2.02-1.22,3.57-3.55,3.61-2.42.04-4.83.01-7.25,0-5.71-.01-11.42-.03-17.13-.05.24-.41.46-.85.74-1.23,5.91-8.26,11.83-16.52,17.74-24.77Z"/>
      <path class="cls-7" d="M25.17,63.99c-1.01.05-2.01.14-3.01-.1-1.66-.41-2.72-1.84-2.48-3.5.93-6.53,1.88-13.07,2.86-19.59.27-1.83,1.41-2.83,3.2-2.84,6.41-.01,12.82.02,19.23.03-4.21,5.49-8.42,10.97-12.61,16.47-2.41,3.16-4.78,6.36-7.17,9.54Z"/>
      <path class="cls-2" d="M70.06,75.46c-.48,2.92-.94,5.85-1.43,8.77-.29,1.72-.7,3.42-.9,5.15-.21,1.86-1.05,3.19-2.74,3.97-.19.02-.37.05-.56.07-3.76,0-7.51.02-11.27.02-1.31-.03-2.62-.07-3.94-.1.37-3.26,1.17-6.44,1.72-9.66.11-.64.27-1.28.38-1.93.62-3.64,3.58-6.26,7.29-6.3,3.82-.05,7.63,0,11.45,0ZM57.96,88.66c2.9,0,5.18-2.32,5.13-5.18-.05-2.78-2.38-5.1-5.14-5.12-2.79-.02-5.2,2.38-5.21,5.19,0,2.86,2.3,5.12,5.21,5.11Z"/>
      <path class="cls-10" d="M25.17,63.99c2.39-3.18,4.76-6.37,7.17-9.54,4.19-5.5,8.41-10.98,12.61-16.47,1.52,0,3.04,0,4.57,0-.21.38-.39.78-.64,1.13-5.94,8.3-11.89,16.58-17.84,24.88-1.96,0-3.91,0-5.87,0Z"/>
      <path class="cls-7" d="M31.04,63.99c5.95-8.29,11.9-16.58,17.84-24.88.25-.35.43-.75.64-1.13,1.23,0,2.45,0,3.68,0-.06.16-.09.35-.19.48-3.59,4.85-7.2,9.69-10.79,14.54-2.7,3.65-5.38,7.32-8.07,10.99-1.03,0-2.07,0-3.1,0Z"/>
      <path class="cls-6" d="M39.06,70.19c-3.87,0-7.73,0-11.6,0-1.41,0-2.06-.47-1.99-1.49.09-1.19.89-1.46,1.94-1.45,7.77.02,15.55,0,23.32.01,1.49,0,2.03.49,1.94,1.66-.09,1.12-.83,1.29-1.76,1.28-3.95-.01-7.91,0-11.86,0Z"/>
      <path class="cls-10" d="M34.14,63.99c2.69-3.66,5.37-7.33,8.07-10.99,3.59-4.85,7.2-9.69,10.79-14.54.1-.13.13-.32.19-.48.78,0,1.56,0,2.33,0-5.92,8.26-11.83,16.51-17.74,24.77-.28.39-.49.82-.74,1.23-.97.11-1.94.1-2.91,0Z"/>
      <path class="cls-13" d="M123.18,88.4c-7.81-.16-16.18-.67-24.53-1.55-7.15-.75-14.25-1.78-21.34-2.96-1.13-.19-1.53-.65-1.51-1.81.07-2.66,0-2.66,2.63-2.12,8.28,1.71,16.62,3,25.02,3.97,7.38.85,14.79,1.26,22.21,1.44,1.27.03,2.55,0,3.82-.08,1.22-.08,1.48.56,1.48,1.61,0,1-.23,1.56-1.41,1.52-1.93-.08-3.87-.02-6.38-.02Z"/>
      <path class="cls-16" d="M96.44,76.77c-1.03-.19-2.05-.38-3.08-.56-.56-.1-.78-.4-.78-1,.02-5.83.02-11.66,0-17.5,0-.81.22-.85.92-.55,3.71,1.62,7.45,3.19,11.17,4.78-1.92,2.89-3.47,5.99-5.15,9.02-1.06,1.91-2.32,3.73-3.08,5.8Z"/>
      <path class="cls-14" d="M75.66,69.36c-.7-6.49-1.39-12.98-2.09-19.47-.08-.77.15-1.39.78-1.83.61-.43,1.24-.31,1.85.03,2.89,1.63,5.79,3.27,8.68,4.9-1.5,2.72-2.95,5.48-4.52,8.17-1.59,2.72-2.93,5.58-4.69,8.21Z"/>
      <path class="cls-14" d="M89.6,55.37c.41.13.31.49.31.77,0,6.27,0,12.55,0,18.82,0,.13-.06.25-.1.45-2.97-.73-5.93-1.45-8.89-2.17,2.9-5.96,5.8-11.91,8.69-17.87Z"/>
      <path class="cls-16" d="M109.44,63.64c1.4.24,1.79,1.04,1.75,2.46-.11,3.99-.04,7.98-.04,11.98,0,.59.09,1.2-.83,1.05-2.67-.43-5.34-.86-8.01-1.29.67-.05.79-.63,1.02-1.09,1.76-3.59,3.52-7.18,5.24-10.78.35-.74.77-1.48.87-2.33Z"/>
      <path class="cls-14" d="M127.35,69.1c.09,0,.18-.01.26,0q3.2.74,3.2,4.03c0,1.79,0,3.59,0,5.38-.01,1.48-.5,2.02-1.94,1.97-2.27-.07-4.55.13-6.81-.31,1.76-3.7,3.52-7.39,5.28-11.09Z"/>
      <path class="cls-14" d="M115.21,79.65c-1.09.19-1.44-.24-1.42-1.35.06-3.99.02-7.98.03-11.97,0-.34.04-.69.06-1.07,2.69.79,5.32,1.56,7.95,2.33-2.21,4.02-4.41,8.04-6.62,12.06Z"/>
      <path class="cls-15" d="M75.66,69.36c1.76-2.62,3.1-5.48,4.69-8.21,1.57-2.69,3.02-5.44,4.52-8.17.88.25,1.67.69,2.42,1.2-2.6,5.19-5.19,10.38-7.78,15.57-.45.89-1.19,1.65-1.28,2.72-2.32-.48-2.66-.88-2.57-3.11Z"/>
      <path class="cls-15" d="M96.44,76.77c.75-2.08,2.02-3.89,3.08-5.8,1.68-3.03,3.23-6.13,5.15-9.02.85.15,1.63.49,2.39.87-.21.48-.39.97-.63,1.44-2.18,4.4-4.37,8.8-6.56,13.2-1.15-.18-2.32-.29-3.43-.68Z"/>
      <path class="cls-15" d="M115.21,79.65c2.21-4.02,4.41-8.04,6.62-12.06.96.27,1.93.54,2.89.81-.17.4-.31.81-.53,1.19-1.91,3.39-3.53,6.91-5.27,10.38-1.25.03-2.5.05-3.71-.32Z"/>
      <path class="cls-5" d="M86.89,93.43c.07,1.73-.55,3.17-1.79,4.36-2.21.1-4.42.12-6.63-.01-1.29-1.17-1.91-2.6-1.78-4.35,3.4,0,6.81,0,10.21,0Z"/>
      <path class="cls-5" d="M108.79,93.43c.07,1.73-.55,3.17-1.78,4.36-2.21.1-4.43.13-6.64-.01-1.29-1.16-1.9-2.6-1.78-4.34,3.4,0,6.8,0,10.2,0Z"/>
      <path class="cls-4" d="M78.23,72.48c.09-1.06.83-1.82,1.28-2.72,2.59-5.19,5.19-10.38,7.78-15.57.42.22.85.45,1.27.67-2.91,6.01-5.83,12.02-8.74,18.03-.53-.14-1.06-.28-1.59-.42Z"/>
      <path class="cls-4" d="M99.87,77.45c2.19-4.4,4.38-8.8,6.56-13.2.23-.47.42-.96.63-1.44.52.18,1.03.37,1.55.55-2.36,4.79-4.72,9.59-7.07,14.38-.55-.1-1.11-.19-1.66-.29Z"/>
      <path class="cls-15" d="M79.82,72.9c2.91-6.01,5.83-12.02,8.74-18.03.41.04.76.2,1.04.5-2.9,5.96-5.8,11.91-8.69,17.87-.36-.11-.73-.22-1.09-.34Z"/>
      <path class="cls-4" d="M118.92,79.97c1.74-3.47,3.37-7,5.27-10.38.21-.38.35-.79.53-1.19.44.18.97.1,1.36.44-1.5,3.9-3.68,7.49-5.32,11.32-.63.07-1.24,0-1.84-.19Z"/>
      <path class="cls-15" d="M101.53,77.74c2.36-4.79,4.72-9.59,7.07-14.38.28.09.56.19.84.28-.1.84-.51,1.59-.87,2.33-1.72,3.61-3.48,7.19-5.24,10.78-.22.46-.35,1.04-1.02,1.09-.26-.03-.52-.07-.78-.1Z"/>
      <path class="cls-15" d="M120.76,80.16c1.64-3.84,3.82-7.42,5.32-11.32.45-.02.91-.1,1.27.26-1.76,3.7-3.52,7.39-5.28,11.09-.44.16-.87.09-1.31-.02Z"/>
      <path class="cls-5" d="M64.43,93.42c-.13,1.7-.73,3.17-2.09,4.27-2.35.31-4.71.16-7.07.08-1.32-1.14-2.13-2.53-2.11-4.33,3.76,0,7.51-.01,11.27-.02Z"/>
      <path class="cls-6" d="M26.59,88.66c-2.94.01-5.14-2.18-5.14-5.13,0-2.87,2.34-5.21,5.16-5.17,2.75.03,5.09,2.37,5.14,5.13.05,2.81-2.3,5.16-5.17,5.17Z"/>
      <path class="cls-6" d="M57.96,88.66c-2.91,0-5.22-2.26-5.21-5.11,0-2.81,2.42-5.21,5.21-5.19,2.76.02,5.08,2.33,5.14,5.12.06,2.86-2.23,5.18-5.13,5.18Z"/>
    </g>
  </g>
  <g id="Top_BGS" data-name="Top BGS">
    <path class="cls-9" d="M120.38,56.94c.5,4.1.15,8.15-1.54,11.66-.31.66-.67,1.29-1.08,1.9-.4.61-.86,1.19-1.36,1.76-5.39,6.01-14.39,6.72-21.76,10.02-4.2,1.88-7.95,4.65-12.04,6.74-2.2,1.13-4.5,2.02-6.87,2.67l-.41.11c-.72.2-1.45.37-2.18.52h0c-.62.13-1.23.24-1.86.33-.11.03-.22.04-.33.05-.88.13-1.76.23-2.65.31-.4.03-.8.06-1.21.08-5.14.27-10.36-.41-15.32-1.95-.44-.13-.89-.28-1.32-.43,0,0,0,0-.01,0-.06-.01-.12-.04-.18-.06-.12-.04-.25-.08-.36-.12-.15-.05-.3-.1-.44-.16-.38-.13-.75-.28-1.12-.43-.83-.33-1.66-.69-2.47-1.06-.46-.21-.91-.44-1.36-.67-1.11-.56-2.19-1.18-3.25-1.83-1.05-.64-2.06-1.33-3.05-2.07-1.27-.95-2.49-1.97-3.64-3.06-.42-.4-.84-.81-1.24-1.23-.42-.43-.83-.87-1.23-1.32-1.08-1.21-2.07-2.49-2.98-3.83-.72-1.07-1.39-2.17-2-3.32-.09-.16-.18-.33-.26-.5-2.91-5.67-4.45-11.88-5.17-18.23C14.42,51.6,7.17,50.28,0,48.92v92.82h141.73V52.41c-7.03,1.96-14.15,3.45-21.36,4.53Z"/>
  </g>
  <g id="Top_Els" data-name="Top Els">
    <g>
      <path class="cls-1" d="M13.48,75.31c-1.21-3.52-.75-7.07-.27-10.65,1.17-8.84,2.25-17.68,3.38-26.53.31-2.4,1.52-3.54,3.91-3.59,1.12-.02,1.88-.05,2.28-1.44.42-1.46,1.8-2.13,3.33-2.13,10.02-.02,20.04-.02,30.06,0,1.84,0,3.15.95,3.64,2.68.23.82.65.9,1.3.85,1.79-.13,3.27.45,4.39,1.89.38,2.99.75,5.97,1.13,8.96.4,3.16.82,6.32,1.22,9.47.33,2.55.65,5.11.97,7.66.29,2.29.6,4.59.87,6.88.24,2.05-.6,3.96-.8,5.96-3.82,0-7.63-.06-11.45,0-3.71.05-6.67,2.66-7.29,6.3-.11.65-.26,1.28-.38,1.93-.55,3.22-1.35,6.41-1.72,9.66h-13.77c-.66-3.61-1.56-7.2-1.92-10.85-.46-4.58-4.41-7.31-8.85-7.09-3.33.16-6.68.03-10.02.03ZM32.97,63.86c.97.1,1.94.11,2.91,0,5.71.02,11.42.04,17.13.05,2.42,0,4.83.03,7.25,0,2.33-.04,3.84-1.58,3.55-3.61-.93-6.54-1.87-13.08-2.82-19.62-.25-1.75-1.44-2.81-3.21-2.85-1.14-.03-2.28.02-3.42.03-.78,0-1.56,0-2.33,0-1.23,0-2.45,0-3.68,0-1.52,0-3.04,0-4.57,0-6.41-.01-12.82-.04-19.23-.03-1.79,0-2.92,1.01-3.2,2.84-.98,6.53-1.92,13.06-2.86,19.59-.24,1.66.83,3.09,2.48,3.5,1,.25,2,.15,3.01.1,1.96,0,3.91,0,5.87,0,1.03,0,2.07,0,3.1,0ZM37.89,70.06c3.95,0,7.91,0,11.86,0,.93,0,1.68-.16,1.76-1.28.09-1.17-.45-1.66-1.94-1.66-7.77,0-15.55,0-23.32-.01-1.05,0-1.85.27-1.94,1.45-.07,1.02.58,1.49,1.99,1.49,3.87,0,7.73,0,11.6,0Z"/>
      <path class="cls-2" d="M13.48,75.31c3.34,0,6.69.13,10.02-.03,4.44-.22,8.4,2.51,8.85,7.09.36,3.64,1.26,7.23,1.92,10.85-.94.03-1.89.07-2.83.1-3.75,0-7.49,0-11.24,0-2.97-.28-3.88-1.17-4.41-4.19-.75-4.26-1.51-8.52-2.26-12.78-.06-.34-.04-.69-.06-1.04ZM25.42,88.54c2.87-.01,5.22-2.36,5.17-5.17-.05-2.76-2.39-5.1-5.14-5.13-2.82-.03-5.16,2.31-5.16,5.17,0,2.95,2.19,5.14,5.14,5.13Z"/>
      <path class="cls-5" d="M20.21,93.33c3.75,0,7.49,0,11.24,0,.01,1.79-.79,3.19-2.11,4.33-2.36.05-4.72.24-7.08-.1-1.33-1.09-1.98-2.52-2.05-4.23Z"/>
      <path class="cls-12" d="M54.36,37.85c1.14-.01,2.28-.06,3.42-.03,1.77.05,2.96,1.11,3.21,2.85.95,6.54,1.89,13.08,2.82,19.62.29,2.02-1.22,3.57-3.55,3.61-2.42.04-4.83.01-7.25,0-5.71-.01-11.42-.03-17.13-.05.24-.41.46-.85.74-1.23,5.91-8.26,11.83-16.52,17.74-24.77Z"/>
      <path class="cls-7" d="M24,63.86c-1.01.05-2.01.14-3.01-.1-1.66-.41-2.72-1.84-2.48-3.5.93-6.53,1.88-13.07,2.86-19.59.27-1.83,1.41-2.83,3.2-2.84,6.41-.01,12.82.02,19.23.03-4.21,5.49-8.42,10.97-12.61,16.47-2.41,3.16-4.78,6.36-7.17,9.54Z"/>
      <path class="cls-2" d="M68.89,75.33c-.48,2.92-.94,5.85-1.43,8.77-.29,1.72-.7,3.42-.9,5.15-.21,1.86-1.05,3.19-2.74,3.97-.19.02-.37.05-.56.07-3.76,0-7.51.02-11.27.02-1.31-.03-2.62-.07-3.94-.1.37-3.26,1.17-6.44,1.72-9.66.11-.64.27-1.28.38-1.93.62-3.64,3.58-6.26,7.29-6.3,3.82-.05,7.63,0,11.45,0ZM56.79,88.54c2.9,0,5.18-2.32,5.13-5.18-.05-2.78-2.38-5.1-5.14-5.12-2.79-.02-5.2,2.38-5.21,5.19,0,2.86,2.3,5.12,5.21,5.11Z"/>
      <path class="cls-10" d="M24,63.86c2.39-3.18,4.76-6.37,7.17-9.54,4.19-5.5,8.41-10.98,12.61-16.47,1.52,0,3.04,0,4.57,0-.21.38-.39.78-.64,1.13-5.94,8.3-11.89,16.58-17.84,24.88-1.96,0-3.91,0-5.87,0Z"/>
      <path class="cls-7" d="M29.87,63.86c5.95-8.29,11.9-16.58,17.84-24.88.25-.35.43-.75.64-1.13,1.23,0,2.45,0,3.68,0-.06.16-.09.35-.19.48-3.59,4.85-7.2,9.69-10.79,14.54-2.7,3.65-5.38,7.32-8.07,10.99-1.03,0-2.07,0-3.1,0Z"/>
      <path class="cls-6" d="M37.89,70.06c-3.87,0-7.73,0-11.6,0-1.41,0-2.06-.47-1.99-1.49.09-1.19.89-1.46,1.94-1.45,7.77.02,15.55,0,23.32.01,1.49,0,2.03.49,1.94,1.66-.09,1.12-.83,1.29-1.76,1.28-3.95-.01-7.91,0-11.86,0Z"/>
      <path class="cls-10" d="M32.97,63.86c2.69-3.66,5.37-7.33,8.07-10.99,3.59-4.85,7.2-9.69,10.79-14.54.1-.13.13-.32.19-.48.78,0,1.56,0,2.33,0-5.92,8.26-11.83,16.51-17.74,24.77-.28.39-.49.82-.74,1.23-.97.11-1.94.1-2.91,0Z"/>
      <path class="cls-5" d="M63.26,93.3c-.13,1.7-.73,3.17-2.09,4.27-2.35.31-4.71.16-7.07.08-1.32-1.14-2.13-2.53-2.11-4.33,3.76,0,7.51-.01,11.27-.02Z"/>
      <path class="cls-6" d="M25.42,88.54c-2.94.01-5.14-2.18-5.14-5.13,0-2.87,2.34-5.21,5.16-5.17,2.75.03,5.09,2.37,5.14,5.13.05,2.81-2.3,5.16-5.17,5.17Z"/>
      <path class="cls-6" d="M56.79,88.54c-2.91,0-5.22-2.26-5.21-5.11,0-2.81,2.42-5.21,5.21-5.19,2.76.02,5.08,2.33,5.14,5.12.06,2.86-2.23,5.18-5.13,5.18Z"/>
    </g>
  </g>
  <g id="Texts">
    <g>
      <rect class="cls-8" x="0" y="87.41" width="141.73" height="54.32"/>
      <path class="cls-3" d="M39.2,103.16h-3.06c-.45,0-.67-.22-.67-.66v-.45c0-.43.22-.67.67-.67h8.16c.43,0,.66.24.66.67v.45c0,.43-.22.66-.66.66h-3.06v8.92c0,.45-.22.67-.67.67h-.72c-.43,0-.66-.22-.66-.67v-8.92Z"/>
      <path class="cls-3" d="M44.6,105.26c0-.43.22-.67.66-.67h.62c.43,0,.67.24.67.67v.77c0,.3-.05.56-.05.56h.03c.32-.98,1.22-2.07,2.37-2.07.45,0,.61.22.61.67v.62c0,.43-.26.67-.69.67-1.49,0-2.21,1.47-2.21,2.96v2.62c0,.45-.22.67-.66.67h-.7c-.43,0-.66-.22-.66-.67v-6.82Z"/>
      <path class="cls-3" d="M54.67,107.71h.34v-.19c0-1.07-.69-1.44-1.52-1.44-.69,0-1.31.26-1.7.46-.4.18-.7.11-.9-.27l-.16-.3c-.19-.37-.13-.69.26-.9.53-.27,1.46-.67,2.67-.67,2.11,0,3.38,1.18,3.38,3.25v4.43c0,.45-.22.67-.67.67h-.54c-.43,0-.66-.22-.66-.67v-.32c0-.22.03-.35.03-.35h-.03s-.77,1.54-2.56,1.54c-1.49,0-2.71-.96-2.71-2.45,0-2.38,2.95-2.79,4.77-2.79ZM53.15,111.39c1.14,0,1.87-1.15,1.87-2.14v-.3h-.34c-1.02,0-2.77.16-2.77,1.38,0,.54.42,1.07,1.23,1.07Z"/>
      <path class="cls-3" d="M58.57,111.2l.19-.29c.24-.34.51-.37.91-.16.38.21.99.56,1.83.56.7,0,1.14-.32,1.14-.83,0-1.33-4.05-.83-4.05-3.63,0-1.6,1.41-2.45,3.12-2.45,1.09,0,1.84.35,2.27.59.37.19.42.53.24.9l-.16.29c-.19.38-.5.43-.9.26-.35-.16-.88-.4-1.55-.4s-1.1.29-1.1.8c0,1.34,4.05.82,4.05,3.6,0,1.44-1.22,2.51-3.11,2.51-1.31,0-2.22-.5-2.72-.83-.37-.21-.4-.56-.16-.91Z"/>
      <path class="cls-3" d="M66.08,105.26c0-.43.24-.67.67-.67h.51c.43,0,.66.24.66.56v.37c0,.18-.02.32-.02.32h.03s.72-1.44,2.62-1.44c2.21,0,3.63,1.75,3.63,4.27s-1.6,4.27-3.75,4.27c-1.7,0-2.35-1.25-2.35-1.25h-.03s.05.29.05.71v2.88c0,.45-.22.67-.67.67h-.69c-.43,0-.67-.22-.67-.67v-10.02ZM70.08,111.23c1.12,0,2.05-.91,2.05-2.53s-.83-2.56-2.02-2.56c-1.06,0-2.06.77-2.06,2.58,0,1.26.7,2.51,2.03,2.51Z"/>
      <path class="cls-3" d="M79.69,104.4c2.48,0,4.5,1.78,4.5,4.27s-2.02,4.27-4.5,4.27-4.48-1.76-4.48-4.27,2-4.27,4.48-4.27ZM79.69,111.22c1.33,0,2.43-1.02,2.43-2.54s-1.1-2.54-2.43-2.54-2.42,1.04-2.42,2.54,1.09,2.54,2.42,2.54Z"/>
      <path class="cls-3" d="M85.68,105.26c0-.43.22-.67.66-.67h.62c.43,0,.67.24.67.67v.77c0,.3-.05.56-.05.56h.03c.32-.98,1.22-2.07,2.37-2.07.45,0,.61.22.61.67v.62c0,.43-.26.67-.69.67-1.49,0-2.21,1.47-2.21,2.96v2.62c0,.45-.22.67-.66.67h-.7c-.43,0-.66-.22-.66-.67v-6.82Z"/>
      <path class="cls-3" d="M92.12,106.32h-.43c-.43,0-.66-.22-.66-.67v-.27c0-.43.22-.67.67-.67h.46v-1.67c0-.43.24-.67.67-.67h.64c.43,0,.67.24.67.67v1.67h1.18c.43,0,.67.24.67.67v.27c0,.45-.24.67-.66.67h-1.2v3.17c0,1.22.75,1.46,1.31,1.52.5.05.67.21.67.66v.5c0,.48-.27.67-.83.67-1.46,0-3.18-.78-3.18-2.99v-3.52Z"/>
      <path class="cls-3" d="M101.39,104.4c2.48,0,4.5,1.78,4.5,4.27s-2.02,4.27-4.5,4.27-4.48-1.76-4.48-4.27,2-4.27,4.48-4.27ZM101.39,111.22c1.33,0,2.43-1.02,2.43-2.54s-1.1-2.54-2.43-2.54-2.42,1.04-2.42,2.54,1.09,2.54,2.42,2.54Z"/>
      <path class="cls-3" d="M39.23,120.26c0-.43.24-.67.67-.67h.51c.43,0,.66.24.66.56v.37c0,.18-.02.32-.02.32h.03s.72-1.44,2.62-1.44c2.21,0,3.63,1.75,3.63,4.27s-1.6,4.27-3.75,4.27c-1.7,0-2.35-1.25-2.35-1.25h-.03s.05.29.05.71v2.88c0,.45-.22.67-.67.67h-.69c-.43,0-.67-.22-.67-.67v-10.02ZM43.24,126.23c1.12,0,2.05-.91,2.05-2.53s-.83-2.56-2.02-2.56c-1.06,0-2.06.77-2.06,2.58,0,1.26.7,2.51,2.03,2.51Z"/>
      <path class="cls-3" d="M48.77,120.26c0-.43.24-.67.67-.67h.69c.45,0,.67.24.67.67v4.16c0,.99.26,1.67,1.26,1.67,1.47,0,2.29-1.3,2.29-2.75v-3.07c0-.43.22-.67.67-.67h.69c.43,0,.67.24.67.67v6.82c0,.45-.24.67-.67.67h-.62c-.43,0-.66-.22-.66-.67v-.48c0-.19.03-.37.03-.37h-.03c-.38.83-1.44,1.71-2.83,1.71-1.75,0-2.83-.88-2.83-3.11v-4.58Z"/>
      <path class="cls-3" d="M58.39,117.06c0-.43.24-.67.67-.67h.69c.45,0,.67.24.67.67v2.96c0,.4-.05.69-.05.69h.03s.72-1.31,2.5-1.31c2.16,0,3.6,1.75,3.6,4.26s-1.62,4.29-3.73,4.29c-1.84,0-2.5-1.38-2.5-1.38h-.03s.03.13.03.35v.26c0,.35-.22.58-.67.58h-.54c-.43,0-.67-.22-.67-.67v-10.02ZM62.37,126.23c1.14,0,2.06-.91,2.06-2.53s-.83-2.56-2.02-2.56c-1.06,0-2.06.78-2.06,2.53,0,1.33.69,2.56,2.02,2.56Z"/>
      <path class="cls-3" d="M68.03,117.06c0-.43.24-.67.67-.67h.69c.45,0,.67.24.67.67v2.96c0,.4-.05.69-.05.69h.03s.72-1.31,2.5-1.31c2.16,0,3.6,1.75,3.6,4.26s-1.62,4.29-3.73,4.29c-1.84,0-2.5-1.38-2.5-1.38h-.03s.03.13.03.35v.26c0,.35-.22.58-.67.58h-.54c-.43,0-.67-.22-.67-.67v-10.02ZM72.02,126.23c1.14,0,2.06-.91,2.06-2.53s-.83-2.56-2.02-2.56c-1.06,0-2.06.78-2.06,2.53,0,1.33.69,2.56,2.02,2.56Z"/>
      <path class="cls-3" d="M77.67,117.06c0-.43.22-.67.66-.67h.7c.43,0,.66.24.66.67v7.99c0,.8.34.94.64.98.29.03.5.21.5.58v.54c0,.42-.19.69-.67.69-1.09,0-2.48-.29-2.48-2.62v-8.15Z"/>
      <path class="cls-3" d="M82.15,117.54v-.48c0-.43.22-.67.66-.67h.7c.43,0,.67.24.67.67v.48c0,.43-.24.66-.67.66h-.7c-.43,0-.66-.22-.66-.66ZM82.15,120.26c0-.43.22-.67.66-.67h.7c.43,0,.66.24.66.67v6.82c0,.45-.22.67-.66.67h-.7c-.43,0-.66-.22-.66-.67v-6.82Z"/>
      <path class="cls-3" d="M90.1,119.4c1.31,0,2.19.48,2.67.82.34.22.35.56.13.91l-.21.32c-.24.37-.51.37-.9.18-.34-.22-.88-.5-1.58-.5-1.5,0-2.48,1.14-2.48,2.53s.98,2.56,2.55,2.56c.8,0,1.44-.35,1.82-.62.4-.22.7-.18.91.21l.16.3c.19.35.14.67-.18.9-.5.37-1.49.94-2.9.94-2.71,0-4.43-1.91-4.43-4.27s1.73-4.27,4.43-4.27Z"/>
      <path class="cls-3" d="M98.53,119.4c2.48,0,4.5,1.78,4.5,4.27s-2.02,4.27-4.5,4.27-4.48-1.76-4.48-4.27,2-4.27,4.48-4.27ZM98.53,126.22c1.33,0,2.43-1.02,2.43-2.54s-1.1-2.54-2.43-2.54-2.42,1.04-2.42,2.54,1.09,2.54,2.42,2.54Z"/>
    </g>
  </g>
</svg>