<?xml version="1.0" encoding="UTF-8"?>
<svg xmlns="http://www.w3.org/2000/svg" viewBox="0 0 141.73 141.73">
  <defs>
    <style>
      .cls-1 {
        fill: #f1f2f2;
      }

      .cls-2 {
        fill: #fff;
      }

      .cls-3, .cls-4 {
        fill: none;
      }

      .cls-5 {
        fill: #55b6cf;
        stroke: #55b6cf;
        stroke-width: .5px;
      }

      .cls-5, .cls-4 {
        stroke-miterlimit: 10;
      }

      .cls-6 {
        fill: #f15b5c;
      }

      .cls-4 {
        stroke: #234c89;
        stroke-linecap: round;
        stroke-width: 1.38px;
      }

      .cls-7 {
        fill: #fcb44a;
      }

      .cls-8 {
        fill: #234c89;
      }
    </style>
  </defs>
  <g id="Bottom_BGS" data-name="Bottom BGS">
    <path class="cls-5" d="M21.18,38.6c.47-18.96,18.13-24.44,34.47-19.35.31.1.61.19.92.3,7.38,2.49,14.42,6.35,21.94,8,1.49.33,3,.57,4.54.69.65.05,1.31.08,1.97.1.01,0,.02,0,.03,0,1.67.04,3.35-.01,5.03-.06.81-.03,1.62-.05,2.42-.07,3.33-.06,6.61.08,9.73,1.18,6.6,2.33,11.05,8.51,14.17,14.77.71,1.44,1.37,2.95,1.94,4.5.64,1.73,1.17,3.52,1.56,5.31.52,2.43.77,4.88.67,7.25,7.07-.63,14.12-1.29,21.17-1.89V0H0v58.14c7.81,1.93,15.67,3.36,23.57,4.39-2.16-7.67-2.59-15.9-2.39-23.92Z"/>
  </g>
  <g id="Elements">
    <g>
      <path class="cls-8" d="M123.93,59.17l-76.05,40.02c-2.46,1.3-5.51.35-6.81-2.11l-16.12-30.64c-1.3-2.47-.35-5.52,2.11-6.81L103.11,19.61c2.47-1.3,5.51-.35,6.81,2.12l16.12,30.64c1.3,2.46.35,5.51-2.12,6.81Z"/>
      <g>
        <path class="cls-2" d="M40.61,66.45l-3.08,1.62c-.5.26-1.11.07-1.36-.42l-1.62-3.09c-.26-.49-.07-1.11.42-1.37l3.08-1.62c.49-.26,1.1-.07,1.36.43l1.62,3.09c.26.49.07,1.1-.42,1.36Z"/>
        <path class="cls-2" d="M48.47,62.31l-3.08,1.62c-.49.26-1.1.07-1.36-.42l-1.62-3.09c-.26-.49-.07-1.11.42-1.37l3.08-1.62c.49-.26,1.1-.07,1.36.43l1.62,3.09c.26.49.07,1.1-.42,1.36Z"/>
        <path class="cls-2" d="M56.33,58.17l-3.09,1.62c-.49.26-1.1.07-1.36-.42l-1.62-3.09c-.26-.49-.07-1.11.42-1.37l3.09-1.62c.49-.26,1.1-.07,1.36.43l1.62,3.09c.26.49.07,1.1-.42,1.36Z"/>
        <path class="cls-2" d="M59.63,49.65h3.49c.56,0,1.01.45,1.01,1.01v3.49c0,.56-.45,1.01-1.01,1.01h-3.49c-.56,0-1.01-.45-1.01-1.01v-3.49c0-.56.45-1.01,1.01-1.01Z" transform="translate(-17.35 34.61) rotate(-27.76)"/>
        <path class="cls-2" d="M72.06,49.9l-3.09,1.62c-.49.26-1.1.07-1.36-.42l-1.62-3.09c-.26-.49-.07-1.11.42-1.37l3.09-1.62c.49-.26,1.11-.07,1.37.43l1.62,3.09c.26.49.07,1.1-.43,1.36Z"/>
        <path class="cls-2" d="M79.93,45.76l-3.09,1.62c-.49.26-1.1.07-1.36-.42l-1.62-3.09c-.26-.49-.07-1.11.42-1.37l3.09-1.62c.49-.26,1.1-.07,1.36.43l1.62,3.09c.26.49.07,1.1-.42,1.36Z"/>
        <path class="cls-2" d="M83.22,37.24h3.49c.56,0,1.01.45,1.01,1.01v3.49c0,.56-.45,1.01-1.01,1.01h-3.49c-.56,0-1.01-.45-1.01-1.01v-3.5c0-.56.45-1.01,1.01-1.01Z" transform="translate(-8.85 44.17) rotate(-27.76)"/>
        <path class="cls-6" d="M95.66,37.48l-3.09,1.62c-.49.26-1.1.06-1.36-.42l-1.62-3.09c-.26-.49-.08-1.11.42-1.36l3.09-1.62c.5-.26,1.1-.07,1.36.43l1.62,3.09c.26.49.07,1.1-.42,1.36Z"/>
        <path class="cls-6" d="M98.95,28.96h3.49c.56,0,1.01.45,1.01,1.01v3.5c0,.56-.45,1.01-1.01,1.01h-3.49c-.56,0-1.01-.45-1.01-1.01v-3.49c0-.56.45-1.01,1.01-1.01Z" transform="translate(-3.18 50.54) rotate(-27.76)"/>
      </g>
      <g>
        <g>
          <path class="cls-2" d="M41.07,76.08l-3.08,1.62c-.5.26-1.11.07-1.37-.42l-1.62-3.08c-.26-.5-.07-1.1.42-1.36l3.08-1.62c.49-.26,1.1-.07,1.36.42l1.62,3.08c.26.49.07,1.1-.42,1.36Z"/>
          <path class="cls-2" d="M44.36,67.57h3.49c.56,0,1.01.45,1.01,1.01v3.49c0,.56-.45,1.01-1.01,1.01h-3.48c-.56,0-1.01-.45-1.01-1.01v-3.49c0-.56.45-1.01,1.01-1.01Z" transform="translate(-27.45 29.56) rotate(-27.76)"/>
          <rect class="cls-2" x="51.22" y="63.43" width="5.51" height="5.5" rx="1.01" ry="1.01" transform="translate(-24.61 32.75) rotate(-27.76)"/>
          <rect class="cls-2" x="59.08" y="59.29" width="5.5" height="5.5" rx="1.01" ry="1.01" transform="translate(-21.78 35.94) rotate(-27.76)"/>
          <rect class="cls-2" x="66.95" y="55.15" width="5.5" height="5.5" rx="1.01" ry="1.01" transform="translate(-18.95 39.12) rotate(-27.76)"/>
          <path class="cls-2" d="M75.82,51.02h3.49c.56,0,1.01.45,1.01,1.01v3.49c0,.56-.45,1.01-1.01,1.01h-3.49c-.56,0-1.01-.45-1.01-1.01v-3.48c0-.56.45-1.01,1.01-1.01Z" transform="translate(-16.12 42.31) rotate(-27.76)"/>
          <path class="cls-2" d="M88.25,51.25l-3.09,1.62c-.49.26-1.1.06-1.36-.43l-1.62-3.08c-.26-.5-.07-1.1.42-1.36l3.09-1.62c.49-.26,1.1-.07,1.36.42l1.62,3.08c.26.49.07,1.1-.42,1.36Z"/>
          <path class="cls-2" d="M91.55,42.74h3.49c.56,0,1.01.45,1.01,1.01v3.48c0,.56-.45,1.01-1.01,1.01h-3.49c-.56,0-1.01-.45-1.01-1.01v-3.49c0-.56.45-1.01,1.01-1.01Z" transform="translate(-10.45 48.68) rotate(-27.76)"/>
          <path class="cls-2" d="M99.41,38.6h3.49c.56,0,1.01.45,1.01,1.01v3.48c0,.56-.45,1.01-1.01,1.01h-3.48c-.56,0-1.01-.45-1.01-1.01v-3.48c0-.56.45-1.01,1.01-1.01Z" transform="translate(-7.62 51.87) rotate(-27.76)"/>
          <path class="cls-2" d="M107.28,34.46h3.49c.56,0,1.01.45,1.01,1.01v3.49c0,.56-.45,1.01-1.01,1.01h-3.48c-.56,0-1.01-.45-1.01-1.01v-3.49c0-.56.45-1.01,1.01-1.01Z" transform="translate(-4.79 55.05) rotate(-27.76)"/>
        </g>
        <g>
          <path class="cls-2" d="M40.57,79.44h3.49c.56,0,1.01.45,1.01,1.01v3.49c0,.56-.45,1.01-1.01,1.01h-3.48c-.56,0-1.01-.45-1.01-1.01v-3.49c0-.56.45-1.01,1.01-1.01Z" transform="translate(-33.41 29.16) rotate(-27.76)"/>
          <path class="cls-2" d="M48.43,75.3h3.49c.56,0,1.01.45,1.01,1.01v3.49c0,.56-.45,1.01-1.01,1.01h-3.48c-.56,0-1.01-.45-1.01-1.01v-3.49c0-.56.45-1.01,1.01-1.01Z" transform="translate(-30.58 32.35) rotate(-27.76)"/>
          <path class="cls-2" d="M56.29,71.16h3.49c.56,0,1.01.45,1.01,1.01v3.49c0,.56-.45,1.01-1.01,1.01h-3.49c-.56,0-1.01-.45-1.01-1.01v-3.49c0-.56.45-1.01,1.01-1.01Z" transform="translate(-27.75 35.53) rotate(-27.76)"/>
          <path class="cls-2" d="M64.16,67.02h3.49c.56,0,1.01.45,1.01,1.01v3.49c0,.56-.45,1.01-1.01,1.01h-3.48c-.56,0-1.01-.45-1.01-1.01v-3.49c0-.56.45-1.01,1.01-1.01Z" transform="translate(-24.91 38.72) rotate(-27.76)"/>
          <path class="cls-2" d="M72.03,62.88h3.49c.56,0,1.01.45,1.01,1.01v3.49c0,.56-.45,1.01-1.01,1.01h-3.48c-.56,0-1.01-.45-1.01-1.01v-3.49c0-.56.45-1.01,1.01-1.01Z" transform="translate(-22.08 41.91) rotate(-27.76)"/>
          <path class="cls-2" d="M79.89,58.75h3.49c.56,0,1.01.45,1.01,1.01v3.49c0,.56-.45,1.01-1.01,1.01h-3.48c-.56,0-1.01-.45-1.01-1.01v-3.49c0-.56.45-1.01,1.01-1.01Z" transform="translate(-19.25 45.09) rotate(-27.76)"/>
          <path class="cls-2" d="M92.32,58.99l-3.09,1.62c-.49.26-1.1.07-1.36-.42l-1.63-3.09c-.26-.5-.07-1.1.42-1.36l3.09-1.62c.49-.26,1.1-.07,1.36.42l1.63,3.09c.26.49.07,1.1-.42,1.36Z"/>
          <path class="cls-2" d="M95.62,50.47h3.49c.56,0,1.01.45,1.01,1.01v3.49c0,.56-.45,1.01-1.01,1.01h-3.48c-.56,0-1.01-.45-1.01-1.01v-3.49c0-.56.45-1.01,1.01-1.01Z" transform="translate(-13.58 51.47) rotate(-27.76)"/>
          <path class="cls-2" d="M103.48,46.33h3.49c.56,0,1.01.45,1.01,1.01v3.49c0,.56-.45,1.01-1.01,1.01h-3.48c-.56,0-1.01-.45-1.01-1.01v-3.49c0-.56.45-1.01,1.01-1.01Z" transform="translate(-10.75 54.65) rotate(-27.76)"/>
          <path class="cls-2" d="M111.35,42.19h3.49c.56,0,1.01.45,1.01,1.01v3.49c0,.56-.45,1.01-1.01,1.01h-3.48c-.56,0-1.01-.45-1.01-1.01v-3.49c0-.56.45-1.01,1.01-1.01Z" transform="translate(-7.92 57.84) rotate(-27.76)"/>
        </g>
      </g>
      <path class="cls-2" d="M48.25,85.27h3.48c.56,0,1.01.45,1.01,1.01v3.49c0,.56-.45,1.01-1.01,1.01h-3.49c-.56,0-1.01-.45-1.01-1.01v-3.49c0-.56.45-1.01,1.01-1.01Z" transform="translate(-35.24 33.41) rotate(-27.76)"/>
      <path class="cls-2" d="M56.11,81.14h3.48c.56,0,1.01.45,1.01,1.01v3.49c0,.56-.45,1.01-1.01,1.01h-3.49c-.56,0-1.01-.45-1.01-1.01v-3.49c0-.56.45-1.01,1.01-1.01Z" transform="translate(-32.41 36.6) rotate(-27.76)"/>
      <path class="cls-2" d="M63.98,77h3.48c.56,0,1.01.45,1.01,1.01v3.49c0,.56-.45,1.01-1.01,1.01h-3.49c-.56,0-1.01-.45-1.01-1.01v-3.49c0-.56.45-1.01,1.01-1.01Z" transform="translate(-29.58 39.78) rotate(-27.76)"/>
      <path class="cls-7" d="M70.8,68.63h21.63c.56,0,1.01.45,1.01,1.01v3.49c0,.56-.45,1.01-1.01,1.01h-21.64c-.56,0-1.01-.45-1.01-1.01v-3.49c0-.56.45-1.01,1.01-1.01Z" transform="translate(-23.85 46.22) rotate(-27.76)"/>
      <path class="cls-2" d="M95.44,60.44h3.48c.56,0,1.01.45,1.01,1.01v3.49c0,.56-.45,1.01-1.01,1.01h-3.49c-.56,0-1.01-.45-1.01-1.01v-3.49c0-.56.45-1.01,1.01-1.01Z" transform="translate(-18.25 52.53) rotate(-27.76)"/>
      <path class="cls-2" d="M107.87,60.68l-3.09,1.62c-.49.26-1.1.07-1.36-.43l-1.62-3.09c-.26-.49-.07-1.1.42-1.36l3.09-1.62c.5-.26,1.1-.07,1.36.42l1.62,3.09c.26.49.08,1.1-.42,1.36Z"/>
      <path class="cls-2" d="M111.16,52.16h3.49c.56,0,1.01.45,1.01,1.01v3.49c0,.56-.45,1.01-1.01,1.01h-3.49c-.56,0-1.01-.45-1.01-1.01v-3.49c0-.56.45-1.01,1.01-1.01Z" transform="translate(-12.58 58.9) rotate(-27.76)"/>
      <rect class="cls-8" x="60.76" y="37.41" width="7.56" height="2.35" transform="translate(-10.54 34.5) rotate(-27.76)"/>
      <path class="cls-4" d="M64.58,37.97c-.41-.2-1.99-1.05-2.68-2.91-.86-2.32.32-4.37.57-4.77,1.54-2.51,4.62-2.91,6.02-3.09,2.93-.38,3.23-.2,6.55-.13,1.68.04,5.54.12,8.7-2.45.89-.72,3.65-3.22,3.8-7.21.05-1.23.21-3.54-1.46-5.35-2.1-2.27-5.32-1.88-5.7-1.83"/>
    </g>
  </g>
  <g id="Top_BGS" data-name="Top BGS">
    <path class="cls-5" d="M120.57,61.22c-.11,2.6-.63,5.1-1.72,7.38-.31.66-.67,1.29-1.08,1.9-.4.61-.86,1.19-1.36,1.76-5.39,6.01-14.39,6.72-21.76,10.02-4.2,1.88-7.95,4.65-12.04,6.74-2.2,1.13-4.5,2.02-6.87,2.67l-.41.11c-.72.2-1.45.37-2.18.52h0c-.62.13-1.23.24-1.86.33-.11.03-.22.04-.33.05-.88.13-1.76.23-2.65.31-.4.03-.8.06-1.21.08-5.14.27-10.36-.41-15.32-1.95-.44-.13-.89-.28-1.32-.43,0,0,0,0-.01,0-.06-.01-.12-.04-.18-.06-.12-.04-.25-.08-.36-.12-.15-.05-.3-.1-.44-.16-.38-.13-.75-.28-1.12-.43-.83-.33-1.66-.69-2.47-1.06-.46-.21-.91-.44-1.36-.67-1.11-.56-2.19-1.18-3.25-1.83-1.05-.64-2.06-1.33-3.05-2.07-1.27-.95-2.49-1.97-3.64-3.06-.42-.4-.84-.81-1.24-1.23-.42-.43-.83-.87-1.23-1.32-1.08-1.21-2.07-2.49-2.98-3.83-.72-1.07-1.39-2.17-2-3.32-.09-.16-.18-.33-.26-.5-1.4-2.73-2.48-5.59-3.3-8.52C15.67,61.5,7.81,60.07,0,58.14v83.59h141.73V59.33c-7.04.6-14.1,1.25-21.17,1.89Z"/>
  </g>
  <g id="Texts">
    <g>
      <rect class="cls-3" x="0" y="87.41" width="141.73" height="54.32"/>
      <path class="cls-1" d="M46.23,110.67h-3.06c-.45,0-.67-.22-.67-.66v-.45c0-.43.22-.67.67-.67h8.16c.43,0,.66.24.66.67v.45c0,.43-.22.66-.66.66h-3.06v8.92c0,.45-.22.67-.67.67h-.72c-.43,0-.66-.22-.66-.67v-8.92Z"/>
      <path class="cls-1" d="M56.02,115.21h.34v-.19c0-1.07-.69-1.44-1.52-1.44-.69,0-1.31.26-1.7.46-.4.18-.7.11-.9-.27l-.16-.3c-.19-.37-.13-.69.26-.9.53-.27,1.46-.67,2.67-.67,2.11,0,3.38,1.18,3.38,3.25v4.43c0,.45-.22.67-.67.67h-.54c-.43,0-.66-.22-.66-.67v-.32c0-.22.03-.35.03-.35h-.03s-.77,1.54-2.56,1.54c-1.49,0-2.71-.96-2.71-2.45,0-2.38,2.95-2.79,4.77-2.79ZM54.5,118.89c1.14,0,1.87-1.15,1.87-2.14v-.3h-.34c-1.02,0-2.77.16-2.77,1.38,0,.54.42,1.07,1.23,1.07Z"/>
      <path class="cls-1" d="M59.92,118.7l.19-.29c.24-.34.51-.37.91-.16.38.21.99.56,1.82.56.71,0,1.14-.32,1.14-.83,0-1.33-4.05-.83-4.05-3.63,0-1.6,1.41-2.45,3.12-2.45,1.09,0,1.84.35,2.27.59.37.19.42.53.24.9l-.16.29c-.19.38-.5.43-.9.26-.35-.16-.88-.4-1.55-.4s-1.1.29-1.1.8c0,1.35,4.05.82,4.05,3.6,0,1.44-1.22,2.51-3.11,2.51-1.31,0-2.22-.5-2.72-.83-.37-.21-.4-.56-.16-.91Z"/>
      <path class="cls-1" d="M67.87,113.82h-.43c-.43,0-.66-.22-.66-.67v-.27c0-.43.22-.67.67-.67h.46v-1.66c0-.43.24-.67.67-.67h.64c.43,0,.67.24.67.67v1.66h1.18c.43,0,.67.24.67.67v.27c0,.45-.24.67-.66.67h-1.2v3.17c0,1.22.75,1.46,1.31,1.52.5.05.67.21.67.66v.5c0,.48-.27.67-.83.67-1.46,0-3.18-.78-3.18-2.99v-3.52Z"/>
      <path class="cls-1" d="M73.25,110.04v-.48c0-.43.22-.67.66-.67h.7c.43,0,.67.24.67.67v.48c0,.43-.24.66-.67.66h-.7c-.43,0-.66-.22-.66-.66ZM73.25,112.76c0-.43.22-.67.66-.67h.7c.43,0,.66.24.66.67v6.82c0,.45-.22.67-.66.67h-.7c-.43,0-.66-.22-.66-.67v-6.82Z"/>
      <path class="cls-1" d="M80.93,111.9c2.32,0,3.62,1.65,3.62,3.89,0,.35-.3.69-.7.69h-4.98c.13,1.47,1.22,2.24,2.45,2.24.75,0,1.38-.29,1.76-.53.4-.19.69-.14.9.22l.19.32c.19.37.13.69-.22.9-.53.34-1.49.82-2.77.82-2.71,0-4.39-1.95-4.39-4.27,0-2.51,1.7-4.27,4.15-4.27ZM82.53,115.24c-.03-1.14-.72-1.81-1.65-1.81-1.04,0-1.78.72-1.97,1.81h3.62Z"/>
      <path class="cls-1" d="M86.02,112.76c0-.43.22-.67.66-.67h.62c.43,0,.67.24.67.67v.77c0,.3-.05.56-.05.56h.03c.32-.98,1.22-2.06,2.37-2.06.45,0,.61.22.61.67v.62c0,.43-.26.67-.69.67-1.49,0-2.21,1.47-2.21,2.96v2.62c0,.45-.22.67-.66.67h-.7c-.43,0-.66-.22-.66-.67v-6.82Z"/>
      <path class="cls-1" d="M96.08,115.21h.34v-.19c0-1.07-.69-1.44-1.52-1.44-.69,0-1.31.26-1.7.46-.4.18-.7.11-.9-.27l-.16-.3c-.19-.37-.13-.69.26-.9.53-.27,1.46-.67,2.67-.67,2.11,0,3.38,1.18,3.38,3.25v4.43c0,.45-.22.67-.67.67h-.54c-.43,0-.66-.22-.66-.67v-.32c0-.22.03-.35.03-.35h-.03s-.77,1.54-2.56,1.54c-1.49,0-2.71-.96-2.71-2.45,0-2.38,2.95-2.79,4.77-2.79ZM94.56,118.89c1.14,0,1.87-1.15,1.87-2.14v-.3h-.34c-1.02,0-2.77.16-2.77,1.38,0,.54.42,1.07,1.23,1.07Z"/>
    </g>
  </g>
</svg>