<?xml version="1.0" encoding="UTF-8"?>
<svg xmlns="http://www.w3.org/2000/svg" viewBox="0 0 141.73 141.73">
  <defs>
    <style>
      .cls-1 {
        fill: #ec6362;
      }

      .cls-2 {
        fill: #f1f2f2;
      }

      .cls-3 {
        fill: none;
      }

      .cls-4 {
        fill: #cbc3cb;
      }

      .cls-5 {
        fill: #1f3a6e;
        stroke: #1f3a6e;
        stroke-miterlimit: 10;
        stroke-width: .5px;
      }

      .cls-6 {
        fill: #e94746;
      }

      .cls-7 {
        fill: #918291;
      }

      .cls-8 {
        fill: #7b6e7a;
      }

      .cls-9 {
        fill: #ec6462;
      }

      .cls-10 {
        fill: #e94646;
      }

      .cls-11 {
        fill: #e94645;
      }

      .cls-12 {
        fill: #f27b7c;
      }
    </style>
  </defs>
  <g id="Bottom_BGS" data-name="Bottom BGS">
    <path class="cls-5" d="M0,0v49.13c6.99,1.16,13.98,2.28,20.98,3.3-.29-10.81,3.54-21.75,11.2-29.18,9.79-9.49,22.14-9.36,37.05-9.91,5.97-.21,36.56-1.34,42.93,12.87,3.85,8.57-4.55,15.01-.17,27.67.45,1.31.97,2.46,1.52,3.49,9.36-.7,18.77-1.88,28.23-3.6V0H0Z"/>
  </g>
  <g id="Elements">
    <g>
      <path class="cls-12" d="M30.01,75.25c-.62-2.55-.07-4.89,1.39-6.99.55-.79.68-1.17-.17-1.91-5.92-5.16-6.77-13.34-2.05-19.55.63-.82.32-1.12-.25-1.69-4.64-4.62-3.89-11.88,1.54-15.08.76,2.95,2.28,5.5,4.21,7.8.82.98,2,1.03,2.92.3.9-.72,1.13-1.99.42-2.92-1.59-2.09-2.87-4.33-3.65-6.85-.89-6.51,3.75-14.36,12.64-15.51,2.47-.32,4.91.11,7.23,1.12.39.17.87.6,1.25-.01,1.9-3.01,4.74-4.79,7.92-6.15l2.55-.28c1.22,10.95,2.44,21.9,3.66,32.86.87,7.85,1.74,15.71,2.61,23.56.55,4.93,1.09,9.86,1.64,14.78-.02.09-.04.19-.06.28-.59,0-1.08.3-1.6.51-2.44.98-4.94,1.73-7.53,2.23-.69-.94-1.66-1.16-2.76-1.12-1.84.07-3.27-.72-4.43-2.13-.56-.68-.44-1.07.3-1.39,1.2-.52,2.19-1.31,3.02-2.31.87-1.06.89-2.41.06-3.19-.89-.84-2.22-.67-3.26.39-.99,1.02-2.14,1.63-3.6,1.8-1.57.18-2.86-.27-4.14-1.12-1.1-.73-2.36-.46-3.03.49-.76,1.07-.58,1.96.6,2.94.36.3.73.76,1.15.82,3.21.49,4.87,2.8,6.41,5.29-.5.62-1.23.5-1.85.46-4.15-.32-8.26-.88-12.2-2.33.07-1.46.73-2.73,1.3-4.01.7-1.56.46-2.6-.83-3.25-1.09-.55-2.25-.05-3.01,1.33-.75,1.38-1.21,2.87-1.65,4.37-2.34-1.02-4.54-2.29-6.77-3.53ZM63.54,53.1c-.68-6.3-5.88-10.79-12.29-10.59-1.43.04-2.43.99-2.41,2.28.02,1.23.94,1.99,2.4,2.02.38,0,.75.07,1.13.09,4.04.29,6.73,3.08,6.97,7.22.19,3.34-2.59,6.69-6.1,7.36-1.66.31-2.48,1.22-2.28,2.51.22,1.34,1.4,1.99,3.08,1.7,5.91-1.01,10.14-6.61,9.5-12.59ZM41.46,64.2c.19,1.77,1.02,2.7,2.36,2.61,1.29-.09,2.01-1.22,1.93-2.98-.02-.47-.01-.95.07-1.41.59-3.26,2.72-5.36,6.04-5.98,1.45-.27,2.34-1.16,2.3-2.29-.05-1.23-.99-1.95-2.58-2-4.46-.14-6.73-1.98-7.84-6.37-.09-.36-.21-.75-.42-1.05-.55-.77-1.26-1.35-2.29-1.01-1.04.34-1.67.99-1.57,2.22.28,3.38,1.81,6.13,4.5,8.06,1.24.89,1,1.3.21,2.19-2.02,2.27-2.91,4.96-2.7,8ZM57.48,21.67c-3.75.43-7.13,3.51-8,7.5-.23,1.03-.68,1.52-1.58,1.87-1.26.5-2.27,1.36-3.12,2.42-.99,1.24-.96,2.42.06,3.27.99.82,2.08.68,3.12-.46.42-.46.89-.86,1.43-1.16,2.13-1.19,4.15-.97,6.17.34,1.4.91,2.6.67,3.33-.53.63-1.04.17-2.23-1.08-3.11-.99-.7-2.05-1.21-3.22-1.47-.89-.19-.92-.61-.57-1.33.85-1.76,2.24-2.76,4.15-3.11,1.55-.29,2.29-1.19,2.09-2.51-.19-1.27-1.2-1.9-2.77-1.72Z"/>
      <path class="cls-7" d="M69.63,40.39c-1.22-10.95-2.44-21.9-3.66-32.86l4.82-.53c2.01.71,3.06,2.2,3.6,4.21.51,1.87,1.22,3.69,1.75,5.56.2.71.56.99,1.26,1.1,2.11.35,4.17.93,6.14,1.77.82.35,1.41.22,2.06-.34,1.69-1.45,3.42-2.86,5.16-4.26,1.82-1.47,3.6-1.53,5.46-.11,1.85,1.41,3.67,2.87,5.45,4.37,1.76,1.48,2.11,3.29,1.1,5.37-.98,2-1.97,4.01-3.04,5.96-.42.77-.4,1.34.09,2.07.84,1.25,1.56,2.59,2.33,3.9-.36.24-.41.58-.41.99-.01,4.97-.99,9.78-2.68,14.43-3.13,8.58-8.38,15.68-15.62,21.22-2.92,2.23-6.02,4.27-9.55,5.51-.55-4.93-1.09-9.86-1.64-14.78,6.54-.91,11.12-6.41,10.49-13-.7-7.24-7.28-11.49-13.09-10.56Z"/>
      <path class="cls-8" d="M73.87,78.73c3.53-1.24,6.63-3.28,9.55-5.51,7.24-5.54,12.48-12.64,15.62-21.22,1.7-4.64,2.67-9.46,2.68-14.43,0-.41.05-.75.41-.99.6,1.99,1.76,2.98,4.01,2.83,1.63-.11,3.29.28,4.94.47,2.47.28,3.7,1.44,4,3.85.29,2.36.56,4.72.78,7.09.2,2.15-.67,3.59-2.69,4.32-2.13.78-4.3,1.48-6.48,2.13-.91.27-1.41.65-1.58,1.68-.34,2.06-.94,4.07-1.77,5.99-.28.65-.21,1.12.26,1.66,1.49,1.73,2.93,3.49,4.36,5.27,1.6,1.98,1.61,3.69.05,5.67-1.41,1.79-2.84,3.58-4.28,5.34-1.51,1.84-3.18,2.21-5.32,1.16-2.05-1-4.09-2.02-6.1-3.1-.71-.38-1.23-.42-1.92.08-1.73,1.26-3.61,2.27-5.59,3.07-.72.29-1,.73-1.06,1.49-.18,2.27-.41,4.53-.65,6.79-.25,2.26-1.27,3.45-3.47,3.92-1.25.27-2.53.44-3.82.37-.67-5.89-1.33-11.78-2-17.67.02-.09.04-.19.06-.28Z"/>
      <path class="cls-1" d="M73.82,79.01c.67,5.89,1.33,11.78,2,17.67-4.21.54-7.88-.71-11.02-3.46-.81-.71-1.23-.73-2.1-.12-8.44,5.94-20.29,1.1-22.15-9.03-.07-.39-.18-.73-.43-1.03.91-.7.29-1.88.84-2.69,3.94,1.44,8.05,2.01,12.2,2.33.61.05,1.35.16,1.85-.46,1.71,1.4,3.58,2.57,5.84,2.69,2.84.15,4.44-.26,3.85-3.17,2.58-.5,5.09-1.25,7.53-2.23.52-.21,1.01-.51,1.6-.51Z"/>
      <path class="cls-6" d="M34.37,28.37c.78,2.52,2.06,4.76,3.65,6.85.71.93.47,2.2-.42,2.92-.92.74-2.1.68-2.92-.3-1.93-2.31-3.45-4.86-4.21-7.8,1.12-.97,2.66-.97,3.9-1.66Z"/>
      <path class="cls-6" d="M40.96,80.36c-.55.81.07,1.99-.84,2.69-1.28.05-2.55-.05-3.76-.51-.31-1.3.37-2.49.42-3.74.44-1.5.9-2.99,1.65-4.37.76-1.38,1.91-1.89,3.01-1.33,1.29.65,1.52,1.69.83,3.25-.57,1.29-1.24,2.56-1.3,4.01Z"/>
      <path class="cls-9" d="M36.78,78.79c-.05,1.26-.73,2.45-.42,3.74-3.48-1.24-5.66-3.6-6.34-7.28,2.22,1.24,4.43,2.52,6.77,3.53Z"/>
      <path class="cls-4" d="M69.63,40.39c5.81-.93,12.39,3.32,13.09,10.56.64,6.6-3.95,12.09-10.49,13-.87-7.85-1.74-15.71-2.61-23.56Z"/>
      <path class="cls-11" d="M63.54,53.1c.64,5.98-3.59,11.58-9.5,12.59-1.68.29-2.87-.37-3.08-1.7-.21-1.28.62-2.19,2.28-2.51,3.52-.66,6.3-4.01,6.1-7.36-.24-4.14-2.93-6.93-6.97-7.22-.38-.03-.75-.09-1.13-.09-1.47-.03-2.38-.79-2.4-2.02-.02-1.28.98-2.23,2.41-2.28,6.41-.2,11.62,4.29,12.29,10.59Z"/>
      <path class="cls-10" d="M41.46,64.2c-.21-3.04.69-5.72,2.7-8,.79-.89,1.02-1.3-.21-2.19-2.69-1.93-4.23-4.68-4.5-8.06-.1-1.23.53-1.88,1.57-2.22,1.03-.34,1.73.24,2.29,1.01.22.3.33.69.42,1.05,1.11,4.38,3.39,6.23,7.84,6.37,1.59.05,2.53.78,2.58,2,.05,1.13-.85,2.02-2.3,2.29-3.31.61-5.45,2.72-6.04,5.98-.08.46-.09.94-.07,1.41.08,1.77-.64,2.9-1.93,2.98-1.33.09-2.17-.84-2.36-2.61Z"/>
      <path class="cls-10" d="M57.48,21.67c1.57-.18,2.58.44,2.77,1.72.2,1.33-.53,2.23-2.09,2.51-1.9.35-3.3,1.35-4.15,3.11-.35.72-.32,1.14.57,1.33,1.17.25,2.23.76,3.22,1.47,1.24.88,1.7,2.08,1.08,3.11-.72,1.2-1.92,1.44-3.33.53-2.01-1.31-4.04-1.53-6.17-.34-.54.3-1,.7-1.43,1.16-1.04,1.13-2.13,1.27-3.12.46-1.02-.84-1.04-2.02-.06-3.27.84-1.06,1.86-1.92,3.12-2.42.9-.36,1.36-.84,1.58-1.87.87-3.99,4.25-7.07,8-7.5Z"/>
      <path class="cls-11" d="M64.69,81.75c.59,2.9-1.01,3.32-3.85,3.17-2.25-.12-4.12-1.28-5.84-2.69-1.53-2.49-3.19-4.81-6.41-5.29-.41-.06-.78-.52-1.15-.82-1.18-.98-1.36-1.87-.6-2.94.67-.95,1.93-1.22,3.03-.49,1.28.85,2.57,1.3,4.14,1.12,1.46-.17,2.61-.78,3.6-1.8,1.04-1.07,2.37-1.23,3.26-.39.83.78.81,2.14-.06,3.19-.83,1-1.82,1.79-3.02,2.31-.74.32-.87.71-.3,1.39,1.16,1.41,2.59,2.2,4.43,2.13,1.1-.04,2.07.18,2.76,1.12Z"/>
    </g>
  </g>
  <g id="Top_BGS" data-name="Top BGS">
    <path class="cls-5" d="M122.55,70.78c-.39,9.28-17.5,17.12-34.05,20.51-3.27.67-6.52,1.17-9.6,1.47-1.27.12-2.55.25-3.86.34-3.16.23-6.53.29-10.4-.2-1.02-.12-2.07-.29-3.16-.5-1.18-.22-2.93-.55-5.06-1.06-9.2-2.22-25.37-7.93-32.3-24.21-1.97-4.62-2.99-9.64-3.13-14.69C13.98,51.4,6.99,50.29,0,49.13v92.6h141.73V53.78c-9.46,1.72-18.87,2.9-28.23,3.6,3.78,7.05,9.26,8.07,9.04,13.39Z"/>
  </g>
  <g id="Texts">
    <g>
      <rect class="cls-3" x="0" y="87.41" width="141.73" height="54.32"/>
      <path class="cls-2" d="M41.22,108.7c1.86,0,3.1.7,3.71,1.14.34.26.35.58.13.93l-.29.46c-.22.37-.53.4-.91.16-.5-.32-1.39-.8-2.56-.8-2.48,0-3.81,1.81-3.81,3.91s1.38,4.07,3.83,4.07c1.28,0,2.26-.61,2.79-.99.35-.26.67-.26.93.11l.32.43c.24.32.22.66-.1.93-.64.51-2,1.41-4.02,1.41-3.57,0-5.87-2.58-5.87-5.92s2.42-5.83,5.86-5.83Z"/>
      <path class="cls-2" d="M50.83,111.9c2.48,0,4.5,1.78,4.5,4.27s-2.02,4.27-4.5,4.27-4.48-1.76-4.48-4.27,2-4.27,4.48-4.27ZM50.83,118.72c1.33,0,2.43-1.02,2.43-2.54s-1.1-2.54-2.43-2.54-2.42,1.04-2.42,2.54,1.09,2.54,2.42,2.54Z"/>
      <path class="cls-2" d="M58.34,121.58c.38.14.9.3,1.65.3,1.25,0,2.3-.53,2.3-1.98v-.61c0-.19.03-.42.03-.42h-.03c-.45.77-1.15,1.22-2.24,1.22-2.39,0-3.7-1.89-3.7-4.15s1.25-4.05,3.68-4.05c1.91,0,2.42,1.25,2.42,1.25h.03s-.02-.08-.02-.21v-.3c0-.3.22-.54.66-.54h.54c.43,0,.66.24.66.67v7c0,2.8-2.21,3.86-4.23,3.86-.91,0-1.83-.19-2.39-.43-.42-.18-.53-.45-.35-.86l.13-.37c.18-.4.42-.51.85-.37ZM62.34,116c0-1.87-.93-2.37-1.98-2.37-1.26,0-1.95.9-1.95,2.24,0,1.47.74,2.51,2.05,2.51.96,0,1.89-.56,1.89-2.39Z"/>
      <path class="cls-2" d="M66.34,112.76c0-.43.22-.67.66-.67h.62c.43,0,.66.24.66.67v.5c0,.18-.03.37-.03.37h.03c.35-.69,1.25-1.73,2.9-1.73,1.81,0,2.85.94,2.85,3.11v4.58c0,.45-.22.67-.67.67h-.69c-.43,0-.67-.22-.67-.67v-4.16c0-.99-.26-1.66-1.28-1.66-1.44,0-2.35,1.2-2.35,2.67v3.15c0,.45-.22.67-.66.67h-.7c-.43,0-.66-.22-.66-.67v-6.82Z"/>
      <path class="cls-2" d="M75.92,110.04v-.48c0-.43.22-.67.66-.67h.7c.43,0,.67.24.67.67v.48c0,.43-.24.66-.67.66h-.7c-.43,0-.66-.22-.66-.66ZM75.92,112.76c0-.43.22-.67.66-.67h.7c.43,0,.66.24.66.67v6.82c0,.45-.22.67-.66.67h-.7c-.43,0-.66-.22-.66-.67v-6.82Z"/>
      <path class="cls-2" d="M80.4,113.82h-.43c-.43,0-.66-.22-.66-.67v-.27c0-.43.22-.67.67-.67h.46v-1.66c0-.43.24-.67.67-.67h.64c.43,0,.67.24.67.67v1.66h1.18c.43,0,.67.24.67.67v.27c0,.45-.24.67-.66.67h-1.2v3.17c0,1.22.75,1.46,1.31,1.52.5.05.67.21.67.66v.5c0,.48-.27.67-.83.67-1.46,0-3.18-.78-3.18-2.99v-3.52Z"/>
      <path class="cls-2" d="M85.78,110.04v-.48c0-.43.22-.67.66-.67h.7c.43,0,.67.24.67.67v.48c0,.43-.24.66-.67.66h-.7c-.43,0-.66-.22-.66-.66ZM85.78,112.76c0-.43.22-.67.66-.67h.7c.43,0,.66.24.66.67v6.82c0,.45-.22.67-.66.67h-.7c-.43,0-.66-.22-.66-.67v-6.82Z"/>
      <path class="cls-2" d="M89.09,112.86c-.16-.46.03-.77.53-.77h.75c.38,0,.64.18.75.56l1.52,4.5c.16.48.3,1.23.3,1.23h.03s.13-.75.29-1.23l1.52-4.5c.11-.38.37-.56.75-.56h.75c.5,0,.7.3.54.77l-2.46,6.85c-.13.38-.37.54-.75.54h-1.28c-.38,0-.64-.16-.75-.54l-2.5-6.85Z"/>
      <path class="cls-2" d="M102.03,111.9c2.48,0,4.5,1.78,4.5,4.27s-2.02,4.27-4.5,4.27-4.48-1.76-4.48-4.27,2-4.27,4.48-4.27ZM102.03,118.72c1.33,0,2.43-1.02,2.43-2.54s-1.1-2.54-2.43-2.54-2.42,1.04-2.42,2.54,1.09,2.54,2.42,2.54Z"/>
    </g>
  </g>
</svg>