<?xml version="1.0" encoding="UTF-8"?>
<svg xmlns="http://www.w3.org/2000/svg" viewBox="0 0 141.73 141.73">
  <defs>
    <style>
      .cls-1 {
        fill: #fecc95;
      }

      .cls-2 {
        fill: #cd3e62;
      }

      .cls-3 {
        fill: #f1f2f2;
      }

      .cls-4 {
        fill: #f5dcce;
      }

      .cls-5 {
        fill: none;
      }

      .cls-6 {
        fill: #1f3a6e;
        stroke: #1f3a6e;
        stroke-miterlimit: 10;
        stroke-width: .5px;
      }

      .cls-7 {
        fill: #e6e7e8;
      }

      .cls-8 {
        fill: #e5b17e;
      }

      .cls-9 {
        fill: #eb5776;
      }
    </style>
  </defs>
  <g id="Bottom_BGS" data-name="Bottom BGS">
    <path class="cls-6" d="M31.9,38.68c2.44-3.82,5.1-7.52,7.73-11.15.83-1.14,1.67-2.29,2.53-3.42,3.98-5.26,8.45-10.23,14.42-12.82,12.91-5.6,27.54,1.77,39.3,9.51,5.16,3.4,10.32,6.98,14.63,11.37,1.3,1.33,2.53,2.73,3.66,4.23,1.92,2.55,3.35,5.41,4.35,8.49,1.53,4.71,2.01,9.92,1.62,15.22,6.52-.02,13.05-.2,19.6-.6.66-.11,1.32-.24,1.98-.37V0H0v52.64c8.04.26,16.09.73,24.13,1.3,1.91-5.32,4.66-10.38,7.77-15.26Z"/>
  </g>
  <g id="Elements">
    <g>
      <path class="cls-1" d="M85.13,40.22c.93-2.7,2.75-4.31,5.67-4.53,0,6.51.02,13.03-.04,19.54-.01,1.27.64,1.34,1.51,1.16,1.01-.22,1.85-.84,2.73-1.43.79,4.07,1.23,8.08,1.22,12.16-.01,4.43-1.36,8.32-3.9,11.9-1.15,1.61-2.43,2.32-4.55,2.29-11.59-.13-23.18-.06-34.78-.05-1.06-1.56-2.22-3.01-3.72-4.2-1.58-1.25-3.06-2.63-4.55-3.98-2.55-2.31-3.95-5.26-4.67-8.56-.18-4.12.33-8.22.63-12.31.3-4.03,2.84-6.74,6.51-8.36.45-.2.91-.38,1.37-.54q2-.67,2-2.72c0-1.35,0-2.69,0-4.04,0-3.48,2.21-5.72,5.67-5.75,0,2.47-.02,4.93.01,7.4.02,1.42-.61,3.27.25,4.16.93.96,2.81.18,4.26.33,1.17.12,1.42-.44,1.44-1.5.04-2.2-.19-4.37-.29-6.56.37-.91.13-1.93.57-2.84,1.09-2.26,2.81-3.47,5.36-3.4,0,4.76,0,9.53,0,14.29,0,.49-.05.98.19,1.45,2.23,4.51-1.96,8.94-5.97,8.59-3.17-.28-6.38-.08-9.57-.05-1.56.02-2.51.87-2.46,2.08.05,1.17.77,1.7,2.42,1.68,2.51-.02,5,.16,7.48.55,2.48.4,4.67,1.34,5.95,3.67.84,1.52,1.1,3.2,1.14,4.91.03,1.17-.04,2.34.02,3.5.06,1.06,1.23,2.21,2.07,2.16.91-.06,1.66-1.06,1.69-2.23.09-3.15,0-6.27-1.19-9.26-.23-.57-.21-.92.48-1.25,2.31-1.12,3.42-3.01,3.41-5.6-.02-5.39,0-10.78,0-16.18.73-1.36,1.38-2.79,2.85-3.58.88-.47,1.77-.86,2.8-.72,0,7.51,0,15.02,0,22.53,0,1.47.56,1.84,1.93,1.32,2.6-.98,3.99-2.99,4-5.79,0-3.42.01-6.83.02-10.25Z"/>
      <path class="cls-8" d="M73.52,36.71c0,5.39-.03,10.78,0,16.18,0,2.59-1.11,4.48-3.41,5.6-.69.33-.71.68-.48,1.25,1.2,2.98,1.28,6.11,1.19,9.26-.03,1.17-.78,2.18-1.69,2.23-.84.05-2.01-1.1-2.07-2.16-.07-1.16,0-2.34-.02-3.5-.04-1.71-.3-3.4-1.14-4.91-1.28-2.33-3.47-3.27-5.95-3.67-2.47-.4-4.97-.57-7.48-.55-1.65.01-2.38-.51-2.42-1.68-.05-1.21.9-2.06,2.46-2.08,3.19-.04,6.4-.23,9.57.05,4,.35,8.19-4.08,5.97-8.59-.23-.47-.19-.96-.19-1.45,0-4.76,0-9.53,0-14.29,2.88-.52,5.96,2.73,5.69,5.53-.09.93,0,1.87,0,2.81ZM65.65,55.03c.37.32.59.54.84.72.37.27.63,1,1.11.75.51-.26.18-.96.22-1.47.06-.63-.21-.79-.79-.51-.38.19-.8.3-1.38.5Z"/>
      <path class="cls-8" d="M53.58,83.43c-.2-.72-.4-1.45-.6-2.17,11.59,0,23.18-.07,34.78.05,2.12.02,3.4-.68,4.55-2.29,2.54-3.58,3.89-7.47,3.9-11.9.01-4.08-.42-8.1-1.22-12.16-.88.59-1.73,1.21-2.73,1.43-.86.19-1.52.12-1.51-1.16.06-6.51.04-13.03.04-19.54,3.15-.04,5.84,2.54,5.9,5.76.06,3.14-.01,6.28.02,9.43.01,1.29-.87,2.37-.58,3.78.67,3.27,1.12,6.59,1.66,9.88.09,1.47.2,2.94.26,4.42.24,5.82-1.58,10.92-5.45,15.28-.73-.94-1.7-1.11-2.85-1.11-11.35.04-22.71.02-34.06.02-.72,0-1.43.03-2.11.3Z"/>
      <path class="cls-8" d="M85.13,40.22c0,3.42,0,6.83-.02,10.25,0,2.8-1.4,4.81-4,5.79-1.37.52-1.93.15-1.93-1.32,0-7.51,0-15.02,0-22.53,1.87-.41,4.25,1.01,5.35,3.09.8,1.52.52,3.13.61,4.72Z"/>
      <path class="cls-8" d="M61.9,34.61c.1,2.18.33,4.36.29,6.56-.02,1.06-.27,1.63-1.44,1.5-1.45-.15-3.34.63-4.26-.33-.86-.89-.22-2.74-.25-4.16-.04-2.47-.01-4.93-.01-7.4,1.63-.35,3.93.86,4.93,2.58.24.42.5.83.74,1.25Z"/>
      <path class="cls-9" d="M89.69,100.83c-1.39.02-2.78.06-4.17.06-9.83,0-19.67,0-29.5,0-2.55,0-3.04-.5-3.04-3.06,0-3.91.02-7.81.02-11.72,11.36,0,22.72,0,34.08,0,1.9,0,2.6.71,2.61,2.59,0,4.04,0,8.08,0,12.12ZM60.07,89.31c-1.54,0-2.74,1.22-2.72,2.74.02,1.48,1.32,2.72,2.82,2.68,1.45-.04,2.63-1.25,2.64-2.71,0-1.53-1.19-2.72-2.74-2.71Z"/>
      <path class="cls-2" d="M89.69,100.83c0-4.04,0-8.08,0-12.12,0-1.89-.71-2.59-2.61-2.59-11.36,0-22.72,0-34.08,0-.11-.96-.1-1.89.58-2.68.68-.27,1.39-.3,2.11-.3,11.35,0,22.71.02,34.06-.02,1.15,0,2.12.17,2.85,1.11.02,4.88.07,9.76.05,14.64,0,1.55-1.03,2.17-2.96,1.96Z"/>
      <path class="cls-4" d="M65.65,55.03c.58-.21,1-.32,1.38-.5.58-.28.85-.12.79.51-.05.51.28,1.21-.22,1.47-.48.24-.74-.48-1.11-.75-.25-.18-.47-.4-.84-.72Z"/>
      <path class="cls-7" d="M60.07,89.31c1.55,0,2.75,1.18,2.74,2.71,0,1.46-1.19,2.67-2.64,2.71-1.49.04-2.79-1.2-2.82-2.68-.02-1.52,1.18-2.73,2.72-2.74Z"/>
    </g>
  </g>
  <g id="Top_BGS" data-name="Top BGS">
    <path class="cls-6" d="M139.75,59.5c-6.55.4-13.09.58-19.6.6-1.2,16.61-10.94,31.19-24.19,37.71-6.52,3.21-14.31,4.54-21.09,1.94-2.87-1.1-5.45-2.86-8.27-4.1-3.79-1.68-7.91-2.4-12.1-2.9-5.45-.66-11.01-.93-16.06-2.44-2.43-.72-4.75-1.73-6.88-3.2-7.97-5.49-10.97-13.18-9.89-22.79.4-3.58,1.27-7.03,2.47-10.38-8.05-.57-16.09-1.04-24.13-1.3v89.09h141.73V59.12c-.66.13-1.32.26-1.98.37Z"/>
  </g>
  <g id="Texts">
    <g>
      <rect class="cls-5" x="0" y="87.41" width="141.73" height="54.32"/>
      <path class="cls-3" d="M33.87,109.43c.13-.37.37-.54.75-.54h1.02c.38,0,.64.18.75.54l3.55,10.05c.16.46-.05.77-.54.77h-.74c-.38,0-.64-.18-.75-.54l-.8-2.37h-3.99l-.78,2.35c-.11.38-.37.56-.75.56h-.74c-.5,0-.71-.3-.54-.77l3.55-10.05ZM36.6,115.66l-1.01-3.04c-.19-.64-.45-1.76-.45-1.76h-.03s-.26,1.12-.45,1.76l-1.02,3.04h2.96Z"/>
      <path class="cls-3" d="M41.03,112.76c0-.43.24-.67.67-.67h.69c.45,0,.67.24.67.67v4.16c0,.99.26,1.67,1.26,1.67,1.47,0,2.29-1.3,2.29-2.75v-3.07c0-.43.22-.67.67-.67h.69c.43,0,.67.24.67.67v6.82c0,.45-.24.67-.67.67h-.62c-.43,0-.66-.22-.66-.67v-.48c0-.19.03-.37.03-.37h-.03c-.38.83-1.44,1.71-2.83,1.71-1.75,0-2.83-.88-2.83-3.1v-4.58Z"/>
      <path class="cls-3" d="M51.1,113.82h-.43c-.43,0-.66-.22-.66-.67v-.27c0-.43.22-.67.67-.67h.46v-1.66c0-.43.24-.67.67-.67h.64c.43,0,.67.24.67.67v1.66h1.18c.43,0,.67.24.67.67v.27c0,.45-.24.67-.66.67h-1.2v3.17c0,1.22.75,1.46,1.31,1.52.5.05.67.21.67.66v.5c0,.48-.27.67-.83.67-1.46,0-3.18-.78-3.18-2.99v-3.52Z"/>
      <path class="cls-3" d="M60.36,111.9c2.48,0,4.5,1.78,4.5,4.27s-2.02,4.27-4.5,4.27-4.48-1.76-4.48-4.27,2-4.27,4.48-4.27ZM60.36,118.72c1.33,0,2.43-1.02,2.43-2.54s-1.1-2.54-2.43-2.54-2.42,1.04-2.42,2.54,1.09,2.54,2.42,2.54Z"/>
      <path class="cls-3" d="M66.35,112.76c0-.43.22-.67.66-.67h.62c.43,0,.66.24.66.67v.5c0,.18-.03.37-.03.37h.03c.35-.69,1.25-1.73,2.9-1.73,1.81,0,2.85.94,2.85,3.11v4.58c0,.45-.22.67-.67.67h-.69c-.43,0-.67-.22-.67-.67v-4.16c0-.99-.26-1.66-1.28-1.66-1.44,0-2.35,1.2-2.35,2.67v3.15c0,.45-.22.67-.66.67h-.7c-.43,0-.66-.22-.66-.67v-6.82Z"/>
      <path class="cls-3" d="M79.9,111.9c2.48,0,4.5,1.78,4.5,4.27s-2.02,4.27-4.5,4.27-4.48-1.76-4.48-4.27,2-4.27,4.48-4.27ZM79.9,118.72c1.33,0,2.43-1.02,2.43-2.54s-1.1-2.54-2.43-2.54-2.42,1.04-2.42,2.54,1.09,2.54,2.42,2.54Z"/>
      <path class="cls-3" d="M85.88,112.76c0-.43.22-.67.66-.67h.62c.43,0,.66.24.66.67v.5c0,.18-.03.37-.03.37h.03c.4-.8,1.39-1.73,2.67-1.73s2.05.58,2.38,1.68h.03c.43-.85,1.5-1.68,2.79-1.68,1.7,0,2.67.96,2.67,3.11v4.58c0,.45-.24.67-.67.67h-.69c-.45,0-.67-.22-.67-.67v-4.19c0-.93-.18-1.63-1.12-1.63-1.38,0-2.08,1.41-2.08,2.83v2.99c0,.45-.22.67-.66.67h-.71c-.43,0-.67-.22-.67-.67v-4.19c0-.88-.13-1.63-1.09-1.63-1.44,0-2.11,1.47-2.11,2.83v2.99c0,.45-.22.67-.66.67h-.7c-.43,0-.66-.22-.66-.67v-6.82Z"/>
      <path class="cls-3" d="M100.25,110.04v-.48c0-.43.22-.67.66-.67h.7c.43,0,.67.24.67.67v.48c0,.43-.24.66-.67.66h-.7c-.43,0-.66-.22-.66-.66ZM100.25,112.76c0-.43.22-.67.66-.67h.7c.43,0,.66.24.66.67v6.82c0,.45-.22.67-.66.67h-.7c-.43,0-.66-.22-.66-.67v-6.82Z"/>
      <path class="cls-3" d="M108.43,115.21h.34v-.19c0-1.07-.69-1.44-1.52-1.44-.69,0-1.31.26-1.7.46-.4.18-.7.11-.9-.27l-.16-.3c-.19-.37-.13-.69.26-.9.53-.27,1.46-.67,2.67-.67,2.11,0,3.38,1.18,3.38,3.25v4.43c0,.45-.22.67-.67.67h-.54c-.43,0-.66-.22-.66-.67v-.32c0-.22.03-.35.03-.35h-.03s-.77,1.54-2.56,1.54c-1.49,0-2.71-.96-2.71-2.45,0-2.39,2.95-2.79,4.77-2.79ZM106.91,118.89c1.14,0,1.87-1.15,1.87-2.15v-.3h-.34c-1.02,0-2.77.16-2.77,1.38,0,.54.42,1.07,1.23,1.07Z"/>
    </g>
  </g>
</svg>