<?xml version="1.0" encoding="UTF-8"?>
<svg xmlns="http://www.w3.org/2000/svg" viewBox="0 0 141.73 141.73">
  <defs>
    <style>
      .cls-1 {
        fill: #fecc95;
      }

      .cls-2 {
        fill: #f1f2f2;
      }

      .cls-3 {
        fill: none;
      }

      .cls-4 {
        fill: #f15b5c;
      }

      .cls-5 {
        fill: #e5b17e;
      }

      .cls-6 {
        fill: #fcb44a;
        stroke: #fcb44a;
        stroke-miterlimit: 10;
        stroke-width: .5px;
      }

      .cls-7 {
        fill: #234c89;
      }
    </style>
  </defs>
  <g id="Bottom_BGS" data-name="Bottom BGS">
    <path class="cls-6" d="M16.1,58.25c.09-.76.23-1.53.44-2.28.2-.75.46-1.49.77-2.23,3.4-7.87,12.21-11.62,18.52-17.43,3.6-3.31,6.43-7.36,9.84-10.85,1.84-1.88,3.85-3.55,6.01-5.01l.38-.25c.66-.44,1.33-.86,2.02-1.26h0c.58-.34,1.16-.66,1.76-.96.1-.06.2-.12.31-.17.84-.43,1.69-.83,2.56-1.2.39-.17.79-.33,1.19-.48,5.08-2.01,10.57-3.08,16.07-3.21.49-.02.99-.02,1.47-.01,0,0,0,0,.01,0,.07,0,.13,0,.2,0,.13,0,.28,0,.41,0,.17,0,.33,0,.5.02.42,0,.85.03,1.27.05.95.05,1.9.13,2.84.24.53.06,1.06.14,1.59.22,1.31.19,2.6.45,3.89.75,1.27.3,2.53.65,3.76,1.05,1.6.53,3.17,1.14,4.7,1.85.56.26,1.12.53,1.66.81.57.29,1.13.6,1.68.91,1.49.85,2.92,1.81,4.29,2.84,1.09.83,2.14,1.71,3.14,2.66.14.13.29.28.43.41,8.44,8.22,13.22,19.47,16.69,30.73.29.94.51,1.86.7,2.76,5.54-.92,11.05-1.98,16.53-3.19V0H0v57.59c5.31.82,10.64,1.56,16,2.2.02-.51.04-1.03.11-1.54Z"/>
  </g>
  <g id="Elements">
    <g>
      <path class="cls-5" d="M62.49,94.37c-1.27-.9-1.05-2.17-.89-3.44,6.01,0,12.03.04,18.04,0,2.88-.02,4.77-2.33,4.59-4.66-.05-.71-.04-1.43,0-2.14.11-2.09.68-4.02,1.98-5.7,2.99-3.85,4.61-8.16,4.53-13.09-.07-4.02-.02-8.04,0-12.06,0-.91.07-1.82.2-2.71.44-3.03,1.63-5.77,3.24-8.36.88-1.42,1.71-2.89,2.54-4.34.77-1.33.68-2.77.52-4.22,3.98-.14,6.62,4.05,4.72,7.59-1.55,2.88-3.23,5.69-4.89,8.51-.71,1.21-1.06,2.47-1.05,3.89.03,5.1.03,10.2,0,15.3-.02,4.99-1.63,9.42-4.85,13.25-1.11,1.32-1.7,2.79-1.66,4.53.04,1.85-.03,3.7.02,5.55.03.92-.26,1.6-1.03,2.08h-26.01Z"/>
      <path class="cls-4" d="M27.07,51.42c.68-.9,1.13-1.95,1.84-2.84,1.1-1.4,2.35-2.62,3.78-3.68.73-.54,1.49-.48,1.97.13.48.62.36,1.37-.37,1.92-1.94,1.46-3.51,3.21-4.65,5.37-.6,1.14-1.6,1.09-2.56-.05v-.86Z"/>
      <path class="cls-1" d="M97.24,33.67c.16,1.45.24,2.89-.52,4.22-.84,1.45-1.66,2.91-2.54,4.34-1.61,2.59-2.81,5.33-3.24,8.36-.13.9-.19,1.81-.2,2.71-.02,4.02-.06,8.04,0,12.06.08,4.93-1.54,9.24-4.53,13.09-1.3,1.68-1.87,3.61-1.98,5.7-.04.71-.05,1.43,0,2.14.18,2.33-1.71,4.65-4.59,4.66-6.01.03-12.03,0-18.04,0-.05-1.62.07-3.24-.09-4.87-.17-1.77-.95-3.21-2.25-4.37-4.35-3.86-8.45-7.98-12.55-12.1-2.47-2.49-4.96-4.96-7.44-7.44-2.31-2.32-2.2-5.16.29-7.27,3.22-2.73,7.96-2.49,11.1.58,1.98,1.93,3.91,3.91,5.87,5.86.24.24.44.54.82.56.33.83,1.11,1.27,1.67,1.9,1.36,1.54,3.13,1.77,5,1.39,1.2-.24,2.39-.4,3.62-.42,5.01-.07,9.66,3.4,11.3,8.12.84,2.43.89,4.89.2,7.37-.24.86.09,1.44.86,1.68.75.24,1.37-.08,1.62-.93.23-.79.46-1.59.52-2.4.38-5.26-1.18-9.76-5.38-13.14-3.88-3.13-8.26-4.04-13.1-2.82-1.1.28-2.12.14-2.98-.76-1.24-1.29-2.55-2.52-3.84-3.77-1-3.7-2.01-7.4-3-11.1-1.53-5.71-3.08-11.42-4.57-17.15-.72-2.77.85-5.41,3.57-6.2,2.59-.75,5.47.71,6.25,3.39,1.32,4.56,2.5,9.16,3.73,13.75.42,1.57.82,3.14,1.26,4.7.09.32.07.85.59.8.62-.07.37-.62.38-.96.01-7.04,0-14.09.02-21.13,0-3.12,2.28-5.34,5.36-5.29,2.6.04,4.86,2.24,4.89,4.87.04,3.85.02,7.7.02,11.55,0,3.28,0,6.56,0,9.84,0,.23,0,.46.01.68.02.28.14.51.45.54.28.03.39-.21.46-.43.25-.85.49-1.69.72-2.55,1.4-5.25,2.79-10.5,4.19-15.75.97-3.63,4.55-5.26,7.67-3.51,1.88,1.05,2.96,3.39,2.44,5.47-.71,2.83-1.5,5.65-2.25,8.47-.5.27-.58.82-.83,1.25-1.7,2.92-3.39,5.85-5.05,8.79-.52.92-.36,1.45.41,1.86.77.41,1.39.19,1.89-.67.61-1.06,1.26-2.09,1.83-3.17.26-.49.7-.91.71-1.52.86-.9,1.31-2.05,1.94-3.1,1-1.66,1.93-3.36,2.9-5.04.98-1.7,2.45-2.65,4.42-2.81Z"/>
      <path class="cls-5" d="M56.85,58.09c1.28,1.25,2.59,2.48,3.84,3.77.86.9,1.88,1.03,2.98.76,4.84-1.22,9.22-.3,13.1,2.82,4.2,3.38,5.76,7.88,5.38,13.14-.06.81-.29,1.62-.52,2.4-.25.85-.87,1.17-1.62.93-.76-.24-1.09-.83-.86-1.68.69-2.48.64-4.93-.2-7.37-1.63-4.72-6.29-8.2-11.3-8.12-1.23.02-2.42.18-3.62.42-1.87.38-3.64.15-5-1.39-.56-.63-1.34-1.06-1.67-1.9.36-.17.34-.43.24-.78-.28-1-.51-2.01-.76-3.02Z"/>
      <path class="cls-4" d="M30.98,57.91c.2-3.07,1.47-5.64,3.74-7.7,2.76-2.51,6.03-3.81,9.76-3.91.99-.03,1.58.46,1.6,1.26.02.81-.5,1.3-1.52,1.34-2.63.1-5.03.87-7.14,2.46-2.36,1.77-3.76,4.07-3.85,7.08-.03.91-.57,1.48-1.32,1.48-.79,0-1.29-.63-1.28-1.59,0-.14.01-.28.02-.43Z"/>
      <path class="cls-7" d="M42.38,28.71c0-5.28,3.5-10,8.43-11.47.95-.28,1.66-.02,1.92.72.28.79-.12,1.44-1.11,1.79-4.96,1.74-7.36,5.95-6.33,11.08.18.88-.19,1.58-.92,1.75-.76.18-1.35-.25-1.62-1.13-.28-.94-.3-1.91-.38-2.74Z"/>
      <path class="cls-4" d="M109.26,38.9c0,1.99-.49,3.84-1.43,5.57-.47.87-1.17,1.14-1.89.77-.71-.38-.86-1.09-.42-1.99,2.29-4.71,1.04-9.34-3.33-12.32-.82-.56-1.03-1.27-.58-1.94.44-.65,1.21-.76,2.03-.23,3.67,2.39,5.51,5.79,5.61,10.15Z"/>
      <path class="cls-4" d="M114.66,38.81c-.06,2.97-.71,5.73-2.13,8.3-.5.91-1.21,1.21-1.93.82-.71-.39-.84-1.14-.35-2.07,2.14-4.1,2.35-8.3.69-12.61-.36-.93-.14-1.66.57-1.96.77-.33,1.44.03,1.85,1,.88,2.1,1.26,4.3,1.31,6.52Z"/>
      <path class="cls-7" d="M98.09,27.91c.03,1.05-.43,1.67-1.24,1.7-.77.02-1.24-.54-1.35-1.54-.45-4.13-2.6-6.94-6.55-8.31-.08-.03-.16-.05-.24-.08-.81-.32-1.17-.95-.93-1.65.25-.74.87-1.03,1.71-.83,4.61,1.11,8.49,5.94,8.61,10.72Z"/>
      <path class="cls-4" d="M69.52,12.19c.14,0,.28-.02.43-.02.97-.03,1.59.45,1.61,1.25.02.79-.56,1.31-1.53,1.36-3.86.2-6.59,2.06-8.24,5.55-.44.93-1.15,1.28-1.9.91-.7-.34-.9-1.07-.47-1.99,2-4.3,5.41-6.6,10.1-7.06Z"/>
      <path class="cls-4" d="M69.43,6.76c.31,0,.45,0,.6,0,.91,0,1.5.49,1.53,1.25.03.76-.53,1.31-1.43,1.34-2.48.09-4.83.65-7.01,1.87-.35.19-.67.42-1.02.61-.75.4-1.46.23-1.85-.42-.36-.61-.19-1.33.47-1.78,2.16-1.44,4.53-2.34,7.1-2.7.59-.08,1.19-.13,1.61-.17Z"/>
      <path class="cls-5" d="M87.98,44.61c0,.61-.45,1.03-.71,1.52-.56,1.08-1.21,2.12-1.83,3.17-.5.86-1.12,1.08-1.89.67-.77-.41-.93-.94-.41-1.86,1.66-2.94,3.35-5.87,5.05-8.79.25-.43.33-.99.83-1.25-.48,1.86-.95,3.73-1.44,5.58-.12.44-.28.86.39.95Z"/>
    </g>
  </g>
  <g id="Top_BGS" data-name="Top BGS">
    <path class="cls-6" d="M125.2,58.21c3.65,17.57-11.58,27.97-28.85,28.36-.34,0-.68.01-1.02.01-8.27,0-16.65-1.52-24.78-.64-1.61.17-3.21.44-4.8.83-.67.16-1.35.36-2.02.57-.01,0-.02,0-.03,0-1.7.52-3.37,1.14-5.04,1.76-.8.3-1.61.6-2.41.88-3.33,1.18-6.68,2.15-10.19,2.1-7.43-.12-14-4.83-19.24-10.08-1.2-1.21-2.37-2.51-3.47-3.87-1.23-1.52-2.36-3.15-3.36-4.82-2.54-4.27-4.15-8.94-3.99-13.53-5.35-.64-10.69-1.37-16-2.2v84.14h141.73V55.02c-5.48,1.21-10.99,2.27-16.53,3.19Z"/>
  </g>
  <g id="Texts">
    <g>
      <rect class="cls-3" x="0" y="87.41" width="141.73" height="54.32"/>
      <path class="cls-2" d="M55.55,110.67h-3.06c-.45,0-.67-.22-.67-.66v-.45c0-.43.22-.67.67-.67h8.16c.43,0,.66.24.66.67v.45c0,.43-.22.66-.66.66h-3.06v8.92c0,.45-.22.67-.67.67h-.72c-.43,0-.66-.22-.66-.67v-8.92Z"/>
      <path class="cls-2" d="M65.34,115.21h.34v-.19c0-1.07-.69-1.44-1.52-1.44-.69,0-1.31.26-1.7.46-.4.18-.7.11-.9-.27l-.16-.3c-.19-.37-.13-.69.26-.9.53-.27,1.46-.67,2.67-.67,2.11,0,3.38,1.18,3.38,3.25v4.43c0,.45-.22.67-.67.67h-.54c-.43,0-.66-.22-.66-.67v-.32c0-.22.03-.35.03-.35h-.03s-.77,1.54-2.56,1.54c-1.49,0-2.71-.96-2.71-2.45,0-2.39,2.95-2.79,4.77-2.79ZM63.82,118.89c1.14,0,1.87-1.15,1.87-2.15v-.3h-.34c-1.02,0-2.77.16-2.77,1.38,0,.54.42,1.07,1.23,1.07Z"/>
      <path class="cls-2" d="M69.95,113.82h-.43c-.43,0-.66-.22-.66-.67v-.27c0-.43.22-.67.67-.67h.46v-1.66c0-.43.24-.67.67-.67h.64c.43,0,.67.24.67.67v1.66h1.18c.43,0,.67.24.67.67v.27c0,.45-.24.67-.66.67h-1.2v3.17c0,1.22.75,1.46,1.31,1.52.5.05.67.21.67.66v.5c0,.48-.27.67-.83.67-1.46,0-3.18-.78-3.18-2.99v-3.52Z"/>
      <path class="cls-2" d="M75.77,113.82h-.43c-.43,0-.66-.22-.66-.67v-.27c0-.43.22-.67.67-.67h.46v-1.66c0-.43.24-.67.67-.67h.64c.43,0,.67.24.67.67v1.66h1.18c.43,0,.67.24.67.67v.27c0,.45-.24.67-.66.67h-1.2v3.17c0,1.22.75,1.46,1.31,1.52.5.05.67.21.67.66v.5c0,.48-.27.67-.83.67-1.46,0-3.18-.78-3.18-2.99v-3.52Z"/>
      <path class="cls-2" d="M85.04,111.9c2.48,0,4.5,1.78,4.5,4.27s-2.02,4.27-4.5,4.27-4.48-1.76-4.48-4.27,2-4.27,4.48-4.27ZM85.04,118.72c1.33,0,2.43-1.02,2.43-2.54s-1.1-2.54-2.43-2.54-2.42,1.04-2.42,2.54,1.09,2.54,2.42,2.54Z"/>
    </g>
  </g>
</svg>