<?xml version="1.0" encoding="UTF-8"?>
<svg xmlns="http://www.w3.org/2000/svg" viewBox="0 0 141.73 141.73">
  <defs>
    <style>
      .cls-1 {
        fill: #f1f2f2;
      }

      .cls-2 {
        fill: none;
      }

      .cls-3 {
        fill: #f15b5c;
      }

      .cls-4 {
        fill: #ec724a;
        stroke: #ec724a;
        stroke-miterlimit: 10;
        stroke-width: .5px;
      }

      .cls-5 {
        fill: #234c89;
      }
    </style>
  </defs>
  <g id="Bottom_BGS" data-name="Bottom BGS">
    <path class="cls-4" d="M21.18,38.6c.47-18.96,18.13-24.44,34.47-19.35.31.1.61.19.92.3,7.38,2.49,14.42,6.35,21.94,8,1.49.33,3,.57,4.54.69.65.05,1.31.08,1.97.1.01,0,.02,0,.03,0,1.67.04,3.35-.01,5.03-.06.81-.03,1.62-.05,2.42-.07,3.33-.06,6.61.08,9.73,1.18,6.6,2.33,11.05,8.51,14.17,14.77.71,1.44,1.37,2.95,1.94,4.5.64,1.73,1.17,3.52,1.56,5.31.52,2.43.77,4.88.67,7.25,7.07-.63,14.12-1.29,21.17-1.89V0H0v58.14c7.81,1.93,15.67,3.36,23.57,4.39-2.16-7.67-2.59-15.9-2.39-23.92Z"/>
  </g>
  <g id="Elements">
    <g>
      <rect class="cls-5" x="34.82" y="14.97" width="72.09" height="51.03"/>
      <polygon class="cls-3" points="126.97 106.49 14.77 106.49 34.46 68.9 107.27 68.9 126.97 106.49"/>
    </g>
  </g>
  <g id="Top_BGS" data-name="Top BGS">
    <path class="cls-4" d="M120.57,61.22c-.11,2.6-.63,5.1-1.72,7.38-.31.66-.67,1.29-1.08,1.9-.4.61-.86,1.19-1.36,1.76-5.39,6.01-14.39,6.72-21.76,10.02-4.2,1.88-7.95,4.65-12.04,6.74-2.2,1.13-4.5,2.02-6.87,2.67l-.41.11c-.72.2-1.45.37-2.18.52h0c-.62.13-1.23.24-1.86.33-.11.03-.22.04-.33.05-.88.13-1.76.23-2.65.31-.4.03-.8.06-1.21.08-5.14.27-10.36-.41-15.32-1.95-.44-.13-.89-.28-1.32-.43,0,0,0,0-.01,0-.06-.01-.12-.04-.18-.06-.12-.04-.25-.08-.36-.12-.15-.05-.3-.1-.44-.16-.38-.13-.75-.28-1.12-.43-.83-.33-1.66-.69-2.47-1.06-.46-.21-.91-.44-1.36-.67-1.11-.56-2.19-1.18-3.25-1.83-1.05-.64-2.06-1.33-3.05-2.07-1.27-.95-2.49-1.97-3.64-3.06-.42-.4-.84-.81-1.24-1.23-.42-.43-.83-.87-1.23-1.32-1.08-1.21-2.07-2.49-2.98-3.83-.72-1.07-1.39-2.17-2-3.32-.09-.16-.18-.33-.26-.5-1.4-2.73-2.48-5.59-3.3-8.52C15.67,61.5,7.81,60.07,0,58.14v83.59h141.73V59.33c-7.04.6-14.1,1.25-21.17,1.89Z"/>
  </g>
  <g id="Texts">
    <g>
      <rect class="cls-2" x="0" y="87.41" width="141.73" height="54.32"/>
      <path class="cls-1" d="M32.95,102.06c0-.43.22-.67.66-.67h3.71c2.13,0,3.62,1.49,3.62,3.7s-1.49,3.75-3.62,3.75h-2.32v3.25c0,.45-.22.67-.66.67h-.74c-.43,0-.66-.22-.66-.67v-10.02ZM36.93,107.04c1.22,0,1.91-.77,1.91-1.95s-.69-1.92-1.87-1.92h-1.97v3.87h1.94Z"/>
      <path class="cls-1" d="M42.23,105.26c0-.43.22-.67.66-.67h.62c.43,0,.67.24.67.67v.77c0,.3-.05.56-.05.56h.03c.32-.98,1.22-2.06,2.37-2.06.45,0,.61.22.61.67v.62c0,.43-.26.67-.69.67-1.49,0-2.21,1.47-2.21,2.96v2.62c0,.45-.22.67-.66.67h-.7c-.43,0-.66-.22-.66-.67v-6.82Z"/>
      <path class="cls-1" d="M51.89,104.4c2.48,0,4.5,1.78,4.5,4.27s-2.02,4.27-4.5,4.27-4.48-1.76-4.48-4.27,2-4.27,4.48-4.27ZM51.89,111.22c1.33,0,2.43-1.02,2.43-2.54s-1.1-2.54-2.43-2.54-2.42,1.04-2.42,2.54,1.09,2.54,2.42,2.54Z"/>
      <path class="cls-1" d="M57.87,102.54v-.48c0-.43.22-.67.66-.67h.7c.43,0,.67.24.67.67v.48c0,.43-.24.66-.67.66h-.7c-.43,0-.66-.22-.66-.66ZM57.87,105.26c0-.43.22-.67.66-.67h.7c.43,0,.66.24.66.67v6.82c0,.45-.22.67-.66.67h-.7c-.43,0-.66-.22-.66-.67v-6.82Z"/>
      <path class="cls-1" d="M65.56,104.4c2.32,0,3.62,1.65,3.62,3.89,0,.35-.3.69-.7.69h-4.98c.13,1.47,1.22,2.24,2.45,2.24.75,0,1.38-.29,1.76-.53.4-.19.69-.14.9.22l.19.32c.19.37.13.69-.22.9-.53.34-1.49.82-2.77.82-2.71,0-4.39-1.95-4.39-4.27,0-2.51,1.7-4.27,4.15-4.27ZM67.16,107.74c-.03-1.14-.72-1.81-1.65-1.81-1.04,0-1.78.72-1.97,1.81h3.62Z"/>
      <path class="cls-1" d="M70.08,112.05c0-.34.08-.5.29-.75l3.38-4.23c.38-.46.69-.75.69-.75v-.03s-.22.03-.75.03h-2.77c-.45,0-.67-.24-.67-.67v-.38c0-.43.22-.67.67-.67h5.6c.43,0,.67.19.67.54v.16c0,.34-.08.5-.29.75l-3.38,4.24c-.37.46-.7.75-.7.75v.03s.24-.05.77-.05h3.04c.45,0,.67.24.67.67v.38c0,.45-.22.67-.67.67h-5.88c-.43,0-.67-.19-.67-.54v-.16Z"/>
      <path class="cls-1" d="M78.8,102.54v-.48c0-.43.22-.67.66-.67h.7c.43,0,.67.24.67.67v.48c0,.43-.24.66-.67.66h-.7c-.43,0-.66-.22-.66-.66ZM78.8,105.26c0-.43.22-.67.66-.67h.7c.43,0,.66.24.66.67v6.82c0,.45-.22.67-.66.67h-.7c-.43,0-.66-.22-.66-.67v-6.82Z"/>
      <path class="cls-1" d="M86.8,104.4c2.48,0,4.5,1.78,4.5,4.27s-2.02,4.27-4.5,4.27-4.48-1.76-4.48-4.27,2-4.27,4.48-4.27ZM86.8,111.22c1.33,0,2.43-1.02,2.43-2.54s-1.1-2.54-2.43-2.54-2.42,1.04-2.42,2.54,1.09,2.54,2.42,2.54Z"/>
      <path class="cls-1" d="M92.79,105.26c0-.43.22-.67.66-.67h.62c.43,0,.66.24.66.67v.5c0,.18-.03.37-.03.37h.03c.35-.69,1.25-1.73,2.9-1.73,1.81,0,2.85.94,2.85,3.11v4.58c0,.45-.22.67-.67.67h-.69c-.43,0-.67-.22-.67-.67v-4.16c0-.99-.26-1.66-1.28-1.66-1.44,0-2.35,1.2-2.35,2.67v3.15c0,.45-.22.67-.66.67h-.7c-.43,0-.66-.22-.66-.67v-6.82Z"/>
      <path class="cls-1" d="M106.02,104.4c2.32,0,3.62,1.65,3.62,3.89,0,.35-.3.69-.7.69h-4.98c.13,1.47,1.22,2.24,2.45,2.24.75,0,1.38-.29,1.76-.53.4-.19.69-.14.9.22l.19.32c.19.37.13.69-.22.9-.53.34-1.49.82-2.77.82-2.71,0-4.39-1.95-4.39-4.27,0-2.51,1.7-4.27,4.15-4.27ZM107.62,107.74c-.03-1.14-.72-1.81-1.65-1.81-1.04,0-1.78.72-1.97,1.81h3.62Z"/>
      <path class="cls-1" d="M43.31,121.32h-.4c-.43,0-.66-.22-.66-.67v-.27c0-.43.22-.67.66-.67h.4v-.38c0-2.59,2.29-2.99,3.12-2.99h.24c.43,0,.66.22.66.67v.42c0,.43-.24.62-.69.66-.5.03-1.3.14-1.3,1.33v.3h1.09c.43,0,.66.24.66.67v.27c0,.45-.22.67-.66.67h-1.09v5.76c0,.45-.24.67-.67.67h-.7c-.43,0-.66-.22-.66-.67v-5.76Z"/>
      <path class="cls-1" d="M48.29,120.26c0-.43.22-.67.66-.67h.62c.43,0,.67.24.67.67v.77c0,.3-.05.56-.05.56h.03c.32-.98,1.22-2.06,2.37-2.06.45,0,.61.22.61.67v.62c0,.43-.26.67-.69.67-1.49,0-2.21,1.47-2.21,2.96v2.62c0,.45-.22.67-.66.67h-.7c-.43,0-.66-.22-.66-.67v-6.82Z"/>
      <path class="cls-1" d="M57.96,119.4c2.48,0,4.5,1.78,4.5,4.27s-2.02,4.27-4.5,4.27-4.48-1.76-4.48-4.27,2-4.27,4.48-4.27ZM57.96,126.22c1.33,0,2.43-1.02,2.43-2.54s-1.1-2.54-2.43-2.54-2.42,1.04-2.42,2.54,1.09,2.54,2.42,2.54Z"/>
      <path class="cls-1" d="M63.94,120.26c0-.43.22-.67.66-.67h.62c.43,0,.66.24.66.67v.5c0,.18-.03.37-.03.37h.03c.35-.69,1.25-1.73,2.9-1.73,1.81,0,2.85.94,2.85,3.11v4.58c0,.45-.22.67-.67.67h-.69c-.43,0-.67-.22-.67-.67v-4.16c0-.99-.26-1.66-1.28-1.66-1.44,0-2.35,1.2-2.35,2.67v3.15c0,.45-.22.67-.66.67h-.7c-.43,0-.66-.22-.66-.67v-6.82Z"/>
      <path class="cls-1" d="M73.89,121.32h-.43c-.43,0-.66-.22-.66-.67v-.27c0-.43.22-.67.67-.67h.46v-1.66c0-.43.24-.67.67-.67h.64c.43,0,.67.24.67.67v1.66h1.18c.43,0,.67.24.67.67v.27c0,.45-.24.67-.66.67h-1.2v3.17c0,1.22.75,1.46,1.31,1.52.5.05.67.21.67.66v.5c0,.48-.27.67-.83.67-1.46,0-3.18-.78-3.18-2.99v-3.52Z"/>
      <path class="cls-1" d="M83.41,122.71h.34v-.19c0-1.07-.69-1.44-1.52-1.44-.69,0-1.31.26-1.7.46-.4.18-.7.11-.9-.27l-.16-.3c-.19-.37-.13-.69.26-.9.53-.27,1.46-.67,2.67-.67,2.11,0,3.38,1.18,3.38,3.25v4.43c0,.45-.22.67-.67.67h-.54c-.43,0-.66-.22-.66-.67v-.32c0-.22.03-.35.03-.35h-.03s-.77,1.54-2.56,1.54c-1.49,0-2.71-.96-2.71-2.45,0-2.39,2.95-2.79,4.77-2.79ZM81.89,126.39c1.14,0,1.87-1.15,1.87-2.15v-.3h-.34c-1.02,0-2.77.16-2.77,1.38,0,.54.42,1.07,1.23,1.07Z"/>
      <path class="cls-1" d="M87.65,117.06c0-.43.22-.67.66-.67h.7c.43,0,.66.24.66.67v7.99c0,.8.34.94.64.98.29.03.5.21.5.58v.54c0,.42-.19.69-.67.69-1.09,0-2.48-.29-2.48-2.62v-8.15Z"/>
      <path class="cls-1" d="M95.78,119.4c2.32,0,3.62,1.65,3.62,3.89,0,.35-.3.69-.7.69h-4.98c.13,1.47,1.22,2.24,2.45,2.24.75,0,1.38-.29,1.76-.53.4-.19.69-.14.9.22l.19.32c.19.37.13.69-.22.9-.53.34-1.49.82-2.77.82-2.71,0-4.39-1.95-4.39-4.27,0-2.51,1.7-4.27,4.15-4.27ZM97.38,122.74c-.03-1.14-.72-1.81-1.65-1.81-1.04,0-1.78.72-1.97,1.81h3.62Z"/>
    </g>
  </g>
</svg>