<?xml version="1.0" encoding="UTF-8"?>
<svg xmlns="http://www.w3.org/2000/svg" viewBox="0 0 141.73 141.73">
  <defs>
    <style>
      .cls-1 {
        fill: #fecc95;
      }

      .cls-2 {
        fill: #f1f2f2;
      }

      .cls-3 {
        fill: #fff;
      }

      .cls-4, .cls-5 {
        fill: none;
      }

      .cls-5 {
        stroke: #e6e7e8;
        stroke-linecap: round;
        stroke-width: 1.5px;
      }

      .cls-5, .cls-6 {
        stroke-miterlimit: 10;
      }

      .cls-6 {
        fill: #55b6cf;
        stroke: #55b6cf;
        stroke-width: .5px;
      }

      .cls-7 {
        fill: #f15b5c;
      }

      .cls-8 {
        fill: #e6e7e8;
      }

      .cls-9 {
        fill: #234c89;
      }
    </style>
  </defs>
  <g id="Bottom_BGS" data-name="Bottom BGS">
    <path class="cls-6" d="M0,0v50.76c6.01-.19,12.01-.28,17.99-.29-.26-11.19,3.72-22.5,11.64-30.19,10.18-9.86,23.02-9.73,38.52-10.3,6.2-.22,38.01-1.39,44.64,13.38,4,8.91-4.73,15.61-.18,28.77.5,1.45,1.07,2.71,1.68,3.82,9.13.87,18.27,1.78,27.43,2.7V0H0Z"/>
  </g>
  <g id="Elements">
    <g>
      <g>
        <circle class="cls-8" cx="91.93" cy="29.33" r="22.31"/>
        <circle class="cls-7" cx="91.66" cy="29.5" r="18.06"/>
        <g>
          <path class="cls-1" d="M32.54,76.81c2.34-9.81,3.69-19.94,9.08-27.96,3.65-5.43,9.58-1.01,9.58-1.01,0,0,2.1-3.38,5.15-2.54,3.05.84,3.95,3.14,3.95,3.14,5.76-4.19,9.15,1.93,9.15,1.93l1.24-2.11c.1-.17.37-.7.91-1.62,1.76-3.24,2.96-5.19,4.81-8.39.82-1.43,1.84-2.78,2.98-3.98,1.69-1.79,4.45-2.03,6.59-.79,2.15,1.25,3.19,3.53,2.45,5.99-.46,1.53-1.2,3-2.02,4.38-4.06,6.8-8.19,13.55-12.3,20.33-.26.43-.51.87-.77,1.31.07.11.14.22.21.32.55-.14,1.13-.23,1.66-.43,2.79-1.08,5.6-1.55,8.49-.36.22.09.45.16.66.26,3.47,1.6,3.96,5,.93,7.31-2.22,1.7-4.7,2.69-7.04,4.21-7.61,4.97-11.89,9.55-16.52,15.17"/>
          <path class="cls-9" d="M55.7,103.65l-29.27-15.82c-.25-.13-.29-.61-.16-1.31.23-1.25,1.01-3.24,2.16-5.37h0c1.07-1.98,2.21-3.62,3.11-4.55.61-.63,1.1-.93,1.38-.78l29.27,15.82c.34.19.29,1.03-.07,2.23-.36,1.21-1.04,2.79-1.93,4.44h0c-.9,1.66-1.85,3.09-2.66,4.05-.81.97-1.49,1.47-1.83,1.28Z"/>
        </g>
        <path class="cls-5" d="M103.79,21.79c.59.56,3.7,3.63,3.13,7.41-.08.51-.23,1.09-.51,1.72"/>
      </g>
      <circle class="cls-3" cx="29.86" cy="88.18" r="2.65"/>
    </g>
  </g>
  <g id="Top_BGS" data-name="Top BGS">
    <path class="cls-6" d="M123.59,69.68c-.4,9.65-18.2,17.8-35.41,21.32-3.4.7-6.78,1.22-9.99,1.53-1.32.13-2.65.26-4.02.35-3.29.24-6.79.3-10.81-.21-1.06-.12-2.15-.3-3.29-.52-1.23-.23-3.05-.57-5.26-1.1-9.56-2.31-26.37-8.25-33.59-25.17-2.06-4.85-3.13-10.12-3.25-15.42-5.99,0-11.98.1-17.99.29v90.98h141.73V58.66c-9.16-.92-18.3-1.84-27.43-2.7,3.92,7.15,9.52,8.24,9.29,13.73Z"/>
  </g>
  <g id="Texts">
    <g>
      <rect class="cls-4" x="0" y="87.41" width="141.73" height="54.32"/>
      <path class="cls-2" d="M40.62,109.56c0-.43.22-.67.66-.67h3.71c2.13,0,3.62,1.49,3.62,3.7s-1.49,3.75-3.62,3.75h-2.32v3.25c0,.45-.22.67-.66.67h-.74c-.43,0-.66-.22-.66-.67v-10.02ZM44.6,114.54c1.22,0,1.9-.77,1.9-1.95s-.69-1.92-1.87-1.92h-1.97v3.87h1.94Z"/>
      <path class="cls-2" d="M49.8,112.76c0-.43.24-.67.67-.67h.69c.45,0,.67.24.67.67v4.16c0,.99.26,1.67,1.27,1.67,1.47,0,2.29-1.3,2.29-2.75v-3.07c0-.43.22-.67.67-.67h.69c.43,0,.67.24.67.67v6.82c0,.45-.24.67-.67.67h-.62c-.43,0-.66-.22-.66-.67v-.48c0-.19.03-.37.03-.37h-.03c-.38.83-1.44,1.71-2.83,1.71-1.74,0-2.83-.88-2.83-3.11v-4.58Z"/>
      <path class="cls-2" d="M59.4,109.56c0-.43.22-.67.66-.67h.7c.43,0,.66.24.66.67v7.99c0,.8.34.94.64.98.29.03.5.21.5.58v.54c0,.42-.19.69-.67.69-1.09,0-2.48-.29-2.48-2.62v-8.15Z"/>
      <path class="cls-2" d="M63.53,118.7l.19-.29c.24-.34.51-.37.91-.16.38.21.99.56,1.83.56.7,0,1.13-.32,1.13-.83,0-1.33-4.05-.83-4.05-3.63,0-1.6,1.41-2.45,3.12-2.45,1.09,0,1.84.35,2.27.59.37.19.42.53.24.9l-.16.29c-.19.38-.5.43-.9.26-.35-.16-.88-.4-1.55-.4-.71,0-1.11.29-1.11.8,0,1.34,4.05.82,4.05,3.6,0,1.44-1.22,2.51-3.11,2.51-1.31,0-2.22-.5-2.72-.83-.37-.21-.4-.56-.16-.91Z"/>
      <path class="cls-2" d="M75.18,115.21h.34v-.19c0-1.07-.69-1.44-1.52-1.44-.69,0-1.31.26-1.7.46-.4.18-.7.11-.89-.27l-.16-.3c-.19-.37-.13-.69.26-.9.53-.27,1.46-.67,2.67-.67,2.11,0,3.38,1.18,3.38,3.25v4.43c0,.45-.22.67-.67.67h-.54c-.43,0-.66-.22-.66-.67v-.32c0-.22.03-.35.03-.35h-.03s-.77,1.54-2.56,1.54c-1.49,0-2.71-.96-2.71-2.45,0-2.38,2.95-2.79,4.77-2.79ZM73.66,118.89c1.14,0,1.87-1.15,1.87-2.14v-.3h-.34c-1.03,0-2.77.16-2.77,1.38,0,.54.42,1.07,1.23,1.07Z"/>
      <path class="cls-2" d="M79.43,112.76c0-.43.22-.67.66-.67h.62c.43,0,.66.24.66.67v.5c0,.18-.03.37-.03.37h.03c.35-.69,1.25-1.73,2.9-1.73,1.81,0,2.85.94,2.85,3.11v4.58c0,.45-.22.67-.67.67h-.69c-.43,0-.67-.22-.67-.67v-4.16c0-.99-.26-1.66-1.28-1.66-1.44,0-2.35,1.2-2.35,2.67v3.15c0,.45-.22.67-.66.67h-.71c-.43,0-.66-.22-.66-.67v-6.82Z"/>
      <path class="cls-2" d="M89.39,113.82h-.43c-.43,0-.66-.22-.66-.67v-.27c0-.43.22-.67.67-.67h.46v-1.67c0-.43.24-.67.67-.67h.64c.43,0,.67.24.67.67v1.67h1.18c.43,0,.67.24.67.67v.27c0,.45-.24.67-.66.67h-1.2v3.17c0,1.22.75,1.46,1.31,1.52.5.05.67.21.67.66v.5c0,.48-.27.67-.83.67-1.46,0-3.19-.78-3.19-2.99v-3.52Z"/>
      <path class="cls-2" d="M98.35,111.9c2.32,0,3.62,1.65,3.62,3.89,0,.35-.3.69-.7.69h-4.98c.13,1.47,1.22,2.24,2.45,2.24.75,0,1.38-.29,1.76-.53.4-.19.69-.14.9.22l.19.32c.19.37.13.69-.22.9-.53.34-1.49.82-2.77.82-2.71,0-4.38-1.95-4.38-4.27,0-2.51,1.7-4.27,4.14-4.27ZM99.95,115.24c-.03-1.14-.72-1.81-1.65-1.81-1.04,0-1.78.72-1.97,1.81h3.62Z"/>
    </g>
  </g>
</svg>