<?xml version="1.0" encoding="UTF-8"?>
<svg xmlns="http://www.w3.org/2000/svg" viewBox="0 0 141.73 141.73">
  <defs>
    <style>
      .cls-1 {
        fill: #f1f2f2;
      }

      .cls-2 {
        fill: none;
      }

      .cls-3 {
        fill: #f15b5c;
      }

      .cls-4 {
        fill: #ec724a;
        stroke: #ec724a;
        stroke-miterlimit: 10;
        stroke-width: .5px;
      }

      .cls-5 {
        fill: #fcb44a;
      }

      .cls-6 {
        fill: #234c89;
      }

      .cls-7 {
        fill: #a1b860;
      }
    </style>
  </defs>
  <g id="Bottom_BGS" data-name="Bottom BGS">
    <path class="cls-4" d="M0,0v49.13c6.99,1.16,13.98,2.28,20.98,3.3-.29-10.81,3.54-21.75,11.2-29.18,9.79-9.49,22.14-9.36,37.05-9.91,5.97-.21,36.56-1.34,42.93,12.87,3.85,8.57-4.55,15.01-.17,27.67.45,1.31.97,2.46,1.52,3.49,9.36-.7,18.77-1.88,28.23-3.6V0H0Z"/>
  </g>
  <g id="Elements">
    <g>
      <path class="cls-5" d="M80.03,35.27c7.59-7.21,20.55-6.97,28.06,1.3,6.75,7.43,7.46,20.09-1.33,28.09-8.2,7.47-20.66,6.87-28.1-1.33-8.37-9.24-5.75-22.03,1.37-28.06ZM81.75,59.08c.33.36.55.63.79.87.46.45,1,.53,1.55.18.59-.38.84-.92.62-1.62-.11-.34-.34-.6-.56-.86-1.25-1.46-2.1-3.14-2.48-5.02-.91-4.44.29-8.27,3.46-11.49.69-.71.79-1.5.25-2.08-.54-.59-1.35-.56-2.1.06-.58.49-1.06,1.07-1.54,1.65-4.26,5.13-4.22,13.37.01,18.31Z"/>
      <path class="cls-7" d="M85.87,12.09c3.64,4.06,5.3,8.83,5.15,14.26-.02.75-.24,1.1-1.05,1.21-4.5.6-8.45,2.52-11.78,5.53-3.31,2.99-5.61,6.69-6.67,11.07-.23.94-.64,1.18-1.55,1.11-4.68-.36-8.75-2.06-12.26-5.22-7.71-6.92-8.76-19.17-1.81-27.45,7.14-8.49,19.69-9.4,27.94-2.49.73.61,1.36,1.3,2.03,1.98ZM59.37,35.46c.63.76,1.49.96,2.16.5.65-.45.71-1.33.14-2.19-.1-.16-.23-.3-.35-.44-3.62-4.29-3.78-10.91-.4-15.41.5-.66,1.12-1.19,1.64-1.81.62-.74.63-1.62.07-2.12-.59-.53-1.54-.44-2.21.24-.48.49-.95,1.01-1.38,1.55-4.44,5.7-4.64,13.56.31,19.68Z"/>
      <path class="cls-3" d="M48.57,91.82c-6.52-4.64-8.34-13.12-4.62-19.82,3.79-6.82,12.74-9.94,20.27-5.98.8.42,1.51,1.02,2.27,1.53.53.35.5.67.07,1.12-2.39,2.53-3.34,5.52-2.64,8.94.71,3.48,2.73,5.94,6.05,7.3q1.11.45.56,1.53c-3.6,7.07-12.58,10.1-19.76,6.68-.86-.41-1.66-.9-2.18-1.31ZM47.98,73.39c-3.18,4.73-1.96,11.6,2.46,14.74.9.64,1.75.62,2.26-.05.48-.64.28-1.39-.56-2.11-2.94-2.54-3.94-6.01-2.69-9.42.25-.68.61-1.3.99-1.92.44-.73.26-1.48-.37-1.91-.64-.44-1.34-.29-1.89.4-.12.15-.22.31-.2.27Z"/>
      <path class="cls-6" d="M79.57,79.87c-2.3,3.22-6.87,4-10.07,1.7-3.2-2.3-3.98-6.89-1.71-10.09,2.3-3.25,6.98-4.06,10.16-1.76,3.25,2.36,3.98,6.86,1.63,10.15Z"/>
      <path class="cls-6" d="M52.32,46.14c2.19-3.08,6.4-3.81,9.45-1.63,3,2.14,3.71,6.48,1.56,9.5-2.15,3.02-6.45,3.75-9.49,1.61-3.04-2.13-3.72-6.38-1.52-9.47Z"/>
      <path class="cls-6" d="M25.45,33.12c1.81-2.55,5.28-3.15,7.81-1.35,2.48,1.76,3.07,5.35,1.29,7.84-1.77,2.49-5.32,3.09-7.84,1.33-2.51-1.76-3.07-5.27-1.26-7.82Z"/>
      <path class="cls-6" d="M34.51,14.2c-1.74-1.25-2.11-3.59-.84-5.35,1.24-1.72,3.62-2.09,5.36-.83,1.72,1.24,2.08,3.59.81,5.36-1.25,1.75-3.55,2.1-5.34.82Z"/>
    </g>
  </g>
  <g id="Top_BGS" data-name="Top BGS">
    <path class="cls-4" d="M122.55,70.78c-.39,9.28-17.5,17.12-34.05,20.51-3.27.67-6.52,1.17-9.6,1.47-1.27.12-2.55.25-3.86.34-3.16.23-6.53.29-10.4-.2-1.02-.12-2.07-.29-3.16-.5-1.18-.22-2.93-.55-5.06-1.06-9.2-2.22-25.37-7.93-32.3-24.21-1.97-4.62-2.99-9.64-3.13-14.69C13.98,51.4,6.99,50.29,0,49.13v92.6h141.73V53.78c-9.46,1.72-18.87,2.9-28.23,3.6,3.78,7.05,9.26,8.07,9.04,13.39Z"/>
  </g>
  <g id="Texts">
    <g>
      <rect class="cls-2" x="0" y="87.41" width="141.73" height="54.32"/>
      <path class="cls-1" d="M44.54,102.06c0-.43.22-.67.66-.67h3.39c2.05,0,3.52,1.06,3.52,2.93,0,1.06-.51,1.97-1.38,2.43v.03c1.23.37,1.83,1.52,1.83,2.67,0,2.27-1.81,3.3-3.92,3.3h-3.44c-.43,0-.66-.22-.66-.67v-10.02ZM48.6,106.03c.9,0,1.39-.64,1.39-1.46s-.48-1.41-1.44-1.41h-1.97v2.87h2.02ZM48.8,110.98c1.06,0,1.65-.69,1.65-1.65s-.61-1.63-1.65-1.63h-2.21v3.28h2.21Z"/>
      <path class="cls-1" d="M58.19,104.4c2.48,0,4.5,1.78,4.5,4.27s-2.02,4.27-4.5,4.27-4.48-1.76-4.48-4.27,2-4.27,4.48-4.27ZM58.19,111.22c1.33,0,2.43-1.02,2.43-2.54s-1.1-2.54-2.43-2.54-2.42,1.04-2.42,2.54,1.09,2.54,2.42,2.54Z"/>
      <path class="cls-1" d="M64.15,102.06c0-.43.22-.67.66-.67h.7c.43,0,.66.24.66.67v7.99c0,.8.34.94.64.98.29.03.5.21.5.58v.54c0,.42-.19.69-.67.69-1.09,0-2.48-.29-2.48-2.62v-8.15Z"/>
      <path class="cls-1" d="M68.62,102.06c0-.43.22-.67.66-.67h.7c.43,0,.66.24.66.67v7.99c0,.8.34.94.64.98.29.03.5.21.5.58v.54c0,.42-.19.69-.67.69-1.09,0-2.48-.29-2.48-2.62v-8.15Z"/>
      <path class="cls-1" d="M76.75,104.4c2.32,0,3.62,1.65,3.62,3.89,0,.35-.3.69-.7.69h-4.98c.13,1.47,1.22,2.24,2.45,2.24.75,0,1.38-.29,1.76-.53.4-.19.69-.14.9.22l.19.32c.19.37.13.69-.22.9-.53.34-1.49.82-2.77.82-2.71,0-4.39-1.95-4.39-4.27,0-2.51,1.7-4.27,4.15-4.27ZM78.35,107.74c-.03-1.14-.72-1.81-1.65-1.81-1.04,0-1.78.72-1.97,1.81h3.62Z"/>
      <path class="cls-1" d="M89.05,104.4c1.79,0,2.38,1.17,2.38,1.17h.03s-.03-.21-.03-.46v-3.04c0-.43.22-.67.66-.67h.71c.43,0,.66.24.66.67v10.02c0,.45-.22.67-.66.67h-.59c-.43,0-.66-.21-.66-.61v-.32c0-.16.03-.29.03-.29h-.03s-.69,1.41-2.56,1.41c-2.21,0-3.63-1.74-3.63-4.27s1.54-4.27,3.7-4.27ZM89.43,111.23c1.06,0,2.05-.77,2.05-2.58,0-1.26-.66-2.51-2.03-2.51-1.1,0-2.05.91-2.05,2.53s.83,2.56,2.03,2.56Z"/>
      <path class="cls-1" d="M95.48,102.54v-.48c0-.43.22-.67.66-.67h.7c.43,0,.67.24.67.67v.48c0,.43-.24.66-.67.66h-.7c-.43,0-.66-.22-.66-.66ZM95.48,105.26c0-.43.22-.67.66-.67h.7c.43,0,.66.24.66.67v6.82c0,.45-.22.67-.66.67h-.7c-.43,0-.66-.22-.66-.67v-6.82Z"/>
      <path class="cls-1" d="M44.79,126.2l.19-.29c.24-.34.51-.37.91-.16.38.21.99.56,1.83.56.7,0,1.14-.32,1.14-.83,0-1.33-4.05-.83-4.05-3.63,0-1.6,1.41-2.45,3.12-2.45,1.09,0,1.84.35,2.27.59.37.19.42.53.24.9l-.16.29c-.19.38-.5.43-.9.26-.35-.16-.88-.4-1.55-.4s-1.1.29-1.1.8c0,1.34,4.05.82,4.05,3.6,0,1.44-1.22,2.51-3.11,2.51-1.31,0-2.22-.5-2.72-.83-.37-.21-.4-.56-.16-.91Z"/>
      <path class="cls-1" d="M56.44,122.71h.34v-.19c0-1.07-.69-1.44-1.52-1.44-.69,0-1.31.26-1.7.46-.4.18-.7.11-.9-.27l-.16-.3c-.19-.37-.13-.69.26-.9.53-.27,1.46-.67,2.67-.67,2.11,0,3.38,1.18,3.38,3.25v4.43c0,.45-.22.67-.67.67h-.54c-.43,0-.66-.22-.66-.67v-.32c0-.22.03-.35.03-.35h-.03s-.77,1.54-2.56,1.54c-1.49,0-2.71-.96-2.71-2.45,0-2.39,2.95-2.79,4.77-2.79ZM54.92,126.39c1.14,0,1.87-1.15,1.87-2.15v-.3h-.34c-1.02,0-2.77.16-2.77,1.38,0,.54.42,1.07,1.23,1.07Z"/>
      <path class="cls-1" d="M60.69,120.26c0-.43.24-.67.67-.67h.51c.43,0,.66.24.66.56v.37c0,.18-.02.32-.02.32h.03s.72-1.44,2.62-1.44c2.21,0,3.63,1.74,3.63,4.27s-1.6,4.27-3.75,4.27c-1.7,0-2.35-1.25-2.35-1.25h-.03s.05.29.05.7v2.88c0,.45-.22.67-.67.67h-.69c-.43,0-.67-.22-.67-.67v-10.02ZM64.69,126.23c1.12,0,2.05-.91,2.05-2.53s-.83-2.56-2.02-2.56c-1.06,0-2.06.77-2.06,2.58,0,1.26.7,2.51,2.03,2.51Z"/>
      <path class="cls-1" d="M74.31,119.4c2.48,0,4.5,1.78,4.5,4.27s-2.02,4.27-4.5,4.27-4.48-1.76-4.48-4.27,2-4.27,4.48-4.27ZM74.31,126.22c1.33,0,2.43-1.02,2.43-2.54s-1.1-2.54-2.43-2.54-2.42,1.04-2.42,2.54,1.09,2.54,2.42,2.54Z"/>
      <path class="cls-1" d="M80.29,120.26c0-.43.22-.67.66-.67h.62c.43,0,.66.24.66.67v.5c0,.18-.03.37-.03.37h.03c.35-.69,1.25-1.73,2.9-1.73,1.81,0,2.85.94,2.85,3.11v4.58c0,.45-.22.67-.67.67h-.69c-.43,0-.67-.22-.67-.67v-4.16c0-.99-.26-1.66-1.28-1.66-1.44,0-2.35,1.2-2.35,2.67v3.15c0,.45-.22.67-.66.67h-.7c-.43,0-.66-.22-.66-.67v-6.82Z"/>
      <path class="cls-1" d="M93.53,119.4c2.32,0,3.62,1.65,3.62,3.89,0,.35-.3.69-.7.69h-4.98c.13,1.47,1.22,2.24,2.45,2.24.75,0,1.38-.29,1.76-.53.4-.19.69-.14.9.22l.19.32c.19.37.13.69-.22.9-.53.34-1.49.82-2.77.82-2.71,0-4.39-1.95-4.39-4.27,0-2.51,1.7-4.27,4.15-4.27ZM95.13,122.74c-.03-1.14-.72-1.81-1.65-1.81-1.04,0-1.78.72-1.97,1.81h3.62Z"/>
    </g>
  </g>
</svg>