<?xml version="1.0" encoding="UTF-8"?>
<svg xmlns="http://www.w3.org/2000/svg" viewBox="0 0 141.73 141.73">
  <defs>
    <style>
      .cls-1 {
        fill: #f1f2f2;
      }

      .cls-2 {
        fill: none;
      }

      .cls-3 {
        fill: #55b6cf;
      }

      .cls-4 {
        fill: #ec724a;
        stroke: #ec724a;
        stroke-miterlimit: 10;
        stroke-width: .5px;
      }

      .cls-5 {
        fill: #234c89;
      }
    </style>
  </defs>
  <g id="Bottom_BGS" data-name="Bottom BGS">
    <path class="cls-4" d="M21.18,38.6c.47-18.96,18.13-24.44,34.47-19.35.31.1.61.19.92.3,7.38,2.49,14.42,6.35,21.94,8,1.49.33,3,.57,4.54.69.65.05,1.31.08,1.97.1.01,0,.02,0,.03,0,1.67.04,3.35-.01,5.03-.06.81-.03,1.62-.05,2.42-.07,3.33-.06,6.61.08,9.73,1.18,6.6,2.33,11.05,8.51,14.17,14.77.71,1.44,1.37,2.95,1.94,4.5.64,1.73,1.17,3.52,1.56,5.31.21.99.37,1.98.49,2.97,7.2-1.07,14.33-2.56,21.36-4.53V0H0v48.92c7.17,1.36,14.42,2.68,21.7,3.9-.54-4.71-.64-9.5-.52-14.22Z"/>
  </g>
  <g id="Elements">
    <g>
      <path class="cls-5" d="M68.62,96.7c-4.2-.06-8.24-.82-11.92-2.96-4.94-2.87-7.62-7.25-8.55-12.79-1.12-6.65.64-12.72,3.7-18.53,2.43-4.61,5.52-8.75,8.97-12.64,2.3-2.6,4.76-5.05,7.35-7.38.39-.35.6-.35.99,0,5.12,4.61,9.74,9.66,13.56,15.41,2.67,4.02,4.86,8.27,6.03,12.99,1.08,4.36,1.07,8.71-.25,12.99-1.87,6.08-6.06,9.86-12.03,11.77-1.14.36-2.3.63-3.48.8-1.45.21-2.9.38-4.37.34ZM59.37,62.5c-.16.22-.35.43-.48.68-.78,1.48-1.66,2.91-2.34,4.45-1.76,3.98-2.71,8.05-1.92,12.44.82,4.52,3.36,7.5,7.62,9.1.47.17.74.12.92-.38.58-1.63,1.18-3.25,1.8-4.87.17-.45.12-.63-.4-.8-1.89-.61-3.14-1.88-3.53-3.87-.48-2.48-.12-4.89.76-7.24.6-1.6,1.32-3.14,2.21-4.6.29-.47.35-.82-.18-1.23-1.19-.93-2.31-1.95-3.47-2.92-.29-.24-.6-.46-.99-.76ZM71.62,85.84s-.02,0-.03,0c0-.27,0-.54,0-.81,0-.74-.45-1.28-1.1-1.36-.62-.07-1.14.4-1.38,1.11-.28.84-.07,1.71-.25,2.57-.2.94-.19,1.93-.19,2.9,0,.73.54,1.21,1.24,1.24.7.03,1.28-.43,1.34-1.13.14-1.5.25-3,.37-4.5ZM77.45,87.34c-.17-.76-.42-1.8-.64-2.85-.2-.96-.8-1.54-1.54-1.43-.83.13-1.26.84-1.05,1.86.2,1.03.43,2.05.69,3.06.21.82.73,1.15,1.55,1.05.71-.09,1-.49.99-1.7Z"/>
      <path class="cls-3" d="M95.94,53.72c-3.6-.08-6.92-.97-9.56-3.57-1.93-1.9-2.86-4.29-3.23-6.94-.73-5.23,1.15-9.74,3.8-14.04,2.36-3.84,5.35-7.15,8.61-10.24.29-.27.48-.43.86-.07,4.39,4.18,8.28,8.73,10.82,14.3,1.29,2.83,2.01,5.79,1.79,8.9-.46,6.55-4.44,10.76-10.98,11.51-.7.08-1.4.14-2.11.15ZM103.84,40.98c.07-2.2-.74-4.29-1.47-5.93-.47-1.05-1.71-1.18-2.29-.27-.33.52-.2,1.08.05,1.63.76,1.7,1.26,3.47,1.08,5.35-.21,2.16-.75,3.27-3,3.91-.72.21-1.48.26-2.25.25-.74,0-1.23.52-1.26,1.22-.03.7.43,1.33,1.13,1.35,1.72.05,3.42-.17,4.92-1.09,2.4-1.46,2.99-3.83,3.08-6.42ZM99.92,31.56c0-.73-.54-1.28-1.27-1.29-.76-.02-1.34.55-1.34,1.31,0,.76.59,1.32,1.35,1.29.73-.02,1.26-.58,1.25-1.31Z"/>
      <path class="cls-3" d="M54.34,41.37c-.08,3.15-.91,6.4-3.55,8.93-2.02,1.94-4.51,2.91-7.28,3.27-2.66.34-5.25.13-7.75-.82-4.37-1.67-6.68-4.95-7.33-9.52-.74-5.22,1.14-9.74,3.79-14.04,2.36-3.84,5.35-7.15,8.61-10.24.28-.26.47-.47.86-.1,4.47,4.25,8.43,8.89,10.96,14.6,1.06,2.39,1.69,4.91,1.69,7.92ZM33.48,41.04c-.03.35.09.93.15,1.52.49,4.58,4.28,6.07,7.9,5.91.66-.03,1.04-.54,1.07-1.23.03-.67-.41-1.23-1.07-1.33-.29-.04-.6,0-.89-.02-2.91-.25-4.48-1.26-4.55-4.61-.04-1.78.45-3.41,1.15-5.01.38-.87.18-1.59-.54-1.95-.64-.32-1.41-.06-1.75.71-.8,1.84-1.48,3.72-1.47,6.02ZM40,31.53c-.02-.73-.57-1.26-1.3-1.26-.76,0-1.32.58-1.3,1.34.02.76.62,1.3,1.38,1.26.72-.04,1.24-.61,1.22-1.34Z"/>
      <path class="cls-3" d="M59.37,62.5c.39.3.7.51.99.76,1.16.98,2.28,1.99,3.47,2.92.53.41.47.76.18,1.23-.89,1.46-1.61,3-2.21,4.6-.88,2.35-1.23,4.75-.76,7.24.38,1.99,1.63,3.26,3.53,3.87.52.17.57.35.4.8-.61,1.62-1.21,3.24-1.8,4.87-.18.5-.45.56-.92.38-4.26-1.6-6.8-4.58-7.62-9.1-.8-4.39.16-8.46,1.92-12.44.68-1.54,1.56-2.97,2.34-4.45.13-.25.32-.46.48-.68Z"/>
      <path class="cls-3" d="M71.62,85.84c-.12,1.5-.23,3-.37,4.5-.06.7-.64,1.16-1.34,1.13-.7-.03-1.24-.51-1.24-1.24,0-.97,0-1.96.19-2.9.18-.86-.03-1.73.25-2.57.23-.71.75-1.18,1.38-1.11.65.07,1.09.61,1.1,1.36,0,.27,0,.54,0,.81,0,0,.02,0,.03,0Z"/>
      <path class="cls-3" d="M77.45,87.34c0,1.21-.28,1.61-.99,1.7-.82.1-1.35-.23-1.55-1.05-.25-1.01-.48-2.04-.69-3.06-.2-1.03.22-1.74,1.05-1.86.74-.11,1.34.47,1.54,1.43.22,1.05.47,2.09.64,2.85Z"/>
      <path class="cls-5" d="M103.84,40.98c-.09,2.59-.68,4.95-3.08,6.42-1.5.91-3.2,1.13-4.92,1.09-.7-.02-1.16-.65-1.13-1.35.03-.7.52-1.23,1.26-1.22.77,0,1.53-.05,2.25-.25,2.25-.65,2.79-1.76,3-3.91.18-1.88-.32-3.65-1.08-5.35-.24-.54-.38-1.1-.05-1.63.58-.9,1.82-.77,2.29.27.73,1.64,1.53,3.74,1.47,5.93Z"/>
      <path class="cls-5" d="M99.92,31.56c0,.73-.53,1.28-1.25,1.31-.76.02-1.35-.53-1.35-1.29,0-.76.57-1.33,1.34-1.31.73.02,1.26.56,1.27,1.29Z"/>
      <path class="cls-5" d="M33.48,41.04c0-2.3.67-4.18,1.47-6.02.33-.76,1.11-1.03,1.75-.71.72.36.92,1.08.54,1.95-.7,1.6-1.19,3.24-1.15,5.01.07,3.35,1.64,4.36,4.55,4.61.3.03.6-.02.89.02.66.1,1.1.66,1.07,1.33-.03.69-.41,1.2-1.07,1.23-3.62.16-7.41-1.33-7.9-5.91-.06-.59-.19-1.17-.15-1.52Z"/>
      <path class="cls-5" d="M40,31.53c.02.73-.5,1.3-1.22,1.34-.76.04-1.36-.51-1.38-1.26-.02-.76.54-1.34,1.3-1.34.73,0,1.28.54,1.3,1.26Z"/>
    </g>
  </g>
  <g id="Top_BGS" data-name="Top BGS">
    <path class="cls-4" d="M120.38,56.94c.5,4.1.15,8.15-1.54,11.66-.31.66-.67,1.29-1.08,1.9-.4.61-.86,1.19-1.36,1.76-5.39,6.01-14.39,6.72-21.76,10.02-4.2,1.88-7.95,4.65-12.04,6.74-2.2,1.13-4.5,2.02-6.87,2.67l-.41.11c-.72.2-1.45.37-2.18.52h0c-.62.13-1.23.24-1.86.33-.11.03-.22.04-.33.05-.88.13-1.76.23-2.65.31-.4.03-.8.06-1.21.08-5.14.27-10.36-.41-15.32-1.95-.44-.13-.89-.28-1.32-.43,0,0,0,0-.01,0-.06-.01-.12-.04-.18-.06-.12-.04-.25-.08-.36-.12-.15-.05-.3-.1-.44-.16-.38-.13-.75-.28-1.12-.43-.83-.33-1.66-.69-2.47-1.06-.46-.21-.91-.44-1.36-.67-1.11-.56-2.19-1.18-3.25-1.83-1.05-.64-2.06-1.33-3.05-2.07-1.27-.95-2.49-1.97-3.64-3.06-.42-.4-.84-.81-1.24-1.23-.42-.43-.83-.87-1.23-1.32-1.08-1.21-2.07-2.49-2.98-3.83-.72-1.07-1.39-2.17-2-3.32-.09-.16-.18-.33-.26-.5-2.91-5.67-4.45-11.88-5.17-18.23C14.42,51.6,7.17,50.28,0,48.92v92.82h141.73V52.41c-7.03,1.96-14.15,3.45-21.36,4.53Z"/>
  </g>
  <g id="Texts">
    <g>
      <rect class="cls-2" x="0" y="87.41" width="141.73" height="54.32"/>
      <path class="cls-1" d="M51.65,101.93c.13-.37.37-.54.75-.54h1.02c.38,0,.64.18.75.54l3.55,10.05c.16.46-.05.77-.54.77h-.74c-.38,0-.64-.18-.75-.54l-.8-2.37h-3.99l-.78,2.35c-.11.38-.37.56-.75.56h-.74c-.5,0-.71-.3-.54-.77l3.55-10.05ZM54.39,108.16l-1.01-3.04c-.19-.64-.45-1.76-.45-1.76h-.03s-.26,1.12-.45,1.76l-1.03,3.04h2.96Z"/>
      <path class="cls-1" d="M62.85,104.4c1.31,0,2.19.48,2.67.82.34.22.35.56.13.91l-.21.32c-.24.37-.51.37-.9.18-.34-.22-.88-.5-1.58-.5-1.5,0-2.48,1.14-2.48,2.53s.98,2.56,2.55,2.56c.8,0,1.44-.35,1.82-.62.4-.22.7-.18.91.21l.16.3c.19.35.14.67-.18.9-.5.37-1.49.94-2.9.94-2.71,0-4.43-1.9-4.43-4.27s1.73-4.27,4.43-4.27Z"/>
      <path class="cls-1" d="M70.6,104.4c1.87,0,2.51,1.34,2.51,1.34h.03s-.03-.13-.03-.32v-.29c0-.3.22-.54.67-.54h.53c.43,0,.66.24.66.67v10.02c0,.45-.22.67-.66.67h-.71c-.43,0-.66-.22-.66-.67v-2.96c0-.42.03-.7.03-.7h-.03s-.61,1.33-2.51,1.33c-2.11,0-3.57-1.74-3.57-4.27s1.55-4.27,3.73-4.27ZM70.95,111.23c1.06,0,2.05-.77,2.05-2.58,0-1.26-.66-2.51-2.03-2.51-1.1,0-2.05.91-2.05,2.53s.83,2.56,2.03,2.56Z"/>
      <path class="cls-1" d="M76.88,105.26c0-.43.24-.67.67-.67h.69c.45,0,.67.24.67.67v4.16c0,.99.26,1.67,1.26,1.67,1.47,0,2.29-1.3,2.29-2.75v-3.07c0-.43.22-.67.67-.67h.69c.43,0,.67.24.67.67v6.82c0,.45-.24.67-.67.67h-.62c-.43,0-.66-.22-.66-.67v-.48c0-.19.03-.37.03-.37h-.03c-.38.83-1.44,1.71-2.83,1.71-1.75,0-2.83-.88-2.83-3.1v-4.58Z"/>
      <path class="cls-1" d="M90.64,107.71h.34v-.19c0-1.07-.69-1.44-1.52-1.44-.69,0-1.31.26-1.7.46-.4.18-.7.11-.9-.27l-.16-.3c-.19-.37-.13-.69.26-.9.53-.27,1.46-.67,2.67-.67,2.11,0,3.38,1.18,3.38,3.25v4.43c0,.45-.22.67-.67.67h-.54c-.43,0-.66-.22-.66-.67v-.32c0-.22.03-.35.03-.35h-.03s-.77,1.54-2.56,1.54c-1.49,0-2.71-.96-2.71-2.45,0-2.39,2.95-2.79,4.77-2.79ZM89.12,111.39c1.14,0,1.87-1.15,1.87-2.15v-.3h-.34c-1.02,0-2.77.16-2.77,1.38,0,.54.42,1.07,1.23,1.07Z"/>
      <path class="cls-1" d="M29.47,120.26c0-.43.22-.67.66-.67h.62c.43,0,.66.24.66.67v.5c0,.18-.03.37-.03.37h.03c.35-.69,1.25-1.73,2.9-1.73,1.81,0,2.85.94,2.85,3.11v4.58c0,.45-.22.67-.67.67h-.69c-.43,0-.67-.22-.67-.67v-4.16c0-.99-.26-1.66-1.28-1.66-1.44,0-2.35,1.2-2.35,2.67v3.15c0,.45-.22.67-.66.67h-.7c-.43,0-.66-.22-.66-.67v-6.82Z"/>
      <path class="cls-1" d="M42.7,119.4c2.32,0,3.62,1.65,3.62,3.89,0,.35-.3.69-.7.69h-4.98c.13,1.47,1.22,2.24,2.45,2.24.75,0,1.38-.29,1.76-.53.4-.19.69-.14.9.22l.19.32c.19.37.13.69-.22.9-.53.34-1.49.82-2.77.82-2.71,0-4.39-1.95-4.39-4.27,0-2.51,1.7-4.27,4.15-4.27ZM44.3,122.74c-.03-1.14-.72-1.81-1.65-1.81-1.04,0-1.78.72-1.97,1.81h3.62Z"/>
      <path class="cls-1" d="M47.79,117.06c0-.43.24-.67.67-.67h.69c.45,0,.67.24.67.67v2.96c0,.4-.05.69-.05.69h.03s.72-1.31,2.5-1.31c2.16,0,3.6,1.74,3.6,4.26s-1.62,4.29-3.73,4.29c-1.84,0-2.5-1.38-2.5-1.38h-.03s.03.13.03.35v.26c0,.35-.22.58-.67.58h-.54c-.43,0-.67-.22-.67-.67v-10.02ZM51.77,126.23c1.14,0,2.06-.91,2.06-2.53s-.83-2.56-2.02-2.56c-1.06,0-2.06.78-2.06,2.53,0,1.33.69,2.56,2.02,2.56Z"/>
      <path class="cls-1" d="M57.32,120.26c0-.43.24-.67.67-.67h.69c.45,0,.67.24.67.67v4.16c0,.99.26,1.67,1.26,1.67,1.47,0,2.29-1.3,2.29-2.75v-3.07c0-.43.22-.67.67-.67h.69c.43,0,.67.24.67.67v6.82c0,.45-.24.67-.67.67h-.62c-.43,0-.66-.22-.66-.67v-.48c0-.19.03-.37.03-.37h-.03c-.38.83-1.44,1.71-2.83,1.71-1.75,0-2.83-.88-2.83-3.1v-4.58Z"/>
      <path class="cls-1" d="M66.92,117.06c0-.43.22-.67.66-.67h.7c.43,0,.66.24.66.67v7.99c0,.8.34.94.64.98.29.03.5.21.5.58v.54c0,.42-.19.69-.67.69-1.09,0-2.48-.29-2.48-2.62v-8.15Z"/>
      <path class="cls-1" d="M71.4,117.54v-.48c0-.43.22-.67.66-.67h.7c.43,0,.67.24.67.67v.48c0,.43-.24.66-.67.66h-.7c-.43,0-.66-.22-.66-.66ZM71.4,120.26c0-.43.22-.67.66-.67h.7c.43,0,.66.24.66.67v6.82c0,.45-.22.67-.66.67h-.7c-.43,0-.66-.22-.66-.67v-6.82Z"/>
      <path class="cls-1" d="M74.87,127.05c0-.34.08-.5.29-.75l3.38-4.23c.38-.46.69-.75.69-.75v-.03s-.22.03-.75.03h-2.77c-.45,0-.67-.24-.67-.67v-.38c0-.43.22-.67.67-.67h5.6c.43,0,.67.19.67.54v.16c0,.34-.08.5-.29.75l-3.38,4.24c-.37.46-.7.75-.7.75v.03s.24-.05.77-.05h3.04c.45,0,.67.24.67.67v.38c0,.45-.22.67-.67.67h-5.88c-.43,0-.67-.19-.67-.54v-.16Z"/>
      <path class="cls-1" d="M83.03,127.05c0-.34.08-.5.29-.75l3.38-4.23c.38-.46.69-.75.69-.75v-.03s-.22.03-.75.03h-2.77c-.45,0-.67-.24-.67-.67v-.38c0-.43.22-.67.67-.67h5.6c.43,0,.67.19.67.54v.16c0,.34-.08.5-.29.75l-3.38,4.24c-.37.46-.7.75-.7.75v.03s.24-.05.77-.05h3.04c.45,0,.67.24.67.67v.38c0,.45-.22.67-.67.67h-5.88c-.43,0-.67-.19-.67-.54v-.16Z"/>
      <path class="cls-1" d="M95.9,122.71h.34v-.19c0-1.07-.69-1.44-1.52-1.44-.69,0-1.31.26-1.7.46-.4.18-.7.11-.9-.27l-.16-.3c-.19-.37-.13-.69.26-.9.53-.27,1.46-.67,2.67-.67,2.11,0,3.38,1.18,3.38,3.25v4.43c0,.45-.22.67-.67.67h-.54c-.43,0-.66-.22-.66-.67v-.32c0-.22.03-.35.03-.35h-.03s-.77,1.54-2.56,1.54c-1.49,0-2.71-.96-2.71-2.45,0-2.39,2.95-2.79,4.77-2.79ZM94.38,126.39c1.14,0,1.87-1.15,1.87-2.15v-.3h-.34c-1.02,0-2.77.16-2.77,1.38,0,.54.42,1.07,1.23,1.07Z"/>
      <path class="cls-1" d="M100.51,121.32h-.43c-.43,0-.66-.22-.66-.67v-.27c0-.43.22-.67.67-.67h.46v-1.66c0-.43.24-.67.67-.67h.64c.43,0,.67.24.67.67v1.66h1.18c.43,0,.67.24.67.67v.27c0,.45-.24.67-.66.67h-1.2v3.17c0,1.22.75,1.46,1.31,1.52.5.05.67.21.67.66v.5c0,.48-.27.67-.83.67-1.46,0-3.18-.78-3.18-2.99v-3.52Z"/>
      <path class="cls-1" d="M110.03,122.71h.34v-.19c0-1.07-.69-1.44-1.52-1.44-.69,0-1.31.26-1.7.46-.4.18-.7.11-.9-.27l-.16-.3c-.19-.37-.13-.69.26-.9.53-.27,1.46-.67,2.67-.67,2.11,0,3.38,1.18,3.38,3.25v4.43c0,.45-.22.67-.67.67h-.54c-.43,0-.66-.22-.66-.67v-.32c0-.22.03-.35.03-.35h-.03s-.77,1.54-2.56,1.54c-1.49,0-2.71-.96-2.71-2.45,0-2.39,2.95-2.79,4.77-2.79ZM108.51,126.39c1.14,0,1.87-1.15,1.87-2.15v-.3h-.34c-1.02,0-2.77.16-2.77,1.38,0,.54.42,1.07,1.23,1.07Z"/>
    </g>
  </g>
</svg>