<?xml version="1.0" encoding="UTF-8"?>
<svg xmlns="http://www.w3.org/2000/svg" xmlns:xlink="http://www.w3.org/1999/xlink" viewBox="0 0 141.73 141.73">
  <defs>
    <style>
      .cls-1 {
        fill: #fff9ee;
      }

      .cls-2 {
        fill: #fecc95;
      }

      .cls-3 {
        fill: #f1f2f2;
      }

      .cls-4 {
        fill: none;
      }

      .cls-5 {
        fill: #55b6cf;
        stroke: #55b6cf;
        stroke-miterlimit: 10;
        stroke-width: .5px;
      }

      .cls-6 {
        fill: #f15b5c;
      }

      .cls-7 {
        fill: #fcb44a;
      }

      .cls-8 {
        fill: #234c89;
      }

      .cls-9 {
        clip-path: url(#clippath);
      }
    </style>
    <clipPath id="clippath">
      <path class="cls-4" d="M60.73,6.51c9.57-1.37,18.09-.46,27.22,2.87,7.11,2.6,10.12,7.25,14.96,11.32,3.44,2.9,6.77,13.3,10.07,15.76,9.71,7.24,15.51,9.51,11.88,23.32-3.64,13.81-14.8,26.77-27.89,32.36-8.35,3.57-17.01,4.23-25.44,4.67-11.86.63-23.8.92-34.76-1.69-10.96-2.61-21-8.39-26.43-18.07-7.95-14.16-3.2-35.21,7.76-50.79C27.6,12.74,47,8.47,60.73,6.51Z"/>
    </clipPath>
  </defs>
  <g id="Bottom_BGS" data-name="Bottom BGS">
    <path class="cls-5" d="M21.97,50.33c1.51-12.97,10.85-26.09,21.69-32.42.69-.4,1.38-.78,2.08-1.12,2.31-1.14,4.75-1.91,7.25-2.4.12-.02.24-.04.36-.06.24-.04.49-.09.74-.12,3.82-.62,7.79-.61,11.74-.29h0c.64.05,1.29.11,1.93.18,1.76.18,3.5.41,5.23.66.85.12,1.7.25,2.55.39.18.03.36.06.54.09.26.04.53.09.79.13h.01c.31.05.62.11.93.16,0,0,0,0,.01,0h0c.72.12,1.44.25,2.15.39,2.63.5,5.24,1.09,7.82,1.8.48.13.95.26,1.42.4,2.01.59,3.99,1.26,5.91,2.03.91.36,1.82.74,2.71,1.15.76.35,1.51.71,2.25,1.09.67.34,1.33.7,1.98,1.08,2.51,1.44,4.89,3.11,7.08,5.06,5.79,5.14,10.05,12.95,10.7,20.88,7.3.1,14.59.39,21.86.96V0H0v56.31c7.25-.34,14.51-.8,21.77-1.32-.05-1.54.01-3.1.19-4.65Z"/>
  </g>
  <g id="Elements">
    <g>
      <g class="cls-9">
        <g>
          <path class="cls-2" d="M104.83,42.26c-1.69-10.16-5.56-19.94-12.94-26.66C75.61.77,31.73,8.25,31.84,41.76c.06,19.9,11.31,30.66,11.31,30.66l-2.97,24.85h37.34l-1.74-13.56s18.32,6.15,23.54,2.99c2.57-1.55,6.17-13.87,6.54-28.39,2.04-.89,4.44-2.2,5.04-3.59.75-1.75-3.45-8.5-6.08-12.46Z"/>
          <path class="cls-8" d="M97.11,36.27c0-17.17-20.79-25.23-35.29-22.16-35.81,7.59-26.25,50.17-10.41,53.31,9.75,1.93,20.01-5.89,18.4-14.61,10.74-2.37,27.3-4.61,27.3-16.54Z"/>
        </g>
      </g>
      <g>
        <g>
          <path class="cls-1" d="M80.72,32.37c0-.92-.63-1.66-1.53-1.81-.71-.12-1.42-.2-2.13-.28-.21-.02-.32-.09-.39-.3-.15-.42-.32-.83-.51-1.23-.08-.17-.06-.27.05-.41.42-.52.82-1.05,1.23-1.58.66-.87.61-1.82-.15-2.59-.61-.62-1.23-1.24-1.85-1.85-.76-.75-1.72-.8-2.57-.15-.54.41-1.07.83-1.6,1.25-.13.1-.23.11-.39.04-.42-.19-.85-.37-1.28-.53-.18-.06-.23-.16-.25-.33-.09-.73-.17-1.46-.29-2.18-.15-.9-.9-1.51-1.82-1.52-.89,0-1.78,0-2.67,0-1.07,0-1.82.66-1.95,1.71-.09.66-.17,1.32-.24,1.99-.02.19-.1.28-.27.35-.43.16-.85.33-1.26.52-.15.07-.25.07-.39-.04-.54-.43-1.08-.85-1.63-1.27-.85-.65-1.8-.58-2.57.18-.62.61-1.24,1.23-1.85,1.85-.74.74-.8,1.71-.16,2.55.42.55.84,1.09,1.27,1.63.11.13.11.23.04.39-.19.4-.36.81-.51,1.23-.07.2-.17.29-.39.31-.66.07-1.33.15-1.99.24-.84.12-1.39.58-1.63,1.4,0,.03-.04.06-.06.09v3.43c.15.3.26.63.45.89.31.43.78.61,1.3.67.66.08,1.33.15,1.99.25.1.02.23.12.28.22.2.44.39.88.56,1.34.03.09.02.25-.04.32-.41.55-.84,1.09-1.26,1.63-.65.85-.6,1.81.16,2.57.61.62,1.23,1.24,1.85,1.85.76.75,1.71.81,2.57.16.54-.41,1.07-.82,1.6-1.25.14-.11.25-.11.41-.04.4.19.81.36,1.23.51.19.07.27.17.29.37.07.68.15,1.37.26,2.04.13.84.61,1.38,1.44,1.59.04,0,.07.03.1.05h3.37c.48-.14.91-.36,1.22-.78.31-.42.34-.92.4-1.4.07-.52.13-1.04.19-1.55.02-.17.1-.24.25-.3.43-.16.86-.34,1.28-.53.16-.07.26-.05.39.05.53.42,1.07.84,1.6,1.25.85.65,1.81.6,2.57-.15.61-.6,1.22-1.21,1.83-1.83.78-.79.84-1.74.17-2.61-.41-.53-.81-1.06-1.23-1.58-.11-.14-.12-.25-.04-.41.18-.39.35-.79.5-1.2.08-.21.18-.3.41-.32.71-.08,1.42-.16,2.13-.28.9-.15,1.52-.89,1.53-1.81,0-.93,0-1.86,0-2.79ZM73.87,34.02c-.21,4.47-3.92,7.96-8.25,7.76-4.49-.21-7.97-3.91-7.78-8.27.2-4.46,3.91-7.95,8.25-7.76,4.48.19,7.98,3.92,7.78,8.27Z"/>
          <path class="cls-7" d="M66.1,25.75c-4.34-.19-8.06,3.3-8.25,7.76-.19,4.36,3.29,8.07,7.78,8.27,4.33.2,8.04-3.29,8.25-7.76.21-4.35-3.3-8.08-7.78-8.27ZM72.05,33.96c-.16,3.45-3.03,6.15-6.38,6-3.47-.16-6.16-3.02-6.01-6.39.15-3.44,3.02-6.14,6.38-6,3.46.15,6.17,3.03,6.01,6.39Z"/>
        </g>
        <path class="cls-6" d="M66.1,25.75c-4.34-.19-8.06,3.3-8.25,7.76-.19,4.36,3.29,8.07,7.78,8.27,4.33.2,8.04-3.29,8.25-7.76.21-4.35-3.3-8.08-7.78-8.27ZM72.05,33.96c-.16,3.45-3.03,6.15-6.38,6-3.47-.16-6.16-3.02-6.01-6.39.15-3.44,3.02-6.14,6.38-6,3.46.15,6.17,3.03,6.01,6.39Z"/>
      </g>
    </g>
  </g>
  <g id="Top_BGS" data-name="Top BGS">
    <path class="cls-5" d="M119.87,49.4c.13,1.63.13,3.26-.06,4.88-.14,1.17-.35,2.34-.67,3.49-1.72,6.11-6.74,9.88-7.22,16.31-.37,4.98,2.59,9.15-.56,13.93-3.66,5.58-11.99,7.99-21.61,8.51-.43.02-.87.04-1.31.06-11.1.39-23.66-1.61-32.65-4.15-.13-.03-.26-.07-.39-.11-3.41-.98-6.29-2.04-8.34-3.06-11.59-5.79-21.42-16.03-24.56-28.85-.43-1.77-.66-3.58-.73-5.41C14.51,55.51,7.25,55.97,0,56.31v85.43h141.73V50.36c-7.27-.57-14.56-.86-21.86-.96Z"/>
  </g>
  <g id="Texts">
    <g>
      <rect class="cls-4" x="0" y="87.41" width="141.73" height="54.32"/>
      <path class="cls-3" d="M19.91,110.87l.35-.51c.26-.35.53-.37.93-.14.37.26,1.18.83,2.3.83,1.06,0,1.7-.53,1.7-1.3,0-2.16-5.3-1.71-5.3-5.25,0-2,1.66-3.3,3.83-3.3,1.34,0,2.45.51,2.93.86.35.26.4.56.21.91l-.29.53c-.24.46-.58.4-.91.22-.46-.27-1.09-.62-1.97-.62-1.06,0-1.73.51-1.73,1.28,0,2.13,5.3,1.58,5.3,5.2,0,1.84-1.38,3.36-3.76,3.36-1.62,0-2.93-.72-3.49-1.15-.26-.22-.42-.5-.1-.93Z"/>
      <path class="cls-3" d="M29.24,106.32h-.43c-.43,0-.66-.22-.66-.67v-.27c0-.43.22-.67.67-.67h.46v-1.66c0-.43.24-.67.67-.67h.64c.43,0,.67.24.67.67v1.66h1.18c.43,0,.67.24.67.67v.27c0,.45-.24.67-.66.67h-1.2v3.17c0,1.22.75,1.46,1.31,1.52.5.05.67.21.67.66v.5c0,.48-.27.67-.83.67-1.46,0-3.18-.78-3.18-2.99v-3.52Z"/>
      <path class="cls-3" d="M38.76,107.71h.34v-.19c0-1.07-.69-1.44-1.52-1.44-.69,0-1.31.26-1.7.46-.4.18-.7.11-.9-.27l-.16-.3c-.19-.37-.13-.69.26-.9.53-.27,1.46-.67,2.67-.67,2.11,0,3.38,1.18,3.38,3.25v4.43c0,.45-.22.67-.67.67h-.54c-.43,0-.66-.22-.66-.67v-.32c0-.22.03-.35.03-.35h-.03s-.77,1.54-2.56,1.54c-1.49,0-2.71-.96-2.71-2.45,0-2.39,2.95-2.79,4.77-2.79ZM37.24,111.39c1.14,0,1.87-1.15,1.87-2.15v-.3h-.34c-1.02,0-2.77.16-2.77,1.38,0,.54.42,1.07,1.23,1.07Z"/>
      <path class="cls-3" d="M43.36,106.32h-.43c-.43,0-.66-.22-.66-.67v-.27c0-.43.22-.67.67-.67h.46v-1.66c0-.43.24-.67.67-.67h.64c.43,0,.67.24.67.67v1.66h1.18c.43,0,.67.24.67.67v.27c0,.45-.24.67-.66.67h-1.2v3.17c0,1.22.75,1.46,1.31,1.52.5.05.67.21.67.66v.5c0,.48-.27.67-.83.67-1.46,0-3.18-.78-3.18-2.99v-3.52Z"/>
      <path class="cls-3" d="M52.63,104.4c2.48,0,4.5,1.78,4.5,4.27s-2.02,4.27-4.5,4.27-4.48-1.76-4.48-4.27,2-4.27,4.48-4.27ZM52.63,111.22c1.33,0,2.43-1.02,2.43-2.54s-1.1-2.54-2.43-2.54-2.42,1.04-2.42,2.54,1.09,2.54,2.42,2.54Z"/>
      <path class="cls-3" d="M66.26,104.4c2.32,0,3.62,1.65,3.62,3.89,0,.35-.3.69-.7.69h-4.98c.13,1.47,1.22,2.24,2.45,2.24.75,0,1.38-.29,1.76-.53.4-.19.69-.14.9.22l.19.32c.19.37.13.69-.22.9-.53.34-1.49.82-2.77.82-2.71,0-4.39-1.95-4.39-4.27,0-2.51,1.7-4.27,4.15-4.27ZM67.86,107.74c-.03-1.14-.72-1.81-1.65-1.81-1.04,0-1.78.72-1.97,1.81h3.62Z"/>
      <path class="cls-3" d="M71.35,105.26c0-.43.22-.67.66-.67h.62c.43,0,.66.24.66.67v.5c0,.18-.03.37-.03.37h.03c.4-.8,1.39-1.73,2.67-1.73s2.05.58,2.38,1.68h.03c.43-.85,1.5-1.68,2.79-1.68,1.7,0,2.67.96,2.67,3.11v4.58c0,.45-.24.67-.67.67h-.69c-.45,0-.67-.22-.67-.67v-4.19c0-.93-.18-1.63-1.12-1.63-1.38,0-2.08,1.41-2.08,2.83v2.99c0,.45-.22.67-.66.67h-.71c-.43,0-.67-.22-.67-.67v-4.19c0-.88-.13-1.63-1.09-1.63-1.44,0-2.11,1.47-2.11,2.83v2.99c0,.45-.22.67-.66.67h-.7c-.43,0-.66-.22-.66-.67v-6.82Z"/>
      <path class="cls-3" d="M89.68,104.4c2.48,0,4.5,1.78,4.5,4.27s-2.02,4.27-4.5,4.27-4.48-1.76-4.48-4.27,2-4.27,4.48-4.27ZM89.68,111.22c1.33,0,2.43-1.02,2.43-2.54s-1.1-2.54-2.43-2.54-2.42,1.04-2.42,2.54,1.09,2.54,2.42,2.54Z"/>
      <path class="cls-3" d="M96.04,106.32h-.43c-.43,0-.66-.22-.66-.67v-.27c0-.43.22-.67.67-.67h.46v-1.66c0-.43.24-.67.67-.67h.64c.43,0,.67.24.67.67v1.66h1.18c.43,0,.67.24.67.67v.27c0,.45-.24.67-.66.67h-1.2v3.17c0,1.22.75,1.46,1.31,1.52.5.05.67.21.67.66v.5c0,.48-.27.67-.83.67-1.46,0-3.18-.78-3.18-2.99v-3.52Z"/>
      <path class="cls-3" d="M101.41,102.54v-.48c0-.43.22-.67.66-.67h.7c.43,0,.67.24.67.67v.48c0,.43-.24.66-.67.66h-.7c-.43,0-.66-.22-.66-.66ZM101.41,105.26c0-.43.22-.67.66-.67h.7c.43,0,.66.24.66.67v6.82c0,.45-.22.67-.66.67h-.7c-.43,0-.66-.22-.66-.67v-6.82Z"/>
      <path class="cls-3" d="M104.72,105.36c-.16-.46.03-.77.53-.77h.75c.38,0,.64.18.75.56l1.52,4.5c.16.48.3,1.23.3,1.23h.03s.13-.75.29-1.23l1.52-4.5c.11-.38.37-.56.75-.56h.75c.5,0,.7.3.54.77l-2.46,6.85c-.13.38-.37.54-.75.54h-1.28c-.38,0-.64-.16-.75-.54l-2.5-6.85Z"/>
      <path class="cls-3" d="M117.67,104.4c2.48,0,4.5,1.78,4.5,4.27s-2.02,4.27-4.5,4.27-4.48-1.76-4.48-4.27,2-4.27,4.48-4.27ZM117.67,111.22c1.33,0,2.43-1.02,2.43-2.54s-1.1-2.54-2.43-2.54-2.42,1.04-2.42,2.54,1.09,2.54,2.42,2.54Z"/>
      <path class="cls-3" d="M34.1,119.4c2.48,0,4.5,1.78,4.5,4.27s-2.02,4.27-4.5,4.27-4.48-1.76-4.48-4.27,2-4.27,4.48-4.27ZM34.1,126.22c1.33,0,2.43-1.02,2.43-2.54s-1.1-2.54-2.43-2.54-2.42,1.04-2.42,2.54,1.09,2.54,2.42,2.54Z"/>
      <path class="cls-3" d="M48,119.4c1.31,0,2.19.48,2.67.82.34.22.35.56.13.91l-.21.32c-.24.37-.51.37-.9.18-.34-.22-.88-.5-1.58-.5-1.5,0-2.48,1.14-2.48,2.53s.98,2.56,2.54,2.56c.8,0,1.44-.35,1.82-.62.4-.22.7-.18.91.21l.16.3c.19.35.14.67-.18.9-.5.37-1.49.94-2.9.94-2.71,0-4.43-1.9-4.43-4.27s1.73-4.27,4.43-4.27Z"/>
      <path class="cls-3" d="M56.44,119.4c2.48,0,4.5,1.78,4.5,4.27s-2.02,4.27-4.5,4.27-4.48-1.76-4.48-4.27,2-4.27,4.48-4.27ZM56.44,126.22c1.33,0,2.43-1.02,2.43-2.54s-1.1-2.54-2.43-2.54-2.42,1.04-2.42,2.54,1.09,2.54,2.42,2.54Z"/>
      <path class="cls-3" d="M63.94,129.08c.38.14.9.3,1.65.3,1.25,0,2.3-.53,2.3-1.99v-.61c0-.19.03-.42.03-.42h-.03c-.45.77-1.15,1.22-2.24,1.22-2.39,0-3.7-1.89-3.7-4.15s1.25-4.05,3.68-4.05c1.91,0,2.42,1.25,2.42,1.25h.03s-.02-.08-.02-.21v-.3c0-.3.22-.54.66-.54h.54c.43,0,.66.24.66.67v7c0,2.8-2.21,3.86-4.23,3.86-.91,0-1.83-.19-2.39-.43-.42-.18-.53-.45-.35-.86l.13-.37c.18-.4.42-.51.85-.37ZM67.94,123.5c0-1.87-.93-2.37-1.98-2.37-1.26,0-1.95.9-1.95,2.24,0,1.47.74,2.51,2.05,2.51.96,0,1.89-.56,1.89-2.38Z"/>
      <path class="cls-3" d="M71.94,120.26c0-.43.22-.67.66-.67h.62c.43,0,.66.24.66.67v.5c0,.18-.03.37-.03.37h.03c.35-.69,1.25-1.73,2.9-1.73,1.81,0,2.85.94,2.85,3.11v4.58c0,.45-.22.67-.67.67h-.69c-.43,0-.67-.22-.67-.67v-4.16c0-.99-.26-1.67-1.28-1.67-1.44,0-2.35,1.2-2.35,2.67v3.15c0,.45-.22.67-.66.67h-.7c-.43,0-.66-.22-.66-.67v-6.82Z"/>
      <path class="cls-3" d="M81.52,117.54v-.48c0-.43.22-.67.66-.67h.7c.43,0,.67.24.67.67v.48c0,.43-.24.66-.67.66h-.7c-.43,0-.66-.22-.66-.66ZM81.52,120.26c0-.43.22-.67.66-.67h.7c.43,0,.66.24.66.67v6.82c0,.45-.22.67-.66.67h-.7c-.43,0-.66-.22-.66-.67v-6.82Z"/>
      <path class="cls-3" d="M86,121.32h-.43c-.43,0-.66-.22-.66-.67v-.27c0-.43.22-.67.67-.67h.46v-1.66c0-.43.24-.67.67-.67h.64c.43,0,.67.24.67.67v1.66h1.18c.43,0,.67.24.67.67v.27c0,.45-.24.67-.66.67h-1.2v3.17c0,1.22.75,1.46,1.31,1.52.5.05.67.21.67.66v.5c0,.48-.27.67-.83.67-1.46,0-3.18-.78-3.18-2.99v-3.52Z"/>
      <path class="cls-3" d="M91.38,117.54v-.48c0-.43.22-.67.66-.67h.7c.43,0,.67.24.67.67v.48c0,.43-.24.66-.67.66h-.7c-.43,0-.66-.22-.66-.66ZM91.38,120.26c0-.43.22-.67.66-.67h.7c.43,0,.66.24.66.67v6.82c0,.45-.22.67-.66.67h-.7c-.43,0-.66-.22-.66-.67v-6.82Z"/>
      <path class="cls-3" d="M94.69,120.36c-.16-.46.03-.77.53-.77h.75c.38,0,.64.18.75.56l1.52,4.5c.16.48.3,1.23.3,1.23h.03s.13-.75.29-1.23l1.52-4.5c.11-.38.37-.56.75-.56h.75c.5,0,.7.3.54.77l-2.46,6.85c-.13.38-.37.54-.75.54h-1.28c-.38,0-.64-.16-.75-.54l-2.5-6.85Z"/>
      <path class="cls-3" d="M107.63,119.4c2.48,0,4.5,1.78,4.5,4.27s-2.02,4.27-4.5,4.27-4.48-1.76-4.48-4.27,2-4.27,4.48-4.27ZM107.63,126.22c1.33,0,2.43-1.02,2.43-2.54s-1.1-2.54-2.43-2.54-2.42,1.04-2.42,2.54,1.09,2.54,2.42,2.54Z"/>
    </g>
    <rect class="cls-4" x="0" y="87.41" width="141.73" height="54.32"/>
  </g>
</svg>