<?xml version="1.0" encoding="UTF-8"?>
<svg xmlns="http://www.w3.org/2000/svg" viewBox="0 0 141.73 141.73">
  <defs>
    <style>
      .cls-1 {
        fill: #fecc95;
      }

      .cls-2 {
        fill: #f1f2f2;
      }

      .cls-3 {
        fill: none;
      }

      .cls-4 {
        fill: #e5b17e;
      }

      .cls-5 {
        fill: #55b6cf;
      }

      .cls-6 {
        fill: #fcb44a;
        stroke: #fcb44a;
        stroke-miterlimit: 10;
        stroke-width: .5px;
      }
    </style>
  </defs>
  <g id="Bottom_BGS" data-name="Bottom BGS">
    <path class="cls-6" d="M46.9,16.2c9.17-3.63,27.13-7.31,37.31,1.17,3.94,3.28,4.83,5.66,9.77,8.95,5.34,3.56,12.18,3.19,17.97,5.62,1.37.57,2.64,1.29,3.83,2.13,7.16,5.08,9.56,14.24,10.36,19.74,5.2-.63,10.4-1.35,15.6-2.15V0H0v49.8c5.17,1,10.33,1.9,15.5,2.69,2.34-18,18.49-31.18,31.4-36.29Z"/>
  </g>
  <g id="Elements">
    <g>
      <path class="cls-1" d="M50.35,12.71c6.81-1.74,13.22-1.78,19.49.39,7.64,2.64,12.75,8.05,16.18,15.28,2.91,6.12,3.52,12.57,3.48,19.19-.02,4-.2,8,.32,11.99.59,4.49,3.01,8.07,5.62,11.57,4.26,5.73,4.52,11.95,1.85,18.33-1.63,3.88-4.91,6.14-8.8,7.42-8,2.63-15.75,1.31-23.31-1.79-14.24-5.84-23.89-16.28-29.57-30.38-4.01-9.96-5.56-20.38-4.12-31.08,1.05-7.79,4.59-14.15,11.61-18.19,2.38-1.37,4.92-2.34,7.24-2.73ZM46.36,54.05c-1.18-3.85-1.28-7.78-.75-11.74.43-3.18,1.39-6.22,3.29-8.83,3.05-4.17,7.25-6.25,12.41-6.49,5.3-.24,9.7,1.21,12.23,6.31.44.89.79,1.83,1.21,2.74.58,1.26,2.33,2.06,3.47,1.62,1.43-.56,2.37-2.12,1.87-3.51-1.47-4.11-3.64-7.81-7.41-10.21-4.03-2.56-8.52-2.94-13.19-2.43-8.84.97-14.82,5.69-17.94,13.88-3.26,8.55-2.21,17.06.92,25.43.63,1.67,2.28,2.63,3.59,2.14,1.64-.62,2.51-2.41,1.73-4.13-.7-1.55-.98-3.19-1.43-4.79ZM53.79,70.6c.14,2.38,1.48,4.41,4.07,5.58,1.24.56,2.55.82,3.87.98,2.54.31,5.08.6,7.42,1.78,1.39.7,2.78,1.42,4.23,1.98,2.87,1.11,5.72,1.13,8.18-.99,2.43-2.1,2.51-4.79,1.57-7.65-1.05-3.22-1.57-3.43-4.33-1.63-.37.24-.69.57-1.09.77-.84.43-.91,1.03-.47,1.78.43.73,1.01,1.56.41,2.3-.7.87-1.64.25-2.46-.05-.37-.13-.73-.28-1.08-.44-2.63-1.2-5.15-2.68-8.08-3.08-1.6-.22-3.2-.42-4.79-.65-1.01-.15-1.94-.66-2.09-1.66-.4-2.7-.58-5.44.73-8,2.49-4.88,6.95-8.27,13.35-7.21,1.96.32,3.25-.61,3.5-2.22.24-1.57-.75-2.85-2.61-3.31-2.49-.62-4.93-.36-7.42.18-8.73,1.88-15.57,11.99-12.9,21.53ZM75.55,58.7c-.65.24-1.6.55-2.51.95-2.34,1.04-4.29,2.56-5.48,4.88-.75,1.47-.34,2.9,1.01,3.77,1.38.89,2.78.76,3.65-.6,1.43-2.25,3.49-3.24,6.02-3.61,1.4-.2,2.43-1.84,2.15-3.25-.4-2.04-2.02-2.83-4.84-2.15Z"/>
      <path class="cls-5" d="M94.15,58.94c-1.84.44-3.67.91-5.52,1.32-1.64.36-3.12-.54-3.48-2.05-.34-1.42.49-2.96,2.04-3.36,3.77-.98,7.56-1.89,11.36-2.74,1.59-.35,2.82.6,3.17,2.21.32,1.52-.37,2.81-1.89,3.23-1.88.52-3.78.93-5.68,1.39Z"/>
      <path class="cls-5" d="M99.44,69.39c-.58.23-1.25.1-1.91.05-2.54-.21-5.09-.39-7.63-.67-1.81-.2-2.97-1.53-2.83-3.1.15-1.71,1.48-2.75,3.38-2.6,2.87.23,5.75.45,8.62.77,1.45.16,2.52.95,2.69,2.51.17,1.58-.68,2.65-2.33,3.04Z"/>
      <path class="cls-5" d="M95.22,41.16c1.75-.42,2.88-.02,3.52,1.21.66,1.29.7,2.7-.63,3.59-2.72,1.82-5.48,3.6-8.33,5.21-1.24.7-2.54.08-3.39-1-.84-1.08-.91-2.5.1-3.35,2.76-2.33,5.99-3.98,8.74-5.66Z"/>
      <path class="cls-4" d="M46.36,54.05c.45,1.6.73,3.24,1.43,4.79.77,1.72-.09,3.51-1.73,4.13-1.31.5-2.96-.47-3.59-2.14-3.14-8.38-4.18-16.89-.92-25.43,3.12-8.19,9.1-12.91,17.94-13.88,4.67-.51,9.16-.13,13.19,2.43,3.78,2.4,5.94,6.09,7.41,10.21.5,1.39-.44,2.95-1.87,3.51-1.14.45-2.89-.36-3.47-1.62-.42-.91-.77-1.84-1.21-2.74-2.53-5.09-6.93-6.55-12.23-6.31-5.16.23-9.36,2.31-12.41,6.49-1.91,2.61-2.87,5.65-3.29,8.83-.53,3.95-.43,7.88.75,11.74Z"/>
      <path class="cls-4" d="M53.79,70.6c-2.67-9.55,4.17-19.66,12.9-21.53,2.49-.54,4.93-.79,7.42-.18,1.86.46,2.85,1.74,2.61,3.31-.25,1.61-1.54,2.54-3.5,2.22-6.4-1.06-10.85,2.33-13.35,7.21-1.3,2.56-1.13,5.29-.73,8,.15,1.01,1.08,1.52,2.09,1.66,1.6.23,3.2.43,4.79.65,2.93.4,5.45,1.88,8.08,3.08.35.16.72.3,1.08.44.82.3,1.76.91,2.46.05.6-.74.02-1.58-.41-2.3-.44-.75-.37-1.35.47-1.78.39-.2.71-.53,1.09-.77,2.76-1.8,3.28-1.59,4.33,1.63.93,2.86.85,5.56-1.57,7.65-2.45,2.12-5.3,2.09-8.18.99-1.45-.56-2.83-1.28-4.23-1.98-2.34-1.17-4.88-1.46-7.42-1.78-1.32-.16-2.64-.42-3.87-.98-2.59-1.17-3.93-3.2-4.07-5.58Z"/>
      <path class="cls-4" d="M75.55,58.7c2.81-.69,4.44.1,4.84,2.15.28,1.4-.75,3.04-2.15,3.25-2.52.37-4.59,1.36-6.02,3.61-.86,1.36-2.26,1.49-3.65.6-1.36-.88-1.77-2.31-1.01-3.77,1.19-2.33,3.13-3.85,5.48-4.88.91-.4,1.86-.7,2.51-.95Z"/>
    </g>
  </g>
  <g id="Top_BGS" data-name="Top BGS">
    <path class="cls-6" d="M126.13,53.82c.35,2.43.4,4.15.4,4.49.12,14.1-8.78,23.52-11.09,25.97-7.1,7.52-15.11,5.21-21.19,7.17-7.9,2.56-31.52,10.2-53.66-2.71-4.62-2.7-23.53-8.73-25.25-28.82-.22-2.56-.14-5.05.17-7.45-5.17-.79-10.33-1.68-15.5-2.69v91.93h141.73V51.67c-5.2.81-10.4,1.53-15.6,2.15Z"/>
  </g>
  <g id="Texts">
    <g>
      <rect class="cls-3" x="0" y="87.41" width="141.73" height="54.32"/>
      <path class="cls-2" d="M51.67,109.56c0-.43.22-.67.66-.67h.72c.45,0,.67.24.67.67v6.59c0,1.54.99,2.4,2.51,2.4s2.53-.86,2.53-2.4v-6.59c0-.43.22-.67.66-.67h.74c.43,0,.66.24.66.67v6.61c0,2.54-1.83,4.27-4.56,4.27s-4.58-1.73-4.58-4.27v-6.61Z"/>
      <path class="cls-2" d="M66.1,111.9c1.79,0,2.38,1.17,2.38,1.17h.03s-.03-.21-.03-.46v-3.04c0-.43.22-.67.66-.67h.71c.43,0,.66.24.66.67v10.02c0,.45-.22.67-.66.67h-.59c-.43,0-.66-.21-.66-.61v-.32c0-.16.03-.29.03-.29h-.03s-.69,1.41-2.56,1.41c-2.21,0-3.63-1.74-3.63-4.27s1.54-4.27,3.7-4.27ZM66.48,118.73c1.06,0,2.05-.77,2.05-2.58,0-1.26-.66-2.51-2.03-2.51-1.1,0-2.05.91-2.05,2.53s.83,2.56,2.03,2.56Z"/>
      <path class="cls-2" d="M72.53,110.04v-.48c0-.43.22-.67.66-.67h.7c.43,0,.67.24.67.67v.48c0,.43-.24.66-.67.66h-.7c-.43,0-.66-.22-.66-.66ZM72.53,112.76c0-.43.22-.67.66-.67h.7c.43,0,.66.24.66.67v6.82c0,.45-.22.67-.66.67h-.7c-.43,0-.66-.22-.66-.67v-6.82Z"/>
      <path class="cls-2" d="M77.01,113.82h-.43c-.43,0-.66-.22-.66-.67v-.27c0-.43.22-.67.67-.67h.46v-1.66c0-.43.24-.67.67-.67h.64c.43,0,.67.24.67.67v1.66h1.18c.43,0,.67.24.67.67v.27c0,.45-.24.67-.66.67h-1.2v3.17c0,1.22.75,1.46,1.31,1.52.5.05.67.21.67.66v.5c0,.48-.27.67-.83.67-1.46,0-3.18-.78-3.18-2.99v-3.52Z"/>
      <path class="cls-2" d="M86.28,111.9c2.48,0,4.5,1.78,4.5,4.27s-2.02,4.27-4.5,4.27-4.48-1.76-4.48-4.27,2-4.27,4.48-4.27ZM86.28,118.72c1.33,0,2.43-1.02,2.43-2.54s-1.1-2.54-2.43-2.54-2.42,1.04-2.42,2.54,1.09,2.54,2.42,2.54Z"/>
    </g>
  </g>
</svg>