<?xml version="1.0" encoding="UTF-8"?>
<svg xmlns="http://www.w3.org/2000/svg" viewBox="0 0 141.73 141.73">
  <defs>
    <style>
      .cls-1 {
        fill: #f1f2f2;
      }

      .cls-2 {
        fill: #ec724a;
      }

      .cls-3 {
        fill: none;
      }

      .cls-4 {
        fill: #a1b860;
        stroke: #a1b860;
        stroke-miterlimit: 10;
        stroke-width: .5px;
      }

      .cls-5 {
        fill: #68a2a3;
      }

      .cls-6 {
        fill: #f9f3e4;
      }

      .cls-7 {
        fill: #55b6cf;
      }

      .cls-8 {
        fill: #fcb44a;
      }
    </style>
  </defs>
  <g id="Bottom_BGS" data-name="Bottom BGS">
    <path class="cls-4" d="M36.17,38.23c.31-.16.62-.32.94-.48,7.64-3.79,16.08-6.25,23.18-10.8,1.41-.9,2.76-1.88,4.04-2.97.55-.47,1.08-.95,1.61-1.45.01,0,.02-.01.03-.02,1.32-1.26,2.58-2.61,3.84-3.94.61-.65,1.21-1.29,1.82-1.93,2.54-2.62,5.18-5.06,8.45-6.62,6.92-3.31,15.14-1.97,22.4.47,1.66.56,3.34,1.22,4.99,1.98,1.83.85,3.63,1.82,5.31,2.91,4.79,3.09,8.76,7.15,10.51,12.13.27.75.48,1.52.64,2.31.16.78.26,1.59.31,2.41.48,8.83-5.94,16.35-9.1,24.61-.49,1.29-.9,2.61-1.28,3.94,9.3-1.09,18.59-2.44,27.85-3.99V0H0v57.72c5.89,1.21,11.79,2.22,17.7,3.05,1.4-9.06,8.69-17.4,18.47-22.54Z"/>
  </g>
  <g id="Elements">
    <g>
      <path class="cls-6" d="M59.58,24.64c0,1.28-.02,2.55.01,3.83.02.6-.12.88-.8.87-2.62-.04-5.24-.03-7.86,0-.59,0-.8-.17-.79-.78.03-2.62.02-5.24,0-7.86,0-.57.12-.82.76-.81,2.65.03,5.3.02,7.96,0,.55,0,.75.16.74.73-.03,1.34-.01,2.68-.01,4.03Z"/>
      <path class="cls-6" d="M75.12,24.65c0,1.31-.02,2.62,0,3.93.01.54-.14.76-.72.75-2.69-.02-5.37-.02-8.06,0-.52,0-.68-.18-.68-.69.02-2.69.02-5.37,0-8.06,0-.6.25-.7.77-.7,2.65.02,5.31.02,7.96,0,.56,0,.74.18.73.73-.03,1.34-.01,2.69,0,4.03Z"/>
      <path class="cls-6" d="M85.95,19.9c1.31,0,2.62.01,3.93,0,.5,0,.78.08.78.69-.03,2.68-.02,5.37,0,8.05,0,.59-.25.7-.77.7-2.65-.02-5.3-.02-7.96,0-.57,0-.73-.2-.72-.74.02-2.65.03-5.3,0-7.96,0-.64.26-.76.82-.75,1.31.03,2.62,0,3.93,0Z"/>
      <path class="cls-6" d="M54.75,44.76c-1.28,0-2.56-.03-3.84.01-.61.02-.78-.22-.78-.8.02-2.59.03-5.18,0-7.77,0-.62.23-.77.81-.77,2.62.02,5.25.03,7.87,0,.62,0,.77.22.77.8-.03,2.59-.03,5.18,0,7.77,0,.62-.21.79-.8.77-1.34-.03-2.69-.01-4.03-.01Z"/>
      <path class="cls-6" d="M70.4,44.76c-1.31,0-2.62-.02-3.93,0-.58.01-.81-.15-.8-.77.03-2.62.03-5.24,0-7.86,0-.57.21-.72.75-.72,2.65.02,5.3.02,7.95,0,.53,0,.76.13.75.71-.02,2.62-.03,5.24,0,7.86,0,.61-.21.79-.8.77-1.31-.03-2.62-.01-3.93-.01Z"/>
      <path class="cls-6" d="M85.89,44.76c-1.31,0-2.62-.02-3.94,0-.55.01-.74-.18-.74-.73.02-2.62.02-5.25,0-7.87,0-.55.17-.74.73-.74,2.66.02,5.31.02,7.97,0,.55,0,.75.16.75.73-.02,2.62-.02,5.25,0,7.87,0,.55-.18.75-.74.74-1.34-.03-2.69,0-4.03,0Z"/>
      <g>
        <path class="cls-8" d="M97.52,12.51c.02,2.55.04,5.11.06,7.66,0,1.91,0,3.81,0,5.72,0,.43-.02.85-.02,1.28,0,17.93,0,35.85,0,53.78,0,.46-.02.92-.02,1.38-2.81,0-5.62,0-8.43-.01,0-9.64-.02-19.29,0-28.93,0-.95-.24-1.2-1.19-1.19-11.65.03-23.29.02-34.94.02q-1.27,0-1.27,1.27c0,9.61-.01,19.22-.02,28.84-2.81,0-5.62,0-8.42.01,0-.43-.03-.85-.03-1.28,0-15.04,0-30.09,0-45.13,0-3.34-.01-6.69-.02-10.03,0-1.91,0-3.81,0-5.72.02-2.55.04-5.1.06-7.66.29-.01.59-.04.88-.04,17.49,0,34.99,0,52.48,0,.29,0,.59.02.88.04ZM59.58,24.64c0-1.34-.02-2.69.01-4.03.01-.56-.19-.73-.74-.73-2.65.02-5.3.03-7.96,0-.64,0-.76.25-.76.81.02,2.62.03,5.24,0,7.86,0,.61.2.79.79.78,2.62-.03,5.24-.03,7.86,0,.69,0,.82-.26.8-.87-.04-1.28-.01-2.55-.01-3.83ZM75.12,24.65c0-1.34-.02-2.69.01-4.03.01-.55-.17-.74-.73-.73-2.65.02-5.31.02-7.96,0-.51,0-.77.1-.77.7.03,2.69.02,5.37,0,8.06,0,.5.16.69.68.69,2.69-.02,5.37-.02,8.06,0,.57,0,.73-.21.72-.75-.03-1.31,0-2.62,0-3.93ZM85.95,19.9c-1.31,0-2.62.02-3.93,0-.56-.01-.82.1-.82.75.03,2.65.02,5.3,0,7.96,0,.55.16.75.72.74,2.65-.02,5.3-.02,7.96,0,.52,0,.77-.11.77-.7-.02-2.68-.03-5.37,0-8.05,0-.61-.28-.7-.78-.69-1.31.02-2.62,0-3.93,0ZM54.75,44.76c1.34,0,2.69-.02,4.03.01.59.01.81-.16.8-.77-.03-2.59-.03-5.18,0-7.77,0-.58-.15-.81-.77-.8-2.62.03-5.25.03-7.87,0-.58,0-.81.15-.81.77.03,2.59.03,5.18,0,7.77,0,.59.16.82.78.8,1.28-.04,2.56-.01,3.84-.01ZM70.4,44.76c1.31,0,2.62-.02,3.93.01.58.01.8-.16.8-.77-.03-2.62-.03-5.24,0-7.86,0-.58-.22-.72-.75-.71-2.65.02-5.3.02-7.95,0-.54,0-.75.15-.75.72.02,2.62.03,5.24,0,7.86,0,.62.23.78.8.77,1.31-.03,2.62,0,3.93-.01ZM85.89,44.76c1.34,0,2.69-.02,4.03,0,.56.01.74-.19.74-.74-.02-2.62-.02-5.25,0-7.87,0-.57-.2-.73-.75-.73-2.66.02-5.31.02-7.97,0-.56,0-.73.19-.73.74.02,2.62.02,5.25,0,7.87,0,.56.18.75.74.73,1.31-.03,2.62,0,3.94,0Z"/>
        <path class="cls-2" d="M43.23,25.89c0,3.34.02,6.69.02,10.03,0,15.04,0,30.09,0,45.13,0,.43.02.85.03,1.28-1.12,3.15-2.24,6.3-3.36,9.45-.39.02-.78.06-1.17.06-3.42,0-6.84,0-10.26,0-.01-.33-.03-.65-.03-.98,0-21.32,0-42.64,0-63.96,0-.33.03-.65.04-.98,4.91-.01,9.83-.02,14.74-.04Z"/>
        <path class="cls-2" d="M97.53,82.32c0-.46.02-.92.02-1.38,0-17.93,0-35.85,0-53.78,0-.43.01-.85.02-1.28,4.91.01,9.83.02,14.74.04.01.29.04.59.04.88,0,21.38,0,42.77,0,64.15,0,.29-.02.59-.03.88-.42,0-.85,0-1.27,0-3.39-.02-6.77-.04-10.16-.07-1.12-3.15-2.24-6.3-3.36-9.46Z"/>
        <path class="cls-7" d="M112.38,91.95c.95,0,1.9,0,2.85-.02.47-.01.63.17.62.63-.02,1.48-.02,2.95,0,4.43,0,.53-.2.71-.69.66-.19-.02-.39,0-.59,0-29.45,0-58.9,0-88.35,0-1.41,0-1.27.17-1.27-1.25,0-1.25.02-2.49-.01-3.74-.01-.55.16-.76.73-.74.92.04,1.84.02,2.75.02.82,0,1.64.03,2.46.03,9.44,0,18.89-.02,28.33-.03,2.82,0,5.64,0,8.46-.02,1.55,0,1.34.19,1.34-1.37.02-8.5.02-16.99.03-25.49.9,0,1.8,0,2.7,0,0,.39.03.79.03,1.18,0,8.23.01,16.47-.01,24.7,0,.75.17,1.01.97,1,2.95-.04,5.9,0,8.86,0,5.05,0,10.1.01,15.15.01,5.21,0,10.43,0,15.64-.01Z"/>
        <path class="cls-7" d="M97.52,12.51c-.29-.01-.59-.04-.88-.04-17.49,0-34.99,0-52.48,0-.29,0-.59.02-.88.04-.92-.02-1.83-.06-2.75-.04-.52.01-.69-.17-.68-.68.02-1.48.02-2.95,0-4.43,0-.47.18-.66.64-.62.2.02.39,0,.59,0,19.55,0,39.09,0,58.64-.02.98,0,1.32.21,1.25,1.23-.1,1.27-.04,2.56-.02,3.84.01.51-.16.69-.68.68-.92-.02-1.83.02-2.75.04Z"/>
        <path class="cls-7" d="M43.23,25.89c-4.91.01-9.83.02-14.74.04-.91-.02-1.83-.07-2.74-.05-.57.01-.82-.13-.8-.76.04-1.41.04-2.82,0-4.22-.02-.64.25-.75.81-.75,5.82.02,11.65.02,17.47.03,0,1.91,0,3.81,0,5.72Z"/>
        <path class="cls-7" d="M112.31,25.92c-4.91-.01-9.83-.02-14.74-.04,0-1.91,0-3.81,0-5.72,5.82,0,11.65,0,17.47-.03.56,0,.83.11.81.75-.04,1.41-.04,2.81,0,4.22.02.63-.23.78-.8.76-.91-.02-1.83.03-2.74.05Z"/>
        <path class="cls-5" d="M59.21,91.95c-9.44,0-18.89.02-28.33.03-.82,0-1.64-.02-2.46-.03.01-.04.03-.08.06-.11,3.42,0,6.84,0,10.26,0,.39,0,.78-.04,1.17-.06,5.06,0,10.12-.01,15.18-.02,1.35.18,2.71.04,4.07.08.02.04.04.07.05.11Z"/>
        <path class="cls-5" d="M112.38,91.95c-5.21,0-10.43.01-15.64.01-5.05,0-10.1,0-15.15-.01.02-.04.03-.08.05-.11,1.36-.04,2.72.09,4.07-.08,5.06,0,10.12.01,15.18.02,3.39.02,6.77.05,10.16.07.42,0,.85,0,1.27,0,.03.03.05.07.06.11Z"/>
        <path class="cls-2" d="M85.71,91.76c-1.35.18-2.71.04-4.07.08,0-.43-.02-.85-.02-1.28,0-8.16,0-16.33,0-24.49,0-.5.17-1.05-.72-1.04-3.05.05-6.1.04-9.15.05-.9,0-1.8,0-2.7,0-2.88-.01-5.77.03-8.65-.06-1.01-.03-1.24.26-1.23,1.25.03,8.53,0,17.05,0,25.58-1.36-.04-2.72.09-4.07-.08-1.05-3.18-2.18-6.33-3.39-9.45,0-9.61.01-19.22.02-28.84q0-1.27,1.27-1.27c11.65,0,23.29.01,34.94-.02.95,0,1.2.24,1.19,1.19-.03,9.64-.01,19.29,0,28.93-1.21,3.12-2.35,6.27-3.39,9.45Z"/>
        <path class="cls-7" d="M51.7,82.31c1.21,3.12,2.35,6.27,3.39,9.45-5.06,0-10.12.01-15.18.02,1.12-3.15,2.24-6.3,3.36-9.45,2.81,0,5.62,0,8.42-.01Z"/>
        <path class="cls-7" d="M85.71,91.76c1.05-3.18,2.18-6.33,3.39-9.45,2.81,0,5.62,0,8.43.01,1.12,3.15,2.24,6.3,3.36,9.46-5.06,0-10.12-.01-15.18-.02Z"/>
        <path class="cls-6" d="M59.16,91.84c0-8.53.03-17.05,0-25.58,0-.99.22-1.28,1.23-1.25,2.88.08,5.77.05,8.65.06,0,8.5-.02,16.99-.03,25.49,0,1.56.21,1.36-1.34,1.37-2.82.02-5.64.02-8.46.02-.02-.04-.03-.08-.05-.11Z"/>
        <path class="cls-6" d="M71.75,65.07c3.05-.01,6.1,0,9.15-.05.88-.01.72.54.72,1.04,0,8.16,0,16.33,0,24.49,0,.43.02.85.02,1.28-.02.04-.04.08-.05.11-2.95,0-5.9-.04-8.86,0-.8.01-.97-.24-.97-1,.03-8.23.02-16.47.01-24.7,0-.39-.02-.79-.03-1.18Z"/>
      </g>
    </g>
  </g>
  <g id="Top_BGS" data-name="Top BGS">
    <path class="cls-4" d="M113.89,60.77c-.99,3.52-1.21,7.32-2.82,10.6-5.52,11.29-13.01,15.19-24.15,20.48-1.43.68-2.9,1.29-4.4,1.84-1.8.65-3.64,1.2-5.5,1.63-1.31.31-2.64.56-3.97.75-1.72.25-3.45.4-5.18.45-1.3.04-2.59.02-3.89-.06-1.77-.1-3.53-.32-5.27-.65-1.39-.27-2.76-.61-4.12-1.02-.19-.06-.39-.12-.59-.18-11.57-3.72-21.15-5.91-29.53-14.71-5.88-6.18-7.75-12.83-6.77-19.14-5.91-.83-11.81-1.85-17.7-3.05v84.02h141.73V56.78c-9.26,1.55-18.55,2.9-27.85,3.99Z"/>
  </g>
  <g id="Texts">
    <g>
      <rect class="cls-3" x="0" y="87.41" width="141.73" height="54.32"/>
      <path class="cls-1" d="M46.89,118.36l.35-.51c.26-.35.53-.37.93-.14.37.26,1.18.83,2.3.83,1.06,0,1.7-.53,1.7-1.3,0-2.16-5.3-1.71-5.3-5.25,0-2,1.66-3.3,3.83-3.3,1.34,0,2.45.51,2.93.86.35.26.4.56.21.91l-.29.53c-.24.46-.58.4-.91.22-.46-.27-1.09-.62-1.97-.62-1.06,0-1.73.51-1.73,1.28,0,2.13,5.3,1.58,5.3,5.2,0,1.84-1.38,3.36-3.76,3.36-1.62,0-2.93-.72-3.49-1.15-.26-.22-.42-.5-.1-.93Z"/>
      <path class="cls-1" d="M59.79,111.9c1.31,0,2.19.48,2.67.82.34.22.35.56.13.91l-.21.32c-.24.37-.51.37-.9.18-.34-.22-.88-.5-1.58-.5-1.5,0-2.48,1.14-2.48,2.53s.98,2.56,2.55,2.56c.8,0,1.44-.35,1.82-.62.4-.22.7-.18.91.21l.16.3c.19.35.14.67-.18.9-.5.37-1.49.94-2.9.94-2.71,0-4.43-1.91-4.43-4.27s1.73-4.27,4.43-4.27Z"/>
      <path class="cls-1" d="M64.24,112.76c0-.43.24-.67.67-.67h.69c.45,0,.67.24.67.67v4.16c0,.99.26,1.67,1.26,1.67,1.47,0,2.29-1.3,2.29-2.75v-3.07c0-.43.22-.67.67-.67h.69c.43,0,.67.24.67.67v6.82c0,.45-.24.67-.67.67h-.62c-.43,0-.66-.22-.66-.67v-.48c0-.19.03-.37.03-.37h-.03c-.38.83-1.44,1.71-2.83,1.71-1.75,0-2.83-.88-2.83-3.11v-4.58Z"/>
      <path class="cls-1" d="M77.82,111.9c2.48,0,4.5,1.78,4.5,4.27s-2.02,4.27-4.5,4.27-4.48-1.76-4.48-4.27,2-4.27,4.48-4.27ZM77.82,118.72c1.33,0,2.43-1.02,2.43-2.54s-1.1-2.54-2.43-2.54-2.42,1.04-2.42,2.54,1.09,2.54,2.42,2.54Z"/>
      <path class="cls-1" d="M83.79,109.56c0-.43.22-.67.66-.67h.7c.43,0,.66.24.66.67v7.99c0,.8.34.94.64.98.29.03.5.21.5.58v.54c0,.42-.19.69-.67.69-1.09,0-2.48-.29-2.48-2.62v-8.15Z"/>
      <path class="cls-1" d="M92.41,115.21h.34v-.19c0-1.07-.69-1.44-1.52-1.44-.69,0-1.31.26-1.7.46-.4.18-.7.11-.9-.27l-.16-.3c-.19-.37-.13-.69.26-.9.53-.27,1.46-.67,2.67-.67,2.11,0,3.38,1.18,3.38,3.25v4.43c0,.45-.22.67-.67.67h-.54c-.43,0-.66-.22-.66-.67v-.32c0-.22.03-.35.03-.35h-.03s-.77,1.54-2.56,1.54c-1.49,0-2.71-.96-2.71-2.45,0-2.38,2.95-2.79,4.77-2.79ZM90.89,118.89c1.14,0,1.87-1.15,1.87-2.14v-.3h-.34c-1.02,0-2.77.16-2.77,1.38,0,.54.42,1.07,1.23,1.07Z"/>
    </g>
  </g>
</svg>