<?xml version="1.0" encoding="UTF-8"?>
<svg xmlns="http://www.w3.org/2000/svg" xmlns:xlink="http://www.w3.org/1999/xlink" viewBox="0 0 141.73 141.73">
  <defs>
    <style>
      .cls-1 {
        fill: #f1f2f2;
      }

      .cls-2 {
        fill: #676767;
      }

      .cls-3 {
        fill: #fff;
      }

      .cls-4, .cls-5 {
        fill: none;
      }

      .cls-6 {
        fill: #e5e7f3;
      }

      .cls-7 {
        fill: #f15b5c;
      }

      .cls-5 {
        stroke: #fff;
        stroke-linecap: round;
        stroke-linejoin: round;
        stroke-width: 1.5px;
      }

      .cls-8 {
        fill: #f592a1;
      }

      .cls-9 {
        fill: #ec724a;
        stroke: #ec724a;
        stroke-miterlimit: 10;
        stroke-width: .5px;
      }

      .cls-10 {
        fill: #ffd543;
      }

      .cls-11 {
        fill: #f7a3a4;
      }

      .cls-12 {
        clip-path: url(#clippath);
      }
    </style>
    <clipPath id="clippath">
      <rect class="cls-4" x="0" y="0" width="141.73" height="141.73"/>
    </clipPath>
  </defs>
  <g id="Bottom_BGS" data-name="Bottom BGS">
    <path class="cls-9" d="M36.17,38.23c.31-.16.62-.32.94-.48,7.64-3.79,16.08-6.25,23.18-10.8,1.41-.9,2.76-1.88,4.04-2.97.55-.47,1.08-.95,1.61-1.45.01,0,.02-.01.03-.02,1.32-1.26,2.58-2.61,3.84-3.94.61-.65,1.21-1.29,1.82-1.93,2.54-2.62,5.18-5.06,8.45-6.62,6.92-3.31,15.14-1.97,22.4.47,1.66.56,3.34,1.22,4.99,1.98,1.83.85,3.63,1.82,5.31,2.91,4.79,3.09,8.76,7.15,10.51,12.13.27.75.48,1.52.64,2.31.16.78.26,1.59.31,2.41.48,8.83-5.94,16.35-9.1,24.61-.49,1.29-.9,2.61-1.28,3.94,9.3-1.09,18.59-2.44,27.85-3.99V0H0v57.72c5.89,1.21,11.79,2.22,17.7,3.05,1.4-9.06,8.69-17.4,18.47-22.54Z"/>
  </g>
  <g id="Elements">
    <g>
      <g class="cls-12">
        <g>
          <path class="cls-7" d="M100.89,98.86c.21.09.42.2.62.29-1.16,2.88-2.31,5.77-3.48,8.65-.24.6-.49,1.28.25,1.59.75.32,1.05-.34,1.29-.94,1.14-2.89,2.29-5.77,3.44-8.66,1.57.61,3.14,1.22,4.7,1.83-4.89,12.17-9.79,24.34-14.68,36.52-16.81-6.75-33.62-13.51-50.43-20.26,2.54-6.34,5.06-12.69,7.61-19.03,2.35-5.84,4.72-11.67,7.07-17.5,14.53,5.84,29.06,11.68,43.6,17.52ZM84.93,113.65c2.13-5.39-.52-11.51-5.93-13.67-5.31-2.12-11.51.54-13.62,5.84-2.14,5.37.53,11.51,5.93,13.67,5.3,2.12,11.52-.55,13.61-5.84ZM96.19,114.64c.86.33,1.17-.42,1.45-1.06.27-.63.45-1.36-.31-1.67-.9-.36-1.13.46-1.38,1.09-.25.6-.61,1.31.24,1.64Z"/>
          <path class="cls-6" d="M93.04,138.13c-16.81-6.75-33.62-13.51-50.43-20.26-1.74,4.33-3.49,8.67-5.23,13,.24.11.48.24.73.34,16.32,6.56,32.63,13.12,48.95,19.68.25.1.51.18.76.26,1.74-4.34,3.48-8.67,5.22-13.01Z"/>
          <path class="cls-6" d="M103.02,99.78c1.57.61,3.14,1.22,4.7,1.83,1.75-4.33,3.49-8.67,5.24-13-.24-.11-.48-.24-.73-.34-16.32-6.56-32.63-13.12-48.95-19.68-.25-.1-.51-.18-.76-.26-1.74,4.33-3.48,8.67-5.22,13,14.53,5.84,29.06,11.68,43.6,17.52.21.09.42.2.62.29,0-.04,0-.08.04-.11.25-.6.49-1.2.74-1.8.2-.48.56-.58,1.02-.39.47.19.64.51.46,1-.23.6-.47,1.21-.71,1.81,0,.05-.01.09-.04.12Z"/>
          <path class="cls-6" d="M87.53,54.77c-2.75-.01-5.49.14-8.16.89-4.5,1.27-8.63,3.21-11.94,6.62.24.11.48.24.73.34,14.89,5.99,29.78,11.97,44.68,17.96.25.1.51.18.76.26,0-2.74-.63-5.37-1.55-7.92-1.62-4.46-4.28-8.23-7.77-11.43-5.58-2.24-11.16-4.48-16.74-6.73Z"/>
          <path class="cls-7" d="M113.6,80.84c-.25-.09-.51-.16-.76-.26-14.89-5.98-29.79-11.97-44.68-17.96-.25-.1-.49-.22-.73-.34-.86-.33-1.71-.66-2.57-.99-2.07-.8-4.21.05-4.98,1.97-.76,1.88.14,3.92,2.12,4.83.17.08.34.17.52.25.25.09.51.16.76.26,16.32,6.56,32.64,13.12,48.95,19.68.25.1.49.22.73.34,1.33.55,2.67.7,3.94-.13,1.18-.77,1.77-1.87,1.68-3.29-.09-1.47-.82-2.52-2.14-3.15-.93-.44-1.9-.8-2.85-1.2Z"/>
          <path class="cls-7" d="M87.82,151.14c-.25-.09-.51-.16-.76-.26-16.32-6.56-32.64-13.12-48.95-19.68-.25-.1-.49-.22-.73-.34-1.56-.66-3.05-.72-4.41.47-1.93,1.69-1.54,4.81.74,6.02.27.14.56.25.85.36,16.85,6.77,33.69,13.54,50.54,20.32.72.29,1.44.52,2.23.44,1.66-.17,3.01-1.35,3.29-2.91.32-1.76-.48-3.33-2.06-4.08-.24-.12-.49-.23-.73-.34Z"/>
          <path class="cls-8" d="M82.5,45.18c1.4-3.54.59-6.32-2.67-8.69-3.87-2.81-8.08-5.11-11.59-8.46-3.48-3.31-6.03-7.28-8.24-11.4-2.29-4.25-7.2-5.86-11.4-4.73-1,.27-1.42.18-2.13-.65-5.02-5.94-12.7-5.2-16.75,1.58-.55.92-.97,1.1-2.04.93-4.52-.72-8.54,1.08-10.52,5.13-1.76,3.61-1.41,7.34,1.22,10.57.81.99,1.07,1.84.57,3.08-1.52,3.78-.32,7,2.32,9.81,2.73,2.9,6.09,3.62,9.79,2.41,1.22-.4,1.75-.42,2.36.88,2.53,5.36,7.31,7.63,12.77,5.57,9.19-3.46,18.42-3.38,27.82-1.34,4.04.88,6.96-.81,8.5-4.7Z"/>
          <path class="cls-2" d="M91.48,44.92c5.58,2.25,11.17,4.49,16.75,6.74-1.32,3.28-2.64,6.56-3.96,9.84-5.58-2.24-11.16-4.48-16.74-6.73,1.32-3.28,2.63-6.57,3.95-9.85ZM97.37,54.75c1.29.47,2.71-.17,3.2-1.45.48-1.26-.16-2.74-1.4-3.25-1.29-.53-2.81.13-3.32,1.44-.51,1.33.15,2.76,1.51,3.26Z"/>
          <path class="cls-6" d="M91.48,44.92c5.58,2.25,11.17,4.49,16.75,6.74.25.1.49.21.74.3,1.13.4,2.05.04,2.47-.97.42-1.01.03-1.99-1.05-2.43-6.1-2.47-12.2-4.92-18.32-7.36-1.06-.42-2-.02-2.38.9-.45,1.11-.08,2.02,1.04,2.52.24.11.5.2.75.29Z"/>
          <path class="cls-10" d="M71.31,119.49c5.3,2.12,11.52-.55,13.61-5.84,2.13-5.39-.52-11.51-5.93-13.67-5.31-2.12-11.51.54-13.62,5.84-2.14,5.37.53,11.51,5.93,13.67Z"/>
          <path class="cls-11" d="M101.52,99.15c-1.16,2.88-2.31,5.77-3.48,8.65-.24.6-.49,1.28.25,1.59.75.32,1.05-.34,1.29-.94,1.14-2.89,2.29-5.77,3.44-8.66.03-.03.05-.07.04-.12-.54-.13-1.04-.32-1.51-.62-.03.03-.05.06-.04.11Z"/>
          <path class="cls-11" d="M95.95,113c-.25.6-.61,1.31.24,1.64.86.33,1.17-.42,1.45-1.06.27-.63.45-1.36-.31-1.67-.9-.36-1.13.46-1.38,1.09Z"/>
          <path class="cls-3" d="M101.55,99.05c.47.3.97.49,1.51.62.24-.6.47-1.21.71-1.81.19-.48.02-.81-.46-1-.47-.19-.82-.09-1.02.39-.25.6-.49,1.2-.74,1.8Z"/>
          <path class="cls-6" d="M95.86,51.49c-.51,1.33.15,2.76,1.51,3.26,1.29.47,2.71-.17,3.2-1.45.48-1.26-.16-2.74-1.4-3.25-1.29-.53-2.81.13-3.32,1.44Z"/>
        </g>
      </g>
      <path class="cls-5" d="M47.18,15.51c3.7-1.5,5.57-1.11,6.59-.36,1.4,1.03,1.5,2.92,3.92,4.99.69.59,1.33.99,1.78,1.25"/>
      <path class="cls-5" d="M21.91,17.25c-3.05,3.16-3.3,6.1-2.96,7.35.32,1.17,1.72,1.81,2.73,3.21,1.02,1.41.96,3.23.71,4.63"/>
      <path class="cls-5" d="M72.42,45.81c-4.29-1.34-10.86-2.63-18.36-1.07-1.61.33-3.09.77-4.46,1.25"/>
      <path class="cls-5" d="M59.47,35.47c-3.31-2.21-5.97-2.68-7.84-2.67-1.37,0-2.65.27-4.28-.36-1.74-.68-2.87-2-3.56-3.03"/>
    </g>
  </g>
  <g id="Top_BGS" data-name="Top BGS">
    <path class="cls-9" d="M113.89,60.77c-.99,3.52-1.21,7.32-2.82,10.6-5.52,11.29-13.01,15.19-24.15,20.48-1.43.68-2.9,1.29-4.4,1.84-1.8.65-3.64,1.2-5.5,1.63-1.31.31-2.64.56-3.97.75-1.72.25-3.45.4-5.18.45-1.3.04-2.59.02-3.89-.06-1.77-.1-3.53-.32-5.27-.65-1.39-.27-2.76-.61-4.12-1.02-.19-.06-.39-.12-.59-.18-11.57-3.72-21.15-5.91-29.53-14.71-5.88-6.18-7.75-12.83-6.77-19.14-5.91-.83-11.81-1.85-17.7-3.05v84.02h141.73V56.78c-9.26,1.55-18.55,2.9-27.85,3.99Z"/>
  </g>
  <g id="Texts">
    <g>
      <rect class="cls-4" x="0" y="87.41" width="141.73" height="54.32"/>
      <path class="cls-1" d="M36.08,109.56c0-.43.22-.67.66-.67h5.2c.43,0,.67.24.67.67v.45c0,.43-.24.66-.67.66h-3.81v3.22h3.11c.43,0,.67.22.67.66v.45c0,.43-.24.67-.67.67h-3.11v3.92c0,.45-.22.67-.66.67h-.74c-.43,0-.66-.22-.66-.67v-10.02Z"/>
      <path class="cls-1" d="M43.67,112.76c0-.43.22-.67.66-.67h.62c.43,0,.67.24.67.67v.77c0,.3-.05.56-.05.56h.03c.32-.98,1.22-2.06,2.37-2.06.45,0,.61.22.61.67v.62c0,.43-.26.67-.69.67-1.49,0-2.21,1.47-2.21,2.96v2.62c0,.45-.22.67-.66.67h-.7c-.43,0-.66-.22-.66-.67v-6.82Z"/>
      <path class="cls-1" d="M53.73,115.21h.34v-.19c0-1.07-.69-1.44-1.52-1.44-.69,0-1.31.26-1.7.46-.4.18-.7.11-.9-.27l-.16-.3c-.19-.37-.13-.69.26-.9.53-.27,1.46-.67,2.67-.67,2.11,0,3.38,1.18,3.38,3.25v4.43c0,.45-.22.67-.67.67h-.54c-.43,0-.66-.22-.66-.67v-.32c0-.22.03-.35.03-.35h-.03s-.77,1.54-2.56,1.54c-1.49,0-2.71-.96-2.71-2.45,0-2.39,2.95-2.79,4.77-2.79ZM52.21,118.89c1.14,0,1.87-1.15,1.87-2.15v-.3h-.34c-1.02,0-2.77.16-2.77,1.38,0,.54.42,1.07,1.23,1.07Z"/>
      <path class="cls-1" d="M59.51,121.58c.38.14.9.3,1.65.3,1.25,0,2.3-.53,2.3-1.98v-.61c0-.19.03-.42.03-.42h-.03c-.45.77-1.15,1.22-2.24,1.22-2.39,0-3.7-1.89-3.7-4.15s1.25-4.05,3.68-4.05c1.91,0,2.42,1.25,2.42,1.25h.03s-.02-.08-.02-.21v-.3c0-.3.22-.54.66-.54h.54c.43,0,.66.24.66.67v7c0,2.8-2.21,3.86-4.23,3.86-.91,0-1.83-.19-2.39-.43-.42-.18-.53-.45-.35-.86l.13-.37c.18-.4.42-.51.85-.37ZM63.51,115.99c0-1.87-.93-2.37-1.98-2.37-1.26,0-1.95.9-1.95,2.24,0,1.47.74,2.51,2.05,2.51.96,0,1.89-.56,1.89-2.39Z"/>
      <path class="cls-1" d="M67.51,112.76c0-.43.22-.67.66-.67h.62c.43,0,.67.24.67.67v.77c0,.3-.05.56-.05.56h.03c.32-.98,1.22-2.06,2.37-2.06.45,0,.61.22.61.67v.62c0,.43-.26.67-.69.67-1.49,0-2.21,1.47-2.21,2.96v2.62c0,.45-.22.67-.66.67h-.7c-.43,0-.66-.22-.66-.67v-6.82Z"/>
      <path class="cls-1" d="M77.57,115.21h.34v-.19c0-1.07-.69-1.44-1.52-1.44-.69,0-1.31.26-1.7.46-.4.18-.7.11-.9-.27l-.16-.3c-.19-.37-.13-.69.26-.9.53-.27,1.46-.67,2.67-.67,2.11,0,3.38,1.18,3.38,3.25v4.43c0,.45-.22.67-.67.67h-.54c-.43,0-.66-.22-.66-.67v-.32c0-.22.03-.35.03-.35h-.03s-.77,1.54-2.56,1.54c-1.49,0-2.71-.96-2.71-2.45,0-2.39,2.95-2.79,4.77-2.79ZM76.05,118.89c1.14,0,1.87-1.15,1.87-2.15v-.3h-.34c-1.02,0-2.77.16-2.77,1.38,0,.54.42,1.07,1.23,1.07Z"/>
      <path class="cls-1" d="M81.83,112.76c0-.43.22-.67.66-.67h.62c.43,0,.66.24.66.67v.5c0,.18-.03.37-.03.37h.03c.35-.69,1.25-1.73,2.9-1.73,1.81,0,2.85.94,2.85,3.11v4.58c0,.45-.22.67-.67.67h-.69c-.43,0-.67-.22-.67-.67v-4.16c0-.99-.26-1.66-1.28-1.66-1.44,0-2.35,1.2-2.35,2.67v3.15c0,.45-.22.67-.66.67h-.7c-.43,0-.66-.22-.66-.67v-6.82Z"/>
      <path class="cls-1" d="M90.85,119.55c0-.34.08-.5.29-.75l3.38-4.23c.38-.46.69-.75.69-.75v-.03s-.22.03-.75.03h-2.77c-.45,0-.67-.24-.67-.67v-.38c0-.43.22-.67.67-.67h5.6c.43,0,.67.19.67.54v.16c0,.34-.08.5-.29.75l-3.38,4.24c-.37.46-.7.75-.7.75v.03s.24-.05.77-.05h3.04c.45,0,.67.24.67.67v.38c0,.45-.22.67-.67.67h-5.88c-.43,0-.67-.19-.67-.54v-.16Z"/>
      <path class="cls-1" d="M103.72,115.21h.34v-.19c0-1.07-.69-1.44-1.52-1.44-.69,0-1.31.26-1.7.46-.4.18-.7.11-.9-.27l-.16-.3c-.19-.37-.13-.69.26-.9.53-.27,1.46-.67,2.67-.67,2.11,0,3.38,1.18,3.38,3.25v4.43c0,.45-.22.67-.67.67h-.54c-.43,0-.66-.22-.66-.67v-.32c0-.22.03-.35.03-.35h-.03s-.77,1.54-2.56,1.54c-1.49,0-2.71-.96-2.71-2.45,0-2.39,2.95-2.79,4.77-2.79ZM102.2,118.89c1.14,0,1.87-1.15,1.87-2.15v-.3h-.34c-1.02,0-2.77.16-2.77,1.38,0,.54.42,1.07,1.23,1.07Z"/>
    </g>
  </g>
</svg>