<?xml version="1.0" encoding="UTF-8"?>
<svg xmlns="http://www.w3.org/2000/svg" viewBox="0 0 141.73 141.73">
  <defs>
    <style>
      .cls-1 {
        fill: #674936;
      }

      .cls-2 {
        fill: #f1f2f2;
      }

      .cls-3 {
        fill: #fecf54;
      }

      .cls-4 {
        fill: #31302d;
      }

      .cls-5 {
        fill: #fec44a;
      }

      .cls-6 {
        fill: none;
      }

      .cls-7 {
        fill: #1f3a6e;
        stroke: #1f3a6e;
        stroke-miterlimit: 10;
        stroke-width: .5px;
      }

      .cls-8 {
        fill: #f7a6ad;
      }

      .cls-9 {
        fill: #f0666a;
      }

      .cls-10 {
        fill: #f15b5c;
      }

      .cls-11 {
        fill: #725340;
      }

      .cls-12 {
        fill: #ffd87b;
      }
    </style>
  </defs>
  <g id="Bottom_BGS" data-name="Bottom BGS">
    <path class="cls-7" d="M46.9,16.2c9.17-3.63,27.13-7.31,37.31,1.17,3.94,3.28,4.83,5.66,9.77,8.95,5.34,3.56,12.18,3.19,17.97,5.62,1.37.57,2.64,1.29,3.83,2.13,7.16,5.08,9.56,14.24,10.36,19.74,5.2-.63,10.4-1.35,15.6-2.15V0H0v49.8c5.17,1,10.33,1.9,15.5,2.69,2.34-18,18.49-31.18,31.4-36.29Z"/>
  </g>
  <g id="Elements">
    <g>
      <path class="cls-3" d="M74.97,17.4c5.02-3.12,10.5-4.71,16.39-4.69,14.52.04,27.04,10.28,29.9,24.52,1.65,8.22.1,15.9-4.4,22.98-.03.04-.08.07-.12.1-.11-.18-.23-.14-.39-.04-1.16.67-2.36,1.26-3.6,1.78-2.75,1.16-5.62,1.87-8.57,2.16-1.68.16-3.37.28-5.09.08-1.53-.18-3.07-.31-4.57-.64-3.24-.69-6.26-1.92-9.11-3.6-3.36-1.99-6.2-4.53-8.6-7.6-1-1.28-1.8-2.7-2.74-4.02.13-1.98-.63-3.58-2.11-4.87-.69-2.53-1.26-5.06-1.47-7.7-.19-2.38,0-4.71.29-7.05.19-1.57.74-3.05,1.03-4.59,1-1.03,2.24-1.74,3.47-2.42,4.62-2.54,9.53-3.87,14.85-3.61,1.6.08,3.19.17,4.76.49,6.39,1.33,11.72,4.45,15.99,9.4,3.17,3.68,5.27,7.88,6.25,12.63.22,1.08.53,2.16.38,3.29-.19-.14-.37-.3-.56-.43-1.9-1.29-3.89-1.44-5.86-.28-2.05,1.2-2.91,3.11-2.55,5.43.34,2.19,1.68,3.65,3.82,4.28,1.76.52,3.37.07,4.85-.96-.08.44-.15.88-.25,1.31-.49,2.08-1.32,4.03-2.12,5.99-.04.06-.08.11-.12.17.02.01.04.03.06.04l.06-.21c.46-.2.57-.68.8-1.05,3.1-5.15,4.55-10.7,4.13-16.74-.2-2.8-.77-5.49-1.73-8.11-1.2-3.26-2.96-6.21-5.27-8.8-2.09-2.34-4.48-4.33-7.24-5.9-3.67-2.09-7.59-3.34-11.77-3.65-2.24-.17-4.5-.1-6.76.25-3.88.6-7.44,1.97-10.75,4.05-1.08.68-2.12,1.44-3.17,2.16.01-.51.25-.94.45-1.39.42-.94,1.12-1.74,1.44-2.74ZM91.27,58.78c6.49-.34,11.23-3.35,14.04-9.31.26-.56.41-1.12-.18-1.56-.63-.46-1.13-.11-1.59.34-.87.85-1.81,1.61-2.79,2.33-5.79,4.24-12.07,4.53-18.07.81-1.41-.88-2.71-1.92-3.91-3.07-.41-.39-.86-.52-1.35-.16-.49.35-.49.83-.29,1.34.04.1.08.19.13.29,2.87,5.78,7.57,8.68,14.01,8.99ZM78.06,35.36c-2.31.12-3.98,1.17-5.04,3.18-.27.52-.47,1.04.11,1.48.57.43,1.01.12,1.46-.28,2.43-2.15,4.63-2.16,7.09-.02.44.38.89.6,1.4.19.52-.41.4-.92.13-1.42-1.12-2.06-2.86-3.08-5.15-3.13ZM104.54,35.36c-.27.02-.61.02-.95.07-2.05.34-3.5,1.48-4.36,3.36-.21.46-.21.94.27,1.27.43.29.84.19,1.22-.14.25-.23.51-.45.79-.66,1.85-1.4,3.78-1.49,5.62-.24.3.21.59.44.86.69.43.38.88.62,1.4.22.56-.43.42-.94.12-1.47-1.07-1.93-2.7-2.95-4.97-3.09Z"/>
      <path class="cls-5" d="M74.97,17.4c-.32,1-1.02,1.79-1.44,2.74-.2.45-.44.88-.45,1.39-.94,1.17-2.2,2.02-3.13,3.2-.68.86-1.42,1.67-1.94,2.65-.02.03-.04.05-.06.08.02-.02.05-.04.07-.07.39-.02.56-.35.8-.58.95-.92,1.84-1.9,2.99-2.6-.29,1.54-.84,3.03-1.03,4.59-.28,2.34-.47,4.67-.29,7.05.21,2.63.77,5.17,1.47,7.7-.18-.1-.37-.2-.55-.31-2.19-1.26-4.86-.83-6.63,1.05-1.64,1.74-1.83,4.52-.45,6.57,1.19,1.76,3.43,2.69,5.45,2.25,2.3-.5,3.87-2.22,4.29-4.69.94,1.32,1.73,2.74,2.74,4.02,2.4,3.07,5.24,5.62,8.6,7.6,2.85,1.69,5.88,2.91,9.11,3.6,1.51.32,3.04.46,4.57.64,1.72.2,3.42.08,5.09-.08,2.95-.29,5.82-1,8.57-2.16,1.24-.52,2.44-1.11,3.6-1.78.16-.09.28-.13.39.04-1.74,2.78-3.98,5.1-6.53,7.12-4.25,3.38-9.08,5.51-14.45,6.24-9.54,1.3-17.99-1.25-25.16-7.69-5.36-4.82-8.61-10.87-9.66-17.98-1.3-8.79.85-16.74,6.33-23.76,1.94-2.49,4.27-4.58,6.88-6.36.26-.18.54-.32.81-.47ZM67.7,27.85s.04-.01.06-.03c0,0,0-.03.01-.04-.02.02-.05.04-.07.07-.02,0-.04.01-.05.03,0,0,0,.03,0,.04.02-.02.05-.04.07-.07Z"/>
      <path class="cls-12" d="M68.01,27.37c.51-.98,1.26-1.79,1.94-2.65.93-1.18,2.19-2.03,3.13-3.2,1.06-.72,2.09-1.48,3.17-2.16,3.31-2.08,6.87-3.45,10.75-4.05,2.26-.35,4.52-.41,6.76-.25,4.18.31,8.1,1.56,11.77,3.65,2.75,1.57,5.15,3.56,7.24,5.9,2.31,2.59,4.06,5.54,5.27,8.8.97,2.62,1.54,5.31,1.73,8.11.42,6.04-1.03,11.59-4.13,16.74-.22.37-.34.85-.8,1.05h0c.81-1.96,1.64-3.92,2.12-5.99.1-.43.17-.87.25-1.31,2.57-2.32,2.46-5.85.31-8.04.15-1.13-.16-2.21-.38-3.29-.98-4.75-3.08-8.95-6.25-12.63-4.27-4.95-9.6-8.08-15.99-9.4-1.57-.33-3.16-.41-4.76-.49-5.32-.26-10.23,1.08-14.85,3.61-1.23.68-2.47,1.39-3.47,2.42-1.15.69-2.05,1.67-2.99,2.6-.23.23-.4.56-.8.58h-.01Z"/>
      <path class="cls-1" d="M91.27,58.78c-6.44-.31-11.14-3.21-14.01-8.99-.05-.09-.09-.19-.13-.29-.21-.51-.2-.99.29-1.34.49-.35.94-.23,1.35.16,1.2,1.15,2.49,2.19,3.91,3.07,5.99,3.72,12.28,3.43,18.07-.81.98-.72,1.92-1.48,2.79-2.33.46-.46.96-.8,1.59-.34.6.43.45,1,.18,1.56-2.8,5.96-7.55,8.96-14.04,9.31Z"/>
      <path class="cls-8" d="M117.52,43.99c2.15,2.19,2.26,5.71-.31,8.04-1.48,1.02-3.09,1.48-4.85.96-2.14-.63-3.48-2.1-3.82-4.28-.36-2.32.51-4.22,2.55-5.43,1.97-1.16,3.97-1.01,5.86.28.19.13.37.29.56.43Z"/>
      <path class="cls-8" d="M74.07,48.41c-.42,2.48-1.99,4.19-4.29,4.69-2.02.44-4.26-.49-5.45-2.25-1.38-2.04-1.19-4.82.45-6.57,1.77-1.88,4.44-2.31,6.63-1.05.18.1.37.2.55.31,1.48,1.29,2.23,2.89,2.11,4.87Z"/>
      <path class="cls-1" d="M78.06,35.36c2.29.05,4.03,1.07,5.15,3.13.27.5.39,1.01-.13,1.42-.51.41-.96.19-1.4-.19-2.46-2.13-4.66-2.13-7.09.02-.45.4-.89.7-1.46.28-.58-.43-.38-.96-.11-1.48,1.06-2.02,2.73-3.06,5.04-3.18Z"/>
      <path class="cls-1" d="M104.54,35.36c2.27.14,3.9,1.16,4.97,3.09.29.53.44,1.04-.12,1.47-.53.4-.98.16-1.4-.22-.27-.24-.56-.48-.86-.69-1.84-1.25-3.77-1.16-5.62.24-.27.21-.53.43-.79.66-.38.34-.79.44-1.22.14-.48-.32-.48-.8-.27-1.27.86-1.88,2.31-3.02,4.36-3.36.34-.06.68-.05.95-.07Z"/>
      <path class="cls-12" d="M114.84,59.33l-.06.21s-.04-.03-.06-.04c.04-.06.08-.11.12-.17h0Z"/>
      <path class="cls-12" d="M68.02,27.38s-.05.04-.07.07c.02-.03.04-.05.06-.08,0,0,.01.01.01.01Z"/>
      <path class="cls-12" d="M67.7,27.85s.05-.04.07-.07c0,.02,0,.04-.01.04-.01.01-.04.02-.06.03h0Z"/>
      <path class="cls-12" d="M67.7,27.85s-.05.04-.07.07c0-.01,0-.04,0-.04.01-.01.04-.02.05-.03,0,0,0,0,0,0Z"/>
    </g>
    <g>
      <path class="cls-3" d="M41.22,59.26c3.74-2.33,7.83-3.51,12.22-3.5,10.83.03,20.16,7.66,22.29,18.28,1.23,6.13.07,11.85-3.28,17.13-.02.03-.06.05-.09.07-.15-.22-.26-.03-.38.04-1.83,1-3.74,1.83-5.77,2.29-2.29.52-4.59.86-6.96.62-1.17-.11-2.33-.23-3.47-.47-2.7-.56-5.19-1.64-7.5-3.12-1.1-.7-2.2-1.43-3.04-2.46.41-.49.95-.81,1.48-1.14,3.43-2.12,7.03-2.83,10.89-1.31,1.45.57,2.78,1.36,3.93,2.44.17.16.36.36.62.24.26-.12.22-.39.22-.62,0-.51-.09-1.01-.24-1.51-1.16-3.98-5.47-6.69-10.2-6.05-3.79.51-6.99,3.35-7.54,7.14-.09-.04-.2-.05-.26-.12-.57-.67-1.16-1.32-1.69-2.03-1.63-2.16-2.87-4.51-3.64-7.12-.48-1.64-.76-3.3-.92-5-.17-1.83,0-3.62.23-5.43.15-1.13.55-2.2.74-3.31.73-.75,1.63-1.28,2.53-1.77,3.46-1.91,7.14-2.92,11.12-2.72,1.19.06,2.38.13,3.55.37,5.29,1.09,9.56,3.82,12.82,8.09,2.43,3.18,3.82,6.83,4.15,10.81.19,2.32.08,4.65-.5,6.94-.39,1.54-.99,3.01-1.59,4.47-.03.04-.06.08-.09.13.02,0,.03.02.05.03.01-.05.03-.1.04-.16.57-.49.84-1.17,1.18-1.8,1.14-2.1,1.88-4.33,2.28-6.69.37-2.2.39-4.4.05-6.59-.4-2.55-1.22-4.97-2.51-7.22-.84-1.46-1.81-2.83-2.99-4.05-1.47-1.54-3.1-2.86-4.96-3.92-2.73-1.57-5.65-2.5-8.77-2.72-1.67-.12-3.36-.08-5.04.18-2.87.45-5.51,1.45-7.96,2.98-.82.52-1.61,1.09-2.41,1.64.05-.65.43-1.17.71-1.72.21-.41.58-.75.57-1.26,0,0,0,.02,0,.02.05-.04.09-.08.14-.12ZM46.65,73.31c0-1.1-.26-2-.68-2.52-.62-.75-1.44-.74-2.03.02-.86,1.11-.87,3.37-.01,4.5.61.8,1.45.81,2.06.02.5-.65.63-1.42.66-2.02ZM63.5,73.08c-.05-.79-.17-1.56-.65-2.22-.59-.81-1.43-.84-2.06-.07-.9,1.1-.9,3.43-.02,4.54.64.8,1.5.77,2.1-.07.46-.65.58-1.4.63-2.18ZM59.28,64.21c.09,1.8,1.07,3.03,2.54,3.87,1.62.92,3.33,1.15,5.09.3-1.38-.49-2.8-.84-4.11-1.52-1.32-.69-2.44-1.63-3.53-2.65ZM47.49,64.02c-2.1,2.46-4.77,3.61-7.81,4.31,3.13,1.73,7.8-.83,7.81-4.31Z"/>
      <path class="cls-5" d="M38.87,64.34c-.19,1.12-.59,2.18-.74,3.31-.24,1.81-.4,3.6-.23,5.43.16,1.7.44,3.36.92,5,.77,2.61,2.01,4.96,3.64,7.12.53.7,1.12,1.36,1.69,2.03.06.07.17.08.26.12,0,.13,0,.27,0,.4,0,.24-.05.52.23.65.27.12.41-.14.6-.24.84,1.03,1.94,1.76,3.04,2.46,2.31,1.48,4.8,2.56,7.5,3.12,1.15.24,2.31.36,3.47.47,2.37.23,4.68-.1,6.96-.62,2.04-.46,3.94-1.29,5.77-2.29.12-.07.23-.26.38-.04-1.3,2.07-2.97,3.8-4.87,5.31-3.17,2.52-6.77,4.11-10.77,4.65-7.11.96-13.41-.93-18.76-5.74-4-3.59-6.42-8.11-7.2-13.41-.97-6.57.65-12.52,4.76-17.76,1.43-1.82,3.13-3.35,5.04-4.66.16-.11.34-.19.51-.28,0,.51-.36.85-.57,1.26-.28.56-.65,1.07-.71,1.72-.7.87-1.64,1.5-2.34,2.38-.51.64-1.06,1.24-1.44,1.97-.02.02-.03.04-.05.06.02-.02.04-.03.05-.05.29-.01.42-.26.59-.43.71-.69,1.38-1.42,2.23-1.94ZM35.8,67.06s.03-.01.04-.02c0,0,0-.02,0-.03-.02.02-.04.03-.05.05-.01,0-.03.01-.04.02,0,0,0,.02,0,.03.02-.02.03-.03.05-.05Z"/>
      <path class="cls-5" d="M41.22,59.26s-.09.08-.14.12c.05-.04.09-.08.14-.12Z"/>
      <path class="cls-12" d="M36.03,66.7c.38-.73.94-1.33,1.44-1.97.69-.88,1.63-1.51,2.34-2.38.8-.55,1.59-1.13,2.41-1.64,2.45-1.53,5.09-2.53,7.96-2.98,1.68-.26,3.37-.3,5.04-.18,3.12.22,6.05,1.16,8.77,2.72,1.85,1.06,3.49,2.38,4.96,3.92,1.17,1.23,2.14,2.59,2.99,4.05,1.29,2.25,2.11,4.67,2.51,7.22.34,2.19.32,4.38-.05,6.59-.4,2.36-1.13,4.6-2.28,6.69-.34.63-.62,1.31-1.18,1.8h0c.6-1.47,1.2-2.93,1.59-4.47.58-2.29.69-4.62.5-6.94-.32-3.99-1.72-7.63-4.15-10.81-3.26-4.27-7.53-7-12.82-8.09-1.17-.24-2.35-.31-3.55-.37-3.99-.19-7.67.81-11.12,2.72-.9.5-1.8,1.02-2.53,1.77-.86.52-1.52,1.25-2.23,1.94-.17.17-.3.42-.59.43h0Z"/>
      <path class="cls-1" d="M45.23,88.15c-.19.1-.33.36-.6.24-.28-.13-.22-.41-.23-.65,0-.13,0-.27,0-.4.55-3.79,3.75-6.63,7.54-7.14,4.73-.64,9.03,2.07,10.2,6.05.14.49.23.99.24,1.51,0,.23.04.5-.22.62-.26.12-.45-.08-.62-.24-1.14-1.08-2.48-1.87-3.93-2.44-3.86-1.52-7.47-.81-10.89,1.31-.53.33-1.07.65-1.48,1.14Z"/>
      <path class="cls-4" d="M46.65,73.31c-.03.6-.17,1.37-.66,2.02-.61.8-1.45.78-2.06-.02-.86-1.12-.85-3.39.01-4.5.59-.76,1.42-.77,2.03-.02.42.52.69,1.42.68,2.52Z"/>
      <path class="cls-4" d="M63.5,73.08c-.06.77-.17,1.53-.63,2.18-.6.85-1.46.87-2.1.07-.89-1.11-.88-3.44.02-4.54.63-.77,1.48-.74,2.06.07.48.66.6,1.43.65,2.22Z"/>
      <path class="cls-4" d="M59.28,64.21c1.09,1.02,2.21,1.96,3.53,2.65,1.3.68,2.72,1.03,4.11,1.52-1.76.85-3.47.63-5.09-.3-1.48-.84-2.45-2.08-2.54-3.87Z"/>
      <path class="cls-4" d="M47.49,64.02c0,3.48-4.68,6.04-7.81,4.31,3.04-.7,5.71-1.85,7.81-4.31Z"/>
      <path class="cls-12" d="M70.94,90.53c-.01.05-.03.1-.04.16-.02,0-.03-.02-.05-.03.03-.04.06-.08.09-.13h0Z"/>
      <path class="cls-12" d="M36.04,66.71s-.04.03-.05.05c.02-.02.03-.04.05-.06,0,0,0,0,0,0Z"/>
      <path class="cls-12" d="M35.8,67.06s.04-.03.05-.05c0,.01,0,.03,0,.03-.01,0-.03.01-.04.02h0Z"/>
      <path class="cls-12" d="M35.8,67.06s-.03.03-.05.05c0-.01,0-.03,0-.03.01,0,.03-.01.04-.02,0,0,0,0,0,0Z"/>
    </g>
    <g>
      <path class="cls-3" d="M34.62,54.45c-9.3-.06-16.68-7.52-16.67-16.73,0-9.15,7.5-16.62,16.68-16.58,9.23.04,16.64,7.39,16.63,16.65,0,9.33-7.44,16.6-16.64,16.67ZM21.82,29.36s.02,0,.03-.01c0,0,0-.01,0-.02-.01.01-.02.02-.04.04,0,0-.02,0-.03.01,0,0,0,.01,0,.02l.03-.04ZM29.9,45.69s.06.09.11.13c1.73,1.42,3.71,1.95,5.91,1.57,1.37-.24,2.6-.83,3.59-1.85,1.18-1.09,1.85-2.45,2.15-4.01.05-.28-.05-.34-.31-.34-4.48,0-8.96,0-13.44,0-.27,0-.36.07-.31.34.31,1.64,1.04,3.05,2.31,4.15ZM47.43,46.46c.14-.06.21-.18.28-.31.48-.78.91-1.58,1.26-2.43,1.09-2.66,1.44-5.41,1.01-8.25-.26-1.73-.82-3.37-1.65-4.92-1.49-2.75-3.59-4.88-6.35-6.36-1.75-.94-3.61-1.53-5.6-1.72-1.51-.14-3.02-.12-4.52.15-1.72.3-3.33.92-4.84,1.78-1.62.92-3.02,2.1-4.21,3.52-.3.37-.67.71-.83,1.18-.01.01-.02.03-.03.04.01-.01.02-.02.04-.04.18,0,.27-.15.38-.25.38-.36.75-.74,1.16-1.08,1.45-1.24,3.07-2.17,4.86-2.81,2.29-.82,4.64-1.03,7.05-.76,1.6.18,3.12.62,4.58,1.29,2.15.99,3.97,2.41,5.47,4.22.17.21.43.39.48.69-.1-.05-.2-.1-.3-.16-1.31-.66-2.76-.19-3.42,1.13-.06.11-.11.23-.19.37-.14-.37-.3-.69-.54-.96-1.27-1.45-3.67-.92-4.39.98-.36.96-.25,1.91.13,2.84.89,2.22,2.63,3.62,4.64,4.75.17.1.29.03.44-.05.71-.4,1.4-.84,2.02-1.37,1.71-1.5,3.05-3.19,2.83-5.66.03.03.06.06.08.1.97,1.82,1.55,3.77,1.7,5.82.12,1.7.05,3.41-.39,5.09-.29,1.09-.71,2.13-1.13,3.17-.02.03-.04.06-.06.09.01,0,.02.01.03.02.01-.04.02-.08.03-.11ZM27.19,31.73c-.04-.06-.07-.11-.1-.16-.46-1.07-1.25-1.67-2.44-1.6-1.17.07-1.97.7-2.41,1.78-.44,1.08-.22,2.14.24,3.15.93,2.05,2.6,3.37,4.5,4.45.19.11.32.04.47-.04,1.19-.67,2.3-1.47,3.19-2.51,1.03-1.22,1.78-2.56,1.66-4.24-.1-1.41-1.32-2.59-2.72-2.59-1.22,0-1.95.67-2.4,1.76Z"/>
      <path class="cls-10" d="M27.19,31.73c.45-1.09,1.18-1.76,2.4-1.76,1.4,0,2.62,1.19,2.72,2.59.12,1.68-.63,3.02-1.66,4.24-.89,1.05-1.99,1.84-3.19,2.51-.15.09-.29.15-.47.04-1.9-1.08-3.57-2.4-4.5-4.45-.46-1.02-.68-2.07-.24-3.15.43-1.08,1.24-1.71,2.41-1.78,1.18-.07,1.98.52,2.44,1.6.02.05.06.1.1.16Z"/>
      <path class="cls-10" d="M47.18,32.29c.22,2.47-1.11,4.16-2.83,5.66-.62.54-1.31.97-2.02,1.37-.14.08-.27.14-.44.05-2.01-1.14-3.75-2.53-4.64-4.75-.37-.93-.49-1.88-.13-2.84.72-1.9,3.11-2.43,4.39-.98.24.27.4.59.54.96.07-.15.13-.26.19-.37.66-1.31,2.11-1.79,3.42-1.13.1.05.2.1.3.16.63.48,1.01,1.13,1.21,1.88Z"/>
      <path class="cls-12" d="M47.18,32.29c-.2-.76-.59-1.4-1.21-1.88-.05-.3-.3-.48-.48-.69-1.5-1.82-3.32-3.24-5.47-4.22-1.46-.67-2.98-1.11-4.58-1.29-2.41-.27-4.76-.06-7.05.76-1.79.64-3.41,1.57-4.86,2.81-.4.35-.77.72-1.16,1.08-.11.1-.19.26-.38.25h0c.16-.48.53-.82.83-1.18,1.19-1.43,2.59-2.61,4.21-3.52,1.51-.86,3.12-1.48,4.84-1.78,1.5-.26,3-.29,4.52-.15,1.99.19,3.85.78,5.6,1.72,2.75,1.48,4.86,3.61,6.35,6.36.84,1.55,1.39,3.19,1.65,4.92.43,2.84.08,5.59-1.01,8.25-.35.85-.78,1.65-1.26,2.43-.08.12-.15.24-.28.31h0c.43-1.04.85-2.08,1.13-3.17.44-1.68.51-3.39.39-5.09-.14-2.05-.72-4-1.7-5.82-.02-.04-.05-.06-.08-.1Z"/>
      <path class="cls-11" d="M29.9,45.69c-1.27-1.1-1.99-2.51-2.31-4.15-.05-.27.04-.34.31-.34,4.48,0,8.96,0,13.44,0,.26,0,.37.06.31.34-.3,1.56-.97,2.92-2.15,4.01-2.82-1.15-5.68-1.43-8.6-.37-.35.13-.75.2-1.01.52Z"/>
      <path class="cls-9" d="M29.9,45.69c.26-.32.65-.39,1.01-.52,2.92-1.05,5.78-.77,8.6.37-.99,1.01-2.21,1.61-3.59,1.85-2.2.38-4.18-.15-5.91-1.57-.04-.03-.07-.09-.11-.13Z"/>
      <path class="cls-12" d="M47.43,46.46s-.02.08-.03.11c-.01,0-.02-.01-.03-.02.02-.03.04-.06.06-.09h0Z"/>
      <path class="cls-12" d="M21.99,29.1s-.02.02-.04.04c.01-.01.02-.03.03-.04,0,0,0,0,0,0Z"/>
      <path class="cls-12" d="M21.82,29.36s.02-.02.04-.04c0,0,0,.02,0,.02,0,0-.02,0-.03.01h0Z"/>
      <path class="cls-12" d="M21.82,29.36l-.03.04s0-.02,0-.02c0,0,.02,0,.03-.01h0Z"/>
    </g>
  </g>
  <g id="Top_BGS" data-name="Top BGS">
    <path class="cls-7" d="M126.13,53.82c.35,2.43.4,4.15.4,4.49.12,14.1-8.78,23.52-11.09,25.97-7.1,7.52-15.11,5.21-21.19,7.17-7.9,2.56-31.52,10.2-53.66-2.71-4.62-2.7-23.53-8.73-25.25-28.82-.22-2.56-.14-5.05.17-7.45-5.17-.79-10.33-1.68-15.5-2.69v91.93h141.73V51.67c-5.2.81-10.4,1.53-15.6,2.15Z"/>
  </g>
  <g id="Texts">
    <g>
      <rect class="cls-6" x="0" y="87.41" width="141.73" height="54.32"/>
      <path class="cls-2" d="M41.62,109.56c0-.43.22-.67.66-.67h5.47c.43,0,.67.24.67.67v.45c0,.43-.24.66-.67.66h-4.08v2.98h3.17c.43,0,.67.22.67.66v.45c0,.45-.24.67-.67.67h-3.17v3.06h4.34c.43,0,.67.22.67.66v.45c0,.45-.24.67-.67.67h-5.73c-.43,0-.66-.22-.66-.67v-10.02Z"/>
      <path class="cls-2" d="M50.13,112.76c0-.43.22-.67.66-.67h.62c.43,0,.66.24.66.67v.5c0,.18-.03.37-.03.37h.03c.4-.8,1.39-1.73,2.67-1.73s2.05.58,2.38,1.68h.03c.43-.85,1.5-1.68,2.79-1.68,1.7,0,2.67.96,2.67,3.11v4.58c0,.45-.24.67-.67.67h-.69c-.45,0-.67-.22-.67-.67v-4.19c0-.93-.18-1.63-1.12-1.63-1.38,0-2.08,1.41-2.08,2.83v2.99c0,.45-.22.67-.66.67h-.71c-.43,0-.67-.22-.67-.67v-4.19c0-.88-.13-1.63-1.09-1.63-1.44,0-2.11,1.47-2.11,2.83v2.99c0,.45-.22.67-.66.67h-.7c-.43,0-.66-.22-.66-.67v-6.82Z"/>
      <path class="cls-2" d="M68.47,111.9c2.48,0,4.5,1.78,4.5,4.27s-2.02,4.27-4.5,4.27-4.48-1.76-4.48-4.27,2-4.27,4.48-4.27ZM68.47,118.72c1.33,0,2.43-1.02,2.43-2.54s-1.1-2.54-2.43-2.54-2.42,1.04-2.42,2.54,1.09,2.54,2.42,2.54Z"/>
      <path class="cls-2" d="M74.82,113.82h-.43c-.43,0-.66-.22-.66-.67v-.27c0-.43.22-.67.67-.67h.46v-1.66c0-.43.24-.67.67-.67h.64c.43,0,.67.24.67.67v1.66h1.18c.43,0,.67.24.67.67v.27c0,.45-.24.67-.66.67h-1.2v3.17c0,1.22.75,1.46,1.31,1.52.5.05.67.21.67.66v.5c0,.48-.27.67-.83.67-1.46,0-3.18-.78-3.18-2.99v-3.52Z"/>
      <path class="cls-2" d="M80.19,110.04v-.48c0-.43.22-.67.66-.67h.7c.43,0,.67.24.67.67v.48c0,.43-.24.66-.67.66h-.7c-.43,0-.66-.22-.66-.66ZM80.19,112.76c0-.43.22-.67.66-.67h.7c.43,0,.66.24.66.67v6.82c0,.45-.22.67-.66.67h-.7c-.43,0-.66-.22-.66-.67v-6.82Z"/>
      <path class="cls-2" d="M83.51,112.86c-.16-.46.03-.77.53-.77h.75c.38,0,.64.18.75.56l1.52,4.5c.16.48.3,1.23.3,1.23h.03s.13-.75.29-1.23l1.52-4.5c.11-.38.37-.56.75-.56h.75c.5,0,.7.3.54.77l-2.46,6.85c-.13.38-.37.54-.75.54h-1.28c-.38,0-.64-.16-.75-.54l-2.5-6.85Z"/>
      <path class="cls-2" d="M96.45,111.9c2.48,0,4.5,1.78,4.5,4.27s-2.02,4.27-4.5,4.27-4.48-1.76-4.48-4.27,2-4.27,4.48-4.27ZM96.45,118.72c1.33,0,2.43-1.02,2.43-2.54s-1.1-2.54-2.43-2.54-2.42,1.04-2.42,2.54,1.09,2.54,2.42,2.54Z"/>
    </g>
  </g>
</svg>