<?xml version="1.0" encoding="UTF-8"?>
<svg xmlns="http://www.w3.org/2000/svg" viewBox="0 0 141.73 141.73">
  <defs>
    <style>
      .cls-1 {
        fill: #e6e7e8;
        stroke: #58595b;
        stroke-miterlimit: 10;
        stroke-width: .5px;
      }

      .cls-2 {
        fill: #414042;
      }
    </style>
  </defs>
  <g id="Bottom_BGS" data-name="Bottom BGS">
    <rect class="cls-1" x="0" width="141.73" height="141.73"/>
  </g>
  <g id="Texts">
    <g>
      <path class="cls-2" d="M15.89,31.5c-.84,0-1.58-.17-2.21-.51-.63-.34-1.12-.8-1.48-1.38s-.53-1.25-.53-1.99v-7.21h1.22v7.11c0,.55.12,1.04.37,1.46.25.43.59.77,1.04,1.01.45.25.98.37,1.59.37s1.15-.12,1.59-.37c.44-.24.79-.58,1.03-1.01s.37-.92.37-1.46v-7.11h1.22v7.21c0,.74-.17,1.41-.52,1.99-.35.59-.84,1.05-1.47,1.38-.63.34-1.37.51-2.21.51Z"/>
      <path class="cls-2" d="M23.8,26.32v5h-1.15v-8.19h1.11v1.95s-.16,0-.16,0c.24-.74.59-1.26,1.07-1.58.47-.32,1.02-.47,1.64-.47.55,0,1.04.11,1.45.34.42.23.74.57.98,1.02.23.45.35,1.01.35,1.68v5.25h-1.16v-5.16c0-.65-.18-1.16-.53-1.53-.35-.37-.83-.56-1.43-.56-.41,0-.78.09-1.11.27-.33.18-.59.43-.78.77-.19.33-.29.74-.29,1.21Z"/>
      <path class="cls-2" d="M38.5,31.43c-.56,0-1.04-.11-1.46-.34-.42-.23-.74-.57-.98-1.02s-.35-1.01-.35-1.68v-5.25h1.15v5.16c0,.65.18,1.16.53,1.53.36.37.83.56,1.43.56.42,0,.78-.09,1.11-.27.32-.18.58-.44.77-.77.19-.34.28-.74.28-1.21v-5h1.17v8.19h-1.12v-1.95h.16c-.24.74-.6,1.27-1.07,1.58-.48.31-1.01.47-1.62.47Z"/>
      <path class="cls-2" d="M47.56,23.13v1h-4.07v-1h4.07ZM44.71,21.19h1.15v8.11c0,.39.08.67.25.85.17.18.43.26.78.25.08,0,.17-.02.29-.03.11-.02.22-.04.32-.05l.23.98c-.12.04-.25.08-.41.1-.15.02-.3.03-.45.03-.68.02-1.22-.15-1.6-.51-.38-.36-.57-.87-.57-1.52v-8.2Z"/>
      <path class="cls-2" d="M52.49,31.5c-.78,0-1.45-.18-2.02-.54-.57-.36-1.01-.85-1.32-1.48-.31-.63-.46-1.36-.46-2.2s.15-1.57.45-2.21c.3-.64.73-1.14,1.27-1.5s1.18-.54,1.91-.54c.44,0,.87.08,1.29.23.42.15.8.39,1.14.72s.61.75.81,1.26c.2.51.3,1.14.3,1.86v.49h-6.39v-.98h5.77l-.54.37c0-.56-.09-1.06-.27-1.5-.18-.44-.45-.79-.8-1.04-.35-.25-.78-.38-1.29-.38s-.95.13-1.31.38c-.37.26-.65.59-.85,1.01s-.3.87-.3,1.36v.62c0,.63.11,1.16.32,1.62.21.45.52.8.92,1.04.4.24.86.36,1.39.36.35,0,.67-.05.95-.16s.51-.26.71-.46c.19-.19.34-.42.44-.68l1.11.32c-.13.38-.34.72-.63,1.02s-.66.54-1.09.72c-.43.18-.93.27-1.49.27Z"/>
      <path class="cls-2" d="M58.98,26.32v5h-1.15v-8.19h1.11v1.95s-.16,0-.16,0c.24-.74.59-1.26,1.07-1.58.47-.32,1.02-.47,1.64-.47.55,0,1.04.11,1.45.34.42.23.74.57.98,1.02.23.45.35,1.01.35,1.68v5.25h-1.16v-5.16c0-.65-.18-1.16-.53-1.53-.35-.37-.83-.56-1.43-.56-.41,0-.78.09-1.11.27-.33.18-.59.43-.78.77-.19.33-.29.74-.29,1.21Z"/>
      <path class="cls-2" d="M69.68,23.13v1h-4.07v-1h4.07ZM66.83,21.19h1.15v8.11c0,.39.08.67.25.85.17.18.43.26.78.25.08,0,.17-.02.29-.03.11-.02.22-.04.32-.05l.23.98c-.12.04-.25.08-.41.1-.15.02-.3.03-.45.03-.68.02-1.22-.15-1.6-.51-.38-.36-.57-.87-.57-1.52v-8.2Z"/>
      <path class="cls-2" d="M74.61,31.5c-.78,0-1.45-.18-2.02-.54-.57-.36-1.01-.85-1.32-1.48-.31-.63-.46-1.36-.46-2.2s.15-1.57.45-2.21c.3-.64.73-1.14,1.27-1.5s1.18-.54,1.91-.54c.44,0,.87.08,1.29.23.42.15.8.39,1.14.72s.61.75.81,1.26c.2.51.3,1.14.3,1.86v.49h-6.39v-.98h5.77l-.54.37c0-.56-.09-1.06-.27-1.5-.18-.44-.45-.79-.8-1.04-.35-.25-.78-.38-1.29-.38s-.95.13-1.31.38c-.37.26-.65.59-.85,1.01s-.3.87-.3,1.36v.62c0,.63.11,1.16.32,1.62.21.45.52.8.92,1.04.4.24.86.36,1.39.36.35,0,.67-.05.95-.16s.51-.26.71-.46c.19-.19.34-.42.44-.68l1.11.32c-.13.38-.34.72-.63,1.02s-.66.54-1.09.72c-.43.18-.93.27-1.49.27Z"/>
      <path class="cls-2" d="M84.17,31.32v-8.19h1.12v1.85s-.1,0-.1,0c.11-.45.29-.82.54-1.11s.53-.51.86-.66c.33-.14.67-.22,1.02-.22.6,0,1.08.18,1.46.55.38.37.62.86.73,1.47h-.17c.1-.42.28-.78.54-1.08.26-.3.57-.53.94-.7s.77-.24,1.2-.24c.48,0,.91.1,1.3.31.39.21.7.52.92.94.23.42.34.94.34,1.56v5.52h-1.16v-5.49c0-.62-.17-1.08-.51-1.36-.34-.28-.75-.43-1.23-.43-.38,0-.71.08-.99.24-.28.16-.5.38-.66.67-.16.28-.23.62-.23,1v5.37h-1.15v-5.6c0-.51-.16-.92-.48-1.22s-.72-.46-1.22-.46c-.34,0-.66.08-.96.24-.3.16-.53.39-.71.7-.18.31-.27.68-.27,1.12v5.21h-1.15Z"/>
      <path class="cls-2" d="M100.55,31.5c-.73,0-1.37-.18-1.92-.54-.55-.36-.98-.85-1.29-1.49-.31-.63-.46-1.37-.46-2.21s.16-1.58.46-2.22c.31-.64.74-1.13,1.29-1.49.55-.35,1.19-.53,1.92-.53s1.37.18,1.92.53c.55.35.99.85,1.3,1.49.31.64.47,1.38.47,2.22s-.16,1.57-.47,2.21c-.31.63-.74,1.13-1.3,1.49-.55.36-1.2.54-1.92.54ZM100.55,30.46c.56,0,1.02-.15,1.4-.44.37-.29.65-.68.84-1.17.19-.48.28-1.01.28-1.58s-.09-1.1-.28-1.59-.47-.88-.84-1.18c-.37-.29-.84-.44-1.4-.44s-1.01.15-1.38.44c-.37.3-.65.69-.84,1.17-.19.49-.28,1.02-.28,1.59s.09,1.1.28,1.58c.19.48.47.87.84,1.17s.83.44,1.38.44Z"/>
      <path class="cls-2" d="M108.92,31.5c-.55,0-1.03-.08-1.46-.25-.42-.16-.78-.41-1.05-.73-.28-.32-.46-.71-.56-1.17l1.1-.26c.12.47.34.82.68,1.04.34.23.76.34,1.28.34.59,0,1.06-.13,1.42-.4s.54-.58.54-.95c0-.31-.1-.56-.31-.77-.21-.21-.52-.36-.95-.46l-1.35-.32c-.72-.17-1.26-.44-1.62-.81-.36-.37-.53-.83-.53-1.4,0-.46.13-.87.38-1.22.26-.35.6-.63,1.05-.83.44-.2.95-.3,1.52-.3.54,0,1,.08,1.38.24.38.16.69.39.94.68s.43.63.56,1.03l-1.05.27c-.12-.33-.32-.62-.6-.86-.28-.24-.68-.37-1.22-.37s-.94.12-1.28.36c-.34.24-.51.55-.51.93,0,.32.12.58.34.79.23.2.59.36,1.08.48l1.25.3c.72.17,1.25.44,1.6.8.35.36.53.82.53,1.38,0,.47-.13.89-.4,1.26-.27.37-.63.66-1.11.87-.47.21-1.02.31-1.64.31Z"/>
      <path class="cls-2" d="M117.06,23.13v1h-4.07v-1h4.07ZM114.21,21.19h1.15v8.11c0,.39.08.67.25.85.17.18.43.26.78.25.08,0,.17-.02.29-.03.12-.02.22-.04.32-.05l.23.98c-.12.04-.25.08-.41.1-.15.02-.3.03-.45.03-.68.02-1.22-.15-1.6-.51-.38-.36-.57-.87-.57-1.52v-8.2Z"/>
      <path class="cls-2" d="M118.75,31.32v-8.19h1.11v1.27h.08c.16-.41.44-.75.83-1s.84-.38,1.35-.38c.09,0,.19,0,.3,0,.12,0,.21.01.28.02v1.16s-.12-.02-.25-.03c-.13-.02-.28-.03-.44-.03-.41,0-.77.09-1.09.26-.32.17-.57.41-.75.71-.18.3-.27.65-.27,1.04v5.19h-1.15Z"/>
      <path class="cls-2" d="M126.48,31.51c-.51,0-.97-.1-1.38-.29s-.75-.48-.99-.85c-.25-.37-.37-.82-.37-1.35,0-.44.09-.8.26-1.08s.4-.51.7-.69c.29-.17.63-.31,1.01-.4.38-.1.78-.17,1.2-.22.47-.06.86-.11,1.17-.15.31-.04.55-.1.71-.19.16-.09.24-.23.24-.44v-.12c0-.36-.07-.66-.21-.91-.14-.25-.34-.44-.61-.58-.27-.13-.6-.2-1-.2s-.73.06-1.01.18c-.29.12-.52.28-.7.46-.18.19-.32.39-.41.6l-1.11-.37c.2-.47.47-.85.81-1.12.34-.27.72-.47,1.14-.59.42-.12.84-.18,1.26-.18.3,0,.62.04.97.11.35.08.67.21.98.41.31.2.56.48.76.85.2.37.3.85.3,1.44v5.48h-1.13v-1.2h-.08c-.11.22-.27.44-.48.65-.21.21-.49.39-.82.53-.33.14-.72.21-1.18.21ZM126.67,30.49c.49,0,.91-.1,1.26-.31.35-.21.62-.48.81-.82.19-.34.28-.7.28-1.08v-1.16c-.06.07-.17.13-.35.18-.17.05-.37.1-.59.14-.22.04-.44.08-.66.1-.22.03-.4.05-.54.06-.39.05-.74.13-1.04.23-.3.11-.53.26-.7.46-.17.2-.25.46-.25.77s.08.57.23.78c.15.21.36.37.63.48.27.11.57.17.91.17Z"/>
      <path class="cls-2" d="M11.44,49.32v-8.19h1.11v1.27h.08c.16-.41.44-.75.83-1s.84-.38,1.35-.38c.09,0,.19,0,.3,0,.12,0,.21.01.28.02v1.16s-.12-.02-.25-.03c-.13-.02-.28-.03-.44-.03-.41,0-.77.09-1.09.26-.32.17-.57.41-.75.71-.18.3-.27.65-.27,1.04v5.19h-1.15Z"/>
      <path class="cls-2" d="M20.08,49.5c-.78,0-1.45-.18-2.02-.54-.57-.36-1.01-.85-1.32-1.48-.31-.63-.46-1.36-.46-2.2s.15-1.57.45-2.21c.3-.64.73-1.14,1.27-1.5s1.18-.54,1.91-.54c.44,0,.87.08,1.29.23.42.15.8.39,1.14.72s.61.75.81,1.26c.2.51.3,1.14.3,1.86v.49h-6.39v-.98h5.77l-.54.37c0-.56-.09-1.06-.27-1.5-.18-.44-.45-.79-.8-1.04-.35-.25-.78-.38-1.29-.38s-.95.13-1.31.38c-.37.26-.65.59-.85,1.01s-.3.87-.3,1.36v.62c0,.63.11,1.16.32,1.62.21.45.52.8.92,1.04.4.24.86.36,1.39.36.35,0,.67-.05.95-.16s.51-.26.71-.46c.19-.19.34-.42.44-.68l1.11.32c-.13.38-.34.72-.63,1.02s-.66.54-1.09.72c-.43.18-.93.27-1.49.27Z"/>
      <path class="cls-2" d="M27.79,49.51c-.51,0-.97-.1-1.38-.29s-.75-.48-.99-.85c-.25-.37-.37-.82-.37-1.35,0-.44.09-.8.26-1.08s.4-.51.7-.69c.29-.17.63-.31,1.01-.4.38-.1.78-.17,1.2-.22.47-.06.86-.11,1.17-.15.31-.04.55-.1.71-.19.16-.09.24-.23.24-.44v-.12c0-.36-.07-.66-.21-.91-.14-.25-.34-.44-.61-.58-.27-.13-.6-.2-1-.2s-.73.06-1.01.18c-.29.12-.52.28-.7.46-.18.19-.32.39-.41.6l-1.11-.37c.2-.47.47-.85.81-1.12.34-.27.72-.47,1.14-.59.42-.12.84-.18,1.26-.18.3,0,.62.04.97.11.35.08.67.21.98.41.31.2.56.48.76.85.2.37.3.85.3,1.44v5.48h-1.13v-1.2h-.08c-.11.22-.27.44-.48.65-.21.21-.49.39-.82.53-.33.14-.72.21-1.18.21ZM27.98,48.49c.49,0,.91-.1,1.26-.31.35-.21.62-.48.81-.82.19-.34.28-.7.28-1.08v-1.16c-.06.07-.17.13-.35.18-.17.05-.37.1-.59.14-.22.04-.44.08-.66.1-.22.03-.4.05-.54.06-.39.05-.74.13-1.04.23-.3.11-.53.26-.7.46-.17.2-.25.46-.25.77s.08.57.23.78c.15.21.36.37.63.48.27.11.57.17.91.17Z"/>
      <path class="cls-2" d="M33.66,49.32v-.87l4.64-6.17v-.07h-4.47v-1.08h5.96v.93l-4.53,6.11v.07h4.7v1.08h-6.29Z"/>
      <path class="cls-2" d="M42.69,39.71c-.22,0-.42-.08-.58-.23-.16-.15-.24-.34-.24-.55s.08-.41.24-.56.35-.23.58-.23.42.08.58.23c.16.15.25.34.25.56s-.08.4-.25.55c-.16.15-.36.23-.58.23ZM42.12,49.32v-8.19h1.15v8.19h-1.15Z"/>
      <path class="cls-2" d="M48.94,49.5c-.73,0-1.37-.18-1.92-.54-.55-.36-.98-.85-1.29-1.49-.31-.63-.46-1.37-.46-2.21s.15-1.58.46-2.22c.31-.64.74-1.13,1.29-1.49.55-.35,1.19-.53,1.92-.53s1.37.18,1.92.53c.55.35.99.85,1.3,1.49.31.64.46,1.38.46,2.22s-.16,1.57-.46,2.21c-.31.63-.74,1.13-1.3,1.49-.55.36-1.2.54-1.92.54ZM48.94,48.46c.56,0,1.02-.15,1.4-.44.37-.29.65-.68.84-1.17.19-.48.28-1.01.28-1.58s-.09-1.1-.28-1.59-.46-.88-.84-1.18c-.37-.29-.84-.44-1.4-.44s-1.01.15-1.38.44c-.37.3-.65.69-.84,1.17-.19.49-.28,1.02-.28,1.59s.09,1.1.28,1.58c.19.48.47.87.84,1.17s.83.44,1.38.44Z"/>
      <path class="cls-2" d="M55.77,44.32v5h-1.15v-8.19h1.11v1.95s-.16,0-.16,0c.24-.74.59-1.26,1.07-1.58.47-.32,1.02-.47,1.64-.47.55,0,1.04.11,1.45.34.42.23.74.57.98,1.02.23.45.35,1.01.35,1.68v5.25h-1.16v-5.16c0-.65-.18-1.16-.53-1.53-.35-.37-.83-.56-1.43-.56-.41,0-.78.09-1.11.27-.33.18-.59.43-.78.77-.19.33-.29.74-.29,1.21Z"/>
      <path class="cls-2" d="M64.05,39.71c-.22,0-.42-.08-.58-.23-.16-.15-.24-.34-.24-.55s.08-.41.24-.56.35-.23.58-.23.42.08.58.23c.16.15.25.34.25.56s-.08.4-.25.55c-.16.15-.36.23-.58.23ZM63.47,49.32v-8.19h1.15v8.19h-1.15Z"/>
      <path class="cls-2" d="M74.25,49.5c-.67,0-1.27-.18-1.78-.53s-.91-.84-1.2-1.48-.43-1.38-.43-2.24.14-1.6.44-2.23c.29-.63.69-1.12,1.21-1.47.51-.35,1.11-.52,1.78-.52.52,0,.94.09,1.26.26.32.18.57.38.76.62.19.24.33.46.42.66h.09v-4.17h1.16v10.91h-1.12v-1.4h-.13c-.09.2-.23.42-.42.67-.19.25-.45.46-.77.64-.33.18-.74.27-1.25.27ZM74.42,48.46c.51,0,.94-.14,1.3-.41s.63-.65.81-1.14c.19-.49.28-1.04.28-1.67s-.09-1.18-.27-1.65c-.18-.48-.45-.85-.81-1.12s-.79-.4-1.3-.4-.97.14-1.33.42c-.36.28-.63.66-.81,1.14s-.27,1.02-.27,1.61.09,1.15.27,1.63c.18.49.45.88.81,1.16.36.29.8.43,1.32.43Z"/>
      <path class="cls-2" d="M80.94,39.71c-.22,0-.42-.08-.58-.23-.16-.15-.24-.34-.24-.55s.08-.41.24-.56.35-.23.58-.23.42.08.58.23c.16.15.25.34.25.56s-.08.4-.25.55c-.16.15-.36.23-.58.23ZM80.36,49.32v-8.19h1.15v8.19h-1.15Z"/>
      <path class="cls-2" d="M88.15,52.38v-11.25h1.11v1.44h.13c.1-.2.25-.42.43-.66.18-.24.44-.45.76-.62s.74-.26,1.25-.26c.68,0,1.27.17,1.78.52.51.35.91.84,1.2,1.47.29.63.44,1.38.44,2.23s-.14,1.61-.43,2.24-.69,1.13-1.2,1.48c-.51.35-1.11.53-1.78.53-.5,0-.92-.09-1.25-.27-.33-.18-.58-.39-.77-.64-.19-.25-.33-.47-.43-.67h-.09v4.46h-1.15ZM91.68,48.46c.52,0,.96-.14,1.32-.43.36-.29.63-.67.81-1.16.18-.49.27-1.03.27-1.63s-.09-1.13-.27-1.61-.45-.86-.81-1.14c-.36-.28-.8-.42-1.33-.42s-.95.13-1.31.4c-.35.27-.62.64-.81,1.12-.18.48-.28,1.03-.28,1.65s.09,1.19.28,1.67c.18.49.45.87.81,1.14.36.27.79.41,1.3.41Z"/>
      <path class="cls-2" d="M99.62,49.51c-.51,0-.97-.1-1.38-.29s-.75-.48-.99-.85c-.25-.37-.37-.82-.37-1.35,0-.44.08-.8.26-1.08s.4-.51.7-.69c.3-.17.63-.31,1.01-.4.38-.1.78-.17,1.2-.22.47-.06.86-.11,1.17-.15.31-.04.55-.1.71-.19.16-.09.24-.23.24-.44v-.12c0-.36-.07-.66-.21-.91-.14-.25-.34-.44-.61-.58-.27-.13-.6-.2-1-.2s-.73.06-1.01.18c-.29.12-.52.28-.7.46-.18.19-.32.39-.41.6l-1.11-.37c.2-.47.47-.85.81-1.12.34-.27.72-.47,1.14-.59.42-.12.84-.18,1.26-.18.3,0,.62.04.97.11.35.08.67.21.98.41.31.2.56.48.76.85.2.37.3.85.3,1.44v5.48h-1.14v-1.2h-.08c-.11.22-.27.44-.48.65-.21.21-.49.39-.82.53-.33.14-.73.21-1.18.21ZM99.81,48.49c.49,0,.91-.1,1.26-.31.35-.21.62-.48.81-.82.19-.34.28-.7.28-1.08v-1.16c-.06.07-.17.13-.35.18-.17.05-.37.1-.59.14-.22.04-.44.08-.66.1-.22.03-.4.05-.54.06-.39.05-.74.13-1.04.23-.3.11-.53.26-.7.46-.17.2-.25.46-.25.77s.08.57.23.78c.15.21.36.37.63.48.27.11.57.17.91.17Z"/>
      <path class="cls-2" d="M108.52,49.43c-.56,0-1.04-.11-1.46-.34-.42-.23-.74-.57-.98-1.02s-.35-1.01-.35-1.68v-5.25h1.15v5.16c0,.65.18,1.16.54,1.53.36.37.83.56,1.43.56.42,0,.79-.09,1.11-.27.33-.18.58-.44.77-.77.19-.34.28-.74.28-1.21v-5h1.16v8.19h-1.12v-1.95h.16c-.24.74-.6,1.27-1.07,1.58-.48.31-1.01.47-1.62.47Z"/>
      <path class="cls-2" d="M114.58,49.32v-8.19h1.11v1.27h.08c.16-.41.44-.75.83-1s.84-.38,1.35-.38c.09,0,.19,0,.3,0,.12,0,.21.01.28.02v1.16s-.12-.02-.25-.03c-.13-.02-.28-.03-.44-.03-.41,0-.77.09-1.09.26-.32.17-.57.41-.75.71-.18.3-.27.65-.27,1.04v5.19h-1.15Z"/>
      <path class="cls-2" d="M122.32,49.51c-.51,0-.97-.1-1.38-.29s-.75-.48-.99-.85c-.25-.37-.37-.82-.37-1.35,0-.44.09-.8.26-1.08s.4-.51.7-.69c.29-.17.63-.31,1.01-.4.38-.1.78-.17,1.2-.22.47-.06.86-.11,1.17-.15.31-.04.55-.1.71-.19.16-.09.24-.23.24-.44v-.12c0-.36-.07-.66-.21-.91-.14-.25-.34-.44-.61-.58-.27-.13-.6-.2-1-.2s-.73.06-1.01.18c-.29.12-.52.28-.7.46-.18.19-.32.39-.41.6l-1.11-.37c.2-.47.47-.85.81-1.12.34-.27.72-.47,1.14-.59.42-.12.84-.18,1.26-.18.3,0,.62.04.97.11.35.08.67.21.98.41.31.2.56.48.76.85.2.37.3.85.3,1.44v5.48h-1.13v-1.2h-.08c-.11.22-.27.44-.48.65-.21.21-.49.39-.82.53-.33.14-.72.21-1.18.21ZM122.51,48.49c.49,0,.91-.1,1.26-.31.35-.21.62-.48.81-.82.19-.34.28-.7.28-1.08v-1.16c-.06.07-.17.13-.35.18-.17.05-.37.1-.59.14-.22.04-.44.08-.66.1-.22.03-.4.05-.54.06-.39.05-.74.13-1.04.23-.3.11-.53.26-.7.46-.17.2-.25.46-.25.77s.08.57.23.78c.15.21.36.37.63.48.27.11.57.17.91.17Z"/>
      <path class="cls-2" d="M129.36,49.41c-.24,0-.45-.09-.63-.26s-.26-.38-.26-.63.09-.45.26-.63.38-.26.63-.26.45.09.63.26c.17.17.26.38.26.63s-.09.45-.26.63c-.17.17-.38.26-.63.26Z"/>
      <path class="cls-2" d="M49.88,67.47c-.93,0-1.75-.23-2.47-.68-.72-.45-1.29-1.1-1.7-1.94-.41-.84-.62-1.83-.62-2.98s.21-2.15.62-2.98c.41-.84.98-1.48,1.7-1.94.72-.46,1.54-.68,2.47-.68.57,0,1.09.09,1.59.26.49.17.93.42,1.31.73.38.32.7.69.95,1.13.25.44.42.92.52,1.45h-1.22c-.08-.38-.21-.71-.4-1.01-.19-.3-.42-.55-.7-.77-.28-.21-.59-.38-.94-.49-.35-.11-.72-.17-1.11-.17-.67,0-1.28.17-1.82.52-.54.34-.98.85-1.3,1.52-.32.67-.48,1.48-.48,2.45s.16,1.78.48,2.44c.32.67.76,1.17,1.3,1.51s1.15.51,1.82.51c.39,0,.76-.06,1.11-.18s.66-.28.94-.49c.28-.21.51-.47.7-.77.19-.3.32-.64.4-1.01h1.22c-.09.53-.26,1.01-.51,1.44-.25.43-.57.81-.95,1.13-.38.32-.82.57-1.31.74-.49.17-1.02.26-1.59.26Z"/>
      <path class="cls-2" d="M58.53,67.51c-.51,0-.97-.1-1.38-.29s-.75-.48-.99-.85c-.25-.37-.37-.82-.37-1.35,0-.44.09-.8.26-1.08s.4-.51.7-.69c.29-.17.63-.31,1.01-.4.38-.1.78-.17,1.2-.22.47-.06.86-.11,1.17-.15.31-.04.55-.1.71-.19.16-.09.24-.23.24-.44v-.12c0-.36-.07-.66-.21-.91-.14-.25-.34-.44-.61-.58-.27-.13-.6-.2-1-.2s-.73.06-1.01.18c-.29.12-.52.28-.7.46-.18.19-.32.39-.41.6l-1.11-.37c.2-.47.47-.85.81-1.12.34-.27.72-.47,1.14-.59.42-.12.84-.18,1.26-.18.3,0,.62.04.97.11.35.08.67.21.98.41.31.2.56.48.76.85.2.37.3.85.3,1.44v5.48h-1.13v-1.2h-.08c-.11.22-.27.44-.48.65-.21.21-.49.39-.82.53-.33.14-.72.21-1.18.21ZM58.72,66.49c.49,0,.91-.1,1.26-.31.35-.21.62-.48.81-.82.19-.34.28-.7.28-1.08v-1.16c-.06.07-.17.13-.35.18-.17.05-.37.1-.59.14-.22.04-.44.08-.66.1-.22.03-.4.05-.54.06-.39.05-.74.13-1.04.23-.3.11-.53.26-.7.46-.17.2-.25.46-.25.77s.08.57.23.78c.15.21.36.37.63.48.27.11.57.17.91.17Z"/>
      <path class="cls-2" d="M64.65,67.32v-8.19h1.12v1.85s-.1,0-.1,0c.11-.45.29-.82.54-1.11s.53-.51.86-.66c.33-.14.67-.22,1.02-.22.6,0,1.08.18,1.46.55.38.37.62.86.73,1.47h-.17c.1-.42.28-.78.54-1.08.26-.3.57-.53.94-.7s.77-.24,1.2-.24c.48,0,.91.1,1.3.31.39.21.7.52.92.94.23.42.34.94.34,1.56v5.52h-1.16v-5.49c0-.62-.17-1.08-.51-1.36-.34-.28-.75-.43-1.23-.43-.38,0-.71.08-.99.24-.28.16-.5.38-.66.67-.16.28-.23.62-.23,1v5.37h-1.15v-5.6c0-.51-.16-.92-.48-1.22s-.72-.46-1.22-.46c-.34,0-.66.08-.96.24-.3.16-.53.39-.71.7-.18.31-.27.68-.27,1.12v5.21h-1.15Z"/>
      <path class="cls-2" d="M81.46,67.5c-.5,0-.92-.09-1.25-.27-.33-.18-.58-.39-.77-.64-.19-.25-.33-.47-.43-.67h-.13v1.4h-1.11v-10.91h1.15v4.17h.1c.1-.2.25-.42.43-.66.18-.24.44-.45.76-.62s.74-.26,1.25-.26c.68,0,1.27.17,1.78.52.51.35.91.84,1.2,1.47.29.63.44,1.38.44,2.23s-.14,1.61-.43,2.24-.69,1.13-1.2,1.48c-.51.35-1.1.53-1.78.53ZM81.3,66.46c.52,0,.96-.14,1.32-.43.36-.29.63-.67.81-1.16.18-.49.28-1.03.28-1.63s-.09-1.13-.27-1.61-.45-.86-.81-1.14c-.36-.28-.8-.42-1.33-.42s-.95.13-1.31.4c-.35.27-.62.64-.81,1.12-.18.48-.27,1.03-.27,1.65s.09,1.19.27,1.67c.18.49.45.87.81,1.14.36.27.79.41,1.3.41Z"/>
      <path class="cls-2" d="M87.45,57.71c-.22,0-.42-.08-.58-.23-.16-.15-.24-.34-.24-.55s.08-.41.24-.56.35-.23.58-.23.42.08.58.23c.16.15.25.34.25.56s-.08.4-.25.55c-.16.15-.36.23-.58.23ZM86.87,67.32v-8.19h1.15v8.19h-1.15Z"/>
      <path class="cls-2" d="M92.66,67.51c-.51,0-.97-.1-1.38-.29s-.75-.48-.99-.85c-.25-.37-.37-.82-.37-1.35,0-.44.08-.8.26-1.08s.4-.51.7-.69c.3-.17.63-.31,1.01-.4.38-.1.78-.17,1.2-.22.47-.06.86-.11,1.17-.15.31-.04.55-.1.71-.19.16-.09.24-.23.24-.44v-.12c0-.36-.07-.66-.21-.91-.14-.25-.34-.44-.61-.58-.27-.13-.6-.2-1-.2s-.73.06-1.01.18c-.29.12-.52.28-.7.46-.18.19-.32.39-.41.6l-1.11-.37c.2-.47.47-.85.81-1.12.34-.27.72-.47,1.14-.59.42-.12.84-.18,1.26-.18.3,0,.62.04.97.11.35.08.67.21.98.41.31.2.56.48.76.85.2.37.3.85.3,1.44v5.48h-1.14v-1.2h-.08c-.11.22-.27.44-.48.65-.21.21-.49.39-.82.53-.33.14-.73.21-1.18.21ZM92.85,66.49c.49,0,.91-.1,1.26-.31.35-.21.62-.48.81-.82.19-.34.28-.7.28-1.08v-1.16c-.06.07-.17.13-.35.18-.17.05-.37.1-.59.14-.22.04-.44.08-.66.1-.22.03-.4.05-.54.06-.39.05-.74.13-1.04.23-.3.11-.53.26-.7.46-.17.2-.25.46-.25.77s.08.57.23.78c.15.21.36.37.63.48.27.11.57.17.91.17Z"/>
      <path class="cls-2" d="M14.36,75.71c-.22,0-.42-.08-.58-.23-.16-.15-.24-.34-.24-.55s.08-.41.24-.56.35-.23.58-.23.42.08.58.23c.16.15.25.34.25.56s-.08.4-.25.55c-.16.15-.36.23-.58.23ZM13.78,85.32v-8.19h1.15v8.19h-1.15Z"/>
      <path class="cls-2" d="M17.35,85.32v-8.19h1.12v1.85s-.1,0-.1,0c.11-.45.29-.82.54-1.11s.53-.51.86-.66c.33-.14.67-.22,1.02-.22.6,0,1.08.18,1.46.55.38.37.62.86.73,1.47h-.17c.1-.42.28-.78.54-1.08.26-.3.57-.53.94-.7s.77-.24,1.2-.24c.48,0,.91.1,1.3.31.39.21.7.52.92.94.23.42.34.94.34,1.56v5.52h-1.16v-5.49c0-.62-.17-1.08-.51-1.36-.34-.28-.75-.43-1.23-.43-.38,0-.71.08-.99.24-.28.16-.5.38-.66.67-.16.28-.23.62-.23,1v5.37h-1.15v-5.6c0-.51-.16-.92-.48-1.22s-.72-.46-1.22-.46c-.34,0-.66.08-.96.24-.3.16-.53.39-.71.7-.18.31-.27.68-.27,1.12v5.21h-1.15Z"/>
      <path class="cls-2" d="M30.47,85.32v-8.19h1.12v1.85s-.09,0-.09,0c.11-.45.29-.82.53-1.11s.53-.51.86-.66c.33-.14.67-.22,1.02-.22.6,0,1.08.18,1.46.55.38.37.62.86.73,1.47h-.17c.1-.42.28-.78.53-1.08.26-.3.57-.53.94-.7s.77-.24,1.2-.24c.48,0,.91.1,1.3.31.39.21.7.52.92.94.23.42.34.94.34,1.56v5.52h-1.16v-5.49c0-.62-.17-1.08-.51-1.36-.34-.28-.75-.43-1.23-.43-.38,0-.71.08-.99.24-.28.16-.5.38-.66.67-.16.28-.23.62-.23,1v5.37h-1.15v-5.6c0-.51-.16-.92-.48-1.22s-.72-.46-1.22-.46c-.34,0-.66.08-.96.24-.29.16-.53.39-.71.7-.18.31-.27.68-.27,1.12v5.21h-1.15Z"/>
      <path class="cls-2" d="M46.96,85.5c-.78,0-1.45-.18-2.02-.54-.57-.36-1.01-.85-1.32-1.48-.31-.63-.46-1.36-.46-2.2s.15-1.57.45-2.21c.3-.64.73-1.14,1.27-1.5s1.18-.54,1.91-.54c.44,0,.87.08,1.29.23.42.15.8.39,1.14.72s.61.75.81,1.26c.2.51.3,1.14.3,1.86v.49h-6.39v-.98h5.77l-.54.37c0-.56-.09-1.06-.27-1.5-.18-.44-.45-.79-.8-1.04-.35-.25-.78-.38-1.29-.38s-.95.13-1.31.38c-.37.26-.65.59-.85,1.01s-.3.87-.3,1.36v.62c0,.63.11,1.16.32,1.62.21.45.52.8.92,1.04.4.24.86.36,1.39.36.35,0,.67-.05.95-.16s.51-.26.71-.46c.19-.19.34-.42.44-.68l1.11.32c-.13.38-.34.72-.63,1.02s-.66.54-1.09.72c-.43.18-.93.27-1.49.27Z"/>
      <path class="cls-2" d="M55.29,85.5c-.67,0-1.27-.18-1.78-.53s-.91-.84-1.2-1.48-.43-1.38-.43-2.24.14-1.6.44-2.23c.29-.63.69-1.12,1.21-1.47.51-.35,1.11-.52,1.78-.52.52,0,.94.09,1.26.26.32.18.57.38.76.62.19.24.33.46.42.66h.09v-4.17h1.16v10.91h-1.12v-1.4h-.13c-.09.2-.23.42-.42.67-.19.25-.45.46-.77.64-.33.18-.74.27-1.25.27ZM55.46,84.46c.51,0,.94-.14,1.3-.41s.63-.65.81-1.14c.19-.49.28-1.04.28-1.67s-.09-1.18-.27-1.65c-.18-.48-.45-.85-.81-1.12s-.79-.4-1.3-.4-.97.14-1.33.42c-.36.28-.63.66-.81,1.14s-.27,1.02-.27,1.61.09,1.15.27,1.63c.18.49.45.88.81,1.16.36.29.8.43,1.32.43Z"/>
      <path class="cls-2" d="M61.98,75.71c-.22,0-.42-.08-.58-.23-.16-.15-.24-.34-.24-.55s.08-.41.24-.56.35-.23.58-.23.42.08.58.23c.16.15.25.34.25.56s-.08.4-.25.55c-.16.15-.36.23-.58.23ZM61.4,85.32v-8.19h1.15v8.19h-1.15Z"/>
      <path class="cls-2" d="M67.19,85.51c-.51,0-.97-.1-1.38-.29s-.75-.48-.99-.85c-.25-.37-.37-.82-.37-1.35,0-.44.09-.8.26-1.08s.4-.51.7-.69c.29-.17.63-.31,1.01-.4.38-.1.78-.17,1.2-.22.47-.06.86-.11,1.17-.15.31-.04.55-.1.71-.19.16-.09.24-.23.24-.44v-.12c0-.36-.07-.66-.21-.91-.14-.25-.34-.44-.61-.58-.27-.13-.6-.2-1-.2s-.73.06-1.01.18c-.29.12-.52.28-.7.46-.18.19-.32.39-.41.6l-1.11-.37c.2-.47.47-.85.81-1.12.34-.27.72-.47,1.14-.59.42-.12.84-.18,1.26-.18.3,0,.62.04.97.11.35.08.67.21.98.41.31.2.56.48.76.85.2.37.3.85.3,1.44v5.48h-1.13v-1.2h-.08c-.11.22-.27.44-.48.65-.21.21-.49.39-.82.53-.33.14-.72.21-1.18.21ZM67.38,84.49c.49,0,.91-.1,1.26-.31.35-.21.62-.48.81-.82.19-.34.28-.7.28-1.08v-1.16c-.06.07-.17.13-.35.18-.17.05-.37.1-.59.14-.22.04-.44.08-.66.1-.22.03-.4.05-.54.06-.39.05-.74.13-1.04.23-.3.11-.53.26-.7.46-.17.2-.25.46-.25.77s.08.57.23.78c.15.21.36.37.63.48.27.11.57.17.91.17Z"/>
      <path class="cls-2" d="M76.3,77.13v1h-4.07v-1h4.07ZM73.46,75.19h1.15v8.11c0,.39.08.67.25.85.17.18.43.26.78.25.08,0,.17-.02.29-.03.11-.02.22-.04.32-.05l.23.98c-.12.04-.25.08-.41.1-.15.02-.3.03-.45.03-.68.02-1.22-.15-1.6-.51-.38-.36-.57-.87-.57-1.52v-8.2Z"/>
      <path class="cls-2" d="M80.3,85.51c-.51,0-.97-.1-1.38-.29s-.75-.48-.99-.85c-.25-.37-.37-.82-.37-1.35,0-.44.09-.8.26-1.08s.4-.51.7-.69c.29-.17.63-.31,1.01-.4.38-.1.78-.17,1.2-.22.47-.06.86-.11,1.17-.15.31-.04.55-.1.71-.19.16-.09.24-.23.24-.44v-.12c0-.36-.07-.66-.21-.91-.14-.25-.34-.44-.61-.58-.27-.13-.6-.2-1-.2s-.73.06-1.01.18c-.29.12-.52.28-.7.46-.18.19-.32.39-.41.6l-1.11-.37c.2-.47.47-.85.81-1.12.34-.27.72-.47,1.14-.59.42-.12.84-.18,1.26-.18.3,0,.62.04.97.11.35.08.67.21.98.41.31.2.56.48.76.85.2.37.3.85.3,1.44v5.48h-1.13v-1.2h-.08c-.11.22-.27.44-.48.65-.21.21-.49.39-.82.53-.33.14-.72.21-1.18.21ZM80.49,84.49c.49,0,.91-.1,1.26-.31.35-.21.62-.48.81-.82.19-.34.28-.7.28-1.08v-1.16c-.06.07-.17.13-.35.18-.17.05-.37.1-.59.14-.22.04-.44.08-.66.1-.22.03-.4.05-.54.06-.39.05-.74.13-1.04.23-.3.11-.53.26-.7.46-.17.2-.25.46-.25.77s.08.57.23.78c.15.21.36.37.63.48.27.11.57.17.91.17Z"/>
      <path class="cls-2" d="M86.42,85.32v-8.19h1.12v1.85s-.1,0-.1,0c.11-.45.29-.82.54-1.11s.53-.51.86-.66c.33-.14.67-.22,1.02-.22.6,0,1.08.18,1.46.55.38.37.62.86.73,1.47h-.17c.1-.42.28-.78.54-1.08.26-.3.57-.53.94-.7s.77-.24,1.2-.24c.48,0,.91.1,1.3.31.39.21.7.52.92.94.23.42.34.94.34,1.56v5.52h-1.16v-5.49c0-.62-.17-1.08-.51-1.36-.34-.28-.75-.43-1.23-.43-.38,0-.71.08-.99.24-.28.16-.5.38-.66.67-.16.28-.23.62-.23,1v5.37h-1.15v-5.6c0-.51-.16-.92-.48-1.22s-.72-.46-1.22-.46c-.34,0-.66.08-.96.24-.3.16-.53.39-.71.7-.18.31-.27.68-.27,1.12v5.21h-1.15Z"/>
      <path class="cls-2" d="M102.91,85.5c-.78,0-1.45-.18-2.02-.54-.57-.36-1.01-.85-1.31-1.48-.31-.63-.46-1.36-.46-2.2s.15-1.57.45-2.21c.3-.64.73-1.14,1.27-1.5s1.18-.54,1.91-.54c.44,0,.87.08,1.29.23.42.15.8.39,1.13.72s.61.75.81,1.26c.2.51.3,1.14.3,1.86v.49h-6.39v-.98h5.77l-.54.37c0-.56-.09-1.06-.27-1.5-.18-.44-.45-.79-.8-1.04-.35-.25-.78-.38-1.29-.38s-.95.13-1.32.38c-.37.26-.65.59-.85,1.01s-.3.87-.3,1.36v.62c0,.63.11,1.16.32,1.62.21.45.52.8.92,1.04.4.24.86.36,1.39.36.35,0,.67-.05.94-.16s.51-.26.71-.46c.19-.19.34-.42.44-.68l1.11.32c-.13.38-.34.72-.63,1.02s-.66.54-1.09.72c-.43.18-.93.27-1.49.27Z"/>
      <path class="cls-2" d="M109.4,80.32v5h-1.15v-8.19h1.11v1.95s-.16,0-.16,0c.24-.74.59-1.26,1.07-1.58.47-.32,1.02-.47,1.64-.47.55,0,1.04.11,1.45.34.42.23.74.57.98,1.02.23.45.35,1.01.35,1.68v5.25h-1.16v-5.16c0-.65-.18-1.16-.53-1.53-.35-.37-.83-.56-1.43-.56-.41,0-.78.09-1.11.27-.33.18-.59.43-.78.77-.19.33-.29.74-.29,1.21Z"/>
      <path class="cls-2" d="M120.09,77.13v1h-4.07v-1h4.07ZM117.25,75.19h1.15v8.11c0,.39.08.67.25.85.17.18.43.26.78.25.08,0,.17-.02.29-.03.12-.02.22-.04.32-.05l.23.98c-.12.04-.25.08-.41.1-.15.02-.3.03-.45.03-.68.02-1.22-.15-1.6-.51-.38-.36-.57-.87-.57-1.52v-8.2Z"/>
      <path class="cls-2" d="M125.03,85.5c-.78,0-1.45-.18-2.02-.54-.57-.36-1.01-.85-1.31-1.48-.31-.63-.46-1.36-.46-2.2s.15-1.57.45-2.21c.3-.64.73-1.14,1.27-1.5s1.18-.54,1.91-.54c.44,0,.87.08,1.29.23.42.15.8.39,1.13.72s.61.75.81,1.26c.2.51.3,1.14.3,1.86v.49h-6.39v-.98h5.77l-.54.37c0-.56-.09-1.06-.27-1.5-.18-.44-.45-.79-.8-1.04-.35-.25-.78-.38-1.29-.38s-.95.13-1.32.38c-.37.26-.65.59-.85,1.01s-.3.87-.3,1.36v.62c0,.63.11,1.16.32,1.62.21.45.52.8.92,1.04.4.24.86.36,1.39.36.35,0,.67-.05.94-.16s.51-.26.71-.46c.19-.19.34-.42.44-.68l1.11.32c-.13.38-.34.72-.63,1.02s-.66.54-1.09.72c-.43.18-.93.27-1.49.27Z"/>
      <path class="cls-2" d="M39.53,92.41v10.91h-1.15v-10.91h1.15Z"/>
      <path class="cls-2" d="M45.21,103.5c-.73,0-1.37-.18-1.92-.54-.55-.36-.98-.85-1.29-1.49-.31-.63-.46-1.37-.46-2.21s.16-1.58.46-2.22c.31-.64.74-1.13,1.29-1.49.55-.35,1.19-.53,1.92-.53s1.37.18,1.92.53c.55.35.99.85,1.3,1.49.31.64.47,1.38.47,2.22s-.16,1.57-.47,2.21c-.31.63-.74,1.13-1.3,1.49-.55.36-1.2.54-1.92.54ZM45.21,102.46c.56,0,1.02-.15,1.4-.44.37-.29.65-.68.84-1.17.19-.48.28-1.01.28-1.58s-.09-1.1-.28-1.59-.47-.88-.84-1.18c-.37-.29-.84-.44-1.4-.44s-1.01.15-1.38.44c-.37.3-.65.69-.84,1.17-.19.49-.28,1.02-.28,1.59s.09,1.1.28,1.58c.19.48.47.87.84,1.17s.83.44,1.38.44Z"/>
      <path class="cls-2" d="M57.8,103.5c-.55,0-1.03-.08-1.46-.25-.42-.16-.78-.41-1.05-.73-.28-.32-.46-.71-.56-1.17l1.1-.26c.12.47.34.82.68,1.04.34.23.76.34,1.28.34.59,0,1.06-.13,1.42-.4s.54-.58.54-.95c0-.31-.1-.56-.31-.77-.21-.21-.52-.36-.95-.46l-1.35-.32c-.72-.17-1.26-.44-1.62-.81-.36-.37-.53-.83-.53-1.4,0-.46.13-.87.38-1.22.26-.35.6-.63,1.05-.83.44-.2.95-.3,1.52-.3.54,0,1,.08,1.38.24.38.16.69.39.94.68s.43.63.56,1.03l-1.05.27c-.12-.33-.32-.62-.6-.86-.28-.24-.68-.37-1.22-.37s-.94.12-1.28.36c-.34.24-.51.55-.51.93,0,.32.12.58.34.79.23.2.59.36,1.08.48l1.25.3c.72.17,1.25.44,1.6.8.35.36.53.82.53,1.38,0,.47-.13.89-.4,1.26-.27.37-.63.66-1.11.87-.47.21-1.02.31-1.64.31Z"/>
      <path class="cls-2" d="M65.94,95.13v1h-4.07v-1h4.07ZM63.09,93.19h1.15v8.11c0,.39.08.67.25.85.17.18.43.26.78.25.08,0,.17-.02.29-.03.12-.02.22-.04.32-.05l.23.98c-.12.04-.25.08-.41.1-.15.02-.3.03-.45.03-.68.02-1.22-.15-1.6-.51-.38-.36-.57-.87-.57-1.52v-8.2Z"/>
      <path class="cls-2" d="M68.21,93.71c-.22,0-.42-.08-.58-.23-.16-.15-.24-.34-.24-.55s.08-.41.24-.56.35-.23.58-.23.42.08.58.23c.16.15.25.34.25.56s-.08.4-.25.55c-.16.15-.36.23-.58.23ZM67.63,103.32v-8.19h1.15v8.19h-1.15Z"/>
      <path class="cls-2" d="M71.2,103.32v-8.19h1.12v1.85s-.1,0-.1,0c.11-.45.29-.82.54-1.11s.53-.51.86-.66c.33-.14.67-.22,1.02-.22.6,0,1.08.18,1.46.55.38.37.62.86.73,1.47h-.17c.1-.42.28-.78.54-1.08.26-.3.57-.53.94-.7s.77-.24,1.2-.24c.48,0,.91.1,1.3.31.39.21.7.52.92.94.23.42.34.94.34,1.56v5.52h-1.16v-5.49c0-.62-.17-1.08-.51-1.36-.34-.28-.75-.43-1.23-.43-.38,0-.71.08-.99.24-.28.16-.5.38-.66.67-.16.28-.23.62-.23,1v5.37h-1.15v-5.6c0-.51-.16-.92-.48-1.22s-.72-.46-1.22-.46c-.34,0-.66.08-.96.24-.3.16-.53.39-.71.7-.18.31-.27.68-.27,1.12v5.21h-1.15Z"/>
      <path class="cls-2" d="M87.57,103.5c-.73,0-1.37-.18-1.92-.54-.55-.36-.98-.85-1.29-1.49-.31-.63-.46-1.37-.46-2.21s.16-1.58.46-2.22c.31-.64.74-1.13,1.29-1.49.55-.35,1.19-.53,1.92-.53s1.37.18,1.92.53c.55.35.99.85,1.3,1.49.31.64.47,1.38.47,2.22s-.16,1.57-.47,2.21c-.31.63-.74,1.13-1.3,1.49-.55.36-1.2.54-1.92.54ZM87.57,102.46c.56,0,1.02-.15,1.4-.44.37-.29.65-.68.84-1.17.19-.48.28-1.01.28-1.58s-.09-1.1-.28-1.59-.47-.88-.84-1.18c-.37-.29-.84-.44-1.4-.44s-1.01.15-1.38.44c-.37.3-.65.69-.84,1.17-.19.49-.28,1.02-.28,1.59s.09,1.1.28,1.58c.19.48.47.87.84,1.17s.83.44,1.38.44Z"/>
      <path class="cls-2" d="M94.41,92.41v10.91h-1.15v-10.91h1.15Z"/>
      <path class="cls-2" d="M100.08,103.5c-.73,0-1.37-.18-1.92-.54-.55-.36-.98-.85-1.29-1.49-.31-.63-.46-1.37-.46-2.21s.16-1.58.46-2.22c.31-.64.74-1.13,1.29-1.49.55-.35,1.19-.53,1.92-.53s1.37.18,1.92.53c.55.35.99.85,1.3,1.49.31.64.47,1.38.47,2.22s-.16,1.57-.47,2.21c-.31.63-.74,1.13-1.3,1.49-.55.36-1.2.54-1.92.54ZM100.08,102.46c.56,0,1.02-.15,1.4-.44.37-.29.65-.68.84-1.17.19-.48.28-1.01.28-1.58s-.09-1.1-.28-1.59-.47-.88-.84-1.18c-.37-.29-.84-.44-1.4-.44s-1.01.15-1.38.44c-.37.3-.65.69-.84,1.17-.19.49-.28,1.02-.28,1.59s.09,1.1.28,1.58c.19.48.47.87.84,1.17s.83.44,1.38.44Z"/>
      <path class="cls-2" d="M42.15,121.51c-.51,0-.97-.1-1.38-.29s-.75-.48-.99-.85c-.25-.37-.37-.82-.37-1.35,0-.44.08-.8.26-1.08s.4-.51.7-.69c.3-.17.63-.31,1.01-.4.38-.1.78-.17,1.2-.22.47-.06.86-.11,1.17-.15.31-.04.55-.1.71-.19.16-.09.24-.23.24-.44v-.12c0-.36-.07-.66-.21-.91-.14-.25-.34-.44-.61-.58-.27-.13-.6-.2-1-.2s-.73.06-1.01.18c-.29.12-.52.28-.7.46-.18.19-.32.39-.41.6l-1.11-.37c.2-.47.47-.85.81-1.12.34-.27.72-.47,1.14-.59.42-.12.84-.18,1.26-.18.3,0,.62.04.97.11.35.08.67.21.98.41.31.2.56.48.76.85.2.37.3.85.3,1.44v5.48h-1.14v-1.2h-.08c-.11.22-.27.44-.48.65-.21.21-.49.39-.82.53-.33.14-.73.21-1.18.21ZM42.34,120.49c.49,0,.91-.1,1.26-.31.35-.21.62-.48.81-.82.19-.34.28-.7.28-1.08v-1.16c-.06.07-.17.13-.35.18-.17.05-.37.1-.59.14-.22.04-.44.08-.66.1-.22.03-.4.05-.54.06-.39.05-.74.13-1.04.23-.3.11-.53.26-.7.46-.17.2-.25.46-.25.77s.08.57.23.78c.15.21.36.37.63.48.27.11.57.17.91.17Z"/>
      <path class="cls-2" d="M51.26,113.13v1h-4.07v-1h4.07ZM48.42,111.19h1.15v8.11c0,.39.08.67.25.85.17.18.43.26.78.25.08,0,.17-.02.29-.03.12-.02.22-.04.32-.05l.23.98c-.12.04-.25.08-.41.1-.15.02-.3.03-.45.03-.68.02-1.22-.15-1.6-.51-.38-.36-.57-.87-.57-1.52v-8.2Z"/>
      <path class="cls-2" d="M55.95,113.13v1h-4.07v-1h4.07ZM53.1,111.19h1.15v8.11c0,.39.08.67.25.85.17.18.43.26.78.25.08,0,.17-.02.29-.03.12-.02.22-.04.32-.05l.23.98c-.12.04-.25.08-.41.1-.15.02-.3.03-.45.03-.68.02-1.22-.15-1.6-.51-.38-.36-.57-.87-.57-1.52v-8.2Z"/>
      <path class="cls-2" d="M58.22,111.71c-.22,0-.42-.08-.58-.23-.16-.15-.24-.34-.24-.55s.08-.41.24-.56.35-.23.58-.23.42.08.58.23c.16.15.25.34.25.56s-.08.4-.25.55c-.16.15-.36.23-.58.23ZM57.64,121.32v-8.19h1.15v8.19h-1.15Z"/>
      <path class="cls-2" d="M63.58,121.32l-3.13-8.19h1.26l1.82,5c.18.48.33.96.46,1.44.13.48.27.95.41,1.4h-.42c.15-.46.28-.92.41-1.4.13-.48.28-.96.46-1.44l1.82-5h1.26l-3.13,8.19h-1.22Z"/>
      <path class="cls-2" d="M71.71,121.51c-.51,0-.97-.1-1.38-.29s-.75-.48-.99-.85c-.25-.37-.37-.82-.37-1.35,0-.44.08-.8.26-1.08s.4-.51.7-.69c.3-.17.63-.31,1.01-.4.38-.1.78-.17,1.2-.22.47-.06.86-.11,1.17-.15.31-.04.55-.1.71-.19.16-.09.24-.23.24-.44v-.12c0-.36-.07-.66-.21-.91-.14-.25-.34-.44-.61-.58-.27-.13-.6-.2-1-.2s-.73.06-1.01.18c-.29.12-.52.28-.7.46-.18.19-.32.39-.41.6l-1.11-.37c.2-.47.47-.85.81-1.12.34-.27.72-.47,1.14-.59.42-.12.84-.18,1.26-.18.3,0,.62.04.97.11.35.08.67.21.98.41.31.2.56.48.76.85.2.37.3.85.3,1.44v5.48h-1.14v-1.2h-.08c-.11.22-.27.44-.48.65-.21.21-.49.39-.82.53-.33.14-.73.21-1.18.21ZM71.9,120.49c.49,0,.91-.1,1.26-.31.35-.21.62-.48.81-.82.19-.34.28-.7.28-1.08v-1.16c-.06.07-.17.13-.35.18-.17.05-.37.1-.59.14-.22.04-.44.08-.66.1-.22.03-.4.05-.54.06-.39.05-.74.13-1.04.23-.3.11-.53.26-.7.46-.17.2-.25.46-.25.77s.08.57.23.78c.15.21.36.37.63.48.27.11.57.17.91.17Z"/>
      <path class="cls-2" d="M78.97,116.32v5h-1.15v-8.19h1.11v1.95s-.16,0-.16,0c.24-.74.59-1.26,1.07-1.58.47-.32,1.02-.47,1.64-.47.55,0,1.04.11,1.45.34.42.23.74.57.98,1.02.23.45.35,1.01.35,1.68v5.25h-1.16v-5.16c0-.65-.18-1.16-.53-1.53-.35-.37-.83-.56-1.43-.56-.41,0-.78.09-1.11.27-.33.18-.59.43-.78.77-.19.33-.29.74-.29,1.21Z"/>
      <path class="cls-2" d="M89.67,113.13v1h-4.07v-1h4.07ZM86.83,111.19h1.15v8.11c0,.39.08.67.25.85.17.18.43.26.78.25.08,0,.17-.02.29-.03.12-.02.22-.04.32-.05l.23.98c-.12.04-.25.08-.41.1-.15.02-.3.03-.45.03-.68.02-1.22-.15-1.6-.51-.38-.36-.57-.87-.57-1.52v-8.2Z"/>
      <path class="cls-2" d="M94.6,121.5c-.78,0-1.45-.18-2.02-.54-.57-.36-1.01-.85-1.31-1.48-.31-.63-.46-1.36-.46-2.2s.15-1.57.45-2.21c.3-.64.73-1.14,1.27-1.5s1.18-.54,1.91-.54c.44,0,.87.08,1.29.23.42.15.8.39,1.13.72s.61.75.81,1.26c.2.51.3,1.14.3,1.86v.49h-6.39v-.98h5.77l-.54.37c0-.56-.09-1.06-.27-1.5-.18-.44-.45-.79-.8-1.04-.35-.25-.78-.38-1.29-.38s-.95.13-1.32.38c-.37.26-.65.59-.85,1.01s-.3.87-.3,1.36v.62c0,.63.11,1.16.32,1.62.21.45.52.8.92,1.04.4.24.86.36,1.39.36.35,0,.67-.05.94-.16s.51-.26.71-.46c.19-.19.34-.42.44-.68l1.11.32c-.13.38-.34.72-.63,1.02s-.66.54-1.09.72c-.43.18-.93.27-1.49.27Z"/>
      <path class="cls-2" d="M100.87,121.41c-.24,0-.45-.09-.63-.26s-.26-.38-.26-.63.09-.45.26-.63.38-.26.63-.26.45.09.63.26.26.38.26.63-.09.45-.26.63-.38.26-.63.26Z"/>
    </g>
  </g>
</svg>