<?xml version="1.0" encoding="UTF-8"?>
<svg xmlns="http://www.w3.org/2000/svg" viewBox="0 0 141.73 141.73">
  <defs>
    <style>
      .cls-1 {
        fill: #f1f2f2;
      }

      .cls-2 {
        fill: #fff;
      }

      .cls-3 {
        fill: #ec724a;
      }

      .cls-4 {
        fill: none;
      }

      .cls-5 {
        fill: #a1b860;
        stroke: #a1b860;
        stroke-miterlimit: 10;
        stroke-width: .5px;
      }

      .cls-6 {
        fill: #8581be;
      }

      .cls-7 {
        fill: #f15b5c;
      }

      .cls-8 {
        fill: #55b6cf;
      }

      .cls-9 {
        fill: #fcb44a;
      }
    </style>
  </defs>
  <g id="Bottom_BGS" data-name="Bottom BGS">
    <path class="cls-5" d="M0,0v49.13c6.99,1.16,13.98,2.28,20.98,3.3-.29-10.81,3.54-21.75,11.2-29.18,9.79-9.49,22.14-9.36,37.05-9.91,5.97-.21,36.56-1.34,42.93,12.87,3.85,8.57-4.55,15.01-.17,27.67.45,1.31.97,2.46,1.52,3.49,9.36-.7,18.77-1.88,28.23-3.6V0H0Z"/>
  </g>
  <g id="Elements">
    <g>
      <path class="cls-9" d="M35.72,86.08c0-13.36,0-26.71,0-40.07.7-.41,1.39-.82,2.03-1.33,11.58-9.26,23.18-18.5,34.76-27.76.5-.4.81-.58,1.43-.09,9.22,7.4,18.45,14.79,27.71,22.13,3.02,2.39,5.86,5.02,9.16,7.06,0,13.35,0,26.71,0,40.06-14.65,0-29.31,0-43.96,0,0-10.77,0-21.54.03-32.31,0-.95-.29-1.13-1.17-1.13-6.14.04-12.27.04-18.41,0-.91,0-1.14.22-1.14,1.13.04,10.77.03,21.54.03,32.31-3.49,0-6.97,0-10.46,0ZM77.34,59.45c0,4.1,0,8.19-.03,12.29,0,.72.16.98.94.97,7.06-.03,14.12-.02,21.17,0,.61,0,.95-.05.94-.82-.05-4.14-.05-8.27-.06-12.41.01-1.95-.01-3.9.06-5.85.03-.8-.21-1.01-1-1-4.51.04-9.02.02-13.54.02-2.56,0-5.12,0-7.68,0-.43,0-.94-.13-.91.61.08,2.07-.13,4.14.11,6.2ZM78.86,37.85c.01-3.11-2.46-5.63-5.51-5.63-3.04,0-5.62,2.58-5.6,5.59.02,3.01,2.5,5.52,5.5,5.55,3.11.03,5.6-2.41,5.61-5.51Z"/>
      <path class="cls-7" d="M110.8,46.02c-3.3-2.04-6.14-4.67-9.16-7.06-9.27-7.34-18.5-14.73-27.71-22.13-.61-.49-.92-.31-1.43.09-11.58,9.26-23.18,18.5-34.76,27.76-.64.51-1.33.92-2.03,1.33-.97.14-1.94.26-2.9-.06-1.72-.58-2.85-1.75-3.18-3.53-.35-1.86.22-3.46,1.73-4.66,5.24-4.19,10.48-8.38,15.71-12.57,7.52-6.02,15.05-12.03,22.57-18.05,2.58-2.06,4.58-2.11,7.12-.08,12.55,10.02,25.08,20.05,37.63,30.06,1.13.9,2.16,1.86,2.48,3.35.63,2.97-1.59,5.69-4.62,5.67-.49,0-.97-.08-1.46-.12Z"/>
      <path class="cls-3" d="M66.84,86.07c14.65,0,29.31,0,43.96,0,.93,0,1.87,0,2.8.04,2,.1,3.55,1.68,3.57,3.61.02,2-1.55,3.6-3.61,3.69-.28.01-.57,0-.85,0-26.22,0-52.44,0-78.66,0-.49,0-.98.03-1.46-.05-1.87-.31-3.12-1.91-3.03-3.82.08-1.81,1.48-3.26,3.36-3.41.93-.07,1.87-.04,2.8-.05,3.49,0,6.97,0,10.46,0,6.89,0,13.77,0,20.66,0Z"/>
      <path class="cls-8" d="M66.84,86.07c-6.89,0-13.77,0-20.66,0,0-10.77,0-21.54-.03-32.31,0-.92.23-1.14,1.14-1.13,6.14.04,12.27.04,18.41,0,.88,0,1.17.18,1.17,1.13-.04,10.77-.03,21.54-.03,32.31ZM60.93,67.57c-1.69-.01-2.52.55-2.56,1.73-.04,1.1.74,1.8,2.06,1.87,1.84.09,2.78-.46,2.84-1.67.07-1.26-.72-1.91-2.35-1.92Z"/>
      <path class="cls-8" d="M100.3,59.47c.01,4.14,0,8.27.06,12.41,0,.78-.33.82-.94.82-7.06-.01-14.12-.02-21.17,0-.77,0-.94-.25-.94-.97.04-4.1.03-8.19.03-12.29,7.65,0,15.31.02,22.96.02Z"/>
      <path class="cls-6" d="M100.3,59.47c-7.65,0-15.31-.01-22.96-.02-.24-2.06-.03-4.13-.11-6.2-.03-.74.48-.61.91-.61,2.56,0,5.12,0,7.68,0,4.51,0,9.02.02,13.54-.02.79,0,1.03.2,1,1-.07,1.95-.05,3.9-.06,5.85Z"/>
      <path class="cls-2" d="M78.86,37.85c-.01,3.1-2.5,5.54-5.61,5.51-3-.03-5.48-2.54-5.5-5.55-.02-3.02,2.56-5.59,5.6-5.59,3.05,0,5.52,2.52,5.51,5.63Z"/>
      <path class="cls-6" d="M60.93,67.57c1.62.01,2.42.66,2.35,1.92-.07,1.22-1.01,1.77-2.84,1.67-1.32-.07-2.09-.77-2.06-1.87.04-1.18.86-1.74,2.56-1.73Z"/>
    </g>
  </g>
  <g id="Top_BGS" data-name="Top BGS">
    <path class="cls-5" d="M122.55,70.78c-.39,9.28-17.5,17.12-34.05,20.51-3.27.67-6.52,1.17-9.6,1.47-1.27.12-2.55.25-3.86.34-3.16.23-6.53.29-10.4-.2-1.02-.12-2.07-.29-3.16-.5-1.18-.22-2.93-.55-5.06-1.06-9.2-2.22-25.37-7.93-32.3-24.21-1.97-4.62-2.99-9.64-3.13-14.69-7-1.03-13.99-2.14-20.98-3.3v92.6h141.73V53.78c-9.46,1.72-18.87,2.9-28.23,3.6,3.78,7.05,9.26,8.07,9.04,13.39Z"/>
  </g>
  <g id="Texts">
    <g>
      <rect class="cls-4" x="0" y="87.41" width="141.73" height="54.32"/>
      <path class="cls-1" d="M59.79,108.7c1.86,0,3.1.7,3.71,1.14.34.26.35.58.13.93l-.29.46c-.22.37-.53.4-.91.16-.5-.32-1.39-.8-2.56-.8-2.48,0-3.81,1.81-3.81,3.91s1.38,4.07,3.83,4.07c1.28,0,2.26-.61,2.79-.99.35-.26.67-.26.93.11l.32.43c.24.32.22.66-.1.93-.64.51-2,1.41-4.02,1.41-3.57,0-5.87-2.58-5.87-5.92s2.42-5.83,5.86-5.83Z"/>
      <path class="cls-1" d="M69.64,115.21h.34v-.19c0-1.07-.69-1.44-1.52-1.44-.69,0-1.31.26-1.7.46-.4.18-.7.11-.9-.27l-.16-.3c-.19-.37-.13-.69.26-.9.53-.27,1.46-.67,2.67-.67,2.11,0,3.38,1.18,3.38,3.25v4.43c0,.45-.22.67-.67.67h-.54c-.43,0-.66-.22-.66-.67v-.32c0-.22.03-.35.03-.35h-.03s-.77,1.54-2.56,1.54c-1.49,0-2.71-.96-2.71-2.45,0-2.38,2.95-2.79,4.77-2.79ZM68.12,118.89c1.14,0,1.87-1.15,1.87-2.14v-.3h-.34c-1.02,0-2.77.16-2.77,1.38,0,.54.42,1.07,1.23,1.07Z"/>
      <path class="cls-1" d="M73.55,118.7l.19-.29c.24-.34.51-.37.91-.16.38.21.99.56,1.83.56.7,0,1.14-.32,1.14-.83,0-1.33-4.05-.83-4.05-3.63,0-1.6,1.41-2.45,3.12-2.45,1.09,0,1.84.35,2.27.59.37.19.42.53.24.9l-.16.29c-.19.38-.5.43-.9.26-.35-.16-.88-.4-1.55-.4s-1.1.29-1.1.8c0,1.34,4.05.82,4.05,3.6,0,1.44-1.22,2.51-3.11,2.51-1.31,0-2.22-.5-2.72-.83-.37-.21-.4-.56-.16-.91Z"/>
      <path class="cls-1" d="M85.2,115.21h.34v-.19c0-1.07-.69-1.44-1.52-1.44-.69,0-1.31.26-1.7.46-.4.18-.7.11-.9-.27l-.16-.3c-.19-.37-.13-.69.26-.9.53-.27,1.46-.67,2.67-.67,2.11,0,3.38,1.18,3.38,3.25v4.43c0,.45-.22.67-.67.67h-.54c-.43,0-.66-.22-.66-.67v-.32c0-.22.03-.35.03-.35h-.03s-.77,1.54-2.56,1.54c-1.49,0-2.71-.96-2.71-2.45,0-2.38,2.95-2.79,4.77-2.79ZM83.68,118.89c1.14,0,1.87-1.15,1.87-2.14v-.3h-.34c-1.02,0-2.77.16-2.77,1.38,0,.54.42,1.07,1.23,1.07Z"/>
    </g>
  </g>
</svg>