<?xml version="1.0" encoding="UTF-8"?>
<svg xmlns="http://www.w3.org/2000/svg" viewBox="0 0 141.73 141.73">
  <defs>
    <style>
      .cls-1 {
        fill: #f1f2f2;
      }

      .cls-2 {
        fill: #e84645;
      }

      .cls-3 {
        fill: none;
      }

      .cls-4 {
        fill: #ffc448;
      }

      .cls-5 {
        fill: #f59595;
      }

      .cls-6 {
        fill: #cb2d2c;
      }

      .cls-7 {
        fill: #f27c7d;
      }

      .cls-8 {
        fill: #fcb44a;
        stroke: #fcb44a;
        stroke-miterlimit: 10;
        stroke-width: .5px;
      }

      .cls-9 {
        fill: #a1b860;
      }
    </style>
  </defs>
  <g id="Bottom_BGS" data-name="Bottom BGS">
    <path class="cls-8" d="M26.05,52.09c3.71-6.01,9.36-10.52,14.97-14.81,7.89-6.03,16.05-11.9,25.24-15.68,9.19-3.77,19.6-5.32,29.12-2.46,13.92,4.18,23.06,18.32,24.64,32.35.32,2.88,0,5.99-.86,9.1,7.56-.6,15.09-1.45,22.58-2.57V0H0v55.23c7.73.98,15.5,1.91,23.29,2.74.7-2.05,1.62-4.03,2.76-5.88Z"/>
  </g>
  <g id="Elements">
    <g>
      <path class="cls-6" d="M124.18,50.46c-.63,1.18-1.7,1.76-2.88,2.29-6.8,3.05-13.58,6.14-20.36,9.22.34-2.05.71-4.1.3-6.18,3.63-1.67,7.27-3.33,11.08-5.08-2.57-.45-4.91-1.01-7.19-1.81-.3-.11-.54.01-.79.11-1.8.72-3.6,1.45-5.4,2.18-1.18-1.26-2.51-2.3-4.13-2.92-3.6-1.37-6.95-.81-10.17,1.21-1.84,1.15-3.6,2.51-5.85,2.87-.99.17-1.97.17-2.96,0-1.06-.18-2.04-.57-2.96-1.12-1.25-.75-2.5-1.51-3.76-2.25-1.44-.84-2.98-1.34-4.65-1.44-3.52-.21-6.4,1.11-8.77,3.65-1.8-.73-3.61-1.44-5.41-2.2-.45-.19-.83-.08-1.23.06-2.03.74-4.15,1.15-6.26,1.58-1.13.23-1.87-.24-2.04-1.16-.14-.81.32-1.36,1.47-1.6,3.43-.7,6.79-1.59,9.97-3.12,2.73-1.31,5.21-3.03,7.71-4.71,2.07-1.39,4.26-1.68,6.6-.84,1.75.63,3.11,1.89,4.66,2.84,2.72,1.65,5.6,2.22,8.74,1.51,2.4-.54,4.28-2,6.25-3.31,3.02-2,5.85-2.02,8.84-.02,1.8,1.2,3.56,2.46,5.45,3.5,3.63,1.99,7.48,3.36,11.57,4.02,1.01.16,1.89.48,1.98,1.74,1.7-1.38,1.98-4.21.51-5.99-2.43-2.95-5-5.79-7.52-8.67-1.9-2.17-3.83-4.32-5.73-6.49-2.27-2.61-4.47-5.29-6.89-7.78-.23-.23-.55-.41-.57-.8,3.58.18,6.59,1.59,8.96,4.26,4.18,4.72,8.32,9.48,12.47,14.22,2.65,3.03,5.3,6.05,7.94,9.08.36.42.68.88,1.02,1.32v1.83Z"/>
      <path class="cls-5" d="M101.24,55.78c.41,2.09.04,4.13-.3,6.18-.61,3.59-1.23,7.19-1.83,10.78-.34,2.04-.66,4.08-.99,6.12-1.62-.47-3.23-.72-4.94-.4-4.65.87-7.87,5.68-6.93,10.32.36,1.8,1.32,3.24,2.38,4.66-2.11,1.15-4.28,2.14-6.65,2.7-11.56,2.75-23.5-5.21-25.38-16.92-.88-5.52-1.83-11.02-2.75-16.53-.05-.31-.16-.58-.36-.82.27-.19.11-.42.08-.66-.16-1.38-.52-2.73-.35-4.15.26-2.2,1.11-4.13,2.46-5.87,2.38-2.54,5.26-3.85,8.77-3.65,1.67.1,3.22.6,4.65,1.44,1.26.74,2.5,1.5,3.76,2.25.92.55,1.9.95,2.96,1.12,0,10.73.01,21.46.01,32.19,0,.46,0,.91.18,1.35.24.59.69.83,1.29.83.59,0,1.05-.23,1.29-.83.17-.44.18-.89.18-1.35,0-10.73,0-21.46.01-32.19,2.24-.36,4.01-1.72,5.85-2.87,3.22-2.02,6.57-2.58,10.17-1.21,1.62.62,2.95,1.66,4.13,2.92,1.1,1.37,1.79,2.94,2.3,4.6ZM83.21,73.93c-.7-.03-1.46.71-1.48,1.45-.02.73.59,1.39,1.35,1.44.79.05,1.47-.55,1.53-1.35.05-.7-.67-1.5-1.4-1.53Z"/>
      <path class="cls-2" d="M55.69,51.18c-1.35,1.74-2.2,3.67-2.46,5.87-.17,1.42.18,2.77.35,4.15.03.23.19.47-.08.66-7.07-3.2-14.13-6.4-21.19-9.61-2.05-.93-2.48-3.04-.99-4.74,6.78-7.76,13.56-15.52,20.36-23.27,4.62-5.26,11.99-6.01,17.62-1.82,2,1.49,4,3,6,4.49,1.47,1.1,2.58,1.1,4.07,0,2-1.49,4-2.99,6-4.5,2.5-1.89,5.31-2.78,8.44-2.66.02.39.34.56.57.8,2.41,2.49,4.61,5.17,6.89,7.78,1.89,2.18,3.83,4.32,5.73,6.49,2.52,2.88,5.09,5.72,7.52,8.67,1.47,1.78,1.19,4.61-.51,5.99-.09-1.26-.97-1.57-1.98-1.74-4.09-.66-7.94-2.03-11.57-4.02-1.9-1.04-3.66-2.3-5.45-3.5-2.99-2-5.81-1.98-8.84.02-1.97,1.31-3.85,2.77-6.25,3.31-3.14.71-6.02.14-8.74-1.51-1.56-.94-2.92-2.21-4.66-2.84-2.34-.84-4.53-.55-6.6.84-2.5,1.68-4.97,3.39-7.71,4.71-3.18,1.53-6.54,2.42-9.97,3.12-1.15.24-1.61.78-1.47,1.6.16.92.91,1.39,2.04,1.16,2.11-.43,4.23-.85,6.26-1.58.4-.14.78-.25,1.23-.06,1.79.75,3.6,1.47,5.41,2.2Z"/>
      <path class="cls-9" d="M88.63,93.44c-1.06-1.42-2.02-2.85-2.38-4.66-.94-4.64,2.28-9.44,6.93-10.32,1.71-.32,3.32-.07,4.94.4,1.94.94,3.55,2.23,4.56,4.18,2.06,3.98.86,8.85-2.88,11.31-1.28.84-1.98,1.8-2.03,3.4-.07,2.28-2.11,4-4.43,3.98-2.24-.02-4.18-1.89-4.3-4.17-.04-.85-.02-1.71-.01-2.56,0-.56-.1-1.09-.4-1.57Z"/>
      <path class="cls-9" d="M110.96,81.23c-2.41-.01-4.35-1.96-4.36-4.37,0-2.42,2.01-4.44,4.43-4.41,2.39.02,4.36,2.01,4.36,4.39,0,2.45-1.97,4.4-4.43,4.39Z"/>
      <path class="cls-4" d="M108.34,104.67c-1.63,0-2.97-1.35-2.95-2.96.03-1.56,1.37-2.89,2.94-2.89,1.56,0,2.91,1.32,2.93,2.89.03,1.63-1.29,2.96-2.93,2.96Z"/>
      <path class="cls-4" d="M112.42,85.68c.72-.03,1.43.63,1.47,1.36.04.74-.59,1.43-1.34,1.48-.78.05-1.49-.61-1.51-1.4-.02-.72.65-1.42,1.38-1.45Z"/>
      <path class="cls-4" d="M109.54,94.38c-.75,0-1.4-.64-1.43-1.39-.02-.72.64-1.42,1.37-1.46.76-.03,1.49.69,1.47,1.45-.02.75-.67,1.39-1.42,1.4Z"/>
      <path class="cls-4" d="M83.18,100.33c.73,0,1.41.7,1.41,1.42,0,.79-.7,1.46-1.48,1.43-.75-.03-1.38-.71-1.36-1.45.02-.73.71-1.4,1.44-1.39Z"/>
      <path class="cls-4" d="M90.45,107.56c.03.74-.6,1.42-1.35,1.47-.78.04-1.49-.62-1.5-1.41,0-.72.67-1.42,1.4-1.43.72-.02,1.42.65,1.45,1.38Z"/>
      <path class="cls-7" d="M78.79,52.34c0,10.73-.01,21.46-.01,32.19,0,.46,0,.91-.18,1.35-.24.59-.7.82-1.29.83-.59,0-1.05-.23-1.29-.83-.17-.44-.18-.89-.18-1.35,0-10.73,0-21.46-.01-32.19.99.17,1.97.17,2.96,0Z"/>
      <path class="cls-2" d="M101.24,55.78c-.51-1.66-1.21-3.23-2.3-4.6,1.8-.73,3.6-1.46,5.4-2.18.24-.1.49-.22.79-.11,2.28.8,4.63,1.36,7.19,1.81-3.81,1.75-7.44,3.42-11.08,5.08Z"/>
      <path class="cls-9" d="M83.21,73.93c.72.03,1.45.82,1.4,1.53-.06.81-.73,1.4-1.53,1.35-.76-.05-1.37-.7-1.35-1.44.02-.74.78-1.47,1.48-1.45Z"/>
    </g>
  </g>
  <g id="Top_BGS" data-name="Top BGS">
    <path class="cls-8" d="M119.15,60.59c-2.75,10.04-10.96,20.04-20.39,21.83-8.13,1.55-17.4-2.3-24.38,2.15-4.16,2.65-6.29,7.65-10.22,10.64-2.99,2.28-6.82,3.23-10.58,3.42-11.06.56-22.2-5.42-27.84-14.95-4.53-7.66-5.33-17.32-2.46-25.71-7.79-.83-15.56-1.75-23.29-2.74v86.5h141.73V58.02c-7.5,1.12-15.03,1.97-22.58,2.57Z"/>
  </g>
  <g id="Texts">
    <g>
      <rect class="cls-3" x="0" y="87.41" width="141.73" height="54.32"/>
      <path class="cls-1" d="M55.17,108.7c1.87,0,3.23.7,3.71,1.04.35.27.38.56.14.93l-.29.45c-.24.37-.53.4-.93.18-.5-.29-1.31-.7-2.53-.7-2.48,0-3.86,1.79-3.86,3.94,0,2.39,1.68,4.03,3.79,4.03,1.91,0,2.88-1.25,2.88-1.25v-1.26h-1.09c-.43,0-.67-.24-.67-.67v-.43c0-.45.24-.67.67-.67h2.27c.43,0,.66.22.66.67v4.64c0,.45-.22.67-.66.67h-.4c-.43,0-.66-.22-.66-.54v-.27c0-.14.02-.27.02-.27h-.03s-1.14,1.28-3.33,1.28c-3.01,0-5.59-2.35-5.59-5.83s2.48-5.92,5.87-5.92Z"/>
      <path class="cls-1" d="M61.62,112.76c0-.43.24-.67.67-.67h.69c.45,0,.67.24.67.67v4.16c0,.99.26,1.67,1.26,1.67,1.47,0,2.29-1.3,2.29-2.75v-3.07c0-.43.22-.67.67-.67h.69c.43,0,.67.24.67.67v6.82c0,.45-.24.67-.67.67h-.62c-.43,0-.66-.22-.66-.67v-.48c0-.19.03-.37.03-.37h-.03c-.38.83-1.44,1.71-2.83,1.71-1.75,0-2.83-.88-2.83-3.1v-4.58Z"/>
      <path class="cls-1" d="M70.88,118.7l.19-.29c.24-.34.51-.37.91-.16.38.21.99.56,1.83.56.7,0,1.14-.32,1.14-.83,0-1.33-4.05-.83-4.05-3.63,0-1.6,1.41-2.45,3.12-2.45,1.09,0,1.84.35,2.27.59.37.19.42.53.24.9l-.16.29c-.19.38-.5.43-.9.26-.35-.16-.88-.4-1.55-.4s-1.1.29-1.1.8c0,1.34,4.05.82,4.05,3.6,0,1.44-1.22,2.51-3.11,2.51-1.31,0-2.22-.5-2.72-.83-.37-.21-.4-.56-.16-.91Z"/>
      <path class="cls-1" d="M78.83,113.82h-.43c-.43,0-.66-.22-.66-.67v-.27c0-.43.22-.67.67-.67h.46v-1.66c0-.43.24-.67.67-.67h.64c.43,0,.67.24.67.67v1.66h1.18c.43,0,.67.24.67.67v.27c0,.45-.24.67-.66.67h-1.2v3.17c0,1.22.75,1.46,1.31,1.52.5.05.67.21.67.66v.5c0,.48-.27.67-.83.67-1.46,0-3.18-.78-3.18-2.99v-3.52Z"/>
      <path class="cls-1" d="M88.1,111.9c2.48,0,4.5,1.78,4.5,4.27s-2.02,4.27-4.5,4.27-4.48-1.76-4.48-4.27,2-4.27,4.48-4.27ZM88.1,118.72c1.33,0,2.43-1.02,2.43-2.54s-1.1-2.54-2.43-2.54-2.42,1.04-2.42,2.54,1.09,2.54,2.42,2.54Z"/>
    </g>
  </g>
</svg>