<?xml version="1.0" encoding="UTF-8"?>
<svg xmlns="http://www.w3.org/2000/svg" viewBox="0 0 141.73 141.73">
  <defs>
    <style>
      .cls-1 {
        fill: #f1f2f2;
      }

      .cls-2 {
        fill: #8581be;
        stroke: #8581be;
        stroke-miterlimit: 10;
        stroke-width: .5px;
      }

      .cls-3 {
        fill: none;
      }
    </style>
  </defs>
  <g id="Bottom_BGS" data-name="Bottom BGS">
    <path class="cls-2" d="M0,0v50.76c6.01-.19,12.01-.28,17.99-.29-.26-11.19,3.72-22.5,11.64-30.19,10.18-9.86,23.02-9.73,38.52-10.3,6.2-.22,38.01-1.39,44.64,13.38,4,8.91-4.73,15.61-.18,28.77.5,1.45,1.07,2.71,1.68,3.82,9.13.87,18.27,1.78,27.43,2.7V0H0Z"/>
  </g>
  <g id="Top_BGS" data-name="Top BGS">
    <path class="cls-2" d="M123.59,69.68c-.4,9.65-18.2,17.8-35.41,21.32-3.4.7-6.78,1.22-9.99,1.53-1.32.13-2.65.26-4.02.35-3.29.24-6.79.3-10.81-.21-1.06-.12-2.15-.3-3.29-.52-1.23-.23-3.05-.57-5.26-1.1-9.56-2.31-26.37-8.25-33.59-25.17-2.06-4.85-3.13-10.12-3.25-15.42-5.99,0-11.98.1-17.99.29v90.98h141.73V58.66c-9.16-.92-18.3-1.84-27.43-2.7,3.92,7.15,9.52,8.24,9.29,13.73Z"/>
  </g>
  <g id="Texts">
    <g>
      <rect class="cls-3" x="0" y="87.41" width="141.73" height="54.32"/>
      <path class="cls-1" d="M47.1,102.06c0-.43.22-.67.66-.67h.72c.45,0,.67.24.67.67v6.59c0,1.54.99,2.4,2.51,2.4s2.53-.86,2.53-2.4v-6.59c0-.43.22-.67.66-.67h.74c.43,0,.66.24.66.67v6.61c0,2.54-1.83,4.27-4.56,4.27s-4.58-1.73-4.58-4.27v-6.61Z"/>
      <path class="cls-1" d="M58.78,106.32h-.43c-.43,0-.66-.22-.66-.67v-.27c0-.43.22-.67.67-.67h.46v-1.67c0-.43.24-.67.67-.67h.64c.43,0,.67.24.67.67v1.67h1.18c.43,0,.67.24.67.67v.27c0,.45-.24.67-.66.67h-1.2v3.17c0,1.22.75,1.46,1.31,1.52.5.05.67.21.67.66v.5c0,.48-.27.67-.83.67-1.46,0-3.18-.78-3.18-2.99v-3.52Z"/>
      <path class="cls-1" d="M67.74,104.4c2.32,0,3.62,1.65,3.62,3.89,0,.35-.3.69-.7.69h-4.98c.13,1.47,1.22,2.24,2.45,2.24.75,0,1.38-.29,1.76-.53.4-.19.69-.14.9.22l.19.32c.19.37.13.69-.22.9-.53.34-1.49.82-2.77.82-2.71,0-4.39-1.95-4.39-4.27,0-2.51,1.7-4.27,4.15-4.27ZM69.34,107.74c-.03-1.14-.72-1.81-1.65-1.81-1.04,0-1.78.72-1.97,1.81h3.62Z"/>
      <path class="cls-1" d="M72.83,105.26c0-.43.22-.67.66-.67h.62c.43,0,.66.24.66.67v.5c0,.18-.03.37-.03.37h.03c.35-.69,1.25-1.73,2.9-1.73,1.81,0,2.85.94,2.85,3.11v4.58c0,.45-.22.67-.67.67h-.69c-.43,0-.67-.22-.67-.67v-4.16c0-.99-.26-1.66-1.28-1.66-1.44,0-2.35,1.2-2.35,2.67v3.15c0,.45-.22.67-.66.67h-.7c-.43,0-.66-.22-.66-.67v-6.82Z"/>
      <path class="cls-1" d="M82.78,106.32h-.43c-.43,0-.66-.22-.66-.67v-.27c0-.43.22-.67.67-.67h.46v-1.67c0-.43.24-.67.67-.67h.64c.43,0,.67.24.67.67v1.67h1.18c.43,0,.67.24.67.67v.27c0,.45-.24.67-.66.67h-1.2v3.17c0,1.22.75,1.46,1.31,1.52.5.05.67.21.67.66v.5c0,.48-.27.67-.83.67-1.46,0-3.18-.78-3.18-2.99v-3.52Z"/>
      <path class="cls-1" d="M91.74,104.4c2.32,0,3.62,1.65,3.62,3.89,0,.35-.3.69-.7.69h-4.98c.13,1.47,1.22,2.24,2.45,2.24.75,0,1.38-.29,1.76-.53.4-.19.69-.14.9.22l.19.32c.19.37.13.69-.22.9-.53.34-1.49.82-2.77.82-2.71,0-4.39-1.95-4.39-4.27,0-2.51,1.7-4.27,4.15-4.27ZM93.34,107.74c-.03-1.14-.72-1.81-1.65-1.81-1.04,0-1.78.72-1.97,1.81h3.62Z"/>
      <path class="cls-1" d="M54.07,123.73h.75c.43,0,.59.18.64.64.06.91.48,1.68,1.49,1.68.78,0,1.47-.48,1.47-1.7v-6.19h-2.26c-.45,0-.67-.22-.67-.66v-.45c0-.43.22-.67.67-.67h3.65c.43,0,.67.24.67.67v7.33c0,2.48-1.79,3.55-3.54,3.55s-3.54-1.12-3.54-3.55c0-.43.22-.66.66-.66Z"/>
      <path class="cls-1" d="M66.54,119.4c2.48,0,4.5,1.78,4.5,4.27s-2.02,4.27-4.5,4.27-4.48-1.76-4.48-4.27,2-4.27,4.48-4.27ZM66.54,126.22c1.33,0,2.43-1.02,2.43-2.54s-1.1-2.54-2.43-2.54-2.42,1.04-2.42,2.54,1.09,2.54,2.42,2.54Z"/>
      <path class="cls-1" d="M72.51,117.06c0-.43.22-.67.66-.67h.7c.43,0,.66.24.66.67v7.99c0,.8.34.94.64.98.29.03.5.21.5.58v.54c0,.42-.19.69-.67.69-1.09,0-2.48-.29-2.48-2.62v-8.15Z"/>
      <path class="cls-1" d="M76.97,117.06c0-.43.22-.67.66-.67h.7c.43,0,.66.24.66.67v7.99c0,.8.34.94.64.98.29.03.5.21.5.58v.54c0,.42-.19.69-.67.69-1.09,0-2.48-.29-2.48-2.62v-8.15Z"/>
      <path class="cls-1" d="M81.5,129.29c.14.06.34.14.58.14.59,0,1.06-.51,1.3-1.09l.3-.72-3.11-7.25c-.21-.46,0-.78.51-.78h.86c.4,0,.62.18.75.54l1.54,4.16c.14.43.3,1.1.3,1.1h.03s.14-.64.27-1.07l1.44-4.18c.11-.38.35-.56.75-.56h.8c.5,0,.7.3.54.77l-3.36,8.61c-.56,1.49-1.75,2.14-2.95,2.14-.45,0-.85-.13-1.14-.24-.38-.14-.48-.5-.3-.86l.14-.35c.18-.37.45-.43.72-.37Z"/>
    </g>
  </g>
</svg>