<?xml version="1.0" encoding="UTF-8"?>
<svg xmlns="http://www.w3.org/2000/svg" viewBox="0 0 141.73 141.73">
  <defs>
    <style>
      .cls-1 {
        fill: #f1f2f2;
      }

      .cls-2 {
        fill: #808d8d;
      }

      .cls-3 {
        fill: none;
      }

      .cls-4 {
        fill: #a1b860;
        stroke: #a1b860;
        stroke-miterlimit: 10;
        stroke-width: .5px;
      }

      .cls-5 {
        fill: #96a6a6;
      }

      .cls-6 {
        fill: #e6e7e8;
      }

      .cls-7 {
        fill: #56b970;
      }
    </style>
  </defs>
  <g id="Bottom_BGS" data-name="Bottom BGS">
    <path class="cls-4" d="M26.05,52.09c3.71-6.01,9.36-10.52,14.97-14.81,7.89-6.03,16.05-11.9,25.24-15.68,9.19-3.77,19.6-5.32,29.12-2.46,13.92,4.18,23.06,18.32,24.64,32.35.32,2.88,0,5.99-.86,9.1,7.56-.6,15.09-1.45,22.58-2.57V0H0v55.23c7.73.98,15.5,1.91,23.29,2.74.7-2.05,1.62-4.03,2.76-5.88Z"/>
  </g>
  <g id="Elements">
    <g>
      <path class="cls-2" d="M95.91,30.26c2.73,6.24,5.47,12.48,8.2,18.73,7.04,16.14,14.07,32.28,21.1,48.42.13.3.23.61.35.92-5.11.02-10.22.05-15.33.05-6.31,0-12.63-.02-18.94-.03-.06-.17-.09-.35-.17-.51-2.69-5.61-5.38-11.22-8.09-16.82-2.76-5.7-5.55-11.39-8.31-17.09-1.22-2.52-2.36-5.08-3.61-7.58-.35-.7-.42-1.65-1.33-2,.18-.46-.04-.84-.23-1.24-.84-1.73-1.69-3.44-2.5-5.18-.56-1.21-1.29-2.34-1.62-3.66,1.83-4.14,3.65-8.29,5.49-12.43.24-.55.35-1.18.86-1.6,1.47,2.08,2.91,4.18,4.42,6.24,1.09,1.48,2.53,1.39,3.52-.18.81-1.29,1.55-2.64,2.39-3.92.91-1.4,2.48-1.35,3.37.07.73,1.17,1.42,2.37,2.14,3.56,1.21,2,2.6,2.05,3.97.17,1.43-1.97,2.74-4.04,4.31-5.91Z"/>
      <path class="cls-5" d="M69.78,54.33c.91.35.98,1.29,1.33,2,1.25,2.5,2.39,5.06,3.61,7.58,2.76,5.7,5.55,11.39,8.31,17.09,2.71,5.6,5.39,11.21,8.09,16.82.08.16.11.34.17.51-.29.01-.58.03-.87.03-22.09,0-44.18,0-66.27,0-.36,0-.73-.04-1.09-.07.59-1.29,1.16-2.59,1.77-3.87,5.82-12.07,11.65-24.13,17.48-36.19.68-1.41,1.26-2.86,2.09-4.19,1.74,2.39,3.45,4.79,5.22,7.15,1.09,1.46,2.47,1.4,3.45-.12.79-1.23,1.5-2.51,2.27-3.74,1.06-1.69,2.53-1.71,3.6-.05.81,1.26,1.53,2.57,2.34,3.83.96,1.49,2.4,1.5,3.47.07.37-.5.71-1.01,1.09-1.51,1.33-1.77,2.47-3.69,3.95-5.35Z"/>
      <path class="cls-7" d="M23.05,98.3c.36.02.73.07,1.09.07,22.09,0,44.18,0,66.27,0,.29,0,.58-.02.87-.03,6.31.01,12.63.04,18.94.03,5.11,0,10.22-.03,15.33-.05,2.87.37,4.48,2.55,3.67,5-.54,1.63-1.74,2.46-3.41,2.65-.36.04-.73.02-1.09.02-33.61,0-67.23,0-100.84,0-.47,0-.95.01-1.42-.06-2.03-.31-3.33-1.85-3.3-3.85.03-1.93,1.37-3.41,3.35-3.7.18-.03.36-.06.54-.08Z"/>
      <path class="cls-6" d="M69.78,54.33c-1.49,1.66-2.62,3.58-3.95,5.35-.37.5-.72,1.01-1.09,1.51-1.07,1.43-2.5,1.41-3.47-.07-.81-1.26-1.54-2.57-2.34-3.83-1.07-1.67-2.54-1.65-3.6.05-.77,1.24-1.48,2.52-2.27,3.74-.98,1.52-2.36,1.58-3.45.12-1.77-2.36-3.48-4.76-5.22-7.15.47-1.06.91-2.14,1.41-3.18,2.84-5.86,5.71-11.71,8.55-17.57.35-.72.62-1.48,1-2.18.4-.74.98-1.21,1.93-1.13.88.07,1.39.49,1.75,1.25,1.91,4,3.84,8,5.77,12,.17.35.28.76.61,1.01.33,1.31,1.06,2.45,1.62,3.66.81,1.74,1.66,3.46,2.5,5.18.19.39.41.78.23,1.24Z"/>
      <path class="cls-6" d="M95.91,30.26c-1.57,1.87-2.88,3.93-4.31,5.91-1.36,1.88-2.75,1.83-3.97-.17-.72-1.18-1.4-2.38-2.14-3.56-.89-1.42-2.46-1.46-3.37-.07-.84,1.28-1.58,2.62-2.39,3.92-.99,1.57-2.44,1.66-3.52.18-1.5-2.06-2.95-4.16-4.42-6.24.2-1.44,1-2.64,1.55-3.94,2.83-6.62,5.72-13.22,8.58-19.83.34-.79.88-1.21,1.76-1.22.9,0,1.55.37,1.9,1.19,3.18,7.34,6.36,14.68,9.54,22.03.26.6.68,1.13.79,1.79Z"/>
    </g>
  </g>
  <g id="Top_BGS" data-name="Top BGS">
    <path class="cls-4" d="M119.15,60.59c-2.75,10.04-10.96,20.04-20.39,21.83-8.13,1.55-17.4-2.3-24.38,2.15-4.16,2.65-6.29,7.65-10.22,10.64-2.99,2.28-6.82,3.23-10.58,3.42-11.06.56-22.2-5.42-27.84-14.95-4.53-7.66-5.33-17.32-2.46-25.71-7.79-.83-15.56-1.75-23.29-2.74v86.5h141.73V58.02c-7.5,1.12-15.03,1.97-22.58,2.57Z"/>
  </g>
  <g id="Texts">
    <g>
      <rect class="cls-3" x="0" y="87.41" width="141.73" height="54.32"/>
      <path class="cls-1" d="M35.26,109.53c.05-.42.27-.64.69-.64h1.01c.38,0,.62.18.75.54l2.03,5.07c.26.67.58,1.67.58,1.67h.03s.3-.99.56-1.67l2.03-5.07c.13-.37.37-.54.77-.54h.99c.42,0,.66.22.69.64l.82,10.04c.03.43-.19.69-.64.69h-.72c-.42,0-.66-.22-.69-.64l-.43-5.71c-.05-.75-.02-1.76-.02-1.76h-.03s-.35,1.1-.61,1.76l-1.65,3.87c-.13.35-.37.53-.75.53h-.67c-.4,0-.64-.18-.77-.53l-1.63-3.87c-.26-.66-.62-1.78-.62-1.78h-.03s.03,1.02-.02,1.78l-.43,5.71c-.03.42-.26.64-.69.64h-.72c-.45,0-.67-.26-.64-.69l.82-10.04Z"/>
      <path class="cls-1" d="M52.03,111.9c2.48,0,4.5,1.78,4.5,4.27s-2.02,4.27-4.5,4.27-4.48-1.76-4.48-4.27,2-4.27,4.48-4.27ZM52.03,118.72c1.33,0,2.43-1.02,2.43-2.54s-1.1-2.54-2.43-2.54-2.42,1.04-2.42,2.54,1.09,2.54,2.42,2.54Z"/>
      <path class="cls-1" d="M58.01,112.76c0-.43.22-.67.66-.67h.62c.43,0,.66.24.66.67v.5c0,.18-.03.37-.03.37h.03c.35-.69,1.25-1.73,2.9-1.73,1.81,0,2.85.94,2.85,3.11v4.58c0,.45-.22.67-.67.67h-.69c-.43,0-.67-.22-.67-.67v-4.16c0-.99-.26-1.66-1.28-1.66-1.44,0-2.35,1.2-2.35,2.67v3.15c0,.45-.22.67-.66.67h-.7c-.43,0-.66-.22-.66-.67v-6.82Z"/>
      <path class="cls-1" d="M67.96,113.82h-.43c-.43,0-.66-.22-.66-.67v-.27c0-.43.22-.67.67-.67h.46v-1.67c0-.43.24-.67.67-.67h.64c.43,0,.67.24.67.67v1.67h1.18c.43,0,.67.24.67.67v.27c0,.45-.24.67-.66.67h-1.2v3.17c0,1.22.75,1.46,1.31,1.52.5.05.67.21.67.66v.5c0,.48-.27.67-.83.67-1.46,0-3.18-.78-3.18-2.99v-3.52Z"/>
      <path class="cls-1" d="M77.48,115.21h.34v-.19c0-1.07-.69-1.44-1.52-1.44-.69,0-1.31.26-1.7.46-.4.18-.7.11-.9-.27l-.16-.3c-.19-.37-.13-.69.26-.9.53-.27,1.46-.67,2.67-.67,2.11,0,3.38,1.18,3.38,3.25v4.43c0,.45-.22.67-.67.67h-.54c-.43,0-.66-.22-.66-.67v-.32c0-.22.03-.35.03-.35h-.03s-.77,1.54-2.56,1.54c-1.49,0-2.71-.96-2.71-2.45,0-2.38,2.95-2.79,4.77-2.79ZM75.96,118.89c1.14,0,1.87-1.15,1.87-2.14v-.3h-.34c-1.02,0-2.77.16-2.77,1.38,0,.54.42,1.07,1.23,1.07Z"/>
      <path class="cls-1" d="M83.26,121.58c.38.14.9.3,1.65.3,1.25,0,2.3-.53,2.3-1.98v-.61c0-.19.03-.42.03-.42h-.03c-.45.77-1.15,1.22-2.24,1.22-2.39,0-3.7-1.89-3.7-4.15s1.25-4.05,3.68-4.05c1.91,0,2.42,1.25,2.42,1.25h.03s-.02-.08-.02-.21v-.3c0-.3.22-.54.66-.54h.54c.43,0,.66.24.66.67v7c0,2.8-2.21,3.86-4.23,3.86-.91,0-1.83-.19-2.39-.43-.42-.18-.53-.45-.35-.86l.13-.37c.18-.4.42-.51.85-.37ZM87.26,115.99c0-1.87-.93-2.37-1.98-2.37-1.26,0-1.95.9-1.95,2.24,0,1.47.74,2.51,2.05,2.51.96,0,1.89-.56,1.89-2.39Z"/>
      <path class="cls-1" d="M91.26,112.76c0-.43.22-.67.66-.67h.62c.43,0,.66.24.66.67v.5c0,.18-.03.37-.03.37h.03c.35-.69,1.25-1.73,2.9-1.73,1.81,0,2.85.94,2.85,3.11v4.58c0,.45-.22.67-.67.67h-.69c-.43,0-.67-.22-.67-.67v-4.16c0-.99-.26-1.66-1.28-1.66-1.44,0-2.35,1.2-2.35,2.67v3.15c0,.45-.22.67-.66.67h-.7c-.43,0-.66-.22-.66-.67v-6.82Z"/>
      <path class="cls-1" d="M104.99,115.21h.34v-.19c0-1.07-.69-1.44-1.52-1.44-.69,0-1.31.26-1.7.46-.4.18-.7.11-.9-.27l-.16-.3c-.19-.37-.13-.69.26-.9.53-.27,1.46-.67,2.67-.67,2.11,0,3.38,1.18,3.38,3.25v4.43c0,.45-.22.67-.67.67h-.54c-.43,0-.66-.22-.66-.67v-.32c0-.22.03-.35.03-.35h-.03s-.77,1.54-2.56,1.54c-1.49,0-2.71-.96-2.71-2.45,0-2.38,2.95-2.79,4.77-2.79ZM103.47,118.89c1.14,0,1.87-1.15,1.87-2.14v-.3h-.34c-1.02,0-2.77.16-2.77,1.38,0,.54.42,1.07,1.23,1.07Z"/>
    </g>
  </g>
</svg>