<?xml version="1.0" encoding="UTF-8"?>
<svg xmlns="http://www.w3.org/2000/svg" viewBox="0 0 141.73 141.73">
  <defs>
    <style>
      .cls-1 {
        fill: #fecc95;
      }

      .cls-2 {
        fill: #f1f2f2;
      }

      .cls-3 {
        fill: none;
      }

      .cls-4 {
        fill: #e5b17e;
      }

      .cls-5 {
        fill: #55b6cf;
      }

      .cls-6 {
        fill: #ec724a;
        stroke: #ec724a;
        stroke-miterlimit: 10;
        stroke-width: .5px;
      }

      .cls-7 {
        fill: #fcb44a;
      }

      .cls-8 {
        fill: #65c6bb;
      }
    </style>
  </defs>
  <g id="Bottom_BGS" data-name="Bottom BGS">
    <path class="cls-6" d="M0,0v57.12c7.27,1.32,14.57,2.63,21.88,3.88,1.31-3.98,3.36-7.42,5.52-9.93,1.87-2.18,1.99-1.52,5.02-4.45,10.78-10.41,8.5-17.88,16.91-24.8,4.44-3.65,8.82-4.72,16.06-6.18,19.88-3.99,45.76,1.78,52.25,15.75.91,1.95,2.52,6.53,3.32,12.25.17,1.23.7,5.8,0,11.94-.4,3.55-1.05,9.16-3.8,15.25,7.19.03,14.39-.15,21.58-.58,1.02-.15,2.02-.36,2.98-.64V0H0Z"/>
  </g>
  <g id="Elements">
    <g>
      <path class="cls-7" d="M27.37,68.27c.24-.57.03-1.16.04-1.73.08-6.59,6.09-12.61,13.76-11.17,1.2.27,2.3.79,3.42,1.29,1.94,1.14,3.37,2.76,4.5,4.68,1.2,2.84,1.64,5.74.53,8.69-1.64,4.36-4.72,7.13-9.4,7.65-4.65.52-8.4-1.25-11.09-5.15-.17-.24-.22-.6-.59-.68l-1.18-3.58Z"/>
      <path class="cls-8" d="M90.13,76.81c0,.62.37,1.11.58,1.66,2.08,5.58-.07,11.34-5.31,14.23-.1.05-.17.17-.25.26l-3.05,1c-1.61-.05-3.23.09-4.83-.35-4.47-1.21-7.87-5.09-8.35-9.65-.49-4.65,1.88-9.12,5.96-11.29,2.4-1.28,4.93-1.57,7.57-1.09,3.06.72,5.52,2.31,7.23,4.98.12.18.23.29.44.25Z"/>
      <path class="cls-5" d="M89.33,20.01c3.07-2.11,6.13-4.23,9.2-6.33,2.3-1.57,4.61-3.13,6.92-4.69,1.94-1.3,3.91-.65,4.63,1.54,4.64,14.1,9.31,28.18,13.9,42.3.77,2.36,1.78,4.67,1.63,7.28-.29,4.94-3.89,9.35-8.74,10.48-4.93,1.15-10.24-1.24-12.54-5.69-2.08-4.01-1.88-7.99.63-11.7,2.56-3.78,6.27-5.36,10.83-4.87.21.02.43.05.65.08-.12-.82-6.46-20.28-7.16-21.96-2.33,1.59-4.65,3.17-6.98,4.74-2.46,1.66-4.94,3.31-7.41,4.97-.43-.17-.42-.6-.53-.94-1.69-5.06-3.36-10.13-5.04-15.2Z"/>
      <path class="cls-1" d="M49.09,61.33c-1.13-1.92-2.57-3.54-4.5-4.68-.12-.39-.24-.78-.37-1.17-5.02-15.26-10.04-30.52-15.06-45.78,1.13-.44,2.07-.07,2.96.63,2.47,1.93,4.84,4,7.52,5.66,4.46,2.77,9.29,4.71,14.26,6.36,5.06,1.68,8.3,5.07,9.8,10.19,1.72,5.88-1.5,13.19-7.06,15.97-.73.37-1.47.69-2.26.94-1.56.48-3.05-.23-3.57-1.71-.55-1.58.15-3.05,1.71-3.64,3.89-1.46,6.07-4.72,5.83-8.7-.21-3.37-2.39-6.3-5.66-7.39-4.81-1.6-9.54-3.37-13.99-5.83-.96-.53-1.9-1.1-2.91-1.68-.07.36.11.65.21.95,4.24,12.9,8.48,25.8,12.73,38.7.13.39.24.78.36,1.17Z"/>
      <path class="cls-8" d="M89.33,20.01c1.68,5.07,3.35,10.13,5.04,15.2.11.34.11.77.53.94-4.67,3.18-9.34,6.36-14,9.55-.28.19-.62.32-.77.65-.39.06-.65.35-.98.53-1.35.77-2.46,1.91-3.93,2.48-1.58-4.77-3.19-9.54-4.74-14.33-.39-1.2.16-2.4,1.3-3.18,4.65-3.15,9.3-6.29,13.95-9.43,1.2-.81,2.4-1.6,3.6-2.41Z"/>
      <path class="cls-5" d="M75.23,49.35c1.47-.57,2.58-1.71,3.93-2.48.32-.18.59-.47.98-.53,3.33,10.16,6.67,20.31,10,30.47-.22.04-.33-.06-.44-.25-1.71-2.67-4.17-4.26-7.23-4.98-2.12-6.48-4.24-12.96-6.36-19.44-.3-.93-.58-1.86-.87-2.79Z"/>
      <path class="cls-4" d="M29.16,9.7c5.02,15.26,10.04,30.52,15.06,45.78.13.39.25.78.37,1.17-1.11-.5-2.22-1.02-3.42-1.29-.59-1.82-1.17-3.65-1.77-5.46-3.98-12.11-7.97-24.21-11.95-36.32-.61-1.85,0-3.23,1.71-3.87Z"/>
    </g>
  </g>
  <g id="Top_BGS" data-name="Top BGS">
    <path class="cls-6" d="M117.16,70.82c-.85,1.88-1.89,3.81-3.2,5.74-1.51,2.22-4.27,6.3-9.06,9.47-11.58,7.67-19.47,1.06-39.52,5.76-12.26,2.87-12.9,5.91-20.17,5.35-8.25-.63-19.57-7.08-23.47-18.94-2.02-6.14-1.55-12.13.13-17.22C14.57,59.75,7.27,58.44,0,57.12v84.61h141.73v-72.13c-.97.28-1.96.5-2.98.64-7.2.43-14.39.61-21.58.58Z"/>
  </g>
  <g id="Texts">
    <g>
      <rect class="cls-3" x="0" y="87.41" width="141.73" height="54.32"/>
      <path class="cls-2" d="M47.83,118.36l.35-.51c.26-.35.53-.37.93-.14.37.26,1.18.83,2.3.83,1.06,0,1.7-.53,1.7-1.3,0-2.16-5.3-1.71-5.3-5.25,0-2,1.66-3.3,3.83-3.3,1.34,0,2.45.51,2.93.86.35.26.4.56.21.91l-.29.53c-.24.46-.58.4-.91.22-.46-.27-1.09-.62-1.97-.62-1.06,0-1.73.51-1.73,1.28,0,2.13,5.3,1.58,5.3,5.2,0,1.84-1.38,3.36-3.76,3.36-1.62,0-2.93-.72-3.49-1.15-.26-.22-.42-.5-.1-.93Z"/>
      <path class="cls-2" d="M56.63,112.76c0-.43.24-.67.67-.67h.69c.45,0,.67.24.67.67v4.16c0,.99.26,1.67,1.26,1.67,1.47,0,2.29-1.3,2.29-2.75v-3.07c0-.43.22-.67.67-.67h.69c.43,0,.67.24.67.67v6.82c0,.45-.24.67-.67.67h-.62c-.43,0-.66-.22-.66-.67v-.48c0-.19.03-.37.03-.37h-.03c-.38.83-1.44,1.71-2.83,1.71-1.75,0-2.83-.88-2.83-3.1v-4.58Z"/>
      <path class="cls-2" d="M70.21,111.9c2.48,0,4.5,1.78,4.5,4.27s-2.02,4.27-4.5,4.27-4.48-1.76-4.48-4.27,2-4.27,4.48-4.27ZM70.21,118.72c1.33,0,2.43-1.02,2.43-2.54s-1.1-2.54-2.43-2.54-2.42,1.04-2.42,2.54,1.09,2.54,2.42,2.54Z"/>
      <path class="cls-2" d="M76.2,112.76c0-.43.22-.67.66-.67h.62c.43,0,.66.24.66.67v.5c0,.18-.03.37-.03.37h.03c.35-.69,1.25-1.73,2.9-1.73,1.81,0,2.85.94,2.85,3.11v4.58c0,.45-.22.67-.67.67h-.69c-.43,0-.67-.22-.67-.67v-4.16c0-.99-.26-1.66-1.28-1.66-1.44,0-2.35,1.2-2.35,2.67v3.15c0,.45-.22.67-.66.67h-.7c-.43,0-.66-.22-.66-.67v-6.82Z"/>
      <path class="cls-2" d="M89.75,111.9c2.48,0,4.5,1.78,4.5,4.27s-2.02,4.27-4.5,4.27-4.48-1.76-4.48-4.27,2-4.27,4.48-4.27ZM89.75,118.72c1.33,0,2.43-1.02,2.43-2.54s-1.1-2.54-2.43-2.54-2.42,1.04-2.42,2.54,1.09,2.54,2.42,2.54Z"/>
    </g>
  </g>
</svg>