<?xml version="1.0" encoding="UTF-8"?>
<svg xmlns="http://www.w3.org/2000/svg" viewBox="0 0 141.73 141.73">
  <defs>
    <style>
      .cls-1 {
        fill: #f1f2f2;
      }

      .cls-2 {
        fill: #fed09a;
      }

      .cls-3 {
        fill: none;
      }

      .cls-4 {
        fill: #55b6cf;
        stroke: #55b6cf;
        stroke-miterlimit: 10;
        stroke-width: .5px;
      }

      .cls-5 {
        fill: #f15b5c;
      }

      .cls-6 {
        fill: #fcb44a;
      }

      .cls-7 {
        fill: #234c89;
      }
    </style>
  </defs>
  <g id="Bottom_BGS" data-name="Bottom BGS">
    <path class="cls-4" d="M31.9,38.68c2.44-3.82,5.1-7.52,7.73-11.15.83-1.14,1.67-2.29,2.53-3.42,3.98-5.26,8.45-10.23,14.42-12.82,12.91-5.6,27.54,1.77,39.3,9.51,5.16,3.4,10.32,6.98,14.63,11.37,1.3,1.33,2.53,2.73,3.66,4.23,1.92,2.55,3.35,5.41,4.35,8.49,1.53,4.71,2.01,9.92,1.62,15.22,6.52-.02,13.05-.2,19.6-.6.66-.11,1.32-.24,1.98-.37V0H0v52.64c8.04.26,16.09.73,24.13,1.3,1.91-5.32,4.66-10.38,7.77-15.26Z"/>
  </g>
  <g id="Elements">
    <g>
      <rect class="cls-2" x="68.11" y="75.26" width="7.55" height="20.91" transform="translate(-17.28 18.16) rotate(-12.87)"/>
      <rect class="cls-7" x="39.35" y="44.84" width="47.73" height="3.7" transform="translate(-8.81 15.25) rotate(-12.87)"/>
      <path class="cls-7" d="M86.07,39.58l1.47,6.42c2.93,12.83-5.13,25.65-17.95,28.58-6.22,1.42-12.61.34-18.01-3.06-4.32-2.71-7.61-6.66-9.49-11.39-.43-1.09-.8-2.27-1.08-3.5l-1.47-6.42-3.21.73,1.47,6.42c.32,1.4.74,2.73,1.23,3.97,2.13,5.4,5.87,9.88,10.8,12.98,6.14,3.87,13.42,5.09,20.49,3.48,14.6-3.33,23.76-17.92,20.43-32.52l-1.47-6.42-3.21.73Z"/>
      <path class="cls-6" d="M80.44,34.67l1.34,5.88,1.07-.24.82,3.61-1.07.24.64,2.81c.24,1.05.39,2.09.45,3.13l1.08-.25c.72,9.95-5.9,19.22-15.94,21.51-5.54,1.27-11.07.16-15.53-2.63-3.61-2.27-6.53-5.67-8.18-9.83l1.09-.25c-.02-.05-.04-.1-.07-.15-.36-.9-.66-1.85-.89-2.86l-.64-2.81-1.07.24-.82-3.61,1.07-.24-1.34-5.88-1.07.24-.82-3.61,1.07-.24-.64-2.81c-.23-1.01-.38-2-.44-2.95,0-.06,0-.12,0-.18l-1.09.25c-.72-9.95,5.9-19.22,15.94-21.51,5.54-1.27,11.07-.17,15.52,2.63,3.63,2.28,6.52,5.67,8.16,9.83l-1.07.24c.39.97.71,1.98.95,3.01l.64,2.81,1.07-.24.82,3.61-1.07.24Z"/>
      <path class="cls-5" d="M55.69,50.31l1.34,5.88-10.79,2.46c-.02-.05-.04-.1-.07-.15-.36-.9-.66-1.85-.89-2.86l-.64-2.81,11.05-2.52Z"/>
      <rect class="cls-5" x="43" y="42.01" width="11.33" height="6.03" transform="translate(-8.8 11.97) rotate(-12.87)"/>
      <path class="cls-5" d="M51.35,31.33l1.34,5.88-11.05,2.52-.64-2.81c-.23-1.01-.38-2-.44-2.95,0-.06,0-.12,0-.18l10.79-2.46Z"/>
      <path class="cls-5" d="M71.56,46.68l11.05-2.52.64,2.81c.24,1.05.39,2.09.45,3.13l-10.8,2.47-1.34-5.88Z"/>
      <path class="cls-5" d="M78.03,25.24c.39.97.71,1.98.95,3.01l.64,2.81-11.05,2.52-1.34-5.88,10.8-2.47Z"/>
      <rect class="cls-5" x="69.92" y="35.86" width="11.33" height="6.03" transform="translate(-6.76 17.81) rotate(-12.87)"/>
      <path class="cls-7" d="M88.13,94.83l-.24-1.05c-.12-.52-.64-.85-1.16-.73l-25.03,5.72c-.52.12-.85.64-.73,1.16l.24,1.05c.12.52-.21,1.04-.73,1.16l-5.96,1.36c-.52.12-.85.64-.73,1.16l.63,2.77c.12.52.64.85,1.16.73l40.74-9.3c.52-.12.85-.64.73-1.16l-.63-2.77c-.12-.52-.64-.85-1.16-.73l-5.96,1.36c-.52.12-1.04-.21-1.16-.73Z"/>
    </g>
  </g>
  <g id="Top_BGS" data-name="Top BGS">
    <path class="cls-4" d="M139.75,59.5c-6.55.4-13.09.58-19.6.6-1.2,16.61-10.94,31.19-24.19,37.71-6.52,3.21-14.31,4.54-21.09,1.94-2.87-1.1-5.45-2.86-8.27-4.1-3.79-1.68-7.91-2.4-12.1-2.9-5.45-.66-11.01-.93-16.06-2.44-2.43-.72-4.75-1.73-6.88-3.2-7.97-5.49-10.97-13.18-9.89-22.79.4-3.58,1.27-7.03,2.47-10.38-8.05-.57-16.09-1.04-24.13-1.3v89.09h141.73V59.12c-.66.13-1.32.26-1.98.37Z"/>
  </g>
  <g id="Texts">
    <g>
      <rect class="cls-3" x="0" y="87.41" width="141.73" height="54.32"/>
      <path class="cls-1" d="M52.67,109.66c-.16-.46.05-.77.54-.77h.85c.38,0,.64.18.75.56l2.32,6.85c.21.66.43,1.66.43,1.66h.03s.21-1.01.43-1.66l2.35-6.85c.1-.38.35-.56.74-.56h.82c.5,0,.7.3.54.77l-3.63,10.07c-.13.37-.37.53-.75.53h-1.02c-.38,0-.62-.16-.75-.53l-3.65-10.07Z"/>
      <path class="cls-1" d="M67.14,111.9c2.48,0,4.5,1.78,4.5,4.27s-2.02,4.27-4.5,4.27-4.48-1.76-4.48-4.27,2-4.27,4.48-4.27ZM67.14,118.72c1.33,0,2.43-1.02,2.43-2.54s-1.1-2.54-2.43-2.54-2.42,1.04-2.42,2.54,1.09,2.54,2.42,2.54Z"/>
      <path class="cls-1" d="M77.04,111.9c1.31,0,2.19.48,2.67.82.34.22.35.56.13.91l-.21.32c-.24.37-.51.37-.9.18-.34-.22-.88-.5-1.58-.5-1.5,0-2.48,1.14-2.48,2.53s.98,2.56,2.55,2.56c.8,0,1.44-.35,1.82-.62.4-.22.7-.18.91.21l.16.3c.19.35.14.67-.18.9-.5.37-1.49.94-2.9.94-2.71,0-4.43-1.91-4.43-4.27s1.73-4.27,4.43-4.27Z"/>
      <path class="cls-1" d="M85.17,111.9c2.32,0,3.62,1.65,3.62,3.89,0,.35-.3.69-.7.69h-4.98c.13,1.47,1.22,2.24,2.45,2.24.75,0,1.38-.29,1.76-.53.4-.19.69-.14.9.22l.19.32c.19.37.13.69-.22.9-.53.34-1.49.82-2.77.82-2.71,0-4.39-1.95-4.39-4.27,0-2.51,1.7-4.27,4.15-4.27ZM86.77,115.24c-.03-1.14-.72-1.81-1.65-1.81-1.04,0-1.78.72-1.97,1.81h3.62Z"/>
    </g>
  </g>
</svg>