<?xml version="1.0" encoding="UTF-8"?>
<svg xmlns="http://www.w3.org/2000/svg" viewBox="0 0 141.73 141.73">
  <defs>
    <style>
      .cls-1 {
        fill: #fefeff;
      }

      .cls-2 {
        fill: #9ba6a7;
      }

      .cls-3 {
        fill: #fecc95;
      }

      .cls-4 {
        fill: #f1f2f2;
      }

      .cls-5 {
        fill: #fff;
      }

      .cls-6 {
        fill: none;
      }

      .cls-7 {
        fill: #8581be;
      }

      .cls-8 {
        fill: #f15b5c;
      }

      .cls-9 {
        fill: #f592a1;
      }

      .cls-10 {
        fill: #ec724a;
        stroke: #ec724a;
        stroke-miterlimit: 10;
        stroke-width: .5px;
      }

      .cls-11 {
        fill: #fcb44a;
      }

      .cls-12 {
        fill: #234c89;
      }

      .cls-13 {
        fill: #6f8099;
      }

      .cls-14 {
        fill: #a1b860;
      }

      .cls-15 {
        fill: #414042;
      }
    </style>
  </defs>
  <g id="Bottom_BGS" data-name="Bottom BGS">
    <path class="cls-10" d="M16.1,58.25c.09-.76.23-1.53.44-2.28.2-.75.46-1.49.77-2.23,3.4-7.87,12.21-11.62,18.52-17.43,3.6-3.31,6.43-7.36,9.84-10.85,1.84-1.88,3.85-3.55,6.01-5.01l.38-.25c.66-.44,1.33-.86,2.02-1.26h0c.58-.34,1.16-.66,1.76-.96.1-.06.2-.12.31-.17.84-.43,1.69-.83,2.56-1.2.39-.17.79-.33,1.19-.48,5.08-2.01,10.57-3.08,16.07-3.21.49-.02.99-.02,1.47-.01,0,0,0,0,.01,0,.07,0,.13,0,.2,0,.13,0,.28,0,.41,0,.17,0,.33,0,.5.02.42,0,.85.03,1.27.05.95.05,1.9.13,2.84.24.53.06,1.06.14,1.59.22,1.31.19,2.6.45,3.89.75,1.27.3,2.53.65,3.76,1.05,1.6.53,3.17,1.14,4.7,1.85.56.26,1.12.53,1.66.81.57.29,1.13.6,1.68.91,1.49.85,2.92,1.81,4.29,2.84,1.09.83,2.14,1.71,3.14,2.66.14.13.29.28.43.41,8.44,8.22,13.22,19.47,16.69,30.73.29.94.51,1.86.7,2.76,5.54-.92,11.05-1.98,16.53-3.19V0H0v57.59c5.31.82,10.64,1.56,16,2.2.02-.51.04-1.03.11-1.54Z"/>
  </g>
  <g id="Elements">
    <g>
      <path class="cls-11" d="M69.07,76.71c-.21-2.85-1.58-4.32-4.42-5.45-6.1-2.42-10.18-7.12-12.5-13.32-2.52-6.72-2.03-13.32,1.1-19.62,2.89-5.83,7.49-9.96,13.68-12.26,6.76-2.5,13.39-2.13,19.76,1,5.85,2.87,10,7.43,12.34,13.62,2.08,5.51,2.07,11,.15,16.5-1.08,3.09-2.64,5.95-5.08,8.2-1.24,1.15-1.8,2.32-1.09,3.96.24.55.28,1.18.41,1.77-2.03.46-4.06.92-6.09,1.37-.99-4.32-1.95-8.64-2.98-12.94-.22-.93-.15-1.36.92-1.59,2.91-.61,2.87-.66,2.21-3.56-.19-.85-.45-1.13-1.38-.91-6.04,1.43-12.09,2.82-18.14,4.17-.93.21-1.04.57-.84,1.42.68,2.89.66,2.96,3.54,2.23,1.06-.27,1.32.09,1.52,1.03.95,4.32,1.97,8.63,2.97,12.94-2.03.47-4.05.95-6.08,1.42ZM71.9,33.23c-.49-2.15-.57-2.22-2.23-1.6-4.86,1.83-8.84,4.74-11.25,9.45-1.91,3.73-2.05,7.7-1.28,11.75.13.67.5.94,1.09.65.99-.48,2.57.17,2.99-1.34.18-.66-.1-1.44-.19-2.17-.44-3.69.66-6.9,3.05-9.7,1.73-2.02,3.91-3.37,6.37-4.31,1.91-.72,1.9-.74,1.44-2.73ZM62.84,58.98c-.56-2.3-.2-2.22-2.13-1.76-2.68.63-2.5.22-2.02,2.28.6,2.59.19,2.41,2.35,1.91,2.52-.58,2.28-.17,1.8-2.43Z"/>
      <path class="cls-11" d="M87.33,72.49c2.03-.46,4.06-.92,6.09-1.37.62,2.71,1.23,5.42,1.85,8.12-8.11,1.86-16.21,3.73-24.32,5.59-.63-2.71-1.25-5.41-1.88-8.12,2.03-.47,4.05-.95,6.08-1.42,1.35-.31,2.7-.62,4.04-.93,1.36-.31,2.72-.63,4.08-.94,1.35-.31,2.7-.62,4.04-.93Z"/>
      <path class="cls-2" d="M70.96,84.82c8.11-1.86,16.21-3.73,24.32-5.59.55,2.35,1.08,4.71,1.67,7.05.21.82.02,1.14-.82,1.32-2.37.49-4.71,1.07-7.07,1.61-2.72.62-5.44,1.25-8.16,1.87-2.36.54-4.72,1.05-7.06,1.64-.83.21-1.14,0-1.31-.83-.48-2.37-1.04-4.72-1.57-7.08Z"/>
      <path class="cls-9" d="M118.26,30.16c.75,3.34-1.43,6.72-4.81,7.46-3.38.74-6.69-1.42-7.43-4.84-.72-3.33,1.4-6.62,4.75-7.38,3.37-.76,6.73,1.37,7.48,4.76Z"/>
      <path class="cls-13" d="M80.9,91.09c2.72-.62,5.44-1.25,8.16-1.87.55,2.4,1.07,4.81,1.66,7.2.17.7.03.99-.7,1.15-2.11.44-4.22.92-6.32,1.45-.72.18-.98-.02-1.13-.72-.52-2.41-1.1-4.8-1.65-7.2Z"/>
      <path class="cls-15" d="M33.09,50.53c-.47-2.27,1.02-4.49,3.32-4.93,2.22-.43,4.4,1.04,4.86,3.27.47,2.27-1.03,4.49-3.32,4.93-2.21.42-4.4-1.05-4.85-3.27Z"/>
      <path class="cls-12" d="M53.52,25.43c-.42.11-.59-.11-.75-.31-1.68-2.03-3.35-4.07-5.04-6.1-.3-.36-.32-.59.05-.96,2.46-2.53,2.53-2.54,4.74.15,1.1,1.33,2.16,2.7,3.31,3.99.6.67.47,1.03-.18,1.5-.77.55-1.47,1.19-2.13,1.73Z"/>
      <path class="cls-3" d="M83.9,17.86c-1.02-.26-2.16-.52-3.28-.83-.45-.12-.23-.5-.17-.76.61-2.56,1.25-5.12,1.85-7.69.13-.57.42-.7.93-.51.04.01.08.02.13.03q3.22.63,2.46,3.79c-.41,1.68-.81,3.36-1.23,5.04-.09.35-.04.82-.68.93Z"/>
      <path class="cls-7" d="M38.16,28.89c.26.12.5.21.72.34,2.02,1.26,4.03,2.54,6.07,3.78.58.35.61.66.28,1.24-1.63,2.89-1.61,2.9-4.43,1.13-1.36-.85-2.7-1.73-4.08-2.54-.64-.38-.73-.74-.3-1.33.45-.63.83-1.32,1.25-1.97.14-.21.31-.41.49-.64Z"/>
      <path class="cls-8" d="M99.2,24.06c-.5.03-.78-.27-1.11-.47q-2.51-1.53-.98-3.98c.87-1.4,1.78-2.77,2.61-4.19.41-.72.75-.85,1.51-.39,2.68,1.64,2.7,1.61,1.03,4.27-.85,1.36-1.7,2.72-2.56,4.07-.16.25-.35.48-.5.69Z"/>
      <path class="cls-14" d="M69.29,12.58c.24,1.06.49,2.12.73,3.18.31,1.34-.92,1.07-1.41,1.07-.88-.02-2.07,1.48-2.61-.14-.7-2.14-1.06-4.39-1.57-6.59-.31-1.34.92-1.07,1.41-1.07.88.02,1.97-1.46,2.62.14.44,1.07.56,2.27.82,3.42Z"/>
      <path class="cls-11" d="M79.2,74.36c-1.35.31-2.7.62-4.04.93-.99-4.31-2.01-8.62-2.97-12.94-.21-.94-.46-1.29-1.52-1.03-2.88.72-2.87.66-3.54-2.23-.2-.85-.08-1.21.84-1.42,6.06-1.35,12.11-2.74,18.14-4.17.92-.22,1.18.05,1.38.91.65,2.9.7,2.95-2.21,3.56-1.07.22-1.15.66-.92,1.59,1.03,4.3,1.99,8.63,2.98,12.94-1.35.31-2.7.62-4.04.93-.88-3.81-1.76-7.61-2.63-11.42-.65-2.83-.64-2.77-3.51-2.17-1.07.22-1.15.65-.93,1.59,1.03,4.31,2,8.63,2.98,12.94Z"/>
      <path class="cls-1" d="M71.9,33.23c.46,1.99.46,2-1.44,2.73-2.46.94-4.64,2.28-6.37,4.31-2.4,2.8-3.49,6.01-3.05,9.7.09.73.37,1.51.19,2.17-.42,1.51-1.99.86-2.99,1.34-.59.29-.96.03-1.09-.65-.77-4.05-.63-8.02,1.28-11.75,2.41-4.7,6.39-7.62,11.25-9.45,1.66-.62,1.73-.55,2.23,1.6Z"/>
      <path class="cls-5" d="M62.84,58.98c.49,2.26.72,1.84-1.8,2.43-2.16.5-1.75.68-2.35-1.91-.48-2.06-.66-1.65,2.02-2.28,1.93-.46,1.57-.54,2.13,1.76Z"/>
      <path class="cls-15" d="M79.2,74.36c-.99-4.32-1.95-8.64-2.98-12.94-.22-.94-.14-1.36.93-1.59,2.87-.6,2.86-.65,3.51,2.17.88,3.81,1.76,7.61,2.63,11.42-1.36.31-2.72.63-4.08.94Z"/>
    </g>
  </g>
  <g id="Top_BGS" data-name="Top BGS">
    <path class="cls-10" d="M125.2,58.21c3.65,17.57-11.58,27.97-28.85,28.36-.34,0-.68.01-1.02.01-8.27,0-16.65-1.52-24.78-.64-1.61.17-3.21.44-4.8.83-.67.16-1.35.36-2.02.57-.01,0-.02,0-.03,0-1.7.52-3.37,1.14-5.04,1.76-.8.3-1.61.6-2.41.88-3.33,1.18-6.68,2.15-10.19,2.1-7.43-.12-14-4.83-19.24-10.08-1.2-1.21-2.37-2.51-3.47-3.87-1.23-1.52-2.36-3.15-3.36-4.82-2.54-4.27-4.15-8.94-3.99-13.53-5.35-.64-10.69-1.37-16-2.2v84.14h141.73V55.02c-5.48,1.21-10.99,2.27-16.53,3.19Z"/>
  </g>
  <g id="Texts">
    <g>
      <rect class="cls-6" x="0" y="87.41" width="141.73" height="54.32"/>
      <path class="cls-4" d="M54.74,102.06c0-.43.22-.67.66-.67h.74c.43,0,.66.24.66.67v8.92h4.24c.45,0,.67.22.67.66v.45c0,.45-.22.67-.67.67h-5.63c-.43,0-.66-.22-.66-.67v-10.02Z"/>
      <path class="cls-4" d="M62.56,105.26c0-.43.24-.67.67-.67h.69c.45,0,.67.24.67.67v4.16c0,.99.26,1.67,1.26,1.67,1.47,0,2.29-1.3,2.29-2.75v-3.07c0-.43.22-.67.67-.67h.69c.43,0,.67.24.67.67v6.82c0,.45-.24.67-.67.67h-.62c-.43,0-.66-.22-.66-.67v-.48c0-.19.03-.37.03-.37h-.03c-.38.83-1.44,1.71-2.83,1.71-1.75,0-2.83-.88-2.83-3.1v-4.58Z"/>
      <path class="cls-4" d="M76.1,104.4c1.31,0,2.19.48,2.67.82.34.22.35.56.13.91l-.21.32c-.24.37-.51.37-.9.18-.34-.22-.88-.5-1.58-.5-1.5,0-2.48,1.14-2.48,2.53s.98,2.56,2.54,2.56c.8,0,1.44-.35,1.82-.62.4-.22.7-.18.91.21l.16.3c.19.35.14.67-.18.9-.5.37-1.49.94-2.9.94-2.71,0-4.43-1.9-4.43-4.27s1.73-4.27,4.43-4.27Z"/>
      <path class="cls-4" d="M84.23,104.4c2.32,0,3.62,1.65,3.62,3.89,0,.35-.3.69-.7.69h-4.98c.13,1.47,1.22,2.24,2.45,2.24.75,0,1.38-.29,1.76-.53.4-.19.69-.14.9.22l.19.32c.19.37.13.69-.22.9-.53.34-1.49.82-2.77.82-2.71,0-4.39-1.95-4.39-4.27,0-2.51,1.7-4.27,4.15-4.27ZM85.83,107.74c-.03-1.14-.72-1.81-1.65-1.81-1.04,0-1.78.72-1.97,1.81h3.62Z"/>
      <path class="cls-4" d="M45.22,119.4c1.31,0,2.19.48,2.67.82.34.22.35.56.13.91l-.21.32c-.24.37-.51.37-.9.18-.34-.22-.88-.5-1.58-.5-1.5,0-2.48,1.14-2.48,2.53s.98,2.56,2.55,2.56c.8,0,1.44-.35,1.82-.62.4-.22.7-.18.91.21l.16.3c.19.35.14.67-.18.9-.5.37-1.49.94-2.9.94-2.71,0-4.43-1.9-4.43-4.27s1.73-4.27,4.43-4.27Z"/>
      <path class="cls-4" d="M53.65,119.4c2.48,0,4.5,1.78,4.5,4.27s-2.02,4.27-4.5,4.27-4.48-1.76-4.48-4.27,2-4.27,4.48-4.27ZM53.65,126.22c1.33,0,2.43-1.02,2.43-2.54s-1.1-2.54-2.43-2.54-2.42,1.04-2.42,2.54,1.09,2.54,2.42,2.54Z"/>
      <path class="cls-4" d="M59.62,117.06c0-.43.22-.67.66-.67h.7c.43,0,.66.24.66.67v7.99c0,.8.34.94.64.98.29.03.5.21.5.58v.54c0,.42-.19.69-.67.69-1.09,0-2.48-.29-2.48-2.62v-8.15Z"/>
      <path class="cls-4" d="M68.02,119.4c2.48,0,4.5,1.78,4.5,4.27s-2.02,4.27-4.5,4.27-4.48-1.76-4.48-4.27,2-4.27,4.48-4.27ZM68.02,126.22c1.33,0,2.43-1.02,2.43-2.54s-1.1-2.54-2.43-2.54-2.42,1.04-2.42,2.54,1.09,2.54,2.42,2.54Z"/>
      <path class="cls-4" d="M74,120.26c0-.43.22-.67.66-.67h.62c.43,0,.67.24.67.67v.77c0,.3-.05.56-.05.56h.03c.32-.98,1.22-2.06,2.37-2.06.45,0,.61.22.61.67v.62c0,.43-.26.67-.69.67-1.49,0-2.21,1.47-2.21,2.96v2.62c0,.45-.22.67-.66.67h-.7c-.43,0-.66-.22-.66-.67v-6.82Z"/>
      <path class="cls-4" d="M84.07,122.71h.34v-.19c0-1.07-.69-1.44-1.52-1.44-.69,0-1.31.26-1.7.46-.4.18-.7.11-.9-.27l-.16-.3c-.19-.37-.13-.69.26-.9.53-.27,1.46-.67,2.67-.67,2.11,0,3.38,1.18,3.38,3.25v4.43c0,.45-.22.67-.67.67h-.54c-.43,0-.66-.22-.66-.67v-.32c0-.22.03-.35.03-.35h-.03s-.77,1.54-2.56,1.54c-1.49,0-2.71-.96-2.71-2.45,0-2.39,2.95-2.79,4.77-2.79ZM82.55,126.39c1.14,0,1.87-1.15,1.87-2.15v-.3h-.34c-1.02,0-2.77.16-2.77,1.38,0,.54.42,1.07,1.23,1.07Z"/>
      <path class="cls-4" d="M88.68,121.32h-.43c-.43,0-.66-.22-.66-.67v-.27c0-.43.22-.67.67-.67h.46v-1.66c0-.43.24-.67.67-.67h.64c.43,0,.67.24.67.67v1.66h1.18c.43,0,.67.24.67.67v.27c0,.45-.24.67-.66.67h-1.2v3.17c0,1.22.75,1.46,1.31,1.52.5.05.67.21.67.66v.5c0,.48-.27.67-.83.67-1.46,0-3.18-.78-3.18-2.99v-3.52Z"/>
      <path class="cls-4" d="M98.2,122.71h.34v-.19c0-1.07-.69-1.44-1.52-1.44-.69,0-1.31.26-1.7.46-.4.18-.7.11-.9-.27l-.16-.3c-.19-.37-.13-.69.26-.9.53-.27,1.46-.67,2.67-.67,2.11,0,3.38,1.18,3.38,3.25v4.43c0,.45-.22.67-.67.67h-.54c-.43,0-.66-.22-.66-.67v-.32c0-.22.03-.35.03-.35h-.03s-.77,1.54-2.56,1.54c-1.49,0-2.71-.96-2.71-2.45,0-2.39,2.95-2.79,4.77-2.79ZM96.68,126.39c1.14,0,1.87-1.15,1.87-2.15v-.3h-.34c-1.02,0-2.77.16-2.77,1.38,0,.54.42,1.07,1.23,1.07Z"/>
    </g>
  </g>
</svg>