<?xml version="1.0" encoding="UTF-8"?>
<svg xmlns="http://www.w3.org/2000/svg" viewBox="0 0 141.73 141.73">
  <defs>
    <style>
      .cls-1 {
        fill: #fecc95;
      }

      .cls-2 {
        fill: #0e0b09;
      }

      .cls-3 {
        fill: #f1f2f2;
      }

      .cls-4 {
        fill: #fedaaa;
      }

      .cls-5 {
        fill: none;
      }

      .cls-6 {
        fill: #f8b47f;
      }

      .cls-7 {
        fill: #fffcf9;
      }

      .cls-8 {
        fill: #e5b17e;
      }

      .cls-9 {
        fill: #fcb44a;
        stroke: #fcb44a;
        stroke-miterlimit: 10;
        stroke-width: .5px;
      }
    </style>
  </defs>
  <g id="Bottom_BGS" data-name="Bottom BGS">
    <path class="cls-9" d="M21.18,38.6c.47-18.96,18.13-24.44,34.47-19.35.31.1.61.19.92.3,7.38,2.49,14.42,6.35,21.94,8,1.49.33,3,.57,4.54.69.65.05,1.31.08,1.97.1.01,0,.02,0,.03,0,1.67.04,3.35-.01,5.03-.06.81-.03,1.62-.05,2.42-.07,3.33-.06,6.61.08,9.73,1.18,6.6,2.33,11.05,8.51,14.17,14.77.71,1.44,1.37,2.95,1.94,4.5.64,1.73,1.17,3.52,1.56,5.31.52,2.43.77,4.88.67,7.25,7.07-.63,14.12-1.29,21.17-1.89V0H0v58.14c7.81,1.93,15.67,3.36,23.57,4.39-2.16-7.67-2.59-15.9-2.39-23.92Z"/>
  </g>
  <g id="Elements">
    <g>
      <path class="cls-1" d="M92.37,57.59c-.11,2.45-.26,4.9-.45,7.34-.04.53.11.81.54,1.05,2.91,1.64,4.94,4.06,6.03,7.2,1.34,3.85,1.06,7.6-1.04,11.15-.2.07-.26.24-.29.43h0c-.41.06-.64.4-.94.63-2.9,2.24-6.17,3.3-9.84,3.17-2.24-.08-4.3-.84-6.31-1.75.69-.55,1.4-1.08,2.06-1.66.32-.28.59-.29.97-.17,1.79.59,3.58,1.15,5.38,1.72,1.74.55,1.72.55,2.27-1.18.16-.5.1-.71-.44-.88-2.57-.78-5.12-1.6-7.68-2.43-.42-.14-.69-.08-1.04.19-1.87,1.47-3.76,2.91-5.64,4.35-.53.4-1.05.8-1.69,1.02-.08.04-.16.07-.24.11,0,0,.01,0,.01,0-.39-.21-.81-.14-1.22-.12-2.78.13-5.51-.28-8.17-.99-3.75-1-7.25-2.62-10.37-4.99-.23-.17-.45-.45-.81-.29-.02-.02-.04-.05-.04-.08.18-.22-.02-.24-.15-.3-.42-.63-.66-1.33-.88-2.04-.62-2.12-1.27-4.23-1.85-6.36-.16-.58-.45-.85-1.01-1.02-2.15-.64-4.28-1.34-6.41-2.02-1.71-.54-1.68-.53-2.25,1.18-.19.59-.02.74.51.9,2.12.64,4.22,1.33,6.33,1.99.33.1.6.2.7.6.22.88.48,1.75.72,2.63-1.66-.19-3.24-.7-4.7-1.49-3.16-1.69-4.95-4.39-5.45-7.91-.37-2.58.31-4.97,1.59-7.19,1.66-2.88,3.97-5.02,7.06-6.33,1.2-.51,2.48-.68,3.67-1.18.12,0,.23,0,.35,0,.74,0,1.49-.05,2.22.03.63.07.99-.12,1.32-.67,3.08-5.08,6.19-10.15,9.29-15.22,1.87-3.05,3.74-6.1,5.6-9.16,2.59,1.62,1.9,1.55,3.13-.27.02-.02.04-.04.05-.07.22-.35.15-.59-.22-.81-.55-.31-1.06-.68-1.59-1.02.41-.7.82-1.39,1.22-2.09.54.33,1.09.65,1.61,1,.36.24.69.21.81-.16.22-.64,1.09-1.01.75-1.85-.04-.1-.23-.15-.34-.22-.49-.3-.99-.6-1.48-.91.25-.43.5-.85.75-1.28,1.09-1.82,2.2-3.61,3.83-5.03,1.85-1.61,4.02-2.44,6.37-2.94,4.1.65,6.91,2.99,8.65,6.68,1.11,2.37.98,4.87.81,7.39-.61,9.04-1.18,18.09-1.8,27.13"/>
      <polygon class="cls-2" points="97.16 84.76 97.16 84.76 97.17 84.76 97.16 84.76"/>
      <path class="cls-8" d="M52.41,79.08c-.62-2.12-1.27-4.23-1.85-6.36-.16-.58-.45-.85-1.01-1.02-2.15-.64-4.28-1.34-6.41-2.02-1.71-.54-1.68-.53-2.25,1.18-.19.59-.02.74.51.9,2.12.64,4.22,1.33,6.33,1.99.33.1.6.2.7.6.22.88.48,1.75.72,2.63.2.63.36,1.27.6,1.89.03.07-.38.11-.37.16.28.14.04.26.18.47,0,.02,0-.02,0,0,1.11.36,2.98,1.15,3.85,1.78-.49-.67-.76-1.43-.99-2.21Z"/>
      <path class="cls-8" d="M90.32,84.65c-2.57-.78-5.12-1.6-7.67-2.43-.36-.12-.74-.05-1.04.18-1.87,1.47-3.76,2.91-5.65,4.36-.53.4-1.05.8-1.69,1.02,0,0,0,0,0,0-.08.04-.16.07-.24.11,0,0,.01,0,.01,0,0,0-.02,0-.03.02,1.41.44,2.7.62,4.04.61l.02-.03c-.05-.15.14-.3.54-.6.48-.36.98-.71,1.46-1.07.69-.55,1.4-1.08,2.06-1.66.32-.28.59-.29.97-.17,1.79.59,3.58,1.15,5.38,1.72,1.74.55,1.72.55,2.27-1.18.16-.5.1-.71-.44-.88Z"/>
      <path class="cls-8" d="M49.74,78.87c-.24-.61-.4-1.26-.6-1.89-1.66-.19-3.24-.7-4.7-1.49-3.16-1.69-4.95-4.39-5.45-7.91-.37-2.58.31-4.97,1.59-7.19,1.66-2.88,3.97-5.02,7.06-6.33,1.2-.51,2.48-.68,3.67-1.18-.24-.04-.49-.11-.73-.12-7.54-.5-14.06,5.36-14.28,12.9,0,.19-.02.37-.04.52.06,1.17,0,2.3.34,3.38.06.22.27.53.44.93,2.24,5.11,6.75,8.94,12.17,9.04.59.01.75-.08.53-.66Z"/>
      <path class="cls-8" d="M84.98,12.22c-2.34.5-4.52,1.33-6.37,2.94-1.63,1.42-2.74,3.21-3.83,5.03-.25.42-.5.85-.75,1.28-.47.57-.81,1.22-1.17,1.87-.05.05-.1.11-.16.16-.01.04-.02.07-.02.11-.41.7-.82,1.39-1.22,2.09-.45.72-.91,1.44-1.36,2.16-1.87,3.05-3.74,6.1-5.6,9.16-3.1,5.07-6.21,10.14-9.29,15.22-.33.55-.69.74-1.32.67-.73-.08-1.48-.02-2.22-.03,2.42-3.94,4.84-7.88,7.25-11.83,4.83-7.89,9.6-15.82,14.51-23.65,2.55-4.07,6.4-5.73,11.17-5.29.13.01.26.08.39.12Z"/>
      <path class="cls-8" d="M74.04,87.89c-2.35,1.36-4.9,1.81-7.57,1.63-5.15-.35-9.3-2.56-12.31-6.8-.27-.38-.46-.81-.68-1.22.36-.16.58.12.81.29,3.12,2.37,6.61,3.99,10.37,4.99,2.66.71,5.39,1.12,8.17.99.41-.02.83-.09,1.22.12Z"/>
      <path class="cls-8" d="M97.17,84.76c-1.13,2.08-2.84,3.59-4.9,4.67-4.59,2.39-9.14,2.13-13.57-.47-.83-.49-.82-.52-.08-1.08.48-.36.98-.71,1.46-1.07,2.01.91,4.06,1.67,6.31,1.75,3.66.13,6.94-.93,9.84-3.17.3-.23.53-.57.94-.64Z"/>
      <path class="cls-7" d="M70.1,27.85c.45-.72.91-1.44,1.36-2.16.53.34,1.05.71,1.59,1.02.37.21.44.46.22.81-.01.02-.03.04-.05.07-1.22,1.82-.54,1.89-3.13.27Z"/>
      <path class="cls-7" d="M72.86,23.34c.36-.64.7-1.29,1.17-1.87.49.3.98.6,1.48.91.12.07.3.12.34.22.35.84-.53,1.22-.75,1.85-.13.37-.46.4-.81.16-.52-.36-1.07-.67-1.61-1,0-.04.01-.07.02-.11.05-.05.1-.11.16-.16Z"/>
      <path class="cls-6" d="M97.45,84.33c-.03.19-.09.36-.29.43.03-.19.09-.36.29-.43Z"/>
      <path class="cls-6" d="M53.44,81.42c-.05-.1-.1-.2-.15-.3.13.06.34.08.15.3Z"/>
      <path class="cls-6" d="M74.27,87.78c-.08.04-.16.07-.24.11.08-.04.16-.07.24-.11Z"/>
      <path class="cls-4" d="M72.86,23.34c-.05.05-.1.11-.16.16.05-.05.1-.11.16-.16Z"/>
    </g>
  </g>
  <g id="Top_BGS" data-name="Top BGS">
    <path class="cls-9" d="M120.57,61.22c-.11,2.6-.63,5.1-1.72,7.38-.31.66-.67,1.29-1.08,1.9-.4.61-.86,1.19-1.36,1.76-5.39,6.01-14.39,6.72-21.76,10.02-4.2,1.88-7.95,4.65-12.04,6.74-2.2,1.13-4.5,2.02-6.87,2.67l-.41.11c-.72.2-1.45.37-2.18.52h0c-.62.13-1.23.24-1.86.33-.11.03-.22.04-.33.05-.88.13-1.76.23-2.65.31-.4.03-.8.06-1.21.08-5.14.27-10.36-.41-15.32-1.95-.44-.13-.89-.28-1.32-.43,0,0,0,0-.01,0-.06-.01-.12-.04-.18-.06-.12-.04-.25-.08-.36-.12-.15-.05-.3-.1-.44-.16-.38-.13-.75-.28-1.12-.43-.83-.33-1.66-.69-2.47-1.06-.46-.21-.91-.44-1.36-.67-1.11-.56-2.19-1.18-3.25-1.83-1.05-.64-2.06-1.33-3.05-2.07-1.27-.95-2.49-1.97-3.64-3.06-.42-.4-.84-.81-1.24-1.23-.42-.43-.83-.87-1.23-1.32-1.08-1.21-2.07-2.49-2.98-3.83-.72-1.07-1.39-2.17-2-3.32-.09-.16-.18-.33-.26-.5-1.4-2.73-2.48-5.59-3.3-8.52C15.67,61.5,7.81,60.07,0,58.14v83.59h141.73V59.33c-7.04.6-14.1,1.25-21.17,1.89Z"/>
  </g>
  <g id="Texts">
    <g>
      <rect class="cls-5" x="0" y="87.41" width="141.73" height="54.32"/>
      <path class="cls-3" d="M51.08,108.7c3.44,0,5.87,2.54,5.87,5.79s-2.43,5.95-5.87,5.95-5.87-2.61-5.87-5.95,2.43-5.79,5.87-5.79ZM51.08,118.56c2.18,0,3.75-1.76,3.75-4.07s-1.57-3.91-3.75-3.91-3.75,1.7-3.75,3.91,1.57,4.07,3.75,4.07Z"/>
      <path class="cls-3" d="M58.51,109.56c0-.43.22-.67.66-.67h.7c.43,0,.66.24.66.67v7.99c0,.8.34.94.64.98.29.03.5.21.5.58v.54c0,.42-.19.69-.67.69-1.09,0-2.48-.29-2.48-2.62v-8.15Z"/>
      <path class="cls-3" d="M63.43,113.82h-.4c-.43,0-.66-.22-.66-.67v-.27c0-.43.22-.67.66-.67h.4v-.38c0-2.59,2.29-2.99,3.12-2.99h.24c.43,0,.66.22.66.67v.42c0,.43-.24.62-.69.66-.5.03-1.3.14-1.3,1.33v.3h1.09c.43,0,.66.24.66.67v.27c0,.45-.22.67-.66.67h-1.09v5.76c0,.45-.24.67-.67.67h-.7c-.43,0-.66-.22-.66-.67v-5.76Z"/>
      <path class="cls-3" d="M72.5,115.21h.34v-.19c0-1.07-.69-1.44-1.52-1.44-.69,0-1.31.26-1.7.46-.4.18-.7.11-.9-.27l-.16-.3c-.19-.37-.13-.69.26-.9.53-.27,1.46-.67,2.67-.67,2.11,0,3.38,1.18,3.38,3.25v4.43c0,.45-.22.67-.67.67h-.54c-.43,0-.66-.22-.66-.67v-.32c0-.22.03-.35.03-.35h-.03s-.77,1.54-2.56,1.54c-1.49,0-2.71-.96-2.71-2.45,0-2.39,2.95-2.79,4.77-2.79ZM70.98,118.89c1.14,0,1.87-1.15,1.87-2.15v-.3h-.34c-1.02,0-2.77.16-2.77,1.38,0,.54.42,1.07,1.23,1.07Z"/>
      <path class="cls-3" d="M77.11,113.82h-.43c-.43,0-.66-.22-.66-.67v-.27c0-.43.22-.67.67-.67h.46v-1.66c0-.43.24-.67.67-.67h.64c.43,0,.67.24.67.67v1.66h1.18c.43,0,.67.24.67.67v.27c0,.45-.24.67-.66.67h-1.2v3.17c0,1.22.75,1.46,1.31,1.52.5.05.67.21.67.66v.5c0,.48-.27.67-.83.67-1.46,0-3.18-.78-3.18-2.99v-3.52Z"/>
      <path class="cls-3" d="M82.93,113.82h-.43c-.43,0-.66-.22-.66-.67v-.27c0-.43.22-.67.67-.67h.46v-1.66c0-.43.24-.67.67-.67h.64c.43,0,.67.24.67.67v1.66h1.18c.43,0,.67.24.67.67v.27c0,.45-.24.67-.66.67h-1.2v3.17c0,1.22.75,1.46,1.31,1.52.5.05.67.21.67.66v.5c0,.48-.27.67-.83.67-1.46,0-3.18-.78-3.18-2.99v-3.52Z"/>
      <path class="cls-3" d="M92.19,111.9c2.48,0,4.5,1.78,4.5,4.27s-2.02,4.27-4.5,4.27-4.48-1.76-4.48-4.27,2-4.27,4.48-4.27ZM92.19,118.72c1.33,0,2.43-1.02,2.43-2.54s-1.1-2.54-2.43-2.54-2.42,1.04-2.42,2.54,1.09,2.54,2.42,2.54Z"/>
    </g>
  </g>
</svg>