<?xml version="1.0" encoding="UTF-8"?>
<svg xmlns="http://www.w3.org/2000/svg" viewBox="0 0 141.73 141.73">
  <defs>
    <style>
      .cls-1 {
        fill: #e6e7e8;
        stroke: #58595b;
        stroke-miterlimit: 10;
        stroke-width: .5px;
      }

      .cls-2 {
        fill: #414042;
      }
    </style>
  </defs>
  <g id="Bottom_BGS" data-name="Bottom BGS">
    <rect class="cls-1" x="0" width="141.73" height="141.73"/>
  </g>
  <g id="Texts">
    <g>
      <path class="cls-2" d="M11.68,22.5c-.84,0-1.58-.17-2.21-.51-.63-.34-1.12-.8-1.48-1.38s-.53-1.25-.53-1.99v-7.21h1.22v7.11c0,.55.12,1.04.37,1.46s.59.77,1.04,1.01c.45.25.98.37,1.59.37s1.15-.12,1.59-.37c.44-.24.79-.58,1.03-1.01s.37-.92.37-1.46v-7.11h1.22v7.21c0,.74-.17,1.41-.52,1.99-.35.59-.84,1.05-1.47,1.38-.63.34-1.37.51-2.21.51Z"/>
      <path class="cls-2" d="M19.58,17.32v5h-1.15v-8.19h1.11v1.95s-.16,0-.16,0c.24-.74.59-1.26,1.07-1.58.47-.32,1.02-.47,1.64-.47.55,0,1.04.11,1.45.34.42.23.74.57.98,1.02.23.45.35,1.01.35,1.68v5.25h-1.16v-5.16c0-.65-.18-1.16-.53-1.53-.35-.37-.83-.56-1.43-.56-.41,0-.78.09-1.11.27-.33.18-.59.43-.78.77-.19.33-.29.74-.29,1.21Z"/>
      <path class="cls-2" d="M34.29,22.43c-.56,0-1.04-.11-1.46-.34-.42-.23-.74-.57-.98-1.02s-.35-1.01-.35-1.68v-5.25h1.15v5.16c0,.65.18,1.16.53,1.53.36.37.83.56,1.43.56.42,0,.78-.09,1.11-.27.32-.18.58-.44.77-.77.19-.34.28-.74.28-1.21v-5h1.16v8.19h-1.12v-1.95h.16c-.24.74-.6,1.27-1.07,1.58-.48.31-1.01.47-1.62.47Z"/>
      <path class="cls-2" d="M43.34,14.13v1h-4.07v-1h4.07ZM40.5,12.19h1.15v8.11c0,.39.08.67.25.85.17.18.43.26.78.25.08,0,.17-.02.29-.03.11-.02.22-.04.32-.05l.23.98c-.12.04-.25.08-.41.1-.15.02-.3.03-.45.03-.68.02-1.22-.15-1.6-.51-.38-.36-.57-.87-.57-1.52v-8.2Z"/>
      <path class="cls-2" d="M48.28,22.5c-.78,0-1.45-.18-2.02-.54-.57-.36-1.01-.85-1.31-1.48-.31-.63-.46-1.36-.46-2.2s.15-1.57.45-2.21c.3-.64.73-1.14,1.27-1.5s1.18-.54,1.91-.54c.44,0,.87.08,1.29.23.42.15.8.39,1.14.72s.61.75.81,1.26c.2.51.3,1.14.3,1.86v.49h-6.39v-.98h5.77l-.54.37c0-.56-.09-1.06-.27-1.5-.18-.44-.45-.79-.8-1.04-.35-.25-.78-.38-1.29-.38s-.95.13-1.31.38c-.37.26-.65.59-.85,1.01s-.3.87-.3,1.36v.62c0,.63.11,1.16.32,1.62.21.45.52.8.92,1.04.4.24.86.36,1.39.36.35,0,.67-.05.94-.16s.51-.26.71-.46c.19-.19.34-.42.44-.68l1.11.32c-.13.38-.34.72-.63,1.02s-.66.54-1.09.72c-.43.18-.93.27-1.49.27Z"/>
      <path class="cls-2" d="M54.77,17.32v5h-1.15v-8.19h1.11v1.95s-.16,0-.16,0c.24-.74.59-1.26,1.07-1.58.47-.32,1.02-.47,1.64-.47.55,0,1.04.11,1.45.34.42.23.74.57.98,1.02.23.45.35,1.01.35,1.68v5.25h-1.16v-5.16c0-.65-.18-1.16-.53-1.53-.35-.37-.83-.56-1.43-.56-.41,0-.78.09-1.11.27-.33.18-.59.43-.78.77-.19.33-.29.74-.29,1.21Z"/>
      <path class="cls-2" d="M65.46,14.13v1h-4.07v-1h4.07ZM62.62,12.19h1.15v8.11c0,.39.08.67.25.85.17.18.43.26.78.25.08,0,.17-.02.29-.03.11-.02.22-.04.32-.05l.23.98c-.12.04-.25.08-.41.1-.15.02-.3.03-.45.03-.68.02-1.22-.15-1.6-.51-.38-.36-.57-.87-.57-1.52v-8.2Z"/>
      <path class="cls-2" d="M70.4,22.5c-.78,0-1.45-.18-2.02-.54-.57-.36-1.01-.85-1.31-1.48-.31-.63-.46-1.36-.46-2.2s.15-1.57.45-2.21c.3-.64.73-1.14,1.27-1.5s1.18-.54,1.91-.54c.44,0,.87.08,1.29.23.42.15.8.39,1.14.72s.61.75.81,1.26c.2.51.3,1.14.3,1.86v.49h-6.39v-.98h5.77l-.54.37c0-.56-.09-1.06-.27-1.5-.18-.44-.45-.79-.8-1.04-.35-.25-.78-.38-1.29-.38s-.95.13-1.31.38c-.37.26-.65.59-.85,1.01s-.3.87-.3,1.36v.62c0,.63.11,1.16.32,1.62.21.45.52.8.92,1.04.4.24.86.36,1.39.36.35,0,.67-.05.94-.16s.51-.26.71-.46c.19-.19.34-.42.44-.68l1.11.32c-.13.38-.34.72-.63,1.02s-.66.54-1.09.72c-.43.18-.93.27-1.49.27Z"/>
      <path class="cls-2" d="M79.96,25.38v-11.25h1.11v1.44h.13c.1-.2.25-.42.43-.66.18-.24.44-.45.76-.62s.74-.26,1.25-.26c.68,0,1.27.17,1.78.52.51.35.91.84,1.2,1.47.29.63.44,1.38.44,2.23s-.14,1.61-.43,2.24-.69,1.13-1.2,1.48c-.51.35-1.1.53-1.78.53-.5,0-.92-.09-1.25-.27-.33-.18-.58-.39-.77-.64-.19-.25-.33-.47-.43-.67h-.1v4.46h-1.15ZM83.49,21.46c.52,0,.96-.14,1.32-.43.36-.29.63-.67.81-1.16.18-.49.27-1.03.27-1.63s-.09-1.13-.27-1.61-.45-.86-.81-1.14c-.36-.28-.8-.42-1.33-.42s-.95.13-1.31.4c-.35.27-.62.64-.81,1.12-.18.48-.27,1.03-.27,1.65s.09,1.19.27,1.67c.18.49.45.87.81,1.14.36.27.79.41,1.3.41Z"/>
      <path class="cls-2" d="M91.43,22.51c-.51,0-.97-.1-1.38-.29s-.75-.48-.99-.85-.37-.82-.37-1.35c0-.44.09-.8.26-1.08s.4-.51.7-.69c.3-.17.63-.31,1.01-.4.38-.1.78-.17,1.2-.22.47-.06.86-.11,1.17-.15.31-.04.55-.1.71-.19.16-.09.24-.23.24-.44v-.12c0-.36-.07-.66-.21-.91-.14-.25-.34-.44-.61-.58-.27-.13-.6-.2-1-.2s-.73.06-1.01.18c-.29.12-.52.28-.7.46-.18.19-.32.39-.41.6l-1.11-.37c.2-.47.47-.85.81-1.12s.72-.47,1.14-.59c.42-.12.84-.18,1.26-.18.3,0,.62.04.97.11.35.08.67.21.98.41.31.2.56.48.76.85.2.37.3.85.3,1.44v5.48h-1.14v-1.2h-.08c-.11.22-.27.44-.48.65-.21.21-.49.39-.82.53-.33.14-.73.21-1.18.21ZM91.62,21.49c.49,0,.91-.1,1.26-.31.35-.21.62-.48.81-.82.19-.34.28-.7.28-1.08v-1.16c-.06.07-.17.13-.35.18-.17.05-.37.1-.59.14-.22.04-.44.08-.66.1-.22.03-.4.05-.54.06-.39.05-.74.13-1.04.23-.3.11-.53.26-.7.46-.17.2-.25.46-.25.77s.08.57.23.78c.15.21.36.37.63.48.27.11.57.17.91.17Z"/>
      <path class="cls-2" d="M97.54,22.32v-8.19h1.11v1.27h.08c.16-.41.44-.75.83-1s.84-.38,1.35-.38c.09,0,.19,0,.3,0,.11,0,.21.01.27.02v1.16s-.12-.02-.25-.03c-.13-.02-.28-.03-.44-.03-.41,0-.77.09-1.09.26-.32.17-.57.41-.75.71-.18.3-.27.65-.27,1.04v5.19h-1.15Z"/>
      <path class="cls-2" d="M104.4,11.41v10.91h-1.15v-10.91h1.15Z"/>
      <path class="cls-2" d="M109.04,22.51c-.51,0-.97-.1-1.38-.29s-.75-.48-.99-.85-.37-.82-.37-1.35c0-.44.09-.8.26-1.08s.4-.51.7-.69c.3-.17.63-.31,1.01-.4.38-.1.78-.17,1.2-.22.47-.06.86-.11,1.17-.15.31-.04.55-.1.71-.19.16-.09.24-.23.24-.44v-.12c0-.36-.07-.66-.21-.91-.14-.25-.34-.44-.61-.58-.27-.13-.6-.2-1-.2s-.73.06-1.01.18c-.29.12-.52.28-.7.46-.18.19-.32.39-.41.6l-1.11-.37c.2-.47.47-.85.81-1.12s.72-.47,1.14-.59c.42-.12.84-.18,1.26-.18.3,0,.62.04.97.11.35.08.67.21.98.41.31.2.56.48.76.85.2.37.3.85.3,1.44v5.48h-1.14v-1.2h-.08c-.11.22-.27.44-.48.65-.21.21-.49.39-.82.53-.33.14-.73.21-1.18.21ZM109.23,21.49c.49,0,.91-.1,1.26-.31.35-.21.62-.48.81-.82.19-.34.28-.7.28-1.08v-1.16c-.06.07-.17.13-.35.18-.17.05-.37.1-.59.14-.22.04-.44.08-.66.1-.22.03-.4.05-.54.06-.39.05-.74.13-1.04.23-.3.11-.53.26-.7.46-.17.2-.25.46-.25.77s.08.57.23.78c.15.21.36.37.63.48.27.11.57.17.91.17Z"/>
      <path class="cls-2" d="M121.59,22.51c-.51,0-.97-.1-1.38-.29s-.75-.48-.99-.85-.37-.82-.37-1.35c0-.44.09-.8.26-1.08s.4-.51.7-.69c.3-.17.63-.31,1.01-.4.38-.1.78-.17,1.2-.22.47-.06.86-.11,1.17-.15.31-.04.55-.1.71-.19.16-.09.24-.23.24-.44v-.12c0-.36-.07-.66-.21-.91-.14-.25-.34-.44-.61-.58-.27-.13-.6-.2-1-.2s-.73.06-1.01.18c-.29.12-.52.28-.7.46-.18.19-.32.39-.41.6l-1.11-.37c.2-.47.47-.85.81-1.12s.72-.47,1.14-.59c.42-.12.84-.18,1.26-.18.3,0,.62.04.97.11.35.08.67.21.98.41.31.2.56.48.76.85.2.37.3.85.3,1.44v5.48h-1.14v-1.2h-.08c-.11.22-.27.44-.48.65-.21.21-.49.39-.82.53-.33.14-.73.21-1.18.21ZM121.78,21.49c.49,0,.91-.1,1.26-.31.35-.21.62-.48.81-.82.19-.34.28-.7.28-1.08v-1.16c-.06.07-.17.13-.35.18-.17.05-.37.1-.59.14-.22.04-.44.08-.66.1-.22.03-.4.05-.54.06-.39.05-.74.13-1.04.23-.3.11-.53.26-.7.46-.17.2-.25.46-.25.77s.08.57.23.78c.15.21.36.37.63.48.27.11.57.17.91.17Z"/>
      <path class="cls-2" d="M130.7,22.5c-.67,0-1.27-.18-1.78-.53s-.91-.84-1.2-1.48-.43-1.38-.43-2.24.15-1.6.44-2.23c.29-.63.69-1.12,1.21-1.47.51-.35,1.11-.52,1.78-.52.52,0,.94.09,1.26.26.32.18.57.38.76.62.19.24.33.46.42.66h.1v-4.17h1.16v10.91h-1.12v-1.4h-.13c-.09.2-.23.42-.42.67-.19.25-.45.46-.77.64-.33.18-.74.27-1.25.27ZM130.87,21.46c.51,0,.94-.14,1.3-.41s.63-.65.81-1.14c.19-.49.28-1.04.28-1.67s-.09-1.18-.27-1.65c-.18-.48-.45-.85-.81-1.12s-.79-.4-1.3-.4-.97.14-1.33.42c-.36.28-.63.66-.81,1.14s-.27,1.02-.27,1.61.09,1.15.27,1.63c.18.49.45.88.81,1.16.36.29.8.43,1.32.43Z"/>
      <path class="cls-2" d="M35.98,40.51c-.51,0-.97-.1-1.38-.29s-.75-.48-.99-.85-.37-.82-.37-1.35c0-.44.09-.8.26-1.08s.4-.51.7-.69c.3-.17.63-.31,1.01-.4.38-.1.78-.17,1.2-.22.47-.06.86-.11,1.17-.15.31-.04.55-.1.71-.19.16-.09.24-.23.24-.44v-.12c0-.36-.07-.66-.21-.91-.14-.25-.34-.44-.61-.58-.27-.13-.6-.2-1-.2s-.73.06-1.01.18c-.29.12-.52.28-.7.46-.18.19-.32.39-.41.6l-1.11-.37c.2-.47.47-.85.81-1.12s.72-.47,1.14-.59c.42-.12.84-.18,1.26-.18.3,0,.62.04.97.11.35.08.67.21.98.41.31.2.56.48.76.85.2.37.3.85.3,1.44v5.48h-1.14v-1.2h-.08c-.11.22-.27.44-.48.65-.21.21-.49.39-.82.53-.33.14-.73.21-1.18.21ZM36.17,39.49c.49,0,.91-.1,1.26-.31.35-.21.62-.48.81-.82.19-.34.28-.7.28-1.08v-1.16c-.06.07-.17.13-.35.18-.17.05-.37.1-.59.14-.22.04-.44.08-.66.1-.22.03-.4.05-.54.06-.39.05-.74.13-1.04.23-.3.11-.53.26-.7.46-.17.2-.25.46-.25.77s.08.57.23.78c.15.21.36.37.63.48.27.11.57.17.91.17Z"/>
      <path class="cls-2" d="M43.24,29.41v10.91h-1.15v-10.91h1.15Z"/>
      <path class="cls-2" d="M48.9,32.13v1h-4.07v-1h4.07ZM46.06,30.19h1.15v8.11c0,.39.08.67.25.85.17.18.43.26.78.25.08,0,.17-.02.29-.03.11-.02.22-.04.32-.05l.23.98c-.12.04-.25.08-.41.1-.15.02-.3.03-.45.03-.68.02-1.22-.15-1.6-.51-.38-.36-.57-.87-.57-1.52v-8.2Z"/>
      <path class="cls-2" d="M52.9,40.51c-.51,0-.97-.1-1.38-.29s-.75-.48-.99-.85-.37-.82-.37-1.35c0-.44.09-.8.26-1.08s.4-.51.7-.69c.3-.17.63-.31,1.01-.4.38-.1.78-.17,1.2-.22.47-.06.86-.11,1.17-.15.31-.04.55-.1.71-.19.16-.09.24-.23.24-.44v-.12c0-.36-.07-.66-.21-.91-.14-.25-.34-.44-.61-.58-.27-.13-.6-.2-1-.2s-.73.06-1.01.18c-.29.12-.52.28-.7.46-.18.19-.32.39-.41.6l-1.11-.37c.2-.47.47-.85.81-1.12s.72-.47,1.14-.59c.42-.12.84-.18,1.26-.18.3,0,.62.04.97.11.35.08.67.21.98.41.31.2.56.48.76.85.2.37.3.85.3,1.44v5.48h-1.14v-1.2h-.08c-.11.22-.27.44-.48.65-.21.21-.49.39-.82.53-.33.14-.73.21-1.18.21ZM53.09,39.49c.49,0,.91-.1,1.26-.31.35-.21.62-.48.81-.82.19-.34.28-.7.28-1.08v-1.16c-.06.07-.17.13-.35.18-.17.05-.37.1-.59.14-.22.04-.44.08-.66.1-.22.03-.4.05-.54.06-.39.05-.74.13-1.04.23-.3.11-.53.26-.7.46-.17.2-.25.46-.25.77s.08.57.23.78c.15.21.36.37.63.48.27.11.57.17.91.17Z"/>
      <path class="cls-2" d="M65.6,40.32l-3.13-8.19h1.26l1.82,5c.18.48.33.96.46,1.44.13.48.27.95.41,1.4h-.42c.15-.46.28-.92.41-1.4.13-.48.28-.96.46-1.44l1.82-5h1.26l-3.13,8.19h-1.22Z"/>
      <path class="cls-2" d="M74.58,40.5c-.73,0-1.37-.18-1.92-.54-.55-.36-.98-.85-1.29-1.49s-.46-1.37-.46-2.21.15-1.58.46-2.22c.31-.64.74-1.13,1.29-1.49.55-.35,1.19-.53,1.92-.53s1.37.18,1.92.53c.55.35.99.85,1.3,1.49.31.64.47,1.38.47,2.22s-.16,1.57-.47,2.21-.74,1.13-1.3,1.49c-.55.36-1.2.54-1.92.54ZM74.58,39.46c.56,0,1.02-.15,1.4-.44.37-.29.65-.68.84-1.17.19-.48.28-1.01.28-1.58s-.09-1.1-.28-1.59-.47-.88-.84-1.18c-.37-.29-.84-.44-1.4-.44s-1.01.15-1.38.44c-.37.3-.65.69-.84,1.17-.19.49-.28,1.02-.28,1.59s.09,1.1.28,1.58c.19.48.47.87.84,1.17s.83.44,1.38.44Z"/>
      <path class="cls-2" d="M83.53,40.49c-.73,0-1.37-.18-1.92-.53-.55-.35-.98-.85-1.29-1.48s-.46-1.37-.46-2.21.15-1.58.46-2.22c.31-.64.74-1.13,1.29-1.49.55-.35,1.19-.53,1.92-.53.41,0,.78.06,1.13.17.35.11.66.27.94.46s.52.42.71.69.34.55.44.85l-1.11.33c-.05-.18-.13-.36-.25-.53-.12-.17-.27-.33-.45-.47s-.39-.25-.62-.34c-.24-.08-.5-.12-.79-.12-.55,0-1.01.15-1.38.44-.37.3-.65.68-.84,1.17-.19.48-.28,1.02-.28,1.6s.09,1.1.28,1.58c.19.48.47.87.84,1.16.37.29.83.44,1.38.44.29,0,.56-.04.81-.13.24-.08.46-.2.64-.34.18-.14.33-.31.45-.49.12-.18.21-.37.26-.55l1.1.32c-.09.31-.24.6-.44.87-.2.27-.44.5-.72.71-.28.21-.6.37-.95.48-.35.12-.74.17-1.15.17Z"/>
      <path class="cls-2" d="M92.12,40.5c-.78,0-1.45-.18-2.02-.54-.57-.36-1.01-.85-1.31-1.48-.31-.63-.46-1.36-.46-2.2s.15-1.57.45-2.21c.3-.64.73-1.14,1.27-1.5s1.18-.54,1.91-.54c.44,0,.87.08,1.29.23.42.15.8.39,1.14.72s.61.75.81,1.26c.2.51.3,1.14.3,1.86v.49h-6.39v-.98h5.77l-.54.37c0-.56-.09-1.06-.27-1.5-.18-.44-.45-.79-.8-1.04-.35-.25-.78-.38-1.29-.38s-.95.13-1.31.38c-.37.26-.65.59-.85,1.01s-.3.87-.3,1.36v.62c0,.63.11,1.16.32,1.62.21.45.52.8.92,1.04.4.24.86.36,1.39.36.35,0,.67-.05.94-.16s.51-.26.71-.46c.19-.19.34-.42.44-.68l1.11.32c-.13.38-.34.72-.63,1.02s-.66.54-1.09.72c-.43.18-.93.27-1.49.27Z"/>
      <path class="cls-2" d="M105.05,40.5c-.78,0-1.45-.18-2.02-.54-.57-.36-1.01-.85-1.31-1.48-.31-.63-.46-1.36-.46-2.2s.15-1.57.45-2.21c.3-.64.73-1.14,1.27-1.5s1.18-.54,1.91-.54c.44,0,.87.08,1.29.23.42.15.8.39,1.14.72s.61.75.81,1.26c.2.51.3,1.14.3,1.86v.49h-6.39v-.98h5.77l-.54.37c0-.56-.09-1.06-.27-1.5-.18-.44-.45-.79-.8-1.04-.35-.25-.78-.38-1.29-.38s-.95.13-1.31.38c-.37.26-.65.59-.85,1.01s-.3.87-.3,1.36v.62c0,.63.11,1.16.32,1.62.21.45.52.8.92,1.04.4.24.86.36,1.39.36.35,0,.67-.05.94-.16s.51-.26.71-.46c.19-.19.34-.42.44-.68l1.11.32c-.13.38-.34.72-.63,1.02s-.66.54-1.09.72c-.43.18-.93.27-1.49.27Z"/>
      <path class="cls-2" d="M32.24,48.71c-.22,0-.42-.08-.58-.23-.16-.15-.24-.34-.24-.55s.08-.41.24-.56.35-.23.58-.23.42.08.58.23.25.34.25.56-.08.4-.25.55c-.16.15-.36.23-.58.23ZM31.66,58.32v-8.19h1.15v8.19h-1.15Z"/>
      <path class="cls-2" d="M36.38,53.32v5h-1.15v-8.19h1.11v1.95s-.16,0-.16,0c.24-.74.59-1.26,1.07-1.58.47-.32,1.02-.47,1.64-.47.55,0,1.04.11,1.45.34.42.23.74.57.98,1.02.23.45.35,1.01.35,1.68v5.25h-1.16v-5.16c0-.65-.18-1.16-.53-1.53-.35-.37-.83-.56-1.43-.56-.41,0-.78.09-1.11.27-.33.18-.59.43-.78.77-.19.33-.29.74-.29,1.21Z"/>
      <path class="cls-2" d="M47.07,50.13v1h-4.07v-1h4.07ZM44.23,48.19h1.15v8.11c0,.39.08.67.25.85.17.18.43.26.78.25.08,0,.17-.02.29-.03.11-.02.22-.04.32-.05l.23.98c-.12.04-.25.08-.41.1-.15.02-.3.03-.45.03-.68.02-1.22-.15-1.6-.51-.38-.36-.57-.87-.57-1.52v-8.2Z"/>
      <path class="cls-2" d="M52.01,58.5c-.78,0-1.45-.18-2.02-.54-.57-.36-1.01-.85-1.31-1.48-.31-.63-.46-1.36-.46-2.2s.15-1.57.45-2.21c.3-.64.73-1.14,1.27-1.5s1.18-.54,1.91-.54c.44,0,.87.08,1.29.23.42.15.8.39,1.14.72s.61.75.81,1.26c.2.51.3,1.14.3,1.86v.49h-6.39v-.98h5.77l-.54.37c0-.56-.09-1.06-.27-1.5-.18-.44-.45-.79-.8-1.04-.35-.25-.78-.38-1.29-.38s-.95.13-1.31.38c-.37.26-.65.59-.85,1.01s-.3.87-.3,1.36v.62c0,.63.11,1.16.32,1.62.21.45.52.8.92,1.04.4.24.86.36,1.39.36.35,0,.67-.05.94-.16s.51-.26.71-.46c.19-.19.34-.42.44-.68l1.11.32c-.13.38-.34.72-.63,1.02s-.66.54-1.09.72c-.43.18-.93.27-1.49.27Z"/>
      <path class="cls-2" d="M57.35,58.32v-8.19h1.11v1.27h.08c.16-.41.44-.75.83-1s.84-.38,1.35-.38c.09,0,.19,0,.3,0,.11,0,.21.01.27.02v1.16s-.12-.02-.25-.03c-.13-.02-.28-.03-.44-.03-.41,0-.77.09-1.09.26-.32.17-.57.41-.75.71-.18.3-.27.65-.27,1.04v5.19h-1.15Z"/>
      <path class="cls-2" d="M63.06,58.32v-8.19h1.11v1.27h.08c.16-.41.44-.75.83-1s.84-.38,1.35-.38c.09,0,.19,0,.3,0,.11,0,.21.01.27.02v1.16s-.12-.02-.25-.03c-.13-.02-.28-.03-.44-.03-.41,0-.77.09-1.09.26-.32.17-.57.41-.75.71-.18.3-.27.65-.27,1.04v5.19h-1.15Z"/>
      <path class="cls-2" d="M71.59,58.5c-.73,0-1.37-.18-1.92-.54-.55-.36-.98-.85-1.29-1.49s-.46-1.37-.46-2.21.15-1.58.46-2.22c.31-.64.74-1.13,1.29-1.49.55-.35,1.19-.53,1.92-.53s1.37.18,1.92.53c.55.35.99.85,1.3,1.49.31.64.47,1.38.47,2.22s-.16,1.57-.47,2.21-.74,1.13-1.3,1.49c-.55.36-1.2.54-1.92.54ZM71.59,57.46c.56,0,1.02-.15,1.4-.44.37-.29.65-.68.84-1.17.19-.48.28-1.01.28-1.58s-.09-1.1-.28-1.59-.47-.88-.84-1.18c-.37-.29-.84-.44-1.4-.44s-1.01.15-1.38.44c-.37.3-.65.69-.84,1.17-.19.49-.28,1.02-.28,1.59s.09,1.1.28,1.58c.19.48.47.87.84,1.17s.83.44,1.38.44Z"/>
      <path class="cls-2" d="M77.27,58.32v-8.19h1.12v1.85s-.1,0-.1,0c.11-.45.29-.82.53-1.11s.53-.51.86-.66c.33-.14.67-.22,1.02-.22.6,0,1.08.18,1.46.55.38.37.62.86.73,1.47h-.17c.1-.42.28-.78.53-1.08.26-.3.57-.53.94-.7s.77-.24,1.2-.24c.48,0,.91.1,1.3.31.39.21.7.52.92.94.23.42.34.94.34,1.56v5.52h-1.16v-5.49c0-.62-.17-1.08-.51-1.36-.34-.28-.75-.43-1.23-.43-.38,0-.71.08-.99.24s-.5.38-.66.67c-.16.28-.23.62-.23,1v5.37h-1.15v-5.6c0-.51-.16-.92-.48-1.22s-.72-.46-1.22-.46c-.34,0-.66.08-.96.24-.3.16-.53.39-.71.7-.18.31-.27.68-.27,1.12v5.21h-1.15Z"/>
      <path class="cls-2" d="M90.39,61.38v-11.25h1.11v1.44h.13c.1-.2.25-.42.43-.66.18-.24.44-.45.76-.62s.74-.26,1.25-.26c.68,0,1.27.17,1.78.52.51.35.91.84,1.2,1.47.29.63.44,1.38.44,2.23s-.14,1.61-.43,2.24-.69,1.13-1.2,1.48c-.51.35-1.1.53-1.78.53-.5,0-.92-.09-1.25-.27-.33-.18-.58-.39-.77-.64-.19-.25-.33-.47-.43-.67h-.1v4.46h-1.15ZM93.92,57.46c.52,0,.96-.14,1.32-.43.36-.29.63-.67.81-1.16.18-.49.27-1.03.27-1.63s-.09-1.13-.27-1.61-.45-.86-.81-1.14c-.36-.28-.8-.42-1.33-.42s-.95.13-1.31.4c-.35.27-.62.64-.81,1.12-.18.48-.27,1.03-.27,1.65s.09,1.19.27,1.67c.18.49.45.87.81,1.14.36.27.79.41,1.3.41Z"/>
      <path class="cls-2" d="M102.87,58.5c-.78,0-1.45-.18-2.02-.54-.57-.36-1.01-.85-1.31-1.48-.31-.63-.46-1.36-.46-2.2s.15-1.57.45-2.21c.3-.64.73-1.14,1.27-1.5s1.18-.54,1.91-.54c.44,0,.87.08,1.29.23.42.15.8.39,1.14.72s.61.75.81,1.26c.2.51.3,1.14.3,1.86v.49h-6.39v-.98h5.77l-.54.37c0-.56-.09-1.06-.27-1.5-.18-.44-.45-.79-.8-1.04-.35-.25-.78-.38-1.29-.38s-.95.13-1.31.38c-.37.26-.65.59-.85,1.01s-.3.87-.3,1.36v.62c0,.63.11,1.16.32,1.62.21.45.52.8.92,1.04.4.24.86.36,1.39.36.35,0,.67-.05.94-.16s.51-.26.71-.46c.19-.19.34-.42.44-.68l1.11.32c-.13.38-.34.72-.63,1.02s-.66.54-1.09.72c-.43.18-.93.27-1.49.27Z"/>
      <path class="cls-2" d="M109.14,58.41c-.24,0-.45-.09-.63-.26s-.26-.38-.26-.63.09-.45.26-.63.38-.26.63-.26.45.09.63.26c.17.17.26.38.26.63s-.09.45-.26.63c-.17.17-.38.26-.63.26Z"/>
      <path class="cls-2" d="M28.81,65.41v10.91h-1.22v-10.91h1.22Z"/>
      <path class="cls-2" d="M32.55,71.32v5h-1.15v-8.19h1.11v1.95s-.16,0-.16,0c.24-.74.59-1.26,1.07-1.58.47-.32,1.02-.47,1.64-.47.55,0,1.04.11,1.45.34.42.23.74.57.98,1.02.23.45.35,1.01.35,1.68v5.25h-1.16v-5.16c0-.65-.18-1.16-.53-1.53-.35-.37-.83-.56-1.43-.56-.41,0-.78.09-1.11.27-.33.18-.59.43-.78.77-.19.33-.29.74-.29,1.21Z"/>
      <path class="cls-2" d="M42.94,76.5c-.55,0-1.03-.08-1.46-.25-.42-.16-.78-.41-1.05-.73-.28-.32-.46-.71-.56-1.17l1.1-.26c.12.47.34.82.68,1.04.34.23.76.34,1.28.34.59,0,1.06-.13,1.42-.4s.53-.58.53-.95c0-.31-.1-.56-.31-.77s-.52-.36-.95-.46l-1.35-.32c-.72-.17-1.26-.44-1.62-.81-.36-.37-.53-.83-.53-1.4,0-.46.13-.87.38-1.22.26-.35.6-.63,1.05-.83.44-.2.95-.3,1.52-.3.54,0,1,.08,1.38.24.38.16.69.39.94.68s.43.63.56,1.03l-1.05.27c-.12-.33-.32-.62-.6-.86s-.68-.37-1.22-.37-.94.12-1.28.36c-.34.24-.51.55-.51.93,0,.32.11.58.34.79.23.2.59.36,1.08.48l1.25.3c.72.17,1.25.44,1.6.8.35.36.53.82.53,1.38,0,.47-.13.89-.4,1.26-.27.37-.63.66-1.11.87-.47.21-1.02.31-1.64.31Z"/>
      <path class="cls-2" d="M51.45,76.5c-.78,0-1.45-.18-2.02-.54-.57-.36-1.01-.85-1.31-1.48-.31-.63-.46-1.36-.46-2.2s.15-1.57.45-2.21c.3-.64.73-1.14,1.27-1.5s1.18-.54,1.91-.54c.44,0,.87.08,1.29.23.42.15.8.39,1.14.72s.61.75.81,1.26c.2.51.3,1.14.3,1.86v.49h-6.39v-.98h5.77l-.54.37c0-.56-.09-1.06-.27-1.5-.18-.44-.45-.79-.8-1.04-.35-.25-.78-.38-1.29-.38s-.95.13-1.31.38c-.37.26-.65.59-.85,1.01s-.3.87-.3,1.36v.62c0,.63.11,1.16.32,1.62.21.45.52.8.92,1.04.4.24.86.36,1.39.36.35,0,.67-.05.94-.16s.51-.26.71-.46c.19-.19.34-.42.44-.68l1.11.32c-.13.38-.34.72-.63,1.02s-.66.54-1.09.72c-.43.18-.93.27-1.49.27Z"/>
      <path class="cls-2" d="M56.79,76.32v-8.19h1.11v1.27h.08c.16-.41.44-.75.83-1s.84-.38,1.35-.38c.09,0,.19,0,.3,0,.11,0,.21.01.27.02v1.16s-.12-.02-.25-.03c-.13-.02-.28-.03-.44-.03-.41,0-.77.09-1.09.26-.32.17-.57.41-.75.71-.18.3-.27.65-.27,1.04v5.19h-1.15Z"/>
      <path class="cls-2" d="M63.01,66.71c-.22,0-.42-.08-.58-.23-.16-.15-.24-.34-.24-.55s.08-.41.24-.56.35-.23.58-.23.42.08.58.23.25.34.25.56-.08.4-.25.55c-.16.15-.36.23-.58.23ZM62.43,76.32v-8.19h1.15v8.19h-1.15Z"/>
      <path class="cls-2" d="M68.69,76.5c-.55,0-1.03-.08-1.46-.25-.42-.16-.78-.41-1.05-.73-.28-.32-.46-.71-.56-1.17l1.1-.26c.12.47.34.82.68,1.04.34.23.76.34,1.28.34.59,0,1.06-.13,1.42-.4s.53-.58.53-.95c0-.31-.1-.56-.31-.77s-.52-.36-.95-.46l-1.35-.32c-.72-.17-1.26-.44-1.62-.81-.36-.37-.53-.83-.53-1.4,0-.46.13-.87.38-1.22.26-.35.6-.63,1.05-.83.44-.2.95-.3,1.52-.3.54,0,1,.08,1.38.24.38.16.69.39.94.68s.43.63.56,1.03l-1.05.27c-.12-.33-.32-.62-.6-.86s-.68-.37-1.22-.37-.94.12-1.28.36c-.34.24-.51.55-.51.93,0,.32.11.58.34.79.23.2.59.36,1.08.48l1.25.3c.72.17,1.25.44,1.6.8.35.36.53.82.53,1.38,0,.47-.13.89-.4,1.26-.27.37-.63.66-1.11.87-.47.21-1.02.31-1.64.31Z"/>
      <path class="cls-2" d="M77.09,76.49c-.73,0-1.37-.18-1.92-.53-.55-.35-.98-.85-1.29-1.48s-.46-1.37-.46-2.21.15-1.58.46-2.22c.31-.64.74-1.13,1.29-1.49.55-.35,1.19-.53,1.92-.53.41,0,.78.06,1.13.17.35.11.66.27.94.46s.52.42.71.69.34.55.44.85l-1.11.33c-.05-.18-.13-.36-.25-.53-.12-.17-.27-.33-.45-.47s-.39-.25-.62-.34c-.24-.08-.5-.12-.79-.12-.55,0-1.01.15-1.38.44-.37.3-.65.68-.84,1.17-.19.48-.28,1.02-.28,1.6s.09,1.1.28,1.58c.19.48.47.87.84,1.16.37.29.83.44,1.38.44.29,0,.56-.04.81-.13.24-.08.46-.2.64-.34.18-.14.33-.31.45-.49.12-.18.21-.37.26-.55l1.1.32c-.09.31-.24.6-.44.87-.2.27-.44.5-.72.71-.28.21-.6.37-.95.48-.35.12-.74.17-1.15.17Z"/>
      <path class="cls-2" d="M82.88,66.71c-.22,0-.42-.08-.58-.23-.16-.15-.24-.34-.24-.55s.08-.41.24-.56.35-.23.58-.23.42.08.58.23.25.34.25.56-.08.4-.25.55c-.16.15-.36.23-.58.23ZM82.3,76.32v-8.19h1.15v8.19h-1.15Z"/>
      <path class="cls-2" d="M92.88,76.43c-.56,0-1.04-.11-1.46-.34-.42-.23-.74-.57-.98-1.02s-.35-1.01-.35-1.68v-5.25h1.15v5.16c0,.65.18,1.16.53,1.53.36.37.83.56,1.43.56.42,0,.78-.09,1.11-.27.32-.18.58-.44.77-.77.19-.34.28-.74.28-1.21v-5h1.16v8.19h-1.12v-1.95h.16c-.24.74-.6,1.27-1.07,1.58-.48.31-1.01.47-1.62.47Z"/>
      <path class="cls-2" d="M100.09,71.32v5h-1.15v-8.19h1.11v1.95s-.16,0-.16,0c.24-.74.59-1.26,1.07-1.58.47-.32,1.02-.47,1.64-.47.55,0,1.04.11,1.45.34.42.23.74.57.98,1.02.23.45.35,1.01.35,1.68v5.25h-1.16v-5.16c0-.65-.18-1.16-.53-1.53-.35-.37-.83-.56-1.43-.56-.41,0-.78.09-1.11.27-.33.18-.59.43-.78.77-.19.33-.29.74-.29,1.21Z"/>
      <path class="cls-2" d="M111.04,76.5c-.73,0-1.37-.18-1.92-.54-.55-.36-.98-.85-1.29-1.49s-.46-1.37-.46-2.21.15-1.58.46-2.22c.31-.64.74-1.13,1.29-1.49.55-.35,1.19-.53,1.92-.53s1.37.18,1.92.53c.55.35.99.85,1.3,1.49.31.64.47,1.38.47,2.22s-.16,1.57-.47,2.21-.74,1.13-1.3,1.49c-.55.36-1.2.54-1.92.54ZM111.04,75.46c.56,0,1.02-.15,1.4-.44.37-.29.65-.68.84-1.17.19-.48.28-1.01.28-1.58s-.09-1.1-.28-1.59-.47-.88-.84-1.18c-.37-.29-.84-.44-1.4-.44s-1.01.15-1.38.44c-.37.3-.65.69-.84,1.17-.19.49-.28,1.02-.28,1.59s.09,1.1.28,1.58c.19.48.47.87.84,1.17s.83.44,1.38.44Z"/>
      <path class="cls-2" d="M34.31,94.5c-.55,0-1.03-.08-1.46-.25-.42-.16-.78-.41-1.05-.73-.28-.32-.46-.71-.56-1.17l1.1-.26c.12.47.34.82.68,1.04.34.23.76.34,1.28.34.59,0,1.06-.13,1.42-.4s.53-.58.53-.95c0-.31-.1-.56-.31-.77s-.52-.36-.95-.46l-1.35-.32c-.72-.17-1.26-.44-1.62-.81-.36-.37-.53-.83-.53-1.4,0-.46.13-.87.38-1.22.26-.35.6-.63,1.05-.83.44-.2.95-.3,1.52-.3.54,0,1,.08,1.38.24.38.16.69.39.94.68s.43.63.56,1.03l-1.05.27c-.12-.33-.32-.62-.6-.86s-.68-.37-1.22-.37-.94.12-1.28.36c-.34.24-.51.55-.51.93,0,.32.11.58.34.79.23.2.59.36,1.08.48l1.25.3c.72.17,1.25.44,1.6.8.35.36.53.82.53,1.38,0,.47-.13.89-.4,1.26-.27.37-.63.66-1.11.87-.47.21-1.02.31-1.64.31Z"/>
      <path class="cls-2" d="M42.44,86.13v1h-4.07v-1h4.07ZM39.6,84.19h1.15v8.11c0,.39.08.67.25.85.17.18.43.26.78.25.08,0,.17-.02.29-.03.11-.02.22-.04.32-.05l.23.98c-.12.04-.25.08-.41.1-.15.02-.3.03-.45.03-.68.02-1.22-.15-1.6-.51-.38-.36-.57-.87-.57-1.52v-8.2Z"/>
      <path class="cls-2" d="M44.72,84.71c-.22,0-.42-.08-.58-.23-.16-.15-.24-.34-.24-.55s.08-.41.24-.56.35-.23.58-.23.42.08.58.23.25.34.25.56-.08.4-.25.55c-.16.15-.36.23-.58.23ZM44.14,94.32v-8.19h1.15v8.19h-1.15Z"/>
      <path class="cls-2" d="M47.7,94.32v-8.19h1.12v1.85s-.1,0-.1,0c.11-.45.29-.82.53-1.11s.53-.51.86-.66c.33-.14.67-.22,1.02-.22.6,0,1.08.18,1.46.55.38.37.62.86.73,1.47h-.17c.1-.42.28-.78.53-1.08.26-.3.57-.53.94-.7s.77-.24,1.2-.24c.48,0,.91.1,1.3.31.39.21.7.52.92.94.23.42.34.94.34,1.56v5.52h-1.16v-5.49c0-.62-.17-1.08-.51-1.36-.34-.28-.75-.43-1.23-.43-.38,0-.71.08-.99.24s-.5.38-.66.67c-.16.28-.23.62-.23,1v5.37h-1.15v-5.6c0-.51-.16-.92-.48-1.22s-.72-.46-1.22-.46c-.34,0-.66.08-.96.24-.3.16-.53.39-.71.7-.18.31-.27.68-.27,1.12v5.21h-1.15Z"/>
      <path class="cls-2" d="M64.08,94.5c-.73,0-1.37-.18-1.92-.54-.55-.36-.98-.85-1.29-1.49s-.46-1.37-.46-2.21.15-1.58.46-2.22c.31-.64.74-1.13,1.29-1.49.55-.35,1.19-.53,1.92-.53s1.37.18,1.92.53c.55.35.99.85,1.3,1.49.31.64.47,1.38.47,2.22s-.16,1.57-.47,2.21-.74,1.13-1.3,1.49c-.55.36-1.2.54-1.92.54ZM64.08,93.46c.56,0,1.02-.15,1.4-.44.37-.29.65-.68.84-1.17.19-.48.28-1.01.28-1.58s-.09-1.1-.28-1.59-.47-.88-.84-1.18c-.37-.29-.84-.44-1.4-.44s-1.01.15-1.38.44c-.37.3-.65.69-.84,1.17-.19.49-.28,1.02-.28,1.59s.09,1.1.28,1.58c.19.48.47.87.84,1.17s.83.44,1.38.44Z"/>
      <path class="cls-2" d="M70.91,83.41v10.91h-1.15v-10.91h1.15Z"/>
      <path class="cls-2" d="M76.59,94.5c-.73,0-1.37-.18-1.92-.54-.55-.36-.98-.85-1.29-1.49s-.46-1.37-.46-2.21.15-1.58.46-2.22c.31-.64.74-1.13,1.29-1.49.55-.35,1.19-.53,1.92-.53s1.37.18,1.92.53c.55.35.99.85,1.3,1.49.31.64.47,1.38.47,2.22s-.16,1.57-.47,2.21-.74,1.13-1.3,1.49c-.55.36-1.2.54-1.92.54ZM76.59,93.46c.56,0,1.02-.15,1.4-.44.37-.29.65-.68.84-1.17.19-.48.28-1.01.28-1.58s-.09-1.1-.28-1.59-.47-.88-.84-1.18c-.37-.29-.84-.44-1.4-.44s-1.01.15-1.38.44c-.37.3-.65.69-.84,1.17-.19.49-.28,1.02-.28,1.59s.09,1.1.28,1.58c.19.48.47.87.84,1.17s.83.44,1.38.44Z"/>
      <path class="cls-2" d="M89.75,94.49c-.73,0-1.37-.18-1.92-.53-.55-.35-.98-.85-1.29-1.48s-.46-1.37-.46-2.21.15-1.58.46-2.22c.31-.64.74-1.13,1.29-1.49.55-.35,1.19-.53,1.92-.53.41,0,.78.06,1.13.17.35.11.66.27.94.46s.52.42.71.69.34.55.44.85l-1.11.33c-.05-.18-.13-.36-.25-.53-.12-.17-.27-.33-.45-.47s-.39-.25-.62-.34c-.24-.08-.5-.12-.79-.12-.55,0-1.01.15-1.38.44-.37.3-.65.68-.84,1.17-.19.48-.28,1.02-.28,1.6s.09,1.1.28,1.58c.19.48.47.87.84,1.16.37.29.83.44,1.38.44.29,0,.56-.04.81-.13.24-.08.46-.2.64-.34.18-.14.33-.31.45-.49.12-.18.21-.37.26-.55l1.1.32c-.09.31-.24.6-.44.87-.2.27-.44.5-.72.71-.28.21-.6.37-.95.48-.35.12-.74.17-1.15.17Z"/>
      <path class="cls-2" d="M96.12,89.32v5h-1.15v-10.91h1.15v4.67h-.21c.24-.74.59-1.26,1.07-1.58.47-.32,1.02-.47,1.64-.47.55,0,1.04.11,1.46.34.42.23.75.57.98,1.02.23.45.35,1.01.35,1.68v5.25h-1.16v-5.16c0-.65-.18-1.16-.53-1.53-.35-.37-.83-.56-1.43-.56-.41,0-.78.09-1.11.27-.33.18-.59.43-.78.77-.19.33-.29.74-.29,1.21Z"/>
      <path class="cls-2" d="M107.19,94.5c-.78,0-1.45-.18-2.02-.54-.57-.36-1.01-.85-1.31-1.48-.31-.63-.46-1.36-.46-2.2s.15-1.57.45-2.21c.3-.64.73-1.14,1.27-1.5s1.18-.54,1.91-.54c.44,0,.87.08,1.29.23.42.15.8.39,1.14.72s.61.75.81,1.26c.2.51.3,1.14.3,1.86v.49h-6.39v-.98h5.77l-.54.37c0-.56-.09-1.06-.27-1.5-.18-.44-.45-.79-.8-1.04-.35-.25-.78-.38-1.29-.38s-.95.13-1.31.38c-.37.26-.65.59-.85,1.01s-.3.87-.3,1.36v.62c0,.63.11,1.16.32,1.62.21.45.52.8.92,1.04.4.24.86.36,1.39.36.35,0,.67-.05.94-.16s.51-.26.71-.46c.19-.19.34-.42.44-.68l1.11.32c-.13.38-.34.72-.63,1.02s-.66.54-1.09.72c-.43.18-.93.27-1.49.27Z"/>
      <path class="cls-2" d="M44.52,112.32v-8.19h1.11v1.27h.08c.16-.41.44-.75.83-1s.84-.38,1.35-.38c.09,0,.19,0,.3,0,.11,0,.21.01.27.02v1.16s-.12-.02-.25-.03c-.13-.02-.28-.03-.44-.03-.41,0-.77.09-1.09.26-.32.17-.57.41-.75.71-.18.3-.27.65-.27,1.04v5.19h-1.15Z"/>
      <path class="cls-2" d="M50.74,102.71c-.22,0-.42-.08-.58-.23-.16-.15-.24-.34-.24-.55s.08-.41.24-.56.35-.23.58-.23.42.08.58.23.25.34.25.56-.08.4-.25.55c-.16.15-.36.23-.58.23ZM50.16,112.32v-8.19h1.15v8.19h-1.15Z"/>
      <path class="cls-2" d="M56.98,112.49c-.73,0-1.37-.18-1.92-.53-.55-.35-.98-.85-1.29-1.48s-.46-1.37-.46-2.21.15-1.58.46-2.22c.31-.64.74-1.13,1.29-1.49.55-.35,1.19-.53,1.92-.53.41,0,.78.06,1.13.17.35.11.66.27.94.46s.52.42.71.69.34.55.44.85l-1.11.33c-.05-.18-.13-.36-.25-.53-.12-.17-.27-.33-.45-.47s-.39-.25-.62-.34c-.24-.08-.5-.12-.79-.12-.55,0-1.01.15-1.38.44-.37.3-.65.68-.84,1.17-.19.48-.28,1.02-.28,1.6s.09,1.1.28,1.58c.19.48.47.87.84,1.16.37.29.83.44,1.38.44.29,0,.56-.04.81-.13.24-.08.46-.2.64-.34.18-.14.33-.31.45-.49.12-.18.21-.37.26-.55l1.1.32c-.09.31-.24.6-.44.87-.2.27-.44.5-.72.71-.28.21-.6.37-.95.48-.35.12-.74.17-1.15.17Z"/>
      <path class="cls-2" d="M63.35,107.32v5h-1.15v-10.91h1.15v4.67h-.21c.24-.74.59-1.26,1.07-1.58.47-.32,1.02-.47,1.64-.47.55,0,1.04.11,1.46.34.42.23.75.57.98,1.02.23.45.35,1.01.35,1.68v5.25h-1.16v-5.16c0-.65-.18-1.16-.53-1.53-.35-.37-.83-.56-1.43-.56-.41,0-.78.09-1.11.27-.33.18-.59.43-.78.77-.19.33-.29.74-.29,1.21Z"/>
      <path class="cls-2" d="M71.62,102.71c-.22,0-.42-.08-.58-.23-.16-.15-.24-.34-.24-.55s.08-.41.24-.56.35-.23.58-.23.42.08.58.23.25.34.25.56-.08.4-.25.55c-.16.15-.36.23-.58.23ZM71.05,112.32v-8.19h1.15v8.19h-1.15Z"/>
      <path class="cls-2" d="M76.83,112.51c-.51,0-.97-.1-1.38-.29s-.75-.48-.99-.85-.37-.82-.37-1.35c0-.44.09-.8.26-1.08s.4-.51.7-.69c.3-.17.63-.31,1.01-.4.38-.1.78-.17,1.2-.22.47-.06.86-.11,1.17-.15.31-.04.55-.1.71-.19.16-.09.24-.23.24-.44v-.12c0-.36-.07-.66-.21-.91-.14-.25-.34-.44-.61-.58-.27-.13-.6-.2-1-.2s-.73.06-1.01.18c-.29.12-.52.28-.7.46-.18.19-.32.39-.41.6l-1.11-.37c.2-.47.47-.85.81-1.12s.72-.47,1.14-.59c.42-.12.84-.18,1.26-.18.3,0,.62.04.97.11.35.08.67.21.98.41.31.2.56.48.76.85.2.37.3.85.3,1.44v5.48h-1.14v-1.2h-.08c-.11.22-.27.44-.48.65-.21.21-.49.39-.82.53-.33.14-.73.21-1.18.21ZM77.02,111.49c.49,0,.91-.1,1.26-.31.35-.21.62-.48.81-.82.19-.34.28-.7.28-1.08v-1.16c-.06.07-.17.13-.35.18-.17.05-.37.1-.59.14-.22.04-.44.08-.66.1-.22.03-.4.05-.54.06-.39.05-.74.13-1.04.23-.3.11-.53.26-.7.46-.17.2-.25.46-.25.77s.08.57.23.78c.15.21.36.37.63.48.27.11.57.17.91.17Z"/>
      <path class="cls-2" d="M82.95,112.32v-8.19h1.12v1.85s-.1,0-.1,0c.11-.45.29-.82.53-1.11s.53-.51.86-.66c.33-.14.67-.22,1.02-.22.6,0,1.08.18,1.46.55.38.37.62.86.73,1.47h-.17c.1-.42.28-.78.53-1.08.26-.3.57-.53.94-.7s.77-.24,1.2-.24c.48,0,.91.1,1.3.31.39.21.7.52.92.94.23.42.34.94.34,1.56v5.52h-1.16v-5.49c0-.62-.17-1.08-.51-1.36-.34-.28-.75-.43-1.23-.43-.38,0-.71.08-.99.24s-.5.38-.66.67c-.16.28-.23.62-.23,1v5.37h-1.15v-5.6c0-.51-.16-.92-.48-1.22s-.72-.46-1.22-.46c-.34,0-.66.08-.96.24-.3.16-.53.39-.71.7-.18.31-.27.68-.27,1.12v5.21h-1.15Z"/>
      <path class="cls-2" d="M96.64,102.71c-.22,0-.42-.08-.58-.23-.16-.15-.24-.34-.24-.55s.08-.41.24-.56.35-.23.58-.23.42.08.58.23.25.34.25.56-.08.4-.25.55c-.16.15-.36.23-.58.23ZM96.07,112.32v-8.19h1.15v8.19h-1.15Z"/>
      <path class="cls-2" d="M31.13,119.41v10.91h-1.15v-10.91h1.15Z"/>
      <path class="cls-2" d="M33.53,123.42l.66-4.01h1.32l-1.08,4.01h-.89Z"/>
      <path class="cls-2" d="M38.69,130.51c-.51,0-.97-.1-1.38-.29s-.75-.48-.99-.85-.37-.82-.37-1.35c0-.44.09-.8.26-1.08s.4-.51.7-.69c.3-.17.63-.31,1.01-.4.38-.1.78-.17,1.2-.22.47-.06.86-.11,1.17-.15.31-.04.55-.1.71-.19.16-.09.24-.23.24-.44v-.12c0-.36-.07-.66-.21-.91-.14-.25-.34-.44-.61-.58-.27-.13-.6-.2-1-.2s-.73.06-1.01.18c-.29.12-.52.28-.7.46-.18.19-.32.39-.41.6l-1.11-.37c.2-.47.47-.85.81-1.12s.72-.47,1.14-.59c.42-.12.84-.18,1.26-.18.3,0,.62.04.97.11.35.08.67.21.98.41.31.2.56.48.76.85.2.37.3.85.3,1.44v5.48h-1.14v-1.2h-.08c-.11.22-.27.44-.48.65-.21.21-.49.39-.82.53-.33.14-.73.21-1.18.21ZM38.88,129.49c.49,0,.91-.1,1.26-.31.35-.21.62-.48.81-.82.19-.34.28-.7.28-1.08v-1.16c-.06.07-.17.13-.35.18-.17.05-.37.1-.59.14-.22.04-.44.08-.66.1-.22.03-.4.05-.54.06-.39.05-.74.13-1.04.23-.3.11-.53.26-.7.46-.17.2-.25.46-.25.77s.08.57.23.78c.15.21.36.37.63.48.27.11.57.17.91.17Z"/>
      <path class="cls-2" d="M47.8,122.13v1h-4.07v-1h4.07ZM44.96,120.19h1.15v8.11c0,.39.08.67.25.85.17.18.43.26.78.25.08,0,.17-.02.29-.03.11-.02.22-.04.32-.05l.23.98c-.12.04-.25.08-.41.1-.15.02-.3.03-.45.03-.68.02-1.22-.15-1.6-.51-.38-.36-.57-.87-.57-1.52v-8.2Z"/>
      <path class="cls-2" d="M52.49,122.13v1h-4.07v-1h4.07ZM49.64,120.19h1.15v8.11c0,.39.08.67.25.85.17.18.43.26.78.25.08,0,.17-.02.29-.03.11-.02.22-.04.32-.05l.23.98c-.12.04-.25.08-.41.1-.15.02-.3.03-.45.03-.68.02-1.22-.15-1.6-.51-.38-.36-.57-.87-.57-1.52v-8.2Z"/>
      <path class="cls-2" d="M57.42,130.5c-.78,0-1.45-.18-2.02-.54-.57-.36-1.01-.85-1.31-1.48-.31-.63-.46-1.36-.46-2.2s.15-1.57.45-2.21c.3-.64.73-1.14,1.27-1.5s1.18-.54,1.91-.54c.44,0,.87.08,1.29.23.42.15.8.39,1.14.72s.61.75.81,1.26c.2.51.3,1.14.3,1.86v.49h-6.39v-.98h5.77l-.54.37c0-.56-.09-1.06-.27-1.5-.18-.44-.45-.79-.8-1.04-.35-.25-.78-.38-1.29-.38s-.95.13-1.31.38c-.37.26-.65.59-.85,1.01s-.3.87-.3,1.36v.62c0,.63.11,1.16.32,1.62.21.45.52.8.92,1.04.4.24.86.36,1.39.36.35,0,.67-.05.94-.16s.51-.26.71-.46c.19-.19.34-.42.44-.68l1.11.32c-.13.38-.34.72-.63,1.02s-.66.54-1.09.72c-.43.18-.93.27-1.49.27Z"/>
      <path class="cls-2" d="M63.91,125.32v5h-1.15v-8.19h1.11v1.95s-.16,0-.16,0c.24-.74.59-1.26,1.07-1.58.47-.32,1.02-.47,1.64-.47.55,0,1.04.11,1.45.34.42.23.74.57.98,1.02.23.45.35,1.01.35,1.68v5.25h-1.16v-5.16c0-.65-.18-1.16-.53-1.53-.35-.37-.83-.56-1.43-.56-.41,0-.78.09-1.11.27-.33.18-.59.43-.78.77-.19.33-.29.74-.29,1.21Z"/>
      <path class="cls-2" d="M71.36,130.32v-.87l4.64-6.17v-.07h-4.47v-1.08h5.95v.93l-4.53,6.11v.07h4.69v1.08h-6.29Z"/>
      <path class="cls-2" d="M80.4,120.71c-.22,0-.42-.08-.58-.23-.16-.15-.24-.34-.24-.55s.08-.41.24-.56.35-.23.58-.23.42.08.58.23.25.34.25.56-.08.4-.25.55c-.16.15-.36.23-.58.23ZM79.82,130.32v-8.19h1.15v8.19h-1.15Z"/>
      <path class="cls-2" d="M86.65,130.5c-.73,0-1.37-.18-1.92-.54-.55-.36-.98-.85-1.29-1.49s-.46-1.37-.46-2.21.15-1.58.46-2.22c.31-.64.74-1.13,1.29-1.49.55-.35,1.19-.53,1.92-.53s1.37.18,1.92.53c.55.35.99.85,1.3,1.49.31.64.47,1.38.47,2.22s-.16,1.57-.47,2.21-.74,1.13-1.3,1.49c-.55.36-1.2.54-1.92.54ZM86.65,129.46c.56,0,1.02-.15,1.4-.44.37-.29.65-.68.84-1.17.19-.48.28-1.01.28-1.58s-.09-1.1-.28-1.59-.47-.88-.84-1.18c-.37-.29-.84-.44-1.4-.44s-1.01.15-1.38.44c-.37.3-.65.69-.84,1.17-.19.49-.28,1.02-.28,1.59s.09,1.1.28,1.58c.19.48.47.87.84,1.17s.83.44,1.38.44Z"/>
      <path class="cls-2" d="M93.48,125.32v5h-1.15v-8.19h1.11v1.95s-.16,0-.16,0c.24-.74.59-1.26,1.07-1.58.47-.32,1.02-.47,1.64-.47.55,0,1.04.11,1.45.34.42.23.74.57.98,1.02.23.45.35,1.01.35,1.68v5.25h-1.16v-5.16c0-.65-.18-1.16-.53-1.53-.35-.37-.83-.56-1.43-.56-.41,0-.78.09-1.11.27-.33.18-.59.43-.78.77-.19.33-.29.74-.29,1.21Z"/>
      <path class="cls-2" d="M104.55,130.5c-.78,0-1.45-.18-2.02-.54-.57-.36-1.01-.85-1.31-1.48-.31-.63-.46-1.36-.46-2.2s.15-1.57.45-2.21c.3-.64.73-1.14,1.27-1.5s1.18-.54,1.91-.54c.44,0,.87.08,1.29.23.42.15.8.39,1.14.72s.61.75.81,1.26c.2.51.3,1.14.3,1.86v.49h-6.39v-.98h5.77l-.54.37c0-.56-.09-1.06-.27-1.5-.18-.44-.45-.79-.8-1.04-.35-.25-.78-.38-1.29-.38s-.95.13-1.31.38c-.37.26-.65.59-.85,1.01s-.3.87-.3,1.36v.62c0,.63.11,1.16.32,1.62.21.45.52.8.92,1.04.4.24.86.36,1.39.36.35,0,.67-.05.94-.16s.51-.26.71-.46c.19-.19.34-.42.44-.68l1.11.32c-.13.38-.34.72-.63,1.02s-.66.54-1.09.72c-.43.18-.93.27-1.49.27Z"/>
      <path class="cls-2" d="M110.82,130.41c-.24,0-.45-.09-.63-.26s-.26-.38-.26-.63.09-.45.26-.63.38-.26.63-.26.45.09.63.26c.17.17.26.38.26.63s-.09.45-.26.63c-.17.17-.38.26-.63.26Z"/>
    </g>
  </g>
</svg>