<?xml version="1.0" encoding="UTF-8"?>
<svg xmlns="http://www.w3.org/2000/svg" viewBox="0 0 141.73 141.73">
  <defs>
    <style>
      .cls-1 {
        fill: #f1f2f2;
      }

      .cls-2 {
        fill: none;
      }

      .cls-3 {
        stroke: #a1b860;
        stroke-miterlimit: 10;
        stroke-width: .5px;
      }

      .cls-3, .cls-4 {
        fill: #a1b860;
      }

      .cls-5 {
        fill: #85a73e;
      }

      .cls-6 {
        fill: #c9705a;
      }

      .cls-7 {
        fill: #fcb44a;
      }
    </style>
  </defs>
  <g id="Bottom_BGS" data-name="Bottom BGS">
    <path class="cls-3" d="M21.97,50.33c1.51-12.97,10.85-26.09,21.69-32.42.69-.4,1.38-.78,2.08-1.12,2.31-1.14,4.75-1.91,7.25-2.4.12-.02.24-.04.36-.06.24-.04.49-.09.74-.12,3.82-.62,7.79-.61,11.74-.29h0c.64.05,1.29.11,1.93.18,1.76.18,3.5.41,5.23.66.85.12,1.7.25,2.55.39.18.03.36.06.54.09.26.04.53.09.79.13h.01c.31.05.62.11.93.16,0,0,0,0,.01,0h0c.72.12,1.44.25,2.15.39,2.63.5,5.24,1.09,7.82,1.8.48.13.95.26,1.42.4,2.01.59,3.99,1.26,5.91,2.03.91.36,1.82.74,2.71,1.15.76.35,1.51.71,2.25,1.09.67.34,1.33.7,1.98,1.08,2.51,1.44,4.89,3.11,7.08,5.06,5.79,5.14,10.05,12.95,10.7,20.88,7.3.1,14.59.39,21.86.96V0H0v56.31c7.25-.34,14.51-.8,21.77-1.32-.05-1.54.01-3.1.19-4.65Z"/>
  </g>
  <g id="Elements">
    <g>
      <path class="cls-5" d="M42.78,54.09c-7.22-.01-14.45-.15-21.67,0-4.08.09-6.11-2.69-5.93-5.92.18-3.29.03-6.6.04-9.91.02-5.8,3.65-10.08,9.4-10.9,1.08-.15,1.29-.5,1.28-1.5-.03-5.61,3.35-9.86,8.66-10.93.88-.18,1.81-.21,2.71-.17.91.04,1.27-.15,1.28-1.19.07-5.17,3.68-9.48,8.79-10.32,8.72-1.43,13.56,4.72,13.46,10.59-.02.98.5.94,1.15.91,3.65-.18,6.72,1.04,9.08,3.88,1.8,2.16,2.54,4.69,2.41,7.47-.04.82.17,1.08,1.03,1.2,5.97.83,9.63,5.07,9.64,11.09,0,3.43,0,6.85,0,10.28,0,3.37-2,5.36-5.4,5.37-6.89,0-13.79,0-20.68,0-.49,0-.99.03-1.48.04-4.59-.14-9.17-.14-13.76,0ZM77.92,38.66c.09-.94-.02-2-.59-2.96-1.15-1.95-4.54-3.04-6.67-2.14-.85.36-1.33.98-1.14,1.94.17.89.76,1.34,1.66,1.35.66.01,1.32.01,1.98,0,.86-.01,1.31.39,1.3,1.27,0,.62-.04,1.24.01,1.85.08,1.04.66,1.69,1.7,1.8.85.09,1.65-.75,1.75-1.75.04-.41,0-.82,0-1.38Z"/>
      <path class="cls-5" d="M106.87,89.9c2.16.02,4.32.03,6.48.05,2.32.02,3.65,1.33,3.65,3.63,0,1.25-.03,2.5.01,3.75.02.58-.18.8-.75.73-.2-.02-.4,0-.61,0-32.75,0-65.5,0-98.24,0-1.54,0-1.3.2-1.32-1.35-.01-1.01,0-2.03,0-3.04,0-2.41,1.28-3.7,3.67-3.71,4.12-.01,8.24-.02,12.36-.03,8.09,0,16.19,0,24.28,0,7.71,0,15.41-.01,23.12-.02.95,0,1.89,0,2.84,0,4.17.02,8.34.04,12.51.05,3.06,0,6.12-.03,9.18-.05.95,0,1.89,0,2.84,0Z"/>
      <path class="cls-6" d="M64.52,89.92c-9.9,0-19.8,0-29.7,0,2.67-3.64,4.93-7.5,6.27-11.85,1.02-3.33,1.65-6.73,1.66-10.22.02-4.58.02-9.17.03-13.75,4.59-.14,9.18-.14,13.76,0,0,4.38.01,8.76.03,13.13.03,8.11,2.54,15.39,7.41,21.87.2.26.36.55.53.82Z"/>
      <path class="cls-6" d="M79.52,83.2c-.07-.01-.13-.03-.2-.04q-2.03-.08-2.03-2.08c0-1.52.04-3.04-.02-4.55-.02-.68.21-.84.86-.83,2.29.03,4.59,0,6.88-.01.95,0,1.91,0,2.86,0,3.55,0,7.1,0,10.65,0,.95,0,1.91,0,2.86,0,2.29,0,4.59.04,6.88,0,.64,0,.87.14.86.83-.05,1.92-.05,3.85,0,5.77.02.75-.26.93-.93.87-.43-.04-.87.02-1.31.04-.95-.25-1.9-.24-2.85,0-2.36-.01-4.72-.04-7.09-.04-4.86,0-9.72.03-14.58.04-.95-.24-1.9-.24-2.85,0Z"/>
      <path class="cls-6" d="M85,69.51c-.83-.11-1.95.34-2.43-.18-.56-.61-.16-1.73-.18-2.63-.03-1.28.01-2.56-.02-3.84-.01-.55.13-.77.73-.77,6.74.02,13.48.02,20.22,0,.59,0,.74.21.73.76-.03,1.95-.04,3.91,0,5.86.01.65-.23.81-.82.77-.6-.04-1.21,0-1.82.02-.96-.08-1.93-.09-2.89,0-3.54,0-7.08,0-10.62,0-.96-.09-1.93-.09-2.89,0Z"/>
      <path class="cls-7" d="M79.52,83.2c.95-.24,1.9-.24,2.85,0,0,2.23,0,4.47,0,6.7-.95,0-1.89,0-2.84,0,0-2.23,0-4.47,0-6.7Z"/>
      <path class="cls-7" d="M104.03,83.2c.95-.24,1.9-.24,2.85,0,0,2.23,0,4.47,0,6.7-.95,0-1.89,0-2.84,0,0-2.23,0-4.47,0-6.7Z"/>
      <path class="cls-7" d="M85,69.51c.96-.09,1.93-.09,2.89,0,0,2.06,0,4.11-.01,6.17-.95,0-1.91,0-2.86,0,0-2.06,0-4.12-.02-6.18Z"/>
      <path class="cls-7" d="M98.51,69.51c.96-.09,1.93-.09,2.89,0,0,2.06-.01,4.12-.02,6.18-.95,0-1.91,0-2.86,0,0-2.06,0-4.11-.01-6.17Z"/>
      <path class="cls-4" d="M77.92,38.66c0,.56.03.97,0,1.38-.09,1-.9,1.84-1.75,1.75-1.04-.11-1.62-.76-1.7-1.8-.05-.62-.02-1.24-.01-1.85,0-.88-.43-1.28-1.3-1.27-.66,0-1.32.01-1.98,0-.9-.02-1.49-.46-1.66-1.35-.19-.97.3-1.58,1.14-1.94,2.12-.91,5.51.19,6.67,2.14.57.96.68,2.02.59,2.96Z"/>
    </g>
  </g>
  <g id="Top_BGS" data-name="Top BGS">
    <path class="cls-3" d="M119.87,49.4c.13,1.63.13,3.26-.06,4.88-.14,1.17-.35,2.34-.67,3.49-1.72,6.11-6.74,9.88-7.22,16.31-.37,4.98,2.59,9.15-.56,13.93-3.66,5.58-11.99,7.99-21.61,8.51-.43.02-.87.04-1.31.06-11.1.39-23.66-1.61-32.65-4.15-.13-.03-.26-.07-.39-.11-3.41-.98-6.29-2.04-8.34-3.06-11.59-5.79-21.42-16.03-24.56-28.85-.43-1.77-.66-3.58-.73-5.41C14.51,55.51,7.25,55.97,0,56.31v85.43h141.73V50.36c-7.27-.57-14.56-.86-21.86-.96Z"/>
  </g>
  <g id="Texts">
    <g>
      <rect class="cls-2" x="0" y="87.41" width="141.73" height="54.32"/>
      <path class="cls-1" d="M51.19,109.56c0-.43.22-.67.66-.67h3.71c2.13,0,3.62,1.49,3.62,3.7s-1.49,3.75-3.62,3.75h-2.32v3.25c0,.45-.22.67-.66.67h-.74c-.43,0-.66-.22-.66-.67v-10.02ZM55.18,114.54c1.22,0,1.91-.77,1.91-1.95s-.69-1.92-1.87-1.92h-1.97v3.87h1.94Z"/>
      <path class="cls-1" d="M64.57,115.21h.34v-.19c0-1.07-.69-1.44-1.52-1.44-.69,0-1.31.26-1.7.46-.4.18-.7.11-.9-.27l-.16-.3c-.19-.37-.13-.69.26-.9.53-.27,1.46-.67,2.67-.67,2.11,0,3.38,1.18,3.38,3.25v4.43c0,.45-.22.67-.67.67h-.54c-.43,0-.66-.22-.66-.67v-.32c0-.22.03-.35.03-.35h-.03s-.77,1.54-2.56,1.54c-1.49,0-2.71-.96-2.71-2.45,0-2.39,2.95-2.79,4.77-2.79ZM63.05,118.89c1.14,0,1.87-1.15,1.87-2.15v-.3h-.34c-1.02,0-2.77.16-2.77,1.38,0,.54.42,1.07,1.23,1.07Z"/>
      <path class="cls-1" d="M68.83,112.76c0-.43.22-.67.66-.67h.62c.43,0,.67.24.67.67v.77c0,.3-.05.56-.05.56h.03c.32-.98,1.22-2.06,2.37-2.06.45,0,.61.22.61.67v.62c0,.43-.26.67-.69.67-1.49,0-2.21,1.47-2.21,2.96v2.62c0,.45-.22.67-.66.67h-.7c-.43,0-.66-.22-.66-.67v-6.82Z"/>
      <path class="cls-1" d="M78.44,111.9c1.31,0,2.19.48,2.67.82.34.22.35.56.13.91l-.21.32c-.24.37-.51.37-.9.18-.34-.22-.88-.5-1.58-.5-1.5,0-2.48,1.14-2.48,2.53s.98,2.56,2.55,2.56c.8,0,1.44-.35,1.82-.62.4-.22.7-.18.91.21l.16.3c.19.35.14.67-.18.9-.5.37-1.49.94-2.9.94-2.71,0-4.43-1.9-4.43-4.27s1.73-4.27,4.43-4.27Z"/>
      <path class="cls-1" d="M86.88,111.9c2.48,0,4.5,1.78,4.5,4.27s-2.02,4.27-4.5,4.27-4.48-1.76-4.48-4.27,2-4.27,4.48-4.27ZM86.88,118.72c1.33,0,2.43-1.02,2.43-2.54s-1.1-2.54-2.43-2.54-2.42,1.04-2.42,2.54,1.09,2.54,2.42,2.54Z"/>
    </g>
  </g>
</svg>