<?xml version="1.0" encoding="UTF-8"?>
<svg xmlns="http://www.w3.org/2000/svg" viewBox="0 0 141.73 141.73">
  <defs>
    <style>
      .cls-1 {
        fill: #f1f2f2;
      }

      .cls-2 {
        fill: #f2798d;
      }

      .cls-3 {
        fill: none;
      }

      .cls-4 {
        fill: #80d3f0;
      }

      .cls-5 {
        fill: #6b70ae;
      }

      .cls-6 {
        fill: #a1b860;
        stroke: #a1b860;
        stroke-miterlimit: 10;
        stroke-width: .5px;
      }

      .cls-7 {
        fill: #3cc1ea;
      }

      .cls-8 {
        fill: #d2cfe8;
      }
    </style>
  </defs>
  <g id="Bottom_BGS" data-name="Bottom BGS">
    <path class="cls-6" d="M0,0v50.76c6.01-.19,12.01-.28,17.99-.29-.26-11.19,3.72-22.5,11.64-30.19,10.18-9.86,23.02-9.73,38.52-10.3,6.2-.22,38.01-1.39,44.64,13.38,4,8.91-4.73,15.61-.18,28.77.5,1.45,1.07,2.71,1.68,3.82,9.13.87,18.27,1.78,27.43,2.7V0H0Z"/>
  </g>
  <g id="Elements">
    <g>
      <path class="cls-8" d="M34.98,94.47c-3.93.01-7.86.06-11.79.03-1.66-.02-2.9-1.63-2.9-3.62-.01-5.15,0-10.31,0-15.46,0-10.23,0-20.46,0-30.7,0-.52.05-1.03.08-1.55,6.68,1.64,13.37,3.26,20.05,4.91,8.65,2.13,17.29,4.28,25.93,6.45.68.17.77-.08.76-.74-.03-1.52-.08-3.05.02-4.56.07-1.07-.26-1.46-1.15-1.68-7.89-1.91-15.78-3.87-23.66-5.83-3.99-.99-7.97-2.01-11.95-3.02.39-.32.27-.8.28-1.22.02-3.21.03-6.42.04-9.63.26.08.51-.01.76-.08,4.81-1.21,9.62-2.41,14.43-3.6,13.2-3.27,26.4-6.54,39.6-9.81,4.87-1.21,9.75-2.39,14.63-3.59.3.34.17.77.17,1.16,0,5.01.03,10.01-.02,15.02,0,1.01.27,1.24,1.11,1.23,2.86-.06,5.72-.06,8.57,0,1.12.02,2.24.15,3.1,1.24.6.77.9,1.6.9,2.6,0,18.02,0,36.04,0,54.06-5.25-.01-10.51-.03-15.76-.04,0-3.34-.01-6.68-.03-10.02,0-2.32-1.25-3.76-3.27-3.77-2.89-.01-5.78-.01-8.68,0-2.02,0-3.26,1.45-3.27,3.77-.01,3.34-.02,6.68-.03,10.02-5.25,0-10.5.01-15.75.02-.02-.46-.04-.91-.05-1.36,0-3.57,0-7.14,0-10.72,0-2.23-.03-4.45.04-6.68.03-.94-.29-1.08-1.01-1.08-9.23.02-18.46.01-27.7.02-2.11,0-3.45,1.45-3.46,3.86-.02,8.13,0,16.25,0,24.38ZM91.9,63.3c2.2,0,4.41,0,6.61,0,.92,0,1.84,0,2.75.01,2.27,0,4.54,0,6.81.03.6.01.78-.22.77-.89-.04-2.44-.03-4.88-.04-7.32.09-1.06.09-2.13,0-3.19,0-2.2,0-4.41,0-6.61.09-1.06.09-2.13,0-3.19,0-2.37.02-4.74.02-7.11,0-.56,0-1.09-.73-1.14-2.27-.17-4.53-.15-6.8-.08-.93-.13-1.87-.13-2.8,0-2.19,0-4.37,0-6.56,0-.93-.13-1.87-.13-2.8,0-2.19,0-4.37,0-6.56,0-.93-.13-1.87-.13-2.8,0-2.2-.03-4.4-.12-6.61.06-.76.06-.94.42-.93,1.16.02,2.37.02,4.74.03,7.11-.09,1.06-.09,2.13,0,3.19,0,2.2,0,4.41,0,6.61-.09,1.06-.09,2.13,0,3.19,0,2.44,0,4.88-.04,7.33-.01.67.17.9.77.89,2.27-.04,4.54-.02,6.81-.03.92,0,1.84-.01,2.75-.02,2.2,0,4.41,0,6.61,0h2.75Z"/>
      <path class="cls-2" d="M34.98,94.47c0-8.13-.03-16.25,0-24.38,0-2.41,1.34-3.85,3.46-3.86,9.23,0,18.46,0,27.7-.02.72,0,1.04.13,1.01,1.08-.07,2.22-.04,4.45-.04,6.68-2.4.01-4.8.02-7.2.03-.97-.23-1.94-.23-2.91,0-2.08,0-4.17,0-6.25,0-.91-.21-1.82-.22-2.72,0-2.17,0-4.35,0-6.52-.04-.54,0-.73.16-.73.81.03,3.04.03,6.08,0,9.12,0,.64.18.82.73.81,2.17-.04,4.35-.03,6.52-.04.91,0,1.82,0,2.73,0,2.14,0,4.29,0,6.43,0,.91,0,1.82,0,2.73,0,2.4.01,4.8.02,7.2.03.02.46.04.91.06,1.37,0,2.81-.02,5.62-.03,8.43-3.7.01-7.4.03-11.1.04-6.62,0-13.25,0-19.87,0-.39,0-.78-.03-1.17-.05Z"/>
      <path class="cls-5" d="M100.09,10.76c-4.88,1.2-9.75,2.39-14.63,3.59-13.2,3.27-26.4,6.54-39.6,9.81-4.81,1.19-9.62,2.4-14.43,3.6-.26.06-.5.15-.76.08,0-.78,0-1.56,0-2.34.02-2.62,1.14-4.27,3.38-4.83,7-1.75,14-3.48,21-5.22,10.61-2.63,21.23-5.26,31.84-7.9,3.36-.83,6.71-1.69,10.08-2.51,1.76-.43,3.11.77,3.17,2.82.03.96-.03,1.92-.05,2.89Z"/>
      <path class="cls-7" d="M82.89,86.03c0-3.34.01-6.68.03-10.02,0-2.32,1.25-3.76,3.27-3.77,2.89-.01,5.78-.01,8.68,0,2.02,0,3.26,1.45,3.27,3.77.01,3.34.02,6.68.02,10.02,0,2.82-.01,5.64-.02,8.45-5.07,0-10.15,0-15.22,0,0-2.82-.01-5.64-.02-8.45Z"/>
      <path class="cls-5" d="M30.36,38.7c3.98,1.01,7.96,2.03,11.95,3.02,7.88,1.96,15.77,3.92,23.66,5.83.9.22,1.22.61,1.15,1.68-.09,1.51-.04,3.04-.02,4.56.01.66-.08.91-.76.74-8.64-2.17-17.28-4.32-25.93-6.45-6.68-1.65-13.37-3.28-20.05-4.91-.17-1.22-.12-2.45-.05-3.66.1-1.65,1.43-2.81,2.89-2.5,2.39.51,4.77,1.12,7.15,1.68Z"/>
      <path class="cls-5" d="M82.89,86.03c0,2.82.01,5.64.02,8.45-5.27,0-10.53,0-15.8,0,0-2.81.02-5.62.03-8.43,5.25,0,10.5-.01,15.75-.02Z"/>
      <path class="cls-5" d="M98.14,94.49c0-2.82.01-5.63.02-8.45,5.25.01,10.51.03,15.76.04,0,1.63.04,3.25,0,4.88-.03,2.02-1.31,3.54-3.07,3.55-4.24.02-8.48,0-12.73-.02Z"/>
      <path class="cls-4" d="M79.76,33.79c.93-.13,1.87-.13,2.8,0-.01,2.52,0,5.04-.04,7.55,0,.63.2.84.74.83,1.72-.03,3.44-.03,5.16,0,.54,0,.75-.19.74-.83-.03-2.52-.03-5.04-.04-7.55.93-.13,1.87-.13,2.8,0-.01,2.52-.01,5.04-.04,7.55,0,.64.21.83.74.83,1.72-.03,3.44-.03,5.16,0,.54,0,.75-.19.74-.83-.03-2.52-.03-5.04-.04-7.56.93-.13,1.87-.13,2.8,0-.01,2.52-.01,5.04-.05,7.56,0,.64.21.83.75.82,2.27-.03,4.54-.03,6.81-.04.09,1.06.09,2.13,0,3.19-2.27-.01-4.53,0-6.8-.05-.61-.01-.78.27-.76.92.03,1.63.03,3.25,0,4.88-.01.65.15.93.77.91,2.27-.04,4.53-.04,6.8-.05.09,1.06.09,2.13,0,3.19-2.27-.01-4.53,0-6.8-.05-.61-.01-.77.27-.76.92.03,2.44.02,4.88.02,7.32-.92,0-1.84,0-2.75-.01,0-2.41-.02-4.82.03-7.23.01-.8-.23-1.02-.9-1-1.62.04-3.25.05-4.87,0-.68-.02-.9.22-.89,1.01.04,2.41.02,4.82.02,7.23-.92,0-1.84,0-2.75,0,0-2.41-.02-4.82.02-7.23.01-.78-.21-1.03-.89-1.01-1.62.05-3.25.04-4.87,0-.66-.02-.91.2-.9,1,.04,2.41.02,4.82.03,7.23-.92,0-1.84.01-2.75.02,0-2.44,0-4.88.02-7.32,0-.65-.15-.93-.76-.92-2.27.04-4.53.04-6.8.05-.09-1.06-.09-2.13,0-3.19,2.27.01,4.53,0,6.8.05.61.01.78-.26.77-.91-.03-1.63-.03-3.25,0-4.88.01-.65-.15-.93-.76-.92-2.27.04-4.53.04-6.8.05-.09-1.06-.09-2.13,0-3.19,2.27.01,4.54.01,6.81.04.53,0,.76-.18.75-.82-.03-2.52-.04-5.04-.05-7.56ZM85.85,51.97c.84,0,1.69-.03,2.53.01.59.03.8-.21.79-.89-.03-1.63-.03-3.26,0-4.89,0-.63-.12-.95-.75-.93-1.72.04-3.44.03-5.16,0-.54,0-.75.21-.74.83.03,1.67.03,3.33,0,5-.01.7.23.9.8.87.84-.04,1.69,0,2.53,0ZM95.17,51.97c.88,0,1.75-.03,2.63,0,.55.02.74-.22.73-.84-.02-1.67-.03-3.33,0-5,.01-.71-.25-.87-.81-.86-1.69.03-3.37.03-5.06,0-.6-.01-.79.23-.78.9.03,1.59.05,3.19,0,4.78-.03.88.27,1.09.96,1.03.78-.06,1.56-.01,2.33-.01Z"/>
      <path class="cls-7" d="M59.89,74c2.4-.01,4.8-.02,7.2-.03,0,3.57,0,7.14,0,10.72-2.4-.01-4.8-.02-7.2-.03,0-3.55,0-7.1,0-10.65Z"/>
      <path class="cls-7" d="M79.76,33.79c.01,2.52.01,5.04.05,7.56,0,.64-.22.83-.75.82-2.27-.03-4.54-.03-6.81-.04,0-2.37-.01-4.74-.03-7.11,0-.74.18-1.1.93-1.16,2.2-.18,4.41-.09,6.61-.06Z"/>
      <path class="cls-7" d="M108.81,42.13c-2.27.01-4.54.01-6.81.04-.53,0-.76-.18-.75-.82.03-2.52.03-5.04.05-7.56,2.27-.07,4.54-.09,6.8.08.74.05.73.58.73,1.14,0,2.37-.01,4.74-.02,7.11Z"/>
      <path class="cls-7" d="M72.25,55.12c2.27-.01,4.53,0,6.8-.05.62-.01.77.27.76.92-.03,2.44-.02,4.88-.02,7.32-2.27,0-4.54,0-6.81.03-.6.01-.78-.22-.77-.89.04-2.44.03-4.88.04-7.33Z"/>
      <path class="cls-7" d="M101.26,63.31c0-2.44,0-4.88-.02-7.32,0-.65.15-.93.76-.92,2.27.04,4.53.04,6.8.05,0,2.44,0,4.88.04,7.33.01.67-.17.9-.77.89-2.27-.04-4.54-.02-6.81-.03Z"/>
      <path class="cls-7" d="M89.12,33.79c.01,2.52.01,5.04.04,7.55,0,.64-.21.83-.74.83-1.72-.03-3.44-.03-5.16,0-.54,0-.75-.19-.74-.83.03-2.52.03-5.04.04-7.55,2.19,0,4.37,0,6.56,0Z"/>
      <path class="cls-7" d="M98.49,33.79c.01,2.52,0,5.04.04,7.56,0,.64-.21.84-.74.83-1.72-.03-3.44-.03-5.16,0-.54,0-.75-.19-.74-.83.03-2.52.03-5.04.04-7.55,2.19,0,4.37,0,6.56,0Z"/>
      <path class="cls-7" d="M82.54,63.29c0-2.41.02-4.82-.03-7.23-.01-.8.23-1.02.9-1,1.62.04,3.25.05,4.87,0,.68-.02.9.22.89,1.01-.04,2.41-.02,4.82-.02,7.23-2.2,0-4.41,0-6.61,0Z"/>
      <path class="cls-7" d="M91.9,63.3c0-2.41.02-4.82-.02-7.23-.01-.79.22-1.02.89-1.01,1.62.05,3.25.04,4.87,0,.67-.02.91.2.9,1-.04,2.41-.02,4.82-.03,7.23-2.2,0-4.41,0-6.61,0Z"/>
      <path class="cls-7" d="M72.25,45.32c2.27-.01,4.53,0,6.8-.05.61-.01.78.27.76.92-.03,1.63-.03,3.25,0,4.88.01.65-.16.92-.77.91-2.27-.04-4.53-.04-6.8-.05,0-2.2,0-4.41,0-6.61Z"/>
      <path class="cls-7" d="M108.81,51.93c-2.27.01-4.53,0-6.8.05-.61.01-.78-.26-.77-.91.03-1.63.03-3.25,0-4.88-.01-.65.15-.93.76-.92,2.27.04,4.53.04,6.8.05,0,2.2,0,4.41,0,6.61Z"/>
      <path class="cls-7" d="M48,84.65c-2.17.01-4.35,0-6.52.04-.54,0-.73-.17-.73-.81.02-3.04.03-6.08,0-9.12,0-.65.19-.82.73-.81,2.17.04,4.35.03,6.52.04,0,3.55,0,7.1,0,10.65Z"/>
      <path class="cls-7" d="M57.16,84.66c-2.14,0-4.29,0-6.43,0,0-3.55,0-7.11,0-10.66,2.08,0,4.17,0,6.25,0,.3.34.18.76.18,1.15,0,3.17,0,6.33,0,9.5Z"/>
      <path class="cls-4" d="M57.16,84.66c0-3.17,0-6.33,0-9.5,0-.39.12-.82-.18-1.15.97-.23,1.94-.23,2.91,0,0,3.55,0,7.1,0,10.65-.91,0-1.82,0-2.73,0Z"/>
      <path class="cls-4" d="M50.72,74c0,3.55,0,7.11,0,10.66-.91,0-1.82,0-2.73,0,0-3.55,0-7.1,0-10.65.91-.23,1.82-.22,2.72,0Z"/>
      <path class="cls-7" d="M85.85,51.97c-.84,0-1.69-.03-2.53,0-.57.03-.82-.17-.8-.87.03-1.67.03-3.33,0-5,0-.63.2-.84.74-.83,1.72.03,3.44.03,5.16,0,.63-.01.76.3.75.93-.03,1.63-.03,3.26,0,4.89.01.68-.2.92-.79.89-.84-.04-1.69-.01-2.53-.01Z"/>
      <path class="cls-7" d="M95.17,51.97c-.78,0-1.56-.04-2.33.01-.69.05-1-.16-.96-1.03.06-1.59.04-3.18,0-4.78-.01-.67.18-.92.78-.9,1.69.04,3.37.03,5.06,0,.56,0,.83.15.81.86-.03,1.67-.03,3.33,0,5,0,.62-.18.86-.73.84-.87-.04-1.75,0-2.63,0Z"/>
    </g>
  </g>
  <g id="Top_BGS" data-name="Top BGS">
    <path class="cls-6" d="M123.59,69.68c-.4,9.65-18.2,17.8-35.41,21.32-3.4.7-6.78,1.22-9.99,1.53-1.32.13-2.65.26-4.02.35-3.29.24-6.79.3-10.81-.21-1.06-.12-2.15-.3-3.29-.52-1.23-.23-3.05-.57-5.26-1.1-9.56-2.31-26.37-8.25-33.59-25.17-2.06-4.85-3.13-10.12-3.25-15.42-5.99,0-11.98.1-17.99.29v90.98h141.73V58.66c-9.16-.92-18.3-1.84-27.43-2.7,3.92,7.15,9.52,8.24,9.29,13.73Z"/>
  </g>
  <g id="Texts">
    <g>
      <rect class="cls-3" x="0" y="87.41" width="141.73" height="54.32"/>
      <path class="cls-1" d="M39.21,101.93c.13-.37.37-.54.75-.54h1.02c.38,0,.64.18.75.54l3.55,10.05c.16.46-.05.77-.54.77h-.74c-.38,0-.64-.18-.75-.54l-.8-2.37h-3.99l-.78,2.35c-.11.38-.37.56-.75.56h-.74c-.5,0-.71-.3-.54-.77l3.55-10.05ZM41.95,108.16l-1.01-3.04c-.19-.64-.45-1.76-.45-1.76h-.03s-.26,1.12-.45,1.76l-1.03,3.04h2.96Z"/>
      <path class="cls-1" d="M46.55,105.26c0-.43.22-.67.66-.67h.62c.43,0,.66.24.66.67v.5c0,.18-.03.37-.03.37h.03c.4-.8,1.39-1.73,2.67-1.73s2.05.58,2.38,1.68h.03c.43-.85,1.5-1.68,2.79-1.68,1.7,0,2.67.96,2.67,3.11v4.58c0,.45-.24.67-.67.67h-.69c-.45,0-.67-.22-.67-.67v-4.19c0-.93-.18-1.63-1.12-1.63-1.38,0-2.08,1.41-2.08,2.83v2.99c0,.45-.22.67-.66.67h-.71c-.43,0-.67-.22-.67-.67v-4.19c0-.88-.13-1.63-1.09-1.63-1.44,0-2.11,1.47-2.11,2.83v2.99c0,.45-.22.67-.66.67h-.7c-.43,0-.66-.22-.66-.67v-6.82Z"/>
      <path class="cls-1" d="M60.92,102.06c0-.43.24-.67.67-.67h.69c.45,0,.67.24.67.67v2.96c0,.4-.05.69-.05.69h.03s.72-1.31,2.5-1.31c2.16,0,3.6,1.74,3.6,4.26s-1.62,4.29-3.73,4.29c-1.84,0-2.5-1.38-2.5-1.38h-.03s.03.13.03.35v.26c0,.35-.22.58-.67.58h-.54c-.43,0-.67-.22-.67-.67v-10.02ZM64.91,111.23c1.14,0,2.06-.91,2.06-2.53s-.83-2.56-2.02-2.56c-1.06,0-2.06.79-2.06,2.53,0,1.33.69,2.56,2.02,2.56Z"/>
      <path class="cls-1" d="M70.57,102.54v-.48c0-.43.22-.67.66-.67h.7c.43,0,.67.24.67.67v.48c0,.43-.24.66-.67.66h-.7c-.43,0-.66-.22-.66-.66ZM70.57,105.26c0-.43.22-.67.66-.67h.7c.43,0,.66.24.66.67v6.82c0,.45-.22.67-.66.67h-.7c-.43,0-.66-.22-.66-.67v-6.82Z"/>
      <path class="cls-1" d="M78.25,104.4c2.32,0,3.62,1.65,3.62,3.89,0,.35-.3.69-.7.69h-4.98c.13,1.47,1.22,2.24,2.45,2.24.75,0,1.38-.29,1.76-.53.4-.19.69-.14.9.22l.19.32c.19.37.13.69-.22.9-.53.34-1.49.82-2.77.82-2.71,0-4.39-1.95-4.39-4.27,0-2.51,1.7-4.27,4.15-4.27ZM79.85,107.74c-.03-1.14-.72-1.81-1.65-1.81-1.04,0-1.78.72-1.97,1.81h3.62Z"/>
      <path class="cls-1" d="M83.34,105.26c0-.43.22-.67.66-.67h.62c.43,0,.66.24.66.67v.5c0,.18-.03.37-.03.37h.03c.35-.69,1.25-1.73,2.9-1.73,1.81,0,2.85.94,2.85,3.11v4.58c0,.45-.22.67-.67.67h-.69c-.43,0-.67-.22-.67-.67v-4.16c0-.99-.26-1.67-1.28-1.67-1.44,0-2.35,1.2-2.35,2.67v3.15c0,.45-.22.67-.66.67h-.7c-.43,0-.66-.22-.66-.67v-6.82Z"/>
      <path class="cls-1" d="M93.29,106.32h-.43c-.43,0-.66-.22-.66-.67v-.27c0-.43.22-.67.67-.67h.46v-1.66c0-.43.24-.67.67-.67h.64c.43,0,.67.24.67.67v1.66h1.18c.43,0,.67.24.67.67v.27c0,.45-.24.67-.66.67h-1.2v3.17c0,1.22.75,1.46,1.31,1.52.5.05.67.21.67.66v.5c0,.48-.27.67-.83.67-1.46,0-3.18-.78-3.18-2.99v-3.52Z"/>
      <path class="cls-1" d="M102.25,104.4c2.32,0,3.62,1.65,3.62,3.89,0,.35-.3.69-.7.69h-4.98c.13,1.47,1.22,2.24,2.45,2.24.75,0,1.38-.29,1.76-.53.4-.19.69-.14.9.22l.19.32c.19.37.13.69-.22.9-.53.34-1.49.82-2.77.82-2.71,0-4.39-1.95-4.39-4.27,0-2.51,1.7-4.27,4.15-4.27ZM103.85,107.74c-.03-1.14-.72-1.81-1.65-1.81-1.04,0-1.78.72-1.97,1.81h3.62Z"/>
      <path class="cls-1" d="M35.21,117.06c0-.43.22-.67.66-.67h.7c.43,0,.66.24.66.67v7.99c0,.8.34.94.64.98.29.03.5.21.5.58v.54c0,.42-.19.69-.67.69-1.09,0-2.48-.29-2.48-2.62v-8.15Z"/>
      <path class="cls-1" d="M43.84,122.71h.34v-.19c0-1.07-.69-1.44-1.52-1.44-.69,0-1.31.26-1.7.46-.4.18-.7.11-.9-.27l-.16-.3c-.19-.37-.13-.69.26-.9.53-.27,1.46-.67,2.67-.67,2.11,0,3.38,1.18,3.38,3.25v4.43c0,.45-.22.67-.67.67h-.54c-.43,0-.66-.22-.66-.67v-.32c0-.22.03-.35.03-.35h-.03s-.77,1.54-2.56,1.54c-1.49,0-2.71-.96-2.71-2.45,0-2.39,2.95-2.79,4.77-2.79ZM42.32,126.39c1.14,0,1.87-1.15,1.87-2.15v-.3h-.34c-1.02,0-2.77.16-2.77,1.38,0,.54.42,1.07,1.23,1.07Z"/>
      <path class="cls-1" d="M47.31,120.36c-.16-.46.03-.77.53-.77h.75c.38,0,.64.18.75.56l1.52,4.5c.16.48.3,1.23.3,1.23h.03s.13-.75.29-1.23l1.52-4.5c.11-.38.37-.56.75-.56h.75c.5,0,.7.3.54.77l-2.46,6.85c-.13.38-.37.54-.75.54h-1.28c-.38,0-.64-.16-.75-.54l-2.5-6.85Z"/>
      <path class="cls-1" d="M60.25,119.4c2.48,0,4.5,1.78,4.5,4.27s-2.02,4.27-4.5,4.27-4.48-1.76-4.48-4.27,2-4.27,4.48-4.27ZM60.25,126.22c1.33,0,2.43-1.02,2.43-2.54s-1.1-2.54-2.43-2.54-2.42,1.04-2.42,2.54,1.09,2.54,2.42,2.54Z"/>
      <path class="cls-1" d="M66.24,120.26c0-.43.22-.67.66-.67h.62c.43,0,.67.24.67.67v.77c0,.3-.05.56-.05.56h.03c.32-.98,1.22-2.06,2.37-2.06.45,0,.61.22.61.67v.62c0,.43-.26.67-.69.67-1.49,0-2.21,1.47-2.21,2.96v2.62c0,.45-.22.67-.66.67h-.7c-.43,0-.66-.22-.66-.67v-6.82Z"/>
      <path class="cls-1" d="M76.3,122.71h.34v-.19c0-1.07-.69-1.44-1.52-1.44-.69,0-1.31.26-1.7.46-.4.18-.7.11-.9-.27l-.16-.3c-.19-.37-.13-.69.26-.9.53-.27,1.46-.67,2.67-.67,2.11,0,3.38,1.18,3.38,3.25v4.43c0,.45-.22.67-.67.67h-.54c-.43,0-.66-.22-.66-.67v-.32c0-.22.03-.35.03-.35h-.03s-.77,1.54-2.56,1.54c-1.49,0-2.71-.96-2.71-2.45,0-2.39,2.95-2.79,4.77-2.79ZM74.78,126.39c1.14,0,1.87-1.15,1.87-2.15v-.3h-.34c-1.02,0-2.77.16-2.77,1.38,0,.54.42,1.07,1.23,1.07Z"/>
      <path class="cls-1" d="M80.91,121.32h-.43c-.43,0-.66-.22-.66-.67v-.27c0-.43.22-.67.67-.67h.46v-1.66c0-.43.24-.67.67-.67h.64c.43,0,.67.24.67.67v1.66h1.18c.43,0,.67.24.67.67v.27c0,.45-.24.67-.66.67h-1.2v3.17c0,1.22.75,1.46,1.31,1.52.5.05.67.21.67.66v.5c0,.48-.27.67-.83.67-1.46,0-3.18-.78-3.18-2.99v-3.52Z"/>
      <path class="cls-1" d="M86.28,117.54v-.48c0-.43.22-.67.66-.67h.7c.43,0,.67.24.67.67v.48c0,.43-.24.66-.67.66h-.7c-.43,0-.66-.22-.66-.66ZM86.28,120.26c0-.43.22-.67.66-.67h.7c.43,0,.66.24.66.67v6.82c0,.45-.22.67-.66.67h-.7c-.43,0-.66-.22-.66-.67v-6.82Z"/>
      <path class="cls-1" d="M89.59,120.36c-.16-.46.03-.77.53-.77h.75c.38,0,.64.18.75.56l1.52,4.5c.16.48.3,1.23.3,1.23h.03s.13-.75.29-1.23l1.52-4.5c.11-.38.37-.56.75-.56h.75c.5,0,.7.3.54.77l-2.46,6.85c-.13.38-.37.54-.75.54h-1.28c-.38,0-.64-.16-.75-.54l-2.5-6.85Z"/>
      <path class="cls-1" d="M102.54,119.4c2.48,0,4.5,1.78,4.5,4.27s-2.02,4.27-4.5,4.27-4.48-1.76-4.48-4.27,2-4.27,4.48-4.27ZM102.54,126.22c1.33,0,2.43-1.02,2.43-2.54s-1.1-2.54-2.43-2.54-2.42,1.04-2.42,2.54,1.09,2.54,2.42,2.54Z"/>
    </g>
  </g>
</svg>