<?xml version="1.0" encoding="UTF-8"?>
<svg xmlns="http://www.w3.org/2000/svg" viewBox="0 0 141.73 141.73">
  <defs>
    <style>
      .cls-1 {
        fill: #fff9ee;
      }

      .cls-2 {
        fill: #f1f2f2;
      }

      .cls-3 {
        fill: #429ac3;
      }

      .cls-4 {
        fill: #ec724a;
      }

      .cls-5 {
        fill: none;
      }

      .cls-6 {
        fill: #1d3035;
      }

      .cls-7 {
        fill: #55b6cf;
      }

      .cls-8 {
        fill: #fcb44a;
        stroke: #fcb44a;
        stroke-miterlimit: 10;
        stroke-width: .5px;
      }

      .cls-9 {
        fill: #abdfea;
      }

      .cls-10 {
        fill: #def1f5;
      }

      .cls-11 {
        fill: #41a4db;
      }
    </style>
  </defs>
  <g id="Bottom_BGS" data-name="Bottom BGS">
    <path class="cls-8" d="M21.18,38.6c.47-18.96,18.13-24.44,34.47-19.35.31.1.61.19.92.3,7.38,2.49,14.42,6.35,21.94,8,1.49.33,3,.57,4.54.69.65.05,1.31.08,1.97.1.01,0,.02,0,.03,0,1.67.04,3.35-.01,5.03-.06.81-.03,1.62-.05,2.42-.07,3.33-.06,6.61.08,9.73,1.18,6.6,2.33,11.05,8.51,14.17,14.77.71,1.44,1.37,2.95,1.94,4.5.64,1.73,1.17,3.52,1.56,5.31.21.99.37,1.98.49,2.97,7.2-1.07,14.33-2.56,21.36-4.53V0H0v48.92c7.17,1.36,14.42,2.68,21.7,3.9-.54-4.71-.64-9.5-.52-14.22Z"/>
  </g>
  <g id="Elements">
    <g>
      <path class="cls-9" d="M123.5,52.99c-1.93,3.85-4.99,6.78-8.09,9.63-4.03,3.7-8.48,6.85-13.29,9.48-4.9,2.68-10.03,4.72-15.48,5.97-4.53,1.04-9.12,1.48-13.74,1.2-5.69-.35-11.18-1.68-16.47-3.82-.08-.03-.18-.04-.27-.06.19-.25.43-.17.68-.11,4.04.96,8.13,1.33,12.29,1.27,3.43-.05,6.79-.49,10.1-1.25,7.05-1.63,13.54-4.61,19.59-8.54,3.54-2.3,6.84-4.89,9.92-7.8,2.22-2.1,4.21-4.36,6.01-6.81,1.16-1.57,1.24-3.03.05-4.73-2.81-4.01-6.3-7.34-10.05-10.4-4.33-3.54-9.06-6.5-14.14-8.88-.19-.09-.34-.25-.52-.37,2.02.39,3.89,1.22,5.78,1.99,5.69,2.33,10.9,5.48,15.72,9.27,3.89,3.05,7.49,6.4,10.44,10.39.56.76.98,1.63,1.47,2.45v1.12Z"/>
      <path class="cls-10" d="M90.08,27.77c.17.13.33.29.52.37,5.08,2.38,9.81,5.34,14.14,8.88,3.75,3.06,7.24,6.39,10.05,10.4,1.19,1.7,1.11,3.16-.05,4.73-1.8,2.45-3.79,4.71-6.01,6.81-3.08,2.9-6.38,5.5-9.92,7.8-6.05,3.93-12.54,6.91-19.59,8.54-3.31.76-6.67,1.2-10.1,1.25-4.16.06-8.25-.31-12.29-1.27-.24-.06-.49-.14-.68.11-4-1.78-7.92-3.72-11.56-6.16-2.7-1.81-5.3-3.75-7.74-5.91-2.39-2.13-4.65-4.38-6.66-6.87-.82-1.02-1.51-2.12-2.07-3.3-.26-.56-.16-1.06.09-1.6.88-1.95,2.23-3.59,3.66-5.12,2.48-2.65,5.12-5.12,8-7.36,3.44-2.67,7.06-5.05,10.91-7.05,4.63-2.4,9.49-4.25,14.62-5.32,2.3-.48,4.62-.79,6.96-.98,1.52-.13,3.04-.17,4.55-.13,3.75.08,7.45.62,11.08,1.56.71.18,1.49.12,2.1.64ZM55.57,57.56c.03.24.02.5.09.73,2.33,8.5,10.61,14.88,19.42,15.04,5.42.1,10.21-1.59,14.32-5.08,3.3-2.8,5.53-6.33,6.54-10.58.69-2.6.86-5.23.51-7.92-.57-4.39-2.31-8.25-5.32-11.45-4.89-5.19-10.93-7.44-18.05-6.6-4.43.52-8.29,2.33-11.53,5.35-4.84,4.53-7.05,10.18-6.7,16.79.07,1.25.11,2.54.71,3.71Z"/>
      <path class="cls-4" d="M78.71,92.49c0,.99.02,1.99,0,2.98-.04,1.67-1.33,2.97-2.94,3-1.63.03-3-1.31-3.02-3.02-.02-1.98-.02-3.97,0-5.95.02-1.7,1.28-2.94,2.94-2.96,1.7-.02,2.99,1.24,3.02,2.97.02.99,0,1.98,0,2.98Z"/>
      <path class="cls-4" d="M78.71,12.4c0,.99.02,1.99,0,2.98-.04,1.69-1.31,2.93-2.96,2.94-1.66,0-2.97-1.23-2.99-2.91-.03-2.02-.03-4.03,0-6.05.02-1.67,1.34-2.96,2.96-2.98,1.6-.01,2.95,1.3,3,2.94.03,1.02,0,2.05,0,3.07Z"/>
      <path class="cls-4" d="M60.8,19.69c-.06,1.15-.62,2.07-1.72,2.59-1.11.52-2.24.44-3.13-.39-1.59-1.48-3.13-3.01-4.61-4.6-1.12-1.19-.96-2.98.23-4.1,1.15-1.09,2.88-1.13,4.04-.01,1.5,1.44,2.95,2.93,4.41,4.41.55.56.78,1.25.79,2.1Z"/>
      <path class="cls-4" d="M90.65,19.58c.04-.89.35-1.57.92-2.15,1.39-1.38,2.75-2.78,4.15-4.14,1.27-1.24,3.05-1.23,4.24-.03,1.2,1.2,1.2,2.97-.04,4.25-1.38,1.42-2.79,2.83-4.21,4.21-.94.91-2.22,1.12-3.35.55-1.13-.56-1.68-1.51-1.71-2.69Z"/>
      <path class="cls-4" d="M60.79,85.56c-.03.6-.33,1.29-.91,1.86-1.38,1.38-2.75,2.78-4.15,4.14-1.27,1.24-3.04,1.23-4.24.03-1.2-1.2-1.2-2.97.04-4.24,1.39-1.42,2.79-2.83,4.21-4.21.94-.91,2.21-1.1,3.35-.56,1.06.5,1.73,1.59,1.7,2.98Z"/>
      <path class="cls-4" d="M90.66,85.05c.08-1.04.62-1.94,1.69-2.45,1.1-.53,2.24-.46,3.13.36,1.62,1.49,3.18,3.05,4.67,4.67,1.08,1.17.9,2.93-.24,4.03-1.11,1.07-2.83,1.17-3.96.11-1.56-1.46-3.05-3-4.55-4.53-.54-.55-.76-1.27-.74-2.18Z"/>
      <path class="cls-7" d="M96.46,49.76c-.57-4.39-2.31-8.25-5.32-11.45-4.89-5.19-10.93-7.44-18.05-6.6-4.43.52-8.29,2.33-11.53,5.35-4.84,4.53-7.05,10.18-6.7,16.79.07,1.25.11,2.54.71,3.71.03.24.02.5.09.73,2.33,8.5,10.61,14.88,19.42,15.04,5.42.1,10.21-1.59,14.32-5.08,3.3-2.8,5.53-6.33,6.54-10.58.69-2.6.86-5.23.51-7.92Z"/>
      <circle class="cls-1" cx="76.12" cy="53.56" r="4.93"/>
      <g>
        <path class="cls-3" d="M68.64,32.49s-.06.04-.08.06c.03-.02.06-.04.08-.06Z"/>
        <path class="cls-3" d="M61.22,36.91s-.07.05-.1.08c.03-.03.07-.05.1-.08Z"/>
        <path class="cls-3" d="M90.82,37.52s-.06-.06-.09-.09c.03.03.06.06.09.09Z"/>
        <path class="cls-3" d="M89.6,68c0-.06.03-.09.09-.09-.03.03-.06.06-.09.09Z"/>
        <path class="cls-6" d="M82.68,45.21c9.17,9.78-5.72,22.96-14.5,13.19-7.45-8.85,4.8-21.41,14.5-13.19Z"/>
        <path class="cls-11" d="M90.63,39.48c-.72,1.56-6.09,7.42-6.92,4.5,1.08-1.53,5.7-7.96,6.92-4.5Z"/>
        <path class="cls-11" d="M65.78,57.68c2.58,1.56-3.9,4.68-5.42,5.48-4.78-.25,3.64-5.36,5.42-5.48Z"/>
        <path class="cls-11" d="M91.56,63.18c-2.11-.42-3.59-2.17-5.37-3.21-5.74-5.39,10.77,1.54,5.37,3.21Z"/>
        <path class="cls-11" d="M86.84,48.19c-3.48-1.35,5.4-5.27,7.03-4.48.83,3.05-5.01,3.45-7.03,4.48Z"/>
        <path class="cls-11" d="M88.04,54.19c2.21.48,5.93.24,7.21,2.28-.33,3.27-12.84-1.78-7.21-2.28Z"/>
        <path class="cls-11" d="M82.98,69.97c-1.83,3.89-6.05-8.46-3.05-7.57,1.65,2.14,2.67,4.79,3.05,7.57Z"/>
        <path class="cls-11" d="M63.14,66.84c.42-1.64,4.95-8.38,6.04-5.46-.82,1.66-4.53,8.84-6.04,5.46Z"/>
        <path class="cls-11" d="M64.66,48.09c-2.5-.65-6.22-1.22-7.53-3.6.55-2.66,11.49,2.85,7.53,3.6Z"/>
        <path class="cls-11" d="M70.82,41.61c-1.28,3.24-5.21-4.66-5.22-6.38,2.71-2,4.34,4.58,5.22,6.38Z"/>
        <path class="cls-11" d="M85.65,35.82c-.69,2.4-2.26,4.91-3.94,6.71-3.43.38,3.13-11.5,3.94-6.71Z"/>
        <path class="cls-11" d="M71.52,34.41c1.04-6.49,4.83,6.34,2.29,6.97-1.9-1.27-1.95-4.79-2.29-6.97Z"/>
        <path class="cls-11" d="M57.37,57.68c-4.03-2.09,5.48-3.86,7.18-3.42,1.47,2.34-5.36,3.15-7.18,3.42Z"/>
        <path class="cls-11" d="M57.84,49.48c1.89-.3,10.57,1.29,4.85,2.52-2.11.58-11.22-.94-4.85-2.52Z"/>
        <path class="cls-11" d="M72.57,63.6c-.35,2.32-.97,4.83-2.23,6.86-4.48,2.35,1.47-12.15,2.23-6.86Z"/>
        <path class="cls-11" d="M79.92,34.27c-.61,1.5-.62,8.94-3,6.44-.52-2.01.87-11.82,3-6.44Z"/>
        <path class="cls-11" d="M74.57,68.73c-.1-1.42-.04-8.31,2.01-4.77,1.42,3.02-.76,12.85-2.01,4.77Z"/>
        <path class="cls-11" d="M82.25,61.3c.29-2.1,2.84.64,3.38,1.51,7.35,8.31-2.31,3.94-3.38-1.51Z"/>
        <path class="cls-11" d="M90.99,51.93c-9.7.2.21-3.6,4.05-2.38,2.49,1.97-2.75,2.55-4.05,2.38Z"/>
        <path class="cls-11" d="M67.78,44.18c-.72,2.18-3.22-1.04-4.32-1.55-7.71-7.16,3.04-2.9,4.32,1.55Z"/>
      </g>
    </g>
  </g>
  <g id="Top_BGS" data-name="Top BGS">
    <path class="cls-8" d="M120.38,56.94c.5,4.1.15,8.15-1.54,11.66-.31.66-.67,1.29-1.08,1.9-.4.61-.86,1.19-1.36,1.76-5.39,6.01-14.39,6.72-21.76,10.02-4.2,1.88-7.95,4.65-12.04,6.74-2.2,1.13-4.5,2.02-6.87,2.67l-.41.11c-.72.2-1.45.37-2.18.52h0c-.62.13-1.23.24-1.86.33-.11.03-.22.04-.33.05-.88.13-1.76.23-2.65.31-.4.03-.8.06-1.21.08-5.14.27-10.36-.41-15.32-1.95-.44-.13-.89-.28-1.32-.43,0,0,0,0-.01,0-.06-.01-.12-.04-.18-.06-.12-.04-.25-.08-.36-.12-.15-.05-.3-.1-.44-.16-.38-.13-.75-.28-1.12-.43-.83-.33-1.66-.69-2.47-1.06-.46-.21-.91-.44-1.36-.67-1.11-.56-2.19-1.18-3.25-1.83-1.05-.64-2.06-1.33-3.05-2.07-1.27-.95-2.49-1.97-3.64-3.06-.42-.4-.84-.81-1.24-1.23-.42-.43-.83-.87-1.23-1.32-1.08-1.21-2.07-2.49-2.98-3.83-.72-1.07-1.39-2.17-2-3.32-.09-.16-.18-.33-.26-.5-2.91-5.67-4.45-11.88-5.17-18.23C14.42,51.6,7.17,50.28,0,48.92v92.82h141.73V52.41c-7.03,1.96-14.15,3.45-21.36,4.53Z"/>
  </g>
  <g id="Texts">
    <g>
      <rect class="cls-5" x="0" y="87.41" width="141.73" height="54.32"/>
      <path class="cls-2" d="M53.25,109.66c-.16-.46.05-.77.54-.77h.85c.38,0,.64.18.75.56l2.32,6.85c.21.66.43,1.66.43,1.66h.03s.21-1.01.43-1.66l2.35-6.85c.1-.38.35-.56.74-.56h.82c.5,0,.7.3.54.77l-3.63,10.07c-.13.37-.37.53-.75.53h-1.02c-.38,0-.62-.16-.75-.53l-3.65-10.07Z"/>
      <path class="cls-2" d="M64.27,110.04v-.48c0-.43.22-.67.66-.67h.7c.43,0,.67.24.67.67v.48c0,.43-.24.66-.67.66h-.7c-.43,0-.66-.22-.66-.66ZM64.27,112.76c0-.43.22-.67.66-.67h.7c.43,0,.66.24.66.67v6.82c0,.45-.22.67-.66.67h-.7c-.43,0-.66-.22-.66-.67v-6.82Z"/>
      <path class="cls-2" d="M67.95,118.7l.19-.29c.24-.34.51-.37.91-.16.38.21.99.56,1.83.56.7,0,1.14-.32,1.14-.83,0-1.33-4.05-.83-4.05-3.63,0-1.6,1.41-2.45,3.12-2.45,1.09,0,1.84.35,2.27.59.37.19.42.53.24.9l-.16.29c-.19.38-.5.43-.9.26-.35-.16-.88-.4-1.55-.4s-1.1.29-1.1.8c0,1.34,4.05.82,4.05,3.6,0,1.44-1.22,2.51-3.11,2.51-1.31,0-2.22-.5-2.72-.83-.37-.21-.4-.56-.16-.91Z"/>
      <path class="cls-2" d="M75.91,113.82h-.43c-.43,0-.66-.22-.66-.67v-.27c0-.43.22-.67.67-.67h.46v-1.66c0-.43.24-.67.67-.67h.64c.43,0,.67.24.67.67v1.66h1.18c.43,0,.67.24.67.67v.27c0,.45-.24.67-.66.67h-1.2v3.17c0,1.22.75,1.46,1.31,1.52.5.05.67.21.67.66v.5c0,.48-.27.67-.83.67-1.46,0-3.18-.78-3.18-2.99v-3.52Z"/>
      <path class="cls-2" d="M85.43,115.21h.34v-.19c0-1.07-.69-1.44-1.52-1.44-.69,0-1.31.26-1.7.46-.4.18-.7.11-.9-.27l-.16-.3c-.19-.37-.13-.69.26-.9.53-.27,1.46-.67,2.67-.67,2.11,0,3.38,1.18,3.38,3.25v4.43c0,.45-.22.67-.67.67h-.54c-.43,0-.66-.22-.66-.67v-.32c0-.22.03-.35.03-.35h-.03s-.77,1.54-2.56,1.54c-1.49,0-2.71-.96-2.71-2.45,0-2.39,2.95-2.79,4.77-2.79ZM83.91,118.89c1.14,0,1.87-1.15,1.87-2.15v-.3h-.34c-1.02,0-2.77.16-2.77,1.38,0,.54.42,1.07,1.23,1.07Z"/>
    </g>
  </g>
</svg>