<?xml version="1.0" encoding="UTF-8"?>
<svg xmlns="http://www.w3.org/2000/svg" viewBox="0 0 141.73 141.73">
  <defs>
    <style>
      .cls-1 {
        fill: #f1f2f2;
      }

      .cls-2 {
        fill: #735440;
      }

      .cls-3 {
        fill: #4cc2e7;
      }

      .cls-4 {
        fill: #31302d;
      }

      .cls-5 {
        fill: #fec44a;
      }

      .cls-6 {
        fill: none;
      }

      .cls-7 {
        fill: #1f3a6e;
        stroke: #1f3a6e;
        stroke-miterlimit: 10;
        stroke-width: .5px;
      }

      .cls-8 {
        fill: #30302e;
      }

      .cls-9 {
        fill: #ffd054;
      }

      .cls-10 {
        fill: #fed054;
      }

      .cls-11 {
        fill: #ef666a;
      }
    </style>
  </defs>
  <g id="Bottom_BGS" data-name="Bottom BGS">
    <path class="cls-7" d="M26.05,52.09c3.71-6.01,9.36-10.52,14.97-14.81,7.89-6.03,16.05-11.9,25.24-15.68,9.19-3.77,19.6-5.32,29.12-2.46,13.92,4.18,23.06,18.32,24.64,32.35.32,2.88,0,5.99-.86,9.1,7.56-.6,15.09-1.45,22.58-2.57V0H0v55.23c7.73.98,15.5,1.91,23.29,2.74.7-2.05,1.62-4.03,2.76-5.88Z"/>
  </g>
  <g id="Elements">
    <g>
      <path class="cls-9" d="M39.02,20.15c4.73-2.94,9.89-4.44,15.45-4.42,13.69.04,25.49,9.69,28.19,23.11,1.56,7.75.09,14.98-4.14,21.66-.02.04-.07.06-.11.09-.11-.17-.22-.13-.37-.04-1.1.63-2.23,1.18-3.39,1.67-2.59,1.09-5.3,1.77-8.08,2.04-1.58.15-3.18.27-4.8.08-1.44-.17-2.89-.3-4.31-.6-3.08-.65-5.96-1.82-8.65-3.43-1.18-.71-2.37-1.42-3.36-2.41.3,0,.59-.02.89-.02,5.93,0,11.85,0,17.78,0,.28,0,.6.13.85-.12-.22-2.94-1.33-5.51-3.23-7.75-3.51-4.12-9.27-4.64-13.44-1.2-2.44,2.02-3.75,4.69-4.38,7.74-.75-.31-1.1-1.03-1.62-1.58-2.71-2.87-4.66-6.21-5.96-9.92-.83-2.39-1.3-4.85-1.51-7.38-.23-2.64,0-5.22.45-7.81.18-1.07.57-2.08.8-3.31-.8.54-1.39,1.08-1.99,1.62-.52.48-.9,1.13-1.6,1.41l-.02-.02c.9-1.57,2.11-2.9,3.42-4.13.62-.58,1.22-1.13,1.49-1.96.19-.59.53-1.11.81-1.66.25-.49.72-.9.68-1.52,0,0,0,.02,0,.02.06-.05.12-.1.17-.15ZM49.72,34.24c-.14-.15-.27-.3-.41-.44-1.51-1.51-3.02-3.02-4.53-4.53-.49-.49-1-1.33-1.5-1.33-.5,0-.98.89-1.51,1.33-.43.36-.31.58.03.92,1.51,1.47,2.98,2.99,4.49,4.46.51.49.97,1.44,1.55,1.34.6-.1,1.08-.94,1.61-1.46.09-.09.16-.19.26-.3ZM67.4,29.72c-.12-.14-.22-.25-.32-.35-.38-.39-.8-.75-1.15-1.17-.31-.37-.51-.37-.86-.01-1.49,1.53-3.02,3.02-4.52,4.54-.5.5-1.42.96-1.35,1.54.06.56.92,1.03,1.4,1.56.25.27.41.32.71.03,1.92-1.94,3.86-3.87,5.79-5.8.1-.1.19-.21.3-.34ZM45.89,39.25c-.05-1.02-.21-2.02-.85-2.86-.77-1.01-1.84-1-2.61,0-1.09,1.42-1.09,4.27,0,5.68.77,1,1.85,1,2.61-.02.62-.83.79-1.8.84-2.81ZM67.18,39.34c0-1.09-.31-2.19-.75-2.82-.78-1.13-1.93-1.17-2.75-.07-1.06,1.42-1.04,4.21.04,5.62.79,1.03,1.89,1.01,2.65-.05.6-.84.75-1.81.81-2.67Z"/>
      <path class="cls-5" d="M38.85,20.27c.04.62-.42,1.03-.68,1.52-.28.55-.62,1.07-.81,1.66-.27.83-.88,1.38-1.49,1.96-1.3,1.23-2.51,2.56-3.42,4.13-.02.02-.04.05-.05.07l.07-.05c.7-.28,1.08-.93,1.6-1.41.59-.55,1.19-1.08,1.99-1.62-.23,1.23-.62,2.24-.8,3.31-.44,2.59-.68,5.17-.45,7.81.22,2.53.68,4.99,1.51,7.38,1.3,3.71,3.25,7.05,5.96,9.92.52.55.87,1.27,1.62,1.58-.02.41-.19.82-.08,1.24.53.22,1.08.02,1.62.12.99.98,2.17,1.69,3.36,2.41,2.69,1.62,5.57,2.78,8.65,3.43,1.42.3,2.87.43,4.31.6,1.62.19,3.22.08,4.8-.08,2.78-.27,5.49-.94,8.08-2.04,1.17-.49,2.3-1.05,3.39-1.67.15-.09.26-.12.37.04-1.64,2.62-3.75,4.8-6.16,6.71-4.01,3.19-8.56,5.2-13.62,5.88-8.99,1.22-16.96-1.18-23.72-7.26-5.05-4.54-8.11-10.25-9.1-16.95-1.22-8.31.82-15.83,6.02-22.46,1.81-2.3,3.96-4.24,6.38-5.89.2-.14.43-.24.65-.36ZM32.18,30.01s.04-.05.06-.08c-.02.02-.05.04-.07.06-.02.02-.04.05-.05.07.02-.02.05-.04.07-.05Z"/>
      <path class="cls-5" d="M39.02,20.15c-.06.05-.11.1-.17.15.06-.05.12-.1.17-.15Z"/>
      <path class="cls-2" d="M43.82,57.78c-.11-.42.06-.82.08-1.24.63-3.05,1.94-5.72,4.38-7.74,4.16-3.44,9.93-2.92,13.44,1.2,1.9,2.24,3.01,4.81,3.23,7.75-.1-.07-.2-.15-.29-.22-3.77-3-7.99-4.25-12.78-3.39-2.99.54-5.61,1.9-8.06,3.63Z"/>
      <path class="cls-11" d="M43.82,57.78c2.45-1.73,5.07-3.09,8.06-3.63,4.79-.87,9.01.39,12.78,3.39.1.08.2.15.29.22-.25.25-.57.12-.85.12-5.93,0-11.85,0-17.78,0-.3,0-.59.01-.89.02-.54-.1-1.09.09-1.62-.12Z"/>
      <path class="cls-4" d="M49.72,34.24c-.09.11-.17.21-.26.3-.53.52-1.01,1.36-1.61,1.46-.59.1-1.05-.85-1.55-1.34-1.51-1.48-2.98-2.99-4.49-4.46-.35-.34-.47-.56-.03-.92.53-.44,1-1.33,1.51-1.33.5,0,1.01.84,1.5,1.33,1.51,1.51,3.02,3.02,4.53,4.53.14.14.27.29.41.44Z"/>
      <path class="cls-4" d="M67.4,29.72c-.12.13-.2.24-.3.34-1.93,1.93-3.87,3.86-5.79,5.8-.29.3-.46.24-.71-.03-.49-.53-1.34-1-1.4-1.56-.06-.58.86-1.04,1.35-1.54,1.5-1.52,3.03-3.01,4.52-4.54.35-.36.55-.35.86.01.35.41.77.78,1.15,1.17.1.1.2.21.32.35Z"/>
      <path class="cls-4" d="M45.89,39.25c-.06,1.01-.23,1.98-.84,2.81-.76,1.01-1.83,1.01-2.61.02-1.1-1.42-1.1-4.26,0-5.68.77-1,1.84-1.01,2.61,0,.65.84.8,1.84.85,2.86Z"/>
      <path class="cls-4" d="M67.18,39.34c-.06.86-.2,1.84-.81,2.67-.76,1.06-1.86,1.08-2.65.05-1.08-1.41-1.1-4.2-.04-5.62.82-1.09,1.97-1.06,2.75.07.43.63.74,1.73.75,2.82Z"/>
      <path class="cls-9" d="M32.48,29.57l-.07.05s.04-.05.05-.07c0,0,.02.02.02.02Z"/>
      <path class="cls-9" d="M32.16,29.99s.05-.04.07-.06c-.02.03-.04.05-.06.08l-.02-.02Z"/>
      <path class="cls-9" d="M32.18,30.01s-.05.04-.07.05c.02-.02.04-.05.05-.07,0,0,.02.02.02.02Z"/>
    </g>
    <g>
      <path class="cls-10" d="M83.36,50.65c2.8-1.74,5.82-2.87,9.11-3.26,5.72-.68,10.96.62,15.61,4,4.88,3.55,7.86,8.33,8.83,14.3.92,5.6-.25,10.79-3.27,15.57-.03.05-.08.08-.12.12-.22-.02-.41.07-.59.17-1.63.97-3.4,1.6-5.22,2.11,0-.26-.02-.53-.02-.79.03-4.66.06-9.32.1-13.98.36-.75.29-1.03-.36-1.55-.96-.76-1.93-1.51-2.94-2.3,1.07-.63,2.09-1.23,3.11-1.84.6-.36.78-.88.5-1.36-.29-.5-.82-.6-1.43-.24-1.37.8-2.73,1.6-4.1,2.41-.68.41-.78.68-.54,1.45,0,4.5,0,9-.02,13.5,0,1.83-.01,3.67-.02,5.5-.46-.2-.97-.18-1.44-.2-1.88-.09-3.69-.52-5.45-1.11-2.45-.82-4.66-2.1-6.7-3.68,0-.25-.02-.49-.02-.74,0-4.41-.01-8.83-.02-13.24.24-.72.16-1.06-.42-1.4-1.43-.85-2.86-1.69-4.3-2.53-.25-.15-.52-.23-.81-.12-.37.14-.6.39-.64.79-.04.42.15.73.51.94,1.05.62,2.11,1.24,3.17,1.87-.04.07-.05.1-.08.12-.94.73-1.88,1.46-2.82,2.19-.68.53-.74.78-.37,1.55,0,1.06-.02,2.12-.02,3.18-.05-.08-.12-.15-.16-.23-1.64-3.42-2.37-7.02-2.13-10.82.11-1.72.39-3.39.85-5.04.03-.12.13-.26-.02-.35-.14-.08-.25.03-.34.12-.53.49-1.05.98-1.58,1.46-.22.2-.36.49-.7.55,0,0-.02-.02-.02-.02.4-.75.91-1.44,1.53-2,1.27-1.16,2.32-2.46,2.94-4.07.05-.14.15-.26.23-.39.13-.19.22-.39.18-.63ZM98.5,78.26c.63-1.74.82-3.52.56-5.36-.19-1.33-.59-2.58-1.38-3.68-1.4-1.95-3.51-1.96-4.94-.03-.15.2-.27.41-.4.62-.73,1.28-1.02,2.67-1.11,4.12-.09,1.41.17,2.78.57,4.13.29.76.67,1.48,1.21,2.08.77.86,2.08,1.57,3.48.73,1.03-.62,1.57-1.58,2.02-2.63Z"/>
      <path class="cls-5" d="M78.5,57.76c.33-.05.48-.35.7-.55.53-.48,1.05-.97,1.58-1.46.1-.09.2-.2.34-.12.15.09.06.23.02.35-.46,1.65-.74,3.32-.85,5.04-.24,3.81.49,7.4,2.13,10.82.04.08.11.15.16.23.02,1.44.06,2.87.07,4.31.02,3.65.03,7.3.05,10.95-4.38-3.04-7.38-7.11-8.71-12.26-2.14-8.28-.11-15.54,5.87-21.66,1.04-1.07,2.22-2,3.52-2.76.04.24-.05.44-.18.63-.08.13-.18.25-.23.39-.63,1.62-1.67,2.91-2.94,4.07-.62.56-1.13,1.25-1.53,2-.14.07-.22.18-.23.34-.09.05-.11.14-.11.23,0,.02-.01.04-.02.06.01-.02.02-.03.03-.05.04-.07.08-.15.12-.22.22-.02.22-.18.23-.34Z"/>
      <path class="cls-3" d="M82.69,87.34c-.02-3.65-.03-7.3-.05-10.95,0-1.44-.04-2.87-.07-4.31,0-1.06.02-2.12.02-3.18.45.35.9.42,1.38.04,1.46-1.15,2.92-2.3,4.39-3.44,0,4.41,0,8.83.02,13.24,0,.25.01.49.02.74,0,.23-.02.45-.02.68,0,3.33,0,6.67,0,10-2.06-.6-3.95-1.55-5.69-2.81Z"/>
      <path class="cls-3" d="M101.99,84.46c0-1.83.02-3.67.02-5.5,0-4.5.01-9,.02-13.5,1.43,1.13,2.87,2.25,4.3,3.38.59.46.82.47,1.46.05-.03,4.66-.07,9.32-.1,13.98,0,.26.01.53.02.79,0,1.23,0,2.45-.01,3.68-1.74,1.24-3.62,2.2-5.68,2.8-.01-.04-.02-.07-.03-.11,0-1.86,0-3.72,0-5.58Z"/>
      <path class="cls-5" d="M101.99,84.46c0,1.86,0,3.72,0,5.58-.03.04-.06.08-.09.12-1.11.49-2.31.69-3.5.87-3.31.49-6.58.22-9.78-.77-.09-.03-.17-.07-.26-.11,0-3.33,0-6.67,0-10,0-.23.01-.45.02-.68,2.04,1.58,4.25,2.86,6.7,3.68,1.77.59,3.57,1.02,5.45,1.11.47.02.98,0,1.44.2Z"/>
      <path class="cls-5" d="M107.7,87.35c0-1.23,0-2.45.01-3.68,1.82-.51,3.59-1.14,5.22-2.11.18-.11.37-.19.59-.17-1.12,1.83-2.58,3.35-4.19,4.73-.52.44-1.05.87-1.63,1.22Z"/>
      <path class="cls-10" d="M101.9,90.17s.06-.08.09-.12c.01.04.02.07.03.11-.04,0-.08,0-.12.01Z"/>
      <path class="cls-2" d="M91.79,78.07c-.4-1.35-.65-2.72-.57-4.13.09-1.45.38-2.84,1.11-4.12.12-.21.25-.42.4-.62,1.43-1.93,3.54-1.92,4.94.03.79,1.1,1.19,2.35,1.38,3.68.27,1.83.07,3.62-.56,5.36-.27.02-.45-.17-.66-.28-1.12-.55-2.27-.83-3.53-.67-.9.11-1.67.52-2.51.77Z"/>
      <path class="cls-8" d="M88.36,65.5c-1.46,1.15-2.93,2.29-4.39,3.44-.48.38-.93.31-1.38-.04-.36-.76-.31-1.02.37-1.55.94-.73,1.88-1.46,2.82-2.19.03-.02.04-.06.08-.12-1.06-.62-2.11-1.24-3.17-1.87-.36-.21-.55-.52-.51-.94.04-.4.27-.65.64-.79.29-.11.56-.02.81.12,1.43.84,2.87,1.67,4.3,2.53.58.34.66.69.42,1.4Z"/>
      <path class="cls-8" d="M107.8,68.9c-.65.41-.87.41-1.46-.05-1.44-1.12-2.87-2.25-4.3-3.38-.24-.77-.14-1.05.54-1.45,1.36-.81,2.73-1.61,4.1-2.41.61-.35,1.13-.26,1.43.24.29.49.11,1-.5,1.36-1.02.61-2.04,1.21-3.11,1.84,1.01.79,1.98,1.54,2.94,2.3.66.52.72.8.36,1.55Z"/>
      <path class="cls-5" d="M91.79,78.07c.84-.25,1.62-.66,2.51-.77,1.27-.15,2.42.13,3.53.67.21.1.39.3.66.28-.44,1.05-.99,2.01-2.02,2.63-1.4.84-2.7.13-3.48-.73-.54-.6-.92-1.32-1.21-2.08Z"/>
      <path class="cls-10" d="M78.25,58.09c0-.16.09-.27.23-.34,0,0,.02.02.02.02,0,.16-.01.32-.23.34,0,0-.01-.01-.01-.01Z"/>
      <path class="cls-10" d="M78.14,58.32c0-.09.03-.18.11-.23,0,0,.01.01.01.01-.04.07-.08.15-.12.22h0Z"/>
      <path class="cls-10" d="M78.15,58.33s-.02.03-.03.05c0-.02.01-.04.02-.06,0,0,0,0,0,0Z"/>
    </g>
  </g>
  <g id="Top_BGS" data-name="Top BGS">
    <path class="cls-7" d="M119.15,60.59c-2.75,10.04-10.96,20.04-20.39,21.83-8.13,1.55-17.4-2.3-24.38,2.15-4.16,2.65-6.29,7.65-10.22,10.64-2.99,2.28-6.82,3.23-10.58,3.42-11.06.56-22.2-5.42-27.84-14.95-4.53-7.66-5.33-17.32-2.46-25.71-7.79-.83-15.56-1.75-23.29-2.74v86.5h141.73V58.02c-7.5,1.12-15.03,1.97-22.58,2.57Z"/>
  </g>
  <g id="Texts">
    <g>
      <rect class="cls-6" x="0" y="87.41" width="141.73" height="54.32"/>
      <path class="cls-1" d="M9.71,108.7c1.86,0,3.1.7,3.71,1.14.34.26.35.58.13.93l-.29.46c-.22.37-.53.4-.91.16-.5-.32-1.39-.8-2.56-.8-2.48,0-3.81,1.81-3.81,3.91s1.38,4.07,3.83,4.07c1.28,0,2.26-.61,2.79-.99.35-.26.67-.26.93.11l.32.43c.24.32.22.66-.1.93-.64.51-2,1.41-4.02,1.41-3.57,0-5.87-2.58-5.87-5.92s2.42-5.83,5.86-5.83Z"/>
      <path class="cls-1" d="M19.32,111.9c2.48,0,4.5,1.78,4.5,4.27s-2.02,4.27-4.5,4.27-4.48-1.76-4.48-4.27,2-4.27,4.48-4.27ZM19.32,118.72c1.33,0,2.43-1.02,2.43-2.54s-1.1-2.54-2.43-2.54-2.42,1.04-2.42,2.54,1.09,2.54,2.42,2.54Z"/>
      <path class="cls-1" d="M25.31,112.76c0-.43.22-.67.66-.67h.62c.43,0,.66.24.66.67v.5c0,.18-.03.37-.03.37h.03c.4-.8,1.39-1.73,2.67-1.73s2.05.58,2.38,1.68h.03c.43-.85,1.5-1.68,2.79-1.68,1.7,0,2.67.96,2.67,3.11v4.58c0,.45-.24.67-.67.67h-.69c-.45,0-.67-.22-.67-.67v-4.19c0-.93-.18-1.63-1.12-1.63-1.38,0-2.08,1.41-2.08,2.83v2.99c0,.45-.22.67-.66.67h-.71c-.43,0-.67-.22-.67-.67v-4.19c0-.88-.13-1.63-1.09-1.63-1.44,0-2.11,1.47-2.11,2.83v2.99c0,.45-.22.67-.66.67h-.7c-.43,0-.66-.22-.66-.67v-6.82Z"/>
      <path class="cls-1" d="M39.67,112.76c0-.43.24-.67.67-.67h.51c.43,0,.66.24.66.56v.37c0,.18-.02.32-.02.32h.03s.72-1.44,2.62-1.44c2.21,0,3.63,1.74,3.63,4.27s-1.6,4.27-3.75,4.27c-1.7,0-2.35-1.25-2.35-1.25h-.03s.05.29.05.7v2.88c0,.45-.22.67-.67.67h-.69c-.43,0-.67-.22-.67-.67v-10.02ZM43.68,118.73c1.12,0,2.05-.91,2.05-2.53s-.83-2.56-2.02-2.56c-1.06,0-2.06.77-2.06,2.58,0,1.26.7,2.51,2.03,2.51Z"/>
      <path class="cls-1" d="M53.29,111.9c2.48,0,4.5,1.78,4.5,4.27s-2.02,4.27-4.5,4.27-4.48-1.76-4.48-4.27,2-4.27,4.48-4.27ZM53.29,118.72c1.33,0,2.43-1.02,2.43-2.54s-1.1-2.54-2.43-2.54-2.42,1.04-2.42,2.54,1.09,2.54,2.42,2.54Z"/>
      <path class="cls-1" d="M59.28,112.76c0-.43.22-.67.66-.67h.62c.43,0,.67.24.67.67v.77c0,.3-.05.56-.05.56h.03c.32-.98,1.22-2.06,2.37-2.06.45,0,.61.22.61.67v.62c0,.43-.26.67-.69.67-1.49,0-2.21,1.47-2.21,2.96v2.62c0,.45-.22.67-.66.67h-.7c-.43,0-.66-.22-.66-.67v-6.82Z"/>
      <path class="cls-1" d="M65.72,113.82h-.43c-.43,0-.66-.22-.66-.67v-.27c0-.43.22-.67.67-.67h.46v-1.66c0-.43.24-.67.67-.67h.64c.43,0,.67.24.67.67v1.66h1.18c.43,0,.67.24.67.67v.27c0,.45-.24.67-.66.67h-1.2v3.17c0,1.22.75,1.46,1.31,1.52.5.05.67.21.67.66v.5c0,.48-.27.67-.83.67-1.46,0-3.18-.78-3.18-2.99v-3.52Z"/>
      <path class="cls-1" d="M75.24,115.21h.34v-.19c0-1.07-.69-1.44-1.52-1.44-.69,0-1.31.26-1.7.46-.4.18-.7.11-.9-.27l-.16-.3c-.19-.37-.13-.69.26-.9.53-.27,1.46-.67,2.67-.67,2.11,0,3.38,1.18,3.38,3.25v4.43c0,.45-.22.67-.67.67h-.54c-.43,0-.66-.22-.66-.67v-.32c0-.22.03-.35.03-.35h-.03s-.77,1.54-2.56,1.54c-1.49,0-2.71-.96-2.71-2.45,0-2.39,2.95-2.79,4.77-2.79ZM73.72,118.89c1.14,0,1.87-1.15,1.87-2.15v-.3h-.34c-1.02,0-2.77.16-2.77,1.38,0,.54.42,1.07,1.23,1.07Z"/>
      <path class="cls-1" d="M79.5,112.76c0-.43.22-.67.66-.67h.62c.43,0,.66.24.66.67v.5c0,.18-.03.37-.03.37h.03c.4-.8,1.39-1.73,2.67-1.73s2.05.58,2.38,1.68h.03c.43-.85,1.5-1.68,2.79-1.68,1.7,0,2.67.96,2.67,3.11v4.58c0,.45-.24.67-.67.67h-.69c-.45,0-.67-.22-.67-.67v-4.19c0-.93-.18-1.63-1.12-1.63-1.38,0-2.08,1.41-2.08,2.83v2.99c0,.45-.22.67-.66.67h-.71c-.43,0-.67-.22-.67-.67v-4.19c0-.88-.13-1.63-1.09-1.63-1.44,0-2.11,1.47-2.11,2.83v2.99c0,.45-.22.67-.66.67h-.7c-.43,0-.66-.22-.66-.67v-6.82Z"/>
      <path class="cls-1" d="M97.52,111.9c2.32,0,3.62,1.65,3.62,3.89,0,.35-.3.69-.7.69h-4.98c.13,1.47,1.22,2.24,2.45,2.24.75,0,1.38-.29,1.76-.53.4-.19.69-.14.9.22l.19.32c.19.37.13.69-.22.9-.53.34-1.49.82-2.77.82-2.71,0-4.39-1.95-4.39-4.27,0-2.51,1.7-4.27,4.15-4.27ZM99.12,115.24c-.03-1.14-.72-1.81-1.65-1.81-1.04,0-1.78.72-1.97,1.81h3.62Z"/>
      <path class="cls-1" d="M102.6,112.76c0-.43.22-.67.66-.67h.62c.43,0,.66.24.66.67v.5c0,.18-.03.37-.03.37h.03c.35-.69,1.25-1.73,2.9-1.73,1.81,0,2.85.94,2.85,3.11v4.58c0,.45-.22.67-.67.67h-.69c-.43,0-.67-.22-.67-.67v-4.16c0-.99-.26-1.66-1.28-1.66-1.44,0-2.35,1.2-2.35,2.67v3.15c0,.45-.22.67-.66.67h-.7c-.43,0-.66-.22-.66-.67v-6.82Z"/>
      <path class="cls-1" d="M112.55,113.82h-.43c-.43,0-.66-.22-.66-.67v-.27c0-.43.22-.67.67-.67h.46v-1.66c0-.43.24-.67.67-.67h.64c.43,0,.67.24.67.67v1.66h1.18c.43,0,.67.24.67.67v.27c0,.45-.24.67-.66.67h-1.2v3.17c0,1.22.75,1.46,1.31,1.52.5.05.67.21.67.66v.5c0,.48-.27.67-.83.67-1.46,0-3.18-.78-3.18-2.99v-3.52Z"/>
      <path class="cls-1" d="M122.08,115.21h.34v-.19c0-1.07-.69-1.44-1.52-1.44-.69,0-1.31.26-1.7.46-.4.18-.7.11-.9-.27l-.16-.3c-.19-.37-.13-.69.26-.9.53-.27,1.46-.67,2.67-.67,2.11,0,3.38,1.18,3.38,3.25v4.43c0,.45-.22.67-.67.67h-.54c-.43,0-.66-.22-.66-.67v-.32c0-.22.03-.35.03-.35h-.03s-.77,1.54-2.56,1.54c-1.49,0-2.71-.96-2.71-2.45,0-2.39,2.95-2.79,4.77-2.79ZM120.56,118.89c1.14,0,1.87-1.15,1.87-2.15v-.3h-.34c-1.02,0-2.77.16-2.77,1.38,0,.54.42,1.07,1.23,1.07Z"/>
      <path class="cls-1" d="M126.31,109.56c0-.43.22-.67.66-.67h.7c.43,0,.66.24.66.67v7.99c0,.8.34.94.64.98.29.03.5.21.5.58v.54c0,.42-.19.69-.67.69-1.09,0-2.48-.29-2.48-2.62v-8.15Z"/>
      <path class="cls-1" d="M134.44,111.9c2.32,0,3.62,1.65,3.62,3.89,0,.35-.3.69-.7.69h-4.98c.13,1.47,1.22,2.24,2.45,2.24.75,0,1.38-.29,1.76-.53.4-.19.69-.14.9.22l.19.32c.19.37.13.69-.22.9-.53.34-1.49.82-2.77.82-2.71,0-4.39-1.95-4.39-4.27,0-2.51,1.7-4.27,4.15-4.27ZM136.04,115.24c-.03-1.14-.72-1.81-1.65-1.81-1.04,0-1.78.72-1.97,1.81h3.62Z"/>
    </g>
  </g>
</svg>