<?xml version="1.0" encoding="UTF-8"?>
<svg xmlns="http://www.w3.org/2000/svg" viewBox="0 0 141.73 141.73">
  <defs>
    <style>
      .cls-1 {
        fill: #f1f2f2;
      }

      .cls-2 {
        fill: none;
      }

      .cls-3 {
        fill: #4893d0;
      }

      .cls-4 {
        fill: #a1b860;
        stroke: #a1b860;
        stroke-miterlimit: 10;
        stroke-width: .5px;
      }

      .cls-5 {
        fill: #a5d3f1;
      }
    </style>
  </defs>
  <g id="Bottom_BGS" data-name="Bottom BGS">
    <path class="cls-4" d="M21.18,38.6c.47-18.96,18.13-24.44,34.47-19.35.31.1.61.19.92.3,7.38,2.49,14.42,6.35,21.94,8,1.49.33,3,.57,4.54.69.65.05,1.31.08,1.97.1.01,0,.02,0,.03,0,1.67.04,3.35-.01,5.03-.06.81-.03,1.62-.05,2.42-.07,3.33-.06,6.61.08,9.73,1.18,6.6,2.33,11.05,8.51,14.17,14.77.71,1.44,1.37,2.95,1.94,4.5.64,1.73,1.17,3.52,1.56,5.31.52,2.43.77,4.88.67,7.25,7.07-.63,14.12-1.29,21.17-1.89V0H0v58.14c7.81,1.93,15.67,3.36,23.57,4.39-2.16-7.67-2.59-15.9-2.39-23.92Z"/>
  </g>
  <g id="Elements">
    <g>
      <path class="cls-3" d="M114.03,66.92c-1.2,9.38-3.37,18.47-8.1,26.78-1.61,2.83-1.63,2.82-4.82,2.82-25.28,0-50.55,0-75.83.02-.94,0-1.29-.16-1.25-1.2.09-2.48.04-4.96.02-7.45,0-.56.12-.78.73-.84,4.64-.47,9.25-1.14,13.78-2.28,6.89-1.73,13.41-4.3,19.12-8.64,6.68-5.08,10.91-11.75,12.81-19.91.08-.35.15-.7.22-1.05,1.69.75,2.91,2.08,4.04,3.45,4.09,4.97,4.83,10.78,3.91,16.88-.82,5.47-2.97,10.5-5.67,15.3-1,1.78-2.06,3.54-3.09,5.31-.03.04-.06.07-.08.11.04-.03.07-.06.11-.09.51-.07.89-.38,1.3-.64,3.41-2.2,6.52-4.75,9.31-7.71,4.97-5.28,8.53-11.24,9.21-18.64.37-4,.13-7.94-1.23-11.75-.64-1.78-1.61-3.36-3.29-4.37-1.74-1.05-3.6-1.2-5.55-.66-.27.08-.79.43-.71-.39.37-4.18-1.15-7.42-4.8-9.62-.9-.54-1.94-.76-2.83-1.31-.49-6.49-2.08-12.73-4.21-18.85-.06-.18-.11-.37-.17-.56,1.49.15,2.95.47,4.41.79,10.26,2.29,18.98,7.22,25.98,15.14,5.69,6.42,9.79,13.8,13.3,21.55,1.16,2.58,2.25,5.19,3.37,7.79Z"/>
      <path class="cls-5" d="M114.03,66.92c-1.12-2.6-2.2-5.21-3.37-7.79-3.5-7.75-7.61-15.13-13.3-21.55-7.01-7.92-15.72-12.84-25.98-15.14-1.46-.33-2.92-.64-4.41-.79-1.97-.16-3.94-.5-5.93-.38-5.01.3-9.9,1.09-14.14,4.06-3.13,2.19-4.88,5.21-5.42,8.99-.17,1.18-.12,2.34-.16,3.51-.02.44-.02.8-.65.56-4.39-1.65-7.84-4.25-9.03-9.07-1.22-4.93,1.22-12.61,6.57-15.02,2.62-1.18,5.35-1.55,8.19-1.1.69.11,1.2.03,1.63-.67,2.47-4,6.13-6.13,10.76-6.76,6.38-.87,11.75,1.01,16.14,5.7.8.86,1.5,1.8,2.1,2.81.26.43.46.5.88.11,2.46-2.24,5.41-2.73,8.62-2.4,5.31.54,9.8,2.9,13.92,6.11,3.84,2.98,6.84,6.68,9.2,10.9,2.36,4.21,3.88,8.73,4.73,13.47.67,3.73.66,7.51.64,11.29-.02,3.94-.27,7.86-.79,11.76-.06.47.16.98-.19,1.42Z"/>
      <path class="cls-5" d="M69.92,96.11c1.03-1.77,2.09-3.52,3.09-5.31,2.7-4.8,4.85-9.83,5.67-15.3.91-6.1.17-11.92-3.91-16.88-1.13-1.37-2.35-2.71-4.04-3.45-1.62-1.42-3.59-2.09-5.64-2.48-3.37-.65-6.35.28-8.76,2.7-1.75,1.75-2.48,4.01-2.48,6.49,0,1.74,0,1.75-1.77,1.53-2.29-.28-4.46-.92-6.35-2.3-2.08-1.52-3.18-3.54-3.25-6.14-.07-2.71.5-5.23,1.92-7.55,1.75-2.84,4.42-4.02,7.62-4.19,2.47-.14,4.86.37,7.17,1.21.64.23,1.08.14,1.56-.35,2.73-2.74,6.01-3.76,9.82-3.06.25.05.52.03.78.04.89.55,1.93.77,2.83,1.31,3.65,2.2,5.17,5.44,4.8,9.62-.07.82.44.47.71.39,1.95-.53,3.81-.38,5.55.66,1.68,1.01,2.65,2.59,3.29,4.37,1.36,3.81,1.6,7.74,1.23,11.75-.68,7.4-4.24,13.36-9.21,18.64-2.79,2.96-5.9,5.51-9.31,7.71-.41.26-.79.57-1.3.64l-.02-.02Z"/>
      <path class="cls-5" d="M69.94,96.13s-.07.06-.11.09c.03-.04.06-.07.08-.11,0,0,.02.02.02.02Z"/>
    </g>
  </g>
  <g id="Top_BGS" data-name="Top BGS">
    <path class="cls-4" d="M120.57,61.22c-.11,2.6-.63,5.1-1.72,7.38-.31.66-.67,1.29-1.08,1.9-.4.61-.86,1.19-1.36,1.76-5.39,6.01-14.39,6.72-21.76,10.02-4.2,1.88-7.95,4.65-12.04,6.74-2.2,1.13-4.5,2.02-6.87,2.67l-.41.11c-.72.2-1.45.37-2.18.52h0c-.62.13-1.23.24-1.86.33-.11.03-.22.04-.33.05-.88.13-1.76.23-2.65.31-.4.03-.8.06-1.21.08-5.14.27-10.36-.41-15.32-1.95-.44-.13-.89-.28-1.32-.43,0,0,0,0-.01,0-.06-.01-.12-.04-.18-.06-.12-.04-.25-.08-.36-.12-.15-.05-.3-.1-.44-.16-.38-.13-.75-.28-1.12-.43-.83-.33-1.66-.69-2.47-1.06-.46-.21-.91-.44-1.36-.67-1.11-.56-2.19-1.18-3.25-1.83-1.05-.64-2.06-1.33-3.05-2.07-1.27-.95-2.49-1.97-3.64-3.06-.42-.4-.84-.81-1.24-1.23-.42-.43-.83-.87-1.23-1.32-1.08-1.21-2.07-2.49-2.98-3.83-.72-1.07-1.39-2.17-2-3.32-.09-.16-.18-.33-.26-.5-1.4-2.73-2.48-5.59-3.3-8.52C15.67,61.5,7.81,60.07,0,58.14v83.59h141.73V59.33c-7.04.6-14.1,1.25-21.17,1.89Z"/>
  </g>
  <g id="Texts">
    <g>
      <rect class="cls-2" x="0" y="87.41" width="141.73" height="54.32"/>
      <path class="cls-1" d="M54.36,109.53c.05-.42.27-.64.69-.64h1.01c.38,0,.62.18.75.54l2.03,5.07c.26.67.58,1.67.58,1.67h.03s.3-.99.56-1.67l2.03-5.07c.13-.37.37-.54.77-.54h.99c.42,0,.66.22.69.64l.82,10.04c.03.43-.19.69-.64.69h-.72c-.42,0-.66-.22-.69-.64l-.43-5.71c-.05-.75-.02-1.76-.02-1.76h-.03s-.35,1.1-.61,1.76l-1.65,3.87c-.13.35-.37.53-.75.53h-.67c-.4,0-.64-.18-.77-.53l-1.63-3.87c-.26-.66-.62-1.78-.62-1.78h-.03s.03,1.02-.02,1.78l-.43,5.71c-.03.42-.26.64-.69.64h-.72c-.45,0-.67-.26-.64-.69l.82-10.04Z"/>
      <path class="cls-1" d="M71.4,115.21h.34v-.19c0-1.07-.69-1.44-1.52-1.44-.69,0-1.31.26-1.7.46-.4.18-.7.11-.9-.27l-.16-.3c-.19-.37-.13-.69.26-.9.53-.27,1.46-.67,2.67-.67,2.11,0,3.38,1.18,3.38,3.25v4.43c0,.45-.22.67-.67.67h-.54c-.43,0-.66-.22-.66-.67v-.32c0-.22.03-.35.03-.35h-.03s-.77,1.54-2.56,1.54c-1.49,0-2.71-.96-2.71-2.45,0-2.38,2.95-2.79,4.77-2.79ZM69.88,118.89c1.14,0,1.87-1.15,1.87-2.14v-.3h-.34c-1.02,0-2.77.16-2.77,1.38,0,.54.42,1.07,1.23,1.07Z"/>
      <path class="cls-1" d="M75.66,112.76c0-.43.22-.67.66-.67h.62c.43,0,.67.24.67.67v.77c0,.3-.05.56-.05.56h.03c.32-.98,1.22-2.07,2.37-2.07.45,0,.61.22.61.67v.62c0,.43-.26.67-.69.67-1.49,0-2.21,1.47-2.21,2.96v2.62c0,.45-.22.67-.66.67h-.7c-.43,0-.66-.22-.66-.67v-6.82Z"/>
      <path class="cls-1" d="M85.05,111.9c2.32,0,3.62,1.65,3.62,3.89,0,.35-.3.69-.7.69h-4.98c.13,1.47,1.22,2.24,2.45,2.24.75,0,1.38-.29,1.76-.53.4-.19.69-.14.9.22l.19.32c.19.37.13.69-.22.9-.53.34-1.49.82-2.77.82-2.71,0-4.39-1.95-4.39-4.27,0-2.51,1.7-4.27,4.15-4.27ZM86.65,115.24c-.03-1.14-.72-1.81-1.65-1.81-1.04,0-1.78.72-1.97,1.81h3.62Z"/>
    </g>
  </g>
</svg>