<?xml version="1.0" encoding="UTF-8"?>
<svg xmlns="http://www.w3.org/2000/svg" viewBox="0 0 141.73 141.73">
  <defs>
    <style>
      .cls-1 {
        fill: #fecc95;
      }

      .cls-2 {
        fill: #f6f6f6;
      }

      .cls-3 {
        fill: #f1f2f2;
      }

      .cls-4 {
        fill: none;
      }

      .cls-5 {
        fill: #e5b17e;
      }

      .cls-6 {
        fill: #fcb44a;
        stroke: #fcb44a;
        stroke-miterlimit: 10;
        stroke-width: .5px;
      }
    </style>
  </defs>
  <g id="Bottom_BGS" data-name="Bottom BGS">
    <path class="cls-6" d="M0,0v49.13c6.99,1.16,13.98,2.28,20.98,3.3-.29-10.81,3.54-21.75,11.2-29.18,9.79-9.49,22.14-9.36,37.05-9.91,5.97-.21,36.56-1.34,42.93,12.87,3.85,8.57-4.55,15.01-.17,27.67.45,1.31.97,2.46,1.52,3.49,9.36-.7,18.77-1.88,28.23-3.6V0H0Z"/>
  </g>
  <g id="Elements">
    <g>
      <path class="cls-1" d="M86.59,27.94c2.64-.04,4.94.82,6.85,2.64.43.41.85.54,1.42.54,6.11-.02,12.21-.01,18.32,0,.62,0,1.25-.05,1.78.38-.54,1.9-1.79,2.85-3.76,2.85-8.76,0-17.53,0-26.29,0-.27,0-.54-.02-.8.01-.87.1-1.51.94-1.4,1.75.17,1.2.26,2.4.34,3.61.11,1.5.23,3,.38,4.5.28,2.82.48,5.65.66,8.48.1,1.62.3,3.25.2,4.88-.02.28.11.52.22.76,2.09,4.42,14.73,4.5,16.84,8.92,1.71,3.59-4.98,10.13-7.31,11.96-2.05,1.16-7.14,5-7.56,5.21-.5-.44-2.27-1.48-1.89-2.02,5.63-5.74,11.18-6.8,12.48-12.71.13-.61-17.53-5.03-18.15-5.16-.59-.93-1.72-1.43-2.71-1.19-1.61.39-2.43,1.43-2.44,3.12,0,7.6,0,15.2,0,22.81,0,1.17-.44,1.6-1.61,1.61-1.48,0-2.97,0-4.45,0,.58-.79,1.13-1.6,1.75-2.35.34-.41.46-.79.34-1.3-1.1-4.52-1.93-9.09-2.57-13.7-.47-3.34-.81-6.7-.99-10.08-.15-2.64-.22-5.29-.09-7.92.15-3.13.52-6.25.8-9.38.13-1.5.27-3.01.41-4.51.19-.96.34-1.92.35-2.89,0-.38.06-.77-.14-1.13-.86-1.55-1.66-3.13-2.74-4.56,0-.04,0-.08,0-.12,2.2-1.77,4.9-2.6,7.33-3.95.28-.15.45-.14.66.15.52.69,1.24,1.18,1.96,1.65,3.91,2.53,9.64,1.16,11.84-2.85Z"/>
      <path class="cls-1" d="M70.95,25.8c-.7-1.26-1.64-2.38-2.07-3.79-1.52-5.04-1.95-10.02,1.12-14.68,2.46-3.74,7.2-5.15,11.15-3.46.06.17.09.36.19.51.67,1.04,1.23,2.14,1.58,3.32,1.38,4.61,1.39,9.27.23,13.92-.62,2.48-1.77,4.72-3.88,6.32-.72.54-1.48.94-2.47.79-2.16-.33-4-1.32-5.67-2.68-.07-.08-.13-.17-.2-.25h0Z"/>
      <path class="cls-5" d="M67.7,90.88c1.48,0,2.97,0,4.45,0,1.17,0,1.61-.44,1.61-1.61,0-7.6,0-15.2,0-22.81,0-1.69.83-2.73,2.44-3.12.99-.24,2.12.26,2.71,1.19-1.19.28-1.41.55-1.41,1.76,0,8.5,0,16.99,0,25.49,0,1.59-.48,2.07-2.07,2.08-1.99,0-3.98,0-5.97,0-.85,0-1.6-.28-2-1.09-.32-.65-.29-1.32.25-1.89Z"/>
      <path class="cls-1" d="M70.25,31.43c-.51,1.71-1.32,3.29-2.07,4.9-.17.38-.52.56-.83.78-.8.56-1.66,1.01-2.54,1.42-3.17.17-6.3.63-9.45.94-3.51.35-7.01.76-10.52,1.11-1.9.19-3.45-.98-3.8-2.83,2.91-.29,5.82-.57,8.73-.87,4.21-.44,8.45-.73,12.62-1.42,2.33-.39,4.06-1.6,4.44-4.16,1.15-.29,2.29-.13,3.43.11Z"/>
      <path class="cls-1" d="M66.82,31.32c-.37,2.56-2.1,3.77-4.44,4.16-4.17.69-8.41.98-12.62,1.42-2.91.3-5.82.58-8.73.87-.38-1.95.8-3.76,2.79-4.01,3.91-.49,7.84-.88,11.76-1.31,3.33-.36,6.66-.72,10-1.07.41-.04.82-.04,1.23-.05Z"/>
      <path class="cls-2" d="M71.09,25.85c-.06-.08-.13-.16-.19-.24.06.08.13.16.19.24Z"/>
      <path class="cls-5" d="M84.79,24.25c2.82-4.95,3.37-10.16,1.18-15.48-1-2.42-2.77-4.26-5.34-5.17.06.17.09.36.19.5.67,1.03,1.23,2.13,1.58,3.31,1.38,4.6,1.38,9.24.23,13.87-.62,2.47-1.76,4.71-3.87,6.3-.72.54-1.48.93-2.46.78-1.97-.3-3.66-1.17-5.2-2.34.27.99,1.94,1.98,1.2,2.97.04.04.08.07.12.13.54.72,1.28,1.22,2.03,1.7,4.05,2.63,10,1.2,12.27-2.95-1.97,0-3.93,0-5.9,0,1.67-.93,3.08-2.05,3.98-3.63Z"/>
      <path class="cls-5" d="M114.96,31.5c-3.23,6.26-24.05.19-31.3,1.68-3.3,2.44,1.06,19.97.54,25.21,2.09,4.42,15.12,4.36,16.79,8.96,2.68,5.05-9.04,11.56-13.7,14.99-.56.21-1.01.54-1.17.94-.03.03-.06.05-.09.08.02,0,.05-.01.07-.02-.01.04-.03.08-.03.12-.12.72.77,1.41,2.02,2.37.68.52,1.21.92,2.04,1.08.2.04,1.73.33,2.18-.4.37-.59-.18-1.51-.56-2.14-.42-.69-1.05-1.72-2.17-2.11.3-.11.61-.23.92-.36,1.2-.5,4.78-1.98,7.5-4.46,4.41-4.01,8.24-6.69,5.79-12.06-3.62-5.59-11.57-2.99-15.05-9.68-2.42-5.54-2.48-17.06-.58-17.66,4.91-1.19,36.49,4.22,26.79-6.54Z"/>
    </g>
  </g>
  <g id="Top_BGS" data-name="Top BGS">
    <path class="cls-6" d="M122.55,70.78c-.39,9.28-17.5,17.12-34.05,20.51-3.27.67-6.52,1.17-9.6,1.47-1.27.12-2.55.25-3.86.34-3.16.23-6.53.29-10.4-.2-1.02-.12-2.07-.29-3.16-.5-1.18-.22-2.93-.55-5.06-1.06-9.2-2.22-25.37-7.93-32.3-24.21-1.97-4.62-2.99-9.64-3.13-14.69C13.98,51.4,6.99,50.29,0,49.13v92.6h141.73V53.78c-9.46,1.72-18.87,2.9-28.23,3.6,3.78,7.05,9.26,8.07,9.04,13.39Z"/>
  </g>
  <g id="Texts">
    <g>
      <rect class="cls-4" x="0" y="87.41" width="141.73" height="54.32"/>
      <path class="cls-3" d="M37.15,109.56c0-.43.22-.67.66-.67h5.47c.43,0,.67.24.67.67v.45c0,.43-.24.66-.67.66h-4.08v2.98h3.17c.43,0,.67.22.67.66v.45c0,.45-.24.67-.67.67h-3.17v3.06h4.34c.43,0,.67.22.67.66v.45c0,.45-.24.67-.67.67h-5.73c-.43,0-.66-.22-.66-.67v-10.02Z"/>
      <path class="cls-3" d="M48.84,111.9c1.87,0,2.51,1.34,2.51,1.34h.03s-.03-.13-.03-.32v-.29c0-.3.22-.54.67-.54h.53c.43,0,.66.24.66.67v10.02c0,.45-.22.67-.66.67h-.71c-.43,0-.66-.22-.66-.67v-2.96c0-.42.03-.7.03-.7h-.03s-.61,1.33-2.51,1.33c-2.11,0-3.57-1.74-3.57-4.27s1.55-4.27,3.73-4.27ZM49.2,118.73c1.06,0,2.05-.77,2.05-2.58,0-1.26-.66-2.51-2.03-2.51-1.1,0-2.05.91-2.05,2.53s.83,2.56,2.03,2.56Z"/>
      <path class="cls-3" d="M55.13,112.76c0-.43.24-.67.67-.67h.69c.45,0,.67.24.67.67v4.16c0,.99.26,1.67,1.26,1.67,1.47,0,2.29-1.3,2.29-2.75v-3.07c0-.43.22-.67.67-.67h.69c.43,0,.67.24.67.67v6.82c0,.45-.24.67-.67.67h-.62c-.43,0-.66-.22-.66-.67v-.48c0-.19.03-.37.03-.37h-.03c-.38.83-1.44,1.71-2.83,1.71-1.75,0-2.83-.88-2.83-3.1v-4.58Z"/>
      <path class="cls-3" d="M64.75,110.04v-.48c0-.43.22-.67.66-.67h.7c.43,0,.67.24.67.67v.48c0,.43-.24.66-.67.66h-.7c-.43,0-.66-.22-.66-.66ZM64.75,112.76c0-.43.22-.67.66-.67h.7c.43,0,.66.24.66.67v6.82c0,.45-.22.67-.66.67h-.7c-.43,0-.66-.22-.66-.67v-6.82Z"/>
      <path class="cls-3" d="M68.76,109.56c0-.43.22-.67.66-.67h.7c.43,0,.66.24.66.67v7.99c0,.8.34.94.64.98.29.03.5.21.5.58v.54c0,.42-.19.69-.67.69-1.09,0-2.48-.29-2.48-2.62v-8.15Z"/>
      <path class="cls-3" d="M73.24,110.04v-.48c0-.43.22-.67.66-.67h.7c.43,0,.67.24.67.67v.48c0,.43-.24.66-.67.66h-.7c-.43,0-.66-.22-.66-.66ZM73.24,112.76c0-.43.22-.67.66-.67h.7c.43,0,.66.24.66.67v6.82c0,.45-.22.67-.66.67h-.7c-.43,0-.66-.22-.66-.67v-6.82Z"/>
      <path class="cls-3" d="M77.27,109.56c0-.43.24-.67.67-.67h.69c.45,0,.67.24.67.67v2.96c0,.4-.05.69-.05.69h.03s.72-1.31,2.5-1.31c2.16,0,3.6,1.74,3.6,4.26s-1.62,4.29-3.73,4.29c-1.84,0-2.5-1.38-2.5-1.38h-.03s.03.13.03.35v.26c0,.35-.22.58-.67.58h-.54c-.43,0-.67-.22-.67-.67v-10.02ZM81.26,118.73c1.14,0,2.06-.91,2.06-2.53s-.83-2.56-2.02-2.56c-1.06,0-2.06.78-2.06,2.53,0,1.33.69,2.56,2.02,2.56Z"/>
      <path class="cls-3" d="M86.92,112.76c0-.43.22-.67.66-.67h.62c.43,0,.67.24.67.67v.77c0,.3-.05.56-.05.56h.03c.32-.98,1.22-2.06,2.37-2.06.45,0,.61.22.61.67v.62c0,.43-.26.67-.69.67-1.49,0-2.21,1.47-2.21,2.96v2.62c0,.45-.22.67-.66.67h-.7c-.43,0-.66-.22-.66-.67v-6.82Z"/>
      <path class="cls-3" d="M92.92,110.04v-.48c0-.43.22-.67.66-.67h.7c.43,0,.67.24.67.67v.48c0,.43-.24.66-.67.66h-.7c-.43,0-.66-.22-.66-.66ZM92.92,112.76c0-.43.22-.67.66-.67h.7c.43,0,.66.24.66.67v6.82c0,.45-.22.67-.66.67h-.7c-.43,0-.66-.22-.66-.67v-6.82Z"/>
      <path class="cls-3" d="M100.92,111.9c2.48,0,4.5,1.78,4.5,4.27s-2.02,4.27-4.5,4.27-4.48-1.76-4.48-4.27,2-4.27,4.48-4.27ZM100.92,118.72c1.33,0,2.43-1.02,2.43-2.54s-1.1-2.54-2.43-2.54-2.42,1.04-2.42,2.54,1.09,2.54,2.42,2.54Z"/>
    </g>
  </g>
</svg>