<?xml version="1.0" encoding="UTF-8"?>
<svg xmlns="http://www.w3.org/2000/svg" viewBox="0 0 141.73 141.73">
  <defs>
    <style>
      .cls-1 {
        fill: #f1f2f2;
      }

      .cls-2 {
        fill: #e1deef;
      }

      .cls-3 {
        fill: none;
      }

      .cls-4 {
        fill: #a1b860;
        stroke: #a1b860;
        stroke-miterlimit: 10;
        stroke-width: .5px;
      }

      .cls-5 {
        fill: #8581be;
      }

      .cls-6 {
        fill: #f15b5c;
      }

      .cls-7 {
        fill: #55b6cf;
      }

      .cls-8 {
        fill: #f2f4f6;
      }
    </style>
  </defs>
  <g id="Bottom_BGS" data-name="Bottom BGS">
    <path class="cls-4" d="M0,0v57.12c7.27,1.32,14.57,2.63,21.88,3.88,1.31-3.98,3.36-7.42,5.52-9.93,1.87-2.18,1.99-1.52,5.02-4.45,10.78-10.41,8.5-17.88,16.91-24.8,4.44-3.65,8.82-4.72,16.06-6.18,19.88-3.99,45.76,1.78,52.25,15.75.91,1.95,2.52,6.53,3.32,12.25.17,1.23.7,5.8,0,11.94-.4,3.55-1.05,9.16-3.8,15.25,7.19.03,14.39-.15,21.58-.58,1.02-.15,2.02-.36,2.98-.64V0H0Z"/>
  </g>
  <g id="Elements">
    <g>
      <path class="cls-8" d="M89.1,26.51c0,3.31,0,6.62,0,9.93,0,2.31,0,4.61,0,6.92,0,18.1,0,36.21,0,54.31-12.56,0-25.11,0-37.67,0,0-18.1,0-36.21,0-54.31,0-2.31,0-4.61,0-6.92,0-3.31,0-6.62,0-9.93,6.87-.01,13.74-.03,20.61-.03,5.68,0,11.37.02,17.05.03ZM58.57,83.89c0,4.07.03,8.15-.02,12.22,0,.89.22,1.16,1.13,1.15,7.06-.04,14.13-.03,21.19,0,.81,0,1.11-.16,1.11-1.06-.04-8.22-.03-16.44,0-24.65,0-.83-.19-1.11-1.07-1.11-7.1.04-14.2.04-21.3,0-.91,0-1.06.34-1.05,1.13.03,4.11.01,8.22.01,12.33ZM70.28,49.85c1.59,0,2.58-.93,2.62-2.51.02-.9.05-1.8,0-2.7-.05-.81.14-1.2,1.06-1.12.89.08,1.8.04,2.7.01,1.61-.05,2.73-1.21,2.69-2.77-.04-1.58-1.07-2.59-2.69-2.61-.97-.01-1.95-.03-2.92,0-.61.02-.84-.22-.83-.82.02-1.08.03-2.16-.01-3.24-.05-1.37-1.14-2.34-2.58-2.37-1.47-.03-2.61.98-2.66,2.4-.04,1.01-.05,2.02,0,3.03.03.73-.19,1.06-.97,1.01-.86-.06-1.73-.02-2.59-.01-1.81.01-2.85.96-2.88,2.64-.03,1.63,1.14,2.73,2.93,2.75.94,0,1.87.02,2.81,0,.51-.01.71.19.7.7-.02,1.01-.02,2.02,0,3.03.03,1.66,1,2.6,2.65,2.6ZM70.38,53.5c-3.89,0-7.79,0-11.68,0-.94,0-1.51.44-1.62,1.37-.1.86.53,1.51,1.51,1.62.14.02.29.01.43.01,7.5,0,15,0,22.49,0,1.26,0,1.96-.56,1.96-1.52,0-.97-.67-1.48-1.95-1.49-3.71,0-7.43,0-11.14,0Z"/>
      <path class="cls-2" d="M89.1,97.67c0-18.1,0-36.21,0-54.31.43.02.86.07,1.29.07,8.49,0,16.98,0,25.47,0,.39,0,.79-.09,1.17.1,0,17.55,0,35.1,0,52.65q0,1.49-1.53,1.49c-8.79,0-17.59,0-26.38,0ZM103.04,81.68c-1.37,0-2.74-.02-4.11,0-1.36.02-1.99.63-2.01,1.98-.03,1.3-.02,2.59,0,3.89.02,1.28.61,2.01,1.87,2.04,2.85.06,5.7.06,8.54,0,1.26-.03,1.85-.76,1.87-2.05.02-1.26.02-2.52,0-3.78-.02-1.4-.67-2.06-2.05-2.08-1.37-.02-2.74,0-4.11,0ZM103.17,51.57c-1.48,0-2.96,0-4.44,0-1.13,0-1.78.58-1.81,1.68-.04,1.44-.05,2.89,0,4.33.04,1.22.64,1.77,1.85,1.78,2.85.02,5.7.01,8.55,0,1.18,0,1.8-.51,1.85-1.66.07-1.51.08-3.03,0-4.54-.06-1.1-.68-1.58-1.78-1.59-1.41-.01-2.81,0-4.22,0ZM103.05,66.7c-1.44,0-2.88-.01-4.32,0-1.14.01-1.77.58-1.8,1.68-.04,1.44-.05,2.88,0,4.32.04,1.21.62,1.76,1.86,1.78,2.85.03,5.69.03,8.54,0,1.18-.01,1.82-.63,1.86-1.79.05-1.44.04-2.88,0-4.32-.03-1.1-.67-1.66-1.81-1.67-1.44-.01-2.88,0-4.32,0Z"/>
      <path class="cls-2" d="M51.44,43.36c0,18.1,0,36.21,0,54.31-8.87,0-17.73-.02-26.6.03-1.16,0-1.34-.37-1.34-1.41.03-17.59.02-35.18.02-52.76.38-.19.78-.1,1.17-.1,8.49,0,16.98,0,25.47,0,.43,0,.86-.04,1.29-.07ZM37.55,81.68c-1.37,0-2.74-.01-4.11,0-1.45.02-2.08.67-2.1,2.13-.01.76,0,1.51,0,2.27,0,3.33.2,3.53,3.55,3.53,2.13,0,4.26.03,6.38,0,1.86-.03,2.36-.58,2.36-2.43,0-1.15.02-2.31,0-3.46-.02-1.42-.63-2.02-2.07-2.04-1.33-.02-2.67,0-4,0ZM37.55,51.57c-1.47,0-2.95,0-4.42,0-1.11,0-1.75.6-1.78,1.7-.04,1.4-.04,2.81,0,4.21.04,1.32.63,1.87,1.97,1.87,2.77,0,5.54,0,8.31,0,1.38,0,1.97-.56,2-1.96.03-1.37.03-2.73,0-4.1-.03-1.12-.65-1.71-1.75-1.72-1.44-.01-2.88,0-4.32,0ZM37.49,66.7c-1.44,0-2.88-.01-4.32,0-1.19.01-1.8.59-1.83,1.77-.03,1.37-.03,2.74,0,4.11.03,1.24.65,1.89,1.86,1.91,2.85.03,5.69.03,8.54,0,1.28-.01,1.84-.59,1.87-1.88.04-1.37.03-2.74,0-4.11-.02-1.19-.63-1.78-1.8-1.8-1.44-.02-2.88,0-4.32,0Z"/>
      <path class="cls-5" d="M89.1,26.51c-5.68-.01-11.37-.03-17.05-.03-6.87,0-13.74.02-20.61.03-1.67-.14-2.9-.92-3.4-2.55-.44-1.42-.07-2.71,1.08-3.72.71-.63,1.56-.87,2.49-.87,12.4,0,24.8,0,37.2,0,2.01,0,3.56,1.44,3.7,3.35.14,1.87-1.2,3.36-3.41,3.78Z"/>
      <path class="cls-5" d="M51.44,43.36c-.43.02-.86.07-1.29.07-8.49,0-16.98,0-25.47,0-.39,0-.79-.09-1.17.1-.64-.08-1.31-.08-1.91-.27-1.57-.48-2.6-2.19-2.37-3.8.25-1.75,1.68-3.04,3.5-3.05,6.37-.02,12.74-.01,19.11,0,3.2,0,6.4.02,9.61.03,0,2.31,0,4.61,0,6.92Z"/>
      <path class="cls-5" d="M117.02,43.53c-.38-.19-.78-.1-1.17-.1-8.49,0-16.98,0-25.47,0-.43,0-.86-.04-1.29-.07,0-2.31,0-4.61,0-6.92,7.16-.01,14.32-.02,21.48-.04,2.27,0,4.53,0,6.8,0,2.3,0,3.87,1.35,3.95,3.38.09,2.06-1.45,3.56-3.77,3.7-.18.01-.36.03-.53.05Z"/>
      <path class="cls-7" d="M58.57,83.89c0-4.11.02-8.22-.01-12.33,0-.8.14-1.14,1.05-1.13,7.1.04,14.2.04,21.3,0,.88,0,1.08.28,1.07,1.11-.03,8.22-.03,16.44,0,24.65,0,.9-.3,1.06-1.11,1.06-7.06-.03-14.13-.03-21.19,0-.91,0-1.14-.26-1.13-1.15.05-4.07.02-8.15.02-12.22Z"/>
      <path class="cls-6" d="M70.28,49.85c-1.64,0-2.61-.94-2.65-2.6-.02-1.01-.02-2.02,0-3.03.01-.51-.19-.71-.7-.7-.94.02-1.87.01-2.81,0-1.79-.02-2.95-1.12-2.93-2.75.03-1.68,1.06-2.63,2.88-2.64.86,0,1.73-.05,2.59.01.79.05,1-.28.97-1.01-.04-1.01-.03-2.02,0-3.03.05-1.42,1.2-2.42,2.66-2.4,1.44.03,2.53.99,2.58,2.37.04,1.08.03,2.16.01,3.24-.01.6.22.84.83.82.97-.03,1.95-.02,2.92,0,1.62.02,2.65,1.03,2.69,2.61.04,1.56-1.08,2.72-2.69,2.77-.9.03-1.81.07-2.7-.01-.91-.08-1.11.31-1.06,1.12.06.9.03,1.8,0,2.7-.04,1.58-1.03,2.51-2.62,2.51Z"/>
      <path class="cls-5" d="M70.38,53.5c3.71,0,7.43,0,11.14,0,1.29,0,1.96.52,1.95,1.49,0,.95-.7,1.51-1.96,1.52-7.5,0-15,0-22.49,0-.14,0-.29,0-.43-.01-.98-.11-1.61-.76-1.51-1.62.11-.93.69-1.37,1.62-1.37,3.89,0,7.79,0,11.68,0Z"/>
      <path class="cls-7" d="M103.04,81.68c1.37,0,2.74-.02,4.11,0,1.38.02,2.03.68,2.05,2.08.02,1.26.02,2.52,0,3.78-.02,1.29-.6,2.02-1.87,2.05-2.85.06-5.7.06-8.54,0-1.27-.03-1.86-.75-1.87-2.04-.02-1.3-.02-2.6,0-3.89.03-1.34.65-1.96,2.01-1.98,1.37-.02,2.74,0,4.11,0Z"/>
      <path class="cls-7" d="M103.17,51.57c1.41,0,2.81,0,4.22,0,1.1,0,1.72.49,1.78,1.59.08,1.51.08,3.03,0,4.54-.05,1.14-.68,1.65-1.85,1.66-2.85.01-5.7.02-8.55,0-1.2,0-1.8-.56-1.85-1.78-.05-1.44-.04-2.89,0-4.33.03-1.1.68-1.67,1.81-1.68,1.48-.01,2.96,0,4.44,0Z"/>
      <path class="cls-7" d="M103.05,66.7c1.44,0,2.88-.01,4.32,0,1.14.01,1.78.57,1.81,1.67.04,1.44.05,2.88,0,4.32-.04,1.16-.68,1.78-1.86,1.79-2.85.03-5.69.03-8.54,0-1.24-.01-1.81-.57-1.86-1.78-.05-1.44-.04-2.88,0-4.32.03-1.1.67-1.67,1.8-1.68,1.44-.01,2.88,0,4.32,0Z"/>
      <path class="cls-7" d="M37.55,81.68c1.33,0,2.67-.01,4,0,1.44.02,2.04.61,2.07,2.04.02,1.15,0,2.31,0,3.46,0,1.84-.5,2.39-2.36,2.43-2.13.04-4.25,0-6.38,0-3.35,0-3.55-.2-3.55-3.53,0-.76,0-1.51,0-2.27.02-1.47.65-2.12,2.1-2.13,1.37-.02,2.74,0,4.11,0Z"/>
      <path class="cls-7" d="M37.55,51.57c1.44,0,2.88-.01,4.32,0,1.1.01,1.72.61,1.75,1.72.03,1.37.03,2.73,0,4.1-.03,1.39-.61,1.95-2,1.96-2.77,0-5.54,0-8.31,0-1.33,0-1.93-.55-1.97-1.87-.04-1.4-.04-2.81,0-4.21.03-1.1.67-1.69,1.78-1.7,1.47-.01,2.95,0,4.42,0Z"/>
      <path class="cls-7" d="M37.49,66.7c1.44,0,2.88-.01,4.32,0,1.17.01,1.78.6,1.8,1.8.03,1.37.03,2.74,0,4.11-.03,1.29-.59,1.86-1.87,1.88-2.85.03-5.69.03-8.54,0-1.22-.01-1.83-.67-1.86-1.91-.03-1.37-.03-2.74,0-4.11.03-1.18.64-1.76,1.83-1.77,1.44-.01,2.88,0,4.32,0Z"/>
    </g>
  </g>
  <g id="Top_BGS" data-name="Top BGS">
    <path class="cls-4" d="M117.16,70.82c-.85,1.88-1.89,3.81-3.2,5.74-1.51,2.22-4.27,6.3-9.06,9.47-11.58,7.67-19.47,1.06-39.52,5.76-12.26,2.87-12.9,5.91-20.17,5.35-8.25-.63-19.57-7.08-23.47-18.94-2.02-6.14-1.55-12.13.13-17.22C14.57,59.75,7.27,58.44,0,57.12v84.61h141.73v-72.13c-.97.28-1.96.5-2.98.64-7.2.43-14.39.61-21.58.58Z"/>
  </g>
  <g id="Texts">
    <g>
      <rect class="cls-3" x="0" y="87.41" width="141.73" height="54.32"/>
      <path class="cls-1" d="M47.86,110.86l.35-.51c.26-.35.53-.37.93-.14.37.26,1.18.83,2.3.83,1.06,0,1.7-.53,1.7-1.3,0-2.16-5.3-1.71-5.3-5.25,0-2,1.66-3.3,3.83-3.3,1.34,0,2.45.51,2.93.86.35.26.4.56.21.91l-.29.53c-.24.46-.58.4-.91.22-.46-.27-1.09-.62-1.97-.62-1.06,0-1.73.51-1.73,1.28,0,2.13,5.3,1.58,5.3,5.2,0,1.84-1.38,3.36-3.76,3.36-1.62,0-2.93-.72-3.49-1.15-.26-.22-.42-.5-.1-.93Z"/>
      <path class="cls-1" d="M57.19,106.32h-.43c-.43,0-.66-.22-.66-.67v-.27c0-.43.22-.67.67-.67h.46v-1.67c0-.43.24-.67.67-.67h.64c.43,0,.67.24.67.67v1.67h1.18c.43,0,.67.24.67.67v.27c0,.45-.24.67-.66.67h-1.2v3.17c0,1.22.75,1.46,1.31,1.52.5.05.67.21.67.66v.5c0,.48-.27.67-.83.67-1.46,0-3.18-.78-3.18-2.99v-3.52Z"/>
      <path class="cls-1" d="M62.45,105.26c0-.43.24-.67.67-.67h.69c.45,0,.67.24.67.67v4.16c0,.99.26,1.67,1.26,1.67,1.47,0,2.29-1.3,2.29-2.75v-3.07c0-.43.22-.67.67-.67h.69c.43,0,.67.24.67.67v6.82c0,.45-.24.67-.67.67h-.62c-.43,0-.66-.22-.66-.67v-.48c0-.19.03-.37.03-.37h-.03c-.38.83-1.44,1.71-2.83,1.71-1.75,0-2.83-.88-2.83-3.11v-4.58Z"/>
      <path class="cls-1" d="M75.28,104.4c1.79,0,2.38,1.17,2.38,1.17h.03s-.03-.21-.03-.46v-3.04c0-.43.22-.67.66-.67h.71c.43,0,.66.24.66.67v10.02c0,.45-.22.67-.66.67h-.59c-.43,0-.66-.21-.66-.61v-.32c0-.16.03-.29.03-.29h-.03s-.69,1.41-2.56,1.41c-2.21,0-3.63-1.75-3.63-4.27s1.54-4.27,3.7-4.27ZM75.67,111.23c1.06,0,2.05-.77,2.05-2.58,0-1.26-.66-2.51-2.03-2.51-1.1,0-2.05.91-2.05,2.53s.83,2.56,2.03,2.56Z"/>
      <path class="cls-1" d="M81.71,102.54v-.48c0-.43.22-.67.66-.67h.7c.43,0,.67.24.67.67v.48c0,.43-.24.66-.67.66h-.7c-.43,0-.66-.22-.66-.66ZM81.71,105.26c0-.43.22-.67.66-.67h.7c.43,0,.66.24.66.67v6.82c0,.45-.22.67-.66.67h-.7c-.43,0-.66-.22-.66-.67v-6.82Z"/>
      <path class="cls-1" d="M89.72,104.4c2.48,0,4.5,1.78,4.5,4.27s-2.02,4.27-4.5,4.27-4.48-1.76-4.48-4.27,2-4.27,4.48-4.27ZM89.72,111.22c1.33,0,2.43-1.02,2.43-2.54s-1.1-2.54-2.43-2.54-2.42,1.04-2.42,2.54,1.09,2.54,2.42,2.54Z"/>
      <path class="cls-1" d="M44.31,120.26c0-.43.22-.67.66-.67h.62c.43,0,.66.24.66.67v.5c0,.18-.03.37-.03.37h.03c.4-.8,1.39-1.73,2.67-1.73s2.05.58,2.38,1.68h.03c.43-.85,1.5-1.68,2.79-1.68,1.7,0,2.67.96,2.67,3.11v4.58c0,.45-.24.67-.67.67h-.69c-.45,0-.67-.22-.67-.67v-4.19c0-.93-.18-1.63-1.12-1.63-1.38,0-2.08,1.41-2.08,2.83v2.99c0,.45-.22.67-.66.67h-.71c-.43,0-.67-.22-.67-.67v-4.19c0-.88-.13-1.63-1.09-1.63-1.44,0-2.11,1.47-2.11,2.83v2.99c0,.45-.22.67-.66.67h-.7c-.43,0-.66-.22-.66-.67v-6.82Z"/>
      <path class="cls-1" d="M62.33,119.4c2.32,0,3.62,1.65,3.62,3.89,0,.35-.3.69-.7.69h-4.98c.13,1.47,1.22,2.24,2.45,2.24.75,0,1.38-.29,1.76-.53.4-.19.69-.14.9.22l.19.32c.19.37.13.69-.22.9-.53.34-1.49.82-2.77.82-2.71,0-4.39-1.95-4.39-4.27,0-2.51,1.7-4.27,4.15-4.27ZM63.93,122.74c-.03-1.14-.72-1.81-1.65-1.81-1.04,0-1.78.72-1.97,1.81h3.62Z"/>
      <path class="cls-1" d="M70.63,119.4c1.79,0,2.38,1.17,2.38,1.17h.03s-.03-.21-.03-.46v-3.04c0-.43.22-.67.66-.67h.71c.43,0,.66.24.66.67v10.02c0,.45-.22.67-.66.67h-.59c-.43,0-.66-.21-.66-.61v-.32c0-.16.03-.29.03-.29h-.03s-.69,1.41-2.56,1.41c-2.21,0-3.63-1.75-3.63-4.27s1.54-4.27,3.7-4.27ZM71.02,126.23c1.06,0,2.05-.77,2.05-2.58,0-1.26-.66-2.51-2.03-2.51-1.1,0-2.05.91-2.05,2.53s.83,2.56,2.03,2.56Z"/>
      <path class="cls-1" d="M77.07,117.54v-.48c0-.43.22-.67.66-.67h.7c.43,0,.67.24.67.67v.48c0,.43-.24.66-.67.66h-.7c-.43,0-.66-.22-.66-.66ZM77.07,120.26c0-.43.22-.67.66-.67h.7c.43,0,.66.24.66.67v6.82c0,.45-.22.67-.66.67h-.7c-.43,0-.66-.22-.66-.67v-6.82Z"/>
      <path class="cls-1" d="M85.02,119.4c1.31,0,2.19.48,2.67.82.34.22.35.56.13.91l-.21.32c-.24.37-.51.37-.9.18-.34-.22-.88-.5-1.58-.5-1.5,0-2.48,1.14-2.48,2.53s.98,2.56,2.54,2.56c.8,0,1.44-.35,1.82-.62.4-.22.7-.18.91.21l.16.3c.19.35.14.67-.18.9-.5.37-1.49.94-2.9.94-2.71,0-4.43-1.91-4.43-4.27s1.73-4.27,4.43-4.27Z"/>
      <path class="cls-1" d="M93.45,119.4c2.48,0,4.5,1.78,4.5,4.27s-2.02,4.27-4.5,4.27-4.48-1.76-4.48-4.27,2-4.27,4.48-4.27ZM93.45,126.22c1.33,0,2.43-1.02,2.43-2.54s-1.1-2.54-2.43-2.54-2.42,1.04-2.42,2.54,1.09,2.54,2.42,2.54Z"/>
    </g>
  </g>
</svg>