<?xml version="1.0" encoding="UTF-8"?>
<svg xmlns="http://www.w3.org/2000/svg" viewBox="0 0 141.73 141.73">
  <defs>
    <style>
      .cls-1 {
        fill: #fecc95;
      }

      .cls-2 {
        fill: #41a2b7;
      }

      .cls-3 {
        fill: #f9cc8c;
      }

      .cls-4 {
        fill: #f1f2f2;
      }

      .cls-5 {
        fill: #fff;
      }

      .cls-6 {
        fill: #5daabd;
      }

      .cls-7 {
        fill: none;
      }

      .cls-8 {
        fill: #197ca0;
      }

      .cls-9 {
        fill: #1f3a6e;
        stroke: #1f3a6e;
        stroke-miterlimit: 10;
        stroke-width: .5px;
      }

      .cls-10 {
        fill: #e5b17e;
      }

      .cls-11 {
        fill: #55b6cf;
      }

      .cls-12 {
        fill: #44a3b7;
      }
    </style>
  </defs>
  <g id="Bottom_BGS" data-name="Bottom BGS">
    <path class="cls-9" d="M21.97,50.33c1.51-12.97,10.85-26.09,21.69-32.42.69-.4,1.38-.78,2.08-1.12,2.31-1.14,4.75-1.91,7.25-2.4.12-.02.24-.04.36-.06.24-.04.49-.09.74-.12,3.82-.62,7.79-.61,11.74-.29h0c.64.05,1.29.11,1.93.18,1.76.18,3.5.41,5.23.66.85.12,1.7.25,2.55.39.18.03.36.06.54.09.26.04.53.09.79.13h.01c.31.05.62.11.93.16,0,0,0,0,.01,0h0c.72.12,1.44.25,2.15.39,2.63.5,5.24,1.09,7.82,1.8.48.13.95.26,1.42.4,2.01.59,3.99,1.26,5.91,2.03.91.36,1.82.74,2.71,1.15.76.35,1.51.71,2.25,1.09.67.34,1.33.7,1.98,1.08,2.51,1.44,4.89,3.11,7.08,5.06,5.79,5.14,10.05,12.95,10.7,20.88,7.3.1,14.59.39,21.86.96V0H0v56.31c7.25-.34,14.51-.8,21.77-1.32-.05-1.54.01-3.1.19-4.65Z"/>
  </g>
  <g id="Elements">
    <g>
      <path class="cls-1" d="M63.68,39.38c3.27-2.63,6.24-5.6,9.32-8.44.3-.27.7-.5.77-.87-3.18-1.09-5.99.06-8.83,1.31-3.6,1.59-7.26,3.06-10.91,4.55-2.09.85-4.17.02-5.06-1.96-.88-1.96-.14-4.18,1.92-5.07,5.43-2.33,10.91-4.55,16.36-6.82.58-.24,1.17-.25,1.77-.23,3.97.09,7.92.57,11.89.73,2.22.09,4.44.37,6.66.3,1.26-.04,2.48.07,3.65.55.05.03.1.06.15.09-.03-.05-.07-.1-.1-.15-.56-1.69-1.44-3.25-1.34-5.15.17-3.23,5.81-8.43,8.92-9.38,3.42-1.04,7.09.2,9.13,3.09,1.97,2.79,1.92,6.69-.11,9.39-2.27,3.01-8.86,6.06-12.43,4.91-.28-.09-.57-.16-.86-.24-.04-.02-.07-.04-.11-.06.04.02.08.03.12.05.84,1.8,2.25,3.2,3.4,4.78,1.82,2.49,3.81,4.85,5.59,7.37.76,1.07,1.61,1.45,2.8,1.24,4.04-.71,8.16-.65,12.21-1.25,2.37-.35,4.39,1.22,4.6,3.44.21,2.28-1.38,4.06-3.8,4.27-4.89.43-9.81.64-14.65,1.38-2.82.43-4.44-.6-5.95-2.67-2.22-3.04-4.58-5.98-6.85-9-.53-.71-.84-.76-1.54-.11-4.31,4.05-8.68,8.04-13.03,12.05-.28.26-.53.56-.83.8-.44.36-.38.63-.01,1.04,1.89,2.1,3.74,4.24,5.63,6.35,1.71,1.92,3.48,3.79,5.17,5.73,2.37,2.73,1.76,6.69-1.44,8.34-5.42,2.78-10.93,5.38-16.41,8.05-2.81,1.38-5.61,2.8-8.44,4.13-3.84,1.8-8.15-.86-7.9-4.89.15-2.35,1.51-3.91,3.61-4.92,5.69-2.73,11.35-5.5,17.02-8.26,1.44-.7,1.44-.71.32-1.82-2.89-2.88-5.77-5.77-8.67-8.64-.35-.35-.63-.84-1.23-.86,0-.52-.4-.85-.65-1.22-2.33-3.53-2.29-7.12-.3-10.77.16-.29.46-.52.42-.91,0,0,0,.01,0,.01.21-.08.19-.16.01-.26Z"/>
      <path class="cls-10" d="M63.68,39.63c.04.39-.26.61-.42.91-1.99,3.64-2.04,7.23.3,10.77.25.38.65.7.65,1.22-10.39,8.35-20.78,16.71-31.19,25.05-2.46,1.97-5.85,1.6-7.71-.74-1.86-2.35-1.28-5.77,1.21-7.76,9.26-7.38,18.49-14.78,27.73-22.18,2.75-2.2,5.47-4.42,8.23-6.6.35-.28.66-.7,1.2-.68Z"/>
      <path class="cls-11" d="M74,17.16c-9.11,0-18.21,0-27.32,0-.07-.07-.14-.14-.22-.2q-.14-2.6,2.43-2.6c7.85,0,15.69,0,23.54,0q1.84,0,1.82,1.83c0,.26-.03.51-.04.77-.07.07-.14.13-.22.2Z"/>
      <path class="cls-8" d="M30.2,53.13c-3.09,0-6.18-.05-9.27.03-1.19.03-1.08-.63-1.05-1.37.03-.71-.29-1.53,1.03-1.52,6.18.06,12.37.06,18.55,0,1.21-.01,1.06.66,1.03,1.38-.03.7.33,1.55-1.02,1.51-3.09-.09-6.18-.03-9.27-.03Z"/>
      <path class="cls-2" d="M52.61,43.2c-6.7,0-13.4,0-20.11,0-.07-.07-.14-.14-.21-.2q-.13-2.59,2.44-2.59c5.48,0,10.95,0,16.43,0,1.93,0,1.68-.29,1.7,1.69,0,.3-.03.6-.04.9-.07.07-.14.14-.21.2Z"/>
      <path class="cls-12" d="M18.71,40.4c.13,0,.26,0,.39,0,1.77,0,2.26.66,1.81,2.38-.1.4-.32.45-.64.45-.64,0-1.29,0-1.93,0-1.77,0-2.26-.67-1.81-2.38.1-.4.33-.45.64-.45.52,0,1.03,0,1.55,0,0,0,0,0,0,0Z"/>
      <path class="cls-12" d="M26.71,43.24c-.13,0-.26,0-.38,0-1.82,0-2.22-.54-1.82-2.35.1-.48.38-.49.73-.49.89,0,1.79.05,2.68-.02.8-.06,1.03.23,1,1.01-.09,2.28.28,1.78-2.2,1.84Z"/>
      <path class="cls-11" d="M30.74,16.96q-.14-2.6,2.41-2.6,2.02,0,1.89,2.6c-.07.07-.14.14-.22.2-1.29,0-2.58,0-3.86,0-.07-.07-.14-.14-.22-.2Z"/>
      <path class="cls-11" d="M38.73,16.96q-.15-2.6,2.41-2.6,2.03,0,1.89,2.6c-.07.07-.14.14-.22.2-1.29,0-2.58,0-3.86,0-.07-.07-.15-.14-.22-.2Z"/>
      <path class="cls-8" d="M14.16,53.13c-.17,0-.34,0-.52,0-1.47,0-2.2-1.12-1.6-2.46.05-.11.14-.21.24-.29.18-.14,3.74-.17,3.82,0,.35.76.14,1.58.14,2.36,0,.6-.59.33-.92.37-.38.05-.77.01-1.16.01Z"/>
      <path class="cls-11" d="M30.74,16.96c.07.07.14.14.22.2-.17.03-.23-.04-.22-.2Z"/>
      <path class="cls-11" d="M34.82,17.16c.07-.07.14-.14.22-.2.02.16-.05.24-.22.2Z"/>
      <path class="cls-11" d="M38.73,16.96c.07.07.15.14.22.2-.17.03-.24-.04-.22-.2Z"/>
      <path class="cls-11" d="M42.81,17.16c.07-.07.14-.14.22-.2.02.16-.05.24-.22.2Z"/>
      <path class="cls-11" d="M46.46,16.96c.07.07.14.14.22.2-.17.03-.23-.04-.22-.2Z"/>
      <path class="cls-11" d="M74,17.16c.07-.07.14-.13.22-.2.02.16-.05.24-.22.2Z"/>
      <path class="cls-3" d="M63.68,39.38c.18.09.19.18-.01.26,0-.09,0-.17.01-.26Z"/>
      <path class="cls-6" d="M32.29,42.99c.07.07.14.14.21.2-.16.03-.23-.05-.21-.2Z"/>
      <path class="cls-6" d="M52.61,43.2c.07-.07.14-.14.21-.2.02.16-.05.23-.21.2Z"/>
      <path class="cls-5" d="M91.3,23.37s.07.1.1.15c-.05-.03-.1-.06-.15-.09,0,0,.06-.06.06-.06Z"/>
      <path class="cls-5" d="M94.62,25.98s-.08-.03-.12-.05c.04.02.07.04.11.06,0,0,0,0,0,0Z"/>
    </g>
  </g>
  <g id="Top_BGS" data-name="Top BGS">
    <path class="cls-9" d="M119.87,49.4c.13,1.63.13,3.26-.06,4.88-.14,1.17-.35,2.34-.67,3.49-1.72,6.11-6.74,9.88-7.22,16.31-.37,4.98,2.59,9.15-.56,13.93-3.66,5.58-11.99,7.99-21.61,8.51-.43.02-.87.04-1.31.06-11.1.39-23.66-1.61-32.65-4.15-.13-.03-.26-.07-.39-.11-3.41-.98-6.29-2.04-8.34-3.06-11.59-5.79-21.42-16.03-24.56-28.85-.43-1.77-.66-3.58-.73-5.41-7.26.53-14.52.98-21.77,1.32v85.43h141.73V50.36c-7.27-.57-14.56-.86-21.86-.96Z"/>
  </g>
  <g id="Texts">
    <g>
      <rect class="cls-7" x="0" y="87.41" width="141.73" height="54.32"/>
      <path class="cls-4" d="M43.08,109.53c.05-.42.27-.64.69-.64h1.01c.38,0,.62.18.75.54l2.03,5.07c.26.67.58,1.66.58,1.66h.03s.3-.99.56-1.66l2.03-5.07c.13-.37.37-.54.77-.54h.99c.42,0,.66.22.69.64l.82,10.04c.03.43-.19.69-.64.69h-.72c-.42,0-.66-.22-.69-.64l-.43-5.71c-.05-.75-.02-1.76-.02-1.76h-.03s-.35,1.1-.61,1.76l-1.65,3.87c-.13.35-.37.53-.75.53h-.67c-.4,0-.64-.18-.77-.53l-1.63-3.87c-.26-.66-.62-1.78-.62-1.78h-.03s.03,1.02-.02,1.78l-.43,5.71c-.03.42-.26.64-.69.64h-.72c-.45,0-.67-.26-.64-.69l.82-10.04Z"/>
      <path class="cls-4" d="M59.84,111.9c2.48,0,4.5,1.78,4.5,4.27s-2.02,4.27-4.5,4.27-4.48-1.76-4.48-4.27,2-4.27,4.48-4.27ZM59.84,118.72c1.33,0,2.43-1.02,2.43-2.54s-1.1-2.54-2.43-2.54-2.42,1.04-2.42,2.54,1.09,2.54,2.42,2.54Z"/>
      <path class="cls-4" d="M66.2,113.82h-.43c-.43,0-.66-.22-.66-.67v-.27c0-.43.22-.67.67-.67h.46v-1.66c0-.43.24-.67.67-.67h.64c.43,0,.67.24.67.67v1.66h1.18c.43,0,.67.24.67.67v.27c0,.45-.24.67-.66.67h-1.2v3.17c0,1.22.75,1.46,1.31,1.52.5.05.67.21.67.66v.5c0,.48-.27.67-.83.67-1.46,0-3.18-.78-3.18-2.99v-3.52Z"/>
      <path class="cls-4" d="M75.46,111.9c2.48,0,4.5,1.78,4.5,4.27s-2.02,4.27-4.5,4.27-4.48-1.76-4.48-4.27,2-4.27,4.48-4.27ZM75.46,118.72c1.33,0,2.43-1.02,2.43-2.54s-1.1-2.54-2.43-2.54-2.42,1.04-2.42,2.54,1.09,2.54,2.42,2.54Z"/>
      <path class="cls-4" d="M81.44,112.76c0-.43.22-.67.66-.67h.62c.43,0,.67.24.67.67v.77c0,.3-.05.56-.05.56h.03c.32-.98,1.22-2.06,2.37-2.06.45,0,.61.22.61.67v.62c0,.43-.26.67-.69.67-1.49,0-2.21,1.47-2.21,2.96v2.62c0,.45-.22.67-.66.67h-.7c-.43,0-.66-.22-.66-.67v-6.82Z"/>
      <path class="cls-4" d="M87.44,110.04v-.48c0-.43.22-.67.66-.67h.7c.43,0,.67.24.67.67v.48c0,.43-.24.66-.67.66h-.7c-.43,0-.66-.22-.66-.66ZM87.44,112.76c0-.43.22-.67.66-.67h.7c.43,0,.66.24.66.67v6.82c0,.45-.22.67-.66.67h-.7c-.43,0-.66-.22-.66-.67v-6.82Z"/>
      <path class="cls-4" d="M95.44,111.9c2.48,0,4.5,1.78,4.5,4.27s-2.02,4.27-4.5,4.27-4.48-1.76-4.48-4.27,2-4.27,4.48-4.27ZM95.44,118.72c1.33,0,2.43-1.02,2.43-2.54s-1.1-2.54-2.43-2.54-2.42,1.04-2.42,2.54,1.09,2.54,2.42,2.54Z"/>
    </g>
  </g>
</svg>