<?xml version="1.0" encoding="UTF-8"?>
<svg xmlns="http://www.w3.org/2000/svg" viewBox="0 0 141.73 141.73">
  <defs>
    <style>
      .cls-1 {
        fill: #82c585;
      }

      .cls-2 {
        fill: #f1f2f2;
      }

      .cls-3 {
        fill: none;
      }

      .cls-4 {
        fill: #b5b5b5;
      }

      .cls-5 {
        fill: #b6b5b6;
      }

      .cls-6 {
        fill: #989999;
      }

      .cls-7 {
        fill: #a1b860;
        stroke: #a1b860;
        stroke-miterlimit: 10;
        stroke-width: .5px;
      }

      .cls-8 {
        fill: #69ba6c;
      }
    </style>
  </defs>
  <g id="Bottom_BGS" data-name="Bottom BGS">
    <path class="cls-7" d="M16.12,58.25c.09-.76.23-1.53.44-2.28.2-.75.46-1.49.77-2.23,3.4-7.87,12.21-11.62,18.52-17.43,3.6-3.31,6.43-7.36,9.84-10.85,1.84-1.88,3.85-3.55,6.01-5.01l.38-.25c.66-.44,1.33-.86,2.02-1.26h0c.58-.34,1.16-.66,1.76-.96.1-.06.2-.12.31-.17.84-.43,1.69-.83,2.56-1.2.39-.17.79-.33,1.19-.48,5.08-2.01,10.57-3.08,16.07-3.21.49-.02.99-.02,1.47-.01,0,0,0,0,.01,0,.07,0,.13,0,.2,0,.13,0,.28,0,.41,0,.17,0,.33,0,.5.02.42,0,.85.03,1.27.05.95.05,1.9.13,2.84.24.53.06,1.06.14,1.59.22,1.31.19,2.6.45,3.89.75,1.27.3,2.53.65,3.76,1.05,1.6.53,3.17,1.14,4.7,1.85.56.26,1.12.53,1.66.81.57.29,1.13.6,1.68.91,1.49.85,2.92,1.81,4.29,2.84,1.09.83,2.14,1.71,3.14,2.66.14.13.29.28.43.41,8.44,8.22,13.22,19.47,16.69,30.73.29.94.51,1.86.7,2.76,5.54-.92,11.05-1.98,16.53-3.19V0H.02v57.59c5.31.82,10.64,1.56,16,2.2.02-.51.04-1.03.11-1.54Z"/>
  </g>
  <g id="Elements">
    <g>
      <g>
        <path class="cls-1" d="M51.18,56.68c-.05-.57.31-.99.56-1.43,4.15-7.28,8.3-14.55,12.45-21.83.2-.35.38-.7.66-1.21-1.26,0-2.4,0-3.55,0-1.85-.01-2.82-1.57-1.92-3.16,3.62-6.38,7.26-12.74,10.89-19.1.07-.13.18-.24.27-.36,1.76,3.1,3.53,6.2,5.29,9.3,1.54,2.7,3.11,5.38,4.6,8.1.87,1.59-.03,2.99-1.86,3-.99,0-1.97.02-2.96,0-.57-.01-.65.19-.39.65.55.96,1.09,1.93,1.64,2.89,2.11,3.68,4.22,7.36,6.32,11.05,1.76,3.1,3.53,6.2,5.25,9.33.67,1.22-.27,2.72-1.67,2.75-1.08.02-2.16,0-3.24,0q-1.59,0-.88,1.4c1.42,2.84,2.84,5.68,4.28,8.51,1.7,3.35,3.42,6.69,5.14,10.03-2.49.02-4.98.04-7.47.06-2.34.01-4.68.02-7.01.02-1.35,0-2.71,0-4.06,0-1.74,0-3.48,0-5.21,0-5.58-.01-11.16-.03-16.74-.03-.64,0-1.22-.1-1.72-.52-.8-.69-.93-1.67-.32-2.74,2.5-4.38,5-8.76,7.5-13.14.24-.42.47-.85.77-1.39-1.57,0-3.01.01-4.44,0-.69,0-1.35-.13-1.72-.82q.47-1.34-.47-1.37Z"/>
        <path class="cls-8" d="M92.08,76.62c-1.71-3.34-3.44-6.68-5.14-10.03-1.44-2.83-2.85-5.68-4.28-8.51q-.7-1.4.88-1.4c1.08,0,2.16.02,3.24,0,1.4-.03,2.34-1.53,1.67-2.75-1.72-3.13-3.48-6.23-5.25-9.33-2.1-3.69-4.22-7.37-6.32-11.05-.55-.96-1.09-1.93-1.64-2.89-.26-.46-.18-.66.39-.65.99.02,1.97.01,2.96,0,1.82-.01,2.73-1.41,1.86-3-1.49-2.72-3.07-5.4-4.6-8.1-1.77-3.1-3.53-6.2-5.29-9.3.5-.99.93-2.1,2.28-2.15,1.37-.05,1.82,1.06,2.37,2.03,3.61,6.32,7.22,12.64,10.83,18.96.14.24.28.48.41.73.74,1.47-.1,2.96-1.76,3.02-1.22.05-2.44,0-3.82,0,1.3,2.28,2.51,4.41,3.73,6.54,3.18,5.57,6.35,11.14,9.53,16.72.29.51.59,1.02.5,1.65-.15,1.05-.95,1.72-2.17,1.75-1.45.03-2.9,0-4.37,0-.06.42.21.67.36.95,2.55,4.48,5.1,8.95,7.66,13.42,1.11,1.95.26,3.42-1.99,3.44-.68,0-1.36-.01-2.04-.02Z"/>
        <path class="cls-4" d="M68.32,76.72c1.74,0,3.48,0,5.21,0,0,5.53.02,11.06.03,16.59-.34.01-.68.04-1.02.04-8.21,0-16.42,0-24.63,0-1,0-2.01-.08-2.49-1.2-.5-1.18-.46.84.76.44.42-.14,4.08-.25,4.51-.25,6.45,0,10.17-3.05,16.62-3.01.82,0,1.04-.21,1.03-1.03-.05-3.86-.03-7.72-.03-11.57Z"/>
        <path class="cls-6" d="M73.56,93.3c0-5.53-.02-11.06-.03-16.59,1.35,0,2.71,0,4.06,0,0,4.2,0,8.39,0,12.59-.25.26-.14.58-.15.88-.02,1.05-.02,2.1-.03,3.15-1.28,0-2.57-.01-3.85-.02Z"/>
        <path class="cls-5" d="M77.41,93.32c0-1.05,0-2.1.03-3.15,0-.3-.1-.62.15-.88,4.26,0,8.52,0,12.78.01,1.35,0,2.22.76,2.26,1.92.04,1.22-.78,2.1-2.07,2.11-4.38.02-8.77,0-13.15-.01Z"/>
        <path class="cls-5" d="M97.59,93.34c-.34,0-.68.03-1.02,0-1.1-.1-1.9-.95-1.91-2,0-1.05.77-1.93,1.88-2.02.73-.06,1.48-.06,2.21,0,1.03.09,1.83,1.01,1.83,1.99,0,1.05-.79,1.91-1.9,2.02-.37.04-.74,0-1.11,0Z"/>
        <path class="cls-8" d="M51.18,56.68q.94.03.47,1.37c-.39-.38-.52-.84-.47-1.37Z"/>
      </g>
      <g>
        <path class="cls-1" d="M76.84,67.21c-.04-.49.26-.84.48-1.22,3.55-6.23,7.11-12.46,10.66-18.69.17-.3.33-.6.56-1.04-1.08,0-2.06,0-3.04,0-1.59-.01-2.42-1.35-1.64-2.71,3.1-5.46,6.22-10.91,9.33-16.36.06-.11.16-.21.23-.31,1.51,2.66,3.02,5.31,4.53,7.97,1.32,2.31,2.66,4.61,3.94,6.94.75,1.36-.03,2.56-1.59,2.57-.85,0-1.69.01-2.54,0-.48-.01-.56.16-.33.56.47.82.93,1.65,1.4,2.48,1.8,3.16,3.62,6.31,5.41,9.47,1.51,2.66,3.02,5.31,4.49,7.99.58,1.05-.23,2.33-1.43,2.36-.92.02-1.85,0-2.77,0q-1.36,0-.75,1.2c1.22,2.43,2.43,4.87,3.66,7.29,1.46,2.87,2.93,5.73,4.4,8.59-2.13.02-4.26.04-6.4.05-2,.01-4,.01-6.01.02-1.16,0-2.32,0-3.47,0-1.49,0-2.98,0-4.46,0-4.78-.01-9.56-.02-14.33-.02-.55,0-1.05-.09-1.47-.45-.69-.59-.8-1.43-.27-2.35,2.14-3.75,4.28-7.5,6.43-11.25.21-.36.4-.72.66-1.19-1.35,0-2.57,0-3.8,0-.59,0-1.15-.11-1.47-.71q.4-1.15-.4-1.18Z"/>
        <path class="cls-8" d="M111.86,84.28c-1.47-2.86-2.94-5.72-4.4-8.59-1.23-2.42-2.44-4.86-3.66-7.29q-.6-1.2.75-1.2c.92,0,1.85.02,2.77,0,1.2-.03,2-1.31,1.43-2.36-1.47-2.68-2.98-5.33-4.49-7.99-1.8-3.16-3.61-6.31-5.41-9.47-.47-.82-.93-1.65-1.4-2.48-.22-.39-.15-.57.33-.56.84.02,1.69,0,2.54,0,1.56-.01,2.34-1.21,1.59-2.57-1.28-2.33-2.63-4.63-3.94-6.94-1.51-2.65-3.02-5.31-4.53-7.97.43-.85.8-1.8,1.95-1.84,1.17-.04,1.56.91,2.03,1.74,3.09,5.41,6.18,10.82,9.27,16.23.12.21.24.41.35.62.64,1.26-.09,2.53-1.5,2.59-1.04.04-2.09,0-3.27,0,1.11,1.95,2.15,3.78,3.19,5.6,2.72,4.77,5.44,9.54,8.16,14.31.25.44.5.88.42,1.41-.13.9-.82,1.48-1.86,1.5-1.24.02-2.48,0-3.74,0-.05.36.18.58.31.81,2.18,3.83,4.37,7.66,6.56,11.49.95,1.67.22,2.93-1.7,2.94-.58,0-1.16-.01-1.74-.02Z"/>
        <path class="cls-4" d="M91.52,84.37c1.49,0,2.98,0,4.46,0,0,4.74.01,9.47.02,14.21-.29.01-.58.03-.87.03-7.03,0-14.06,0-21.09,0-.86,0-1.72-.07-2.13-1.03-.43-1.01.03-1.97,1.08-2.32.36-.12.73-.11,1.1-.11,5.52,0,11.05-.01,16.57.02.7,0,.89-.18.88-.88-.04-3.3-.02-6.61-.03-9.91Z"/>
        <path class="cls-6" d="M96.01,98.57c0-4.74-.01-9.47-.02-14.21,1.16,0,2.32,0,3.47,0,0,3.59,0,7.19,0,10.78-.21.22-.12.5-.13.76-.02.9-.02,1.8-.03,2.69-1.1,0-2.2,0-3.3-.01Z"/>
        <path class="cls-5" d="M99.3,98.58c0-.9,0-1.8.03-2.69,0-.25-.09-.53.13-.76,3.65,0,7.3,0,10.95,0,1.16,0,1.9.65,1.93,1.65.03,1.04-.66,1.8-1.77,1.8-3.75.01-7.51,0-11.26-.01Z"/>
        <path class="cls-5" d="M116.58,98.6c-.29,0-.58.02-.87,0-.95-.09-1.63-.81-1.63-1.71,0-.9.66-1.65,1.61-1.73.63-.05,1.27-.05,1.9,0,.88.08,1.57.87,1.57,1.7,0,.9-.68,1.64-1.62,1.73-.31.03-.63,0-.95,0Z"/>
        <path class="cls-8" d="M76.84,67.21q.81.03.4,1.18c-.33-.32-.45-.72-.4-1.18Z"/>
      </g>
      <g>
        <path class="cls-1" d="M28.92,72.73c-.04-.42.23-.73.42-1.06,3.09-5.42,6.18-10.83,9.27-16.24.15-.26.28-.52.49-.9-.94,0-1.79,0-2.64,0-1.38-.01-2.1-1.17-1.43-2.35,2.69-4.74,5.4-9.48,8.11-14.22.06-.1.14-.18.2-.27,1.31,2.31,2.62,4.62,3.94,6.92,1.14,2.01,2.31,4,3.43,6.03.65,1.18-.02,2.22-1.38,2.23-.73,0-1.47.01-2.2,0-.42,0-.48.14-.29.49.41.72.81,1.44,1.22,2.15,1.57,2.74,3.14,5.48,4.7,8.23,1.31,2.31,2.63,4.62,3.9,6.94.5.91-.2,2.03-1.24,2.05-.8.02-1.61,0-2.41,0q-1.18,0-.66,1.04c1.06,2.11,2.11,4.23,3.18,6.34,1.27,2.49,2.55,4.98,3.82,7.46-1.85.01-3.71.03-5.56.04-1.74,0-3.48.01-5.22.02-1.01,0-2.01,0-3.02,0-1.29,0-2.59,0-3.88,0-4.15,0-8.3-.02-12.46-.02-.48,0-.91-.07-1.28-.39-.6-.51-.69-1.24-.24-2.04,1.86-3.26,3.72-6.52,5.58-9.78.18-.31.35-.63.57-1.04-1.17,0-2.24,0-3.31,0-.51,0-1-.1-1.28-.61q.35-1-.35-1.02Z"/>
        <path class="cls-8" d="M59.36,87.57c-1.27-2.49-2.56-4.97-3.82-7.46-1.07-2.11-2.12-4.22-3.18-6.34q-.52-1.04.66-1.04c.8,0,1.61.01,2.41,0,1.04-.02,1.74-1.14,1.24-2.05-1.28-2.33-2.59-4.63-3.9-6.94-1.56-2.75-3.14-5.48-4.7-8.23-.41-.72-.81-1.44-1.22-2.15-.2-.34-.13-.49.29-.49.73.02,1.47,0,2.2,0,1.36,0,2.03-1.05,1.38-2.23-1.11-2.03-2.28-4.02-3.43-6.03-1.31-2.31-2.62-4.62-3.94-6.92.37-.74.69-1.56,1.7-1.6,1.02-.03,1.36.79,1.77,1.51,2.68,4.7,5.37,9.4,8.06,14.11.1.18.21.36.3.54.55,1.1-.08,2.2-1.31,2.25-.91.03-1.82,0-2.85,0,.97,1.69,1.87,3.28,2.78,4.87,2.36,4.15,4.73,8.29,7.09,12.44.22.38.44.76.37,1.23-.11.78-.71,1.28-1.61,1.3-1.08.02-2.16,0-3.25,0-.05.32.15.5.27.7,1.89,3.33,3.8,6.66,5.7,9.99.83,1.45.19,2.55-1.48,2.56-.51,0-1.01,0-1.52-.02Z"/>
        <path class="cls-4" d="M41.68,87.64c1.29,0,2.59,0,3.88,0,0,4.12.01,8.23.02,12.35-.25.01-.5.03-.76.03-6.11,0-12.22,0-18.33,0-.75,0-1.49-.06-1.85-.89-.37-.88.03-1.71.94-2.02.32-.1.63-.1.95-.1,4.8,0,9.6-.01,14.4.01.61,0,.78-.16.77-.77-.04-2.87-.02-5.74-.02-8.61Z"/>
        <path class="cls-6" d="M45.58,99.98c0-4.12-.01-8.23-.02-12.35,1.01,0,2.01,0,3.02,0,0,3.12,0,6.25,0,9.37-.19.19-.11.43-.11.66-.01.78-.02,1.56-.02,2.34-.96,0-1.91,0-2.87-.01Z"/>
        <path class="cls-5" d="M48.44,100c0-.78,0-1.56.02-2.34,0-.22-.08-.46.11-.66,3.17,0,6.34,0,9.51,0,1.01,0,1.65.57,1.68,1.43.03.91-.58,1.56-1.54,1.57-3.26.01-6.53,0-9.79-.01Z"/>
        <path class="cls-5" d="M63.45,100.01c-.25,0-.51.02-.76,0-.82-.08-1.42-.71-1.42-1.49,0-.78.58-1.44,1.4-1.5.55-.04,1.1-.05,1.65,0,.76.07,1.36.75,1.37,1.48,0,.78-.59,1.42-1.41,1.5-.27.03-.55,0-.82,0Z"/>
        <path class="cls-8" d="M28.92,72.73q.7.02.35,1.02c-.29-.28-.39-.63-.35-1.02Z"/>
      </g>
    </g>
  </g>
  <g id="Top_BGS" data-name="Top BGS">
    <path class="cls-7" d="M125.22,58.21c3.65,17.57-11.58,27.97-28.85,28.36-.34,0-.68.01-1.02.01-8.27,0-16.65-1.52-24.78-.64-1.61.17-3.21.44-4.8.83-.67.16-1.35.36-2.02.57-.01,0-.02,0-.03,0-1.7.52-3.37,1.14-5.04,1.76-.8.3-1.61.6-2.41.88-3.33,1.18-6.68,2.15-10.19,2.1-7.43-.12-14-4.83-19.24-10.08-1.2-1.21-2.37-2.51-3.47-3.87-1.23-1.52-2.36-3.15-3.36-4.82-2.54-4.27-4.15-8.94-3.99-13.53-5.35-.64-10.69-1.37-16-2.2v84.14h141.73V55.02c-5.48,1.21-10.99,2.27-16.53,3.19Z"/>
  </g>
  <g id="Texts">
    <g>
      <rect class="cls-3" x=".02" y="87.41" width="141.73" height="54.32"/>
      <path class="cls-2" d="M45.29,109.56c0-.43.22-.67.66-.67h5.2c.43,0,.67.24.67.67v.45c0,.43-.24.66-.67.66h-3.81v3.22h3.11c.43,0,.67.22.67.66v.45c0,.43-.24.67-.67.67h-3.11v3.92c0,.45-.22.67-.66.67h-.74c-.43,0-.66-.22-.66-.67v-10.02Z"/>
      <path class="cls-2" d="M56.96,111.9c2.48,0,4.5,1.78,4.5,4.27s-2.02,4.27-4.5,4.27-4.48-1.76-4.48-4.27,2-4.27,4.48-4.27ZM56.96,118.72c1.33,0,2.43-1.02,2.43-2.54s-1.1-2.54-2.43-2.54-2.42,1.04-2.42,2.54,1.09,2.54,2.42,2.54Z"/>
      <path class="cls-2" d="M62.94,112.76c0-.43.22-.67.66-.67h.62c.43,0,.67.24.67.67v.77c0,.3-.05.56-.05.56h.03c.32-.98,1.22-2.07,2.37-2.07.45,0,.61.22.61.67v.62c0,.43-.26.67-.69.67-1.49,0-2.21,1.47-2.21,2.96v2.62c0,.45-.22.67-.66.67h-.7c-.43,0-.66-.22-.66-.67v-6.82Z"/>
      <path class="cls-2" d="M72.33,111.9c2.32,0,3.62,1.65,3.62,3.89,0,.35-.3.69-.7.69h-4.98c.13,1.47,1.22,2.24,2.45,2.24.75,0,1.38-.29,1.76-.53.4-.19.69-.14.9.22l.19.32c.19.37.13.69-.22.9-.53.34-1.49.82-2.77.82-2.71,0-4.39-1.95-4.39-4.27,0-2.51,1.7-4.27,4.15-4.27ZM73.93,115.24c-.03-1.14-.72-1.81-1.65-1.81-1.04,0-1.78.72-1.97,1.81h3.62Z"/>
      <path class="cls-2" d="M77.07,118.7l.19-.29c.24-.34.51-.37.91-.16.38.21.99.56,1.83.56.7,0,1.14-.32,1.14-.83,0-1.33-4.05-.83-4.05-3.63,0-1.6,1.41-2.45,3.12-2.45,1.09,0,1.84.35,2.27.59.37.19.42.53.24.9l-.16.29c-.19.38-.5.43-.9.26-.35-.16-.88-.4-1.55-.4s-1.1.29-1.1.8c0,1.34,4.05.82,4.05,3.6,0,1.44-1.22,2.51-3.11,2.51-1.31,0-2.22-.5-2.72-.83-.37-.21-.4-.56-.16-.91Z"/>
      <path class="cls-2" d="M85.02,113.82h-.43c-.43,0-.66-.22-.66-.67v-.27c0-.43.22-.67.67-.67h.46v-1.67c0-.43.24-.67.67-.67h.64c.43,0,.67.24.67.67v1.67h1.18c.43,0,.67.24.67.67v.27c0,.45-.24.67-.66.67h-1.2v3.17c0,1.22.75,1.46,1.31,1.52.5.05.67.21.67.66v.5c0,.48-.27.67-.83.67-1.46,0-3.18-.78-3.18-2.99v-3.52Z"/>
      <path class="cls-2" d="M94.54,115.21h.34v-.19c0-1.07-.69-1.44-1.52-1.44-.69,0-1.31.26-1.7.46-.4.18-.7.11-.9-.27l-.16-.3c-.19-.37-.13-.69.26-.9.53-.27,1.46-.67,2.67-.67,2.11,0,3.38,1.18,3.38,3.25v4.43c0,.45-.22.67-.67.67h-.54c-.43,0-.66-.22-.66-.67v-.32c0-.22.03-.35.03-.35h-.03s-.77,1.54-2.56,1.54c-1.49,0-2.71-.96-2.71-2.45,0-2.38,2.95-2.79,4.77-2.79ZM93.02,118.89c1.14,0,1.87-1.15,1.87-2.14v-.3h-.34c-1.02,0-2.77.16-2.77,1.38,0,.54.42,1.07,1.23,1.07Z"/>
    </g>
  </g>
</svg>