<?xml version="1.0" encoding="UTF-8"?>
<svg xmlns="http://www.w3.org/2000/svg" viewBox="0 0 141.73 141.73">
  <defs>
    <style>
      .cls-1 {
        fill: #f7d170;
      }

      .cls-2 {
        fill: #302861;
      }

      .cls-3 {
        fill: #bbe3e9;
      }

      .cls-3, .cls-4, .cls-5 {
        stroke-miterlimit: 10;
        stroke-width: .5px;
      }

      .cls-3, .cls-5 {
        stroke: #e8f4f7;
      }

      .cls-6 {
        fill: #f1f2f2;
      }

      .cls-7 {
        fill: #e84b4b;
      }

      .cls-8 {
        fill: #2d245f;
      }

      .cls-9 {
        fill: #f15c5c;
      }

      .cls-10 {
        fill: #f15d5c;
      }

      .cls-11 {
        fill: none;
      }

      .cls-12 {
        fill: #f4ead3;
      }

      .cls-13 {
        fill: #f48275;
      }

      .cls-14 {
        fill: #f47d6e;
      }

      .cls-4 {
        fill: #a1b860;
        stroke: #a1b860;
      }

      .cls-5 {
        fill: #bbe4e9;
      }

      .cls-15 {
        fill: #fef5e2;
      }

      .cls-16 {
        fill: #322a63;
      }

      .cls-17 {
        fill: #e8494a;
      }

      .cls-18 {
        fill: #e84b4a;
      }
    </style>
  </defs>
  <g id="Bottom_BGS" data-name="Bottom BGS">
    <path class="cls-4" d="M31.9,38.68c2.44-3.82,5.1-7.52,7.73-11.15.83-1.14,1.67-2.29,2.53-3.42,3.98-5.26,8.45-10.23,14.42-12.82,12.91-5.6,27.54,1.77,39.3,9.51,5.16,3.4,10.32,6.98,14.63,11.37,1.3,1.33,2.53,2.73,3.66,4.23,1.92,2.55,3.35,5.41,4.35,8.49,1.53,4.71,2.01,9.92,1.62,15.22,6.52-.02,13.05-.2,19.6-.6.66-.11,1.32-.24,1.98-.37V0H0v52.64c8.04.26,16.09.73,24.13,1.3,1.91-5.32,4.66-10.38,7.77-15.26Z"/>
  </g>
  <g id="Elements">
    <g>
      <path class="cls-1" d="M112.34,54.91c0,12.73.02,25.47.03,38.2,0,1.51,0,3.02,0,4.53-3.81,0-7.62,0-11.42,0,0-11.32-.03-22.64,0-33.96,0-1.18-.31-1.48-1.48-1.47-7.95.05-15.89.05-23.84,0-1.17,0-1.48.29-1.47,1.47.04,11.32.02,22.64.02,33.96-.06.04-.12.04-.18,0,0-11.37-.02-22.74,0-34.11,0-.93-.14-1.32-1.21-1.32-8.17.05-16.34.04-24.52,0-.9,0-1.22.21-1.22,1.17.04,11.42.03,22.83.03,34.25-3.74,0-7.47,0-11.21,0,0-14.24-.01-28.49-.02-42.73,1.59-.13,3.11-.47,4.52-1.29,2.66-1.54,4.06-3.93,4.78-6.82.38.22.26.63.36.95,1.14,3.83,3.65,6.3,7.56,6.95,3.97.66,7.3-.69,9.69-4.08.83-1.18,1.12-2.56,1.6-3.88.08.25.19.5.25.75,1.63,6.69,9.31,9.57,14.93,5.6,2.22-1.57,3.34-3.81,3.99-6.35.08.15.2.3.24.46.94,4.3,4.43,7.33,8.45,7.62,5.2.38,9.05-2.98,10.12-6.9.12-.45-.02-1,.39-1.37.76,4.51,4.26,8.22,9.61,8.35Z"/>
      <path class="cls-17" d="M38.38,23.3c-.02-4.97-.03-9.94-.08-14.9,0-.65.23-.89.85-.82.22.02.44,0,.67,0,22.76,0,45.52,0,68.28-.03,1.19,0,1.57.26,1.54,1.51-.1,4.74-.08,9.49-.1,14.24-.13,0-.27.01-.4.02-23.45,0-46.91,0-70.36,0-.13,0-.27-.01-.4-.02Z"/>
      <path class="cls-8" d="M74,97.64c.06.04.12.04.18,0,8.92,0,17.85,0,26.77,0,3.81,0,7.62,0,11.42,0,3.02.01,6.04.03,9.06.05,1.53,0,2.38.7,2.36,1.9-.02,1.15-.85,1.83-2.3,1.83-31.67,0-63.34,0-95.01,0-1.53,0-2.38-.7-2.35-1.9.02-1.19.86-1.82,2.43-1.83,3.11-.02,6.22-.03,9.32-.04,3.74,0,7.47,0,11.21,0,8.97,0,17.94,0,26.91,0Z"/>
      <path class="cls-10" d="M38.38,23.3c.13,0,.27.01.4.02.39.44.91.25,1.38.25,3.46.02,6.91.01,10.37.02-.04.26-.07.53-.13.78-1.71,6.94-3.43,13.88-5.14,20.83l-.09-.03c-6.32,0-12.63,0-18.95,0,2.66-4.78,5.31-9.57,7.97-14.35,1.39-2.51,2.8-5.01,4.2-7.52Z"/>
      <path class="cls-10" d="M109.14,23.32c.13,0,.27-.01.4-.02,3.83,6.82,7.65,13.63,11.47,20.45.26.46.47.94.7,1.42-6.32,0-12.64,0-18.95,0,0,0-.09.03-.09.03-.19-.82-.38-1.63-.58-2.45-1.56-6.39-3.13-12.77-4.69-19.16,3.46,0,6.91,0,10.37-.01.46,0,.99.18,1.38-.25Z"/>
      <path class="cls-7" d="M45.16,46.8c-.71,2.89-2.12,5.27-4.78,6.82-1.41.82-2.93,1.15-4.52,1.29-6.31.01-9.89-5.14-9.8-9.43,6.36,0,12.72-.01,19.08-.02,0,.45.01.9.02,1.35Z"/>
      <path class="cls-7" d="M112.34,54.91c-5.34-.13-8.85-3.85-9.61-8.35.01-.37.02-.74.04-1.1,6.36,0,12.72.01,19.08.02.07,4.29-3.41,9.27-9.51,9.44Z"/>
      <path class="cls-13" d="M45.15,45.45c-6.36,0-12.72.01-19.08.02-.05-.15,0-.25.14-.3,6.32,0,12.63,0,18.95,0,0,.1-.01.19-.02.29Z"/>
      <path class="cls-13" d="M121.85,45.47c-6.36,0-12.72-.01-19.08-.02,0-.1,0-.19-.01-.29,6.32,0,12.64,0,18.95,0,.15.05.19.16.14.3Z"/>
      <path class="cls-3" d="M74,97.64c-8.97,0-17.94,0-26.91,0,0-11.42,0-22.83-.03-34.25,0-.96.32-1.18,1.22-1.17,8.17.03,16.34.04,24.52,0,1.07,0,1.22.39,1.21,1.32-.02,11.37-.01,22.74,0,34.11ZM69.88,81.02c-.03-.67-.01-1.3-.1-1.91-.14-1.04-.84-1.61-1.82-1.59-1.04.02-1.76.63-1.8,1.75-.04,1.11-.05,2.22.01,3.32.06,1.06.78,1.62,1.75,1.65.98.03,1.69-.51,1.84-1.55.08-.57.07-1.15.1-1.67Z"/>
      <path class="cls-5" d="M100.95,97.64c-8.92,0-17.85,0-26.77,0,0-11.32.03-22.64-.02-33.96,0-1.18.3-1.48,1.47-1.47,7.95.05,15.89.05,23.84,0,1.17,0,1.48.28,1.48,1.47-.04,11.32-.01,22.64,0,33.96ZM78.48,80.93c0,.44-.02.89,0,1.33.05,1.2.81,2.06,1.86,1.99,1.14-.07,1.79-.75,1.85-1.88.05-1.02.06-2.05,0-3.06-.08-1.1-.95-1.9-1.93-1.79-1.05.11-1.7.71-1.76,1.81-.03.53,0,1.07,0,1.6Z"/>
      <path class="cls-12" d="M45.15,45.45c0-.1.01-.19.02-.29,0,0,.09.03.09.03,6.35-.01,12.71-.02,19.06-.04.03.1.06.2.09.3-.01.43-.02.86-.03,1.29-.48,1.31-.77,2.7-1.6,3.88-2.39,3.39-5.72,4.74-9.69,4.08-3.91-.65-6.42-3.12-7.56-6.95-.1-.32.02-.73-.36-.95,0-.45-.01-.9-.02-1.35Z"/>
      <path class="cls-12" d="M102.76,45.16c0,.1,0,.19.01.29-.01.37-.02.73-.04,1.1-.41.37-.27.92-.39,1.37-1.07,3.92-4.92,7.28-10.12,6.9-4.02-.29-7.52-3.32-8.45-7.62-.04-.16-.16-.31-.24-.46-.01-.43-.02-.86-.03-1.29.03-.1.06-.2.09-.3,6.35.01,12.71.02,19.06.04l.09-.03Z"/>
      <path class="cls-18" d="M83.51,45.46c.01.43.02.86.03,1.29-.65,2.54-1.77,4.79-3.99,6.35-5.62,3.96-13.3,1.09-14.93-5.6-.06-.26-.17-.5-.25-.75.01-.43.02-.86.03-1.29,6.37,0,12.73,0,19.1,0Z"/>
      <path class="cls-13" d="M109.14,23.32c-.39.44-.91.25-1.38.25-3.46.02-6.91.01-10.37.01-4.71-.03-9.42-.04-14.14-.1-.94-.01-.74.64-.85,1.15-.19-.74-.52-1.11-1.43-1.1-4.68.06-9.36.06-14.05,0-.91-.01-1.24.35-1.43,1.1-.11-.51.1-1.17-.84-1.16-4.71.06-9.42.07-14.14.1-3.46,0-6.91,0-10.37-.02-.46,0-.99.18-1.38-.25,23.45,0,46.91,0,70.36,0Z"/>
      <path class="cls-15" d="M50.53,23.59c4.71-.03,9.43-.04,14.14-.1.95-.01.73.65.84,1.16-.3,5.94-.6,11.89-.9,17.83-.26.52-.23,1.06-.15,1.61-.02.36-.03.73-.05,1.09l-.1-.02c-6.35.01-12.71.02-19.06.04,1.72-6.94,3.43-13.88,5.14-20.83.06-.26.09-.52.13-.78Z"/>
      <path class="cls-15" d="M82.41,24.65c.11-.51-.1-1.17.85-1.15,4.71.06,9.42.07,14.14.1,1.56,6.39,3.13,12.77,4.69,19.16.2.81.39,1.63.58,2.45-6.35-.01-12.71-.02-19.06-.04,0,0-.1.02-.1.02-.02-.45-.04-.91-.07-1.36.1-.46.11-.92-.13-1.35-.3-5.94-.6-11.88-.9-17.83Z"/>
      <path class="cls-16" d="M69.88,81.02c-.03.53-.02,1.11-.1,1.67-.15,1.04-.86,1.58-1.84,1.55-.97-.03-1.69-.59-1.75-1.65-.06-1.1-.06-2.22-.01-3.32.04-1.12.76-1.73,1.8-1.75.98-.02,1.68.55,1.82,1.59.08.61.07,1.24.1,1.91Z"/>
      <path class="cls-2" d="M78.48,80.93c0-.53-.02-1.07,0-1.6.06-1.1.72-1.7,1.76-1.81.98-.11,1.86.69,1.93,1.79.07,1.02.06,2.04,0,3.06-.06,1.13-.71,1.81-1.85,1.88-1.05.07-1.81-.79-1.86-1.99-.02-.44,0-.89,0-1.33Z"/>
      <path class="cls-14" d="M83.51,45.46c-6.37,0-12.73,0-19.1,0-.03-.1-.06-.2-.09-.3,0,0,.1.02.1.02,6.36,0,12.72,0,19.09,0,0,0,.1-.02.1-.02-.03.1-.06.2-.09.3Z"/>
      <path class="cls-9" d="M83.51,45.18c-6.36,0-12.72,0-19.09,0,.02-.36.03-.73.05-1.09.32-.51.16-1.07.15-1.61.3-5.94.6-11.89.9-17.83.19-.74.52-1.11,1.43-1.1,4.68.06,9.36.06,14.05,0,.91-.01,1.24.35,1.43,1.1.3,5.94.6,11.88.9,17.83-.03.46-.16.92.13,1.35.02.45.04.91.07,1.36Z"/>
      <path class="cls-14" d="M64.61,42.48c.02.54.18,1.1-.15,1.61-.08-.55-.11-1.09.15-1.61Z"/>
      <path class="cls-14" d="M83.44,43.82c-.28-.43-.16-.89-.13-1.35.24.43.23.88.13,1.35Z"/>
    </g>
  </g>
  <g id="Top_BGS" data-name="Top BGS">
    <path class="cls-4" d="M139.75,59.5c-6.55.4-13.09.58-19.6.6-1.2,16.61-10.94,31.19-24.19,37.71-6.52,3.21-14.31,4.54-21.09,1.94-2.87-1.1-5.45-2.86-8.27-4.1-3.79-1.68-7.91-2.4-12.1-2.9-5.45-.66-11.01-.93-16.06-2.44-2.43-.72-4.75-1.73-6.88-3.2-7.97-5.49-10.97-13.18-9.89-22.79.4-3.58,1.27-7.03,2.47-10.38-8.05-.57-16.09-1.04-24.13-1.3v89.09h141.73V59.12c-.66.13-1.32.26-1.98.37Z"/>
  </g>
  <g id="Texts">
    <g>
      <rect class="cls-11" x="0" y="87.41" width="141.73" height="54.32"/>
      <path class="cls-6" d="M39.21,101.93c.13-.37.37-.54.75-.54h1.02c.38,0,.64.18.75.54l3.55,10.05c.16.46-.05.77-.54.77h-.74c-.38,0-.64-.18-.75-.54l-.8-2.37h-3.99l-.78,2.35c-.11.38-.37.56-.75.56h-.74c-.5,0-.71-.3-.54-.77l3.55-10.05ZM41.95,108.16l-1.01-3.04c-.19-.64-.45-1.76-.45-1.76h-.03s-.26,1.12-.45,1.76l-1.03,3.04h2.96Z"/>
      <path class="cls-6" d="M46.55,105.26c0-.43.22-.67.66-.67h.62c.43,0,.66.24.66.67v.5c0,.18-.03.37-.03.37h.03c.4-.8,1.39-1.73,2.67-1.73s2.05.58,2.38,1.68h.03c.43-.85,1.5-1.68,2.79-1.68,1.7,0,2.67.96,2.67,3.11v4.58c0,.45-.24.67-.67.67h-.69c-.45,0-.67-.22-.67-.67v-4.19c0-.93-.18-1.63-1.12-1.63-1.38,0-2.08,1.41-2.08,2.83v2.99c0,.45-.22.67-.66.67h-.71c-.43,0-.67-.22-.67-.67v-4.19c0-.88-.13-1.63-1.09-1.63-1.44,0-2.11,1.47-2.11,2.83v2.99c0,.45-.22.67-.66.67h-.7c-.43,0-.66-.22-.66-.67v-6.82Z"/>
      <path class="cls-6" d="M60.92,102.06c0-.43.24-.67.67-.67h.69c.45,0,.67.24.67.67v2.96c0,.4-.05.69-.05.69h.03s.72-1.31,2.5-1.31c2.16,0,3.6,1.75,3.6,4.26s-1.62,4.29-3.73,4.29c-1.84,0-2.5-1.38-2.5-1.38h-.03s.03.13.03.35v.26c0,.35-.22.58-.67.58h-.54c-.43,0-.67-.22-.67-.67v-10.02ZM64.91,111.23c1.14,0,2.06-.91,2.06-2.53s-.83-2.56-2.02-2.56c-1.06,0-2.06.78-2.06,2.53,0,1.33.69,2.56,2.02,2.56Z"/>
      <path class="cls-6" d="M70.57,102.54v-.48c0-.43.22-.67.66-.67h.7c.43,0,.67.24.67.67v.48c0,.43-.24.66-.67.66h-.7c-.43,0-.66-.22-.66-.66ZM70.57,105.26c0-.43.22-.67.66-.67h.7c.43,0,.66.24.66.67v6.82c0,.45-.22.67-.66.67h-.7c-.43,0-.66-.22-.66-.67v-6.82Z"/>
      <path class="cls-6" d="M78.25,104.4c2.32,0,3.62,1.65,3.62,3.89,0,.35-.3.69-.7.69h-4.98c.13,1.47,1.22,2.24,2.45,2.24.75,0,1.38-.29,1.76-.53.4-.19.69-.14.9.22l.19.32c.19.37.13.69-.22.9-.53.34-1.49.82-2.77.82-2.71,0-4.39-1.95-4.39-4.27,0-2.51,1.7-4.27,4.15-4.27ZM79.85,107.74c-.03-1.14-.72-1.81-1.65-1.81-1.04,0-1.78.72-1.97,1.81h3.62Z"/>
      <path class="cls-6" d="M83.34,105.26c0-.43.22-.67.66-.67h.62c.43,0,.66.24.66.67v.5c0,.18-.03.37-.03.37h.03c.35-.69,1.25-1.73,2.9-1.73,1.81,0,2.85.94,2.85,3.11v4.58c0,.45-.22.67-.67.67h-.69c-.43,0-.67-.22-.67-.67v-4.16c0-.99-.26-1.66-1.28-1.66-1.44,0-2.35,1.2-2.35,2.67v3.15c0,.45-.22.67-.66.67h-.7c-.43,0-.66-.22-.66-.67v-6.82Z"/>
      <path class="cls-6" d="M93.29,106.32h-.43c-.43,0-.66-.22-.66-.67v-.27c0-.43.22-.67.67-.67h.46v-1.67c0-.43.24-.67.67-.67h.64c.43,0,.67.24.67.67v1.67h1.18c.43,0,.67.24.67.67v.27c0,.45-.24.67-.66.67h-1.2v3.17c0,1.22.75,1.46,1.31,1.52.5.05.67.21.67.66v.5c0,.48-.27.67-.83.67-1.46,0-3.18-.78-3.18-2.99v-3.52Z"/>
      <path class="cls-6" d="M102.25,104.4c2.32,0,3.62,1.65,3.62,3.89,0,.35-.3.69-.7.69h-4.98c.13,1.47,1.22,2.24,2.45,2.24.75,0,1.38-.29,1.76-.53.4-.19.69-.14.9.22l.19.32c.19.37.13.69-.22.9-.53.34-1.49.82-2.77.82-2.71,0-4.39-1.95-4.39-4.27,0-2.51,1.7-4.27,4.15-4.27ZM103.85,107.74c-.03-1.14-.72-1.81-1.65-1.81-1.04,0-1.78.72-1.97,1.81h3.62Z"/>
      <path class="cls-6" d="M39.23,120.26c0-.43.24-.67.67-.67h.51c.43,0,.66.24.66.56v.37c0,.18-.02.32-.02.32h.03s.72-1.44,2.62-1.44c2.21,0,3.63,1.75,3.63,4.27s-1.6,4.27-3.75,4.27c-1.7,0-2.35-1.25-2.35-1.25h-.03s.05.29.05.71v2.88c0,.45-.22.67-.67.67h-.69c-.43,0-.67-.22-.67-.67v-10.02ZM43.24,126.23c1.12,0,2.05-.91,2.05-2.53s-.83-2.56-2.02-2.56c-1.06,0-2.06.77-2.06,2.58,0,1.26.7,2.51,2.03,2.51Z"/>
      <path class="cls-6" d="M48.77,120.26c0-.43.24-.67.67-.67h.69c.45,0,.67.24.67.67v4.16c0,.99.26,1.67,1.26,1.67,1.47,0,2.29-1.3,2.29-2.75v-3.07c0-.43.22-.67.67-.67h.69c.43,0,.67.24.67.67v6.82c0,.45-.24.67-.67.67h-.62c-.43,0-.66-.22-.66-.67v-.48c0-.19.03-.37.03-.37h-.03c-.38.83-1.44,1.71-2.83,1.71-1.75,0-2.83-.88-2.83-3.11v-4.58Z"/>
      <path class="cls-6" d="M58.39,117.06c0-.43.24-.67.67-.67h.69c.45,0,.67.24.67.67v2.96c0,.4-.05.69-.05.69h.03s.72-1.31,2.5-1.31c2.16,0,3.6,1.75,3.6,4.26s-1.62,4.29-3.73,4.29c-1.84,0-2.5-1.38-2.5-1.38h-.03s.03.13.03.35v.26c0,.35-.22.58-.67.58h-.54c-.43,0-.67-.22-.67-.67v-10.02ZM62.37,126.23c1.14,0,2.06-.91,2.06-2.53s-.83-2.56-2.02-2.56c-1.06,0-2.06.78-2.06,2.53,0,1.33.69,2.56,2.02,2.56Z"/>
      <path class="cls-6" d="M68.04,117.06c0-.43.24-.67.67-.67h.69c.45,0,.67.24.67.67v2.96c0,.4-.05.69-.05.69h.03s.72-1.31,2.5-1.31c2.16,0,3.6,1.75,3.6,4.26s-1.62,4.29-3.73,4.29c-1.84,0-2.5-1.38-2.5-1.38h-.03s.03.13.03.35v.26c0,.35-.22.58-.67.58h-.54c-.43,0-.67-.22-.67-.67v-10.02ZM72.02,126.23c1.14,0,2.06-.91,2.06-2.53s-.83-2.56-2.02-2.56c-1.06,0-2.06.78-2.06,2.53,0,1.33.69,2.56,2.02,2.56Z"/>
      <path class="cls-6" d="M77.67,117.06c0-.43.22-.67.66-.67h.7c.43,0,.66.24.66.67v7.99c0,.8.34.94.64.98.29.03.5.21.5.58v.54c0,.42-.19.69-.67.69-1.09,0-2.48-.29-2.48-2.62v-8.15Z"/>
      <path class="cls-6" d="M82.15,117.54v-.48c0-.43.22-.67.66-.67h.7c.43,0,.67.24.67.67v.48c0,.43-.24.66-.67.66h-.7c-.43,0-.66-.22-.66-.66ZM82.15,120.26c0-.43.22-.67.66-.67h.7c.43,0,.66.24.66.67v6.82c0,.45-.22.67-.66.67h-.7c-.43,0-.66-.22-.66-.67v-6.82Z"/>
      <path class="cls-6" d="M90.1,119.4c1.31,0,2.19.48,2.67.82.34.22.35.56.13.91l-.21.32c-.24.37-.51.37-.9.18-.34-.22-.88-.5-1.58-.5-1.5,0-2.48,1.14-2.48,2.53s.98,2.56,2.55,2.56c.8,0,1.44-.35,1.82-.62.4-.22.7-.18.91.21l.16.3c.19.35.14.67-.18.9-.5.37-1.49.94-2.9.94-2.71,0-4.43-1.91-4.43-4.27s1.73-4.27,4.43-4.27Z"/>
      <path class="cls-6" d="M98.53,119.4c2.48,0,4.5,1.78,4.5,4.27s-2.02,4.27-4.5,4.27-4.48-1.76-4.48-4.27,2-4.27,4.48-4.27ZM98.53,126.22c1.33,0,2.43-1.02,2.43-2.54s-1.1-2.54-2.43-2.54-2.42,1.04-2.42,2.54,1.09,2.54,2.42,2.54Z"/>
    </g>
  </g>
</svg>